<svg xmlns="http://www.w3.org/2000/svg" width="1052" height="261" fill="none"><mask id="a" fill="#fff"><path fill-rule="evenodd" d="M80 0C35.817 0 0 35.817 0 80s35.817 80 80 80h144c55.228 0 100-44.772 100-100v101c0 55.228 44.772 100 100 100h598c16.57 0 30-13.431 30-30V100c0-55.228-44.77-100-100-100H80Z" clip-rule="evenodd"/></mask><path fill="#212439" fill-rule="evenodd" d="M80 0C35.817 0 0 35.817 0 80s35.817 80 80 80h144c55.228 0 100-44.772 100-100v101c0 55.228 44.772 100 100 100h598c16.57 0 30-13.431 30-30V100c0-55.228-44.77-100-100-100H80Z" clip-rule="evenodd"/><path fill="#fff" d="M1 80C1 36.37 36.37 1 80 1v-2C35.265-1-1 35.265-1 80h2Zm79 79c-43.63 0-79-35.37-79-79h-2c0 44.735 36.265 81 81 81v-2Zm144 0H80v2h144v-2Zm99-99c0 54.676-44.324 99-99 99v2c55.781 0 101-45.219 101-101h-2Zm2 101V60h-2v101h2Zm99 99c-54.676 0-99-44.324-99-99h-2c0 55.781 45.219 101 101 101v-2Zm598 0H424v2h598v-2Zm29-29c0 16.016-12.98 29-29 29v2c17.12 0 31-13.879 31-31h-2Zm0-131v131h2V100h-2ZM952 1c54.68 0 99 44.324 99 99h2c0-55.78-45.22-101-101-101v2ZM324 1h628v-2H324v2ZM80 1h244v-2H80v2Z" mask="url(#a)"/><path fill="#C4FC50" stroke="#333F52" d="M218 260.5a3.5 3.5 0 0 1-3.5-3.5v-82a3.5 3.5 0 0 1 3.5-3.5h66c10.77 0 19.5 8.73 19.5 19.5v66a3.5 3.5 0 0 1-3.5 3.5h-82Z"/><path fill="#212121" d="m243.45 201.699 30-1.1 1.1 30-5.295.242-.77-21-21.991 23.665-3.888-3.613 21.991-23.665-21 .77-.147-5.299Z"/></svg>