<svg xmlns="http://www.w3.org/2000/svg" width="656" height="198" fill="none"><mask id="a" fill="#fff"><path fill-rule="evenodd" d="M602.63 0H208.943a.076.076 0 0 0-.076.076.076.076 0 0 1-.075.075H53.37C23.895.151 0 24.046 0 53.521v14.546c0 29.476 23.895 53.371 53.37 53.371h102.127c29.476 0 53.37-23.895 53.37-53.37v76.562c0 29.475 23.895 53.37 53.371 53.37h377.751c8.843 0 16.011-7.168 16.011-16.011V53.37C656 23.895 632.105 0 602.63 0Z" clip-rule="evenodd"/></mask><path fill="#212439" fill-rule="evenodd" d="M602.63 0H208.943a.076.076 0 0 0-.076.076.076.076 0 0 1-.075.075H53.37C23.895.151 0 24.046 0 53.521v14.546c0 29.476 23.895 53.371 53.37 53.371h102.127c29.476 0 53.37-23.895 53.37-53.37v76.562c0 29.475 23.895 53.37 53.371 53.37h377.751c8.843 0 16.011-7.168 16.011-16.011V53.37C656 23.895 632.105 0 602.63 0Z" clip-rule="evenodd"/><path fill="#fff" d="M208.943.534H602.63V-.534H208.943V.534ZM53.37.685h155.422V-.382H53.37V.685ZM.534 53.522C.534 24.34 24.189.685 53.37.685V-.382C23.6-.382-.534 23.75-.534 53.522H.534Zm0 14.545V53.522H-.534v14.545H.534Zm52.836 52.837C24.19 120.904.534 97.248.534 68.067H-.534c0 29.77 24.134 53.905 53.904 53.905v-1.068Zm102.127 0H53.37v1.068h102.127v-1.068Zm52.837-52.837c0 29.181-23.656 52.837-52.837 52.837v1.068c29.77 0 53.904-24.134 53.904-53.904h-1.067Zm1.067 76.563V68.067h-1.067v76.563h1.067Zm52.837 52.836c-29.181 0-52.837-23.655-52.837-52.836h-1.067c0 29.77 24.133 53.904 53.904 53.904v-1.068Zm377.751 0H262.238v1.068h377.751v-1.068Zm15.477-15.477c0 8.548-6.929 15.477-15.477 15.477v1.068c9.138 0 16.545-7.408 16.545-16.545h-1.068Zm0-128.619v128.62h1.068V53.37h-1.068ZM602.63.534c29.181 0 52.836 23.655 52.836 52.836h1.068c0-29.77-24.134-53.904-53.904-53.904V.534ZM208.334.076c0-.253.205-.458.458-.458V.685a.61.61 0 0 0 .609-.61h-1.067Zm.609-.61a.609.609 0 0 0-.609.61h1.067a.458.458 0 0 1-.458.458V-.534Z" mask="url(#a)"/><path fill="#C4FC50" stroke="#333F52" stroke-width=".534" d="M139.624 189.181a1.868 1.868 0 0 1-1.868-1.868v-55.73c0-1.032.836-1.868 1.868-1.868h47.153c5.748 0 10.407 4.66 10.407 10.407v47.191a1.868 1.868 0 0 1-1.868 1.868h-55.692Z"/><path fill="#212121" d="m157.11 149.915 19.987-.734.733 20-3.528.161-.513-14-14.651 15.777-2.59-2.409 14.651-15.776-13.991.513-.098-3.532Z"/></svg>