<svg xmlns="http://www.w3.org/2000/svg" width="1440" height="685" fill="none"><g clip-path="url(#a)"><mask id="b" width="1512" height="851" x="0" y="0" maskUnits="userSpaceOnUse" style="mask-type:luminance"><path fill="#fff" d="M0 0h1512v850.5H0V0Z"/></mask><g fill="#0F1B1B" fill-opacity=".07" mask="url(#b)"><path d="m571.964 166.567-19.439-1.589a1.747 1.747 0 0 0-1.288.421 1.742 1.742 0 0 0-.625 1.203l-1.449 17.709-17.709-1.448a1.744 1.744 0 0 0-1.288.422c-.349.29-.586.714-.625 1.202l-1.451 17.744-17.744-1.451a1.744 1.744 0 0 0-1.288.422 1.75 1.75 0 0 0-.626 1.202l-1.448 17.709-17.71-1.448a1.743 1.743 0 0 0-1.287.422 1.74 1.74 0 0 0-.625 1.202l-1.59 19.44a1.752 1.752 0 1 0 3.493.286l1.448-17.716 17.716 1.449a1.75 1.75 0 0 0 1.285-.419c.346-.29.582-.713.622-1.2l1.448-17.715 17.716 1.448c.495.041.957-.131 1.302-.436.357-.291.601-.718.642-1.214l1.449-17.715 17.715 1.449a1.75 1.75 0 0 0 1.285-.419c.346-.291.582-.714.622-1.2l1.448-17.715 17.716 1.448a1.752 1.752 0 1 0 .285-3.493ZM1491.23 32.945l-19.44-1.59c-.48-.04-.94.126-1.28.422-.35.29-.59.714-.63 1.202l-1.45 17.71-17.71-1.448c-.49-.04-.94.125-1.29.422-.34.29-.58.714-.62 1.202l-1.45 17.744-17.75-1.451c-.48-.04-.94.125-1.28.421-.35.29-.59.715-.63 1.202l-1.45 17.71-17.71-1.448c-.48-.04-.94.125-1.28.422-.35.29-.59.714-.63 1.202l-1.59 19.44a1.752 1.752 0 1 0 3.49.285l1.45-17.715 17.72 1.448c.48.04.94-.123 1.28-.418.35-.29.58-.714.62-1.2l1.45-17.716 17.72 1.45c.49.04.96-.132 1.3-.437.36-.291.6-.719.64-1.214l1.45-17.715 17.72 1.448c.48.04.94-.124 1.28-.419.35-.29.58-.713.62-1.2l1.45-17.715 17.72 1.449a1.753 1.753 0 1 0 .28-3.493ZM1104.69 354.741l-19.44-1.589c-.49-.04-.94.125-1.29.422-.35.29-.58.714-.62 1.202l-1.45 17.709-17.71-1.448c-.49-.04-.94.125-1.29.422-.35.29-.58.714-.62 1.202l-1.45 17.744-17.75-1.451c-.49-.04-.94.125-1.29.422-.34.29-.58.714-.62 1.202l-1.45 17.709-17.71-1.448c-.49-.04-.94.125-1.29.422-.35.291-.58.715-.62 1.202l-1.59 19.44a1.751 1.751 0 1 0 3.49.286l1.45-17.716 17.71 1.449c.49.04.95-.124 1.29-.419.35-.29.58-.713.62-1.2l1.45-17.715 17.72 1.448c.49.041.95-.131 1.3-.436.35-.291.6-.718.64-1.214l1.45-17.715 17.71 1.449c.49.039.95-.124 1.29-.419.35-.291.58-.714.62-1.2l1.45-17.715 17.71 1.448c.97.079 1.82-.639 1.89-1.603a1.745 1.745 0 0 0-1.6-1.89ZM143.153 432.413l-12.622-14.87a1.744 1.744 0 0 0-1.209-.612 1.748 1.748 0 0 0-1.292.407l-13.547 11.499-11.498-13.547a1.746 1.746 0 0 0-1.209-.612 1.744 1.744 0 0 0-1.292.408l-13.573 11.521-11.521-13.573a1.75 1.75 0 0 0-1.209-.613 1.748 1.748 0 0 0-1.292.408l-13.547 11.499-11.498-13.547a1.747 1.747 0 0 0-1.209-.612 1.744 1.744 0 0 0-1.292.408l-14.87 12.622a1.751 1.751 0 1 0 2.268 2.671l13.55-11.502 11.503 13.551c.316.372.754.579 1.205.612a1.74 1.74 0 0 0 1.288-.408l13.55-11.502 11.504 13.551c.32.378.769.584 1.228.612a1.75 1.75 0 0 0 1.313-.404l13.551-11.503 11.502 13.551c.316.372.754.579 1.205.613.451.039.916-.093 1.288-.409l13.551-11.502 11.503 13.551a1.752 1.752 0 0 0 2.671-2.268ZM970.159 633.084l-12.622-14.87a1.743 1.743 0 0 0-1.209-.613 1.745 1.745 0 0 0-1.292.408l-13.547 11.499-11.498-13.547a1.746 1.746 0 0 0-1.209-.612 1.744 1.744 0 0 0-1.292.408l-13.573 11.52-11.521-13.573a1.752 1.752 0 0 0-1.209-.612 1.744 1.744 0 0 0-1.292.408l-13.547 11.499-11.498-13.547a1.746 1.746 0 0 0-1.209-.612 1.747 1.747 0 0 0-1.292.407l-14.87 12.622a1.752 1.752 0 1 0 2.267 2.672l13.551-11.502L884.8 628.59c.316.372.754.579 1.204.612a1.75 1.75 0 0 0 1.289-.408l13.551-11.503 11.502 13.551c.322.379.77.584 1.229.612.459.048.934-.082 1.313-.404l13.55-11.502 11.503 13.551c.316.372.754.578 1.205.612.45.04.916-.092 1.288-.408l13.551-11.503 11.502 13.552a1.752 1.752 0 0 0 2.672-2.268Z"/></g><mask id="c" width="1512" height="851" x="0" y="0" maskUnits="userSpaceOnUse" style="mask-type:luminance"><path fill="#fff" d="M0 0h1512v850.5H0V0Z"/></mask><g fill="#EAEAEA" fill-opacity=".25" mask="url(#c)"><path d="m701.696 44.522 92.228 92.227a1.809 1.809 0 1 1-2.559 2.559l-92.227-92.227a1.809 1.809 0 1 1 2.558-2.56ZM707.099 39.119l92.227 92.227a1.809 1.809 0 1 1-2.559 2.559L704.54 41.678a1.809 1.809 0 1 1 2.559-2.56ZM712.502 33.717l92.227 92.227a1.809 1.809 0 1 1-2.559 2.559l-92.227-92.227a1.809 1.809 0 1 1 2.559-2.56Z"/><path d="m736.132 118.202 23.484-11.908 11.908 23.484-35.392-11.576Zm50.388-33.564-23.483 11.908-11.909-23.484 35.392 11.576Zm-5.024 51.98c.052-.161.078-.324.106-.486.01-.056.03-.111.037-.168.013-.104.005-.206.009-.31.004-.122.015-.243.005-.366-.005-.058-.021-.113-.029-.171a3.372 3.372 0 0 0-.327-1.107l-15.77-31.1L796.5 87.204a3.39 3.39 0 0 0 2.182-2.167 3.401 3.401 0 0 0-2.175-4.29l-51.06-16.7a3.401 3.401 0 0 0-4.29 2.175c-.053.161-.079.324-.107.486-.01.056-.03.11-.037.168-.012.104-.005.206-.008.31-.004.122-.015.243-.006.366.005.058.022.113.029.17.048.377.146.751.328 1.108l15.77 31.1-30.973 15.706a3.384 3.384 0 0 0-2.182 2.167 3.401 3.401 0 0 0 2.175 4.29l51.06 16.7a3.401 3.401 0 0 0 4.29-2.175ZM438.691 491.844l-13.208-22.778 22.779-13.207-9.571 35.985Zm-36.34-48.425 13.207 22.778-22.778 13.208 9.571-35.986Zm52.18 2.1c-.164-.044-.327-.06-.491-.079-.057-.007-.112-.024-.169-.027-.105-.007-.207.005-.31.008-.123.003-.244-.001-.366.015-.058.008-.112.028-.169.039a3.356 3.356 0 0 0-1.087.389l-30.166 17.491-17.419-30.044a3.39 3.39 0 0 0-2.287-2.057 3.402 3.402 0 0 0-4.161 2.413l-13.808 51.917a3.401 3.401 0 0 0 2.412 4.161c.164.043.328.06.491.079.058.006.113.023.17.027.104.006.206-.006.31-.009.122-.003.244.001.366-.015.058-.008.112-.027.169-.038.372-.069.74-.189 1.087-.389l30.166-17.491 17.419 30.043a3.389 3.389 0 0 0 2.286 2.057 3.402 3.402 0 0 0 4.162-2.413l13.808-51.916a3.4 3.4 0 0 0-2.413-4.161Z"/><path d="m395.514 497.02 78.02-104.521a1.809 1.809 0 1 1 2.9 2.165l-78.019 104.521a1.81 1.81 0 0 1-2.901-2.165ZM389.392 492.45l78.02-104.521a1.809 1.809 0 1 1 2.9 2.164l-78.02 104.522a1.81 1.81 0 0 1-2.9-2.165ZM383.269 487.88l78.019-104.522a1.81 1.81 0 0 1 2.901 2.165l-78.02 104.521a1.81 1.81 0 0 1-2.9-2.164ZM845.776 791.545l-59.409-116.114a1.81 1.81 0 0 1 3.222-1.648l59.409 116.113a1.81 1.81 0 0 1-3.222 1.649ZM838.974 795.025l-59.409-116.114a1.81 1.81 0 0 1 3.222-1.648l59.409 116.113a1.81 1.81 0 0 1-3.222 1.649ZM832.172 798.505l-59.409-116.114a1.81 1.81 0 0 1 3.222-1.648l59.409 116.113a1.81 1.81 0 1 1-3.222 1.649ZM1396.01 337.566l-5.27-25.797 25.8-5.272-20.53 31.069Zm-19.04-57.472 5.28 25.797-25.8 5.272 20.52-31.069Zm48.8 18.596c-.14-.094-.29-.161-.44-.231-.05-.025-.1-.058-.15-.08-.1-.04-.2-.06-.3-.091-.11-.035-.23-.078-.35-.102-.05-.011-.11-.009-.17-.017a3.35 3.35 0 0 0-1.15.023l-34.17 6.982-6.95-34.025a3.384 3.384 0 0 0-1.51-2.677 3.41 3.41 0 0 0-4.72.962l-29.61 44.824a3.406 3.406 0 0 0 .97 4.713c.14.093.29.161.44.231.05.024.09.058.15.079.09.04.2.06.29.091.12.036.24.079.36.102.05.011.11.01.17.017.37.053.76.058 1.15-.022l34.17-6.982 6.95 34.024a3.386 3.386 0 0 0 1.51 2.678 3.41 3.41 0 0 0 4.72-.963l29.61-44.824a3.405 3.405 0 0 0-.97-4.712Z"/><path d="m1394.09 404.593-16.88-83.709c-.2-.979.43-1.933 1.41-2.131.98-.198 1.94.436 2.14 1.416l16.88 83.709c.19.979-.44 1.934-1.42 2.131a1.808 1.808 0 0 1-2.13-1.416ZM1386.6 406.104l-16.88-83.709c-.2-.98.43-1.934 1.41-2.132a1.82 1.82 0 0 1 2.14 1.416l16.88 83.709a1.81 1.81 0 0 1-3.55.716ZM1379.11 407.614l-16.88-83.709a1.81 1.81 0 0 1 1.41-2.131c.98-.198 1.94.436 2.14 1.416l16.88 83.708c.19.98-.44 1.935-1.42 2.132a1.81 1.81 0 0 1-2.13-1.416ZM63.426 639.719 50.219 616.94l22.778-13.207-9.571 35.986Zm-36.34-48.426 13.208 22.779-22.779 13.207 9.571-35.986Zm52.18 2.1c-.163-.043-.327-.06-.49-.079-.058-.007-.113-.023-.17-.027-.105-.007-.207.006-.31.009-.122.003-.244-.002-.366.015-.058.008-.112.028-.169.038-.372.07-.74.188-1.087.389l-30.166 17.491-17.42-30.043a3.388 3.388 0 0 0-2.286-2.057 3.4 3.4 0 0 0-4.16 2.412l-13.81 51.917a3.401 3.401 0 0 0 2.414 4.161c.164.044.327.061.49.079.058.007.113.024.17.028.105.006.207-.006.31-.009.122-.003.244.001.366-.015.058-.008.112-.028.17-.039.372-.069.74-.188 1.086-.389l30.166-17.49 17.42 30.042a3.386 3.386 0 0 0 2.286 2.057 3.4 3.4 0 0 0 4.16-2.412l13.81-51.917a3.401 3.401 0 0 0-2.414-4.161Z"/><path d="m61.913 591.49-34.501-77.186a1.81 1.81 0 0 1 3.304-1.477l34.501 77.186a1.81 1.81 0 1 1-3.303 1.477ZM54.938 594.608l-34.502-77.186a1.81 1.81 0 1 1 3.304-1.477l34.502 77.186a1.81 1.81 0 1 1-3.304 1.477ZM47.963 597.726 13.462 520.54a1.81 1.81 0 1 1 3.304-1.477l34.501 77.186a1.81 1.81 0 0 1-3.304 1.477Z"/></g><mask id="d" width="1512" height="851" x="0" y="0" maskUnits="userSpaceOnUse" style="mask-type:luminance"><path fill="#fff" d="M0 0h1512v850.5H0V0Z"/></mask><g fill="#0F1B1B" fill-opacity=".07" mask="url(#d)"><path d="m927.105 268.85-54.323-11.312 25.264-49.426 54.323 11.313-25.264 49.425Zm-29.101-61.877-40.787-37.225 54.061 11.258 40.787 37.225-54.061-11.258Zm-26.209 50.062-40.988-37.408 25.265-49.426 40.988 37.409-25.265 49.425Zm81.901-37.778.008-.021a.46.46 0 0 0 .027-.087l.002-.006.001-.011c.003-.016.007-.032.009-.049.013-.012.027-.021.039-.034a.555.555 0 0 0-.036-.783l-41.832-38.178c-.013-.012-.028-.021-.042-.031a.392.392 0 0 0-.032-.025.838.838 0 0 0-.102-.052l-.039-.012c-.017-.005-.033-.012-.05-.016l-55.446-11.546a.552.552 0 0 0-.654.429c-.004.018-.004.036-.006.054l-.02.02c-.007.008-.016.013-.023.021l-.009.012a.56.56 0 0 0-.036.049.586.586 0 0 0-.03.045c-.002.006-.006.01-.009.015l-25.778 50.429c-.004.007-.005.015-.009.023a.553.553 0 0 0 .12.657l41.832 38.178c.006.006.014.01.021.016l.027.021.026.019.035.021.016.01.017.006c.011.006.023.01.034.015l.027.009.046.014.016.005 55.445 11.546a.55.55 0 0 0 .592-.27c.008-.013.018-.024.025-.038l25.777-50.429c.005-.008.007-.017.011-.026ZM375.314 87.365l27.483-48.204 39.25 39.25-27.483 48.204-39.25-39.25Zm67.83-8.643 47.971-27.35-27.35 47.97-47.971 27.351 27.35-47.971Zm-39.565-40.345 48.207-27.485 39.251 39.25-48.208 27.485-39.25-39.25Zm10.736 89.552.018.014c.024.02.048.038.074.053l.005.003.01.005.044.023.021.048c.152.266.49.358.756.207l49.2-28.051c.016-.009.028-.02.042-.03a.472.472 0 0 0 .076-.063c.013-.014.026-.027.038-.042a.343.343 0 0 0 .024-.033c.01-.015.022-.027.03-.043l28.052-49.2a.554.554 0 0 0-.208-.755c-.015-.009-.033-.014-.049-.022a.248.248 0 0 0-.014-.025c-.004-.01-.007-.02-.012-.029l-.009-.012c-.01-.017-.023-.033-.035-.05a.54.54 0 0 0-.034-.041l-.011-.014-40.047-40.047-.02-.016a.551.551 0 0 0-.661-.088l-49.2 28.05-.022.016-.028.019a.544.544 0 0 0-.057.047l-.014.011-.012.014a.887.887 0 0 0-.024.028l-.017.023a.703.703 0 0 0-.028.04l-.009.013-28.051 49.2a.552.552 0 0 0 .075.647l.028.035 40.048 40.047c.006.007.014.011.021.018ZM1453.53 570.78l-54.32-11.313 25.26-49.425 54.33 11.312-25.27 49.426Zm-29.1-61.878-40.79-37.225 54.06 11.258 40.79 37.225-54.06-11.258Zm-26.21 50.062-40.99-37.408 25.27-49.425 40.99 37.408-25.27 49.425Zm81.9-37.777c.01-.007.01-.014.01-.022l.03-.087v-.016c0-.016.01-.033.01-.049.01-.012.03-.022.04-.035a.555.555 0 0 0-.04-.782l-41.83-38.179c-.01-.012-.03-.021-.04-.031l-.03-.024c-.02-.011-.04-.02-.05-.028a.75.75 0 0 0-.09-.036l-.05-.016-55.45-11.547a.548.548 0 0 0-.65.429c-.01.018-.01.036-.01.055-.01.006-.01.013-.02.02-.01.007-.02.013-.02.021-.01.003-.01.008-.01.012-.01.015-.03.032-.04.049l-.03.045c0 .005 0 .009-.01.014l-25.77 50.429c-.01.008-.01.016-.01.023a.547.547 0 0 0 .12.657l41.83 38.179c0 .006.01.01.02.016a.52.52 0 0 0 .03.02c0 .006.01.013.02.019.01.008.03.014.04.021 0 .003.01.007.01.01l.02.007.03.014.03.01c.02.005.03.01.05.013l.01.005 55.45 11.547c.24.05.48-.067.59-.27l.03-.039 25.77-50.428c.01-.009.01-.018.01-.026ZM669.337 710.286l-53.519 14.652V669.43l53.519-14.652v55.508Zm-54.075-41.851-53.26-14.582 53.26-14.581 53.26 14.581-53.26 14.582Zm-.551 56.505-53.523-14.653v-55.508l53.523 14.653v55.508Zm55.731-70.915-.003-.023a.445.445 0 0 0-.015-.09l-.001-.005-.004-.01a.336.336 0 0 0-.014-.048c.006-.017.013-.032.018-.049a.553.553 0 0 0-.387-.68l-54.625-14.955c-.018-.005-.034-.006-.052-.009l-.04-.007c-.019-.002-.038-.002-.057-.002-.019 0-.038 0-.058.002l-.04.007c-.017.003-.034.004-.051.009l-54.625 14.955a.554.554 0 0 0-.388.68c.005.018.013.034.02.05-.004.01-.005.019-.009.028l-.011.029-.002.015a.395.395 0 0 0-.01.06.478.478 0 0 0-.006.053l-.001.018v56.635l.002.024c.002.242.16.464.405.531l54.625 14.955.027.004a.19.19 0 0 0 .033.006l.031.005.041.003.019.002.018-.002c.012-.001.025-.001.037-.003l.028-.003a.678.678 0 0 0 .048-.01l.016-.002 54.624-14.955a.553.553 0 0 0 .405-.51c.001-.015.004-.03.004-.045v-56.635l-.002-.028Z"/></g><mask id="e" width="1512" height="851" x="0" y="0" maskUnits="userSpaceOnUse" style="mask-type:luminance"><path fill="#fff" d="M0 0h1512v850.5H0V0Z"/></mask><g fill="#EAEAEA" fill-opacity=".25" mask="url(#e)"><path d="M913.131 66.253h27.64c.999 0 1.809.81 1.809 1.81v1.141c0 1-.81 1.81-1.809 1.81h-27.64a1.81 1.81 0 0 1-1.809-1.81v-1.141c0-1 .81-1.81 1.809-1.81ZM895.146 75.246h27.639c.999 0 1.809.81 1.809 1.81v1.141c0 1-.81 1.81-1.809 1.81h-27.639c-1 0-1.81-.81-1.81-1.81v-1.141c0-1 .81-1.81 1.81-1.81ZM878.483 84.239h27.639c.999 0 1.809.81 1.809 1.81v1.141c0 1-.81 1.81-1.809 1.81h-27.639c-1 0-1.81-.81-1.81-1.81V86.05c0-1 .81-1.81 1.81-1.81ZM931.769 77.627a2.38 2.38 0 1 1 4.76-.001 2.38 2.38 0 0 1-4.76.001ZM912.813 86.62a2.38 2.38 0 1 1 4.762 0 2.38 2.38 0 0 1-4.762 0ZM900.301 68.634a2.38 2.38 0 1 1 4.762 0 2.38 2.38 0 0 1-4.762 0ZM881.61 77.627a2.38 2.38 0 1 1 4.762 0 2.38 2.38 0 0 1-4.762 0ZM1440.05 185.574h27.64c1 0 1.81.81 1.81 1.81v1.142a1.81 1.81 0 0 1-1.81 1.809h-27.64c-1 0-1.81-.81-1.81-1.809v-1.142c0-.999.81-1.81 1.81-1.81ZM1423.39 194.567h27.64c1 0 1.81.81 1.81 1.81v1.141c0 1-.81 1.81-1.81 1.81h-27.64c-1 0-1.81-.81-1.81-1.81v-1.141c0-1 .81-1.81 1.81-1.81ZM1426.52 187.955a2.377 2.377 0 0 1 2.38-2.381c1.31 0 2.38 1.066 2.38 2.381a2.383 2.383 0 0 1-2.38 2.381 2.377 2.377 0 0 1-2.38-2.381ZM260.492 458.95h27.639a1.81 1.81 0 0 1 1.809 1.81v1.142a1.81 1.81 0 0 1-1.809 1.809h-27.639c-1 0-1.81-.81-1.81-1.809v-1.142c0-.999.81-1.81 1.81-1.81ZM242.506 467.943h27.64c.999 0 1.809.81 1.809 1.81v1.141c0 1-.81 1.81-1.809 1.81h-27.64a1.81 1.81 0 0 1-1.809-1.81v-1.141c0-1 .81-1.81 1.809-1.81ZM225.843 476.936h27.64c.999 0 1.809.81 1.809 1.809v1.142c0 1-.81 1.81-1.809 1.81h-27.64a1.81 1.81 0 0 1-1.809-1.81v-1.142c0-.999.81-1.809 1.809-1.809ZM279.129 470.323a2.38 2.38 0 1 1 4.762.002 2.38 2.38 0 0 1-4.762-.002ZM260.174 479.316a2.38 2.38 0 1 1 4.76 0 2.38 2.38 0 0 1-4.76 0ZM247.662 461.331a2.38 2.38 0 1 1 4.762 0 2.38 2.38 0 0 1-4.762 0ZM228.971 470.323a2.38 2.38 0 1 1 4.761.001 2.38 2.38 0 0 1-4.761-.001Z"/></g><mask id="f" width="1512" height="851" x="0" y="0" maskUnits="userSpaceOnUse" style="mask-type:luminance"><path fill="#fff" d="M0 0h1512v850.5H0V0Z"/></mask><g mask="url(#f)"><path fill="#D9D9D9" fill-opacity=".25" d="M182.342 253.541 151.547 237.8a1.81 1.81 0 1 1 1.648-3.222l30.794 15.741a1.81 1.81 0 1 1-1.647 3.222ZM178.864 260.344l-30.794-15.741a1.81 1.81 0 1 1 1.647-3.222l30.795 15.741a1.81 1.81 0 1 1-1.648 3.222ZM175.387 267.148l-30.794-15.742a1.808 1.808 0 1 1 1.647-3.222l30.795 15.741a1.81 1.81 0 1 1-1.648 3.223ZM171.91 273.951l-30.795-15.742a1.81 1.81 0 0 1 1.648-3.222l30.794 15.741a1.81 1.81 0 1 1-1.647 3.223ZM168.432 280.754l-30.794-15.742a1.808 1.808 0 1 1 1.647-3.222l30.795 15.741a1.81 1.81 0 1 1-1.648 3.223ZM164.955 287.557l-30.795-15.741a1.81 1.81 0 0 1 1.647-3.223l30.795 15.742a1.81 1.81 0 1 1-1.647 3.222ZM161.477 294.36l-30.795-15.741a1.81 1.81 0 0 1 1.648-3.223l30.795 15.741a1.81 1.81 0 0 1-1.648 3.223ZM158 301.163l-30.795-15.741a1.81 1.81 0 0 1 1.647-3.223l30.795 15.742a1.81 1.81 0 0 1-1.647 3.222ZM154.522 307.966l-30.795-15.741a1.81 1.81 0 0 1 1.648-3.222l30.795 15.741a1.81 1.81 0 1 1-1.648 3.222ZM151.045 314.77l-30.795-15.742a1.81 1.81 0 0 1 1.647-3.222l30.795 15.741a1.81 1.81 0 0 1-1.647 3.223ZM147.567 321.573l-30.795-15.742a1.81 1.81 0 1 1 1.648-3.222l30.795 15.741a1.81 1.81 0 0 1-1.648 3.223ZM126.339 134.738l13.035 15.357a1.81 1.81 0 0 1-2.76 2.342L123.58 137.08a1.81 1.81 0 1 1 2.759-2.342ZM112.279 128.738l13.035 15.357a1.809 1.809 0 1 1-2.759 2.342L109.52 131.08a1.81 1.81 0 1 1 2.759-2.342ZM98.87 123.505l13.035 15.356a1.81 1.81 0 0 1-2.759 2.342l-13.035-15.356a1.81 1.81 0 1 1 2.759-2.342ZM128.635 150.803a1.809 1.809 0 1 1 2.342 2.759 1.81 1.81 0 1 1-2.342-2.759ZM114.098 144.241a1.81 1.81 0 1 1 2.34 2.76 1.81 1.81 0 0 1-2.34-2.76ZM118.366 128.142a1.81 1.81 0 1 1 2.342 2.762 1.81 1.81 0 0 1-2.342-2.762ZM103.96 121.734a1.81 1.81 0 1 1 2.343 2.759 1.81 1.81 0 0 1-2.343-2.759Z"/><path fill="#8E8790" fill-opacity=".12" d="m359.942 211.526-2.252 27.547a1.81 1.81 0 0 1-1.951 1.656l-1.138-.093a1.809 1.809 0 0 1-1.656-1.951l2.252-27.547a1.81 1.81 0 0 1 1.951-1.656l1.138.093a1.809 1.809 0 0 1 1.656 1.951ZM352.445 192.868l-2.252 27.547a1.81 1.81 0 0 1-1.951 1.656l-1.138-.093a1.809 1.809 0 0 1-1.656-1.951l2.252-27.547a1.809 1.809 0 0 1 1.951-1.656l1.138.092a1.81 1.81 0 0 1 1.656 1.952ZM344.841 175.527l-2.253 27.547a1.809 1.809 0 0 1-1.951 1.656l-1.138-.093a1.81 1.81 0 0 1-1.656-1.951l2.253-27.547a1.809 1.809 0 0 1 1.951-1.656l1.138.093a1.81 1.81 0 0 1 1.656 1.951ZM347.088 229.175a2.38 2.38 0 1 1-.386 4.744 2.38 2.38 0 0 1 .386-4.744ZM339.67 209.55a2.38 2.38 0 1 1-.386 4.744 2.38 2.38 0 0 1 .386-4.744ZM358.616 198.545a2.38 2.38 0 1 1-.388 4.744 2.38 2.38 0 0 1 .388-4.744ZM351.176 179.183a2.381 2.381 0 1 1-.388 4.746 2.381 2.381 0 0 1 .388-4.746Z"/><path fill="#D9D9D9" fill-opacity=".25" d="M237.025 96.439c3.404 4.299 2.678 10.544-1.622 13.948-4.299 3.404-10.544 2.678-13.948-1.621-3.405-4.3-2.679-10.545 1.621-13.949s10.545-2.678 13.949 1.622Z"/><path stroke="#0F1B1B" stroke-miterlimit="10" stroke-opacity=".07" stroke-width="2" d="m333.158 275.362-1.814-1.341a8.831 8.831 0 0 0-12.35 1.851l-18.337 24.804a8.83 8.83 0 0 0 1.851 12.349l24.804 18.338a8.829 8.829 0 0 0 12.349-1.851l1.341-1.814a5.925 5.925 0 0 1 8.286-1.242l1.814 1.341a8.83 8.83 0 0 0 12.35-1.851l18.337-24.804a8.829 8.829 0 0 0-1.851-12.349l-24.804-18.337a8.828 8.828 0 0 0-12.349 1.851l-1.341 1.814a5.924 5.924 0 0 1-8.286 1.241Z"/><path fill="#D9D9D9" fill-opacity=".25" d="m322.611 294.447-9.901 13.392a4.38 4.38 0 0 1-6.126.918l-13.392-9.901a4.38 4.38 0 0 1-.918-6.125l9.901-13.392a4.378 4.378 0 0 1 6.125-.919l13.392 9.901a4.38 4.38 0 0 1 .919 6.126ZM725.698 554.469l12.494-6.336 6.336 12.495-18.83-6.159Zm26.809-17.858-12.495 6.336-6.335-12.495 18.83 6.159Zm-2.673 27.656c.027-.086.041-.172.056-.259.005-.03.016-.059.02-.089.006-.055.003-.11.004-.165.002-.065.008-.13.003-.195-.002-.031-.011-.06-.015-.09a1.808 1.808 0 0 0-.174-.59l-8.391-16.546 16.479-8.357c.53-.173.975-.582 1.161-1.153a1.809 1.809 0 0 0-1.157-2.282l-27.166-8.885a1.81 1.81 0 0 0-2.283 1.157 1.7 1.7 0 0 0-.056.258c-.006.031-.016.06-.02.09-.007.055-.003.11-.005.165-.002.065-.008.129-.002.195.002.03.011.06.015.09.025.2.078.4.174.589l8.39 16.547-16.478 8.356a1.806 1.806 0 0 0-.004 3.436l27.166 8.885a1.81 1.81 0 0 0 2.283-1.157ZM677.743 427.584l-30.795-15.742a1.81 1.81 0 0 1 1.648-3.222l30.794 15.741a1.81 1.81 0 1 1-1.647 3.223ZM674.265 434.387l-30.795-15.741a1.81 1.81 0 1 1 1.648-3.223l30.794 15.742a1.81 1.81 0 1 1-1.647 3.222ZM670.787 441.19l-30.794-15.741a1.81 1.81 0 1 1 1.647-3.223l30.794 15.742a1.81 1.81 0 1 1-1.647 3.222ZM667.31 447.993l-30.795-15.741a1.81 1.81 0 0 1 1.647-3.223l30.795 15.742a1.81 1.81 0 1 1-1.647 3.222ZM663.833 454.796l-30.795-15.741a1.81 1.81 0 0 1 1.647-3.222l30.795 15.741a1.81 1.81 0 0 1-1.647 3.222ZM660.355 461.6l-30.795-15.742a1.81 1.81 0 0 1 1.647-3.222l30.795 15.741a1.81 1.81 0 0 1-1.647 3.223ZM656.877 468.403l-30.795-15.742a1.809 1.809 0 1 1 1.648-3.222l30.795 15.741a1.81 1.81 0 0 1-1.648 3.223ZM653.4 475.206l-30.795-15.742a1.809 1.809 0 1 1 1.648-3.222l30.794 15.741a1.81 1.81 0 1 1-1.647 3.223ZM649.922 482.009l-30.795-15.741a1.81 1.81 0 1 1 1.648-3.223l30.795 15.742a1.81 1.81 0 0 1-1.648 3.222ZM646.445 488.812l-30.795-15.741a1.81 1.81 0 1 1 1.647-3.223l30.795 15.742a1.81 1.81 0 0 1-1.647 3.222ZM642.967 495.615l-30.795-15.741a1.81 1.81 0 1 1 1.648-3.222l30.794 15.741a1.81 1.81 0 1 1-1.647 3.222ZM621.739 308.78l13.035 15.357a1.81 1.81 0 0 1-2.76 2.342l-13.034-15.357a1.809 1.809 0 1 1 2.759-2.342ZM607.679 302.781l13.036 15.357a1.81 1.81 0 0 1-2.76 2.342l-13.035-15.357a1.81 1.81 0 0 1 2.759-2.342ZM594.27 297.548l13.035 15.356a1.81 1.81 0 1 1-2.759 2.342l-13.035-15.356a1.81 1.81 0 0 1 2.759-2.342ZM624.035 324.846a1.81 1.81 0 1 1 2.342 2.76 1.81 1.81 0 0 1-2.342-2.76ZM609.498 318.284a1.81 1.81 0 1 1 2.342 2.76 1.81 1.81 0 0 1-2.342-2.76ZM613.766 302.185a1.81 1.81 0 1 1 2.343 2.761 1.81 1.81 0 0 1-2.343-2.761ZM599.36 295.776a1.81 1.81 0 1 1 2.342 2.76 1.81 1.81 0 0 1-2.342-2.76ZM855.343 385.569l-2.253 27.547a1.81 1.81 0 0 1-1.951 1.656l-1.138-.093a1.809 1.809 0 0 1-1.656-1.951l2.253-27.547a1.809 1.809 0 0 1 1.951-1.656l1.138.093a1.81 1.81 0 0 1 1.656 1.951ZM847.846 366.91l-2.253 27.547a1.81 1.81 0 0 1-1.951 1.656l-1.138-.093a1.809 1.809 0 0 1-1.656-1.951l2.253-27.547a1.81 1.81 0 0 1 1.951-1.656l1.138.093a1.81 1.81 0 0 1 1.656 1.951ZM840.241 349.57l-2.252 27.547a1.81 1.81 0 0 1-1.952 1.656l-1.137-.093a1.81 1.81 0 0 1-1.657-1.951l2.253-27.547a1.81 1.81 0 0 1 1.951-1.656l1.138.093a1.808 1.808 0 0 1 1.656 1.951ZM842.489 403.217a2.38 2.38 0 1 1-.389 4.745 2.38 2.38 0 0 1 .389-4.745ZM835.071 383.592a2.38 2.38 0 1 1-.389 4.745 2.38 2.38 0 0 1 .389-4.745ZM854.016 372.587a2.38 2.38 0 1 1-.387 4.745 2.38 2.38 0 0 1 .387-4.745ZM846.576 353.226a2.38 2.38 0 1 1-.386 4.744 2.38 2.38 0 0 1 .386-4.744ZM732.425 270.481c3.404 4.3 2.678 10.545-1.621 13.949-4.3 3.404-10.545 2.678-13.949-1.622-3.404-4.299-2.678-10.545 1.622-13.948 4.299-3.404 10.544-2.679 13.948 1.621Z"/><path stroke="#0F1B1B" stroke-miterlimit="10" stroke-opacity=".07" stroke-width="4" d="m828.559 449.405-1.814-1.341a8.83 8.83 0 0 0-12.349 1.851l-18.338 24.804a8.83 8.83 0 0 0 1.851 12.349l24.804 18.338a8.83 8.83 0 0 0 12.349-1.851l1.341-1.814a5.925 5.925 0 0 1 8.286-1.242l1.814 1.341a8.83 8.83 0 0 0 12.35-1.851l18.337-24.804a8.831 8.831 0 0 0-1.851-12.35l-24.804-18.337a8.83 8.83 0 0 0-12.349 1.851l-1.341 1.814a5.925 5.925 0 0 1-8.286 1.242Z"/><path fill="#D9D9D9" fill-opacity=".25" d="m818.011 468.49-9.9 13.392a4.38 4.38 0 0 1-6.126.918l-13.392-9.901a4.38 4.38 0 0 1-.918-6.125l9.9-13.393a4.38 4.38 0 0 1 6.126-.918l13.392 9.901a4.38 4.38 0 0 1 .918 6.126Z"/><path fill="#8E8790" fill-opacity=".12" d="m226.214 611.281 13.035 15.357a1.81 1.81 0 0 1-2.759 2.342l-13.035-15.357a1.809 1.809 0 1 1 2.759-2.342ZM212.155 605.282l13.035 15.356a1.81 1.81 0 0 1-2.76 2.342l-13.034-15.356a1.81 1.81 0 1 1 2.759-2.342ZM198.746 600.048l13.035 15.357a1.81 1.81 0 0 1-2.759 2.342l-13.035-15.357a1.808 1.808 0 1 1 2.759-2.342ZM228.511 627.347a1.809 1.809 0 1 1 2.342 2.759 1.81 1.81 0 1 1-2.342-2.759ZM213.974 620.785a1.81 1.81 0 1 1 2.342 2.76 1.81 1.81 0 0 1-2.342-2.76ZM218.242 604.686a1.81 1.81 0 1 1 2.343 2.761 1.81 1.81 0 0 1-2.343-2.761ZM203.836 598.277a1.81 1.81 0 1 1 2.342 2.76 1.81 1.81 0 0 1-2.342-2.76Z"/><path fill="#D9D9D9" fill-opacity=".25" d="m452.321 669.411-2.252 27.547a1.81 1.81 0 0 1-1.951 1.656l-1.138-.093a1.808 1.808 0 0 1-1.656-1.951l2.252-27.547a1.81 1.81 0 0 1 1.951-1.656l1.138.093a1.809 1.809 0 0 1 1.656 1.951ZM444.717 652.07l-2.253 27.548a1.81 1.81 0 0 1-1.951 1.656l-1.138-.093a1.81 1.81 0 0 1-1.656-1.951l2.253-27.547a1.81 1.81 0 0 1 1.951-1.657l1.138.093a1.81 1.81 0 0 1 1.656 1.951ZM458.491 675.088a2.38 2.38 0 1 1-.387 4.745 2.38 2.38 0 0 1 .387-4.745ZM451.052 655.727a2.38 2.38 0 1 1-.388 4.746 2.38 2.38 0 0 1 .388-4.746ZM336.901 572.982c3.404 4.3 2.678 10.545-1.622 13.949-4.299 3.404-10.544 2.678-13.948-1.622-3.405-4.299-2.679-10.545 1.621-13.949 4.299-3.403 10.545-2.678 13.949 1.622Z"/><path stroke="#0F1B1B" stroke-miterlimit="10" stroke-opacity=".07" stroke-width="2" d="m743.034 201.906-1.814-1.341a8.831 8.831 0 0 0-12.35 1.851l-18.337 24.804a8.831 8.831 0 0 0 1.851 12.35l24.804 18.337a8.83 8.83 0 0 0 12.349-1.851l1.341-1.814a5.925 5.925 0 0 1 8.286-1.242l1.814 1.341a8.83 8.83 0 0 0 12.35-1.851l18.337-24.804a8.829 8.829 0 0 0-1.851-12.349l-24.804-18.338a8.83 8.83 0 0 0-12.349 1.851l-1.341 1.814a5.925 5.925 0 0 1-8.286 1.242Z"/><path fill="#D9D9D9" fill-opacity=".25" d="m1194.21 302.671 12.49-6.335 6.34 12.494-18.83-6.159Zm26.81-17.858-12.5 6.336-6.33-12.494 18.83 6.158Zm-2.68 27.656c.03-.085.05-.172.06-.258.01-.03.02-.059.02-.089.01-.056 0-.111.01-.165v-.195c0-.031-.01-.061-.02-.091-.02-.2-.08-.399-.17-.589l-8.39-16.547 16.48-8.356a1.81 1.81 0 0 0 1.16-1.153c.31-.95-.21-1.972-1.16-2.283l-27.17-8.885a1.81 1.81 0 0 0-2.28 1.158c-.03.085-.04.172-.05.258-.01.03-.02.059-.02.089-.01.055-.01.11-.01.165 0 .065-.01.13 0 .195 0 .031.01.06.01.091.03.2.08.399.18.589l8.39 16.547-16.48 8.356c-.53.173-.97.583-1.16 1.153a1.81 1.81 0 0 0 1.16 2.282l27.16 8.886c.95.31 1.97-.208 2.28-1.158ZM1146.25 175.786l-30.79-15.741a1.815 1.815 0 0 1-.79-2.435 1.818 1.818 0 0 1 2.44-.788l30.79 15.742c.89.455 1.24 1.545.79 2.435a1.816 1.816 0 0 1-2.44.787ZM1142.78 182.589l-30.8-15.741a1.815 1.815 0 0 1-.79-2.435 1.816 1.816 0 0 1 2.44-.787l30.79 15.741c.89.455 1.25 1.545.79 2.435a1.802 1.802 0 0 1-2.43.787ZM1139.3 189.392l-30.8-15.741a1.802 1.802 0 0 1-.78-2.435 1.802 1.802 0 0 1 2.43-.787l30.8 15.741c.89.455 1.24 1.545.78 2.435a1.802 1.802 0 0 1-2.43.787ZM1135.82 196.195l-30.79-15.741a1.806 1.806 0 0 1-.79-2.435 1.802 1.802 0 0 1 2.43-.787l30.8 15.741c.89.455 1.24 1.545.79 2.435a1.816 1.816 0 0 1-2.44.787ZM1132.34 202.999l-30.79-15.742a1.815 1.815 0 0 1-.79-2.435 1.816 1.816 0 0 1 2.44-.787l30.79 15.741c.89.455 1.24 1.545.79 2.435a1.818 1.818 0 0 1-2.44.788ZM1128.87 209.802l-30.8-15.742a1.814 1.814 0 0 1-.79-2.434 1.817 1.817 0 0 1 2.44-.788l30.79 15.741c.89.455 1.25 1.545.79 2.435a1.802 1.802 0 0 1-2.43.788ZM1125.39 216.605l-30.8-15.741a1.802 1.802 0 0 1-.78-2.435 1.802 1.802 0 0 1 2.43-.788l30.8 15.742c.89.454 1.24 1.545.78 2.435a1.803 1.803 0 0 1-2.43.787ZM1121.91 223.408l-30.79-15.741a1.806 1.806 0 0 1-.79-2.435 1.802 1.802 0 0 1 2.43-.788l30.8 15.742c.89.454 1.24 1.545.79 2.435a1.817 1.817 0 0 1-2.44.787ZM1118.43 230.211l-30.79-15.741a1.815 1.815 0 0 1-.79-2.435 1.816 1.816 0 0 1 2.44-.787l30.79 15.741c.89.455 1.24 1.545.79 2.435a1.816 1.816 0 0 1-2.44.787ZM1114.96 237.014l-30.8-15.741a1.815 1.815 0 0 1-.79-2.435 1.818 1.818 0 0 1 2.44-.788l30.79 15.742c.89.455 1.25 1.545.79 2.435a1.802 1.802 0 0 1-2.43.787ZM1111.48 243.817l-30.8-15.741a1.802 1.802 0 0 1-.78-2.435 1.802 1.802 0 0 1 2.43-.787l30.8 15.741c.89.455 1.24 1.545.78 2.435a1.802 1.802 0 0 1-2.43.787ZM1090.25 56.983l13.04 15.356c.64.762.55 1.904-.21 2.55-.77.648-1.91.554-2.55-.208l-13.04-15.356a1.809 1.809 0 1 1 2.76-2.342ZM1076.19 50.983l13.04 15.357a1.809 1.809 0 1 1-2.76 2.342l-13.04-15.357a1.809 1.809 0 1 1 2.76-2.342ZM1062.78 45.75l13.04 15.356c.64.762.55 1.904-.21 2.551-.76.647-1.91.553-2.55-.209l-13.04-15.356a1.818 1.818 0 0 1 .21-2.551 1.81 1.81 0 0 1 2.55.209ZM1092.55 73.048a1.81 1.81 0 0 1 2.55.209c.64.762.55 1.904-.21 2.55-.76.647-1.91.554-2.55-.208a1.8 1.8 0 0 1 .21-2.55ZM1078.01 66.487a1.81 1.81 0 1 1-.21 2.55 1.809 1.809 0 0 1 .21-2.55ZM1082.28 50.387a1.81 1.81 0 1 1-.21 2.55 1.809 1.809 0 0 1 .21-2.55ZM1067.87 43.979a1.808 1.808 0 0 1 2.55.208 1.8 1.8 0 0 1-.21 2.55 1.81 1.81 0 0 1-2.55-.208 1.818 1.818 0 0 1 .21-2.55ZM1323.85 133.771l-2.25 27.547a1.805 1.805 0 0 1-1.95 1.656l-1.14-.093a1.81 1.81 0 0 1-1.65-1.951l2.25-27.547c.08-.996.95-1.738 1.95-1.656l1.14.093c.99.081 1.74.955 1.65 1.951ZM1316.36 115.112l-2.26 27.548a1.806 1.806 0 0 1-1.95 1.656l-1.13-.093c-1-.082-1.74-.956-1.66-1.951l2.25-27.547c.08-.997.96-1.738 1.95-1.657l1.14.093c1 .082 1.74.955 1.66 1.951ZM1308.75 97.772l-2.25 27.547a1.805 1.805 0 0 1-1.95 1.656l-1.14-.093a1.803 1.803 0 0 1-1.65-1.951l2.25-27.547c.08-.996.95-1.737 1.95-1.656l1.14.093a1.81 1.81 0 0 1 1.65 1.951ZM1311 151.419a2.381 2.381 0 1 1-.39 4.746 2.388 2.388 0 0 1-2.18-2.567 2.386 2.386 0 0 1 2.57-2.179ZM1303.58 131.794a2.381 2.381 0 1 1-.39 4.746 2.373 2.373 0 0 1-2.17-2.567 2.371 2.371 0 0 1 2.56-2.179ZM1322.53 120.79a2.386 2.386 0 0 1 2.18 2.566 2.386 2.386 0 0 1-2.57 2.179 2.38 2.38 0 1 1 .39-4.745ZM1315.09 101.428a2.386 2.386 0 0 1 2.18 2.566 2.385 2.385 0 0 1-2.57 2.179 2.38 2.38 0 1 1 .39-4.745Z"/><path fill="#0F1B1B" fill-opacity=".07" d="M1211.03 104.369a21.664 21.664 0 0 0-4.76-15.517c-1.9-2.34-4.2-4.184-6.72-5.51-7.15-3.75-12.5-10.234-14.43-18.071a21.646 21.646 0 0 0-4.06-8.263 21.633 21.633 0 0 0-13.83-7.999c-3.8-.563-6.5-4.033-6.18-7.86a21.683 21.683 0 0 0-4.77-15.443c-7.33-9.04-20.66-10.68-29.95-3.677-9.78 7.371-11.52 21.297-3.97 30.842a21.653 21.653 0 0 0 13.84 8c3.81.564 6.51 3.946 6.18 7.785a21.627 21.627 0 0 0 4.77 15.517 21.372 21.372 0 0 0 6.72 5.51c7.15 3.75 12.49 10.234 14.43 18.071a21.507 21.507 0 0 0 4.06 8.263 21.604 21.604 0 0 0 13.83 7.998c3.8.564 6.49 4.034 6.18 7.86a21.635 21.635 0 0 0 4.77 15.444c7.32 9.04 20.66 10.68 29.95 3.677 9.77-7.371 11.52-21.298 3.96-30.842a21.63 21.63 0 0 0-13.83-7.999 7.246 7.246 0 0 1-6.19-7.786Z"/><path fill="#D9D9D9" fill-opacity=".25" d="M1200.94 18.683c3.4 4.3 2.68 10.545-1.62 13.95-4.3 3.403-10.55 2.677-13.95-1.622-3.41-4.3-2.68-10.545 1.62-13.949 4.3-3.404 10.54-2.678 13.95 1.621Z"/><path stroke="#0F1B1B" stroke-miterlimit="10" stroke-opacity=".07" stroke-width="4" d="m1297.07 197.607-1.81-1.341a8.83 8.83 0 0 0-12.35 1.851l-18.34 24.804a8.83 8.83 0 0 0 1.85 12.35l24.8 18.337a8.83 8.83 0 0 0 12.35-1.851l1.34-1.814a5.93 5.93 0 0 1 8.29-1.242l1.81 1.341a8.829 8.829 0 0 0 12.35-1.851l18.34-24.804a8.83 8.83 0 0 0-1.85-12.349l-24.8-18.338c-3.92-2.899-9.45-2.07-12.35 1.851l-1.34 1.814a5.93 5.93 0 0 1-8.29 1.242Z"/><path fill="#D9D9D9" fill-opacity=".25" d="m1286.52 216.692-9.9 13.392a4.374 4.374 0 0 1-6.12.918l-13.4-9.901a4.38 4.38 0 0 1-.91-6.125l9.9-13.393a4.373 4.373 0 0 1 6.12-.918l13.39 9.901a4.374 4.374 0 0 1 .92 6.126ZM1163.34 637.5l-30.79-15.741a1.806 1.806 0 0 1-.79-2.435 1.802 1.802 0 0 1 2.43-.788l30.8 15.742c.89.454 1.24 1.545.79 2.435a1.817 1.817 0 0 1-2.44.787ZM1159.86 644.303l-30.79-15.741a1.815 1.815 0 0 1-.79-2.435 1.818 1.818 0 0 1 2.44-.788l30.79 15.742c.89.455 1.24 1.545.79 2.435a1.816 1.816 0 0 1-2.44.787ZM1156.39 651.107l-30.8-15.742a1.815 1.815 0 0 1-.79-2.435 1.816 1.816 0 0 1 2.44-.787l30.79 15.741c.89.455 1.25 1.545.79 2.435a1.803 1.803 0 0 1-2.43.788ZM1152.91 657.909l-30.8-15.741a1.802 1.802 0 0 1-.78-2.435 1.802 1.802 0 0 1 2.43-.787l30.8 15.741c.89.455 1.24 1.545.78 2.435a1.802 1.802 0 0 1-2.43.787ZM1149.43 664.713l-30.79-15.742a1.806 1.806 0 0 1-.79-2.435 1.803 1.803 0 0 1 2.43-.787l30.8 15.741c.89.455 1.24 1.545.79 2.435a1.818 1.818 0 0 1-2.44.788ZM1145.95 671.516l-30.79-15.742a1.814 1.814 0 0 1-.79-2.435 1.817 1.817 0 0 1 2.44-.787l30.79 15.741c.89.455 1.24 1.545.79 2.435a1.818 1.818 0 0 1-2.44.788ZM1142.48 678.319l-30.8-15.741a1.815 1.815 0 0 1-.79-2.435 1.817 1.817 0 0 1 2.44-.788l30.79 15.741c.89.455 1.25 1.546.79 2.435a1.802 1.802 0 0 1-2.43.788ZM1139 685.122l-30.8-15.741a1.802 1.802 0 0 1-.78-2.435 1.803 1.803 0 0 1 2.43-.788l30.8 15.742c.89.454 1.24 1.545.78 2.435a1.802 1.802 0 0 1-2.43.787ZM1135.52 691.925l-30.79-15.741a1.806 1.806 0 0 1-.79-2.435 1.802 1.802 0 0 1 2.43-.787l30.8 15.741c.89.455 1.24 1.545.79 2.435a1.816 1.816 0 0 1-2.44.787ZM1132.04 698.728l-30.79-15.741a1.815 1.815 0 0 1-.79-2.435 1.816 1.816 0 0 1 2.44-.787l30.79 15.741c.89.455 1.24 1.545.79 2.435a1.816 1.816 0 0 1-2.44.787ZM1107.34 518.697l13.03 15.356a1.8 1.8 0 0 1-.21 2.551c-.76.647-1.9.553-2.55-.209l-13.03-15.356a1.8 1.8 0 0 1 .21-2.551c.76-.647 1.9-.553 2.55.209ZM1093.28 512.697l13.03 15.357c.65.761.56 1.903-.21 2.55-.76.647-1.9.554-2.55-.208l-13.03-15.357a1.8 1.8 0 0 1 .21-2.551 1.81 1.81 0 0 1 2.55.209ZM1079.87 507.464l13.03 15.356c.65.762.56 1.904-.2 2.551-.77.646-1.91.553-2.56-.209l-13.03-15.356a1.809 1.809 0 1 1 2.76-2.342ZM1109.63 534.762a1.807 1.807 0 0 1 2.55.209c.65.762.56 1.904-.2 2.55a1.82 1.82 0 0 1-2.56-.208 1.818 1.818 0 0 1 .21-2.551ZM1095.1 528.2a1.81 1.81 0 0 1 2.55.209 1.809 1.809 0 1 1-2.55-.209ZM1099.37 512.101c.76-.647 1.9-.553 2.55.209.64.762.55 1.904-.21 2.55-.76.647-1.91.554-2.55-.208a1.8 1.8 0 0 1 .21-2.551ZM1084.96 505.693a1.809 1.809 0 1 1-.21 2.55 1.808 1.808 0 0 1 .21-2.55ZM1340.94 595.485l-2.25 27.547a1.81 1.81 0 0 1-1.95 1.656l-1.14-.093a1.81 1.81 0 0 1-1.66-1.951l2.26-27.547c.08-.996.95-1.738 1.95-1.656l1.14.093a1.81 1.81 0 0 1 1.65 1.951ZM1333.44 576.826l-2.25 27.547a1.806 1.806 0 0 1-1.95 1.657l-1.14-.093a1.811 1.811 0 0 1-1.65-1.951l2.25-27.548c.08-.996.95-1.737 1.95-1.656l1.14.093c.99.082 1.74.955 1.65 1.951ZM1325.84 559.486l-2.25 27.547a1.812 1.812 0 0 1-1.95 1.656l-1.14-.093a1.81 1.81 0 0 1-1.66-1.951l2.25-27.547a1.82 1.82 0 0 1 1.96-1.656l1.13.093c1 .081 1.74.955 1.66 1.951ZM1328.09 613.134a2.386 2.386 0 0 1 2.18 2.566 2.386 2.386 0 0 1-2.57 2.179 2.38 2.38 0 1 1 .39-4.745ZM1320.67 593.508a2.387 2.387 0 0 1 2.18 2.567 2.385 2.385 0 0 1-2.57 2.178 2.386 2.386 0 0 1-2.18-2.566 2.386 2.386 0 0 1 2.57-2.179ZM1339.61 582.503a2.381 2.381 0 0 1 2.18 2.567 2.371 2.371 0 0 1-2.56 2.179 2.381 2.381 0 0 1 .38-4.746ZM1332.18 563.142a2.372 2.372 0 0 1 2.17 2.566 2.37 2.37 0 0 1-2.56 2.179 2.38 2.38 0 1 1 .39-4.745Z"/><path fill="#0F1B1B" fill-opacity=".07" d="M1228.12 566.083a21.667 21.667 0 0 0-4.76-15.518c-1.9-2.34-4.2-4.184-6.72-5.509-7.15-3.751-12.5-10.234-14.43-18.071a21.65 21.65 0 0 0-4.06-8.263 21.656 21.656 0 0 0-13.84-7.999c-3.79-.563-6.49-4.033-6.18-7.859a21.59 21.59 0 0 0-4.77-15.444c-7.32-9.04-20.66-10.68-29.95-3.677-9.77 7.371-11.52 21.297-3.96 30.842a21.634 21.634 0 0 0 13.83 7.999c3.82.565 6.52 3.947 6.19 7.786a21.665 21.665 0 0 0 4.76 15.517c1.9 2.34 4.2 4.184 6.73 5.51 7.14 3.75 12.49 10.234 14.42 18.071a21.795 21.795 0 0 0 4.06 8.263 21.65 21.65 0 0 0 13.84 7.998c3.8.564 6.49 4.033 6.18 7.86a21.636 21.636 0 0 0 4.77 15.444c7.32 9.04 20.66 10.68 29.95 3.676 9.77-7.37 11.52-21.297 3.96-30.841a21.625 21.625 0 0 0-13.83-7.999c-3.81-.566-6.52-3.947-6.19-7.786Z"/><path fill="#D9D9D9" fill-opacity=".25" d="M1218.02 480.397c3.41 4.3 2.68 10.545-1.62 13.949-4.3 3.404-10.54 2.678-13.95-1.621-3.4-4.3-2.67-10.545 1.63-13.949 4.29-3.404 10.54-2.678 13.94 1.621Z"/><path stroke="#0F1B1B" stroke-miterlimit="10" stroke-opacity=".07" stroke-width="2" d="m1314.16 659.321-1.82-1.341c-3.92-2.899-9.45-2.07-12.35 1.851l-18.33 24.804c-2.9 3.921-2.07 9.45 1.85 12.35l24.8 18.337c3.92 2.899 9.45 2.07 12.35-1.851l1.34-1.814a5.93 5.93 0 0 1 8.29-1.242l1.81 1.341c3.92 2.899 9.45 2.07 12.35-1.851l18.34-24.804a8.83 8.83 0 0 0-1.85-12.349l-24.81-18.338c-3.92-2.899-9.45-2.07-12.35 1.851l-1.34 1.814a5.917 5.917 0 0 1-8.28 1.242Z"/><path fill="#D9D9D9" fill-opacity=".25" d="m1303.61 678.406-9.9 13.392a4.385 4.385 0 0 1-6.13.918l-13.39-9.901a4.391 4.391 0 0 1-.92-6.125l9.9-13.392a4.384 4.384 0 0 1 6.13-.919l13.39 9.901a4.374 4.374 0 0 1 .92 6.126Z"/></g></g><defs><clipPath id="a"><path fill="#fff" d="M0 0h1512v850.5H0z"/></clipPath></defs></svg>