<svg xmlns="http://www.w3.org/2000/svg" width="1440" height="715" fill="none"><g clip-path="url(#a)"><mask id="b" width="1548" height="715" x="-54" y="0" maskUnits="userSpaceOnUse" style="mask-type:luminance"><path fill="#fff" d="M-54 0h1548v715H-54V0Z"/></mask><g fill="#0F1B1B" fill-opacity=".07" mask="url(#b)"><path d="m531.582 140.03-19.902-1.336a2.05 2.05 0 0 0-1.319.354c-.356.245-.599.601-.64 1.011l-1.482 14.888-18.132-1.217a2.047 2.047 0 0 0-1.318.354c-.357.245-.6.601-.641 1.011l-1.485 14.917-18.166-1.22a2.05 2.05 0 0 0-1.319.355c-.356.244-.599.6-.64 1.01l-1.483 14.888-18.131-1.217a2.05 2.05 0 0 0-1.319.355c-.356.244-.599.6-.64 1.01l-1.627 16.343c-.081.811.654 1.522 1.641 1.588.988.067 1.854-.537 1.935-1.348l1.483-14.893 18.137 1.218c.498.033.964-.104 1.316-.352.354-.244.596-.6.636-1.009l1.484-14.893 18.137 1.218c.507.034.98-.11 1.333-.367.365-.244.616-.604.657-1.02l1.483-14.893 18.137 1.218c.498.033.965-.105 1.316-.353.355-.244.596-.599.637-1.008l1.483-14.893 18.137 1.217c.987.067 1.853-.537 1.934-1.348.081-.811-.654-1.522-1.642-1.588ZM82.873 682.797l2.7-16.246c.069-.408-.075-.799-.36-1.1-.277-.306-.697-.524-1.194-.58l-18.025-2.02 2.46-14.801c.068-.407-.075-.798-.36-1.1a1.889 1.889 0 0 0-1.194-.579l-18.06-2.024 2.465-14.83c.068-.407-.075-.798-.36-1.1-.277-.306-.697-.524-1.194-.579l-18.025-2.02 2.46-14.801c.068-.408-.076-.798-.36-1.1-.278-.306-.698-.524-1.194-.58l-19.786-2.217c-.982-.11-1.886.454-2.02 1.26-.134.807.553 1.549 1.535 1.659l18.03 2.021-2.46 14.805c-.068.407.075.797.357 1.098.278.304.697.521 1.192.577l18.03 2.02-2.46 14.806c-.069.414.081.809.374 1.112.278.313.702.538 1.206.595l18.03 2.02-2.46 14.806c-.068.406.074.796.356 1.097a1.89 1.89 0 0 0 1.193.577l18.03 2.02-2.46 14.806c-.135.806.553 1.549 1.534 1.659.982.11 1.886-.455 2.02-1.261ZM1472.74 27.696l-19.9-1.336a2.05 2.05 0 0 0-1.32.355c-.36.244-.6.6-.64 1.01l-1.49 14.888-18.13-1.217a2.07 2.07 0 0 0-1.32.354c-.35.245-.59.6-.64 1.011l-1.48 14.917-18.17-1.22c-.5-.033-.96.105-1.32.355-.35.244-.6.6-.64 1.01l-1.48 14.889-18.13-1.218a2.05 2.05 0 0 0-1.32.355c-.36.244-.6.6-.64 1.01l-1.63 16.343c-.08.81.66 1.522 1.65 1.588.98.067 1.85-.537 1.93-1.348l1.48-14.893 18.14 1.218c.5.033.96-.104 1.32-.352.35-.244.59-.6.63-1.009l1.49-14.893 18.13 1.218c.51.034.98-.11 1.34-.367.36-.244.61-.604.65-1.02l1.49-14.893 18.13 1.218c.5.033.97-.105 1.32-.352.35-.245.59-.6.64-1.01l1.48-14.892 18.14 1.218c.98.066 1.85-.538 1.93-1.348.08-.811-.65-1.522-1.64-1.589ZM1434.9 614.71l-19.91-1.336a2.02 2.02 0 0 0-1.31.354c-.36.245-.6.601-.64 1.011l-1.49 14.888-18.13-1.217a2.05 2.05 0 0 0-1.32.354c-.35.244-.6.601-.64 1.011l-1.48 14.917-18.17-1.22a2.05 2.05 0 0 0-1.32.355c-.35.244-.6.6-.64 1.01l-1.48 14.888-18.13-1.217c-.5-.034-.97.105-1.32.355-.36.244-.6.6-.64 1.01l-1.63 16.343c-.08.811.66 1.522 1.64 1.588.99.066 1.86-.537 1.94-1.348l1.48-14.893 18.14 1.218c.5.033.96-.104 1.31-.353.36-.244.6-.599.64-1.008l1.48-14.893 18.14 1.218c.51.034.98-.11 1.33-.367.37-.245.62-.604.66-1.021l1.48-14.892 18.14 1.217c.5.034.97-.104 1.32-.352.35-.244.59-.6.63-1.008l1.49-14.893 18.13 1.218c.99.066 1.86-.538 1.94-1.349.08-.811-.66-1.522-1.64-1.588ZM1076.99 298.225l-19.9-1.337c-.5-.033-.97.106-1.32.355-.36.244-.6.6-.64 1.01l-1.48 14.889-18.13-1.218a2.05 2.05 0 0 0-1.32.355c-.36.244-.6.6-.64 1.01l-1.49 14.917-18.16-1.219a2.05 2.05 0 0 0-1.32.354c-.36.244-.6.601-.64 1.011l-1.49 14.888-18.126-1.218c-.5-.033-.967.106-1.319.355-.356.245-.599.601-.64 1.011l-1.627 16.342c-.081.811.654 1.522 1.641 1.588.988.067 1.854-.537 1.935-1.347l1.483-14.894 18.133 1.218c.5.034.97-.104 1.32-.352.35-.244.6-.599.64-1.008l1.48-14.893 18.14 1.217c.5.034.98-.11 1.33-.366.37-.245.62-.605.66-1.021l1.48-14.893 18.14 1.218c.5.033.96-.104 1.31-.352.36-.244.6-.6.64-1.009l1.48-14.893 18.14 1.218c.99.066 1.85-.537 1.93-1.348.08-.811-.65-1.522-1.64-1.588ZM92.561 363.522 79.64 351.021c-.324-.314-.775-.487-1.238-.515a2.062 2.062 0 0 0-1.323.343l-13.87 9.666-11.772-11.388c-.324-.314-.774-.487-1.237-.515a2.062 2.062 0 0 0-1.323.343l-13.896 9.686-11.795-11.411c-.325-.313-.774-.487-1.238-.515a2.062 2.062 0 0 0-1.323.343l-13.87 9.667-11.771-11.388c-.325-.314-.775-.488-1.238-.515a2.05 2.05 0 0 0-1.323.343l-15.224 10.611c-.755.526-.848 1.456-.207 2.076.641.62 1.773.696 2.529.17l13.874-9.67L5.17 359.744c.323.313.771.486 1.233.515.462.033.938-.078 1.319-.344l13.873-9.669 11.777 11.392c.329.318.788.491 1.258.514.47.039.956-.069 1.344-.34l13.873-9.669 11.777 11.392c.323.313.771.486 1.233.514.462.034.938-.077 1.319-.343l13.873-9.67 11.777 11.392c.641.62 1.773.697 2.528.17.756-.526.848-1.456.207-2.076ZM939.258 532.222l-12.923-12.501c-.324-.314-.774-.487-1.237-.515a2.062 2.062 0 0 0-1.323.343l-13.87 9.667-11.772-11.389c-.324-.313-.774-.486-1.237-.514a2.049 2.049 0 0 0-1.323.343l-13.896 9.685-11.796-11.411c-.324-.313-.774-.487-1.237-.514a2.05 2.05 0 0 0-1.323.343l-13.87 9.666-11.772-11.388c-.324-.314-.774-.487-1.237-.515a2.062 2.062 0 0 0-1.323.343l-15.224 10.611c-.756.527-.848 1.456-.207 2.076.641.62 1.773.697 2.528.17l13.874-9.67 11.776 11.392c.324.313.772.487 1.233.515a2.06 2.06 0 0 0 1.32-.343l13.873-9.67 11.777 11.392c.328.318.787.491 1.258.514.469.04.956-.069 1.343-.339l13.874-9.67 11.776 11.392c.324.313.772.486 1.234.515a2.06 2.06 0 0 0 1.319-.344l13.873-9.67 11.777 11.393c.641.62 1.773.696 2.528.169.755-.526.848-1.456.207-2.076Z"/></g><mask id="c" width="1548" height="715" x="-54" y="0" maskUnits="userSpaceOnUse" style="mask-type:luminance"><path fill="#fff" d="M-54 0h1548v715H-54V0Z"/></mask><g fill="#EAEAEA" fill-opacity=".25" mask="url(#c)"><path d="m664.403 37.428 94.423 77.535c.724.593.724 1.557 0 2.151-.723.594-1.896.594-2.62 0L661.783 39.58c-.723-.594-.723-1.557 0-2.151.723-.595 1.896-.595 2.62 0ZM669.935 32.887l94.423 77.534c.723.594.723 1.557 0 2.151-.724.594-1.897.594-2.62 0l-94.423-77.534c-.724-.594-.724-1.557 0-2.151.723-.594 1.896-.594 2.62 0ZM675.466 28.345l94.423 77.534c.723.594.723 1.557 0 2.151-.724.594-1.897.594-2.62 0l-94.423-77.534c-.724-.594-.724-1.557 0-2.151.723-.594 1.896-.594 2.62 0Z"/><path d="m699.659 99.37 24.043-10.01 12.191 19.742-36.234-9.731Zm51.588-28.217-24.043 10.011-12.192-19.742 36.235 9.731Zm-5.145 43.699c.054-.135.081-.272.11-.408.01-.048.03-.093.037-.141.013-.088.006-.174.009-.261.004-.102.015-.204.006-.308-.005-.049-.022-.095-.03-.143a2.47 2.47 0 0 0-.335-.931l-16.146-26.145 31.711-13.204c1.019-.273 1.875-.92 2.234-1.822.597-1.5-.399-3.115-2.227-3.606l-52.276-14.04c-1.828-.49-3.794.328-4.392 1.829-.054.135-.081.272-.109.409-.01.047-.03.092-.038.14-.013.088-.005.174-.009.261-.004.103-.014.205-.005.308.005.049.022.095.03.144.049.315.149.63.335.93l16.145 26.146-31.71 13.203c-1.019.274-1.875.921-2.234 1.822-.598 1.501.399 3.116 2.227 3.607l52.275 14.039c1.828.491 3.795-.328 4.392-1.829ZM395.135 413.485l-13.521-19.15 23.32-11.103-9.799 30.253Zm-37.205-40.711 13.522 19.15-23.321 11.103 9.799-30.253Zm53.423 1.766c-.168-.037-.335-.051-.503-.067-.058-.006-.115-.019-.173-.023-.107-.005-.212.005-.318.008-.125.002-.249-.001-.374.012-.06.007-.115.024-.173.033a3.952 3.952 0 0 0-1.113.327l-30.884 14.704-17.834-25.257c-.39-.82-1.225-1.486-2.341-1.729-1.859-.406-3.766.502-4.26 2.028l-14.138 43.645c-.494 1.526.612 3.092 2.471 3.499.167.036.335.05.502.066.059.005.115.02.174.023.107.005.211-.005.317-.008.125-.002.25.001.375-.012.059-.007.115-.023.173-.033a3.993 3.993 0 0 0 1.113-.326l30.884-14.705 17.834 25.257c.39.82 1.225 1.485 2.341 1.729 1.858.406 3.766-.502 4.26-2.028l14.137-43.645c.495-1.526-.611-3.093-2.47-3.498Z"/><path d="m350.931 417.836 79.877-87.869c.613-.673 1.773-.812 2.593-.309.82.502.989 1.455.377 2.129L353.9 419.656c-.612.673-1.772.812-2.592.309-.82-.502-.989-1.456-.377-2.129ZM344.662 413.994l79.878-87.869c.612-.674 1.773-.812 2.593-.31.82.503.988 1.456.376 2.13l-79.877 87.869c-.612.673-1.773.811-2.593.309-.82-.503-.988-1.456-.377-2.129ZM338.394 410.152l79.877-87.87c.612-.673 1.773-.811 2.593-.309.82.503.988 1.456.377 2.129l-79.878 87.87c-.612.673-1.773.811-2.593.309-.82-.503-.988-1.456-.376-2.129ZM805.567 628.487l-13.522-19.15 23.321-11.103-9.799 30.253Zm-37.205-40.71 13.522 19.149-23.321 11.103 9.799-30.252Zm53.423 1.765c-.168-.037-.336-.051-.503-.067-.059-.005-.115-.019-.173-.022-.108-.006-.212.004-.318.007-.125.002-.25-.001-.375.012-.059.007-.114.024-.173.033a3.962 3.962 0 0 0-1.113.327l-30.884 14.704-17.834-25.257c-.39-.82-1.225-1.485-2.341-1.729-1.858-.406-3.766.502-4.26 2.028l-14.137 43.646c-.494 1.526.612 3.092 2.47 3.498.168.036.336.051.503.066.058.006.115.02.173.023.108.006.212-.005.318-.007.125-.003.25.001.375-.013.059-.007.114-.023.172-.032a3.992 3.992 0 0 0 1.114-.327l30.884-14.704 17.834 25.256c.389.82 1.225 1.486 2.341 1.729 1.858.407 3.766-.502 4.26-2.028l14.137-43.645c.494-1.526-.612-3.092-2.47-3.498Z"/><path d="m811.913 665.437-60.823-97.614c-.466-.748-.105-1.665.805-2.047.911-.383 2.028-.087 2.494.661l60.823 97.615c.466.748.105 1.664-.805 2.047-.911.383-2.028.087-2.494-.662ZM804.95 668.363l-60.824-97.614c-.466-.748-.105-1.665.805-2.048.912-.382 2.028-.086 2.494.662l60.823 97.614c.466.748.106 1.665-.805 2.047-.911.383-2.027.087-2.493-.661ZM797.986 671.289l-60.824-97.615c-.466-.748-.105-1.664.806-2.047.911-.383 2.027-.087 2.493.661l60.823 97.615c.466.748.106 1.665-.805 2.047-.911.383-2.027.087-2.493-.661ZM1375.25 283.786l-5.39-21.687 26.41-4.432-21.02 26.119Zm-19.49-48.316 5.4 21.687-26.41 4.432 21.01-26.119Zm49.96 15.633c-.14-.078-.3-.135-.45-.194-.05-.021-.1-.049-.16-.067-.09-.034-.2-.051-.3-.076-.12-.03-.24-.066-.36-.086-.06-.009-.12-.008-.18-.015a4.179 4.179 0 0 0-1.18.02l-34.98 5.869-7.11-28.604c-.06-.879-.59-1.728-1.55-2.251-1.61-.87-3.77-.508-4.83.81l-30.31 37.682c-1.06 1.318-.62 3.091.98 3.962.15.078.3.136.45.194.06.021.1.049.16.067.1.033.2.051.3.076.12.031.24.066.36.086.06.009.12.008.18.014.38.045.78.049 1.18-.018l34.98-5.87 7.12 28.604c.05.879.58 1.728 1.55 2.251 1.6.87 3.76.508 4.82-.81l30.32-37.682c1.06-1.318.62-3.091-.99-3.962Z"/><path d="M1373.28 340.134 1356 269.762c-.2-.824.44-1.626 1.45-1.792 1-.166 1.98.367 2.18 1.19l17.28 70.373c.21.823-.44 1.626-1.45 1.792-1 .166-1.98-.367-2.18-1.191ZM1365.61 341.404l-17.28-70.373c-.2-.823.45-1.625 1.45-1.791 1-.167 1.98.366 2.18 1.19l17.28 70.373c.21.823-.44 1.625-1.44 1.792-1.01.165-1.98-.367-2.19-1.191ZM1357.94 342.674l-17.28-70.373c-.2-.823.45-1.625 1.45-1.792 1-.166 1.98.367 2.18 1.191l17.29 70.372c.2.824-.45 1.626-1.45 1.792-1.01.166-1.98-.367-2.19-1.19ZM10.936 537.8l-13.522-19.149 23.32-11.103-9.798 30.252Zm-37.205-40.71 13.522 19.149-23.321 11.103 9.799-30.252Zm53.422 1.765c-.167-.037-.335-.05-.502-.066-.059-.006-.115-.02-.174-.023-.107-.006-.211.005-.317.007-.125.003-.25-.001-.375.013-.059.007-.115.023-.173.032a3.956 3.956 0 0 0-1.113.327l-30.884 14.704-17.834-25.256c-.39-.821-1.225-1.486-2.34-1.73-1.86-.405-3.767.503-4.26 2.029l-14.138 43.645c-.494 1.526.611 3.092 2.47 3.498.168.037.336.051.503.066.058.006.115.02.173.024.108.005.212-.005.318-.008.125-.002.25.001.374-.013.06-.006.115-.023.173-.032a3.956 3.956 0 0 0 1.113-.327l30.885-14.704 17.833 25.256c.39.821 1.226 1.486 2.341 1.73 1.859.406 3.766-.502 4.26-2.028l14.138-43.646c.494-1.526-.612-3.092-2.47-3.498Z"/><path d="m9.387 497.255-35.323-64.889c-.417-.767.002-1.667.936-2.01.934-.342 2.03.001 2.447.768l35.323 64.89c.418.767-.001 1.666-.935 2.009-.934.343-2.03-.001-2.448-.768ZM2.246 499.876l-35.323-64.889c-.418-.767.001-1.666.935-2.009.935-.343 2.03.001 2.448.768l35.323 64.889c.417.767-.002 1.666-.936 2.009-.934.343-2.03-.001-2.447-.768Z"/></g><mask id="d" width="1548" height="715" x="-54" y="0" maskUnits="userSpaceOnUse" style="mask-type:luminance"><path fill="#fff" d="M-54 0h1548v715H-54V0Z"/></mask><g fill="#0F1B1B" fill-opacity=".07" mask="url(#d)"><path d="m895.179 226.018-55.617-9.511 25.866-41.551 55.617 9.511-25.866 41.551Zm-29.794-52.02-41.758-31.294 55.348 9.464 41.758 31.295-55.348-9.465Zm-26.833 42.087-41.964-31.449 25.866-41.551 41.964 31.449-25.866 41.551Zm83.851-31.759.008-.018a.365.365 0 0 0 .028-.073l.002-.005.001-.009.009-.042c.013-.01.027-.018.04-.029.211-.19.195-.484-.037-.658l-42.828-32.095c-.013-.011-.028-.018-.042-.027l-.034-.02c-.016-.009-.034-.016-.051-.023a.487.487 0 0 0-.053-.021l-.04-.01c-.017-.004-.033-.01-.051-.013l-56.766-9.707c-.306-.053-.606.109-.67.36-.004.016-.004.031-.006.046l-.02.017-.024.017-.009.011c-.014.013-.025.027-.037.041a.357.357 0 0 0-.03.038l-.01.012-26.391 42.395-.01.019c-.111.182-.069.408.123.552l42.828 32.096.022.014a.637.637 0 0 0 .027.017l.027.016.036.017.016.009.017.005a.382.382 0 0 0 .036.013l.027.007a.405.405 0 0 0 .047.012l.016.004 56.766 9.707c.247.043.488-.056.606-.227.008-.011.018-.02.025-.032l26.391-42.395c.005-.007.007-.014.011-.021ZM330.249 73.446l28.138-40.524 40.185 32.996-28.138 40.525-40.185-32.997Zm69.446-7.266 49.113-22.993-28.001 40.329-49.113 22.992 28.001-40.328Zm-40.507-33.918 49.355-23.106 40.185 32.997-49.356 23.106-40.184-32.997Zm10.992 75.285c.005.005.012.008.018.013a.628.628 0 0 0 .076.044l.004.003.011.004.045.019c.008.013.013.027.022.04.155.224.501.301.773.174l50.372-23.582c.016-.007.029-.017.043-.025a.488.488 0 0 0 .117-.088.253.253 0 0 0 .024-.028c.011-.012.023-.023.031-.036l28.719-41.361c.155-.224.06-.508-.212-.635-.016-.008-.033-.012-.05-.019l-.014-.021c-.005-.008-.007-.016-.013-.024-.002-.004-.006-.007-.009-.01a.464.464 0 0 0-.071-.077l-.011-.012L409.054 8.26l-.02-.014a.66.66 0 0 0-.677-.074l-50.371 23.582-.023.013-.028.016-.027.016a.428.428 0 0 0-.031.023c-.005.004-.011.006-.015.01-.005.003-.008.008-.012.011a.332.332 0 0 0-.025.024l-.018.02-.027.032-.01.012-28.719 41.361c-.125.18-.085.399.076.544l.03.03 41.001 33.666c.006.006.014.01.022.015ZM1434.14 479.844l-55.62-9.51 25.87-41.551 55.62 9.51-25.87 41.551Zm-29.79-52.019-41.76-31.294 55.35 9.464 41.75 31.294-55.34-9.464Zm-26.84 42.086-41.96-31.448 25.87-41.551 41.96 31.449-25.87 41.55Zm83.85-31.759c.01-.006.01-.012.01-.017l.03-.074v-.014c.01-.013.01-.027.01-.041a.411.411 0 0 0 .01-.687l-42.83-32.096c-.02-.01-.03-.017-.05-.026l-.03-.02c-.02-.009-.03-.017-.05-.024-.02-.007-.03-.014-.05-.02l-.04-.01a1.142 1.142 0 0 1-.05-.014l-56.77-9.707c-.31-.052-.61.11-.67.361 0 .015 0 .031-.01.046 0 .005-.01.011-.02.017 0 .006-.01.011-.02.017 0 .004-.01.007-.01.011-.01.012-.02.026-.04.041a.63.63 0 0 0-.03.038c0 .004 0 .008-.01.012l-26.39 42.394c0 .007 0 .013-.01.02-.11.182-.07.408.13.552l42.82 32.096.03.014c0 .005.01.011.02.017l.03.016c.01.006.02.012.04.017 0 .003.01.006.01.009l.02.005.03.013.03.007c.02.005.03.009.05.012l.02.004 56.76 9.707c.25.042.49-.056.61-.227.01-.011.02-.021.02-.032l26.39-42.395c.01-.007.01-.014.01-.022ZM631.274 597.125l-54.794 12.318v-46.665l54.794-12.318v46.665Zm-55.363-35.184-54.529-12.258 54.529-12.259 54.528 12.259-54.528 12.258Zm-.565 47.503-54.797-12.319v-46.664l54.797 12.318v46.665Zm57.058-59.617a.487.487 0 0 0-.017-.095l-.002-.004c0-.003-.002-.006-.004-.009-.005-.014-.009-.027-.015-.04.006-.014.015-.027.019-.041.083-.248-.095-.504-.396-.572l-55.926-12.572c-.018-.004-.035-.005-.053-.008a.546.546 0 0 0-.04-.005c-.021-.002-.04-.002-.059-.002-.02 0-.039 0-.059.002l-.041.005c-.018.003-.035.004-.053.008l-55.925 12.572c-.302.068-.48.324-.397.572.005.015.013.028.02.042l-.009.023-.011.025-.003.012-.01.051a.347.347 0 0 0-.006.045l-.001.014v47.612l.002.021c.002.204.164.39.415.446l55.925 12.573.027.003.034.005.033.005.042.002.019.001.018-.001.039-.002.028-.004a.722.722 0 0 0 .049-.007l.016-.002 55.925-12.573c.244-.054.404-.232.415-.428.001-.013.004-.026.004-.039V549.85l-.003-.023Z"/></g><mask id="e" width="1548" height="715" x="-54" y="0" maskUnits="userSpaceOnUse" style="mask-type:luminance"><path fill="#fff" d="M-54 0h1548v715H-54V0Z"/></mask><g fill="#EAEAEA" fill-opacity=".25" mask="url(#e)"><path d="M880.872 55.698h28.298c1.023 0 1.852.681 1.852 1.521v.96c0 .84-.829 1.521-1.852 1.521h-28.298c-1.023 0-1.852-.68-1.852-1.52v-.96c0-.841.829-1.522 1.852-1.522ZM862.459 63.258h28.297c1.023 0 1.852.681 1.852 1.521v.96c0 .84-.829 1.521-1.852 1.521h-28.297c-1.023 0-1.853-.68-1.853-1.52v-.96c0-.84.83-1.522 1.853-1.522ZM845.399 70.818h28.297c1.023 0 1.853.681 1.853 1.522v.96c0 .84-.83 1.52-1.853 1.52h-28.297c-1.023 0-1.853-.68-1.853-1.52v-.96c0-.84.83-1.522 1.853-1.522ZM899.954 65.26c0-1.106 1.091-2.002 2.437-2.002 1.346 0 2.437.896 2.437 2.001 0 1.106-1.091 2.002-2.437 2.002-1.346 0-2.437-.896-2.437-2.002ZM880.547 72.82c0-1.106 1.091-2.002 2.437-2.002 1.346 0 2.437.896 2.437 2.002 0 1.105-1.091 2-2.437 2-1.346 0-2.437-.895-2.437-2ZM867.737 57.7c0-1.106 1.091-2.002 2.437-2.002 1.346 0 2.437.896 2.437 2.001 0 1.106-1.091 2.002-2.437 2.002-1.346 0-2.437-.896-2.437-2.002ZM848.601 65.26c0-1.106 1.091-2.002 2.437-2.002 1.346 0 2.437.896 2.437 2.001 0 1.106-1.091 2.002-2.437 2.002-1.346 0-2.437-.896-2.437-2.002ZM972.022 627.718h28.298c1.02 0 1.85.681 1.85 1.521v.96c0 .84-.83 1.521-1.85 1.521h-28.298c-1.023 0-1.853-.681-1.853-1.521v-.96c0-.84.83-1.521 1.853-1.521ZM953.608 635.278h28.297c1.024 0 1.853.681 1.853 1.521v.96c0 .84-.829 1.521-1.853 1.521h-28.297c-1.023 0-1.853-.681-1.853-1.521v-.96c0-.84.83-1.521 1.853-1.521ZM936.548 642.838h28.298c1.023 0 1.852.681 1.852 1.521v.96c0 .84-.829 1.521-1.852 1.521h-28.298c-1.023 0-1.852-.681-1.852-1.521v-.96c0-.84.829-1.521 1.852-1.521ZM991.103 637.279c0-1.106 1.091-2.002 2.437-2.002 1.346 0 2.437.896 2.437 2.002 0 1.105-1.091 2.001-2.437 2.001-1.346 0-2.437-.896-2.437-2.001ZM971.697 644.839c0-1.105 1.091-2.001 2.437-2.001 1.346 0 2.437.896 2.437 2.001s-1.091 2.001-2.437 2.001c-1.346 0-2.437-.896-2.437-2.001ZM958.886 629.719c0-1.106 1.091-2.002 2.437-2.002 1.346 0 2.437.896 2.437 2.002 0 1.105-1.091 2.001-2.437 2.001-1.346 0-2.437-.896-2.437-2.001ZM939.75 637.279c0-1.106 1.092-2.002 2.438-2.002s2.437.896 2.437 2.002c0 1.105-1.091 2.001-2.437 2.001-1.346 0-2.438-.896-2.438-2.001ZM1438.75 148.449h28.3c1.02 0 1.85.681 1.85 1.521v.96c0 .841-.83 1.521-1.85 1.521h-28.3c-1.02 0-1.85-.68-1.85-1.521v-.96c0-.84.83-1.521 1.85-1.521ZM1420.34 156.009h28.3c1.02 0 1.85.681 1.85 1.521v.96c0 .84-.83 1.521-1.85 1.521h-28.3c-1.02 0-1.85-.68-1.85-1.521v-.96c0-.84.83-1.521 1.85-1.521ZM1403.28 163.569h28.3c1.02 0 1.85.681 1.85 1.522v.959c0 .841-.83 1.522-1.85 1.522h-28.3c-1.02 0-1.85-.681-1.85-1.522v-.959c0-.841.83-1.522 1.85-1.522ZM1438.43 165.57c0-1.105 1.09-2.001 2.43-2.001 1.35 0 2.44.896 2.44 2.001 0 1.106-1.09 2.002-2.44 2.002-1.34 0-2.43-.896-2.43-2.002ZM1425.62 150.45c0-1.105 1.09-2.001 2.43-2.001 1.35 0 2.44.896 2.44 2.001 0 1.106-1.09 2.002-2.44 2.002-1.34 0-2.43-.896-2.43-2.002ZM1406.48 158.01c0-1.105 1.09-2.001 2.44-2.001 1.34 0 2.44.896 2.44 2.001 0 1.106-1.1 2.002-2.44 2.002-1.35 0-2.44-.896-2.44-2.002ZM212.694 385.831h28.297c1.024 0 1.853.682 1.853 1.522v.959c0 .841-.829 1.522-1.853 1.522h-28.297c-1.023 0-1.853-.681-1.853-1.522v-.959c0-.84.83-1.522 1.853-1.522ZM194.28 393.391h28.298c1.023 0 1.852.682 1.852 1.522v.959c0 .841-.829 1.522-1.852 1.522H194.28c-1.023 0-1.853-.681-1.853-1.522v-.959c0-.84.83-1.522 1.853-1.522ZM177.22 400.951h28.298c1.023 0 1.852.682 1.852 1.522v.959c0 .841-.829 1.522-1.852 1.522H177.22c-1.023 0-1.852-.681-1.852-1.522v-.959c0-.84.829-1.522 1.852-1.522ZM231.775 395.393c0-1.106 1.091-2.002 2.437-2.002 1.346 0 2.437.896 2.437 2.002 0 1.105-1.091 2.001-2.437 2.001-1.346 0-2.437-.896-2.437-2.001ZM212.369 402.953c0-1.106 1.091-2.002 2.437-2.002 1.346 0 2.437.896 2.437 2.002 0 1.105-1.091 2.001-2.437 2.001-1.346 0-2.437-.896-2.437-2.001ZM199.558 387.833c0-1.106 1.092-2.002 2.438-2.002 1.345 0 2.437.896 2.437 2.002 0 1.105-1.092 2.001-2.437 2.001-1.346 0-2.438-.896-2.438-2.001ZM180.423 395.393c0-1.106 1.091-2.002 2.437-2.002 1.346 0 2.437.896 2.437 2.002 0 1.105-1.091 2.001-2.437 2.001-1.346 0-2.437-.896-2.437-2.001Z"/></g><mask id="f" width="1548" height="715" x="-54" y="0" maskUnits="userSpaceOnUse" style="mask-type:luminance"><path fill="#fff" d="M-54 0h1548v715H-54V0Z"/></mask><g mask="url(#f)"><path fill="#0F1B1B" fill-opacity=".07" d="m272.103 195.215-81.341 46.968-33.702-76.85 81.341-46.968 33.702 76.85Zm-116.585-30.983-98.653 6.365 80.947-46.74 98.653-6.366-80.947 46.741Zm33.378 78.505-99.14 6.397-33.701-76.85 99.139-6.397 33.702 76.85Zm50.91-125.965-.017-.03a.738.738 0 0 0-.081-.117c-.002-.003-.002-.005-.005-.007l-.012-.013c-.018-.02-.035-.04-.054-.059 0-.025.004-.051.002-.077-.044-.448-.521-.783-1.067-.748l-101.181 6.529c-.032.002-.062.009-.092.013a.808.808 0 0 0-.169.037.978.978 0 0 0-.16.06c-.027.013-.055.023-.081.038l-83.021 47.938c-.449.258-.556.767-.24 1.135.018.022.041.04.063.061l.002.041c0 .015-.003.03-.001.046 0 .008.004.015.005.022a.6.6 0 0 0 .02.088c.006.026.012.052.023.077.003.008.003.017.007.025l34.386 78.41c.005.012.014.022.02.033.149.334.55.562 1.004.533l101.181-6.529c.017-.001.032-.005.048-.007l.059-.008.057-.009.07-.017.033-.007c.011-.003.019-.008.029-.011l.061-.022.045-.02a.865.865 0 0 0 .075-.036c.008-.004.017-.006.025-.011l83.021-47.938c.362-.209.497-.579.373-.908-.007-.021-.011-.043-.02-.065l-34.386-78.41c-.006-.013-.015-.024-.022-.037Z"/><path fill="#D9D9D9" fill-opacity=".25" d="m132.683 213.148-31.528-13.234c-.911-.382-1.272-1.299-.806-2.047.466-.748 1.582-1.044 2.493-.662l31.528 13.234c.911.382 1.272 1.299.806 2.047-.465.748-1.582 1.044-2.493.662ZM129.123 218.867l-31.528-13.234c-.911-.382-1.272-1.298-.806-2.046.465-.749 1.582-1.045 2.493-.663l31.528 13.234c.911.382 1.272 1.299.806 2.047-.466.748-1.582 1.044-2.493.662ZM125.563 224.586l-31.528-13.233c-.911-.383-1.272-1.299-.806-2.047.465-.748 1.581-1.045 2.493-.662l31.527 13.233c.912.382 1.272 1.299.807 2.047-.466.748-1.582 1.044-2.493.662ZM122.002 230.306l-31.528-13.234c-.91-.382-1.272-1.299-.806-2.047.466-.748 1.582-1.044 2.493-.662l31.528 13.233c.911.383 1.272 1.299.806 2.047-.465.749-1.582 1.045-2.493.663ZM118.442 236.025l-31.528-13.234c-.911-.382-1.272-1.298-.806-2.046.465-.748 1.582-1.045 2.493-.663l31.528 13.234c.911.382 1.271 1.299.806 2.047-.466.748-1.582 1.044-2.493.662ZM114.882 241.744l-31.528-13.233c-.911-.383-1.272-1.299-.807-2.047.466-.748 1.582-1.045 2.493-.662l31.528 13.233c.911.382 1.272 1.299.807 2.047-.466.748-1.582 1.044-2.493.662ZM111.321 247.463 79.793 234.23c-.91-.382-1.272-1.299-.806-2.047.466-.748 1.582-1.044 2.493-.662l31.528 13.233c.911.383 1.272 1.299.806 2.047-.465.748-1.582 1.045-2.493.662ZM107.761 253.183l-31.528-13.234c-.911-.382-1.272-1.299-.806-2.047.465-.748 1.582-1.044 2.493-.662l31.528 13.234c.911.382 1.272 1.298.806 2.047-.466.748-1.582 1.044-2.493.662ZM104.201 258.902l-31.528-13.234c-.912-.382-1.272-1.298-.807-2.047.466-.748 1.582-1.044 2.493-.662l31.528 13.234c.911.382 1.272 1.299.806 2.047-.465.748-1.581 1.044-2.492.662ZM100.64 264.621l-31.528-13.233c-.91-.382-1.272-1.299-.806-2.047.466-.748 1.582-1.045 2.493-.662l31.528 13.233c.911.383 1.272 1.299.806 2.047-.465.748-1.582 1.045-2.493.662ZM97.08 270.341l-31.528-13.234c-.911-.382-1.272-1.299-.806-2.047.465-.748 1.582-1.044 2.493-.662l31.528 13.233c.91.383 1.271 1.299.806 2.048-.466.748-1.582 1.044-2.493.662ZM75.346 113.272l13.345 12.91c.662.64.567 1.6-.213 2.144-.78.544-1.95.465-2.612-.175l-13.345-12.91c-.662-.641-.567-1.601.213-2.145.78-.543 1.95-.465 2.612.176ZM60.952 108.228l13.345 12.91c.662.641.567 1.601-.213 2.144-.78.544-1.95.465-2.612-.175l-13.345-12.91c-.662-.641-.567-1.601.213-2.144.78-.544 1.95-.466 2.612.175ZM47.224 103.829l13.345 12.91c.662.64.566 1.6-.214 2.144-.78.544-1.949.465-2.611-.175l-13.345-12.911c-.662-.64-.567-1.6.213-2.144.78-.543 1.95-.465 2.612.176ZM77.697 126.778c.78-.544 1.95-.465 2.611.175.662.641.567 1.601-.213 2.144-.78.544-1.95.466-2.612-.175-.662-.64-.566-1.601.214-2.144ZM62.814 121.262c.78-.544 1.95-.466 2.612.175.662.64.566 1.6-.214 2.144-.78.544-1.95.465-2.612-.175-.661-.641-.566-1.601.214-2.144ZM67.184 107.727c.78-.543 1.95-.465 2.612.176.662.64.566 1.6-.214 2.144-.78.543-1.949.465-2.611-.176-.662-.64-.567-1.6.213-2.144ZM52.435 102.34c.78-.544 1.949-.465 2.611.175.662.641.567 1.601-.213 2.144-.78.544-1.95.465-2.612-.175-.662-.641-.566-1.601.214-2.144Z"/><path fill="#8E8790" fill-opacity=".12" d="m314.512 177.826-2.306 23.159c-.083.837-.977 1.46-1.997 1.392l-1.165-.078c-1.02-.069-1.779-.803-1.696-1.64l2.306-23.159c.084-.837.978-1.461 1.998-1.392l1.165.078c1.02.069 1.779.803 1.695 1.64ZM306.837 162.14l-2.306 23.159c-.084.837-.978 1.461-1.998 1.392l-1.165-.078c-1.02-.069-1.779-.803-1.695-1.64l2.306-23.159c.083-.837.977-1.46 1.997-1.392l1.165.078c1.02.069 1.779.803 1.696 1.64ZM299.051 147.563l-2.306 23.158c-.084.837-.978 1.461-1.998 1.392l-1.165-.078c-1.02-.068-1.779-.803-1.695-1.64l2.306-23.158c.083-.838.977-1.461 1.997-1.393l1.165.078c1.02.069 1.779.803 1.696 1.641ZM301.352 192.663c1.341.09 2.34 1.056 2.23 2.158-.109 1.101-1.286 1.921-2.627 1.831-1.342-.09-2.34-1.056-2.231-2.157.11-1.102 1.286-1.922 2.628-1.832ZM293.757 176.165c1.342.09 2.341 1.056 2.231 2.157-.11 1.102-1.286 1.922-2.628 1.832-1.341-.09-2.34-1.056-2.23-2.158.109-1.101 1.286-1.921 2.627-1.831ZM313.154 166.913c1.341.09 2.34 1.056 2.23 2.158-.109 1.101-1.286 1.921-2.627 1.831-1.342-.09-2.34-1.056-2.231-2.157.11-1.102 1.286-1.922 2.628-1.832ZM305.537 150.636c1.342.09 2.34 1.056 2.231 2.158-.11 1.101-1.287 1.921-2.628 1.831-1.342-.09-2.34-1.056-2.23-2.157.109-1.102 1.286-1.922 2.627-1.832Z"/><path fill="#D9D9D9" fill-opacity=".25" d="M188.668 81.074c3.485 3.615 2.742 8.865-1.66 11.727s-10.796 2.251-14.281-1.364c-3.485-3.614-2.742-8.864 1.66-11.726 4.402-2.861 10.796-2.251 14.281 1.363Z"/><path stroke="#0F1B1B" stroke-miterlimit="10" stroke-opacity=".07" stroke-width="2" d="m287.09 231.492-1.857-1.127c-4.015-2.437-9.675-1.74-12.644 1.556l-18.774 20.852c-2.968 3.297-2.119 7.945 1.896 10.382l25.394 15.416c4.015 2.438 9.675 1.741 12.643-1.556l1.373-1.525c1.992-2.212 5.79-2.679 8.484-1.044l1.857 1.128c4.015 2.437 9.675 1.74 12.643-1.557l18.774-20.852c2.969-3.296 2.12-7.945-1.895-10.382l-25.394-15.416c-4.015-2.437-9.676-1.74-12.643 1.556l-1.373 1.525c-1.992 2.212-5.79 2.68-8.484 1.044Z"/><path fill="#D9D9D9" fill-opacity=".25" d="m276.292 247.536-10.137 11.259c-1.472 1.635-4.28 1.981-6.271.772l-13.711-8.324c-1.992-1.209-2.413-3.514-.941-5.149l10.137-11.259c1.472-1.635 4.28-1.981 6.271-.772l13.711 8.324c1.992 1.209 2.413 3.514.941 5.149Z"/><path fill="#0F1B1B" fill-opacity=".07" d="m779.299 341.53-81.341 46.967-33.702-76.85 81.341-46.967 33.702 76.85Zm-116.585-30.984-98.653 6.366 80.947-46.741 98.653-6.365-80.947 46.74Zm33.378 78.505-99.14 6.397-33.701-76.85 99.139-6.397 33.702 76.85Zm50.91-125.965-.018-.03a.712.712 0 0 0-.08-.117l-.005-.007-.013-.013c-.017-.019-.034-.04-.054-.058.001-.026.005-.051.002-.077-.043-.449-.52-.784-1.067-.748l-101.18 6.528c-.032.002-.062.009-.092.014l-.072.01a1.086 1.086 0 0 0-.098.026c-.032.01-.064.019-.095.031-.022.009-.043.02-.064.03-.027.012-.055.022-.081.037l-83.021 47.938c-.449.259-.556.767-.241 1.135.019.023.042.04.064.061-.001.014.002.028.002.042 0 .015-.003.03-.001.045 0 .008.003.015.005.023a.542.542 0 0 0 .019.087c.007.026.013.052.023.077.004.009.004.017.008.025l34.386 78.411c.005.011.014.021.019.032.149.335.552.562 1.005.533l101.181-6.528c.016-.001.031-.006.048-.007l.059-.009a.562.562 0 0 0 .127-.026l.033-.006c.01-.003.019-.008.029-.012a1.095 1.095 0 0 0 .181-.077c.008-.005.017-.007.025-.012l83.021-47.938c.362-.208.497-.578.372-.907-.007-.022-.01-.044-.019-.065l-34.386-78.41c-.006-.014-.015-.025-.022-.038Z"/><path fill="#D9D9D9" fill-opacity=".25" d="m688.976 466.132 12.792-5.326 6.487 10.504-19.279-5.178Zm27.447-15.013-12.792 5.327-6.486-10.504 19.278 5.177Zm-2.737 23.25c.029-.072.043-.145.059-.217.005-.025.016-.05.019-.075.007-.047.003-.093.005-.139.002-.055.008-.109.003-.164-.002-.026-.012-.05-.016-.076a1.315 1.315 0 0 0-.178-.495l-8.59-13.911 16.871-7.025c.543-.145.998-.49 1.189-.969.318-.799-.213-1.658-1.185-1.919l-27.813-7.47c-.972-.261-2.019.175-2.337.974-.029.071-.043.144-.058.217-.005.025-.016.049-.02.075-.007.046-.003.092-.005.139-.002.054-.008.108-.003.163.003.026.012.051.016.076.026.169.08.336.178.496l8.591 13.91-16.872 7.025c-.542.146-.997.49-1.188.97-.318.798.212 1.657 1.184 1.918l27.814 7.47c.972.261 2.018-.174 2.336-.973ZM639.879 359.462l-31.528-13.233c-.911-.383-1.272-1.299-.806-2.047.465-.748 1.582-1.045 2.493-.662l31.527 13.233c.911.383 1.272 1.299.807 2.047-.466.748-1.582 1.045-2.493.662ZM636.319 365.181l-31.528-13.233c-.911-.382-1.272-1.299-.807-2.047.466-.748 1.582-1.044 2.493-.662l31.528 13.233c.911.383 1.272 1.299.807 2.047-.466.749-1.582 1.045-2.493.662ZM632.758 370.901l-31.528-13.234c-.911-.382-1.272-1.299-.806-2.047.466-.748 1.582-1.044 2.493-.662l31.528 13.234c.911.382 1.272 1.299.806 2.047-.465.748-1.582 1.044-2.493.662ZM629.198 376.62l-31.528-13.233c-.911-.383-1.272-1.299-.806-2.047.465-.748 1.581-1.045 2.492-.662l31.528 13.233c.912.382 1.272 1.299.807 2.047-.466.748-1.582 1.044-2.493.662ZM625.638 382.339l-31.528-13.233c-.911-.382-1.272-1.299-.806-2.047.465-.748 1.581-1.045 2.492-.662l31.528 13.233c.911.383 1.272 1.299.807 2.047-.466.748-1.582 1.045-2.493.662ZM622.077 388.059l-31.528-13.234c-.911-.382-1.272-1.299-.806-2.047.466-.748 1.582-1.044 2.493-.662l31.527 13.234c.912.382 1.273 1.298.807 2.047-.465.748-1.582 1.044-2.493.662ZM618.517 393.778l-31.528-13.234c-.911-.382-1.272-1.298-.806-2.047.466-.748 1.582-1.044 2.493-.662l31.528 13.234c.911.382 1.272 1.299.806 2.047-.466.748-1.582 1.044-2.493.662ZM614.957 399.497l-31.528-13.233c-.911-.383-1.272-1.299-.807-2.047.466-.748 1.582-1.045 2.493-.662l31.528 13.233c.911.382 1.272 1.299.807 2.047-.466.748-1.582 1.044-2.493.662ZM611.396 405.217l-31.528-13.234c-.911-.382-1.272-1.299-.806-2.047.466-.748 1.582-1.044 2.493-.662l31.528 13.233c.911.383 1.272 1.299.806 2.047-.465.749-1.582 1.045-2.493.663ZM607.836 410.936l-31.528-13.234c-.911-.382-1.272-1.299-.806-2.047.465-.748 1.582-1.044 2.493-.662l31.527 13.234c.911.382 1.273 1.299.807 2.047-.466.748-1.582 1.044-2.493.662ZM604.275 416.655l-31.528-13.233c-.911-.383-1.271-1.299-.806-2.047.466-.749 1.582-1.045 2.493-.663l31.528 13.234c.911.382 1.272 1.299.806 2.047-.465.748-1.581 1.044-2.493.662ZM582.542 259.586l13.345 12.91c.662.641.567 1.601-.213 2.145-.78.543-1.95.465-2.612-.176l-13.345-12.91c-.662-.64-.567-1.6.213-2.144.78-.544 1.95-.465 2.612.175ZM568.147 254.542l13.346 12.911c.662.64.566 1.6-.214 2.144-.78.543-1.949.465-2.611-.176l-13.345-12.91c-.663-.64-.567-1.6.213-2.144.78-.544 1.95-.465 2.611.175ZM554.419 250.143l13.346 12.91c.662.641.566 1.6-.214 2.144-.78.544-1.949.465-2.611-.175l-13.345-12.91c-.663-.641-.567-1.601.213-2.145.78-.543 1.95-.465 2.611.176ZM584.893 273.092c.78-.543 1.949-.465 2.611.176.662.64.567 1.6-.213 2.144-.78.544-1.95.465-2.612-.175-.662-.641-.566-1.601.214-2.145ZM570.01 267.576c.78-.544 1.949-.465 2.611.175.662.641.567 1.601-.213 2.144-.78.544-1.949.466-2.612-.175-.662-.64-.566-1.601.214-2.144ZM574.38 254.042c.78-.544 1.949-.466 2.611.175.662.641.567 1.6-.213 2.144-.78.544-1.949.465-2.612-.175-.662-.641-.566-1.601.214-2.144ZM559.63 248.654c.78-.544 1.949-.465 2.612.176.662.64.566 1.6-.214 2.144-.78.543-1.949.465-2.611-.176-.662-.64-.567-1.6.213-2.144ZM821.708 324.141l-2.306 23.158c-.084.838-.978 1.461-1.998 1.393l-1.165-.079c-1.019-.068-1.779-.803-1.695-1.64l2.306-23.158c.083-.838.978-1.461 1.997-1.392l1.165.078c1.02.068 1.779.802 1.696 1.64ZM814.032 308.455l-2.306 23.158c-.083.838-.977 1.461-1.997 1.392l-1.165-.078c-1.02-.068-1.779-.803-1.696-1.64l2.306-23.158c.084-.838.978-1.461 1.998-1.392l1.165.078c1.02.068 1.779.802 1.695 1.64ZM806.247 293.877l-2.306 23.158c-.084.838-.978 1.461-1.998 1.393l-1.165-.078c-1.02-.069-1.779-.803-1.696-1.641l2.307-23.158c.083-.837.977-1.461 1.997-1.392l1.165.078c1.02.068 1.779.803 1.696 1.64ZM808.548 338.978c1.341.09 2.34 1.056 2.23 2.157-.11 1.102-1.286 1.922-2.628 1.832-1.341-.09-2.34-1.056-2.23-2.158.11-1.101 1.286-1.921 2.628-1.831ZM800.953 322.479c1.342.09 2.34 1.056 2.23 2.158-.11 1.101-1.286 1.921-2.628 1.831-1.341-.09-2.339-1.056-2.23-2.157.11-1.102 1.286-1.922 2.628-1.832ZM820.35 313.228c1.341.09 2.34 1.055 2.23 2.157-.11 1.102-1.286 1.922-2.628 1.832-1.341-.09-2.34-1.056-2.23-2.158.11-1.102 1.286-1.922 2.628-1.831ZM812.733 296.951c1.342.09 2.34 1.056 2.23 2.157-.109 1.102-1.286 1.922-2.627 1.832-1.342-.09-2.34-1.057-2.231-2.158.11-1.101 1.286-1.921 2.628-1.831ZM695.864 227.389c3.485 3.614 2.742 8.864-1.661 11.726-4.402 2.862-10.795 2.252-14.28-1.363-3.486-3.614-2.742-8.865 1.66-11.726 4.402-2.862 10.796-2.252 14.281 1.363Z"/><path stroke="#0F1B1B" stroke-miterlimit="10" stroke-opacity=".07" stroke-width="4" d="m794.286 377.807-1.857-1.128c-4.015-2.437-9.676-1.74-12.643 1.557l-18.775 20.852c-2.968 3.296-2.119 7.945 1.895 10.382l25.395 15.416c4.015 2.437 9.675 1.74 12.643-1.556l1.373-1.525c1.992-2.212 5.79-2.68 8.483-1.044l1.858 1.127c4.014 2.437 9.675 1.74 12.643-1.556l18.774-20.852c2.968-3.297 2.12-7.945-1.895-10.382l-25.394-15.416c-4.015-2.438-9.676-1.741-12.644 1.556l-1.373 1.525c-1.991 2.212-5.789 2.679-8.483 1.044Z"/><path fill="#D9D9D9" fill-opacity=".25" d="m783.488 393.851-10.137 11.258c-1.472 1.636-4.28 1.981-6.271.772l-13.711-8.323c-1.992-1.209-2.413-3.515-.941-5.15l10.137-11.258c1.472-1.636 4.28-1.981 6.271-.772l13.712 8.323c1.991 1.209 2.412 3.515.94 5.15Z"/><path fill="#DADADA" fill-opacity=".25" d="m234.937 613.769-31.528-13.233c-.911-.382-1.272-1.299-.806-2.047.466-.748 1.582-1.045 2.493-.662l31.528 13.233c.911.383 1.272 1.299.806 2.047-.465.748-1.582 1.045-2.493.662ZM231.377 619.489l-31.528-13.234c-.911-.382-1.272-1.299-.806-2.047.465-.748 1.582-1.044 2.493-.662l31.528 13.234c.911.382 1.272 1.298.806 2.047-.466.748-1.582 1.044-2.493.662ZM227.817 625.208l-31.528-13.234c-.911-.382-1.272-1.299-.807-2.047.466-.748 1.582-1.044 2.493-.662l31.528 13.234c.911.382 1.272 1.299.807 2.047-.466.748-1.582 1.044-2.493.662ZM224.256 630.927l-31.528-13.233c-.911-.383-1.271-1.299-.806-2.047.466-.748 1.582-1.045 2.493-.662l31.528 13.233c.911.382 1.272 1.299.806 2.047-.465.748-1.582 1.044-2.493.662ZM220.696 636.646l-31.528-13.233c-.911-.382-1.272-1.299-.806-2.047.465-.748 1.582-1.044 2.493-.662l31.527 13.233c.911.383 1.273 1.299.807 2.047-.466.749-1.582 1.045-2.493.662ZM217.136 642.366l-31.528-13.234c-.912-.382-1.272-1.299-.807-2.047.466-.748 1.582-1.044 2.493-.662l31.528 13.234c.911.382 1.272 1.299.806 2.047-.465.748-1.581 1.044-2.492.662ZM213.575 648.085l-31.528-13.233c-.911-.383-1.272-1.299-.806-2.047.466-.749 1.582-1.045 2.493-.662l31.528 13.233c.911.382 1.272 1.299.806 2.047-.465.748-1.582 1.044-2.493.662ZM210.015 653.804l-31.528-13.233c-.911-.382-1.272-1.299-.806-2.047.465-.748 1.582-1.045 2.493-.662l31.528 13.233c.911.383 1.271 1.299.806 2.047-.466.748-1.582 1.045-2.493.662ZM206.455 659.524l-31.528-13.234c-.911-.382-1.272-1.299-.807-2.047.466-.748 1.582-1.044 2.493-.662l31.528 13.233c.911.383 1.272 1.299.807 2.047-.466.749-1.582 1.045-2.493.663ZM202.894 665.243l-31.528-13.234c-.911-.382-1.272-1.299-.806-2.047.466-.748 1.582-1.044 2.493-.662l31.528 13.234c.911.382 1.272 1.299.806 2.047-.465.748-1.582 1.044-2.493.662ZM199.334 670.962l-31.528-13.233c-.911-.383-1.272-1.299-.806-2.047.465-.748 1.581-1.045 2.492-.662l31.528 13.233c.912.382 1.272 1.299.807 2.047-.466.748-1.582 1.044-2.493.662Z"/><path fill="#8E8790" fill-opacity=".12" d="m177.6 513.893 13.346 12.91c.661.641.566 1.601-.214 2.145-.78.543-1.949.465-2.612-.176l-13.345-12.91c-.662-.64-.566-1.6.214-2.144.78-.544 1.949-.465 2.611.175ZM163.206 508.85l13.345 12.91c.662.64.567 1.6-.213 2.144-.78.544-1.949.465-2.612-.175l-13.345-12.911c-.662-.64-.567-1.6.213-2.144.78-.543 1.949-.465 2.612.176ZM149.478 504.45l13.345 12.91c.662.641.566 1.6-.214 2.144-.78.544-1.949.465-2.611-.175l-13.345-12.91c-.662-.641-.567-1.601.213-2.145.78-.543 1.949-.465 2.612.176ZM179.951 527.399c.78-.544 1.949-.465 2.611.176.662.64.567 1.6-.213 2.144-.78.544-1.949.465-2.612-.175-.662-.641-.566-1.601.214-2.145ZM165.068 521.883c.78-.544 1.949-.465 2.612.175.662.641.566 1.601-.214 2.144-.78.544-1.949.466-2.611-.175-.662-.64-.567-1.6.213-2.144ZM169.438 508.349c.78-.544 1.949-.465 2.612.175.662.641.566 1.601-.214 2.144-.78.544-1.949.466-2.611-.175-.662-.641-.567-1.6.213-2.144ZM154.689 502.961c.78-.544 1.949-.465 2.611.176.662.64.567 1.6-.214 2.144-.78.543-1.949.465-2.611-.176-.662-.64-.566-1.6.214-2.144Z"/><path fill="#D9D9D9" fill-opacity=".25" d="m416.766 578.448-2.306 23.158c-.083.838-.978 1.461-1.997 1.393l-1.165-.078c-1.02-.069-1.779-.804-1.696-1.641l2.306-23.158c.084-.838.978-1.461 1.998-1.392l1.165.078c1.02.068 1.779.803 1.695 1.64ZM409.091 562.762l-2.307 23.158c-.083.838-.977 1.461-1.997 1.393l-1.165-.079c-1.02-.068-1.779-.803-1.696-1.64l2.307-23.158c.083-.838.977-1.461 1.997-1.392l1.165.078c1.02.068 1.779.802 1.696 1.64ZM401.305 548.184l-2.306 23.158c-.084.838-.978 1.461-1.998 1.393l-1.165-.078c-1.02-.069-1.779-.803-1.695-1.641l2.306-23.158c.083-.837.977-1.461 1.997-1.392l1.165.078c1.02.068 1.779.803 1.696 1.64ZM403.606 593.285c1.341.09 2.34 1.056 2.23 2.157-.109 1.102-1.286 1.922-2.627 1.832-1.342-.09-2.34-1.056-2.231-2.158.11-1.101 1.286-1.921 2.628-1.831ZM396.011 576.786c1.342.09 2.34 1.056 2.231 2.158-.11 1.101-1.287 1.921-2.628 1.831-1.341-.09-2.34-1.056-2.23-2.157.109-1.102 1.286-1.922 2.627-1.832ZM415.408 567.535c1.341.09 2.34 1.056 2.23 2.157-.109 1.102-1.286 1.922-2.627 1.832-1.342-.09-2.34-1.056-2.231-2.158.11-1.101 1.286-1.921 2.628-1.831ZM407.791 551.258c1.342.09 2.34 1.056 2.231 2.157-.11 1.102-1.287 1.922-2.628 1.832-1.342-.09-2.34-1.056-2.23-2.158.109-1.101 1.285-1.921 2.627-1.831ZM290.922 481.696c3.485 3.615 2.742 8.865-1.66 11.726-4.403 2.862-10.796 2.252-14.281-1.363-3.486-3.614-2.742-8.865 1.66-11.726 4.402-2.862 10.796-2.252 14.281 1.363Z"/><path stroke="#0F1B1B" stroke-miterlimit="10" stroke-opacity=".07" stroke-width="2" d="m450.773 615.3-1.858-1.127c-4.014-2.437-9.675-1.74-12.643 1.556l-18.774 20.852c-2.968 3.297-2.12 7.945 1.895 10.382l25.394 15.416c4.015 2.438 9.676 1.741 12.644-1.556l1.373-1.525c1.991-2.212 5.789-2.679 8.483-1.044l1.857 1.128c4.015 2.437 9.676 1.74 12.644-1.557l18.774-20.852c2.968-3.296 2.119-7.945-1.895-10.382l-25.395-15.416c-4.015-2.437-9.675-1.74-12.643 1.556l-1.373 1.525c-1.992 2.212-5.79 2.68-8.483 1.044ZM706.725 169.739l-1.857-1.127c-4.015-2.438-9.676-1.741-12.644 1.556L673.45 191.02c-2.968 3.297-2.119 7.945 1.895 10.382l25.395 15.416c4.014 2.437 9.675 1.74 12.643-1.556l1.373-1.525c1.991-2.212 5.79-2.68 8.483-1.044l1.858 1.127c4.014 2.437 9.675 1.741 12.643-1.556l18.774-20.852c2.968-3.297 2.12-7.945-1.895-10.382l-25.394-15.416c-4.015-2.437-9.676-1.741-12.644 1.556l-1.373 1.525c-1.991 2.212-5.789 2.679-8.483 1.044Z"/><path fill="#D9D9D9" fill-opacity=".25" d="m378.546 648.158-10.137 11.259c-1.472 1.635-4.28 1.98-6.271.771l-13.711-8.323c-1.992-1.209-2.413-3.515-.94-5.15l10.136-11.258c1.472-1.635 4.28-1.981 6.272-.772l13.711 8.323c1.991 1.209 2.412 3.515.94 5.15ZM1168.64 254.45l12.79-5.326 6.49 10.504-19.28-5.178Zm27.45-15.013-12.79 5.327-6.49-10.504 19.28 5.177Zm-2.74 23.25a.88.88 0 0 0 .06-.217c.01-.025.02-.049.02-.075.01-.047 0-.093.01-.139v-.163c0-.027-.01-.051-.02-.077a1.195 1.195 0 0 0-.18-.495l-8.59-13.91 16.88-7.026c.54-.145.99-.49 1.18-.969.32-.799-.21-1.658-1.18-1.919l-27.81-7.47c-.98-.261-2.02.175-2.34.974-.03.071-.04.144-.06.217 0 .025-.01.049-.02.075-.01.046 0 .092 0 .139-.01.054-.01.109-.01.163.01.026.02.051.02.077.03.168.08.335.18.495l8.59 13.911-16.87 7.024c-.55.146-1 .49-1.19.97-.32.798.21 1.657 1.18 1.919l27.82 7.469c.97.261 2.01-.174 2.33-.973ZM1119.55 147.78l-31.53-13.233c-.91-.382-1.27-1.299-.81-2.047.47-.748 1.58-1.044 2.49-.662l31.53 13.233c.91.383 1.27 1.299.81 2.047-.47.748-1.58 1.045-2.49.662ZM1115.99 153.5l-31.53-13.234c-.91-.382-1.28-1.299-.81-2.047.47-.748 1.58-1.044 2.49-.662l31.53 13.234c.91.382 1.27 1.298.81 2.047-.47.748-1.58 1.044-2.49.662ZM1112.42 159.219l-31.52-13.233c-.91-.383-1.28-1.299-.81-2.048.47-.748 1.58-1.044 2.49-.662l31.53 13.234c.91.382 1.27 1.299.81 2.047-.47.748-1.58 1.044-2.5.662ZM1340.54 164.938l-31.53-13.233c-.91-.383-1.27-1.299-.81-2.047.47-.748 1.59-1.045 2.5-.662l31.52 13.233c.92.382 1.28 1.299.81 2.047-.47.748-1.58 1.045-2.49.662ZM1105.3 170.657l-31.52-13.233c-.91-.382-1.28-1.299-.81-2.047.47-.748 1.58-1.044 2.49-.662l31.53 13.233c.91.383 1.27 1.299.81 2.047-.47.749-1.58 1.045-2.5.662ZM1101.74 176.377l-31.52-13.234c-.92-.382-1.28-1.299-.81-2.047.47-.748 1.58-1.044 2.49-.662l31.53 13.234c.91.382 1.27 1.299.81 2.047-.47.748-1.59 1.044-2.5.662ZM1098.18 182.096l-31.52-13.234c-.92-.382-1.28-1.298-.81-2.047.46-.748 1.58-1.044 2.49-.662l31.53 13.234c.91.382 1.27 1.299.81 2.047-.47.748-1.59 1.044-2.5.662ZM1094.62 187.815l-31.52-13.233c-.92-.382-1.28-1.299-.81-2.047.46-.748 1.58-1.044 2.49-.662l31.53 13.233c.91.383 1.27 1.299.81 2.047-.47.748-1.59 1.045-2.5.662ZM1091.06 193.535l-31.53-13.234c-.91-.382-1.27-1.299-.8-2.047.46-.748 1.58-1.044 2.49-.662l31.53 13.234c.91.382 1.27 1.299.81 2.047-.47.748-1.59 1.044-2.5.662ZM1087.5 199.254l-31.53-13.234c-.91-.382-1.27-1.298-.8-2.047.46-.748 1.58-1.044 2.49-.662l31.53 13.234c.91.382 1.27 1.299.81 2.047-.47.748-1.59 1.044-2.5.662ZM1083.94 204.973l-31.53-13.233c-.91-.383-1.27-1.299-.8-2.047.46-.748 1.58-1.045 2.49-.662l31.53 13.233c.91.382 1.27 1.299.8 2.047-.46.748-1.58 1.044-2.49.662ZM1062.21 47.904l13.34 12.91c.67.641.57 1.601-.21 2.145-.78.543-1.95.465-2.61-.176l-13.35-12.91c-.66-.64-.56-1.6.22-2.144.78-.543 1.95-.465 2.61.175ZM1047.81 42.86l13.35 12.91c.66.641.57 1.601-.21 2.145-.78.544-1.95.465-2.62-.175l-13.34-12.91c-.66-.64-.57-1.6.21-2.145.78-.543 1.95-.465 2.61.176ZM1034.09 38.461l13.34 12.91c.66.64.57 1.6-.21 2.145-.78.543-1.95.465-2.61-.176l-13.35-12.91c-.66-.64-.57-1.6.21-2.144.78-.544 1.95-.465 2.62.175ZM1064.56 61.41c.78-.543 1.95-.465 2.61.176.66.64.57 1.6-.21 2.144-.78.544-1.95.465-2.61-.175-.67-.64-.57-1.601.21-2.145ZM1049.68 55.894c.78-.544 1.95-.465 2.61.175.66.641.56 1.601-.22 2.145-.78.543-1.95.465-2.61-.176-.66-.64-.56-1.6.22-2.144ZM1054.05 42.36c.78-.544 1.95-.465 2.61.175.66.64.56 1.6-.22 2.144s-1.94.465-2.61-.175c-.66-.64-.56-1.6.22-2.144ZM1039.3 36.972c.78-.544 1.95-.465 2.61.176.66.64.56 1.6-.22 2.144s-1.94.465-2.61-.175c-.66-.641-.56-1.601.22-2.145ZM1301.37 112.459l-2.3 23.158c-.09.838-.98 1.461-2 1.393l-1.16-.078c-1.02-.069-1.78-.804-1.7-1.641l2.31-23.158c.08-.838.97-1.461 1.99-1.392l1.17.078c1.02.068 1.78.802 1.69 1.64ZM1293.7 96.773l-2.31 23.158c-.08.838-.97 1.461-1.99 1.393l-1.17-.078c-1.02-.069-1.78-.803-1.7-1.641l2.31-23.158c.08-.838.98-1.46 2-1.392l1.16.078c1.02.068 1.78.803 1.7 1.64ZM1285.91 82.195l-2.3 23.159c-.09.837-.98 1.46-2 1.392l-1.17-.078c-1.02-.069-1.77-.803-1.69-1.64l2.31-23.159c.08-.837.97-1.46 1.99-1.392l1.17.078c1.02.069 1.78.803 1.69 1.64ZM1288.21 127.296c1.35.09 2.34 1.056 2.23 2.157-.1 1.102-1.28 1.922-2.62 1.832-1.34-.09-2.34-1.056-2.23-2.158.11-1.101 1.28-1.921 2.62-1.831ZM1280.62 110.797c1.34.09 2.34 1.056 2.23 2.158-.11 1.102-1.29 1.921-2.63 1.831-1.34-.09-2.34-1.056-2.23-2.157.11-1.102 1.29-1.922 2.63-1.832ZM1300.02 101.546c1.34.09 2.34 1.056 2.23 2.157-.11 1.102-1.29 1.922-2.63 1.832-1.34-.09-2.34-1.056-2.23-2.158.11-1.101 1.28-1.921 2.63-1.831ZM1292.4 85.269c1.34.09 2.34 1.056 2.23 2.157-.11 1.102-1.29 1.922-2.63 1.832-1.34-.09-2.34-1.056-2.23-2.158.11-1.101 1.29-1.921 2.63-1.831ZM1175.53 15.707c3.49 3.615 2.74 8.865-1.66 11.727-4.4 2.861-10.8 2.25-14.28-1.364-3.49-3.614-2.74-8.864 1.66-11.726s10.8-2.252 14.28 1.363Z"/><path stroke="#0F1B1B" stroke-miterlimit="10" stroke-opacity=".07" stroke-width="2" d="m558.267 53.883-1.91-1.036c-4.129-2.24-9.749-1.268-12.553 2.169l-17.739 21.74c-2.804 3.437-1.731 8.038 2.398 10.278l26.113 14.163c4.129 2.239 9.749 1.268 12.553-2.169l1.297-1.59c1.882-2.306 5.653-2.957 8.423-1.455l1.91 1.036c4.128 2.24 9.748 1.268 12.553-2.169l17.738-21.74c2.805-3.436 1.731-8.038-2.397-10.277l-26.114-14.164c-4.128-2.239-9.748-1.268-12.552 2.17l-1.298 1.589c-1.881 2.306-5.652 2.958-8.422 1.455Z"/><path fill="#D9D9D9" fill-opacity=".25" d="m1263.15 182.169-10.13 11.259c-1.47 1.635-4.28 1.98-6.27.772l-13.71-8.324c-2-1.209-2.42-3.515-.95-5.15l10.14-11.258c1.47-1.635 4.28-1.981 6.27-.772l13.71 8.323c2 1.209 2.42 3.515.94 5.15ZM1186.14 642.605l12.79-5.326 6.49 10.503-19.28-5.177Zm27.44-15.013-12.79 5.326-6.48-10.503 19.27 5.177Zm-2.73 23.25c.03-.072.04-.145.06-.217 0-.026.01-.05.01-.075.01-.047.01-.093.01-.139 0-.055.01-.109 0-.164 0-.026-.01-.051-.01-.076a1.355 1.355 0 0 0-.18-.495l-8.59-13.911 16.87-7.025c.54-.146 1-.49 1.19-.969.32-.799-.21-1.658-1.19-1.919l-27.81-7.47c-.97-.261-2.02.175-2.34.973-.03.072-.04.145-.05.217-.01.026-.02.05-.02.076-.01.046-.01.092-.01.138 0 .055-.01.109 0 .164 0 .026.01.051.01.076.03.168.08.336.18.495l8.59 13.911-16.87 7.025c-.54.146-1 .49-1.19.97-.32.798.21 1.657 1.19 1.918l27.81 7.47c.97.261 2.02-.174 2.34-.973ZM1137.04 535.935l-31.53-13.233c-.91-.383-1.27-1.299-.8-2.047.46-.749 1.58-1.045 2.49-.662l31.53 13.233c.91.382 1.27 1.299.8 2.047-.46.748-1.58 1.044-2.49.662ZM1133.48 541.654l-31.53-13.233c-.91-.383-1.27-1.299-.81-2.047.47-.748 1.59-1.045 2.5-.662l31.53 13.233c.91.383 1.27 1.299.8 2.047-.46.748-1.58 1.045-2.49.662ZM1129.92 547.374l-31.53-13.234c-.91-.382-1.27-1.299-.81-2.047.47-.748 1.59-1.044 2.5-.662l31.52 13.234c.92.382 1.28 1.298.81 2.047-.46.748-1.58 1.044-2.49.662ZM1126.36 553.093l-31.53-13.234c-.91-.382-1.27-1.299-.81-2.047.47-.748 1.59-1.044 2.5-.662l31.53 13.234c.91.382 1.27 1.299.8 2.047-.46.748-1.58 1.044-2.49.662ZM1122.8 558.812l-31.53-13.233c-.91-.383-1.27-1.299-.81-2.047.47-.748 1.59-1.045 2.5-.662l31.52 13.233c.92.382 1.28 1.299.81 2.047-.46.748-1.58 1.044-2.49.662ZM1119.24 564.531l-31.53-13.233c-.91-.382-1.27-1.299-.81-2.047.47-.748 1.59-1.044 2.5-.662l31.52 13.233c.92.383 1.28 1.299.81 2.047-.46.749-1.58 1.045-2.49.662ZM1115.68 570.251l-31.53-13.234c-.91-.382-1.27-1.299-.81-2.047.47-.748 1.59-1.044 2.5-.662l31.52 13.234c.91.382 1.28 1.299.81 2.047-.47.748-1.58 1.044-2.49.662ZM1112.12 575.97l-31.53-13.234c-.91-.382-1.27-1.298-.81-2.047.47-.748 1.58-1.044 2.5-.662l31.52 13.234c.91.382 1.28 1.299.81 2.047-.47.748-1.58 1.044-2.49.662ZM1108.56 581.689l-31.53-13.233c-.91-.382-1.27-1.299-.81-2.047.47-.748 1.58-1.045 2.5-.662l31.52 13.233c.91.383 1.28 1.299.81 2.047-.47.748-1.58 1.045-2.49.662ZM1105 587.409l-31.53-13.234c-.91-.382-1.27-1.299-.81-2.047.47-.748 1.58-1.044 2.5-.662l31.52 13.233c.91.383 1.27 1.299.81 2.048-.47.748-1.58 1.044-2.49.662ZM1101.44 593.128l-31.53-13.234c-.91-.382-1.27-1.298-.81-2.047.47-.748 1.58-1.044 2.49-.662l31.53 13.234c.91.382 1.27 1.299.81 2.047-.47.748-1.58 1.044-2.49.662ZM1079.7 436.059l13.35 12.91c.66.641.56 1.601-.22 2.144-.78.544-1.95.466-2.61-.175l-13.34-12.91c-.66-.641-.57-1.601.21-2.144.78-.544 1.95-.465 2.61.175ZM1065.31 431.015l13.34 12.91c.67.641.57 1.601-.21 2.145-.78.543-1.95.465-2.61-.176l-13.35-12.91c-.66-.64-.56-1.6.22-2.144s1.95-.465 2.61.175ZM1051.58 426.616l13.35 12.91c.66.64.56 1.6-.22 2.144s-1.95.465-2.61-.175l-13.35-12.91c-.66-.641-.56-1.601.22-2.145.78-.543 1.95-.465 2.61.176ZM1082.05 449.565c.78-.544 1.95-.465 2.61.176.67.64.57 1.6-.21 2.144-.78.543-1.95.465-2.61-.176-.66-.64-.57-1.6.21-2.144ZM1067.17 444.049c.78-.544 1.95-.465 2.61.175.66.641.57 1.601-.21 2.144-.78.544-1.95.465-2.61-.175-.67-.641-.57-1.601.21-2.144ZM1071.54 430.514c.78-.543 1.95-.465 2.61.176.66.64.57 1.6-.21 2.144-.78.544-1.95.465-2.61-.175-.67-.641-.57-1.601.21-2.145ZM1056.79 425.127c.78-.544 1.95-.465 2.61.175.66.641.57 1.601-.21 2.144-.78.544-1.95.466-2.61-.175-.66-.64-.57-1.601.21-2.144ZM1318.87 500.614l-2.31 23.158c-.08.837-.98 1.461-2 1.392l-1.16-.078c-1.02-.068-1.78-.803-1.7-1.64l2.31-23.158c.08-.838.98-1.461 2-1.393l1.16.078c1.02.069 1.78.803 1.7 1.641ZM1311.19 484.928l-2.3 23.158c-.09.838-.98 1.461-2 1.392l-1.17-.078c-1.02-.068-1.77-.803-1.69-1.64l2.3-23.158c.09-.838.98-1.461 2-1.393l1.17.079c1.02.068 1.78.802 1.69 1.64ZM1303.41 470.35l-2.31 23.158c-.08.838-.98 1.461-2 1.392l-1.16-.078c-1.02-.068-1.78-.803-1.7-1.64l2.31-23.158c.08-.838.98-1.461 2-1.393l1.16.079c1.02.068 1.78.802 1.7 1.64ZM1305.71 515.451c1.34.09 2.34 1.055 2.23 2.157-.11 1.102-1.29 1.922-2.63 1.832-1.34-.09-2.34-1.057-2.23-2.158.11-1.102 1.29-1.921 2.63-1.831ZM1298.11 498.952c1.34.09 2.34 1.056 2.23 2.158-.11 1.101-1.28 1.921-2.62 1.831-1.35-.09-2.34-1.056-2.23-2.157.11-1.102 1.28-1.922 2.62-1.832ZM1317.51 489.7c1.34.09 2.34 1.056 2.23 2.158-.11 1.102-1.29 1.922-2.63 1.832-1.34-.091-2.34-1.056-2.23-2.158.11-1.102 1.29-1.922 2.63-1.832ZM1309.89 473.423c1.34.09 2.34 1.056 2.23 2.158-.11 1.102-1.28 1.922-2.62 1.832-1.35-.09-2.34-1.056-2.23-2.158.11-1.102 1.28-1.922 2.62-1.832Z"/><path fill="#0F1B1B" fill-opacity=".07" d="M1203.36 475.896c.47-4.534-1.1-9.22-4.88-13.045-1.94-1.968-4.29-3.518-6.88-4.632-7.32-3.153-12.79-8.604-14.77-15.193-.74-2.458-2.12-4.83-4.16-6.946-3.65-3.789-8.76-6.067-14.16-6.724-3.89-.474-6.65-3.391-6.33-6.607.46-4.514-1.12-9.176-4.88-12.984-7.5-7.599-21.15-8.978-30.66-3.091-10.01 6.196-11.8 17.904-4.06 25.928 3.65 3.79 8.77 6.068 14.16 6.725 3.91.475 6.67 3.318 6.34 6.546-.48 4.533 1.1 9.219 4.87 13.044 1.94 1.968 4.3 3.518 6.89 4.633 7.31 3.153 12.79 8.603 14.77 15.191.74 2.46 2.11 4.831 4.15 6.947 3.66 3.789 8.77 6.067 14.17 6.724 3.88.474 6.65 3.391 6.32 6.607-.45 4.515 1.13 9.176 4.89 12.984 7.49 7.6 21.15 8.978 30.66 3.091 10.01-6.196 11.79-17.904 4.06-25.928-3.66-3.79-8.77-6.068-14.17-6.725-3.9-.475-6.66-3.318-6.33-6.545Z"/><path fill="#D9D9D9" fill-opacity=".25" d="M1193.02 403.862c3.49 3.614 2.75 8.864-1.66 11.726-4.4 2.862-10.79 2.252-14.28-1.363-3.48-3.615-2.74-8.865 1.66-11.726 4.4-2.862 10.8-2.252 14.28 1.363Z"/><path stroke="#0F1B1B" stroke-miterlimit="10" stroke-opacity=".07" stroke-width="2" d="m1291.45 554.28-1.86-1.128c-4.02-2.437-9.68-1.74-12.64 1.556l-18.78 20.853c-2.97 3.296-2.12 7.944 1.9 10.382l25.39 15.415c4.02 2.438 9.68 1.741 12.64-1.556l1.38-1.525c1.99-2.212 5.79-2.679 8.48-1.044l1.86 1.128c4.01 2.437 9.67 1.74 12.64-1.556l18.78-20.853c2.96-3.296 2.11-7.944-1.9-10.382l-25.39-15.415c-4.02-2.438-9.68-1.741-12.65 1.556l-1.37 1.525c-1.99 2.212-5.79 2.679-8.48 1.044Z"/><path fill="#D9D9D9" fill-opacity=".25" d="m1280.65 570.324-10.14 11.258c-1.47 1.635-4.28 1.981-6.27.772l-13.71-8.323c-1.99-1.209-2.41-3.515-.94-5.15l10.14-11.259c1.47-1.635 4.28-1.98 6.27-.771l13.71 8.323c1.99 1.209 2.41 3.514.94 5.15ZM606.938 59.195l-10.137 11.258c-1.472 1.635-4.28 1.981-6.271.772l-13.711-8.323c-1.992-1.21-2.413-3.515-.94-5.15l10.136-11.259c1.472-1.635 4.281-1.98 6.272-.772l13.711 8.324c1.991 1.209 2.412 3.514.94 5.15Z"/></g></g><defs><clipPath id="a"><path fill="#fff" d="M-54 0h1548v715H-54z"/></clipPath></defs></svg>