<svg width="1440" height="715" viewBox="0 0 1440 715" fill="none" xmlns="http://www.w3.org/2000/svg">
<g clip-path="url(#clip0_123_3444)">
<mask id="mask0_123_3444" style="mask-type:luminance" maskUnits="userSpaceOnUse" x="-54" y="0" width="1548" height="715">
<path d="M-54 0H1494V715H-54V0Z" fill="white"/>
</mask>
<g mask="url(#mask0_123_3444)">
<path d="M531.582 140.03L511.68 138.694C511.18 138.66 510.713 138.799 510.361 139.048C510.005 139.293 509.762 139.649 509.721 140.059L508.239 154.947L490.107 153.73C489.608 153.696 489.14 153.835 488.789 154.084C488.432 154.329 488.189 154.685 488.148 155.095L486.663 170.012L468.497 168.792C467.997 168.759 467.529 168.897 467.178 169.147C466.822 169.391 466.579 169.747 466.538 170.157L465.055 185.045L446.924 183.828C446.424 183.795 445.957 183.933 445.605 184.183C445.249 184.427 445.006 184.783 444.965 185.193L443.338 201.536C443.257 202.347 443.992 203.058 444.979 203.124C445.967 203.191 446.833 202.587 446.914 201.776L448.397 186.883L466.534 188.101C467.032 188.134 467.498 187.997 467.85 187.749C468.204 187.505 468.446 187.149 468.486 186.74L469.97 171.847L488.107 173.065C488.614 173.099 489.087 172.955 489.44 172.698C489.805 172.454 490.056 172.094 490.097 171.678L491.58 156.785L509.717 158.003C510.215 158.036 510.682 157.898 511.033 157.65C511.388 157.406 511.629 157.051 511.67 156.642L513.153 141.749L531.29 142.966C532.277 143.033 533.143 142.429 533.224 141.618C533.305 140.807 532.57 140.096 531.582 140.03Z" fill="#0F1B1B" fill-opacity="0.07"/>
<path d="M82.8732 682.797L85.5738 666.551C85.6415 666.143 85.498 665.752 85.2134 665.451C84.936 665.145 84.516 664.927 84.0193 664.871L65.9944 662.851L68.4546 648.05C68.5224 647.643 68.3789 647.252 68.0947 646.95C67.8169 646.645 67.3968 646.426 66.9002 646.371L48.8406 644.347L51.3053 629.517C51.373 629.11 51.2295 628.719 50.9453 628.417C50.6676 628.111 50.2475 627.893 49.7509 627.838L31.7263 625.818L34.1862 611.017C34.2539 610.609 34.1104 610.219 33.8262 609.917C33.5485 609.611 33.1284 609.393 32.6318 609.337L12.8464 607.12C11.8644 607.01 10.9602 607.574 10.8263 608.38C10.6921 609.187 11.3794 609.929 12.361 610.039L30.3916 612.06L27.9309 626.865C27.8632 627.272 28.0055 627.662 28.2881 627.963C28.5658 628.267 28.9851 628.484 29.4801 628.54L47.5107 630.56L45.05 645.366C44.9811 645.78 45.1314 646.175 45.4241 646.478C45.7015 646.791 46.1256 647.016 46.6295 647.073L64.66 649.093L62.1994 663.899C62.1316 664.305 62.2739 664.695 62.5565 664.996C62.8343 665.3 63.2535 665.518 63.7486 665.573L81.7791 667.593L79.3185 682.399C79.1842 683.205 79.8716 683.948 80.8532 684.058C81.8348 684.168 82.7394 683.603 82.8732 682.797Z" fill="#0F1B1B" fill-opacity="0.07"/>
<path d="M1472.74 27.6964L1452.84 26.3601C1452.34 26.3263 1451.87 26.4653 1451.52 26.7146C1451.16 26.9589 1450.92 27.315 1450.88 27.7252L1449.39 42.6134L1431.26 41.3959C1430.76 41.3625 1430.3 41.5012 1429.94 41.7504C1429.59 41.9947 1429.35 42.3509 1429.3 42.761L1427.82 57.678L1409.65 56.4582C1409.15 56.4248 1408.69 56.5635 1408.33 56.8128C1407.98 57.0571 1407.73 57.4132 1407.69 57.8234L1406.21 72.7116L1388.08 71.4941C1387.58 71.4607 1387.11 71.5994 1386.76 71.8489C1386.4 72.0929 1386.16 72.4491 1386.12 72.8595L1384.49 89.2019C1384.41 90.0129 1385.15 90.724 1386.14 90.7902C1387.12 90.8567 1387.99 90.2529 1388.07 89.4423L1389.55 74.5491L1407.69 75.7669C1408.19 75.8003 1408.65 75.6629 1409.01 75.4147C1409.36 75.1707 1409.6 74.8152 1409.64 74.4061L1411.13 59.5132L1429.26 60.731C1429.77 60.7651 1430.24 60.6208 1430.6 60.3643C1430.96 60.1196 1431.21 59.7602 1431.25 59.3437L1432.74 44.4509L1450.87 45.6687C1451.37 45.7021 1451.84 45.5644 1452.19 45.3165C1452.54 45.0722 1452.78 44.7167 1452.83 44.3079L1454.31 29.4147L1472.45 30.6325C1473.43 30.699 1474.3 30.0953 1474.38 29.2846C1474.46 28.4736 1473.73 27.7626 1472.74 27.6964Z" fill="#0F1B1B" fill-opacity="0.07"/>
<path d="M1434.9 614.71L1414.99 613.374C1414.49 613.34 1414.03 613.479 1413.68 613.728C1413.32 613.973 1413.08 614.329 1413.04 614.739L1411.55 629.627L1393.42 628.41C1392.92 628.376 1392.45 628.515 1392.1 628.764C1391.75 629.008 1391.5 629.365 1391.46 629.775L1389.98 644.692L1371.81 643.472C1371.31 643.439 1370.84 643.577 1370.49 643.827C1370.14 644.071 1369.89 644.427 1369.85 644.837L1368.37 659.725L1350.24 658.508C1349.74 658.474 1349.27 658.613 1348.92 658.863C1348.56 659.107 1348.32 659.463 1348.28 659.873L1346.65 676.216C1346.57 677.027 1347.31 677.738 1348.29 677.804C1349.28 677.87 1350.15 677.267 1350.23 676.456L1351.71 661.563L1369.85 662.781C1370.35 662.814 1370.81 662.677 1371.16 662.428C1371.52 662.184 1371.76 661.829 1371.8 661.42L1373.28 646.527L1391.42 647.745C1391.93 647.779 1392.4 647.635 1392.75 647.378C1393.12 647.133 1393.37 646.774 1393.41 646.357L1394.89 631.465L1413.03 632.682C1413.53 632.716 1414 632.578 1414.35 632.33C1414.7 632.086 1414.94 631.73 1414.98 631.322L1416.47 616.429L1434.6 617.647C1435.59 617.713 1436.46 617.109 1436.54 616.298C1436.62 615.487 1435.88 614.776 1434.9 614.71Z" fill="#0F1B1B" fill-opacity="0.07"/>
<path d="M1076.99 298.225L1057.09 296.888C1056.59 296.855 1056.12 296.994 1055.77 297.243C1055.41 297.487 1055.17 297.843 1055.13 298.253L1053.65 313.142L1035.52 311.924C1035.02 311.891 1034.55 312.029 1034.2 312.279C1033.84 312.523 1033.6 312.879 1033.56 313.289L1032.07 328.206L1013.91 326.987C1013.41 326.953 1012.94 327.092 1012.59 327.341C1012.23 327.585 1011.99 327.942 1011.95 328.352L1010.46 343.24L992.334 342.022C991.834 341.989 991.367 342.128 991.015 342.377C990.659 342.622 990.416 342.978 990.375 343.388L988.748 359.73C988.667 360.541 989.402 361.252 990.389 361.318C991.377 361.385 992.243 360.781 992.324 359.971L993.807 345.077L1011.94 346.295C1012.44 346.329 1012.91 346.191 1013.26 345.943C1013.61 345.699 1013.86 345.344 1013.9 344.935L1015.38 330.042L1033.52 331.259C1034.02 331.293 1034.5 331.149 1034.85 330.893C1035.22 330.648 1035.47 330.288 1035.51 329.872L1036.99 314.979L1055.13 316.197C1055.63 316.23 1056.09 316.093 1056.44 315.845C1056.8 315.601 1057.04 315.245 1057.08 314.836L1058.56 299.943L1076.7 301.161C1077.69 301.227 1078.55 300.624 1078.63 299.813C1078.71 299.002 1077.98 298.291 1076.99 298.225Z" fill="#0F1B1B" fill-opacity="0.07"/>
<path d="M92.5612 363.522L79.6387 351.021C79.3146 350.707 78.8643 350.534 78.4011 350.506C77.9387 350.472 77.4602 350.583 77.0784 350.849L63.2089 360.515L51.4364 349.127C51.1123 348.813 50.6624 348.64 50.1993 348.612C49.7365 348.578 49.258 348.689 48.8762 348.955L34.9801 358.641L23.1846 347.23C22.8605 346.917 22.4106 346.743 21.947 346.715C21.4847 346.681 21.0062 346.792 20.6244 347.058L6.75488 356.725L-5.01717 345.337C-5.34169 345.023 -5.79158 344.849 -6.25477 344.822C-6.71755 344.787 -7.19566 344.898 -7.57782 345.165L-22.8018 355.776C-23.5573 356.302 -23.65 357.232 -23.0086 357.852C-22.3677 358.472 -21.2357 358.548 -20.4802 358.022L-6.60629 348.352L5.16979 359.744C5.4931 360.057 5.94138 360.23 6.40295 360.259C6.86453 360.292 7.34103 360.181 7.72198 359.915L21.5955 350.246L33.372 361.638C33.701 361.956 34.1597 362.129 34.6302 362.152C35.0994 362.191 35.586 362.083 35.9738 361.812L49.8473 352.143L61.6238 363.535C61.9471 363.848 62.3954 364.021 62.857 364.049C63.3186 364.083 63.795 363.972 64.176 363.706L78.0495 354.036L89.826 365.428C90.467 366.048 91.599 366.125 92.3544 365.598C93.1099 365.072 93.2022 364.142 92.5612 363.522Z" fill="#0F1B1B" fill-opacity="0.07"/>
<path d="M939.258 532.222L926.335 519.721C926.011 519.407 925.561 519.234 925.098 519.206C924.635 519.172 924.157 519.283 923.775 519.549L909.905 529.216L898.133 517.827C897.809 517.514 897.359 517.341 896.896 517.313C896.433 517.278 895.954 517.389 895.573 517.656L881.677 527.341L869.881 515.93C869.557 515.617 869.107 515.443 868.644 515.416C868.181 515.381 867.703 515.492 867.321 515.759L853.451 525.425L841.679 514.037C841.355 513.723 840.905 513.55 840.442 513.522C839.979 513.488 839.501 513.599 839.119 513.865L823.895 524.476C823.139 525.003 823.047 525.932 823.688 526.552C824.329 527.172 825.461 527.249 826.216 526.722L840.09 517.052L851.866 528.444C852.19 528.757 852.638 528.931 853.099 528.959C853.561 528.993 854.038 528.881 854.419 528.616L868.292 518.946L880.069 530.338C880.397 530.656 880.856 530.829 881.327 530.852C881.796 530.892 882.283 530.783 882.67 530.513L896.544 520.843L908.32 532.235C908.644 532.548 909.092 532.721 909.554 532.75C910.015 532.783 910.492 532.672 910.873 532.406L924.746 522.736L936.523 534.129C937.164 534.749 938.296 534.825 939.051 534.298C939.806 533.772 939.899 532.842 939.258 532.222Z" fill="#0F1B1B" fill-opacity="0.07"/>
</g>
<mask id="mask1_123_3444" style="mask-type:luminance" maskUnits="userSpaceOnUse" x="-54" y="0" width="1548" height="715">
<path d="M-54 0H1494V715H-54V0Z" fill="white"/>
</mask>
<g mask="url(#mask1_123_3444)">
<path d="M664.403 37.4285L758.826 114.963C759.55 115.556 759.55 116.52 758.826 117.114C758.103 117.708 756.93 117.708 756.206 117.114L661.783 39.5798C661.06 38.986 661.06 38.0227 661.783 37.4285C662.506 36.8343 663.679 36.8343 664.403 37.4285Z" fill="#EAEAEA" fill-opacity="0.25"/>
<path d="M669.935 32.8868L764.358 110.421C765.081 111.015 765.081 111.978 764.358 112.572C763.634 113.166 762.461 113.166 761.738 112.572L667.315 35.0381C666.591 34.4442 666.591 33.4809 667.315 32.8868C668.038 32.2926 669.211 32.2926 669.935 32.8868Z" fill="#EAEAEA" fill-opacity="0.25"/>
<path d="M675.466 28.3449L769.889 105.879C770.612 106.473 770.612 107.436 769.889 108.03C769.165 108.624 767.992 108.624 767.269 108.03L672.846 30.4962C672.122 29.9023 672.122 28.9391 672.846 28.3449C673.569 27.7507 674.742 27.7507 675.466 28.3449Z" fill="#EAEAEA" fill-opacity="0.25"/>
<path d="M699.659 99.3708L723.702 89.3598L735.893 109.102L699.659 99.3708ZM751.247 71.1534L727.204 81.1644L715.012 61.4221L751.247 71.1534ZM746.102 114.852C746.156 114.717 746.183 114.58 746.212 114.444C746.222 114.396 746.242 114.351 746.249 114.303C746.262 114.215 746.255 114.129 746.258 114.042C746.262 113.94 746.273 113.838 746.264 113.734C746.259 113.685 746.242 113.639 746.234 113.591C746.185 113.275 746.084 112.96 745.899 112.66L729.753 86.5147L761.464 73.311C762.483 73.0376 763.339 72.3901 763.698 71.4891C764.295 69.9882 763.299 68.3735 761.471 67.8826L709.195 53.8431C707.367 53.3522 705.401 54.1712 704.803 55.672C704.749 55.8074 704.722 55.9441 704.694 56.0805C704.684 56.1278 704.664 56.1735 704.656 56.2212C704.643 56.3089 704.651 56.395 704.647 56.482C704.643 56.585 704.633 56.6866 704.642 56.7899C704.647 56.8388 704.664 56.8852 704.672 56.9335C704.721 57.2493 704.821 57.5641 705.007 57.864L721.152 84.0095L689.442 97.2132C688.423 97.4866 687.567 98.1341 687.208 99.0351C686.61 100.536 687.607 102.151 689.435 102.642L741.71 116.681C743.538 117.172 745.505 116.353 746.102 114.852Z" fill="#EAEAEA" fill-opacity="0.25"/>
<path d="M395.135 413.485L381.614 394.335L404.934 383.232L395.135 413.485ZM357.93 372.774L371.452 391.924L348.131 403.027L357.93 372.774ZM411.353 374.54C411.185 374.503 411.018 374.489 410.85 374.473C410.792 374.467 410.735 374.454 410.677 374.45C410.57 374.445 410.465 374.455 410.359 374.458C410.234 374.46 410.11 374.457 409.985 374.47C409.925 374.477 409.87 374.494 409.812 374.503C409.43 374.561 409.054 374.661 408.699 374.83L377.815 389.534L359.981 364.277C359.591 363.457 358.756 362.791 357.64 362.548C355.781 362.142 353.874 363.05 353.38 364.576L339.242 408.221C338.748 409.747 339.854 411.313 341.713 411.72C341.88 411.756 342.048 411.77 342.215 411.786C342.274 411.791 342.33 411.806 342.389 411.809C342.496 411.814 342.6 411.804 342.706 411.801C342.831 411.799 342.956 411.802 343.081 411.789C343.14 411.782 343.196 411.766 343.254 411.756C343.635 411.698 344.012 411.598 344.367 411.43L375.251 396.725L393.085 421.982C393.475 422.802 394.31 423.467 395.426 423.711C397.284 424.117 399.192 423.209 399.686 421.683L413.823 378.038C414.318 376.512 413.212 374.945 411.353 374.54Z" fill="#EAEAEA" fill-opacity="0.25"/>
<path d="M350.931 417.836L430.808 329.967C431.421 329.294 432.581 329.155 433.401 329.658C434.221 330.16 434.39 331.113 433.778 331.787L353.9 419.656C353.288 420.329 352.128 420.468 351.308 419.965C350.488 419.463 350.319 418.509 350.931 417.836Z" fill="#EAEAEA" fill-opacity="0.25"/>
<path d="M344.662 413.994L424.54 326.125C425.152 325.451 426.313 325.313 427.133 325.815C427.953 326.318 428.121 327.271 427.509 327.945L347.632 415.814C347.02 416.487 345.859 416.625 345.039 416.123C344.219 415.62 344.051 414.667 344.662 413.994Z" fill="#EAEAEA" fill-opacity="0.25"/>
<path d="M338.394 410.152L418.271 322.282C418.883 321.609 420.044 321.471 420.864 321.973C421.684 322.476 421.852 323.429 421.241 324.102L341.363 411.972C340.751 412.645 339.59 412.783 338.77 412.281C337.95 411.778 337.782 410.825 338.394 410.152Z" fill="#EAEAEA" fill-opacity="0.25"/>
<path d="M805.567 628.487L792.045 609.337L815.366 598.234L805.567 628.487ZM768.362 587.777L781.884 606.926L758.563 618.029L768.362 587.777ZM821.785 589.542C821.617 589.505 821.449 589.491 821.282 589.475C821.223 589.47 821.167 589.456 821.109 589.453C821.001 589.447 820.897 589.457 820.791 589.46C820.666 589.462 820.541 589.459 820.416 589.472C820.357 589.479 820.302 589.496 820.243 589.505C819.862 589.563 819.485 589.663 819.13 589.832L788.246 604.536L770.412 579.279C770.022 578.459 769.187 577.794 768.071 577.55C766.213 577.144 764.305 578.052 763.811 579.578L749.674 623.224C749.18 624.75 750.286 626.316 752.144 626.722C752.312 626.758 752.48 626.773 752.647 626.788C752.705 626.794 752.762 626.808 752.82 626.811C752.928 626.817 753.032 626.806 753.138 626.804C753.263 626.801 753.388 626.805 753.513 626.791C753.572 626.784 753.627 626.768 753.685 626.759C754.067 626.701 754.444 626.6 754.799 626.432L785.683 611.728L803.517 636.984C803.906 637.804 804.742 638.47 805.858 638.713C807.716 639.12 809.624 638.211 810.118 636.685L824.255 593.04C824.749 591.514 823.643 589.948 821.785 589.542Z" fill="#EAEAEA" fill-opacity="0.25"/>
<path d="M811.913 665.437L751.09 567.823C750.624 567.075 750.985 566.158 751.895 565.776C752.806 565.393 753.923 565.689 754.389 566.437L815.212 664.052C815.678 664.8 815.317 665.716 814.407 666.099C813.496 666.482 812.379 666.186 811.913 665.437Z" fill="#EAEAEA" fill-opacity="0.25"/>
<path d="M804.95 668.363L744.126 570.749C743.66 570.001 744.021 569.084 744.931 568.701C745.843 568.319 746.959 568.615 747.425 569.363L808.248 666.977C808.714 667.725 808.354 668.642 807.443 669.024C806.532 669.407 805.416 669.111 804.95 668.363Z" fill="#EAEAEA" fill-opacity="0.25"/>
<path d="M797.986 671.289L737.162 573.674C736.696 572.926 737.057 572.01 737.968 571.627C738.879 571.244 739.995 571.54 740.461 572.288L801.284 669.903C801.75 670.651 801.39 671.568 800.479 671.95C799.568 672.333 798.452 672.037 797.986 671.289Z" fill="#EAEAEA" fill-opacity="0.25"/>
<path d="M1375.25 283.786L1369.86 262.099L1396.27 257.667L1375.25 283.786ZM1355.76 235.47L1361.16 257.157L1334.75 261.589L1355.76 235.47ZM1405.72 251.103C1405.58 251.025 1405.42 250.968 1405.27 250.909C1405.22 250.888 1405.17 250.86 1405.11 250.842C1405.02 250.808 1404.91 250.791 1404.81 250.766C1404.69 250.736 1404.57 250.7 1404.45 250.68C1404.39 250.671 1404.33 250.672 1404.27 250.665C1403.89 250.621 1403.49 250.617 1403.09 250.685L1368.11 256.554L1361 227.95C1360.94 227.071 1360.41 226.222 1359.45 225.699C1357.84 224.829 1355.68 225.191 1354.62 226.509L1324.31 264.191C1323.25 265.509 1323.69 267.282 1325.29 268.153C1325.44 268.231 1325.59 268.289 1325.74 268.347C1325.8 268.368 1325.84 268.396 1325.9 268.414C1326 268.447 1326.1 268.465 1326.2 268.49C1326.32 268.521 1326.44 268.556 1326.56 268.576C1326.62 268.585 1326.68 268.584 1326.74 268.59C1327.12 268.635 1327.52 268.639 1327.92 268.572L1362.9 262.702L1370.02 291.306C1370.07 292.185 1370.6 293.034 1371.57 293.557C1373.17 294.427 1375.33 294.065 1376.39 292.747L1406.71 255.065C1407.77 253.747 1407.33 251.974 1405.72 251.103Z" fill="#EAEAEA" fill-opacity="0.25"/>
<path d="M1373.28 340.134L1356 269.762C1355.8 268.938 1356.44 268.136 1357.45 267.97C1358.45 267.804 1359.43 268.337 1359.63 269.16L1376.91 339.533C1377.12 340.356 1376.47 341.159 1375.46 341.325C1374.46 341.491 1373.48 340.958 1373.28 340.134Z" fill="#EAEAEA" fill-opacity="0.25"/>
<path d="M1365.61 341.404L1348.33 271.031C1348.13 270.208 1348.78 269.406 1349.78 269.24C1350.78 269.073 1351.76 269.606 1351.96 270.43L1369.24 340.803C1369.45 341.626 1368.8 342.428 1367.8 342.595C1366.79 342.76 1365.82 342.228 1365.61 341.404Z" fill="#EAEAEA" fill-opacity="0.25"/>
<path d="M1357.94 342.674L1340.66 272.301C1340.46 271.478 1341.11 270.676 1342.11 270.509C1343.11 270.343 1344.09 270.876 1344.29 271.7L1361.58 342.072C1361.78 342.896 1361.13 343.698 1360.13 343.864C1359.12 344.03 1358.15 343.497 1357.94 342.674Z" fill="#EAEAEA" fill-opacity="0.25"/>
<path d="M10.9358 537.8L-2.58587 518.651L20.7349 507.548L10.9358 537.8ZM-26.2691 497.09L-12.7474 516.239L-36.0682 527.342L-26.2691 497.09ZM27.1535 498.855C26.9858 498.818 26.8181 498.805 26.6508 498.789C26.5923 498.783 26.5359 498.769 26.4774 498.766C26.3702 498.76 26.2658 498.771 26.1598 498.773C26.0348 498.776 25.9102 498.772 25.7853 498.786C25.726 498.793 25.6704 498.809 25.6123 498.818C25.231 498.876 24.854 498.976 24.4993 499.145L-6.38491 513.849L-24.2188 488.593C-24.609 487.772 -25.4439 487.107 -26.5597 486.863C-28.4181 486.458 -30.3257 487.366 -30.8199 488.892L-44.9571 532.537C-45.4514 534.063 -44.3456 535.629 -42.4868 536.035C-42.3191 536.072 -42.1514 536.086 -41.9841 536.101C-41.9256 536.107 -41.8692 536.121 -41.8107 536.125C-41.7035 536.13 -41.5991 536.12 -41.4931 536.117C-41.3681 536.115 -41.2435 536.118 -41.1186 536.104C-41.0593 536.098 -41.0041 536.081 -40.9456 536.072C-40.5643 536.014 -40.1873 535.914 -39.8326 535.745L-8.94839 521.041L8.88546 546.297C9.27568 547.118 10.1106 547.783 11.2264 548.027C13.0848 548.433 14.9924 547.525 15.4866 545.999L29.6238 502.353C30.118 500.827 29.0123 499.261 27.1535 498.855Z" fill="#EAEAEA" fill-opacity="0.25"/>
<path d="M9.38739 497.255L-25.9356 432.366C-26.3533 431.599 -25.9344 430.699 -25.0004 430.356C-24.0659 430.014 -22.9702 430.357 -22.553 431.124L12.77 496.014C13.1877 496.781 12.7688 497.68 11.8348 498.023C10.9007 498.366 9.80503 498.022 9.38739 497.255Z" fill="#EAEAEA" fill-opacity="0.25"/>
<path d="M2.24604 499.876L-33.077 434.987C-33.4946 434.22 -33.0758 433.321 -32.1417 432.978C-31.2073 432.635 -30.1116 432.979 -29.6944 433.746L5.62865 498.635C6.0463 499.402 5.62745 500.301 4.69341 500.644C3.75937 500.987 2.66367 500.643 2.24604 499.876Z" fill="#EAEAEA" fill-opacity="0.25"/>
</g>
<mask id="mask2_123_3444" style="mask-type:luminance" maskUnits="userSpaceOnUse" x="-54" y="0" width="1548" height="715">
<path d="M-54 0H1494V715H-54V0Z" fill="white"/>
</mask>
<g mask="url(#mask2_123_3444)">
<path d="M895.179 226.018L839.562 216.507L865.428 174.956L921.045 184.467L895.179 226.018ZM865.385 173.998L823.627 142.704L878.975 152.168L920.733 183.463L865.385 173.998ZM838.552 216.085L796.588 184.636L822.454 143.085L864.418 174.534L838.552 216.085ZM922.403 184.326C922.406 184.32 922.408 184.314 922.411 184.308C922.423 184.284 922.433 184.259 922.439 184.235C922.44 184.233 922.441 184.232 922.441 184.23C922.442 184.227 922.441 184.224 922.442 184.221C922.445 184.207 922.449 184.193 922.451 184.179C922.464 184.169 922.478 184.161 922.491 184.15C922.702 183.96 922.686 183.666 922.454 183.492L879.626 151.397C879.613 151.386 879.598 151.379 879.584 151.37C879.573 151.363 879.562 151.356 879.55 151.35C879.534 151.341 879.516 151.334 879.499 151.327C879.482 151.319 879.464 151.312 879.446 151.306C879.432 151.302 879.419 151.299 879.406 151.296C879.389 151.292 879.373 151.286 879.355 151.283L822.589 141.576C822.283 141.523 821.983 141.685 821.919 141.936C821.915 141.952 821.915 141.967 821.913 141.982C821.906 141.987 821.9 141.994 821.893 141.999C821.885 142.005 821.877 142.01 821.869 142.016C821.865 142.02 821.863 142.023 821.86 142.027C821.846 142.04 821.835 142.054 821.823 142.068C821.812 142.08 821.802 142.093 821.793 142.106C821.79 142.11 821.786 142.114 821.783 142.118L795.392 184.513C795.388 184.519 795.386 184.526 795.382 184.532C795.271 184.714 795.313 184.94 795.505 185.084L838.333 217.18C838.339 217.185 838.347 217.189 838.355 217.194C838.364 217.2 838.372 217.205 838.382 217.211C838.391 217.216 838.399 217.222 838.409 217.227C838.421 217.233 838.433 217.239 838.445 217.244C838.451 217.247 838.456 217.25 838.461 217.253C838.467 217.255 838.472 217.256 838.478 217.258C838.49 217.263 838.501 217.267 838.514 217.271C838.522 217.274 838.532 217.276 838.541 217.278C838.557 217.283 838.572 217.287 838.588 217.29C838.594 217.291 838.599 217.293 838.604 217.294L895.37 227.001C895.617 227.044 895.858 226.945 895.976 226.774C895.984 226.763 895.994 226.754 896.001 226.742L922.392 184.347C922.397 184.34 922.399 184.333 922.403 184.326Z" fill="#0F1B1B" fill-opacity="0.07"/>
<path d="M330.249 73.4461L358.387 32.9215L398.572 65.9184L370.434 106.443L330.249 73.4461ZM399.695 66.1799L448.808 43.187L420.807 83.5157L371.694 106.508L399.695 66.1799ZM359.188 32.2624L408.543 9.15636L448.728 42.1533L399.372 65.2594L359.188 32.2624ZM370.18 107.547C370.185 107.552 370.192 107.555 370.198 107.56C370.222 107.576 370.247 107.591 370.274 107.604C370.276 107.605 370.277 107.606 370.278 107.607C370.282 107.608 370.286 107.609 370.289 107.611C370.304 107.617 370.319 107.624 370.334 107.63C370.342 107.643 370.347 107.657 370.356 107.67C370.511 107.894 370.857 107.971 371.129 107.844L421.501 84.2621C421.517 84.2549 421.53 84.2453 421.544 84.237C421.556 84.2304 421.567 84.2241 421.578 84.2171C421.593 84.2065 421.608 84.1956 421.621 84.184C421.635 84.1728 421.649 84.1615 421.661 84.1489C421.67 84.14 421.678 84.1304 421.685 84.1211C421.696 84.1089 421.708 84.0983 421.716 84.0854L450.435 42.7236C450.59 42.5002 450.495 42.2162 450.223 42.0887C450.207 42.0811 450.19 42.0765 450.173 42.0702C450.169 42.0629 450.163 42.056 450.159 42.049C450.154 42.0411 450.152 42.0328 450.146 42.0252C450.144 42.0212 450.14 42.0182 450.137 42.0146C450.126 42 450.114 41.9868 450.101 41.9732C450.09 41.961 450.079 41.949 450.066 41.9381C450.062 41.9345 450.059 41.9302 450.055 41.9265L409.054 8.25962C409.048 8.25465 409.041 8.25135 409.034 8.24639C408.858 8.10339 408.583 8.06631 408.357 8.17191L357.986 31.7537C357.977 31.7576 357.971 31.7629 357.963 31.7669C357.953 31.7719 357.944 31.7775 357.935 31.7828C357.926 31.7881 357.917 31.7931 357.908 31.799C357.897 31.8063 357.887 31.8139 357.877 31.8219C357.872 31.8255 357.866 31.8281 357.862 31.8318C357.857 31.8354 357.854 31.8397 357.85 31.8434C357.841 31.851 357.833 31.8589 357.825 31.8672C357.819 31.8735 357.813 31.8798 357.807 31.8864C357.798 31.8973 357.788 31.9083 357.78 31.9195C357.777 31.9235 357.773 31.9268 357.77 31.9308L329.051 73.2925C328.926 73.4726 328.966 73.6907 329.127 73.8361C329.138 73.8456 329.146 73.8562 329.157 73.8655L370.158 107.532C370.164 107.538 370.172 107.542 370.18 107.547Z" fill="#0F1B1B" fill-opacity="0.07"/>
<path d="M1434.14 479.844L1378.52 470.334L1404.39 428.783L1460.01 438.293L1434.14 479.844ZM1404.35 427.825L1362.59 396.531L1417.94 405.995L1459.69 437.289L1404.35 427.825ZM1377.51 469.911L1335.55 438.463L1361.42 396.912L1403.38 428.361L1377.51 469.911ZM1461.36 438.152C1461.37 438.146 1461.37 438.14 1461.37 438.135C1461.38 438.11 1461.39 438.086 1461.4 438.061C1461.4 438.06 1461.4 438.058 1461.4 438.057C1461.4 438.054 1461.4 438.051 1461.4 438.047C1461.41 438.034 1461.41 438.02 1461.41 438.006C1461.43 437.996 1461.44 437.988 1461.45 437.977C1461.66 437.787 1461.65 437.493 1461.42 437.319L1418.59 405.223C1418.57 405.213 1418.56 405.206 1418.54 405.197C1418.53 405.19 1418.52 405.183 1418.51 405.177C1418.49 405.168 1418.48 405.16 1418.46 405.153C1418.44 405.146 1418.43 405.139 1418.41 405.133C1418.39 405.129 1418.38 405.126 1418.37 405.123C1418.35 405.118 1418.33 405.112 1418.32 405.109L1361.55 395.402C1361.24 395.35 1360.94 395.512 1360.88 395.763C1360.88 395.778 1360.88 395.794 1360.87 395.809C1360.87 395.814 1360.86 395.82 1360.85 395.826C1360.85 395.832 1360.84 395.837 1360.83 395.843C1360.83 395.847 1360.82 395.85 1360.82 395.854C1360.81 395.866 1360.8 395.88 1360.78 395.895C1360.77 395.907 1360.76 395.919 1360.75 395.933C1360.75 395.937 1360.75 395.941 1360.74 395.945L1334.35 438.339C1334.35 438.346 1334.35 438.352 1334.34 438.359C1334.23 438.541 1334.27 438.767 1334.47 438.911L1377.29 471.007C1377.3 471.012 1377.31 471.016 1377.32 471.021C1377.32 471.026 1377.33 471.032 1377.34 471.038C1377.35 471.043 1377.36 471.049 1377.37 471.054C1377.38 471.06 1377.39 471.066 1377.41 471.071C1377.41 471.074 1377.42 471.077 1377.42 471.08C1377.43 471.082 1377.43 471.083 1377.44 471.085C1377.45 471.09 1377.46 471.094 1377.47 471.098C1377.48 471.1 1377.49 471.103 1377.5 471.105C1377.52 471.11 1377.53 471.114 1377.55 471.117C1377.55 471.118 1377.56 471.12 1377.57 471.121L1434.33 480.828C1434.58 480.87 1434.82 480.772 1434.94 480.601C1434.95 480.59 1434.96 480.58 1434.96 480.569L1461.35 438.174C1461.36 438.167 1461.36 438.16 1461.36 438.152Z" fill="#0F1B1B" fill-opacity="0.07"/>
<path d="M631.274 597.125L576.48 609.443V562.778L631.274 550.46V597.125ZM575.911 561.941L521.382 549.683L575.911 537.424L630.439 549.683L575.911 561.941ZM575.346 609.444L520.549 597.125V550.461L575.346 562.779V609.444ZM632.404 549.827C632.404 549.821 632.403 549.814 632.402 549.808C632.399 549.782 632.394 549.757 632.387 549.732C632.386 549.731 632.386 549.729 632.385 549.728C632.385 549.725 632.383 549.722 632.381 549.719C632.376 549.705 632.372 549.692 632.366 549.679C632.372 549.665 632.381 549.652 632.385 549.638C632.468 549.39 632.29 549.134 631.989 549.066L576.063 536.494C576.045 536.49 576.028 536.489 576.01 536.486C575.997 536.484 575.983 536.482 575.97 536.481C575.949 536.479 575.93 536.479 575.911 536.479C575.891 536.479 575.872 536.479 575.852 536.481C575.838 536.482 575.825 536.484 575.811 536.486C575.793 536.489 575.776 536.49 575.758 536.494L519.833 549.066C519.531 549.134 519.353 549.39 519.436 549.638C519.441 549.653 519.449 549.666 519.456 549.68C519.452 549.688 519.45 549.696 519.447 549.703C519.444 549.711 519.439 549.719 519.436 549.728C519.435 549.732 519.435 549.736 519.433 549.74C519.429 549.757 519.426 549.774 519.423 549.791C519.42 549.806 519.418 549.821 519.417 549.836C519.417 549.841 519.416 549.845 519.416 549.85V597.462C519.416 597.469 519.418 597.476 519.418 597.483C519.42 597.687 519.582 597.873 519.833 597.929L575.758 610.502C575.767 610.504 575.777 610.504 575.785 610.505C575.797 610.507 575.808 610.509 575.819 610.51C575.83 610.512 575.841 610.514 575.852 610.515C575.866 610.516 575.88 610.516 575.894 610.517C575.9 610.517 575.906 610.518 575.913 610.518C575.919 610.518 575.925 610.517 575.931 610.517C575.944 610.516 575.957 610.516 575.97 610.515C575.979 610.514 575.989 610.512 575.998 610.511C576.015 610.509 576.031 610.507 576.047 610.504C576.052 610.503 576.058 610.503 576.063 610.502L631.988 597.929C632.232 597.875 632.392 597.697 632.403 597.501C632.404 597.488 632.407 597.475 632.407 597.462V549.85C632.407 549.843 632.405 549.835 632.404 549.827Z" fill="#0F1B1B" fill-opacity="0.07"/>
</g>
<mask id="mask3_123_3444" style="mask-type:luminance" maskUnits="userSpaceOnUse" x="-54" y="0" width="1548" height="715">
<path d="M-54 0H1494V715H-54V0Z" fill="white"/>
</mask>
<g mask="url(#mask3_123_3444)">
<path d="M880.872 55.6981H909.17C910.193 55.6981 911.022 56.379 911.022 57.2195V58.1791C911.022 59.0192 910.193 59.7004 909.17 59.7004H880.872C879.849 59.7004 879.02 59.0192 879.02 58.1791V57.2195C879.02 56.379 879.849 55.6981 880.872 55.6981Z" fill="#EAEAEA" fill-opacity="0.25"/>
<path d="M862.459 63.2582H890.756C891.779 63.2582 892.608 63.9394 892.608 64.7795V65.7391C892.608 66.5796 891.779 67.2605 890.756 67.2605H862.459C861.436 67.2605 860.606 66.5796 860.606 65.7391V64.7795C860.606 63.9394 861.436 63.2582 862.459 63.2582Z" fill="#EAEAEA" fill-opacity="0.25"/>
<path d="M845.399 70.8182H873.696C874.719 70.8182 875.549 71.4994 875.549 72.3396V73.2992C875.549 74.1397 874.719 74.8206 873.696 74.8206H845.399C844.376 74.8206 843.546 74.1397 843.546 73.2992V72.3396C843.546 71.4994 844.376 70.8182 845.399 70.8182Z" fill="#EAEAEA" fill-opacity="0.25"/>
<path d="M899.954 65.2594C899.954 64.1541 901.045 63.2581 902.391 63.2581C903.737 63.2581 904.828 64.1541 904.828 65.2594C904.828 66.3647 903.737 67.2607 902.391 67.2607C901.045 67.2607 899.954 66.3647 899.954 65.2594Z" fill="#EAEAEA" fill-opacity="0.25"/>
<path d="M880.547 72.8195C880.547 71.7142 881.638 70.8181 882.984 70.8181C884.33 70.8181 885.421 71.7142 885.421 72.8195C885.421 73.9247 884.33 74.8208 882.984 74.8208C881.638 74.8208 880.547 73.9247 880.547 72.8195Z" fill="#EAEAEA" fill-opacity="0.25"/>
<path d="M867.737 57.6993C867.737 56.5941 868.828 55.698 870.174 55.698C871.52 55.698 872.611 56.5941 872.611 57.6993C872.611 58.8046 871.52 59.7007 870.174 59.7007C868.828 59.7007 867.737 58.8046 867.737 57.6993Z" fill="#EAEAEA" fill-opacity="0.25"/>
<path d="M848.601 65.2594C848.601 64.1541 849.692 63.2581 851.038 63.2581C852.384 63.2581 853.475 64.1541 853.475 65.2594C853.475 66.3647 852.384 67.2607 851.038 67.2607C849.692 67.2607 848.601 66.3647 848.601 65.2594Z" fill="#EAEAEA" fill-opacity="0.25"/>
<path d="M972.022 627.718H1000.32C1001.34 627.718 1002.17 628.399 1002.17 629.239V630.199C1002.17 631.039 1001.34 631.72 1000.32 631.72H972.022C970.999 631.72 970.169 631.039 970.169 630.199V629.239C970.169 628.399 970.999 627.718 972.022 627.718Z" fill="#EAEAEA" fill-opacity="0.25"/>
<path d="M953.608 635.278H981.905C982.929 635.278 983.758 635.959 983.758 636.799V637.759C983.758 638.599 982.929 639.28 981.905 639.28H953.608C952.585 639.28 951.755 638.599 951.755 637.759V636.799C951.755 635.959 952.585 635.278 953.608 635.278Z" fill="#EAEAEA" fill-opacity="0.25"/>
<path d="M936.548 642.838H964.846C965.869 642.838 966.698 643.519 966.698 644.359V645.319C966.698 646.159 965.869 646.84 964.846 646.84H936.548C935.525 646.84 934.696 646.159 934.696 645.319V644.359C934.696 643.519 935.525 642.838 936.548 642.838Z" fill="#EAEAEA" fill-opacity="0.25"/>
<path d="M991.103 637.279C991.103 636.173 992.194 635.277 993.54 635.277C994.886 635.277 995.977 636.173 995.977 637.279C995.977 638.384 994.886 639.28 993.54 639.28C992.194 639.28 991.103 638.384 991.103 637.279Z" fill="#EAEAEA" fill-opacity="0.25"/>
<path d="M971.697 644.839C971.697 643.734 972.788 642.838 974.134 642.838C975.48 642.838 976.571 643.734 976.571 644.839C976.571 645.944 975.48 646.84 974.134 646.84C972.788 646.84 971.697 645.944 971.697 644.839Z" fill="#EAEAEA" fill-opacity="0.25"/>
<path d="M958.886 629.719C958.886 628.613 959.977 627.717 961.323 627.717C962.669 627.717 963.76 628.613 963.76 629.719C963.76 630.824 962.669 631.72 961.323 631.72C959.977 631.72 958.886 630.824 958.886 629.719Z" fill="#EAEAEA" fill-opacity="0.25"/>
<path d="M939.75 637.279C939.75 636.173 940.842 635.277 942.188 635.277C943.534 635.277 944.625 636.173 944.625 637.279C944.625 638.384 943.534 639.28 942.188 639.28C940.842 639.28 939.75 638.384 939.75 637.279Z" fill="#EAEAEA" fill-opacity="0.25"/>
<path d="M1438.75 148.449H1467.05C1468.07 148.449 1468.9 149.13 1468.9 149.97V150.93C1468.9 151.771 1468.07 152.451 1467.05 152.451H1438.75C1437.73 152.451 1436.9 151.771 1436.9 150.93V149.97C1436.9 149.13 1437.73 148.449 1438.75 148.449Z" fill="#EAEAEA" fill-opacity="0.25"/>
<path d="M1420.34 156.009H1448.64C1449.66 156.009 1450.49 156.69 1450.49 157.53V158.49C1450.49 159.33 1449.66 160.011 1448.64 160.011H1420.34C1419.32 160.011 1418.49 159.331 1418.49 158.49V157.53C1418.49 156.69 1419.32 156.009 1420.34 156.009Z" fill="#EAEAEA" fill-opacity="0.25"/>
<path d="M1403.28 163.569H1431.58C1432.6 163.569 1433.43 164.25 1433.43 165.091V166.05C1433.43 166.891 1432.6 167.572 1431.58 167.572H1403.28C1402.26 167.572 1401.43 166.891 1401.43 166.05V165.091C1401.43 164.25 1402.26 163.569 1403.28 163.569Z" fill="#EAEAEA" fill-opacity="0.25"/>
<path d="M1438.43 165.57C1438.43 164.465 1439.52 163.569 1440.86 163.569C1442.21 163.569 1443.3 164.465 1443.3 165.57C1443.3 166.676 1442.21 167.572 1440.86 167.572C1439.52 167.572 1438.43 166.676 1438.43 165.57Z" fill="#EAEAEA" fill-opacity="0.25"/>
<path d="M1425.62 150.45C1425.62 149.345 1426.71 148.449 1428.05 148.449C1429.4 148.449 1430.49 149.345 1430.49 150.45C1430.49 151.556 1429.4 152.452 1428.05 152.452C1426.71 152.452 1425.62 151.556 1425.62 150.45Z" fill="#EAEAEA" fill-opacity="0.25"/>
<path d="M1406.48 158.01C1406.48 156.905 1407.57 156.009 1408.92 156.009C1410.26 156.009 1411.36 156.905 1411.36 158.01C1411.36 159.116 1410.26 160.012 1408.92 160.012C1407.57 160.012 1406.48 159.116 1406.48 158.01Z" fill="#EAEAEA" fill-opacity="0.25"/>
<path d="M212.694 385.831H240.991C242.015 385.831 242.844 386.513 242.844 387.353V388.312C242.844 389.153 242.015 389.834 240.991 389.834H212.694C211.671 389.834 210.841 389.153 210.841 388.312V387.353C210.841 386.513 211.671 385.831 212.694 385.831Z" fill="#EAEAEA" fill-opacity="0.25"/>
<path d="M194.28 393.391H222.578C223.601 393.391 224.43 394.073 224.43 394.913V395.872C224.43 396.713 223.601 397.394 222.578 397.394H194.28C193.257 397.394 192.427 396.713 192.427 395.872V394.913C192.427 394.073 193.257 393.391 194.28 393.391Z" fill="#EAEAEA" fill-opacity="0.25"/>
<path d="M177.22 400.951H205.518C206.541 400.951 207.37 401.633 207.37 402.473V403.432C207.37 404.273 206.541 404.954 205.518 404.954H177.22C176.197 404.954 175.368 404.273 175.368 403.432V402.473C175.368 401.633 176.197 400.951 177.22 400.951Z" fill="#EAEAEA" fill-opacity="0.25"/>
<path d="M231.775 395.393C231.775 394.287 232.866 393.391 234.212 393.391C235.558 393.391 236.649 394.287 236.649 395.393C236.649 396.498 235.558 397.394 234.212 397.394C232.866 397.394 231.775 396.498 231.775 395.393Z" fill="#EAEAEA" fill-opacity="0.25"/>
<path d="M212.369 402.953C212.369 401.847 213.46 400.951 214.806 400.951C216.152 400.951 217.243 401.847 217.243 402.953C217.243 404.058 216.152 404.954 214.806 404.954C213.46 404.954 212.369 404.058 212.369 402.953Z" fill="#EAEAEA" fill-opacity="0.25"/>
<path d="M199.558 387.833C199.558 386.727 200.65 385.831 201.996 385.831C203.341 385.831 204.433 386.727 204.433 387.833C204.433 388.938 203.341 389.834 201.996 389.834C200.65 389.834 199.558 388.938 199.558 387.833Z" fill="#EAEAEA" fill-opacity="0.25"/>
<path d="M180.423 395.393C180.423 394.287 181.514 393.391 182.86 393.391C184.206 393.391 185.297 394.287 185.297 395.393C185.297 396.498 184.206 397.394 182.86 397.394C181.514 397.394 180.423 396.498 180.423 395.393Z" fill="#EAEAEA" fill-opacity="0.25"/>
</g>
<mask id="mask4_123_3444" style="mask-type:luminance" maskUnits="userSpaceOnUse" x="-54" y="0" width="1548" height="715">
<path d="M-54 0H1494V715H-54V0Z" fill="white"/>
</mask>
<g mask="url(#mask4_123_3444)">
<path d="M272.103 195.215L190.762 242.183L157.06 165.333L238.401 118.365L272.103 195.215ZM155.518 164.232L56.8649 170.597L137.812 123.857L236.465 117.491L155.518 164.232ZM188.896 242.737L89.7563 249.134L56.0547 172.284L155.194 165.887L188.896 242.737ZM239.806 116.772C239.801 116.762 239.794 116.752 239.789 116.742C239.765 116.7 239.739 116.661 239.708 116.625C239.706 116.622 239.706 116.62 239.703 116.618C239.699 116.613 239.695 116.61 239.691 116.605C239.673 116.585 239.656 116.565 239.637 116.546C239.637 116.521 239.641 116.495 239.639 116.469C239.595 116.021 239.118 115.686 238.572 115.721L137.391 122.25C137.359 122.252 137.329 122.259 137.299 122.263C137.275 122.266 137.251 122.269 137.228 122.274C137.194 122.281 137.161 122.29 137.13 122.3C137.097 122.309 137.065 122.319 137.034 122.331C137.012 122.34 136.991 122.35 136.97 122.36C136.943 122.373 136.915 122.383 136.889 122.398L53.8677 170.336C53.4194 170.594 53.3118 171.103 53.6271 171.471C53.646 171.493 53.6694 171.511 53.6908 171.532C53.6904 171.545 53.6928 171.559 53.6932 171.573C53.6936 171.588 53.6903 171.603 53.692 171.619C53.6928 171.627 53.6956 171.634 53.6968 171.641C53.7004 171.671 53.7081 171.7 53.7161 171.729C53.723 171.755 53.7294 171.781 53.7395 171.806C53.7427 171.814 53.7435 171.823 53.7472 171.831L88.1329 250.241C88.1382 250.253 88.1466 250.263 88.1523 250.274C88.3018 250.608 88.7038 250.836 89.1573 250.807L190.338 244.278C190.355 244.277 190.37 244.273 190.386 244.271C190.406 244.269 190.425 244.266 190.445 244.263C190.464 244.26 190.483 244.258 190.502 244.254C190.526 244.249 190.549 244.243 190.572 244.237C190.583 244.234 190.594 244.233 190.605 244.23C190.616 244.227 190.624 244.222 190.634 244.219C190.655 244.212 190.675 244.205 190.695 244.197C190.711 244.19 190.725 244.184 190.74 244.177C190.766 244.166 190.791 244.154 190.815 244.141C190.823 244.137 190.832 244.135 190.84 244.13L273.861 196.192C274.223 195.983 274.358 195.613 274.234 195.284C274.227 195.263 274.223 195.241 274.214 195.219L239.828 116.809C239.822 116.796 239.813 116.785 239.806 116.772Z" fill="#0F1B1B" fill-opacity="0.07"/>
<path d="M132.683 213.148L101.155 199.914C100.244 199.532 99.8835 198.615 100.349 197.867C100.815 197.119 101.931 196.823 102.842 197.205L134.37 210.439C135.281 210.821 135.642 211.738 135.176 212.486C134.711 213.234 133.594 213.53 132.683 213.148Z" fill="#D9D9D9" fill-opacity="0.25"/>
<path d="M129.123 218.867L97.5951 205.633C96.684 205.251 96.3232 204.335 96.7889 203.587C97.2545 202.838 98.3707 202.542 99.2818 202.924L130.81 216.158C131.721 216.54 132.082 217.457 131.616 218.205C131.15 218.953 130.034 219.249 129.123 218.867Z" fill="#D9D9D9" fill-opacity="0.25"/>
<path d="M125.563 224.586L94.0348 211.353C93.1237 210.97 92.7629 210.054 93.2286 209.306C93.6942 208.558 94.8104 208.261 95.7215 208.644L127.249 221.877C128.161 222.259 128.521 223.176 128.056 223.924C127.59 224.672 126.474 224.968 125.563 224.586Z" fill="#D9D9D9" fill-opacity="0.25"/>
<path d="M122.002 230.306L90.4743 217.072C89.5632 216.69 89.2024 215.773 89.668 215.025C90.1336 214.277 91.2499 213.981 92.1609 214.363L123.689 227.596C124.6 227.979 124.961 228.895 124.495 229.643C124.03 230.392 122.913 230.688 122.002 230.306Z" fill="#D9D9D9" fill-opacity="0.25"/>
<path d="M118.442 236.025L86.914 222.791C86.0029 222.409 85.6421 221.493 86.1077 220.745C86.5733 219.997 87.6896 219.7 88.6006 220.082L120.129 233.316C121.04 233.698 121.4 234.615 120.935 235.363C120.469 236.111 119.353 236.407 118.442 236.025Z" fill="#D9D9D9" fill-opacity="0.25"/>
<path d="M114.882 241.744L83.3536 228.511C82.4426 228.128 82.0818 227.212 82.5474 226.464C83.013 225.716 84.1293 225.419 85.0403 225.802L116.568 239.035C117.479 239.417 117.84 240.334 117.375 241.082C116.909 241.83 115.793 242.126 114.882 241.744Z" fill="#D9D9D9" fill-opacity="0.25"/>
<path d="M111.321 247.463L79.7933 234.23C78.8823 233.848 78.5215 232.931 78.9871 232.183C79.4527 231.435 80.569 231.139 81.48 231.521L113.008 244.754C113.919 245.137 114.28 246.053 113.814 246.801C113.349 247.549 112.232 247.846 111.321 247.463Z" fill="#D9D9D9" fill-opacity="0.25"/>
<path d="M107.761 253.183L76.233 239.949C75.322 239.567 74.9612 238.65 75.4268 237.902C75.8924 237.154 77.0087 236.858 77.9197 237.24L109.448 250.474C110.359 250.856 110.72 251.772 110.254 252.521C109.788 253.269 108.672 253.565 107.761 253.183Z" fill="#D9D9D9" fill-opacity="0.25"/>
<path d="M104.201 258.902L72.6725 245.668C71.7614 245.286 71.4006 244.37 71.8662 243.621C72.3319 242.873 73.4481 242.577 74.3592 242.959L105.887 256.193C106.798 256.575 107.159 257.492 106.693 258.24C106.228 258.988 105.112 259.284 104.201 258.902Z" fill="#D9D9D9" fill-opacity="0.25"/>
<path d="M100.64 264.621L69.1122 251.388C68.2011 251.006 67.8403 250.089 68.3059 249.341C68.7716 248.593 69.8878 248.296 70.7989 248.679L102.327 261.912C103.238 262.295 103.599 263.211 103.133 263.959C102.668 264.707 101.551 265.004 100.64 264.621Z" fill="#D9D9D9" fill-opacity="0.25"/>
<path d="M97.0799 270.341L65.5519 257.107C64.6408 256.725 64.28 255.808 64.7456 255.06C65.2112 254.312 66.3275 254.016 67.2386 254.398L98.7666 267.631C99.6776 268.014 100.038 268.93 99.5728 269.679C99.1072 270.427 97.991 270.723 97.0799 270.341Z" fill="#D9D9D9" fill-opacity="0.25"/>
<path d="M75.346 113.272L88.6914 126.182C89.3533 126.822 89.2578 127.782 88.4778 128.326C87.6977 128.87 86.5286 128.791 85.8663 128.151L72.5213 115.241C71.8589 114.6 71.9545 113.64 72.7345 113.096C73.5146 112.553 74.6836 112.631 75.346 113.272Z" fill="#D9D9D9" fill-opacity="0.25"/>
<path d="M60.9519 108.228L74.2974 121.138C74.9593 121.779 74.8638 122.739 74.0837 123.282C73.3037 123.826 72.1346 123.747 71.4723 123.107L58.1272 110.197C57.4649 109.556 57.5604 108.596 58.3405 108.053C59.1205 107.509 60.2896 107.587 60.9519 108.228Z" fill="#D9D9D9" fill-opacity="0.25"/>
<path d="M47.2236 103.829L60.5691 116.739C61.231 117.379 61.1355 118.339 60.3554 118.883C59.5754 119.427 58.4063 119.348 57.744 118.708L44.3989 105.797C43.7366 105.157 43.8322 104.197 44.6122 103.653C45.3922 103.11 46.5613 103.188 47.2236 103.829Z" fill="#D9D9D9" fill-opacity="0.25"/>
<path d="M77.697 126.778C78.477 126.234 79.6461 126.313 80.3084 126.953C80.9704 127.594 80.8748 128.554 80.0948 129.097C79.3147 129.641 78.1457 129.563 77.4833 128.922C76.8214 128.282 76.9169 127.321 77.697 126.778Z" fill="#D9D9D9" fill-opacity="0.25"/>
<path d="M62.8142 121.262C63.5942 120.718 64.7633 120.796 65.4256 121.437C66.0875 122.077 65.992 123.037 65.212 123.581C64.4319 124.125 63.2629 124.046 62.6005 123.406C61.9386 122.765 62.0341 121.805 62.8142 121.262Z" fill="#D9D9D9" fill-opacity="0.25"/>
<path d="M67.1843 107.727C67.9643 107.184 69.1334 107.262 69.7957 107.903C70.4577 108.543 70.3621 109.503 69.5821 110.047C68.802 110.59 67.633 110.512 66.9706 109.871C66.3087 109.231 66.4042 108.271 67.1843 107.727Z" fill="#D9D9D9" fill-opacity="0.25"/>
<path d="M52.4348 102.34C53.2148 101.796 54.3839 101.875 55.0462 102.515C55.7082 103.156 55.6126 104.116 54.8326 104.659C54.0525 105.203 52.8835 105.124 52.2211 104.484C51.5592 103.843 51.6547 102.883 52.4348 102.34Z" fill="#D9D9D9" fill-opacity="0.25"/>
<path d="M314.512 177.826L312.206 200.985C312.123 201.822 311.229 202.445 310.209 202.377L309.044 202.299C308.024 202.23 307.265 201.496 307.348 200.659L309.654 177.5C309.738 176.663 310.632 176.039 311.652 176.108L312.817 176.186C313.837 176.255 314.596 176.989 314.512 177.826Z" fill="#8E8790" fill-opacity="0.12"/>
<path d="M306.837 162.14L304.531 185.299C304.447 186.136 303.553 186.76 302.533 186.691L301.368 186.613C300.348 186.544 299.589 185.81 299.673 184.973L301.979 161.814C302.062 160.977 302.956 160.354 303.976 160.422L305.141 160.5C306.161 160.569 306.92 161.303 306.837 162.14Z" fill="#8E8790" fill-opacity="0.12"/>
<path d="M299.051 147.563L296.745 170.721C296.661 171.558 295.767 172.182 294.747 172.113L293.582 172.035C292.562 171.967 291.803 171.232 291.887 170.395L294.193 147.237C294.276 146.399 295.17 145.776 296.19 145.844L297.355 145.922C298.375 145.991 299.134 146.725 299.051 147.563Z" fill="#8E8790" fill-opacity="0.12"/>
<path d="M301.352 192.663C302.693 192.753 303.692 193.719 303.582 194.821C303.473 195.922 302.296 196.742 300.955 196.652C299.613 196.562 298.615 195.596 298.724 194.495C298.834 193.393 300.01 192.573 301.352 192.663Z" fill="#8E8790" fill-opacity="0.12"/>
<path d="M293.757 176.165C295.099 176.255 296.098 177.221 295.988 178.322C295.878 179.424 294.702 180.244 293.36 180.154C292.019 180.064 291.02 179.098 291.13 177.996C291.239 176.895 292.416 176.075 293.757 176.165Z" fill="#8E8790" fill-opacity="0.12"/>
<path d="M313.154 166.913C314.495 167.003 315.494 167.969 315.384 169.071C315.275 170.172 314.098 170.992 312.757 170.902C311.415 170.812 310.417 169.846 310.526 168.745C310.636 167.643 311.812 166.823 313.154 166.913Z" fill="#8E8790" fill-opacity="0.12"/>
<path d="M305.537 150.636C306.879 150.726 307.877 151.692 307.768 152.794C307.658 153.895 306.481 154.715 305.14 154.625C303.798 154.535 302.8 153.569 302.91 152.468C303.019 151.366 304.196 150.546 305.537 150.636Z" fill="#8E8790" fill-opacity="0.12"/>
<path d="M188.668 81.0743C192.153 84.689 191.41 89.939 187.008 92.8006C182.606 95.6626 176.212 95.0522 172.727 91.4375C169.242 87.8231 169.985 82.5728 174.387 79.7112C178.789 76.8495 185.183 77.4596 188.668 81.0743Z" fill="#D9D9D9" fill-opacity="0.25"/>
<path d="M287.09 231.492L285.233 230.365C281.218 227.928 275.558 228.625 272.589 231.921L253.815 252.773C250.847 256.07 251.696 260.718 255.711 263.155L281.105 278.571C285.12 281.009 290.78 280.312 293.748 277.015L295.121 275.49C297.113 273.278 300.911 272.811 303.605 274.446L305.462 275.574C309.477 278.011 315.137 277.314 318.105 274.017L336.879 253.165C339.848 249.869 338.999 245.22 334.984 242.783L309.59 227.367C305.575 224.93 299.914 225.627 296.947 228.923L295.574 230.448C293.582 232.66 289.784 233.128 287.09 231.492Z" stroke="#0F1B1B" stroke-opacity="0.07" stroke-width="2" stroke-miterlimit="10"/>
<path d="M276.292 247.536L266.155 258.795C264.683 260.43 261.875 260.776 259.884 259.567L246.173 251.243C244.181 250.034 243.76 247.729 245.232 246.094L255.369 234.835C256.841 233.2 259.649 232.854 261.64 234.063L275.351 242.387C277.343 243.596 277.764 245.901 276.292 247.536Z" fill="#D9D9D9" fill-opacity="0.25"/>
<path d="M779.299 341.53L697.958 388.497L664.256 311.647L745.597 264.68L779.299 341.53ZM662.714 310.546L564.061 316.912L645.008 270.171L743.661 263.806L662.714 310.546ZM696.092 389.051L596.952 395.448L563.251 318.598L662.39 312.201L696.092 389.051ZM747.002 263.086C746.997 263.076 746.99 263.066 746.984 263.056C746.961 263.015 746.935 262.975 746.904 262.939C746.902 262.937 746.901 262.934 746.899 262.932C746.895 262.927 746.89 262.924 746.886 262.919C746.869 262.9 746.852 262.879 746.832 262.861C746.833 262.835 746.837 262.81 746.834 262.784C746.791 262.335 746.314 262 745.767 262.036L644.587 268.564C644.555 268.566 644.525 268.573 644.495 268.578C644.471 268.581 644.447 268.584 644.423 268.588C644.39 268.595 644.357 268.604 644.325 268.614C644.293 268.624 644.261 268.633 644.23 268.645C644.208 268.654 644.187 268.665 644.166 268.675C644.139 268.687 644.111 268.697 644.085 268.712L561.064 316.65C560.615 316.909 560.508 317.417 560.823 317.785C560.842 317.808 560.865 317.825 560.887 317.846C560.886 317.86 560.889 317.874 560.889 317.888C560.889 317.903 560.886 317.918 560.888 317.933C560.888 317.941 560.891 317.948 560.893 317.956C560.896 317.985 560.904 318.014 560.912 318.043C560.919 318.069 560.925 318.095 560.935 318.12C560.939 318.129 560.939 318.137 560.943 318.145L595.329 396.556C595.334 396.567 595.343 396.577 595.348 396.588C595.497 396.923 595.9 397.15 596.353 397.121L697.534 390.593C697.55 390.592 697.565 390.587 697.582 390.586C697.601 390.584 697.621 390.58 697.641 390.577C697.66 390.575 697.679 390.572 697.698 390.568C697.722 390.563 697.745 390.558 697.768 390.551C697.779 390.549 697.79 390.548 697.801 390.545C697.811 390.542 697.82 390.537 697.83 390.533C697.851 390.526 697.871 390.519 697.891 390.511C697.906 390.505 697.921 390.498 697.936 390.491C697.962 390.48 697.987 390.469 698.011 390.456C698.019 390.451 698.028 390.449 698.036 390.444L781.057 342.506C781.419 342.298 781.554 341.928 781.429 341.599C781.422 341.577 781.419 341.555 781.41 341.534L747.024 263.124C747.018 263.11 747.009 263.099 747.002 263.086Z" fill="#0F1B1B" fill-opacity="0.07"/>
<path d="M688.976 466.132L701.768 460.806L708.255 471.31L688.976 466.132ZM716.423 451.119L703.631 456.446L697.145 445.942L716.423 451.119ZM713.686 474.369C713.715 474.297 713.729 474.224 713.745 474.152C713.75 474.127 713.761 474.102 713.764 474.077C713.771 474.03 713.767 473.984 713.769 473.938C713.771 473.883 713.777 473.829 713.772 473.774C713.77 473.748 713.76 473.724 713.756 473.698C713.73 473.53 713.676 473.362 713.578 473.203L704.988 459.292L721.859 452.267C722.402 452.122 722.857 451.777 723.048 451.298C723.366 450.499 722.835 449.64 721.863 449.379L694.05 441.909C693.078 441.648 692.031 442.084 691.713 442.883C691.684 442.954 691.67 443.027 691.655 443.1C691.65 443.125 691.639 443.149 691.635 443.175C691.628 443.221 691.632 443.267 691.63 443.314C691.628 443.368 691.622 443.422 691.627 443.477C691.63 443.503 691.639 443.528 691.643 443.553C691.669 443.722 691.723 443.889 691.821 444.049L700.412 457.959L683.54 464.984C682.998 465.13 682.543 465.474 682.352 465.954C682.034 466.752 682.564 467.611 683.536 467.872L711.35 475.342C712.322 475.603 713.368 475.168 713.686 474.369Z" fill="#D9D9D9" fill-opacity="0.25"/>
<path d="M639.879 359.462L608.351 346.229C607.44 345.846 607.079 344.93 607.545 344.182C608.01 343.434 609.127 343.137 610.038 343.52L641.565 356.753C642.476 357.136 642.837 358.052 642.372 358.8C641.906 359.548 640.79 359.845 639.879 359.462Z" fill="#D9D9D9" fill-opacity="0.25"/>
<path d="M636.319 365.181L604.791 351.948C603.88 351.566 603.519 350.649 603.984 349.901C604.45 349.153 605.566 348.857 606.477 349.239L638.005 362.472C638.916 362.855 639.277 363.771 638.812 364.519C638.346 365.268 637.23 365.564 636.319 365.181Z" fill="#D9D9D9" fill-opacity="0.25"/>
<path d="M632.758 370.901L601.23 357.667C600.319 357.285 599.958 356.368 600.424 355.62C600.89 354.872 602.006 354.576 602.917 354.958L634.445 368.192C635.356 368.574 635.717 369.491 635.251 370.239C634.786 370.987 633.669 371.283 632.758 370.901Z" fill="#D9D9D9" fill-opacity="0.25"/>
<path d="M629.198 376.62L597.67 363.387C596.759 363.004 596.398 362.088 596.864 361.34C597.329 360.592 598.445 360.295 599.356 360.678L630.884 373.911C631.796 374.293 632.156 375.21 631.691 375.958C631.225 376.706 630.109 377.002 629.198 376.62Z" fill="#D9D9D9" fill-opacity="0.25"/>
<path d="M625.638 382.339L594.11 369.106C593.199 368.724 592.838 367.807 593.304 367.059C593.769 366.311 594.885 366.014 595.796 366.397L627.324 379.63C628.235 380.013 628.596 380.929 628.131 381.677C627.665 382.425 626.549 382.722 625.638 382.339Z" fill="#D9D9D9" fill-opacity="0.25"/>
<path d="M622.077 388.059L590.549 374.825C589.638 374.443 589.277 373.526 589.743 372.778C590.209 372.03 591.325 371.734 592.236 372.116L623.763 385.35C624.675 385.732 625.036 386.648 624.57 387.397C624.105 388.145 622.988 388.441 622.077 388.059Z" fill="#D9D9D9" fill-opacity="0.25"/>
<path d="M618.517 393.778L586.989 380.544C586.078 380.162 585.717 379.246 586.183 378.497C586.649 377.749 587.765 377.453 588.676 377.835L620.204 391.069C621.115 391.451 621.476 392.368 621.01 393.116C620.544 393.864 619.428 394.16 618.517 393.778Z" fill="#D9D9D9" fill-opacity="0.25"/>
<path d="M614.957 399.497L583.429 386.264C582.518 385.881 582.157 384.965 582.622 384.217C583.088 383.469 584.204 383.172 585.115 383.555L616.643 396.788C617.554 397.17 617.915 398.087 617.45 398.835C616.984 399.583 615.868 399.879 614.957 399.497Z" fill="#D9D9D9" fill-opacity="0.25"/>
<path d="M611.396 405.217L579.868 391.983C578.957 391.601 578.596 390.684 579.062 389.936C579.528 389.188 580.644 388.892 581.555 389.274L613.083 402.507C613.994 402.89 614.355 403.806 613.889 404.554C613.424 405.303 612.307 405.599 611.396 405.217Z" fill="#D9D9D9" fill-opacity="0.25"/>
<path d="M607.836 410.936L576.308 397.702C575.397 397.32 575.036 396.403 575.502 395.655C575.967 394.907 577.084 394.611 577.995 394.993L609.522 408.227C610.433 408.609 610.795 409.526 610.329 410.274C609.863 411.022 608.747 411.318 607.836 410.936Z" fill="#D9D9D9" fill-opacity="0.25"/>
<path d="M604.275 416.655L572.747 403.422C571.836 403.039 571.476 402.123 571.941 401.375C572.407 400.626 573.523 400.33 574.434 400.712L605.962 413.946C606.873 414.328 607.234 415.245 606.768 415.993C606.303 416.741 605.187 417.037 604.275 416.655Z" fill="#D9D9D9" fill-opacity="0.25"/>
<path d="M582.542 259.586L595.887 272.496C596.549 273.137 596.454 274.097 595.674 274.641C594.894 275.184 593.724 275.106 593.062 274.465L579.717 261.555C579.055 260.915 579.15 259.955 579.93 259.411C580.71 258.867 581.88 258.946 582.542 259.586Z" fill="#D9D9D9" fill-opacity="0.25"/>
<path d="M568.147 254.542L581.493 267.453C582.155 268.093 582.059 269.053 581.279 269.597C580.499 270.14 579.33 270.062 578.668 269.421L565.323 256.511C564.66 255.871 564.756 254.911 565.536 254.367C566.316 253.823 567.486 253.902 568.147 254.542Z" fill="#D9D9D9" fill-opacity="0.25"/>
<path d="M554.419 250.143L567.765 263.053C568.427 263.694 568.331 264.653 567.551 265.197C566.771 265.741 565.602 265.662 564.94 265.022L551.595 252.112C550.932 251.471 551.028 250.511 551.808 249.967C552.588 249.424 553.758 249.502 554.419 250.143Z" fill="#D9D9D9" fill-opacity="0.25"/>
<path d="M584.893 273.092C585.673 272.549 586.842 272.627 587.504 273.268C588.166 273.908 588.071 274.868 587.291 275.412C586.511 275.956 585.341 275.877 584.679 275.237C584.017 274.596 584.113 273.636 584.893 273.092Z" fill="#D9D9D9" fill-opacity="0.25"/>
<path d="M570.01 267.576C570.79 267.032 571.959 267.111 572.621 267.751C573.283 268.392 573.188 269.352 572.408 269.895C571.628 270.439 570.459 270.361 569.796 269.72C569.134 269.08 569.23 268.119 570.01 267.576Z" fill="#D9D9D9" fill-opacity="0.25"/>
<path d="M574.38 254.042C575.16 253.498 576.329 253.576 576.991 254.217C577.653 254.858 577.558 255.817 576.778 256.361C575.998 256.905 574.829 256.826 574.166 256.186C573.504 255.545 573.6 254.585 574.38 254.042Z" fill="#D9D9D9" fill-opacity="0.25"/>
<path d="M559.63 248.654C560.41 248.11 561.579 248.189 562.242 248.83C562.904 249.47 562.808 250.43 562.028 250.974C561.248 251.517 560.079 251.439 559.417 250.798C558.755 250.158 558.85 249.198 559.63 248.654Z" fill="#D9D9D9" fill-opacity="0.25"/>
<path d="M821.708 324.141L819.402 347.299C819.318 348.137 818.424 348.76 817.404 348.692L816.239 348.613C815.22 348.545 814.46 347.81 814.544 346.973L816.85 323.815C816.933 322.977 817.828 322.354 818.847 322.423L820.012 322.501C821.032 322.569 821.791 323.303 821.708 324.141Z" fill="#D9D9D9" fill-opacity="0.25"/>
<path d="M814.032 308.455L811.726 331.613C811.643 332.451 810.749 333.074 809.729 333.005L808.564 332.927C807.544 332.859 806.785 332.124 806.868 331.287L809.174 308.129C809.258 307.291 810.152 306.668 811.172 306.737L812.337 306.815C813.357 306.883 814.116 307.617 814.032 308.455Z" fill="#D9D9D9" fill-opacity="0.25"/>
<path d="M806.247 293.877L803.941 317.035C803.857 317.873 802.963 318.496 801.943 318.428L800.778 318.35C799.758 318.281 798.999 317.547 799.082 316.709L801.389 293.551C801.472 292.714 802.366 292.09 803.386 292.159L804.551 292.237C805.571 292.305 806.33 293.04 806.247 293.877Z" fill="#D9D9D9" fill-opacity="0.25"/>
<path d="M808.548 338.978C809.889 339.068 810.888 340.034 810.778 341.135C810.668 342.237 809.492 343.057 808.15 342.967C806.809 342.877 805.81 341.911 805.92 340.809C806.03 339.708 807.206 338.888 808.548 338.978Z" fill="#D9D9D9" fill-opacity="0.25"/>
<path d="M800.953 322.479C802.295 322.569 803.293 323.535 803.183 324.637C803.073 325.738 801.897 326.558 800.555 326.468C799.214 326.378 798.216 325.412 798.325 324.311C798.435 323.209 799.611 322.389 800.953 322.479Z" fill="#D9D9D9" fill-opacity="0.25"/>
<path d="M820.35 313.228C821.691 313.318 822.69 314.283 822.58 315.385C822.47 316.487 821.294 317.307 819.952 317.217C818.611 317.127 817.612 316.161 817.722 315.059C817.832 313.957 819.008 313.137 820.35 313.228Z" fill="#D9D9D9" fill-opacity="0.25"/>
<path d="M812.733 296.951C814.075 297.041 815.073 298.007 814.963 299.108C814.854 300.21 813.677 301.03 812.336 300.94C810.994 300.85 809.996 299.883 810.105 298.782C810.215 297.681 811.391 296.861 812.733 296.951Z" fill="#D9D9D9" fill-opacity="0.25"/>
<path d="M695.864 227.389C699.349 231.003 698.606 236.253 694.203 239.115C689.801 241.977 683.408 241.367 679.923 237.752C676.437 234.138 677.181 228.887 681.583 226.026C685.985 223.164 692.379 223.774 695.864 227.389Z" fill="#D9D9D9" fill-opacity="0.25"/>
<path d="M794.286 377.807L792.429 376.679C788.414 374.242 782.753 374.939 779.786 378.236L761.011 399.088C758.043 402.384 758.892 407.033 762.906 409.47L788.301 424.886C792.316 427.323 797.976 426.626 800.944 423.33L802.317 421.805C804.309 419.593 808.107 419.125 810.8 420.761L812.658 421.888C816.672 424.325 822.333 423.628 825.301 420.332L844.075 399.48C847.043 396.183 846.195 391.535 842.18 389.098L816.786 373.682C812.771 371.244 807.11 371.941 804.142 375.238L802.769 376.763C800.778 378.975 796.98 379.442 794.286 377.807Z" stroke="#0F1B1B" stroke-opacity="0.07" stroke-width="4" stroke-miterlimit="10"/>
<path d="M783.488 393.851L773.351 405.109C771.879 406.745 769.071 407.09 767.08 405.881L753.369 397.558C751.377 396.349 750.956 394.043 752.428 392.408L762.565 381.15C764.037 379.514 766.845 379.169 768.836 380.378L782.548 388.701C784.539 389.91 784.96 392.216 783.488 393.851Z" fill="#D9D9D9" fill-opacity="0.25"/>
<path d="M234.937 613.769L203.409 600.536C202.498 600.154 202.137 599.237 202.603 598.489C203.069 597.741 204.185 597.444 205.096 597.827L236.624 611.06C237.535 611.443 237.896 612.359 237.43 613.107C236.965 613.855 235.848 614.152 234.937 613.769Z" fill="#DADADA" fill-opacity="0.25"/>
<path d="M231.377 619.489L199.849 606.255C198.938 605.873 198.577 604.956 199.043 604.208C199.508 603.46 200.625 603.164 201.536 603.546L233.064 616.78C233.975 617.162 234.336 618.078 233.87 618.827C233.404 619.575 232.288 619.871 231.377 619.489Z" fill="#DADADA" fill-opacity="0.25"/>
<path d="M227.817 625.208L196.289 611.974C195.378 611.592 195.017 610.675 195.482 609.927C195.948 609.179 197.064 608.883 197.975 609.265L229.503 622.499C230.414 622.881 230.775 623.798 230.31 624.546C229.844 625.294 228.728 625.59 227.817 625.208Z" fill="#DADADA" fill-opacity="0.25"/>
<path d="M224.256 630.927L192.728 617.694C191.817 617.311 191.457 616.395 191.922 615.647C192.388 614.899 193.504 614.602 194.415 614.985L225.943 628.218C226.854 628.6 227.215 629.517 226.749 630.265C226.284 631.013 225.167 631.309 224.256 630.927Z" fill="#DADADA" fill-opacity="0.25"/>
<path d="M220.696 636.646L189.168 623.413C188.257 623.031 187.896 622.114 188.362 621.366C188.827 620.618 189.944 620.322 190.855 620.704L222.382 633.937C223.293 634.32 223.655 635.236 223.189 635.984C222.723 636.733 221.607 637.029 220.696 636.646Z" fill="#DADADA" fill-opacity="0.25"/>
<path d="M217.136 642.366L185.608 629.132C184.696 628.75 184.336 627.833 184.801 627.085C185.267 626.337 186.383 626.041 187.294 626.423L218.822 639.657C219.733 640.039 220.094 640.956 219.628 641.704C219.163 642.452 218.047 642.748 217.136 642.366Z" fill="#DADADA" fill-opacity="0.25"/>
<path d="M213.575 648.085L182.047 634.852C181.136 634.469 180.775 633.553 181.241 632.805C181.707 632.056 182.823 631.76 183.734 632.143L215.262 645.376C216.173 645.758 216.534 646.675 216.068 647.423C215.603 648.171 214.486 648.467 213.575 648.085Z" fill="#DADADA" fill-opacity="0.25"/>
<path d="M210.015 653.804L178.487 640.571C177.576 640.189 177.215 639.272 177.681 638.524C178.146 637.776 179.263 637.479 180.174 637.862L211.702 651.095C212.613 651.478 212.973 652.394 212.508 653.142C212.042 653.89 210.926 654.187 210.015 653.804Z" fill="#DADADA" fill-opacity="0.25"/>
<path d="M206.455 659.524L174.927 646.29C174.016 645.908 173.655 644.991 174.12 644.243C174.586 643.495 175.702 643.199 176.613 643.581L208.141 656.814C209.052 657.197 209.413 658.113 208.948 658.861C208.482 659.61 207.366 659.906 206.455 659.524Z" fill="#DADADA" fill-opacity="0.25"/>
<path d="M202.894 665.243L171.366 652.009C170.455 651.627 170.094 650.71 170.56 649.962C171.026 649.214 172.142 648.918 173.053 649.3L204.581 662.534C205.492 662.916 205.853 663.833 205.387 664.581C204.922 665.329 203.805 665.625 202.894 665.243Z" fill="#DADADA" fill-opacity="0.25"/>
<path d="M199.334 670.962L167.806 657.729C166.895 657.346 166.534 656.43 167 655.682C167.465 654.934 168.581 654.637 169.492 655.02L201.02 668.253C201.932 668.635 202.292 669.552 201.827 670.3C201.361 671.048 200.245 671.344 199.334 670.962Z" fill="#DADADA" fill-opacity="0.25"/>
<path d="M177.6 513.893L190.946 526.803C191.607 527.444 191.512 528.404 190.732 528.948C189.952 529.491 188.783 529.413 188.12 528.772L174.775 515.862C174.113 515.222 174.209 514.262 174.989 513.718C175.769 513.174 176.938 513.253 177.6 513.893Z" fill="#8E8790" fill-opacity="0.12"/>
<path d="M163.206 508.85L176.551 521.76C177.213 522.4 177.118 523.36 176.338 523.904C175.558 524.448 174.389 524.369 173.726 523.729L160.381 510.818C159.719 510.178 159.814 509.218 160.594 508.674C161.374 508.131 162.543 508.209 163.206 508.85Z" fill="#8E8790" fill-opacity="0.12"/>
<path d="M149.478 504.45L162.823 517.36C163.485 518.001 163.389 518.96 162.609 519.504C161.829 520.048 160.66 519.969 159.998 519.329L146.653 506.419C145.991 505.778 146.086 504.818 146.866 504.274C147.646 503.731 148.815 503.809 149.478 504.45Z" fill="#8E8790" fill-opacity="0.12"/>
<path d="M179.951 527.399C180.731 526.855 181.9 526.934 182.562 527.575C183.224 528.215 183.129 529.175 182.349 529.719C181.569 530.263 180.4 530.184 179.737 529.544C179.075 528.903 179.171 527.943 179.951 527.399Z" fill="#8E8790" fill-opacity="0.12"/>
<path d="M165.068 521.883C165.848 521.339 167.017 521.418 167.68 522.058C168.342 522.699 168.246 523.659 167.466 524.202C166.686 524.746 165.517 524.668 164.855 524.027C164.193 523.387 164.288 522.427 165.068 521.883Z" fill="#8E8790" fill-opacity="0.12"/>
<path d="M169.438 508.349C170.218 507.805 171.387 507.884 172.05 508.524C172.712 509.165 172.616 510.125 171.836 510.668C171.056 511.212 169.887 511.134 169.225 510.493C168.563 509.852 168.658 508.893 169.438 508.349Z" fill="#8E8790" fill-opacity="0.12"/>
<path d="M154.689 502.961C155.469 502.417 156.638 502.496 157.3 503.137C157.962 503.777 157.867 504.737 157.086 505.281C156.306 505.824 155.137 505.746 154.475 505.105C153.813 504.465 153.909 503.505 154.689 502.961Z" fill="#8E8790" fill-opacity="0.12"/>
<path d="M416.766 578.448L414.46 601.606C414.377 602.444 413.482 603.067 412.463 602.999L411.298 602.921C410.278 602.852 409.519 602.117 409.602 601.28L411.908 578.122C411.992 577.284 412.886 576.661 413.906 576.73L415.071 576.808C416.091 576.876 416.85 577.611 416.766 578.448Z" fill="#D9D9D9" fill-opacity="0.25"/>
<path d="M409.091 562.762L406.784 585.92C406.701 586.758 405.807 587.381 404.787 587.313L403.622 587.234C402.602 587.166 401.843 586.431 401.926 585.594L404.233 562.436C404.316 561.598 405.21 560.975 406.23 561.044L407.395 561.122C408.415 561.19 409.174 561.924 409.091 562.762Z" fill="#D9D9D9" fill-opacity="0.25"/>
<path d="M401.305 548.184L398.999 571.342C398.915 572.18 398.021 572.803 397.001 572.735L395.836 572.657C394.816 572.588 394.057 571.854 394.141 571.016L396.447 547.858C396.53 547.021 397.424 546.397 398.444 546.466L399.609 546.544C400.629 546.612 401.388 547.347 401.305 548.184Z" fill="#D9D9D9" fill-opacity="0.25"/>
<path d="M403.606 593.285C404.947 593.375 405.946 594.341 405.836 595.442C405.727 596.544 404.55 597.364 403.209 597.274C401.867 597.184 400.869 596.218 400.978 595.116C401.088 594.015 402.264 593.195 403.606 593.285Z" fill="#D9D9D9" fill-opacity="0.25"/>
<path d="M396.011 576.786C397.353 576.876 398.351 577.842 398.242 578.944C398.132 580.045 396.955 580.865 395.614 580.775C394.273 580.685 393.274 579.719 393.384 578.618C393.493 577.516 394.67 576.696 396.011 576.786Z" fill="#D9D9D9" fill-opacity="0.25"/>
<path d="M415.408 567.535C416.749 567.625 417.748 568.591 417.638 569.692C417.529 570.794 416.352 571.614 415.011 571.524C413.669 571.434 412.671 570.468 412.78 569.366C412.89 568.265 414.066 567.445 415.408 567.535Z" fill="#D9D9D9" fill-opacity="0.25"/>
<path d="M407.791 551.258C409.133 551.348 410.131 552.314 410.022 553.415C409.912 554.517 408.735 555.337 407.394 555.247C406.052 555.157 405.054 554.191 405.164 553.089C405.273 551.988 406.449 551.168 407.791 551.258Z" fill="#D9D9D9" fill-opacity="0.25"/>
<path d="M290.922 481.696C294.407 485.311 293.664 490.561 289.262 493.422C284.859 496.284 278.466 495.674 274.981 492.059C271.495 488.445 272.239 483.194 276.641 480.333C281.043 477.471 287.437 478.081 290.922 481.696Z" fill="#D9D9D9" fill-opacity="0.25"/>
<path d="M450.773 615.3L448.915 614.173C444.901 611.736 439.24 612.433 436.272 615.729L417.498 636.581C414.53 639.878 415.378 644.526 419.393 646.963L444.787 662.379C448.802 664.817 454.463 664.12 457.431 660.823L458.804 659.298C460.795 657.086 464.593 656.619 467.287 658.254L469.144 659.382C473.159 661.819 478.82 661.122 481.788 657.825L500.562 636.973C503.53 633.677 502.681 629.028 498.667 626.591L473.272 611.175C469.257 608.738 463.597 609.435 460.629 612.731L459.256 614.256C457.264 616.468 453.466 616.936 450.773 615.3Z" stroke="#0F1B1B" stroke-opacity="0.07" stroke-width="2" stroke-miterlimit="10"/>
<path d="M706.725 169.739L704.868 168.612C700.853 166.174 695.192 166.871 692.224 170.168L673.45 191.02C670.482 194.317 671.331 198.965 675.345 201.402L700.74 216.818C704.754 219.255 710.415 218.558 713.383 215.262L714.756 213.737C716.747 211.525 720.546 211.057 723.239 212.693L725.097 213.82C729.111 216.257 734.772 215.561 737.74 212.264L756.514 191.412C759.482 188.115 758.634 183.467 754.619 181.03L729.225 165.614C725.21 163.177 719.549 163.873 716.581 167.17L715.208 168.695C713.217 170.907 709.419 171.374 706.725 169.739Z" stroke="#0F1B1B" stroke-opacity="0.07" stroke-width="2" stroke-miterlimit="10"/>
<path d="M378.546 648.158L368.409 659.417C366.937 661.052 364.129 661.397 362.138 660.188L348.427 651.865C346.435 650.656 346.014 648.35 347.487 646.715L357.623 635.457C359.095 633.822 361.903 633.476 363.895 634.685L377.606 643.008C379.597 644.217 380.018 646.523 378.546 648.158Z" fill="#D9D9D9" fill-opacity="0.25"/>
<path d="M1168.64 254.45L1181.43 249.124L1187.92 259.628L1168.64 254.45ZM1196.09 239.437L1183.3 244.764L1176.81 234.26L1196.09 239.437ZM1193.35 262.687C1193.38 262.615 1193.4 262.542 1193.41 262.47C1193.42 262.445 1193.43 262.421 1193.43 262.395C1193.44 262.348 1193.43 262.302 1193.44 262.256C1193.44 262.202 1193.44 262.147 1193.44 262.093C1193.44 262.066 1193.43 262.042 1193.42 262.016C1193.4 261.848 1193.34 261.68 1193.24 261.521L1184.65 247.611L1201.53 240.585C1202.07 240.44 1202.52 240.095 1202.71 239.616C1203.03 238.817 1202.5 237.958 1201.53 237.697L1173.72 230.227C1172.74 229.966 1171.7 230.402 1171.38 231.201C1171.35 231.272 1171.34 231.345 1171.32 231.418C1171.32 231.443 1171.31 231.467 1171.3 231.493C1171.29 231.539 1171.3 231.585 1171.3 231.632C1171.29 231.686 1171.29 231.741 1171.29 231.795C1171.3 231.821 1171.31 231.846 1171.31 231.872C1171.34 232.04 1171.39 232.207 1171.49 232.367L1180.08 246.278L1163.21 253.302C1162.66 253.448 1162.21 253.792 1162.02 254.272C1161.7 255.07 1162.23 255.929 1163.2 256.191L1191.02 263.66C1191.99 263.921 1193.03 263.486 1193.35 262.687Z" fill="#D9D9D9" fill-opacity="0.25"/>
<path d="M1119.55 147.78L1088.02 134.547C1087.11 134.165 1086.75 133.248 1087.21 132.5C1087.68 131.752 1088.79 131.456 1089.7 131.838L1121.23 145.071C1122.14 145.454 1122.5 146.37 1122.04 147.118C1121.57 147.866 1120.46 148.163 1119.55 147.78Z" fill="#D9D9D9" fill-opacity="0.25"/>
<path d="M1115.99 153.5L1084.46 140.266C1083.55 139.884 1083.18 138.967 1083.65 138.219C1084.12 137.471 1085.23 137.175 1086.14 137.557L1117.67 150.791C1118.58 151.173 1118.94 152.089 1118.48 152.838C1118.01 153.586 1116.9 153.882 1115.99 153.5Z" fill="#D9D9D9" fill-opacity="0.25"/>
<path d="M1112.42 159.219L1080.9 145.986C1079.99 145.603 1079.62 144.687 1080.09 143.938C1080.56 143.19 1081.67 142.894 1082.58 143.276L1114.11 156.51C1115.02 156.892 1115.38 157.809 1114.92 158.557C1114.45 159.305 1113.34 159.601 1112.42 159.219Z" fill="#D9D9D9" fill-opacity="0.25"/>
<path d="M1340.54 164.938L1309.01 151.705C1308.1 151.322 1307.74 150.406 1308.2 149.658C1308.67 148.91 1309.79 148.613 1310.7 148.996L1342.22 162.229C1343.14 162.611 1343.5 163.528 1343.03 164.276C1342.56 165.024 1341.45 165.321 1340.54 164.938Z" fill="#D9D9D9" fill-opacity="0.25"/>
<path d="M1105.3 170.657L1073.78 157.424C1072.87 157.042 1072.5 156.125 1072.97 155.377C1073.44 154.629 1074.55 154.333 1075.46 154.715L1106.99 167.948C1107.9 168.331 1108.26 169.247 1107.8 169.995C1107.33 170.744 1106.22 171.04 1105.3 170.657Z" fill="#D9D9D9" fill-opacity="0.25"/>
<path d="M1101.74 176.377L1070.22 163.143C1069.3 162.761 1068.94 161.844 1069.41 161.096C1069.88 160.348 1070.99 160.052 1071.9 160.434L1103.43 173.668C1104.34 174.05 1104.7 174.967 1104.24 175.715C1103.77 176.463 1102.65 176.759 1101.74 176.377Z" fill="#D9D9D9" fill-opacity="0.25"/>
<path d="M1098.18 182.096L1066.66 168.862C1065.74 168.48 1065.38 167.564 1065.85 166.815C1066.31 166.067 1067.43 165.771 1068.34 166.153L1099.87 179.387C1100.78 179.769 1101.14 180.686 1100.68 181.434C1100.21 182.182 1099.09 182.478 1098.18 182.096Z" fill="#D9D9D9" fill-opacity="0.25"/>
<path d="M1094.62 187.815L1063.1 174.582C1062.18 174.2 1061.82 173.283 1062.29 172.535C1062.75 171.787 1063.87 171.491 1064.78 171.873L1096.31 185.106C1097.22 185.489 1097.58 186.405 1097.12 187.153C1096.65 187.901 1095.53 188.198 1094.62 187.815Z" fill="#D9D9D9" fill-opacity="0.25"/>
<path d="M1091.06 193.535L1059.53 180.301C1058.62 179.919 1058.26 179.002 1058.73 178.254C1059.19 177.506 1060.31 177.21 1061.22 177.592L1092.75 190.826C1093.66 191.208 1094.02 192.125 1093.56 192.873C1093.09 193.621 1091.97 193.917 1091.06 193.535Z" fill="#D9D9D9" fill-opacity="0.25"/>
<path d="M1087.5 199.254L1055.97 186.02C1055.06 185.638 1054.7 184.722 1055.17 183.973C1055.63 183.225 1056.75 182.929 1057.66 183.311L1089.19 196.545C1090.1 196.927 1090.46 197.844 1090 198.592C1089.53 199.34 1088.41 199.636 1087.5 199.254Z" fill="#D9D9D9" fill-opacity="0.25"/>
<path d="M1083.94 204.973L1052.41 191.74C1051.5 191.357 1051.14 190.441 1051.61 189.693C1052.07 188.945 1053.19 188.648 1054.1 189.031L1085.63 202.264C1086.54 202.646 1086.9 203.563 1086.43 204.311C1085.97 205.059 1084.85 205.355 1083.94 204.973Z" fill="#D9D9D9" fill-opacity="0.25"/>
<path d="M1062.21 47.9045L1075.55 60.8146C1076.22 61.4551 1076.12 62.4151 1075.34 62.9589C1074.56 63.5025 1073.39 63.424 1072.73 62.7835L1059.38 49.8734C1058.72 49.2329 1058.82 48.273 1059.6 47.7291C1060.38 47.1856 1061.55 47.264 1062.21 47.9045Z" fill="#D9D9D9" fill-opacity="0.25"/>
<path d="M1047.81 42.8607L1061.16 55.7708C1061.82 56.4113 1061.73 57.3712 1060.95 57.9151C1060.17 58.4586 1059 58.3802 1058.33 57.7397L1044.99 44.8296C1044.33 44.1891 1044.42 43.2291 1045.2 42.6853C1045.98 42.1417 1047.15 42.2202 1047.81 42.8607Z" fill="#D9D9D9" fill-opacity="0.25"/>
<path d="M1034.09 38.4612L1047.43 51.3712C1048.09 52.0117 1048 52.9717 1047.22 53.5156C1046.44 54.0591 1045.27 53.9806 1044.61 53.3401L1031.26 40.4301C1030.6 39.7895 1030.69 38.8296 1031.47 38.2857C1032.25 37.7422 1033.42 37.8206 1034.09 38.4612Z" fill="#D9D9D9" fill-opacity="0.25"/>
<path d="M1064.56 61.4104C1065.34 60.8666 1066.51 60.9454 1067.17 61.5859C1067.83 62.2264 1067.74 63.1864 1066.96 63.7299C1066.18 64.2737 1065.01 64.1953 1064.35 63.5548C1063.68 62.9143 1063.78 61.954 1064.56 61.4104Z" fill="#D9D9D9" fill-opacity="0.25"/>
<path d="M1049.68 55.8941C1050.46 55.3505 1051.63 55.429 1052.29 56.0695C1052.95 56.71 1052.85 57.67 1052.07 58.2135C1051.29 58.7574 1050.12 58.6789 1049.46 58.0384C1048.8 57.3979 1048.9 56.4379 1049.68 55.8941Z" fill="#D9D9D9" fill-opacity="0.25"/>
<path d="M1054.05 42.3597C1054.83 41.8161 1056 41.8946 1056.66 42.5351C1057.32 43.1756 1057.22 44.1356 1056.44 44.6791C1055.66 45.223 1054.5 45.1445 1053.83 44.504C1053.17 43.8635 1053.27 42.9032 1054.05 42.3597Z" fill="#D9D9D9" fill-opacity="0.25"/>
<path d="M1039.3 36.9722C1040.08 36.4283 1041.25 36.5071 1041.91 37.1476C1042.57 37.7882 1042.47 38.7481 1041.69 39.2917C1040.91 39.8355 1039.75 39.7571 1039.08 39.1165C1038.42 38.476 1038.52 37.5157 1039.3 36.9722Z" fill="#D9D9D9" fill-opacity="0.25"/>
<path d="M1301.37 112.459L1299.07 135.617C1298.98 136.455 1298.09 137.078 1297.07 137.01L1295.91 136.932C1294.89 136.863 1294.13 136.128 1294.21 135.291L1296.52 112.133C1296.6 111.295 1297.49 110.672 1298.51 110.741L1299.68 110.819C1300.7 110.887 1301.46 111.621 1301.37 112.459Z" fill="#D9D9D9" fill-opacity="0.25"/>
<path d="M1293.7 96.7731L1291.39 119.931C1291.31 120.769 1290.42 121.392 1289.4 121.324L1288.23 121.246C1287.21 121.177 1286.45 120.443 1286.53 119.605L1288.84 96.447C1288.92 95.6095 1289.82 94.9862 1290.84 95.0547L1292 95.1329C1293.02 95.2014 1293.78 95.9356 1293.7 96.7731Z" fill="#D9D9D9" fill-opacity="0.25"/>
<path d="M1285.91 82.1952L1283.61 105.354C1283.52 106.191 1282.63 106.814 1281.61 106.746L1280.44 106.668C1279.42 106.599 1278.67 105.865 1278.75 105.028L1281.06 81.8691C1281.14 81.0317 1282.03 80.4083 1283.05 80.4769L1284.22 80.555C1285.24 80.6235 1286 81.3577 1285.91 82.1952Z" fill="#D9D9D9" fill-opacity="0.25"/>
<path d="M1288.21 127.296C1289.56 127.386 1290.55 128.352 1290.44 129.453C1290.34 130.555 1289.16 131.375 1287.82 131.285C1286.48 131.195 1285.48 130.229 1285.59 129.127C1285.7 128.026 1286.87 127.206 1288.21 127.296Z" fill="#D9D9D9" fill-opacity="0.25"/>
<path d="M1280.62 110.797C1281.96 110.887 1282.96 111.853 1282.85 112.955C1282.74 114.057 1281.56 114.876 1280.22 114.786C1278.88 114.696 1277.88 113.73 1277.99 112.629C1278.1 111.527 1279.28 110.707 1280.62 110.797Z" fill="#D9D9D9" fill-opacity="0.25"/>
<path d="M1300.02 101.546C1301.36 101.636 1302.36 102.602 1302.25 103.703C1302.14 104.805 1300.96 105.625 1299.62 105.535C1298.28 105.445 1297.28 104.479 1297.39 103.377C1297.5 102.276 1298.67 101.456 1300.02 101.546Z" fill="#D9D9D9" fill-opacity="0.25"/>
<path d="M1292.4 85.2688C1293.74 85.3588 1294.74 86.3247 1294.63 87.4264C1294.52 88.528 1293.34 89.3479 1292 89.2579C1290.66 89.1679 1289.66 88.2019 1289.77 87.1003C1289.88 85.9987 1291.06 85.1787 1292.4 85.2688Z" fill="#D9D9D9" fill-opacity="0.25"/>
<path d="M1175.53 15.7069C1179.02 19.3217 1178.27 24.5716 1173.87 27.4336C1169.47 30.2952 1163.07 29.6848 1159.59 26.0701C1156.1 22.4557 1156.85 17.2055 1161.25 14.3438C1165.65 11.4821 1172.05 12.0922 1175.53 15.7069Z" fill="#D9D9D9" fill-opacity="0.25"/>
<path d="M558.267 53.8831L556.357 52.8472C552.228 50.6079 546.608 51.5789 543.804 55.0159L526.065 76.7558C523.261 80.1928 524.334 84.7942 528.463 87.0335L554.576 101.197C558.705 103.436 564.325 102.465 567.129 99.0284L568.426 97.4384C570.308 95.1324 574.079 94.481 576.849 95.9834L578.759 97.0193C582.887 99.2586 588.507 98.2875 591.312 94.8505L609.05 73.1107C611.855 69.6737 610.781 65.0723 606.653 62.8329L580.539 48.6694C576.411 46.4301 570.791 47.4011 567.987 50.8381L566.689 52.428C564.808 54.734 561.037 55.3855 558.267 53.8831Z" stroke="#0F1B1B" stroke-opacity="0.07" stroke-width="2" stroke-miterlimit="10"/>
<path d="M1263.15 182.169L1253.02 193.428C1251.55 195.063 1248.74 195.408 1246.75 194.2L1233.04 185.876C1231.04 184.667 1230.62 182.361 1232.09 180.726L1242.23 169.468C1243.7 167.833 1246.51 167.487 1248.5 168.696L1262.21 177.019C1264.21 178.228 1264.63 180.534 1263.15 182.169Z" fill="#D9D9D9" fill-opacity="0.25"/>
<path d="M1186.14 642.605L1198.93 637.279L1205.42 647.782L1186.14 642.605ZM1213.58 627.592L1200.79 632.918L1194.31 622.415L1213.58 627.592ZM1210.85 650.842C1210.88 650.77 1210.89 650.697 1210.91 650.625C1210.91 650.599 1210.92 650.575 1210.92 650.55C1210.93 650.503 1210.93 650.457 1210.93 650.411C1210.93 650.356 1210.94 650.302 1210.93 650.247C1210.93 650.221 1210.92 650.196 1210.92 650.171C1210.89 650.003 1210.84 649.835 1210.74 649.676L1202.15 635.765L1219.02 628.74C1219.56 628.594 1220.02 628.25 1220.21 627.771C1220.53 626.972 1220 626.113 1219.02 625.852L1191.21 618.382C1190.24 618.121 1189.19 618.557 1188.87 619.355C1188.84 619.427 1188.83 619.5 1188.82 619.572C1188.81 619.598 1188.8 619.622 1188.8 619.648C1188.79 619.694 1188.79 619.74 1188.79 619.786C1188.79 619.841 1188.78 619.895 1188.79 619.95C1188.79 619.976 1188.8 620.001 1188.8 620.026C1188.83 620.194 1188.88 620.362 1188.98 620.521L1197.57 634.432L1180.7 641.457C1180.16 641.603 1179.7 641.947 1179.51 642.427C1179.19 643.225 1179.72 644.084 1180.7 644.345L1208.51 651.815C1209.48 652.076 1210.53 651.641 1210.85 650.842Z" fill="#D9D9D9" fill-opacity="0.25"/>
<path d="M1137.04 535.935L1105.51 522.702C1104.6 522.319 1104.24 521.403 1104.71 520.655C1105.17 519.906 1106.29 519.61 1107.2 519.993L1138.73 533.226C1139.64 533.608 1140 534.525 1139.53 535.273C1139.07 536.021 1137.95 536.317 1137.04 535.935Z" fill="#D9D9D9" fill-opacity="0.25"/>
<path d="M1133.48 541.654L1101.95 528.421C1101.04 528.038 1100.68 527.122 1101.14 526.374C1101.61 525.626 1102.73 525.329 1103.64 525.712L1135.17 538.945C1136.08 539.328 1136.44 540.244 1135.97 540.992C1135.51 541.74 1134.39 542.037 1133.48 541.654Z" fill="#D9D9D9" fill-opacity="0.25"/>
<path d="M1129.92 547.374L1098.39 534.14C1097.48 533.758 1097.12 532.841 1097.58 532.093C1098.05 531.345 1099.17 531.049 1100.08 531.431L1131.6 544.665C1132.52 545.047 1132.88 545.963 1132.41 546.712C1131.95 547.46 1130.83 547.756 1129.92 547.374Z" fill="#D9D9D9" fill-opacity="0.25"/>
<path d="M1126.36 553.093L1094.83 539.859C1093.92 539.477 1093.56 538.56 1094.02 537.812C1094.49 537.064 1095.61 536.768 1096.52 537.15L1128.05 550.384C1128.96 550.766 1129.32 551.683 1128.85 552.431C1128.39 553.179 1127.27 553.475 1126.36 553.093Z" fill="#D9D9D9" fill-opacity="0.25"/>
<path d="M1122.8 558.812L1091.27 545.579C1090.36 545.196 1090 544.28 1090.46 543.532C1090.93 542.784 1092.05 542.487 1092.96 542.87L1124.48 556.103C1125.4 556.485 1125.76 557.402 1125.29 558.15C1124.83 558.898 1123.71 559.194 1122.8 558.812Z" fill="#D9D9D9" fill-opacity="0.25"/>
<path d="M1119.24 564.531L1087.71 551.298C1086.8 550.916 1086.44 549.999 1086.9 549.251C1087.37 548.503 1088.49 548.207 1089.4 548.589L1120.92 561.822C1121.84 562.205 1122.2 563.121 1121.73 563.869C1121.27 564.618 1120.15 564.914 1119.24 564.531Z" fill="#D9D9D9" fill-opacity="0.25"/>
<path d="M1115.68 570.251L1084.15 557.017C1083.24 556.635 1082.88 555.718 1083.34 554.97C1083.81 554.222 1084.93 553.926 1085.84 554.308L1117.36 567.542C1118.27 567.924 1118.64 568.841 1118.17 569.589C1117.7 570.337 1116.59 570.633 1115.68 570.251Z" fill="#D9D9D9" fill-opacity="0.25"/>
<path d="M1112.12 575.97L1080.59 562.736C1079.68 562.354 1079.32 561.438 1079.78 560.689C1080.25 559.941 1081.36 559.645 1082.28 560.027L1113.8 573.261C1114.71 573.643 1115.08 574.56 1114.61 575.308C1114.14 576.056 1113.03 576.352 1112.12 575.97Z" fill="#D9D9D9" fill-opacity="0.25"/>
<path d="M1108.56 581.689L1077.03 568.456C1076.12 568.074 1075.76 567.157 1076.22 566.409C1076.69 565.661 1077.8 565.364 1078.72 565.747L1110.24 578.98C1111.15 579.363 1111.52 580.279 1111.05 581.027C1110.58 581.775 1109.47 582.072 1108.56 581.689Z" fill="#D9D9D9" fill-opacity="0.25"/>
<path d="M1105 587.409L1073.47 574.175C1072.56 573.793 1072.2 572.876 1072.66 572.128C1073.13 571.38 1074.24 571.084 1075.16 571.466L1106.68 584.699C1107.59 585.082 1107.95 585.998 1107.49 586.747C1107.02 587.495 1105.91 587.791 1105 587.409Z" fill="#D9D9D9" fill-opacity="0.25"/>
<path d="M1101.44 593.128L1069.91 579.894C1069 579.512 1068.64 578.596 1069.1 577.847C1069.57 577.099 1070.68 576.803 1071.59 577.185L1103.12 590.419C1104.03 590.801 1104.39 591.718 1103.93 592.466C1103.46 593.214 1102.35 593.51 1101.44 593.128Z" fill="#D9D9D9" fill-opacity="0.25"/>
<path d="M1079.7 436.059L1093.05 448.969C1093.71 449.61 1093.61 450.57 1092.83 451.113C1092.05 451.657 1090.88 451.579 1090.22 450.938L1076.88 438.028C1076.22 437.387 1076.31 436.427 1077.09 435.884C1077.87 435.34 1079.04 435.419 1079.7 436.059Z" fill="#D9D9D9" fill-opacity="0.25"/>
<path d="M1065.31 431.015L1078.65 443.925C1079.32 444.566 1079.22 445.526 1078.44 446.07C1077.66 446.613 1076.49 446.535 1075.83 445.894L1062.48 432.984C1061.82 432.344 1061.92 431.384 1062.7 430.84C1063.48 430.296 1064.65 430.375 1065.31 431.015Z" fill="#D9D9D9" fill-opacity="0.25"/>
<path d="M1051.58 426.616L1064.93 439.526C1065.59 440.166 1065.49 441.126 1064.71 441.67C1063.93 442.214 1062.76 442.135 1062.1 441.495L1048.75 428.585C1048.09 427.944 1048.19 426.984 1048.97 426.44C1049.75 425.897 1050.92 425.975 1051.58 426.616Z" fill="#D9D9D9" fill-opacity="0.25"/>
<path d="M1082.05 449.565C1082.83 449.021 1084 449.1 1084.66 449.741C1085.33 450.381 1085.23 451.341 1084.45 451.885C1083.67 452.428 1082.5 452.35 1081.84 451.709C1081.18 451.069 1081.27 450.109 1082.05 449.565Z" fill="#D9D9D9" fill-opacity="0.25"/>
<path d="M1067.17 444.049C1067.95 443.505 1069.12 443.584 1069.78 444.224C1070.44 444.865 1070.35 445.825 1069.57 446.368C1068.79 446.912 1067.62 446.833 1066.96 446.193C1066.29 445.552 1066.39 444.592 1067.17 444.049Z" fill="#D9D9D9" fill-opacity="0.25"/>
<path d="M1071.54 430.514C1072.32 429.971 1073.49 430.049 1074.15 430.69C1074.81 431.33 1074.72 432.29 1073.94 432.834C1073.16 433.378 1071.99 433.299 1071.33 432.659C1070.66 432.018 1070.76 431.058 1071.54 430.514Z" fill="#D9D9D9" fill-opacity="0.25"/>
<path d="M1056.79 425.127C1057.57 424.583 1058.74 424.662 1059.4 425.302C1060.06 425.943 1059.97 426.903 1059.19 427.446C1058.41 427.99 1057.24 427.912 1056.58 427.271C1055.92 426.631 1056.01 425.67 1056.79 425.127Z" fill="#D9D9D9" fill-opacity="0.25"/>
<path d="M1318.87 500.614L1316.56 523.772C1316.48 524.609 1315.58 525.233 1314.56 525.164L1313.4 525.086C1312.38 525.018 1311.62 524.283 1311.7 523.446L1314.01 500.288C1314.09 499.45 1314.99 498.827 1316.01 498.895L1317.17 498.973C1318.19 499.042 1318.95 499.776 1318.87 500.614Z" fill="#D9D9D9" fill-opacity="0.25"/>
<path d="M1311.19 484.928L1308.89 508.086C1308.8 508.924 1307.91 509.547 1306.89 509.478L1305.72 509.4C1304.7 509.332 1303.95 508.597 1304.03 507.76L1306.33 484.602C1306.42 483.764 1307.31 483.141 1308.33 483.209L1309.5 483.288C1310.52 483.356 1311.28 484.09 1311.19 484.928Z" fill="#D9D9D9" fill-opacity="0.25"/>
<path d="M1303.41 470.35L1301.1 493.508C1301.02 494.346 1300.12 494.969 1299.1 494.9L1297.94 494.822C1296.92 494.754 1296.16 494.019 1296.24 493.182L1298.55 470.024C1298.63 469.186 1299.53 468.563 1300.55 468.631L1301.71 468.71C1302.73 468.778 1303.49 469.512 1303.41 470.35Z" fill="#D9D9D9" fill-opacity="0.25"/>
<path d="M1305.71 515.451C1307.05 515.541 1308.05 516.506 1307.94 517.608C1307.83 518.71 1306.65 519.53 1305.31 519.44C1303.97 519.35 1302.97 518.383 1303.08 517.282C1303.19 516.18 1304.37 515.361 1305.71 515.451Z" fill="#D9D9D9" fill-opacity="0.25"/>
<path d="M1298.11 498.952C1299.45 499.042 1300.45 500.008 1300.34 501.11C1300.23 502.211 1299.06 503.031 1297.72 502.941C1296.37 502.851 1295.38 501.885 1295.49 500.784C1295.6 499.682 1296.77 498.862 1298.11 498.952Z" fill="#D9D9D9" fill-opacity="0.25"/>
<path d="M1317.51 489.7C1318.85 489.79 1319.85 490.756 1319.74 491.858C1319.63 492.96 1318.45 493.78 1317.11 493.69C1315.77 493.599 1314.77 492.634 1314.88 491.532C1314.99 490.43 1316.17 489.61 1317.51 489.7Z" fill="#D9D9D9" fill-opacity="0.25"/>
<path d="M1309.89 473.423C1311.23 473.513 1312.23 474.479 1312.12 475.581C1312.01 476.683 1310.84 477.503 1309.5 477.413C1308.15 477.323 1307.16 476.357 1307.27 475.255C1307.38 474.153 1308.55 473.333 1309.89 473.423Z" fill="#D9D9D9" fill-opacity="0.25"/>
<path d="M1203.36 475.896C1203.83 471.362 1202.26 466.676 1198.48 462.851C1196.54 460.883 1194.19 459.333 1191.6 458.219C1184.28 455.066 1178.81 449.615 1176.83 443.026C1176.09 440.568 1174.71 438.196 1172.67 436.08C1169.02 432.291 1163.91 430.013 1158.51 429.356C1154.62 428.882 1151.86 425.965 1152.18 422.749C1152.64 418.235 1151.06 413.573 1147.3 409.765C1139.8 402.166 1126.15 400.787 1116.64 406.674C1106.63 412.87 1104.84 424.578 1112.58 432.602C1116.23 436.392 1121.35 438.67 1126.74 439.327C1130.65 439.802 1133.41 442.645 1133.08 445.873C1132.6 450.406 1134.18 455.092 1137.95 458.917C1139.89 460.885 1142.25 462.435 1144.84 463.55C1152.15 466.703 1157.63 472.153 1159.61 478.741C1160.35 481.201 1161.72 483.572 1163.76 485.688C1167.42 489.477 1172.53 491.755 1177.93 492.412C1181.81 492.886 1184.58 495.803 1184.25 499.019C1183.8 503.534 1185.38 508.195 1189.14 512.003C1196.63 519.603 1210.29 520.981 1219.8 515.094C1229.81 508.898 1231.59 497.19 1223.86 489.166C1220.2 485.376 1215.09 483.098 1209.69 482.441C1205.79 481.966 1203.03 479.123 1203.36 475.896Z" fill="#0F1B1B" fill-opacity="0.07"/>
<path d="M1193.02 403.862C1196.51 407.476 1195.77 412.726 1191.36 415.588C1186.96 418.45 1180.57 417.84 1177.08 414.225C1173.6 410.61 1174.34 405.36 1178.74 402.499C1183.14 399.637 1189.54 400.247 1193.02 403.862Z" fill="#D9D9D9" fill-opacity="0.25"/>
<path d="M1291.45 554.28L1289.59 553.152C1285.57 550.715 1279.91 551.412 1276.95 554.708L1258.17 575.561C1255.2 578.857 1256.05 583.505 1260.07 585.943L1285.46 601.358C1289.48 603.796 1295.14 603.099 1298.1 599.802L1299.48 598.277C1301.47 596.065 1305.27 595.598 1307.96 597.233L1309.82 598.361C1313.83 600.798 1319.49 600.101 1322.46 596.805L1341.24 575.952C1344.2 572.656 1343.35 568.008 1339.34 565.57L1313.95 550.155C1309.93 547.717 1304.27 548.414 1301.3 551.711L1299.93 553.236C1297.94 555.448 1294.14 555.915 1291.45 554.28Z" stroke="#0F1B1B" stroke-opacity="0.07" stroke-width="2" stroke-miterlimit="10"/>
<path d="M1280.65 570.324L1270.51 581.582C1269.04 583.217 1266.23 583.563 1264.24 582.354L1250.53 574.031C1248.54 572.822 1248.12 570.516 1249.59 568.881L1259.73 557.622C1261.2 555.987 1264.01 555.642 1266 556.851L1279.71 565.174C1281.7 566.383 1282.12 568.688 1280.65 570.324Z" fill="#D9D9D9" fill-opacity="0.25"/>
<path d="M606.938 59.1946L596.801 70.4532C595.329 72.0885 592.521 72.434 590.53 71.2252L576.819 62.9017C574.827 61.6928 574.406 59.3869 575.879 57.752L586.015 46.4934C587.487 44.8582 590.296 44.5126 592.287 45.7215L605.998 54.045C607.989 55.2539 608.41 57.5594 606.938 59.1946Z" fill="#D9D9D9" fill-opacity="0.25"/>
</g>
</g>
<defs>
<clipPath id="clip0_123_3444">
<rect width="1548" height="715" fill="white" transform="translate(-54)"/>
</clipPath>
</defs>
</svg>
