<svg xmlns="http://www.w3.org/2000/svg" width="1322" height="701" fill="none"><circle cx="1139.83" cy="236.557" r="100" fill="url(#a)" transform="rotate(-60 1139.83 236.557)"/><path stroke="#DCDCDC" stroke-dasharray="10 10" d="m1105.89.999.99 700M1321.39 485.5l-943.999 2.021"/><path stroke="#B0B0B0" stroke-dasharray="10 10" stroke-width="2" d="M27.927 86.04s113.421-24.012 121.645 77.75c8.224 101.761 52.066 98.01 140.165 89.586 88.098-8.424 113.618 184.919 215.061 137.457 101.442-47.463 107.656 164.59 206.793 77.257"/><circle cx="933" cy="351" r="50" fill="url(#b)" transform="rotate(-70 933 351)"/><circle cx="753.5" cy="415.5" r="26.5" fill="url(#c)" transform="rotate(-90 753.5 415.5)"/><defs><radialGradient id="a" cx="0" cy="0" r="1" gradientTransform="matrix(-174.2998 -170.09206 133.95535 -137.26915 1239.83 321.603)" gradientUnits="userSpaceOnUse"><stop offset=".147" stop-color="#EAEAEA"/><stop offset=".31" stop-color="#E6FFFC"/><stop offset=".386" stop-color="#C2F7F7"/><stop offset=".477" stop-color="#B0EEF2"/><stop offset=".644" stop-color="#8EE9D8"/><stop offset=".79" stop-color="#6DDDDD"/><stop offset=".915" stop-color="#3073C1"/><stop offset="1" stop-color="#638B9F"/></radialGradient><radialGradient id="b" cx="0" cy="0" r="1" gradientTransform="matrix(-87.1499 -85.04603 66.97754 -68.63443 983 393.524)" gradientUnits="userSpaceOnUse"><stop offset=".147" stop-color="#EAEAEA"/><stop offset=".31" stop-color="#FFE6ED"/><stop offset=".386" stop-color="#F7C2DC"/><stop offset=".477" stop-color="#F2B0D0"/><stop offset=".644" stop-color="#E98ED1"/><stop offset=".79" stop-color="#6D73DD"/><stop offset=".915" stop-color="#3073C1"/><stop offset="1" stop-color="#638B9F"/></radialGradient><radialGradient id="c" cx="0" cy="0" r="1" gradientTransform="matrix(-46.18952 -45.07447 35.49807 -36.37623 780 438.037)" gradientUnits="userSpaceOnUse"><stop offset=".147" stop-color="#EAEAEA"/><stop offset=".31" stop-color="#E6FFFC"/><stop offset=".386" stop-color="#C2F7F7"/><stop offset=".477" stop-color="#B0EEF2"/><stop offset=".644" stop-color="#8EE9D8"/><stop offset=".79" stop-color="#6DDDDD"/><stop offset=".915" stop-color="#3073C1"/><stop offset="1" stop-color="#638B9F"/></radialGradient></defs></svg>