<svg xmlns="http://www.w3.org/2000/svg" width="768" height="513" fill="none"><g clip-path="url(#a)"><g clip-path="url(#b)"><mask id="c" width="1012" height="467" x="-122" y="66" maskUnits="userSpaceOnUse" style="mask-type:luminance"><path fill="#fff" d="M-121.767 66H889.305v467H-121.767V66Z"/></mask><g fill="#0F1B1B" fill-opacity=".07" mask="url(#c)"><path d="m260.705 157.46-13-.872a1.332 1.332 0 0 0-.861.231c-.233.16-.391.392-.418.66l-.968 9.724-11.843-.795a1.338 1.338 0 0 0-.861.232c-.233.159-.392.392-.418.66l-.97 9.743-11.866-.797a1.338 1.338 0 0 0-.861.232.919.919 0 0 0-.418.66l-.969 9.724-11.842-.795a1.338 1.338 0 0 0-.861.231c-.233.16-.392.393-.418.661l-1.063 10.673c-.053.53.427.995 1.072 1.038.645.043 1.211-.351 1.263-.881l.969-9.727 11.846.795c.326.022.63-.067.86-.23.231-.159.389-.391.416-.658l.968-9.728 11.846.796c.332.022.641-.072.871-.24.239-.16.402-.394.429-.666l.969-9.728 11.846.796c.326.022.63-.068.86-.23.232-.16.389-.392.416-.659l.968-9.727 11.847.795c.644.044 1.21-.351 1.263-.88.053-.53-.427-.994-1.072-1.038ZM616.938 260.785l-12.999-.873a1.334 1.334 0 0 0-.861.231c-.233.16-.392.392-.419.66l-.968 9.725-11.842-.796a1.345 1.345 0 0 0-.862.232.919.919 0 0 0-.418.66l-.97 9.743-11.865-.797a1.335 1.335 0 0 0-.861.232c-.233.159-.392.392-.419.66l-.968 9.724-11.843-.795a1.338 1.338 0 0 0-.861.232.919.919 0 0 0-.418.66l-1.063 10.674c-.053.529.428.994 1.073 1.037.645.043 1.21-.351 1.263-.88l.968-9.728 11.847.796c.325.021.63-.068.859-.23.232-.16.389-.392.416-.659l.969-9.727 11.846.795c.331.022.64-.072.871-.24.238-.159.402-.394.429-.666l.969-9.727 11.846.795c.325.022.63-.068.859-.23.232-.16.389-.392.416-.659l.969-9.727 11.846.795c.645.044 1.21-.35 1.263-.88.053-.53-.427-.994-1.072-1.037ZM526.976 413.619l-8.44-8.165a1.27 1.27 0 0 0-.808-.336 1.34 1.34 0 0 0-.864.224l-9.059 6.314-7.689-7.439a1.27 1.27 0 0 0-.808-.336 1.346 1.346 0 0 0-.864.224l-9.076 6.326-7.705-7.453a1.266 1.266 0 0 0-.808-.336 1.348 1.348 0 0 0-.864.224l-9.059 6.314-7.689-7.438a1.27 1.27 0 0 0-.808-.337 1.348 1.348 0 0 0-.864.224l-9.944 6.931c-.493.344-.554.951-.135 1.356.419.405 1.158.455 1.652.111l9.061-6.316 7.692 7.441c.211.204.504.317.805.336.302.022.613-.051.862-.224l9.061-6.316 7.692 7.44c.215.208.515.321.822.336a1.35 1.35 0 0 0 .878-.221l9.061-6.316 7.692 7.441c.211.204.504.317.805.336.302.022.613-.051.862-.224l9.061-6.316 7.692 7.44c.419.405 1.158.455 1.651.111.494-.344.554-.951.135-1.356Z"/></g><mask id="d" width="1012" height="467" x="-122" y="66" maskUnits="userSpaceOnUse" style="mask-type:luminance"><path fill="#fff" d="M-121.767 66H889.305v467H-121.767V66Z"/></mask><g fill="#EAEAEA" fill-opacity=".25" mask="url(#d)"><path d="m347.457 90.446 61.672 50.642c.473.387.473 1.017 0 1.405-.473.388-1.239.388-1.711 0l-61.672-50.641c-.473-.388-.473-1.018 0-1.406.472-.388 1.238-.388 1.711 0ZM351.069 87.48l61.672 50.641c.473.388.473 1.017 0 1.405-.472.388-1.239.388-1.711 0l-61.672-50.641c-.473-.388-.473-1.017 0-1.405.472-.388 1.238-.388 1.711 0ZM354.681 84.514l61.673 50.641c.472.388.472 1.017 0 1.405-.473.388-1.239.388-1.712 0L352.97 85.919c-.472-.388-.472-1.017 0-1.405.473-.388 1.239-.388 1.711 0Z"/><path d="m370.483 130.904 15.704-6.539 7.963 12.895-23.667-6.356Zm33.695-18.43-15.704 6.538-7.963-12.894 23.667 6.356Zm-3.36 28.541c.035-.088.053-.177.071-.266.007-.031.02-.061.025-.092.008-.058.003-.114.006-.171.002-.067.01-.133.003-.201-.003-.032-.014-.062-.019-.094a1.609 1.609 0 0 0-.219-.607l-10.545-17.077 20.711-8.624c.666-.179 1.225-.602 1.459-1.19.391-.98-.261-2.035-1.454-2.356l-34.144-9.169c-1.194-.321-2.478.214-2.869 1.194-.035.089-.052.178-.071.267-.007.031-.02.061-.024.092-.009.057-.004.113-.006.17-.003.067-.01.134-.004.201.003.032.015.062.02.094.032.206.097.412.218.608l10.546 17.077-20.712 8.624c-.666.178-1.225.601-1.459 1.19-.39.98.261 2.034 1.455 2.355l34.143 9.17c1.194.321 2.478-.214 2.869-1.195ZM171.585 336.066l-8.831-12.507 15.231-7.252-6.4 19.759Zm-24.3-26.59 8.832 12.508-15.232 7.252 6.4-19.76Zm34.893 1.154a2.65 2.65 0 0 0-.329-.044c-.038-.004-.075-.013-.113-.015-.07-.004-.138.003-.207.005-.082.002-.163-.001-.245.008-.039.005-.075.015-.113.021a2.605 2.605 0 0 0-.727.214l-20.172 9.604-11.648-16.496c-.255-.536-.8-.971-1.529-1.13-1.214-.265-2.46.328-2.782 1.325l-9.234 28.507c-.323.996.399 2.019 1.613 2.284.11.024.219.034.329.044.038.003.075.013.113.015.07.003.138-.003.207-.005.082-.002.163.001.245-.008.039-.005.075-.015.113-.022a2.57 2.57 0 0 0 .727-.213l20.172-9.604 11.648 16.496c.255.536.8.971 1.529 1.13 1.214.265 2.46-.328 2.783-1.325l9.233-28.507c.323-.997-.399-2.019-1.613-2.284Z"/><path d="m142.714 338.908 52.171-57.391c.4-.44 1.158-.53 1.694-.202.535.328.645.951.246 1.391l-52.172 57.391c-.4.44-1.158.53-1.694.202-.535-.328-.645-.951-.245-1.391ZM138.618 336.399l52.172-57.392c.4-.439 1.158-.53 1.693-.202.536.329.646.951.246 1.391l-52.171 57.391c-.4.44-1.158.531-1.694.202-.535-.328-.645-.95-.246-1.39ZM134.525 333.889l52.171-57.391c.4-.44 1.158-.53 1.694-.202.535.328.645.951.246 1.39l-52.172 57.392c-.4.44-1.158.53-1.694.202-.535-.328-.645-.951-.245-1.391ZM439.657 476.495l-8.831-12.508 15.232-7.252-6.401 19.76Zm-24.3-26.59 8.832 12.507-15.232 7.252 6.4-19.759Zm34.893 1.153c-.11-.024-.219-.033-.328-.044-.039-.003-.075-.012-.114-.015-.07-.003-.138.004-.207.005-.082.002-.163-.001-.245.008-.038.005-.074.016-.113.022a2.603 2.603 0 0 0-.727.213l-20.172 9.604-11.648-16.496c-.255-.536-.8-.971-1.529-1.13-1.213-.265-2.459.328-2.782 1.325l-9.234 28.507c-.323.997.4 2.019 1.614 2.285.109.024.219.033.328.043.038.004.075.013.113.015.07.004.138-.003.208-.005.081-.001.163.001.244-.008.039-.004.075-.015.113-.021.249-.038.496-.104.727-.214l20.172-9.604 11.648 16.496c.255.536.8.971 1.529 1.13 1.214.265 2.46-.328 2.783-1.325l9.233-28.506c.323-.997-.399-2.02-1.613-2.285Z"/><path d="m443.802 500.628-39.727-63.756c-.304-.489-.069-1.088.526-1.337.595-.25 1.324-.057 1.629.432l39.726 63.756c.305.489.069 1.087-.526 1.337s-1.324.057-1.628-.432ZM439.253 502.539l-39.726-63.756c-.305-.489-.069-1.088.526-1.338.595-.249 1.324-.056 1.628.432l39.727 63.757c.304.489.069 1.087-.526 1.337s-1.324.057-1.629-.432ZM434.705 504.45l-39.726-63.757c-.305-.488-.069-1.087.526-1.337s1.324-.056 1.628.432l39.727 63.757c.304.488.069 1.087-.526 1.337s-1.324.057-1.629-.432Z"/></g><mask id="e" width="1012" height="467" x="-122" y="66" maskUnits="userSpaceOnUse" style="mask-type:luminance"><path fill="#fff" d="M-121.767 66H889.305v467H-121.767V66Z"/></mask><g fill="#0F1B1B" fill-opacity=".07" mask="url(#e)"><path d="m498.187 213.623-36.326-6.212 16.894-27.139 36.326 6.212-16.894 27.139Zm-19.46-33.977-27.274-20.439 36.15 6.181 27.274 20.44-36.15-6.182Zm-17.526 27.489-27.408-20.541 16.894-27.139 27.409 20.541-16.895 27.139Zm54.767-20.743.006-.012c.007-.016.014-.032.018-.048l.001-.003.001-.006.006-.027.026-.019c.137-.124.127-.316-.024-.43l-27.973-20.963c-.009-.007-.019-.011-.028-.017a.498.498 0 0 0-.09-.042l-.026-.007a.396.396 0 0 0-.033-.008l-37.077-6.341c-.2-.034-.396.072-.438.236l-.003.03-.014.011-.015.011-.006.007a.615.615 0 0 0-.025.027l-.019.025c-.002.003-.005.005-.006.008l-17.238 27.69-.006.012c-.073.119-.045.267.08.361l27.973 20.963c.004.004.01.006.014.009l.018.012.018.01.023.011.011.006.011.003.023.008.018.006.031.007.01.003 37.076 6.34a.401.401 0 0 0 .413-.169l17.237-27.69.007-.014ZM129.205 113.971l18.378-26.468 26.246 21.551-18.378 26.469-26.246-21.552Zm45.358-4.746 32.078-15.017-18.289 26.34-32.078 15.018 18.289-26.341Zm-26.457-22.153 32.236-15.091 26.247 21.551-32.237 15.092-26.246-21.552Zm7.179 49.172.012.008a.31.31 0 0 0 .05.029l.003.002.006.003.03.012c.005.009.008.018.014.026.102.146.328.197.505.114l32.9-15.402c.011-.005.019-.011.029-.017l.022-.013a.68.68 0 0 0 .028-.021l.026-.023a.146.146 0 0 0 .016-.019c.007-.008.014-.014.02-.023l18.758-27.015c.101-.146.039-.332-.139-.415-.01-.005-.022-.008-.033-.012-.002-.005-.006-.01-.009-.014-.003-.005-.004-.01-.008-.015l-.006-.007c-.007-.01-.015-.018-.023-.027l-.023-.023-.008-.008-26.779-21.99-.013-.008a.43.43 0 0 0-.442-.048l-32.9 15.402c-.006.002-.01.006-.015.009l-.019.01-.017.01a.542.542 0 0 0-.021.015l-.009.007-.008.007a.723.723 0 0 0-.028.028l-.018.022c-.002.003-.005.005-.006.008l-18.758 27.015c-.081.117-.056.26.05.355l.019.019 26.78 21.989a.071.071 0 0 0 .014.01ZM325.818 456.01l-35.788 8.046v-30.479l35.788-8.046v30.479Zm-36.16-22.98-35.615-8.006 35.615-8.007 35.615 8.007-35.615 8.006Zm-.368 31.026-35.791-8.045v-30.479l35.791 8.045v30.479Zm37.267-38.938-.002-.013a.203.203 0 0 0-.01-.049v-.003l-.003-.006-.01-.026c.004-.009.01-.017.013-.027.054-.162-.062-.329-.259-.373l-36.528-8.212-.034-.005-.027-.003-.039-.001-.038.001-.027.003-.034.005-36.528 8.212c-.197.044-.313.211-.259.373.003.01.009.019.013.028l-.006.015-.007.016-.002.008a.19.19 0 0 0-.006.033c-.002.01-.004.02-.004.03l-.001.009v31.098l.001.013c.001.133.108.255.271.292l36.528 8.211.018.003.022.003.021.003.027.001.013.001.012-.001.025-.001a.11.11 0 0 1 .019-.002l.031-.005.011-.002 36.527-8.211c.159-.036.264-.152.271-.28l.003-.025v-31.098l-.002-.015Z"/></g><mask id="f" width="1012" height="467" x="-122" y="66" maskUnits="userSpaceOnUse" style="mask-type:luminance"><path fill="#fff" d="M-121.767 66H889.305v467H-121.767V66Z"/></mask><g fill="#EAEAEA" fill-opacity=".25" mask="url(#f)"><path d="M488.841 102.379h18.483c.668 0 1.21.445 1.21.994v.626c0 .549-.542.994-1.21.994h-18.483c-.668 0-1.21-.445-1.21-.994v-.626c0-.549.542-.994 1.21-.994ZM476.816 107.317h18.482c.668 0 1.21.445 1.21.994v.626c0 .549-.542.994-1.21.994h-18.482c-.669 0-1.211-.445-1.211-.994v-.626c0-.549.542-.994 1.211-.994ZM465.673 112.255h18.482c.668 0 1.21.445 1.21.993v.627c0 .549-.542.994-1.21.994h-18.482c-.669 0-1.211-.445-1.211-.994v-.627c0-.548.542-.993 1.211-.993ZM501.305 108.624c0-.722.712-1.307 1.592-1.307.879 0 1.591.585 1.591 1.307s-.712 1.307-1.591 1.307c-.88 0-1.592-.585-1.592-1.307ZM488.63 113.562c0-.722.713-1.307 1.592-1.307.879 0 1.591.585 1.591 1.307s-.712 1.307-1.591 1.307-1.592-.585-1.592-1.307ZM480.262 103.686c0-.722.713-1.307 1.592-1.307.879 0 1.592.585 1.592 1.307s-.713 1.307-1.592 1.307c-.879 0-1.592-.585-1.592-1.307ZM467.764 108.624c0-.722.713-1.307 1.592-1.307.879 0 1.592.585 1.592 1.307s-.713 1.307-1.592 1.307c-.879 0-1.592-.585-1.592-1.307ZM548.377 475.992h18.482c.668 0 1.21.445 1.21.993v.627c0 .549-.542.994-1.21.994h-18.482c-.669 0-1.21-.445-1.21-.994v-.627c0-.548.541-.993 1.21-.993ZM536.35 480.93h18.482c.668 0 1.21.445 1.21.993v.627c0 .549-.542.994-1.21.994H536.35c-.668 0-1.21-.445-1.21-.994v-.627c0-.548.542-.993 1.21-.993ZM525.207 485.868h18.482c.668 0 1.21.445 1.21.993v.627c0 .549-.542.994-1.21.994h-18.482c-.669 0-1.21-.445-1.21-.994v-.627c0-.548.541-.993 1.21-.993ZM560.839 482.237c0-.722.713-1.308 1.592-1.308.879 0 1.591.586 1.591 1.308 0 .722-.712 1.307-1.591 1.307s-1.592-.585-1.592-1.307ZM548.164 487.175c0-.722.712-1.308 1.591-1.308.88 0 1.592.586 1.592 1.308 0 .721-.712 1.307-1.592 1.307-.879 0-1.591-.586-1.591-1.307ZM539.797 477.299c0-.722.713-1.307 1.592-1.307.879 0 1.592.585 1.592 1.307s-.713 1.307-1.592 1.307c-.879 0-1.592-.585-1.592-1.307ZM527.299 482.237c0-.722.713-1.308 1.592-1.308.879 0 1.592.586 1.592 1.308 0 .722-.713 1.307-1.592 1.307-.879 0-1.592-.585-1.592-1.307ZM52.424 318.005h18.482c.669 0 1.21.444 1.21.993v.627c0 .549-.541.994-1.21.994H52.424c-.668 0-1.21-.445-1.21-.994v-.627c0-.549.542-.993 1.21-.993ZM40.397 322.942h18.482c.668 0 1.21.445 1.21.994v.627c0 .549-.542.993-1.21.993H40.397c-.669 0-1.21-.444-1.21-.993v-.627c0-.549.541-.994 1.21-.994ZM29.254 327.88h18.482c.669 0 1.21.445 1.21.994v.627c0 .549-.541.993-1.21.993H29.254c-.668 0-1.21-.444-1.21-.993v-.627c0-.549.542-.994 1.21-.994ZM64.887 324.249c0-.721.713-1.307 1.592-1.307.879 0 1.591.586 1.591 1.307 0 .722-.712 1.308-1.591 1.308-.88 0-1.592-.586-1.592-1.308ZM52.211 329.187c0-.722.713-1.307 1.592-1.307.88 0 1.592.585 1.592 1.307s-.713 1.307-1.592 1.307c-.879 0-1.592-.585-1.592-1.307ZM43.845 319.311c0-.721.712-1.307 1.592-1.307.879 0 1.591.586 1.591 1.307 0 .722-.712 1.308-1.591 1.308-.88 0-1.592-.586-1.592-1.308ZM31.346 324.249c0-.721.713-1.307 1.592-1.307.879 0 1.592.586 1.592 1.307 0 .722-.713 1.308-1.592 1.308-.88 0-1.592-.586-1.592-1.308Z"/></g><mask id="g" width="1012" height="467" x="-122" y="66" maskUnits="userSpaceOnUse" style="mask-type:luminance"><path fill="#fff" d="M-121.767 66H889.305v467H-121.767V66Z"/></mask><g mask="url(#g)"><path fill="#0F1B1B" fill-opacity=".07" d="M91.227 193.504 38.1 224.181l-22.012-50.194 53.128-30.677 22.012 50.194ZM15.08 173.267l-64.435 4.158 52.87-30.528 64.435-4.158-52.87 30.528Zm21.8 51.276-64.752 4.178-22.012-50.194 64.753-4.179 22.012 50.195Zm33.253-82.274-.012-.019a.472.472 0 0 0-.052-.077l-.004-.005-.008-.008c-.012-.013-.022-.026-.035-.038 0-.017.003-.033.001-.05-.028-.293-.34-.512-.697-.489L3.24 145.847c-.02.001-.04.006-.06.009a.749.749 0 0 0-.173.044l-.041.019c-.018.009-.037.015-.054.025l-54.225 31.31c-.292.169-.363.501-.157.742.013.014.028.026.042.039l.001.028c0 .01-.002.019 0 .029l.003.015a.402.402 0 0 0 .012.057l.016.05c.002.006.002.011.005.017l22.459 51.213c.003.008.008.014.012.022.098.218.36.367.657.348l66.086-4.264.03-.005.04-.005.036-.006.046-.011.022-.005.019-.007c.014-.005.027-.009.04-.015a.31.31 0 0 0 .03-.013.41.41 0 0 0 .048-.023l.016-.007 54.226-31.311c.236-.136.324-.378.243-.593-.005-.014-.007-.028-.013-.042l-22.46-51.213c-.003-.009-.01-.016-.013-.025Z"/><path fill="#D9D9D9" fill-opacity=".25" d="m.165 205.217-20.592-8.644c-.596-.249-.831-.848-.527-1.337.304-.488 1.033-.682 1.628-.432l20.593 8.643c.595.25.83.849.526 1.337-.304.489-1.033.683-1.628.433Z"/><path fill="#8E8790" fill-opacity=".12" d="m118.927 182.147-1.507 15.126c-.054.547-.638.954-1.304.909l-.761-.051c-.666-.045-1.162-.524-1.108-1.071l1.507-15.126c.054-.547.638-.954 1.304-.909l.761.051c.666.044 1.162.524 1.108 1.071ZM113.912 171.902l-1.506 15.125c-.054.547-.638.955-1.305.91l-.76-.051c-.667-.045-1.162-.525-1.108-1.071l1.506-15.126c.055-.547.639-.954 1.305-.91l.761.051c.666.045 1.162.525 1.107 1.072ZM108.828 162.38l-1.506 15.126c-.054.547-.638.954-1.305.909l-.76-.051c-.667-.045-1.162-.524-1.108-1.071l1.506-15.126c.055-.547.639-.954 1.305-.909l.761.051c.666.045 1.162.524 1.107 1.071ZM110.331 191.838c.876.058 1.528.689 1.457 1.409-.072.719-.84 1.255-1.716 1.196-.877-.059-1.529-.69-1.457-1.409.071-.72.84-1.255 1.716-1.196ZM105.37 181.062c.876.058 1.528.689 1.456 1.409-.071.719-.84 1.255-1.716 1.196-.876-.059-1.528-.69-1.457-1.409.072-.72.84-1.255 1.717-1.196ZM118.039 175.019c.876.058 1.528.689 1.457 1.409-.072.719-.84 1.255-1.716 1.196-.877-.059-1.529-.69-1.457-1.409.071-.72.84-1.255 1.716-1.196ZM113.064 164.388c.876.059 1.528.69 1.457 1.409-.072.72-.841 1.255-1.717 1.196-.876-.058-1.528-.69-1.456-1.409.071-.719.84-1.255 1.716-1.196Z"/><path fill="#D9D9D9" fill-opacity=".25" d="M36.731 118.953c2.277 2.361 1.791 5.79-1.084 7.659-2.875 1.869-7.051 1.471-9.327-.89-2.277-2.361-1.791-5.79 1.084-7.659 2.875-1.869 7.051-1.471 9.327.89Z"/><path stroke="#0F1B1B" stroke-miterlimit="10" stroke-opacity=".07" stroke-width="1.306" d="m101.016 217.199-1.213-.737c-2.622-1.592-6.32-1.137-8.258 1.017l-12.263 13.619c-1.938 2.153-1.384 5.189 1.238 6.781l16.587 10.069c2.622 1.592 6.319 1.137 8.257-1.016l.897-.996c1.301-1.445 3.782-1.75 5.541-.682l1.213.736c2.622 1.592 6.32 1.137 8.258-1.016l12.262-13.62c1.939-2.153 1.385-5.189-1.237-6.781l-16.587-10.069c-2.622-1.592-6.319-1.137-8.257 1.017l-.897.996c-1.301 1.444-3.782 1.75-5.541.682Z"/><path fill="#D9D9D9" fill-opacity=".25" d="m93.962 227.678-6.62 7.353c-.962 1.068-2.796 1.294-4.097.504l-8.955-5.436c-1.3-.79-1.576-2.296-.614-3.364l6.62-7.353c.962-1.068 2.796-1.294 4.097-.504l8.955 5.436c1.3.79 1.576 2.296.614 3.364Z"/><path fill="#0F1B1B" fill-opacity=".07" d="m422.5 289.069-53.128 30.677-22.012-50.194 53.128-30.677 22.012 50.194Zm-76.147-20.237-64.435 4.158 52.87-30.529 64.435-4.157-52.87 30.528Zm21.801 51.276-64.753 4.178-22.012-50.195 64.753-4.178 22.012 50.195Zm33.252-82.274-.012-.02a.487.487 0 0 0-.052-.076l-.004-.005-.008-.008-.035-.038c0-.017.003-.034.001-.051-.028-.293-.34-.511-.697-.488l-66.086 4.264c-.021.001-.04.006-.06.009-.016.002-.031.003-.047.007a.416.416 0 0 0-.063.017.58.58 0 0 0-.063.02l-.041.019c-.018.008-.037.015-.054.025l-54.225 31.31c-.292.169-.363.501-.157.741.013.015.028.027.042.04l.001.027v.03l.003.015a.386.386 0 0 0 .012.057c.005.017.009.034.016.05.002.006.002.011.005.017l22.459 51.213c.003.008.009.014.012.021.098.219.36.368.657.348l66.086-4.264c.01 0 .02-.003.031-.004l.038-.006.037-.005.046-.012a.143.143 0 0 0 .022-.004l.019-.007.04-.015a.255.255 0 0 0 .029-.013.437.437 0 0 0 .049-.023l.016-.007 54.226-31.311c.236-.136.324-.378.243-.593-.005-.014-.007-.028-.013-.042l-22.459-51.214-.014-.024Z"/><path fill="#D9D9D9" fill-opacity=".25" d="m363.506 370.453 8.355-3.479 4.237 6.861-12.592-3.382Zm17.927-9.806-8.355 3.479-4.236-6.86 12.591 3.381Zm-1.787 15.186c.018-.047.028-.095.038-.142.003-.017.01-.033.013-.049.004-.03.002-.061.003-.091.001-.035.005-.071.002-.107-.002-.017-.008-.033-.011-.05a.863.863 0 0 0-.116-.323l-5.611-9.086 11.02-4.588c.354-.095.651-.32.776-.633.208-.522-.139-1.083-.774-1.253l-18.166-4.879c-.635-.171-1.318.114-1.526.635-.019.047-.028.095-.038.142-.004.017-.01.033-.013.049-.005.031-.002.061-.003.091-.002.036-.005.071-.002.107.002.017.008.033.01.05a.848.848 0 0 0 .117.323l5.61 9.086-11.019 4.588c-.355.095-.652.32-.777.633-.207.522.139 1.083.774 1.253l18.166 4.879c.635.171 1.319-.114 1.527-.635ZM331.438 300.782l-20.592-8.644c-.595-.25-.831-.848-.527-1.337.304-.488 1.034-.682 1.629-.432l20.592 8.643c.595.25.831.849.527 1.337-.304.489-1.034.682-1.629.433ZM329.113 304.517l-20.592-8.643c-.595-.25-.831-.849-.527-1.337.304-.489 1.033-.682 1.628-.433l20.593 8.644c.595.249.831.848.526 1.337-.304.488-1.033.682-1.628.432ZM326.788 308.253l-20.592-8.644c-.595-.249-.831-.848-.527-1.337.305-.488 1.034-.682 1.629-.432l20.592 8.643c.595.25.831.849.527 1.337-.304.489-1.033.682-1.629.433ZM324.462 311.988l-20.592-8.643c-.595-.25-.831-.849-.527-1.337.304-.489 1.033-.682 1.629-.433l20.592 8.644c.595.25.831.848.527 1.337-.305.488-1.034.682-1.629.432ZM322.137 315.724l-20.592-8.644c-.595-.249-.831-.848-.527-1.337.304-.488 1.033-.682 1.628-.432l20.593 8.643c.595.25.83.849.526 1.337-.304.489-1.033.683-1.628.433ZM319.811 319.459l-20.592-8.643c-.596-.25-.831-.849-.527-1.337.304-.489 1.033-.682 1.628-.433l20.592 8.644c.595.249.831.848.527 1.337-.304.488-1.033.682-1.628.432ZM317.487 323.195l-20.593-8.644c-.595-.249-.83-.848-.526-1.337.304-.488 1.033-.682 1.628-.432l20.592 8.643c.595.25.831.849.527 1.337-.304.489-1.033.683-1.628.433ZM315.161 326.93l-20.592-8.643c-.595-.25-.831-.849-.527-1.337.304-.489 1.033-.682 1.628-.433l20.592 8.644c.595.25.831.848.527 1.337-.304.488-1.033.682-1.628.432ZM312.835 330.666l-20.592-8.644c-.595-.249-.831-.848-.527-1.337.304-.488 1.034-.682 1.629-.432l20.592 8.643c.595.25.831.849.527 1.337-.305.489-1.034.683-1.629.433ZM310.509 334.401l-20.592-8.643c-.595-.25-.831-.848-.527-1.337.304-.489 1.033-.682 1.628-.432l20.593 8.643c.595.25.831.848.526 1.337-.304.489-1.033.682-1.628.432ZM308.184 338.137l-20.592-8.644c-.595-.249-.831-.848-.527-1.337.304-.488 1.033-.682 1.628-.432l20.592 8.643c.595.25.831.849.527 1.337-.304.489-1.033.683-1.628.433ZM293.989 235.548l8.717 8.432c.432.418.37 1.045-.14 1.401-.509.355-1.273.303-1.706-.115l-8.716-8.432c-.432-.418-.37-1.045.139-1.401.51-.355 1.274-.303 1.706.115ZM284.588 232.254l8.716 8.432c.433.418.37 1.045-.139 1.4-.51.355-1.273.304-1.706-.114l-8.716-8.432c-.433-.419-.37-1.046.139-1.401.51-.355 1.273-.304 1.706.115ZM275.621 229.38l8.716 8.432c.433.419.37 1.046-.139 1.401-.51.355-1.273.304-1.706-.115l-8.716-8.432c-.433-.418-.37-1.045.139-1.401.51-.355 1.274-.303 1.706.115ZM295.525 244.369c.509-.355 1.273-.303 1.705.115.433.418.37 1.045-.139 1.4-.51.356-1.273.304-1.706-.114-.432-.418-.37-1.045.14-1.401ZM285.804 240.766c.509-.355 1.273-.303 1.706.115.432.418.37 1.045-.14 1.4-.509.356-1.273.304-1.706-.114-.432-.418-.37-1.046.14-1.401ZM288.657 231.927c.51-.356 1.274-.304 1.706.114.432.419.37 1.046-.139 1.401-.51.355-1.273.303-1.706-.115-.432-.418-.37-1.045.139-1.4ZM279.024 228.408c.51-.355 1.273-.304 1.706.114.432.419.37 1.046-.14 1.401-.509.355-1.273.304-1.705-.115-.433-.418-.37-1.045.139-1.4ZM450.2 277.711l-1.507 15.126c-.054.547-.638.954-1.304.91l-.761-.052c-.666-.044-1.162-.524-1.108-1.071l1.507-15.126c.054-.547.638-.954 1.304-.909l.761.051c.666.045 1.162.524 1.108 1.071ZM445.186 267.466l-1.506 15.126c-.054.547-.638.954-1.305.91l-.761-.051c-.665-.045-1.161-.525-1.107-1.072l1.506-15.125c.055-.547.639-.955 1.305-.91l.761.051c.666.045 1.162.524 1.107 1.071ZM440.101 257.945l-1.506 15.126c-.054.547-.638.954-1.305.909l-.76-.051c-.667-.045-1.162-.524-1.108-1.071l1.506-15.126c.055-.547.639-.954 1.305-.909l.761.051c.666.044 1.162.524 1.107 1.071ZM441.603 287.402c.877.059 1.529.69 1.457 1.41-.072.719-.84 1.255-1.716 1.196-.876-.059-1.528-.69-1.457-1.409.072-.72.84-1.255 1.716-1.197ZM436.643 276.626c.877.059 1.529.69 1.457 1.41-.072.719-.84 1.255-1.716 1.196-.876-.059-1.528-.69-1.457-1.409.072-.72.84-1.255 1.716-1.197ZM449.312 270.584c.877.058 1.529.689 1.457 1.409-.072.719-.84 1.255-1.716 1.196-.876-.059-1.528-.69-1.457-1.409.072-.72.84-1.255 1.716-1.196ZM444.338 259.952c.876.059 1.528.69 1.457 1.41-.072.719-.84 1.255-1.717 1.196-.876-.059-1.528-.69-1.456-1.409.071-.72.84-1.255 1.716-1.197ZM368.005 214.518c2.277 2.361 1.791 5.79-1.084 7.659-2.875 1.87-7.051 1.471-9.327-.89-2.277-2.361-1.791-5.79 1.084-7.659 2.875-1.869 7.051-1.471 9.327.89Z"/><path stroke="#0F1B1B" stroke-miterlimit="10" stroke-opacity=".07" stroke-width="2.613" d="m432.289 312.763-1.213-.736c-2.622-1.592-6.32-1.137-8.258 1.016l-12.263 13.62c-1.938 2.153-1.384 5.189 1.238 6.781l16.587 10.069c2.622 1.592 6.319 1.137 8.258-1.017l.896-.996c1.301-1.444 3.782-1.75 5.541-.682l1.213.737c2.622 1.592 6.32 1.137 8.258-1.017l12.262-13.619c1.939-2.153 1.385-5.189-1.237-6.781l-16.587-10.069c-2.622-1.592-6.319-1.137-8.258 1.016l-.896.997c-1.301 1.444-3.782 1.749-5.541.681Z"/><path fill="#D9D9D9" fill-opacity=".25" d="m425.236 323.242-6.621 7.354c-.961 1.068-2.795 1.294-4.096.504l-8.955-5.436c-1.301-.79-1.576-2.296-.614-3.364l6.621-7.353c.961-1.068 2.795-1.294 4.096-.504l8.955 5.436c1.301.79 1.576 2.295.614 3.363Z"/><path fill="#DADADA" fill-opacity=".25" d="m66.952 466.881-20.592-8.643c-.595-.25-.831-.848-.527-1.337.304-.489 1.033-.682 1.628-.432l20.592 8.643c.596.25.831.848.527 1.337-.304.489-1.033.682-1.628.432ZM64.627 470.617l-20.592-8.643c-.596-.25-.831-.849-.527-1.337.304-.489 1.033-.683 1.628-.433l20.592 8.644c.596.249.831.848.527 1.337-.304.488-1.033.682-1.628.432ZM62.3 474.352l-20.592-8.643c-.595-.25-.83-.848-.526-1.337.304-.489 1.033-.682 1.628-.432l20.592 8.643c.595.25.831.848.527 1.337-.304.489-1.033.682-1.628.432ZM59.975 478.088l-20.592-8.643c-.595-.25-.83-.849-.527-1.337.305-.489 1.034-.682 1.629-.433l20.592 8.644c.595.249.83.848.527 1.337-.304.488-1.033.682-1.629.432ZM57.65 481.824l-20.592-8.644c-.595-.249-.83-.848-.526-1.337.304-.488 1.033-.682 1.628-.432l20.592 8.643c.595.25.831.849.527 1.337-.304.489-1.033.682-1.628.433ZM55.325 485.559l-20.592-8.643c-.595-.25-.831-.849-.527-1.337.304-.489 1.033-.682 1.628-.433l20.592 8.644c.596.25.831.848.527 1.337-.304.488-1.033.682-1.628.432ZM53 489.295l-20.593-8.644c-.595-.249-.83-.848-.527-1.337.305-.488 1.034-.682 1.629-.432l20.592 8.643c.595.25.83.849.527 1.337-.304.489-1.034.683-1.629.433ZM50.673 493.03l-20.592-8.643c-.595-.25-.83-.848-.527-1.337.304-.489 1.033-.682 1.629-.432l20.592 8.643c.595.25.83.848.526 1.337-.304.489-1.033.682-1.628.432ZM48.349 496.766l-20.592-8.644c-.595-.249-.831-.848-.527-1.337.304-.488 1.033-.682 1.628-.432l20.593 8.643c.595.25.83.849.526 1.337-.304.489-1.033.683-1.628.433ZM46.023 500.501l-20.593-8.643c-.595-.25-.83-.849-.526-1.337.304-.489 1.033-.682 1.628-.433l20.592 8.644c.595.249.831.848.527 1.337-.304.488-1.033.682-1.628.432ZM43.698 504.237l-20.592-8.644c-.595-.249-.831-.848-.527-1.337.304-.488 1.033-.682 1.628-.432l20.593 8.643c.595.25.83.849.526 1.337-.304.489-1.033.682-1.628.433Z"/><path fill="#8E8790" fill-opacity=".12" d="m29.502 401.648 8.716 8.432c.433.418.37 1.045-.14 1.401-.509.355-1.272.303-1.705-.115l-8.716-8.432c-.433-.418-.37-1.045.14-1.401.509-.355 1.272-.303 1.705.115ZM20.1 398.354l8.717 8.432c.433.418.37 1.045-.14 1.4-.509.355-1.272.304-1.705-.114l-8.716-8.432c-.433-.419-.37-1.046.14-1.401.509-.355 1.272-.304 1.705.115ZM11.134 395.48l8.717 8.432c.432.418.37 1.045-.14 1.401-.51.355-1.273.303-1.706-.115l-8.716-8.432c-.432-.418-.37-1.045.14-1.401.509-.355 1.272-.303 1.705.115ZM31.038 410.469c.51-.355 1.273-.304 1.705.115.433.418.37 1.045-.139 1.4-.51.355-1.273.304-1.706-.114-.432-.419-.37-1.046.14-1.401ZM21.318 406.866c.51-.355 1.273-.304 1.705.115.433.418.37 1.045-.14 1.4-.509.355-1.272.304-1.705-.114-.432-.419-.37-1.046.14-1.401ZM24.172 398.026c.51-.355 1.273-.303 1.706.115.432.418.37 1.045-.14 1.4-.51.356-1.273.304-1.705-.114-.433-.418-.37-1.045.14-1.401ZM14.538 394.507c.51-.355 1.273-.303 1.706.115.432.418.37 1.045-.14 1.4-.509.356-1.273.304-1.705-.114-.432-.418-.37-1.045.14-1.401Z"/><path fill="#D9D9D9" fill-opacity=".25" d="m185.713 443.812-1.506 15.125c-.055.547-.639.954-1.305.91l-.761-.051c-.666-.045-1.162-.525-1.107-1.072l1.506-15.125c.055-.547.639-.955 1.305-.91l.761.051c.666.045 1.162.525 1.107 1.072ZM180.701 433.566l-1.507 15.126c-.054.547-.638.954-1.304.909l-.761-.051c-.667-.044-1.162-.524-1.108-1.071l1.507-15.126c.054-.547.638-.954 1.304-.909l.761.051c.666.045 1.162.524 1.108 1.071ZM175.614 424.045l-1.506 15.126c-.055.547-.639.954-1.305.909l-.761-.051c-.666-.045-1.162-.525-1.107-1.071l1.506-15.126c.055-.547.639-.954 1.305-.91l.761.051c.666.045 1.162.525 1.107 1.072ZM177.117 453.502c.876.059 1.529.69 1.457 1.409-.072.72-.84 1.255-1.716 1.197-.877-.059-1.529-.69-1.457-1.41.072-.719.84-1.255 1.716-1.196ZM172.157 442.726c.876.059 1.529.69 1.457 1.41-.072.719-.84 1.255-1.716 1.196-.877-.059-1.529-.69-1.457-1.409.072-.72.84-1.256 1.716-1.197ZM184.826 436.684c.876.058 1.529.689 1.457 1.409-.072.719-.84 1.255-1.716 1.196-.877-.059-1.529-.69-1.457-1.409.071-.72.84-1.255 1.716-1.196ZM179.85 426.052c.877.059 1.529.69 1.457 1.41-.071.719-.84 1.255-1.716 1.196-.876-.059-1.528-.69-1.457-1.409.072-.72.84-1.255 1.716-1.197ZM103.518 380.618c2.276 2.361 1.791 5.79-1.084 7.659-2.876 1.87-7.052 1.471-9.328-.89s-1.79-5.79 1.085-7.659c2.875-1.869 7.051-1.471 9.327.89Z"/><path stroke="#0F1B1B" stroke-miterlimit="10" stroke-opacity=".07" stroke-width="1.306" d="m207.925 467.882-1.213-.737c-2.622-1.592-6.319-1.137-8.258 1.017l-12.262 13.619c-1.939 2.153-1.385 5.189 1.237 6.781l16.587 10.069c2.622 1.592 6.319 1.137 8.258-1.016l.896-.996c1.301-1.445 3.782-1.75 5.541-.682l1.213.736c2.623 1.592 6.32 1.137 8.259-1.016l12.262-13.62c1.938-2.153 1.384-5.189-1.238-6.781l-16.586-10.069c-2.623-1.592-6.32-1.137-8.258 1.017l-.897.996c-1.301 1.444-3.782 1.75-5.541.682ZM375.098 176.865l-1.213-.737c-2.622-1.592-6.319-1.137-8.258 1.017l-12.262 13.619c-1.939 2.153-1.384 5.189 1.238 6.781l16.586 10.069c2.622 1.592 6.32 1.137 8.258-1.017l.897-.996c1.301-1.444 3.781-1.75 5.541-.681l1.213.736c2.622 1.592 6.319 1.137 8.258-1.016l12.262-13.62c1.939-2.153 1.384-5.189-1.238-6.781l-16.586-10.069c-2.622-1.592-6.32-1.137-8.258 1.017l-.897.996c-1.3 1.444-3.781 1.75-5.541.682Z"/><path fill="#D9D9D9" fill-opacity=".25" d="m160.749 489.342-6.62 7.354c-.962 1.068-2.796 1.294-4.097.504l-8.955-5.436c-1.301-.79-1.576-2.296-.614-3.364l6.621-7.353c.961-1.068 2.795-1.294 4.096-.504l8.955 5.436c1.301.79 1.576 2.295.614 3.363ZM676.799 232.193l8.355-3.479 4.236 6.861-12.591-3.382Zm17.927-9.805-8.355 3.479-4.237-6.861 12.592 3.382Zm-1.788 15.185c.019-.047.028-.094.038-.142.004-.016.01-.032.013-.049.004-.03.002-.06.003-.09.001-.036.005-.071.002-.107-.002-.017-.008-.033-.01-.05a.853.853 0 0 0-.117-.324l-5.61-9.085 11.019-4.589c.354-.095.652-.32.777-.633.207-.521-.139-1.082-.774-1.253l-18.166-4.879c-.635-.17-1.319.114-1.526.636a.728.728 0 0 0-.038.142c-.004.016-.011.032-.014.049-.004.03-.002.06-.003.09-.001.036-.005.071-.002.107.002.017.008.033.011.05.017.11.052.219.116.324l5.611 9.085-11.02 4.589c-.354.095-.651.32-.776.633-.208.521.139 1.082.774 1.253l18.166 4.879c.635.17 1.318-.114 1.526-.636ZM644.731 162.522l-20.593-8.643c-.595-.25-.83-.849-.526-1.337.304-.489 1.033-.682 1.628-.433l20.593 8.644c.595.25.83.848.526 1.337-.304.488-1.033.682-1.628.432ZM642.405 166.258l-20.592-8.644c-.595-.249-.831-.848-.527-1.337.304-.488 1.033-.682 1.629-.432l20.592 8.643c.595.25.831.849.527 1.337-.305.489-1.034.683-1.629.433ZM640.081 169.993l-20.593-8.643c-.595-.25-.831-.848-.526-1.337.304-.489 1.033-.682 1.628-.432l20.592 8.643c.595.25.831.848.527 1.337-.304.489-1.033.682-1.628.432ZM789.072 173.729l-20.593-8.644c-.595-.249-.83-.848-.526-1.337.304-.488 1.033-.682 1.628-.432l20.592 8.643c.595.25.831.849.527 1.337-.304.489-1.033.682-1.628.433ZM635.429 177.464l-20.592-8.643c-.595-.25-.831-.848-.527-1.337.304-.489 1.033-.682 1.628-.432l20.593 8.643c.595.25.83.848.526 1.337-.304.489-1.033.682-1.628.432ZM633.104 181.2l-20.593-8.643c-.595-.25-.831-.849-.526-1.337.304-.489 1.033-.683 1.628-.433l20.592 8.644c.595.249.831.848.527 1.337-.304.488-1.033.682-1.628.432ZM630.779 184.935l-20.593-8.643c-.595-.25-.83-.848-.526-1.337.304-.489 1.033-.682 1.628-.432l20.592 8.643c.595.25.831.848.527 1.337-.304.489-1.033.682-1.628.432ZM628.453 188.671l-20.593-8.643c-.595-.25-.831-.849-.526-1.337.304-.489 1.033-.682 1.628-.433l20.592 8.644c.595.249.831.848.527 1.337-.304.488-1.033.682-1.628.432ZM626.127 192.407l-20.592-8.644c-.595-.249-.831-.848-.527-1.337.305-.488 1.034-.682 1.629-.432l20.592 8.643c.595.25.831.849.527 1.337-.304.489-1.033.682-1.629.433ZM623.802 196.142l-20.592-8.644c-.595-.249-.831-.848-.527-1.337.304-.488 1.033-.682 1.628-.432l20.593 8.643c.595.25.831.849.526 1.337-.304.489-1.033.683-1.628.433ZM621.477 199.878l-20.592-8.644c-.596-.249-.831-.848-.527-1.337.304-.488 1.033-.682 1.628-.432l20.593 8.643c.595.25.83.849.526 1.337-.304.489-1.033.682-1.628.433ZM607.281 97.289l8.717 8.432c.432.418.37 1.045-.14 1.401-.509.355-1.273.303-1.706-.115l-8.716-8.432c-.432-.419-.37-1.046.139-1.4.51-.356 1.274-.304 1.706.114ZM597.88 93.994l8.717 8.432c.432.419.37 1.046-.14 1.401-.509.355-1.273.304-1.705-.115l-8.717-8.432c-.432-.418-.37-1.045.14-1.4.509-.355 1.273-.304 1.705.114ZM588.912 91.12l8.717 8.433c.432.418.37 1.045-.14 1.4-.509.355-1.273.304-1.705-.114l-8.717-8.433c-.432-.418-.37-1.045.14-1.4.509-.355 1.273-.304 1.705.114ZM608.817 106.11c.51-.355 1.273-.304 1.706.115.432.418.37 1.045-.14 1.4-.509.355-1.273.304-1.705-.114-.433-.419-.37-1.046.139-1.401ZM599.096 102.507c.509-.355 1.273-.304 1.706.115.432.418.37 1.045-.14 1.4-.509.355-1.273.304-1.706-.114-.432-.419-.37-1.046.14-1.401ZM601.95 93.667c.51-.355 1.274-.304 1.706.114.432.419.37 1.046-.139 1.4-.51.356-1.273.305-1.706-.114-.432-.418-.37-1.045.139-1.4ZM592.317 90.148c.509-.355 1.273-.303 1.705.115.433.418.37 1.045-.139 1.4-.51.355-1.273.304-1.706-.114-.432-.419-.37-1.046.14-1.4ZM763.493 139.452l-1.507 15.126c-.054.547-.638.954-1.304.909l-.761-.051c-.667-.044-1.162-.524-1.108-1.071l1.507-15.126c.054-.547.638-.954 1.304-.909l.761.051c.666.045 1.162.524 1.108 1.071ZM758.478 129.207l-1.506 15.126c-.054.547-.638.954-1.305.909l-.761-.051c-.666-.045-1.161-.525-1.107-1.071l1.506-15.126c.055-.547.639-.954 1.305-.909l.761.051c.666.044 1.162.524 1.107 1.071ZM753.394 119.686l-1.506 15.125c-.055.547-.639.955-1.305.91l-.761-.051c-.666-.045-1.162-.525-1.107-1.072l1.506-15.125c.054-.547.638-.954 1.305-.91l.76.051c.667.045 1.162.525 1.108 1.072ZM754.896 149.143c.877.059 1.529.69 1.457 1.409-.071.72-.84 1.255-1.716 1.196-.876-.058-1.528-.69-1.457-1.409.072-.719.84-1.255 1.716-1.196ZM749.936 138.367c.877.059 1.529.69 1.457 1.409-.071.72-.84 1.255-1.716 1.197-.876-.059-1.528-.69-1.457-1.41.072-.719.84-1.255 1.716-1.196ZM762.605 132.324c.877.059 1.529.69 1.457 1.41-.071.719-.84 1.255-1.716 1.196-.876-.059-1.528-.69-1.457-1.409.072-.72.84-1.255 1.716-1.197ZM757.63 121.693c.877.059 1.529.69 1.457 1.409-.072.72-.84 1.255-1.716 1.196-.876-.058-1.529-.689-1.457-1.409.072-.719.84-1.255 1.716-1.196ZM681.298 76.259c2.276 2.36 1.791 5.79-1.085 7.659-2.875 1.87-7.051 1.47-9.327-.89-2.276-2.361-1.791-5.79 1.084-7.66 2.875-1.869 7.052-1.47 9.328.89Z"/><path stroke="#0F1B1B" stroke-miterlimit="10" stroke-opacity=".07" stroke-width="1.306" d="m278.132 101.194-1.247-.677c-2.696-1.463-6.367-.828-8.199 1.416l-11.586 14.2c-1.832 2.245-1.13 5.25 1.566 6.713l17.056 9.251c2.697 1.462 6.367.828 8.199-1.417l.847-1.038c1.229-1.507 3.692-1.932 5.501-.951l1.248.677c2.696 1.462 6.367.828 8.199-1.417l11.586-14.199c1.831-2.245 1.13-5.25-1.566-6.713l-17.056-9.25c-2.697-1.463-6.368-.83-8.199 1.416l-.847 1.038c-1.229 1.506-3.692 1.932-5.502.951Z"/><path fill="#D9D9D9" fill-opacity=".25" d="m738.529 184.983-6.621 7.353c-.961 1.068-2.795 1.294-4.096.505l-8.955-5.437c-1.301-.789-1.576-2.296-.614-3.363l6.621-7.354c.961-1.068 2.795-1.294 4.096-.504l8.955 5.436c1.301.79 1.576 2.296.614 3.364ZM688.224 485.715l8.356-3.479 4.236 6.861-12.592-3.382Zm17.928-9.805-8.356 3.479-4.236-6.861 12.592 3.382Zm-1.788 15.185c.019-.047.028-.094.038-.142.003-.016.01-.032.013-.049.004-.03.002-.06.003-.09.001-.036.005-.071.002-.107-.002-.017-.008-.033-.01-.05a.87.87 0 0 0-.117-.324l-5.611-9.085 11.02-4.589c.354-.095.652-.32.776-.633.208-.521-.138-1.082-.774-1.253l-18.166-4.879c-.635-.17-1.318.114-1.526.636-.019.047-.028.094-.038.142-.003.016-.01.032-.013.049-.004.03-.002.06-.003.09-.001.036-.005.071-.002.107.002.017.008.033.01.05.018.11.053.219.117.324l5.611 9.085-11.02 4.589c-.354.095-.652.32-.776.633-.208.521.138 1.082.774 1.253l18.166 4.879c.635.17 1.318-.114 1.526-.636ZM656.157 416.044l-20.592-8.643c-.595-.25-.831-.848-.527-1.337.304-.489 1.033-.682 1.628-.432l20.593 8.643c.595.25.83.848.526 1.337-.304.489-1.033.682-1.628.432ZM653.832 419.78l-20.592-8.643c-.596-.25-.831-.849-.527-1.337.304-.489 1.033-.683 1.628-.433l20.593 8.644c.595.249.83.848.526 1.337-.304.488-1.033.682-1.628.432ZM651.507 423.516l-20.593-8.644c-.595-.25-.831-.848-.526-1.337.304-.488 1.033-.682 1.628-.432l20.592 8.643c.595.25.831.849.527 1.337-.304.489-1.033.682-1.628.433ZM649.181 427.251l-20.593-8.643c-.595-.25-.831-.849-.526-1.337.304-.489 1.033-.683 1.628-.433l20.592 8.643c.595.25.831.849.527 1.337-.304.489-1.033.683-1.628.433ZM646.855 430.986l-20.592-8.643c-.595-.25-.831-.848-.527-1.337.304-.489 1.034-.682 1.629-.432l20.592 8.643c.595.25.831.848.527 1.337-.304.489-1.034.682-1.629.432ZM644.53 434.722l-20.592-8.644c-.595-.249-.831-.848-.527-1.337.304-.488 1.033-.682 1.629-.432l20.592 8.643c.595.25.831.849.527 1.337-.305.489-1.034.683-1.629.433ZM642.205 438.457l-20.592-8.643c-.595-.25-.831-.848-.527-1.337.304-.489 1.033-.682 1.628-.432l20.592 8.643c.596.25.831.848.527 1.337-.304.489-1.033.682-1.628.432ZM639.879 442.193l-20.592-8.643c-.595-.25-.831-.849-.527-1.337.304-.489 1.033-.683 1.629-.433l20.592 8.644c.595.249.831.848.527 1.337-.305.488-1.034.682-1.629.432ZM637.554 445.929l-20.593-8.644c-.595-.25-.831-.848-.526-1.337.304-.489 1.033-.682 1.628-.432l20.592 8.643c.595.25.831.848.527 1.337-.304.489-1.033.682-1.628.433ZM635.228 449.664l-20.592-8.643c-.595-.25-.831-.849-.527-1.337.304-.489 1.033-.683 1.628-.433l20.592 8.644c.595.249.831.848.527 1.337-.304.488-1.033.682-1.628.432ZM632.903 453.4l-20.592-8.644c-.595-.249-.831-.848-.527-1.337.304-.488 1.033-.682 1.628-.432l20.593 8.643c.595.25.831.849.526 1.337-.304.489-1.033.682-1.628.433ZM618.708 350.811l8.716 8.432c.433.418.37 1.045-.139 1.4-.51.355-1.273.304-1.706-.114l-8.716-8.433c-.433-.418-.37-1.045.139-1.4.51-.355 1.273-.304 1.706.115ZM609.306 347.516l8.717 8.432c.432.419.369 1.046-.14 1.401-.51.355-1.273.304-1.706-.115l-8.716-8.432c-.433-.418-.37-1.045.139-1.4.51-.355 1.274-.304 1.706.114ZM600.339 344.643l8.717 8.432c.432.418.37 1.045-.14 1.401-.509.355-1.273.303-1.706-.115l-8.716-8.432c-.432-.419-.37-1.046.14-1.401.509-.355 1.273-.304 1.705.115ZM620.243 359.632c.51-.355 1.273-.304 1.706.115.432.418.37 1.045-.139 1.4-.51.355-1.274.304-1.706-.114-.432-.419-.37-1.046.139-1.401ZM610.522 356.029c.51-.355 1.273-.304 1.706.114.432.419.37 1.046-.14 1.401-.509.355-1.273.304-1.705-.115-.433-.418-.37-1.045.139-1.4ZM613.377 347.189c.509-.355 1.273-.304 1.705.115.433.418.37 1.045-.139 1.4-.51.355-1.273.304-1.706-.114-.432-.419-.37-1.046.14-1.401ZM603.743 343.67c.51-.355 1.273-.304 1.706.115.432.418.37 1.045-.139 1.4-.51.355-1.274.304-1.706-.114-.432-.419-.37-1.046.139-1.401ZM769.905 382.729l-1.506 15.126c-.055.547-.639.954-1.305.909l-.761-.051c-.666-.045-1.162-.524-1.107-1.071l1.506-15.126c.055-.547.639-.954 1.305-.909l.761.051c.666.045 1.162.524 1.107 1.071ZM764.82 373.207l-1.506 15.126c-.055.547-.639.954-1.305.91l-.761-.051c-.666-.045-1.162-.525-1.107-1.072l1.506-15.126c.055-.547.639-.954 1.305-.909l.761.051c.666.045 1.162.524 1.107 1.071ZM766.322 402.665c.876.059 1.529.689 1.457 1.409-.072.72-.84 1.255-1.716 1.196-.876-.059-1.529-.69-1.457-1.409.072-.719.84-1.255 1.716-1.196ZM761.363 391.889c.876.059 1.528.69 1.457 1.409-.072.72-.84 1.255-1.717 1.196-.876-.058-1.528-.69-1.457-1.409.072-.719.84-1.255 1.717-1.196ZM769.056 375.215c.876.059 1.528.69 1.457 1.409-.072.72-.84 1.255-1.716 1.196-.877-.058-1.529-.689-1.457-1.409.071-.719.84-1.255 1.716-1.196ZM692.724 329.781c2.276 2.361 1.791 5.79-1.085 7.659-2.875 1.869-7.051 1.471-9.327-.89-2.277-2.361-1.791-5.79 1.084-7.659 2.875-1.869 7.051-1.471 9.328.89Z"/><path stroke="#0F1B1B" stroke-miterlimit="10" stroke-opacity=".07" stroke-width="1.306" d="m757.008 428.026-1.213-.736c-2.623-1.592-6.32-1.137-8.258 1.016l-12.263 13.62c-1.938 2.153-1.384 5.189 1.238 6.781l16.586 10.068c2.623 1.592 6.32 1.137 8.258-1.016l.897-.996c1.301-1.445 3.782-1.75 5.541-.682l1.213.737c2.622 1.591 6.319 1.136 8.258-1.017l12.262-13.619c1.939-2.154 1.385-5.189-1.238-6.781l-16.586-10.069c-2.622-1.592-6.319-1.137-8.258 1.016l-.897.996c-1.3 1.445-3.781 1.75-5.54.682Z"/><path fill="#D9D9D9" fill-opacity=".25" d="m749.954 438.505-6.62 7.354c-.962 1.068-2.796 1.293-4.097.504l-8.955-5.437c-1.301-.789-1.575-2.295-.614-3.363l6.621-7.354c.961-1.068 2.796-1.293 4.096-.504l8.955 5.437c1.301.789 1.576 2.295.614 3.363ZM309.923 104.663l-6.621 7.353c-.961 1.068-2.795 1.294-4.096.504l-8.955-5.436c-1.301-.79-1.576-2.296-.614-3.363l6.621-7.354c.961-1.068 2.795-1.294 4.096-.504l8.955 5.436c1.301.79 1.576 2.296.614 3.364Z"/></g></g><circle cx="625" cy="414" r="25" fill="url(#h)"/><circle cx="550" cy="434" r="12" fill="url(#i)"/><circle cx="718" cy="367" r="40" fill="url(#j)"/><path fill="#DCDCDC" d="M26 62h.565v1.129H26z"/></g><defs><radialGradient id="h" cx="0" cy="0" r="1" gradientTransform="rotate(59.144 -46.434 741.454) scale(42.1998)" gradientUnits="userSpaceOnUse"><stop stop-color="#9EECE5" stop-opacity=".48"/><stop offset=".605" stop-color="#9EECE5"/><stop offset=".796" stop-color="#72DFDD"/><stop offset="1" stop-color="#51BBF6"/></radialGradient><radialGradient id="i" cx="0" cy="0" r="1" gradientTransform="rotate(59.144 -104.608 693.829) scale(20.2559)" gradientUnits="userSpaceOnUse"><stop stop-color="#9EECE5" stop-opacity=".48"/><stop offset=".605" stop-color="#9EECE5"/><stop offset=".796" stop-color="#72DFDD"/><stop offset="1" stop-color="#51BBF6"/></radialGradient><radialGradient id="j" cx="0" cy="0" r="1" gradientTransform="rotate(59.144 45 790.138) scale(67.5197)" gradientUnits="userSpaceOnUse"><stop stop-color="#FBB5D7" stop-opacity=".37"/><stop offset=".605" stop-color="#F8A4CD"/><stop offset=".796" stop-color="#E571C7"/><stop offset="1" stop-color="#515BF6"/></radialGradient><clipPath id="a"><path fill="#fff" d="M0 0h768v513H0z"/></clipPath><clipPath id="b"><path fill="#fff" d="M-121.767 66h1011.07v467h-1011.07z"/></clipPath></defs></svg>