<svg xmlns="http://www.w3.org/2000/svg" width="1268" height="406" fill="none"><mask id="a" fill="#fff"><path fill-rule="evenodd" d="M1171.26 0c53.43 0 96.74 43.311 96.74 96.738s-43.31 96.739-96.74 96.739H828c-55.228 0-100-44.772-100-100V306c0 55.228-44.772 100-100 100H30c-16.569 0-30-13.431-30-30V100C0 44.772 44.772 0 100 0h1071.26Z" clip-rule="evenodd"/></mask><path fill="#212439" fill-rule="evenodd" d="M1171.26 0c53.43 0 96.74 43.311 96.74 96.738s-43.31 96.739-96.74 96.739H828c-55.228 0-100-44.772-100-100V306c0 55.228-44.772 100-100 100H30c-16.569 0-30-13.431-30-30V100C0 44.772 44.772 0 100 0h1071.26Z" clip-rule="evenodd"/><path fill="#212121" d="M1267 96.738C1267 43.864 1224.14 1 1171.26 1v-2c53.98 0 97.74 43.759 97.74 97.738h-2Zm-95.74 95.739c52.88 0 95.74-42.864 95.74-95.739h2c0 53.98-43.76 97.739-97.74 97.739v-2Zm-343.26 0h343.26v2H828v-2Zm-99-99c0 54.676 44.324 99 99 99v2c-55.781 0-101-45.22-101-101h2ZM727 306V93.476h2V306h-2Zm-99 99c54.676 0 99-44.324 99-99h2c0 55.781-45.219 101-101 101v-2Zm-598 0h598v2H30v-2ZM1 376c0 16.016 12.984 29 29 29v2c-17.12 0-31-13.879-31-31h2Zm0-276v276h-2V100h2Zm99-99C45.324 1 1 45.324 1 100h-2C-1 44.22 44.22-1 100-1v2Zm628 0H100v-2h628v2Zm443.26 0H728v-2h443.26v2Z" mask="url(#a)"/></svg>