<svg xmlns="http://www.w3.org/2000/svg" width="375" height="700" fill="none"><mask id="a" fill="#fff"><path fill-rule="evenodd" d="M0 56.31C0 25.21 25.21 0 56.31 0H318.69C349.79 0 375 25.21 375 56.31v486.918c0 31.099-25.21 56.309-56.309 56.309H154.893c-9.33 0-16.893 7.563-16.893 16.893v66.677c0 9.33-7.563 16.893-16.893 16.893H56.309C25.211 700 0 674.79 0 643.691V56.309Z" clip-rule="evenodd"/></mask><path fill="#212439" fill-rule="evenodd" d="M0 56.31C0 25.21 25.21 0 56.31 0H318.69C349.79 0 375 25.21 375 56.31v486.918c0 31.099-25.21 56.309-56.309 56.309H154.893c-9.33 0-16.893 7.563-16.893 16.893v66.677c0 9.33-7.563 16.893-16.893 16.893H56.309C25.211 700 0 674.79 0 643.691V56.309Z" clip-rule="evenodd"/><path fill="#212121" d="M56.31.563C25.52.563.562 25.521.562 56.31H-.563C-.563 24.9 24.899-.563 56.309-.563V.563Zm262.381 0H56.309V-.563h262.382V.563Zm55.746 55.746c0-30.788-24.958-55.746-55.746-55.746V-.563c31.41 0 56.872 25.462 56.872 56.872h-1.126Zm0 486.919V56.309h1.126v486.919h-1.126Zm-55.746 55.746c30.788 0 55.746-24.958 55.746-55.746h1.126c0 31.41-25.462 56.872-56.872 56.872v-1.126Zm-163.798 0h163.798v1.126H154.893v-1.126Zm-17.456 84.133V616.43h1.126v66.677h-1.126Zm-16.33 16.33c9.019 0 16.33-7.311 16.33-16.33h1.126c0 9.641-7.815 17.456-17.456 17.456v-1.126Zm-64.798 0h64.798v1.126H56.309v-1.126ZM.563 643.691c0 30.788 24.958 55.746 55.746 55.746v1.126c-31.41 0-56.872-25.462-56.872-56.872H.563Zm0-44.154v44.154H-.563v-44.154H.563Zm0-203.086v203.086H-.563V396.451H.563Zm0-340.142v340.142H-.563V56.309H.563ZM154.893 600.1c-9.019 0-16.33 7.311-16.33 16.33h-1.126c0-9.641 7.815-17.456 17.456-17.456v1.126Z" mask="url(#a)"/></svg>