<svg width="375" height="648" viewBox="0 0 375 648" fill="none" xmlns="http://www.w3.org/2000/svg">
<mask id="path-1-inside-1_254_2945" fill="white">
<path fill-rule="evenodd" clip-rule="evenodd" d="M0 56.3091C0 25.2105 25.2105 0 56.3091 0L318.691 0C349.79 0 375 25.2105 375 56.3091L375 498.691C375 529.79 349.79 555 318.691 555H154.893C145.563 555 138 562.563 138 571.893V631.107C138 640.437 130.437 648 121.107 648H56.3091C25.2105 648 0 622.79 0 591.691L0 555L0 367L0 56.3091Z"/>
</mask>
<path fill-rule="evenodd" clip-rule="evenodd" d="M0 56.3091C0 25.2105 25.2105 0 56.3091 0L318.691 0C349.79 0 375 25.2105 375 56.3091L375 498.691C375 529.79 349.79 555 318.691 555H154.893C145.563 555 138 562.563 138 571.893V631.107C138 640.437 130.437 648 121.107 648H56.3091C25.2105 648 0 622.79 0 591.691L0 555L0 367L0 56.3091Z" fill="#212439"/>
<path d="M56.3091 0.563091C25.5214 0.563091 0.563091 25.5214 0.563091 56.3091H-0.563091C-0.563091 24.8995 24.8995 -0.563091 56.3091 -0.563091V0.563091ZM318.691 0.563091L56.3091 0.563091V-0.563091L318.691 -0.563091V0.563091ZM374.437 56.3091C374.437 25.5214 349.479 0.563091 318.691 0.563091V-0.563091C350.101 -0.563091 375.563 24.8995 375.563 56.3091H374.437ZM374.437 498.691L374.437 56.3091H375.563L375.563 498.691H374.437ZM318.691 554.437C349.479 554.437 374.437 529.479 374.437 498.691H375.563C375.563 530.101 350.101 555.563 318.691 555.563V554.437ZM154.893 554.437H318.691V555.563H154.893V554.437ZM137.437 631.107V571.893H138.563V631.107H137.437ZM121.107 647.437C130.126 647.437 137.437 640.126 137.437 631.107H138.563C138.563 640.748 130.748 648.563 121.107 648.563V647.437ZM56.3091 647.437H121.107V648.563H56.3091V647.437ZM0.563091 591.691C0.563091 622.479 25.5215 647.437 56.3091 647.437V648.563C24.8995 648.563 -0.563091 623.101 -0.563091 591.691H0.563091ZM0.563091 555L0.563091 591.691H-0.563091L-0.563091 555H0.563091ZM0.563091 367L0.563091 555H-0.563091L-0.563091 367H0.563091ZM0.563091 56.3091L0.563091 367H-0.563091L-0.563091 56.3091H0.563091ZM154.893 555.563C145.874 555.563 138.563 562.874 138.563 571.893H137.437C137.437 562.252 145.252 554.437 154.893 554.437V555.563Z" fill="#212121" mask="url(#path-1-inside-1_254_2945)"/>
</svg>
