<svg width="768" height="513" viewBox="0 0 768 513" fill="none" xmlns="http://www.w3.org/2000/svg">
<g clip-path="url(#clip0_221_5667)">
<g clip-path="url(#clip1_221_5667)">
<mask id="mask0_221_5667" style="mask-type:luminance" maskUnits="userSpaceOnUse" x="-122" y="66" width="1012" height="467">
<path d="M-121.767 66H889.305V533H-121.767V66Z" fill="white"/>
</mask>
<g mask="url(#mask0_221_5667)">
<path d="M260.705 157.46L247.705 156.588C247.379 156.565 247.074 156.656 246.844 156.819C246.611 156.979 246.453 157.211 246.426 157.479L245.458 167.203L233.615 166.408C233.289 166.386 232.984 166.477 232.754 166.64C232.521 166.799 232.362 167.032 232.336 167.3L231.366 177.043L219.5 176.246C219.174 176.224 218.869 176.315 218.639 176.478C218.406 176.637 218.248 176.87 218.221 177.138L217.252 186.862L205.41 186.067C205.084 186.045 204.779 186.135 204.549 186.298C204.316 186.458 204.157 186.691 204.131 186.959L203.068 197.632C203.015 198.162 203.495 198.627 204.14 198.67C204.785 198.713 205.351 198.319 205.403 197.789L206.372 188.062L218.218 188.857C218.544 188.879 218.848 188.79 219.078 188.627C219.309 188.468 219.467 188.236 219.494 187.969L220.462 178.241L232.308 179.037C232.64 179.059 232.949 178.965 233.179 178.797C233.418 178.637 233.581 178.403 233.608 178.131L234.577 168.403L246.423 169.199C246.749 169.221 247.053 169.131 247.283 168.969C247.515 168.809 247.672 168.577 247.699 168.31L248.667 158.583L260.514 159.378C261.158 159.422 261.724 159.027 261.777 158.498C261.83 157.968 261.35 157.504 260.705 157.46Z" fill="#0F1B1B" fill-opacity="0.07"/>
<path d="M616.938 260.785L603.939 259.912C603.612 259.89 603.307 259.98 603.078 260.143C602.845 260.303 602.686 260.535 602.659 260.803L601.691 270.528L589.849 269.732C589.522 269.711 589.217 269.801 588.987 269.964C588.754 270.123 588.596 270.356 588.569 270.624L587.599 280.367L575.734 279.57C575.407 279.548 575.102 279.639 574.873 279.802C574.64 279.961 574.481 280.194 574.454 280.462L573.486 290.186L561.643 289.391C561.317 289.369 561.012 289.46 560.782 289.623C560.549 289.782 560.391 290.015 560.364 290.283L559.301 300.957C559.248 301.486 559.729 301.951 560.374 301.994C561.019 302.037 561.584 301.643 561.637 301.114L562.605 291.386L574.452 292.182C574.777 292.203 575.082 292.114 575.311 291.952C575.543 291.792 575.7 291.56 575.727 291.293L576.696 281.566L588.542 282.361C588.873 282.383 589.182 282.289 589.413 282.121C589.651 281.962 589.815 281.727 589.842 281.455L590.811 271.728L602.657 272.523C602.982 272.545 603.287 272.455 603.516 272.293C603.748 272.133 603.905 271.901 603.932 271.634L604.901 261.907L616.747 262.702C617.392 262.746 617.957 262.352 618.01 261.822C618.063 261.292 617.583 260.828 616.938 260.785Z" fill="#0F1B1B" fill-opacity="0.07"/>
<path d="M526.976 413.619L518.536 405.454C518.324 405.249 518.03 405.136 517.728 405.118C517.426 405.095 517.113 405.168 516.864 405.342L507.805 411.656L500.116 404.217C499.904 404.012 499.61 403.899 499.308 403.881C499.006 403.859 498.693 403.931 498.444 404.105L489.368 410.431L481.663 402.978C481.452 402.773 481.158 402.66 480.855 402.642C480.553 402.62 480.241 402.692 479.991 402.866L470.932 409.18L463.243 401.742C463.031 401.537 462.738 401.423 462.435 401.405C462.133 401.383 461.821 401.455 461.571 401.629L451.627 408.56C451.134 408.904 451.073 409.511 451.492 409.916C451.911 410.321 452.65 410.371 453.144 410.027L462.205 403.711L469.897 411.152C470.108 411.356 470.401 411.469 470.702 411.488C471.004 411.51 471.315 411.437 471.564 411.264L480.625 404.948L488.317 412.388C488.532 412.596 488.832 412.709 489.139 412.724C489.445 412.75 489.763 412.679 490.017 412.503L499.078 406.187L506.77 413.628C506.981 413.832 507.274 413.945 507.575 413.964C507.877 413.986 508.188 413.913 508.437 413.74L517.498 407.424L525.19 414.864C525.609 415.269 526.348 415.319 526.841 414.975C527.335 414.631 527.395 414.024 526.976 413.619Z" fill="#0F1B1B" fill-opacity="0.07"/>
</g>
<mask id="mask1_221_5667" style="mask-type:luminance" maskUnits="userSpaceOnUse" x="-122" y="66" width="1012" height="467">
<path d="M-121.767 66H889.305V533H-121.767V66Z" fill="white"/>
</mask>
<g mask="url(#mask1_221_5667)">
<path d="M347.457 90.4463L409.129 141.088C409.602 141.475 409.602 142.105 409.129 142.493C408.656 142.881 407.89 142.881 407.418 142.493L345.746 91.8515C345.273 91.4636 345.273 90.8344 345.746 90.4463C346.218 90.0583 346.984 90.0583 347.457 90.4463Z" fill="#EAEAEA" fill-opacity="0.25"/>
<path d="M351.069 87.4798L412.741 138.121C413.214 138.509 413.214 139.138 412.741 139.526C412.269 139.914 411.502 139.914 411.03 139.526L349.358 88.8849C348.885 88.497 348.885 87.8679 349.358 87.4798C349.83 87.0917 350.596 87.0917 351.069 87.4798Z" fill="#EAEAEA" fill-opacity="0.25"/>
<path d="M354.681 84.5136L416.354 135.155C416.826 135.543 416.826 136.172 416.354 136.56C415.881 136.948 415.115 136.948 414.642 136.56L352.97 85.9187C352.498 85.5308 352.498 84.9017 352.97 84.5136C353.443 84.1255 354.209 84.1255 354.681 84.5136Z" fill="#EAEAEA" fill-opacity="0.25"/>
<path d="M370.483 130.904L386.187 124.365L394.15 137.26L370.483 130.904ZM404.178 112.474L388.474 119.012L380.511 106.118L404.178 112.474ZM400.818 141.015C400.853 140.927 400.871 140.838 400.889 140.749C400.896 140.718 400.909 140.688 400.914 140.657C400.922 140.599 400.917 140.543 400.92 140.486C400.922 140.419 400.93 140.353 400.923 140.285C400.92 140.253 400.909 140.223 400.904 140.191C400.872 139.985 400.806 139.78 400.685 139.584L390.14 122.507L410.851 113.883C411.517 113.704 412.076 113.281 412.31 112.693C412.701 111.713 412.049 110.658 410.856 110.337L376.712 101.168C375.518 100.847 374.234 101.382 373.843 102.362C373.808 102.451 373.791 102.54 373.772 102.629C373.765 102.66 373.752 102.69 373.748 102.721C373.739 102.778 373.744 102.834 373.742 102.891C373.739 102.958 373.732 103.025 373.738 103.092C373.741 103.124 373.753 103.154 373.758 103.186C373.79 103.392 373.855 103.598 373.976 103.794L384.522 120.871L363.81 129.495C363.144 129.673 362.585 130.096 362.351 130.685C361.961 131.665 362.612 132.719 363.806 133.04L397.949 142.21C399.143 142.531 400.427 141.996 400.818 141.015Z" fill="#EAEAEA" fill-opacity="0.25"/>
<path d="M171.585 336.066L162.754 323.559L177.985 316.307L171.585 336.066ZM147.285 309.476L156.117 321.984L140.885 329.236L147.285 309.476ZM182.178 310.63C182.068 310.606 181.959 310.596 181.849 310.586C181.811 310.582 181.774 310.573 181.736 310.571C181.666 310.567 181.598 310.574 181.529 310.576C181.447 310.578 181.366 310.575 181.284 310.584C181.245 310.589 181.209 310.599 181.171 310.605C180.922 310.643 180.676 310.709 180.444 310.819L160.272 320.423L148.624 303.927C148.369 303.391 147.824 302.956 147.095 302.797C145.881 302.532 144.635 303.125 144.313 304.122L135.079 332.629C134.756 333.625 135.478 334.648 136.692 334.913C136.802 334.937 136.911 334.947 137.021 334.957C137.059 334.96 137.096 334.97 137.134 334.972C137.204 334.975 137.272 334.969 137.341 334.967C137.423 334.965 137.504 334.968 137.586 334.959C137.625 334.954 137.661 334.944 137.699 334.937C137.948 334.9 138.194 334.834 138.426 334.724L158.598 325.12L170.246 341.616C170.501 342.152 171.046 342.587 171.775 342.746C172.989 343.011 174.235 342.418 174.558 341.421L183.791 312.914C184.114 311.917 183.392 310.895 182.178 310.63Z" fill="#EAEAEA" fill-opacity="0.25"/>
<path d="M142.714 338.908L194.885 281.517C195.285 281.077 196.043 280.987 196.579 281.315C197.114 281.643 197.224 282.266 196.825 282.706L144.653 340.097C144.253 340.537 143.495 340.627 142.959 340.299C142.424 339.971 142.314 339.348 142.714 338.908Z" fill="#EAEAEA" fill-opacity="0.25"/>
<path d="M138.618 336.399L190.79 279.007C191.19 278.568 191.948 278.477 192.483 278.805C193.019 279.134 193.129 279.756 192.729 280.196L140.558 337.587C140.158 338.027 139.4 338.118 138.864 337.789C138.329 337.461 138.219 336.839 138.618 336.399Z" fill="#EAEAEA" fill-opacity="0.25"/>
<path d="M134.525 333.889L186.696 276.498C187.096 276.058 187.854 275.968 188.39 276.296C188.925 276.624 189.035 277.247 188.636 277.686L136.464 335.078C136.064 335.518 135.306 335.608 134.77 335.28C134.235 334.952 134.125 334.329 134.525 333.889Z" fill="#EAEAEA" fill-opacity="0.25"/>
<path d="M439.657 476.495L430.826 463.987L446.058 456.735L439.657 476.495ZM415.357 449.905L424.189 462.412L408.957 469.664L415.357 449.905ZM450.25 451.058C450.14 451.034 450.031 451.025 449.922 451.014C449.883 451.011 449.847 451.002 449.808 450.999C449.738 450.996 449.67 451.003 449.601 451.004C449.519 451.006 449.438 451.003 449.356 451.012C449.318 451.017 449.282 451.028 449.243 451.034C448.994 451.072 448.748 451.137 448.516 451.247L428.344 460.851L416.696 444.355C416.441 443.819 415.896 443.384 415.167 443.225C413.954 442.96 412.708 443.553 412.385 444.55L403.151 473.057C402.828 474.054 403.551 475.076 404.765 475.342C404.874 475.366 404.984 475.375 405.093 475.385C405.131 475.389 405.168 475.398 405.206 475.4C405.276 475.404 405.344 475.397 405.414 475.395C405.495 475.394 405.577 475.396 405.658 475.387C405.697 475.383 405.733 475.372 405.771 475.366C406.02 475.328 406.267 475.262 406.498 475.152L426.67 465.548L438.318 482.044C438.573 482.58 439.118 483.015 439.847 483.174C441.061 483.439 442.307 482.846 442.63 481.849L451.863 453.343C452.186 452.346 451.464 451.323 450.25 451.058Z" fill="#EAEAEA" fill-opacity="0.25"/>
<path d="M443.802 500.628L404.075 436.872C403.771 436.383 404.006 435.784 404.601 435.535C405.196 435.285 405.925 435.478 406.23 435.967L445.956 499.723C446.261 500.212 446.025 500.81 445.43 501.06C444.835 501.31 444.106 501.117 443.802 500.628Z" fill="#EAEAEA" fill-opacity="0.25"/>
<path d="M439.253 502.539L399.527 438.783C399.222 438.294 399.458 437.695 400.053 437.445C400.648 437.196 401.377 437.389 401.681 437.877L441.408 501.634C441.712 502.123 441.477 502.721 440.882 502.971C440.287 503.221 439.558 503.028 439.253 502.539Z" fill="#EAEAEA" fill-opacity="0.25"/>
<path d="M434.705 504.45L394.979 440.693C394.674 440.205 394.91 439.606 395.505 439.356C396.1 439.106 396.829 439.3 397.133 439.788L436.86 503.545C437.164 504.033 436.929 504.632 436.334 504.882C435.739 505.132 435.01 504.939 434.705 504.45Z" fill="#EAEAEA" fill-opacity="0.25"/>
</g>
<mask id="mask2_221_5667" style="mask-type:luminance" maskUnits="userSpaceOnUse" x="-122" y="66" width="1012" height="467">
<path d="M-121.767 66H889.305V533H-121.767V66Z" fill="white"/>
</mask>
<g mask="url(#mask2_221_5667)">
<path d="M498.187 213.623L461.861 207.411L478.755 180.272L515.081 186.484L498.187 213.623ZM478.727 179.646L451.453 159.207L487.603 165.388L514.877 185.828L478.727 179.646ZM461.201 207.135L433.793 186.594L450.687 159.455L478.096 179.996L461.201 207.135ZM515.968 186.392C515.97 186.388 515.972 186.384 515.974 186.38C515.981 186.364 515.988 186.348 515.992 186.332C515.992 186.331 515.993 186.33 515.993 186.329C515.994 186.327 515.993 186.325 515.994 186.323C515.996 186.314 515.999 186.305 516 186.296C516.008 186.289 516.017 186.284 516.026 186.277C516.163 186.153 516.153 185.961 516.002 185.847L488.029 164.884C488.02 164.877 488.01 164.873 488.001 164.867C487.994 164.862 487.987 164.858 487.979 164.854C487.968 164.848 487.957 164.843 487.946 164.838C487.934 164.833 487.923 164.829 487.911 164.825C487.902 164.822 487.893 164.82 487.885 164.818C487.874 164.815 487.863 164.812 487.852 164.81L450.775 158.469C450.575 158.435 450.379 158.541 450.337 158.705C450.335 158.715 450.335 158.725 450.334 158.735C450.329 158.738 450.325 158.743 450.32 158.746C450.315 158.75 450.31 158.753 450.305 158.757C450.302 158.76 450.301 158.762 450.299 158.764C450.29 158.773 450.282 158.782 450.274 158.791C450.268 158.799 450.261 158.807 450.255 158.816C450.253 158.819 450.25 158.821 450.249 158.824L433.011 186.514C433.009 186.518 433.007 186.522 433.005 186.526C432.932 186.645 432.96 186.793 433.085 186.887L461.058 207.85C461.062 207.854 461.068 207.856 461.072 207.859C461.078 207.863 461.084 207.867 461.09 207.871C461.096 207.874 461.102 207.878 461.108 207.881C461.116 207.885 461.123 207.889 461.131 207.892C461.135 207.894 461.138 207.896 461.142 207.898C461.146 207.899 461.149 207.9 461.153 207.901C461.161 207.904 461.168 207.907 461.176 207.909C461.182 207.911 461.188 207.913 461.194 207.915C461.204 207.917 461.215 207.92 461.225 207.922C461.228 207.923 461.232 207.924 461.235 207.925L498.311 214.265C498.473 214.293 498.63 214.228 498.707 214.117C498.713 214.11 498.719 214.103 498.724 214.096L515.961 186.406C515.964 186.401 515.965 186.396 515.968 186.392Z" fill="#0F1B1B" fill-opacity="0.07"/>
<path d="M129.205 113.971L147.583 87.5026L173.829 109.054L155.451 135.523L129.205 113.971ZM174.563 109.225L206.641 94.2075L188.352 120.548L156.274 135.566L174.563 109.225ZM148.106 87.0722L180.342 71.9805L206.589 93.5323L174.352 108.624L148.106 87.0722ZM155.285 136.244C155.289 136.247 155.293 136.249 155.297 136.252C155.313 136.263 155.329 136.273 155.347 136.281C155.348 136.282 155.349 136.282 155.35 136.283C155.352 136.284 155.354 136.284 155.356 136.286C155.366 136.29 155.376 136.295 155.386 136.298C155.391 136.307 155.394 136.316 155.4 136.324C155.502 136.47 155.728 136.521 155.905 136.438L188.805 121.036C188.816 121.031 188.824 121.025 188.834 121.019C188.841 121.015 188.849 121.011 188.856 121.006C188.866 120.999 188.875 120.992 188.884 120.985C188.893 120.977 188.902 120.97 188.91 120.962C188.916 120.956 188.921 120.95 188.926 120.943C188.933 120.935 188.94 120.929 188.946 120.92L207.704 93.9048C207.805 93.7589 207.743 93.5734 207.565 93.4902C207.555 93.4852 207.543 93.4822 207.532 93.4781C207.53 93.4733 207.526 93.4688 207.523 93.4642C207.52 93.459 207.519 93.4536 207.515 93.4486C207.513 93.4461 207.511 93.4441 207.509 93.4417C207.502 93.4322 207.494 93.4236 207.486 93.4147C207.478 93.4067 207.471 93.3989 207.463 93.3918C207.46 93.3894 207.458 93.3866 207.455 93.3842L180.676 71.3948C180.672 71.3915 180.667 71.3894 180.663 71.3861C180.548 71.2927 180.368 71.2685 180.221 71.3375L147.321 86.7398C147.315 86.7424 147.311 86.7459 147.306 86.7485C147.299 86.7517 147.293 86.7554 147.287 86.7589C147.282 86.7623 147.276 86.7656 147.27 86.7695C147.263 86.7742 147.256 86.7792 147.249 86.7844C147.246 86.7868 147.243 86.7885 147.24 86.7909C147.237 86.7932 147.235 86.7961 147.232 86.7984C147.226 86.8034 147.221 86.8086 147.216 86.814C147.212 86.8181 147.208 86.8222 147.204 86.8265C147.198 86.8337 147.192 86.8408 147.186 86.8482C147.184 86.8508 147.181 86.8529 147.18 86.8555L128.422 113.871C128.341 113.988 128.366 114.131 128.472 114.226C128.479 114.232 128.484 114.239 128.491 114.245L155.271 136.234C155.275 136.238 155.28 136.241 155.285 136.244Z" fill="#0F1B1B" fill-opacity="0.07"/>
<path d="M325.818 456.01L290.03 464.056V433.577L325.818 425.531V456.01ZM289.658 433.03L254.043 425.024L289.658 417.017L325.273 425.024L289.658 433.03ZM289.29 464.056L253.499 456.011V425.532L289.29 433.577V464.056ZM326.557 425.118C326.557 425.114 326.556 425.11 326.555 425.105C326.554 425.088 326.55 425.072 326.545 425.056C326.545 425.055 326.545 425.054 326.545 425.053C326.544 425.051 326.543 425.049 326.542 425.047C326.539 425.039 326.536 425.029 326.532 425.021C326.536 425.012 326.542 425.004 326.545 424.994C326.599 424.832 326.483 424.665 326.286 424.621L289.758 416.409C289.746 416.407 289.735 416.406 289.724 416.404C289.715 416.403 289.706 416.402 289.697 416.401C289.684 416.4 289.671 416.4 289.658 416.4C289.646 416.4 289.633 416.4 289.62 416.401C289.611 416.402 289.602 416.403 289.593 416.404C289.582 416.406 289.57 416.407 289.559 416.409L253.031 424.621C252.834 424.665 252.718 424.832 252.772 424.994C252.775 425.004 252.781 425.013 252.785 425.022C252.783 425.027 252.781 425.032 252.779 425.037C252.777 425.042 252.774 425.047 252.772 425.053C252.771 425.056 252.771 425.059 252.77 425.061C252.767 425.072 252.765 425.083 252.764 425.094C252.762 425.104 252.76 425.114 252.76 425.124C252.76 425.127 252.759 425.13 252.759 425.133V456.231C252.759 456.235 252.76 456.24 252.76 456.244C252.761 456.377 252.868 456.499 253.031 456.536L289.559 464.747C289.565 464.749 289.571 464.749 289.577 464.75C289.584 464.751 289.591 464.752 289.599 464.753C289.606 464.754 289.613 464.755 289.62 464.756C289.629 464.756 289.638 464.757 289.647 464.757C289.652 464.757 289.656 464.758 289.66 464.758C289.664 464.758 289.668 464.757 289.672 464.757C289.68 464.757 289.688 464.756 289.697 464.756C289.703 464.755 289.709 464.754 289.716 464.754C289.726 464.752 289.737 464.751 289.747 464.749C289.751 464.748 289.754 464.748 289.758 464.747L326.285 456.536C326.444 456.5 326.549 456.384 326.556 456.256C326.557 456.247 326.559 456.239 326.559 456.231V425.133C326.559 425.128 326.557 425.123 326.557 425.118Z" fill="#0F1B1B" fill-opacity="0.07"/>
</g>
<mask id="mask3_221_5667" style="mask-type:luminance" maskUnits="userSpaceOnUse" x="-122" y="66" width="1012" height="467">
<path d="M-121.767 66H889.305V533H-121.767V66Z" fill="white"/>
</mask>
<g mask="url(#mask3_221_5667)">
<path d="M488.841 102.379H507.324C507.992 102.379 508.534 102.824 508.534 103.373V103.999C508.534 104.548 507.992 104.993 507.324 104.993H488.841C488.173 104.993 487.631 104.548 487.631 103.999V103.373C487.631 102.824 488.173 102.379 488.841 102.379Z" fill="#EAEAEA" fill-opacity="0.25"/>
<path d="M476.816 107.317H495.298C495.966 107.317 496.508 107.762 496.508 108.311V108.937C496.508 109.486 495.966 109.931 495.298 109.931H476.816C476.147 109.931 475.605 109.486 475.605 108.937V108.311C475.605 107.762 476.147 107.317 476.816 107.317Z" fill="#EAEAEA" fill-opacity="0.25"/>
<path d="M465.673 112.255H484.155C484.823 112.255 485.365 112.7 485.365 113.248V113.875C485.365 114.424 484.823 114.869 484.155 114.869H465.673C465.004 114.869 464.462 114.424 464.462 113.875V113.248C464.462 112.7 465.004 112.255 465.673 112.255Z" fill="#EAEAEA" fill-opacity="0.25"/>
<path d="M501.305 108.624C501.305 107.902 502.017 107.317 502.897 107.317C503.776 107.317 504.488 107.902 504.488 108.624C504.488 109.346 503.776 109.931 502.897 109.931C502.017 109.931 501.305 109.346 501.305 108.624Z" fill="#EAEAEA" fill-opacity="0.25"/>
<path d="M488.63 113.562C488.63 112.84 489.343 112.255 490.222 112.255C491.101 112.255 491.813 112.84 491.813 113.562C491.813 114.284 491.101 114.869 490.222 114.869C489.343 114.869 488.63 114.284 488.63 113.562Z" fill="#EAEAEA" fill-opacity="0.25"/>
<path d="M480.262 103.686C480.262 102.964 480.975 102.379 481.854 102.379C482.733 102.379 483.446 102.964 483.446 103.686C483.446 104.408 482.733 104.993 481.854 104.993C480.975 104.993 480.262 104.408 480.262 103.686Z" fill="#EAEAEA" fill-opacity="0.25"/>
<path d="M467.764 108.624C467.764 107.902 468.477 107.317 469.356 107.317C470.235 107.317 470.948 107.902 470.948 108.624C470.948 109.346 470.235 109.931 469.356 109.931C468.477 109.931 467.764 109.346 467.764 108.624Z" fill="#EAEAEA" fill-opacity="0.25"/>
<path d="M548.377 475.992H566.859C567.527 475.992 568.069 476.437 568.069 476.985V477.612C568.069 478.161 567.527 478.606 566.859 478.606H548.377C547.708 478.606 547.167 478.161 547.167 477.612V476.985C547.167 476.437 547.708 475.992 548.377 475.992Z" fill="#EAEAEA" fill-opacity="0.25"/>
<path d="M536.35 480.93H554.832C555.5 480.93 556.042 481.375 556.042 481.923V482.55C556.042 483.099 555.5 483.544 554.832 483.544H536.35C535.682 483.544 535.14 483.099 535.14 482.55V481.923C535.14 481.375 535.682 480.93 536.35 480.93Z" fill="#EAEAEA" fill-opacity="0.25"/>
<path d="M525.207 485.868H543.689C544.357 485.868 544.899 486.313 544.899 486.861V487.488C544.899 488.037 544.357 488.482 543.689 488.482H525.207C524.538 488.482 523.997 488.037 523.997 487.488V486.861C523.997 486.313 524.538 485.868 525.207 485.868Z" fill="#EAEAEA" fill-opacity="0.25"/>
<path d="M560.839 482.237C560.839 481.515 561.552 480.929 562.431 480.929C563.31 480.929 564.022 481.515 564.022 482.237C564.022 482.959 563.31 483.544 562.431 483.544C561.552 483.544 560.839 482.959 560.839 482.237Z" fill="#EAEAEA" fill-opacity="0.25"/>
<path d="M548.164 487.175C548.164 486.453 548.876 485.867 549.755 485.867C550.635 485.867 551.347 486.453 551.347 487.175C551.347 487.896 550.635 488.482 549.755 488.482C548.876 488.482 548.164 487.896 548.164 487.175Z" fill="#EAEAEA" fill-opacity="0.25"/>
<path d="M539.797 477.299C539.797 476.577 540.51 475.992 541.389 475.992C542.268 475.992 542.981 476.577 542.981 477.299C542.981 478.021 542.268 478.606 541.389 478.606C540.51 478.606 539.797 478.021 539.797 477.299Z" fill="#EAEAEA" fill-opacity="0.25"/>
<path d="M527.299 482.237C527.299 481.515 528.012 480.929 528.891 480.929C529.77 480.929 530.483 481.515 530.483 482.237C530.483 482.959 529.77 483.544 528.891 483.544C528.012 483.544 527.299 482.959 527.299 482.237Z" fill="#EAEAEA" fill-opacity="0.25"/>
<path d="M52.424 318.005H70.9063C71.5746 318.005 72.1162 318.449 72.1162 318.998V319.625C72.1162 320.174 71.5746 320.619 70.9063 320.619H52.424C51.7557 320.619 51.2139 320.174 51.2139 319.625V318.998C51.2139 318.449 51.7557 318.005 52.424 318.005Z" fill="#EAEAEA" fill-opacity="0.25"/>
<path d="M40.3966 322.942H58.879C59.5472 322.942 60.0888 323.387 60.0888 323.936V324.563C60.0888 325.112 59.5472 325.556 58.879 325.556H40.3966C39.7284 325.556 39.1865 325.112 39.1865 324.563V323.936C39.1865 323.387 39.7284 322.942 40.3966 322.942Z" fill="#EAEAEA" fill-opacity="0.25"/>
<path d="M29.2541 327.88H47.7364C48.4047 327.88 48.9463 328.325 48.9463 328.874V329.501C48.9463 330.05 48.4047 330.494 47.7364 330.494H29.2541C28.5858 330.494 28.0439 330.05 28.0439 329.501V328.874C28.0439 328.325 28.5858 327.88 29.2541 327.88Z" fill="#EAEAEA" fill-opacity="0.25"/>
<path d="M64.8867 324.249C64.8867 323.528 65.5995 322.942 66.4786 322.942C67.3575 322.942 68.0703 323.528 68.0703 324.249C68.0703 324.971 67.3575 325.557 66.4786 325.557C65.5995 325.557 64.8867 324.971 64.8867 324.249Z" fill="#EAEAEA" fill-opacity="0.25"/>
<path d="M52.2114 329.187C52.2114 328.465 52.9242 327.88 53.8033 327.88C54.6822 327.88 55.395 328.465 55.395 329.187C55.395 329.909 54.6822 330.494 53.8033 330.494C52.9242 330.494 52.2114 329.909 52.2114 329.187Z" fill="#EAEAEA" fill-opacity="0.25"/>
<path d="M43.8447 319.311C43.8447 318.59 44.5575 318.004 45.4366 318.004C46.3155 318.004 47.0283 318.59 47.0283 319.311C47.0283 320.033 46.3155 320.619 45.4366 320.619C44.5575 320.619 43.8447 320.033 43.8447 319.311Z" fill="#EAEAEA" fill-opacity="0.25"/>
<path d="M31.3462 324.249C31.3462 323.528 32.0589 322.942 32.9381 322.942C33.817 322.942 34.5297 323.528 34.5297 324.249C34.5297 324.971 33.817 325.557 32.9381 325.557C32.0589 325.557 31.3462 324.971 31.3462 324.249Z" fill="#EAEAEA" fill-opacity="0.25"/>
</g>
<mask id="mask4_221_5667" style="mask-type:luminance" maskUnits="userSpaceOnUse" x="-122" y="66" width="1012" height="467">
<path d="M-121.767 66H889.305V533H-121.767V66Z" fill="white"/>
</mask>
<g mask="url(#mask4_221_5667)">
<path d="M91.2271 193.504L38.0995 224.181L16.0874 173.987L69.215 143.31L91.2271 193.504ZM15.08 173.267L-49.355 177.425L3.51534 146.897L67.9503 142.739L15.08 173.267ZM36.8807 224.543L-27.8721 228.721L-49.8842 178.527L14.8686 174.348L36.8807 224.543ZM70.1326 142.269C70.1291 142.262 70.1247 142.256 70.121 142.25C70.1057 142.222 70.0886 142.197 70.0686 142.173C70.0673 142.171 70.0667 142.17 70.0654 142.168C70.0628 142.165 70.0596 142.163 70.057 142.16C70.0454 142.147 70.0346 142.134 70.0217 142.122C70.022 142.105 70.0246 142.089 70.023 142.072C69.9949 141.779 69.6831 141.56 69.3263 141.583L3.24019 145.847C3.21939 145.848 3.20016 145.853 3.18016 145.856C3.16462 145.858 3.14909 145.86 3.13355 145.863C3.11143 145.867 3.09037 145.873 3.06958 145.88C3.04851 145.886 3.02745 145.892 3.00717 145.9C2.99269 145.906 2.97926 145.913 2.96556 145.919C2.94793 145.928 2.9295 145.934 2.91238 145.944L-51.3126 177.254C-51.6054 177.423 -51.6757 177.755 -51.4698 177.996C-51.4574 178.01 -51.4422 178.022 -51.4282 178.035C-51.4285 178.044 -51.4269 178.053 -51.4266 178.063C-51.4264 178.073 -51.4285 178.082 -51.4274 178.092C-51.4269 178.097 -51.4251 178.102 -51.4243 178.107C-51.4219 178.126 -51.4169 178.145 -51.4116 178.164C-51.4072 178.181 -51.4029 178.198 -51.3964 178.214C-51.3943 178.22 -51.3937 178.225 -51.3914 178.231L-28.9324 229.444C-28.929 229.452 -28.9235 229.458 -28.9198 229.466C-28.8221 229.684 -28.5596 229.833 -28.2634 229.814L37.8228 225.55C37.8336 225.549 37.8433 225.546 37.8539 225.545C37.8668 225.544 37.8794 225.542 37.8923 225.54C37.9049 225.538 37.917 225.536 37.9294 225.534C37.9452 225.531 37.9602 225.527 37.9755 225.523C37.9826 225.521 37.99 225.52 37.9971 225.518C38.0039 225.516 38.0095 225.513 38.016 225.511C38.0295 225.506 38.0426 225.502 38.0558 225.496C38.0661 225.492 38.0755 225.488 38.0853 225.483C38.1021 225.476 38.1185 225.469 38.134 225.46C38.1393 225.457 38.1453 225.456 38.1503 225.453L92.3756 194.142C92.6115 194.006 92.7 193.764 92.6186 193.549C92.6142 193.535 92.6118 193.521 92.6057 193.507L70.1465 142.294C70.1428 142.285 70.1368 142.278 70.1326 142.269Z" fill="#0F1B1B" fill-opacity="0.07"/>
<path d="M0.164955 205.217L-20.4275 196.573C-21.0225 196.324 -21.2582 195.725 -20.9541 195.236C-20.65 194.748 -19.9209 194.554 -19.3258 194.804L1.2666 203.447C1.86166 203.697 2.09731 204.296 1.7932 204.784C1.48909 205.273 0.760012 205.467 0.164955 205.217Z" fill="#D9D9D9" fill-opacity="0.25"/>
<path d="M118.927 182.147L117.42 197.273C117.366 197.82 116.782 198.227 116.116 198.182L115.355 198.131C114.689 198.086 114.193 197.607 114.247 197.06L115.754 181.934C115.808 181.387 116.392 180.98 117.058 181.025L117.819 181.076C118.485 181.12 118.981 181.6 118.927 182.147Z" fill="#8E8790" fill-opacity="0.12"/>
<path d="M113.912 171.902L112.406 187.027C112.352 187.574 111.768 187.982 111.101 187.937L110.341 187.886C109.674 187.841 109.179 187.361 109.233 186.815L110.739 171.689C110.794 171.142 111.378 170.735 112.044 170.779L112.805 170.83C113.471 170.875 113.967 171.355 113.912 171.902Z" fill="#8E8790" fill-opacity="0.12"/>
<path d="M108.828 162.38L107.322 177.506C107.268 178.053 106.684 178.46 106.017 178.415L105.257 178.364C104.59 178.319 104.095 177.84 104.149 177.293L105.655 162.167C105.71 161.62 106.294 161.213 106.96 161.258L107.721 161.309C108.387 161.354 108.883 161.833 108.828 162.38Z" fill="#8E8790" fill-opacity="0.12"/>
<path d="M110.331 191.838C111.207 191.896 111.859 192.527 111.788 193.247C111.716 193.966 110.948 194.502 110.072 194.443C109.195 194.384 108.543 193.753 108.615 193.034C108.686 192.314 109.455 191.779 110.331 191.838Z" fill="#8E8790" fill-opacity="0.12"/>
<path d="M105.37 181.062C106.246 181.12 106.898 181.751 106.826 182.471C106.755 183.19 105.986 183.726 105.11 183.667C104.234 183.608 103.582 182.977 103.653 182.258C103.725 181.538 104.493 181.003 105.37 181.062Z" fill="#8E8790" fill-opacity="0.12"/>
<path d="M118.039 175.019C118.915 175.077 119.567 175.708 119.496 176.428C119.424 177.147 118.656 177.683 117.78 177.624C116.903 177.565 116.251 176.934 116.323 176.215C116.394 175.495 117.163 174.96 118.039 175.019Z" fill="#8E8790" fill-opacity="0.12"/>
<path d="M113.064 164.388C113.94 164.447 114.592 165.078 114.521 165.797C114.449 166.517 113.68 167.052 112.804 166.993C111.928 166.935 111.276 166.303 111.348 165.584C111.419 164.865 112.188 164.329 113.064 164.388Z" fill="#8E8790" fill-opacity="0.12"/>
<path d="M36.7314 118.953C39.0076 121.314 38.5223 124.743 35.6471 126.612C32.7719 128.481 28.5959 128.083 26.3197 125.722C24.0432 123.361 24.5287 119.932 27.404 118.063C30.2789 116.194 34.4551 116.592 36.7314 118.953Z" fill="#D9D9D9" fill-opacity="0.25"/>
<path d="M101.016 217.199L99.8028 216.462C97.1806 214.87 93.4834 215.325 91.5447 217.479L79.2825 231.098C77.3439 233.251 77.8981 236.287 80.5203 237.879L97.1066 247.948C99.7288 249.54 103.426 249.085 105.364 246.932L106.261 245.936C107.562 244.491 110.043 244.186 111.802 245.254L113.015 245.99C115.637 247.582 119.335 247.127 121.273 244.974L133.535 231.354C135.474 229.201 134.92 226.165 132.298 224.573L115.711 214.504C113.089 212.912 109.392 213.367 107.454 215.521L106.557 216.517C105.256 217.961 102.775 218.267 101.016 217.199Z" stroke="#0F1B1B" stroke-opacity="0.07" stroke-width="1.30629" stroke-miterlimit="10"/>
<path d="M93.9621 227.678L87.3415 235.031C86.3799 236.099 84.546 236.325 83.2453 235.535L74.29 230.099C72.9893 229.309 72.7144 227.803 73.6759 226.735L80.2966 219.382C81.2582 218.314 83.0923 218.088 84.3928 218.878L93.3481 224.314C94.6488 225.104 94.9237 226.61 93.9621 227.678Z" fill="#D9D9D9" fill-opacity="0.25"/>
<path d="M422.5 289.069L369.372 319.746L347.36 269.552L400.488 238.875L422.5 289.069ZM346.353 268.832L281.918 272.99L334.788 242.461L399.223 238.304L346.353 268.832ZM368.154 320.108L303.401 324.286L281.389 274.091L346.142 269.913L368.154 320.108ZM401.406 237.834C401.402 237.827 401.398 237.821 401.394 237.814C401.379 237.787 401.362 237.762 401.342 237.738C401.34 237.736 401.34 237.735 401.338 237.733C401.336 237.73 401.332 237.728 401.33 237.725C401.318 237.712 401.307 237.699 401.295 237.687C401.295 237.67 401.298 237.653 401.296 237.636C401.268 237.343 400.956 237.125 400.599 237.148L334.513 241.412C334.492 241.413 334.473 241.418 334.453 241.421C334.437 241.423 334.422 241.424 334.406 241.428C334.384 241.432 334.363 241.438 334.343 241.445C334.321 241.451 334.3 241.457 334.28 241.465C334.266 241.471 334.252 241.477 334.239 241.484C334.221 241.492 334.202 241.499 334.185 241.509L279.96 272.819C279.668 272.988 279.597 273.32 279.803 273.56C279.816 273.575 279.831 273.587 279.845 273.6C279.845 273.609 279.846 273.618 279.846 273.627C279.847 273.637 279.845 273.647 279.846 273.657C279.846 273.662 279.848 273.667 279.849 273.672C279.851 273.691 279.856 273.71 279.861 273.729C279.866 273.746 279.87 273.763 279.877 273.779C279.879 273.785 279.879 273.79 279.882 273.796L302.341 325.009C302.344 325.017 302.35 325.023 302.353 325.03C302.451 325.249 302.713 325.398 303.01 325.378L369.096 321.114C369.106 321.114 369.116 321.111 369.127 321.11C369.139 321.109 369.152 321.106 369.165 321.104C369.178 321.103 369.19 321.101 369.202 321.099C369.218 321.095 369.233 321.091 369.248 321.087C369.256 321.086 369.263 321.085 369.27 321.083C369.277 321.081 369.282 321.078 369.289 321.076C369.302 321.071 369.316 321.066 369.329 321.061C369.339 321.057 369.349 321.053 369.358 321.048C369.375 321.041 369.391 321.034 369.407 321.025C369.412 321.022 369.418 321.021 369.423 321.018L423.649 289.707C423.885 289.571 423.973 289.329 423.892 289.114C423.887 289.1 423.885 289.086 423.879 289.072L401.42 237.858C401.416 237.85 401.41 237.842 401.406 237.834Z" fill="#0F1B1B" fill-opacity="0.07"/>
<path d="M363.506 370.453L371.861 366.974L376.098 373.835L363.506 370.453ZM381.433 360.647L373.078 364.126L368.842 357.266L381.433 360.647ZM379.646 375.833C379.664 375.786 379.674 375.738 379.684 375.691C379.687 375.674 379.694 375.658 379.697 375.642C379.701 375.612 379.699 375.581 379.7 375.551C379.701 375.516 379.705 375.48 379.702 375.444C379.7 375.427 379.694 375.411 379.691 375.394C379.674 375.285 379.639 375.175 379.575 375.071L373.964 365.985L384.984 361.397C385.338 361.302 385.635 361.077 385.76 360.764C385.968 360.242 385.621 359.681 384.986 359.511L366.82 354.632C366.185 354.461 365.502 354.746 365.294 355.267C365.275 355.314 365.266 355.362 365.256 355.409C365.252 355.426 365.246 355.442 365.243 355.458C365.238 355.489 365.241 355.519 365.24 355.549C365.238 355.585 365.235 355.62 365.238 355.656C365.24 355.673 365.246 355.689 365.248 355.706C365.265 355.815 365.3 355.925 365.365 356.029L370.975 365.115L359.956 369.703C359.601 369.798 359.304 370.023 359.179 370.336C358.972 370.858 359.318 371.419 359.953 371.589L378.119 376.468C378.754 376.639 379.438 376.354 379.646 375.833Z" fill="#D9D9D9" fill-opacity="0.25"/>
<path d="M331.438 300.782L310.846 292.138C310.251 291.888 310.015 291.29 310.319 290.801C310.623 290.313 311.353 290.119 311.948 290.369L332.54 299.012C333.135 299.262 333.371 299.861 333.067 300.349C332.763 300.838 332.033 301.031 331.438 300.782Z" fill="#D9D9D9" fill-opacity="0.25"/>
<path d="M329.113 304.517L308.521 295.874C307.926 295.624 307.69 295.025 307.994 294.537C308.298 294.048 309.027 293.855 309.622 294.104L330.215 302.748C330.81 302.997 331.046 303.596 330.741 304.085C330.437 304.573 329.708 304.767 329.113 304.517Z" fill="#D9D9D9" fill-opacity="0.25"/>
<path d="M326.788 308.253L306.196 299.609C305.601 299.36 305.365 298.761 305.669 298.272C305.974 297.784 306.703 297.59 307.298 297.84L327.89 306.483C328.485 306.733 328.721 307.332 328.417 307.82C328.113 308.309 327.384 308.502 326.788 308.253Z" fill="#D9D9D9" fill-opacity="0.25"/>
<path d="M324.462 311.988L303.87 303.345C303.275 303.095 303.039 302.496 303.343 302.008C303.647 301.519 304.376 301.326 304.972 301.575L325.564 310.219C326.159 310.469 326.395 311.067 326.091 311.556C325.786 312.044 325.057 312.238 324.462 311.988Z" fill="#D9D9D9" fill-opacity="0.25"/>
<path d="M322.137 315.724L301.545 307.08C300.95 306.831 300.714 306.232 301.018 305.743C301.322 305.255 302.051 305.061 302.646 305.311L323.239 313.954C323.834 314.204 324.069 314.803 323.765 315.291C323.461 315.78 322.732 315.974 322.137 315.724Z" fill="#D9D9D9" fill-opacity="0.25"/>
<path d="M319.811 319.459L299.219 310.816C298.623 310.566 298.388 309.967 298.692 309.479C298.996 308.99 299.725 308.797 300.32 309.046L320.912 317.69C321.507 317.939 321.743 318.538 321.439 319.027C321.135 319.515 320.406 319.709 319.811 319.459Z" fill="#D9D9D9" fill-opacity="0.25"/>
<path d="M317.487 323.195L296.894 314.551C296.299 314.302 296.064 313.703 296.368 313.214C296.672 312.726 297.401 312.532 297.996 312.782L318.588 321.425C319.183 321.675 319.419 322.274 319.115 322.762C318.811 323.251 318.082 323.445 317.487 323.195Z" fill="#D9D9D9" fill-opacity="0.25"/>
<path d="M315.161 326.93L294.569 318.287C293.974 318.037 293.738 317.438 294.042 316.95C294.346 316.461 295.075 316.268 295.67 316.517L316.262 325.161C316.857 325.411 317.093 326.009 316.789 326.498C316.485 326.986 315.756 327.18 315.161 326.93Z" fill="#D9D9D9" fill-opacity="0.25"/>
<path d="M312.835 330.666L292.243 322.022C291.648 321.773 291.412 321.174 291.716 320.685C292.02 320.197 292.75 320.003 293.345 320.253L313.937 328.896C314.532 329.146 314.768 329.745 314.464 330.233C314.159 330.722 313.43 330.916 312.835 330.666Z" fill="#D9D9D9" fill-opacity="0.25"/>
<path d="M310.509 334.401L289.917 325.758C289.322 325.508 289.086 324.91 289.39 324.421C289.694 323.932 290.423 323.739 291.018 323.989L311.611 332.632C312.206 332.882 312.442 333.48 312.137 333.969C311.833 334.458 311.104 334.651 310.509 334.401Z" fill="#D9D9D9" fill-opacity="0.25"/>
<path d="M308.184 338.137L287.592 329.493C286.997 329.244 286.761 328.645 287.065 328.156C287.369 327.668 288.098 327.474 288.693 327.724L309.285 336.367C309.88 336.617 310.116 337.216 309.812 337.704C309.508 338.193 308.779 338.387 308.184 338.137Z" fill="#D9D9D9" fill-opacity="0.25"/>
<path d="M293.989 235.548L302.706 243.98C303.138 244.398 303.076 245.025 302.566 245.381C302.057 245.736 301.293 245.684 300.86 245.266L292.144 236.834C291.712 236.416 291.774 235.789 292.283 235.433C292.793 235.078 293.557 235.13 293.989 235.548Z" fill="#D9D9D9" fill-opacity="0.25"/>
<path d="M284.588 232.254L293.304 240.686C293.737 241.104 293.674 241.731 293.165 242.086C292.655 242.441 291.892 242.39 291.459 241.972L282.743 233.54C282.31 233.121 282.373 232.494 282.882 232.139C283.392 231.784 284.155 231.835 284.588 232.254Z" fill="#D9D9D9" fill-opacity="0.25"/>
<path d="M275.621 229.38L284.337 237.812C284.77 238.231 284.707 238.858 284.198 239.213C283.688 239.568 282.925 239.517 282.492 239.098L273.776 230.666C273.343 230.248 273.406 229.621 273.915 229.265C274.425 228.91 275.189 228.962 275.621 229.38Z" fill="#D9D9D9" fill-opacity="0.25"/>
<path d="M295.525 244.369C296.034 244.014 296.798 244.066 297.23 244.484C297.663 244.902 297.6 245.529 297.091 245.884C296.581 246.24 295.818 246.188 295.385 245.77C294.953 245.352 295.015 244.725 295.525 244.369Z" fill="#D9D9D9" fill-opacity="0.25"/>
<path d="M285.804 240.766C286.313 240.411 287.077 240.463 287.51 240.881C287.942 241.299 287.88 241.926 287.37 242.281C286.861 242.637 286.097 242.585 285.664 242.167C285.232 241.749 285.294 241.121 285.804 240.766Z" fill="#D9D9D9" fill-opacity="0.25"/>
<path d="M288.657 231.927C289.167 231.571 289.931 231.623 290.363 232.041C290.795 232.46 290.733 233.087 290.224 233.442C289.714 233.797 288.951 233.745 288.518 233.327C288.086 232.909 288.148 232.282 288.657 231.927Z" fill="#D9D9D9" fill-opacity="0.25"/>
<path d="M279.024 228.408C279.534 228.053 280.297 228.104 280.73 228.522C281.162 228.941 281.1 229.568 280.59 229.923C280.081 230.278 279.317 230.227 278.885 229.808C278.452 229.39 278.515 228.763 279.024 228.408Z" fill="#D9D9D9" fill-opacity="0.25"/>
<path d="M450.2 277.711L448.693 292.837C448.639 293.384 448.055 293.791 447.389 293.747L446.628 293.695C445.962 293.651 445.466 293.171 445.52 292.624L447.027 277.498C447.081 276.951 447.665 276.544 448.331 276.589L449.092 276.64C449.758 276.685 450.254 277.164 450.2 277.711Z" fill="#D9D9D9" fill-opacity="0.25"/>
<path d="M445.186 267.466L443.68 282.592C443.626 283.139 443.042 283.546 442.375 283.502L441.614 283.451C440.949 283.406 440.453 282.926 440.507 282.379L442.013 267.254C442.068 266.707 442.652 266.299 443.318 266.344L444.079 266.395C444.745 266.44 445.241 266.919 445.186 267.466Z" fill="#D9D9D9" fill-opacity="0.25"/>
<path d="M440.101 257.945L438.595 273.071C438.541 273.618 437.957 274.025 437.29 273.98L436.53 273.929C435.863 273.884 435.368 273.405 435.422 272.858L436.928 257.732C436.983 257.185 437.567 256.778 438.233 256.823L438.994 256.874C439.66 256.918 440.156 257.398 440.101 257.945Z" fill="#D9D9D9" fill-opacity="0.25"/>
<path d="M441.603 287.402C442.48 287.461 443.132 288.092 443.06 288.812C442.988 289.531 442.22 290.067 441.344 290.008C440.468 289.949 439.816 289.318 439.887 288.599C439.959 287.879 440.727 287.344 441.603 287.402Z" fill="#D9D9D9" fill-opacity="0.25"/>
<path d="M436.643 276.626C437.52 276.685 438.172 277.316 438.1 278.036C438.028 278.755 437.26 279.291 436.384 279.232C435.508 279.173 434.856 278.542 434.927 277.823C434.999 277.103 435.767 276.568 436.643 276.626Z" fill="#D9D9D9" fill-opacity="0.25"/>
<path d="M449.312 270.584C450.189 270.642 450.841 271.273 450.769 271.993C450.697 272.712 449.929 273.248 449.053 273.189C448.177 273.13 447.525 272.499 447.596 271.78C447.668 271.06 448.436 270.525 449.312 270.584Z" fill="#D9D9D9" fill-opacity="0.25"/>
<path d="M444.338 259.952C445.214 260.011 445.866 260.642 445.795 261.362C445.723 262.081 444.955 262.617 444.078 262.558C443.202 262.499 442.55 261.868 442.622 261.149C442.693 260.429 443.462 259.894 444.338 259.952Z" fill="#D9D9D9" fill-opacity="0.25"/>
<path d="M368.005 214.518C370.282 216.879 369.796 220.308 366.921 222.177C364.046 224.047 359.87 223.648 357.594 221.287C355.317 218.926 355.803 215.497 358.678 213.628C361.553 211.759 365.729 212.157 368.005 214.518Z" fill="#D9D9D9" fill-opacity="0.25"/>
<path d="M432.289 312.763L431.076 312.027C428.454 310.435 424.756 310.89 422.818 313.043L410.555 326.663C408.617 328.816 409.171 331.852 411.793 333.444L428.38 343.513C431.002 345.105 434.699 344.65 436.638 342.496L437.534 341.5C438.835 340.056 441.316 339.75 443.075 340.818L444.288 341.555C446.91 343.147 450.608 342.692 452.546 340.538L464.808 326.919C466.747 324.766 466.193 321.73 463.571 320.138L446.984 310.069C444.362 308.477 440.665 308.932 438.726 311.085L437.83 312.082C436.529 313.526 434.048 313.831 432.289 312.763Z" stroke="#0F1B1B" stroke-opacity="0.07" stroke-width="2.61259" stroke-miterlimit="10"/>
<path d="M425.236 323.242L418.615 330.596C417.654 331.664 415.82 331.89 414.519 331.1L405.564 325.664C404.263 324.874 403.988 323.368 404.95 322.3L411.571 314.947C412.532 313.879 414.366 313.653 415.667 314.443L424.622 319.879C425.923 320.669 426.198 322.174 425.236 323.242Z" fill="#D9D9D9" fill-opacity="0.25"/>
<path d="M66.9521 466.881L46.3596 458.238C45.7646 457.988 45.5289 457.39 45.833 456.901C46.1372 456.412 46.8662 456.219 47.4613 456.469L68.0534 465.112C68.6485 465.362 68.8844 465.96 68.5803 466.449C68.2762 466.938 67.5471 467.131 66.9521 466.881Z" fill="#DADADA" fill-opacity="0.25"/>
<path d="M64.6269 470.617L44.0345 461.974C43.4394 461.724 43.2037 461.125 43.5079 460.637C43.812 460.148 44.541 459.954 45.1361 460.204L65.7285 468.848C66.3236 469.097 66.5592 469.696 66.2551 470.185C65.951 470.673 65.2219 470.867 64.6269 470.617Z" fill="#DADADA" fill-opacity="0.25"/>
<path d="M62.3007 474.352L41.7083 465.709C41.1132 465.459 40.8776 464.861 41.1817 464.372C41.4858 463.883 42.2149 463.69 42.8099 463.94L63.4023 472.583C63.9974 472.833 64.2331 473.431 63.9289 473.92C63.6248 474.409 62.8958 474.602 62.3007 474.352Z" fill="#DADADA" fill-opacity="0.25"/>
<path d="M59.9755 478.088L39.3831 469.445C38.788 469.195 38.5524 468.596 38.8565 468.108C39.1606 467.619 39.8897 467.426 40.4847 467.675L61.0771 476.319C61.6722 476.568 61.9079 477.167 61.6037 477.656C61.2996 478.144 60.5706 478.338 59.9755 478.088Z" fill="#DADADA" fill-opacity="0.25"/>
<path d="M57.6508 481.824L37.0584 473.18C36.4633 472.931 36.2277 472.332 36.5318 471.843C36.8359 471.355 37.565 471.161 38.16 471.411L58.7522 480.054C59.3472 480.304 59.5831 480.903 59.279 481.391C58.9749 481.88 58.2458 482.073 57.6508 481.824Z" fill="#DADADA" fill-opacity="0.25"/>
<path d="M55.3251 485.559L34.7327 476.916C34.1376 476.666 33.902 476.067 34.2061 475.579C34.5102 475.09 35.2393 474.897 35.8343 475.146L56.4265 483.79C57.0215 484.04 57.2575 484.638 56.9534 485.127C56.6492 485.615 55.9202 485.809 55.3251 485.559Z" fill="#DADADA" fill-opacity="0.25"/>
<path d="M52.9994 489.295L32.407 480.651C31.812 480.402 31.5763 479.803 31.8804 479.314C32.1845 478.826 32.9136 478.632 33.5087 478.882L54.1011 487.525C54.6961 487.775 54.9318 488.374 54.6277 488.862C54.3236 489.351 53.5945 489.545 52.9994 489.295Z" fill="#DADADA" fill-opacity="0.25"/>
<path d="M50.6733 493.03L30.0808 484.387C29.4858 484.137 29.2501 483.539 29.5542 483.05C29.8584 482.561 30.5874 482.368 31.1825 482.618L51.7749 491.261C52.37 491.511 52.6056 492.109 52.3015 492.598C51.9974 493.087 51.2683 493.28 50.6733 493.03Z" fill="#DADADA" fill-opacity="0.25"/>
<path d="M48.349 496.766L27.7566 488.122C27.1616 487.873 26.9259 487.274 27.23 486.785C27.5341 486.297 28.2632 486.103 28.8583 486.353L49.4507 494.996C50.0457 495.246 50.2814 495.845 49.9773 496.333C49.6732 496.822 48.9441 497.016 48.349 496.766Z" fill="#DADADA" fill-opacity="0.25"/>
<path d="M46.0229 500.501L25.4304 491.858C24.8354 491.608 24.5997 491.009 24.9038 490.521C25.208 490.032 25.937 489.839 26.5321 490.088L47.1242 498.732C47.7193 498.981 47.9552 499.58 47.6511 500.069C47.347 500.557 46.6179 500.751 46.0229 500.501Z" fill="#DADADA" fill-opacity="0.25"/>
<path d="M43.6982 504.237L23.1057 495.593C22.5107 495.344 22.275 494.745 22.5791 494.256C22.8833 493.768 23.6123 493.574 24.2074 493.824L44.7998 502.467C45.3949 502.717 45.6305 503.316 45.3264 503.804C45.0223 504.293 44.2932 504.486 43.6982 504.237Z" fill="#DADADA" fill-opacity="0.25"/>
<path d="M29.5018 401.648L38.2183 410.08C38.6506 410.498 38.5882 411.125 38.0788 411.481C37.5693 411.836 36.8057 411.784 36.3731 411.366L27.6568 402.934C27.2242 402.516 27.2866 401.889 27.7961 401.533C28.3056 401.178 29.0692 401.23 29.5018 401.648Z" fill="#8E8790" fill-opacity="0.12"/>
<path d="M20.1009 398.354L28.8174 406.786C29.2498 407.204 29.1874 407.831 28.6779 408.186C28.1684 408.541 27.4048 408.49 26.9722 408.072L18.2559 399.64C17.8233 399.221 17.8857 398.594 18.3952 398.239C18.9047 397.884 19.6683 397.935 20.1009 398.354Z" fill="#8E8790" fill-opacity="0.12"/>
<path d="M11.1341 395.48L19.8506 403.912C20.283 404.33 20.2206 404.957 19.7111 405.313C19.2016 405.668 18.438 405.616 18.0054 405.198L9.28915 396.766C8.85654 396.348 8.91895 395.721 9.42843 395.365C9.93792 395.01 10.7015 395.062 11.1341 395.48Z" fill="#8E8790" fill-opacity="0.12"/>
<path d="M31.0379 410.469C31.5473 410.114 32.3109 410.165 32.7435 410.584C33.1758 411.002 33.1134 411.629 32.604 411.984C32.0945 412.339 31.3309 412.288 30.8983 411.87C30.466 411.451 30.5284 410.824 31.0379 410.469Z" fill="#8E8790" fill-opacity="0.12"/>
<path d="M21.3176 406.866C21.8271 406.511 22.5907 406.562 23.0233 406.981C23.4556 407.399 23.3932 408.026 22.8837 408.381C22.3743 408.736 21.6107 408.685 21.1781 408.267C20.7457 407.848 20.8082 407.221 21.3176 406.866Z" fill="#8E8790" fill-opacity="0.12"/>
<path d="M24.1721 398.026C24.6816 397.671 25.4452 397.723 25.8778 398.141C26.3101 398.559 26.2477 399.186 25.7382 399.541C25.2287 399.897 24.4652 399.845 24.0326 399.427C23.6002 399.009 23.6626 398.382 24.1721 398.026Z" fill="#8E8790" fill-opacity="0.12"/>
<path d="M14.5383 394.507C15.0478 394.152 15.8114 394.204 16.244 394.622C16.6763 395.04 16.6139 395.667 16.1044 396.022C15.595 396.378 14.8314 396.326 14.3988 395.908C13.9665 395.49 14.0289 394.863 14.5383 394.507Z" fill="#8E8790" fill-opacity="0.12"/>
<path d="M185.713 443.812L184.207 458.937C184.152 459.484 183.568 459.891 182.902 459.847L182.141 459.796C181.475 459.751 180.979 459.271 181.034 458.724L182.54 443.599C182.595 443.052 183.179 442.644 183.845 442.689L184.606 442.74C185.272 442.785 185.768 443.265 185.713 443.812Z" fill="#D9D9D9" fill-opacity="0.25"/>
<path d="M180.701 433.566L179.194 448.692C179.14 449.239 178.556 449.646 177.89 449.601L177.129 449.55C176.462 449.506 175.967 449.026 176.021 448.479L177.528 433.353C177.582 432.806 178.166 432.399 178.832 432.444L179.593 432.495C180.259 432.54 180.755 433.019 180.701 433.566Z" fill="#D9D9D9" fill-opacity="0.25"/>
<path d="M175.614 424.045L174.108 439.171C174.053 439.718 173.469 440.125 172.803 440.08L172.042 440.029C171.376 439.984 170.88 439.504 170.935 438.958L172.441 423.832C172.496 423.285 173.08 422.878 173.746 422.922L174.507 422.973C175.173 423.018 175.669 423.498 175.614 424.045Z" fill="#D9D9D9" fill-opacity="0.25"/>
<path d="M177.117 453.502C177.993 453.561 178.646 454.192 178.574 454.911C178.502 455.631 177.734 456.166 176.858 456.108C175.981 456.049 175.329 455.418 175.401 454.698C175.473 453.979 176.241 453.443 177.117 453.502Z" fill="#D9D9D9" fill-opacity="0.25"/>
<path d="M172.157 442.726C173.033 442.785 173.686 443.416 173.614 444.136C173.542 444.855 172.774 445.391 171.898 445.332C171.021 445.273 170.369 444.642 170.441 443.923C170.513 443.203 171.281 442.667 172.157 442.726Z" fill="#D9D9D9" fill-opacity="0.25"/>
<path d="M184.826 436.684C185.702 436.742 186.355 437.373 186.283 438.093C186.211 438.812 185.443 439.348 184.567 439.289C183.69 439.23 183.038 438.599 183.11 437.88C183.181 437.16 183.95 436.625 184.826 436.684Z" fill="#D9D9D9" fill-opacity="0.25"/>
<path d="M179.85 426.052C180.727 426.111 181.379 426.742 181.307 427.462C181.236 428.181 180.467 428.717 179.591 428.658C178.715 428.599 178.063 427.968 178.134 427.249C178.206 426.529 178.974 425.994 179.85 426.052Z" fill="#D9D9D9" fill-opacity="0.25"/>
<path d="M103.518 380.618C105.794 382.979 105.309 386.408 102.434 388.277C99.5585 390.147 95.3825 389.748 93.1063 387.387C90.8298 385.026 91.3154 381.597 94.1906 379.728C97.0656 377.859 101.242 378.257 103.518 380.618Z" fill="#D9D9D9" fill-opacity="0.25"/>
<path d="M207.925 467.882L206.712 467.145C204.09 465.553 200.393 466.008 198.454 468.162L186.192 481.781C184.253 483.934 184.807 486.97 187.429 488.562L204.016 498.631C206.638 500.223 210.335 499.768 212.274 497.615L213.17 496.619C214.471 495.174 216.952 494.869 218.711 495.937L219.924 496.673C222.547 498.265 226.244 497.81 228.183 495.657L240.445 482.037C242.383 479.884 241.829 476.848 239.207 475.256L222.621 465.187C219.998 463.595 216.301 464.05 214.363 466.204L213.466 467.2C212.165 468.644 209.684 468.95 207.925 467.882Z" stroke="#0F1B1B" stroke-opacity="0.07" stroke-width="1.30629" stroke-miterlimit="10"/>
<path d="M375.098 176.865L373.885 176.128C371.263 174.536 367.566 174.991 365.627 177.145L353.365 190.764C351.426 192.917 351.981 195.953 354.603 197.545L371.189 207.614C373.811 209.206 377.509 208.751 379.447 206.597L380.344 205.601C381.645 204.157 384.125 203.851 385.885 204.92L387.098 205.656C389.72 207.248 393.417 206.793 395.356 204.64L407.618 191.02C409.557 188.867 409.002 185.831 406.38 184.239L389.794 174.17C387.172 172.578 383.474 173.033 381.536 175.187L380.639 176.183C379.339 177.627 376.858 177.933 375.098 176.865Z" stroke="#0F1B1B" stroke-opacity="0.07" stroke-width="1.30629" stroke-miterlimit="10"/>
<path d="M160.749 489.342L154.129 496.696C153.167 497.764 151.333 497.99 150.032 497.2L141.077 491.764C139.776 490.974 139.501 489.468 140.463 488.4L147.084 481.047C148.045 479.979 149.879 479.753 151.18 480.543L160.135 485.979C161.436 486.769 161.711 488.274 160.749 489.342Z" fill="#D9D9D9" fill-opacity="0.25"/>
<path d="M676.799 232.193L685.154 228.714L689.39 235.575L676.799 232.193ZM694.726 222.388L686.371 225.867L682.134 219.006L694.726 222.388ZM692.938 237.573C692.957 237.526 692.966 237.479 692.976 237.431C692.98 237.415 692.986 237.399 692.989 237.382C692.993 237.352 692.991 237.322 692.992 237.292C692.993 237.256 692.997 237.221 692.994 237.185C692.992 237.168 692.986 237.152 692.984 237.135C692.967 237.025 692.932 236.916 692.867 236.811L687.257 227.726L698.276 223.137C698.63 223.042 698.928 222.817 699.053 222.504C699.26 221.983 698.914 221.422 698.279 221.251L680.113 216.372C679.478 216.202 678.794 216.486 678.587 217.008C678.568 217.055 678.558 217.102 678.549 217.15C678.545 217.166 678.538 217.182 678.535 217.199C678.531 217.229 678.533 217.259 678.532 217.289C678.531 217.325 678.527 217.36 678.53 217.396C678.532 217.413 678.538 217.429 678.541 217.446C678.558 217.556 678.593 217.665 678.657 217.77L684.268 226.855L673.248 231.444C672.894 231.539 672.597 231.764 672.472 232.077C672.264 232.598 672.611 233.159 673.246 233.33L691.412 238.209C692.047 238.379 692.73 238.095 692.938 237.573Z" fill="#D9D9D9" fill-opacity="0.25"/>
<path d="M644.731 162.522L624.138 153.879C623.543 153.629 623.308 153.03 623.612 152.542C623.916 152.053 624.645 151.86 625.24 152.109L645.833 160.753C646.428 161.003 646.663 161.601 646.359 162.09C646.055 162.578 645.326 162.772 644.731 162.522Z" fill="#D9D9D9" fill-opacity="0.25"/>
<path d="M642.405 166.258L621.813 157.614C621.218 157.365 620.982 156.766 621.286 156.277C621.59 155.789 622.319 155.595 622.915 155.845L643.507 164.488C644.102 164.738 644.338 165.337 644.034 165.825C643.729 166.314 643 166.508 642.405 166.258Z" fill="#D9D9D9" fill-opacity="0.25"/>
<path d="M640.081 169.993L619.488 161.35C618.893 161.1 618.657 160.502 618.962 160.013C619.266 159.524 619.995 159.331 620.59 159.581L641.182 168.224C641.777 168.474 642.013 169.072 641.709 169.561C641.405 170.05 640.676 170.243 640.081 169.993Z" fill="#D9D9D9" fill-opacity="0.25"/>
<path d="M789.072 173.729L768.479 165.085C767.884 164.836 767.649 164.237 767.953 163.748C768.257 163.26 768.986 163.066 769.581 163.316L790.173 171.959C790.768 172.209 791.004 172.808 790.7 173.296C790.396 173.785 789.667 173.978 789.072 173.729Z" fill="#D9D9D9" fill-opacity="0.25"/>
<path d="M635.429 177.464L614.837 168.821C614.242 168.571 614.006 167.973 614.31 167.484C614.614 166.995 615.343 166.802 615.938 167.052L636.531 175.695C637.126 175.945 637.361 176.543 637.057 177.032C636.753 177.521 636.024 177.714 635.429 177.464Z" fill="#D9D9D9" fill-opacity="0.25"/>
<path d="M633.104 181.2L612.511 172.557C611.916 172.307 611.68 171.708 611.985 171.22C612.289 170.731 613.018 170.537 613.613 170.787L634.205 179.431C634.8 179.68 635.036 180.279 634.732 180.768C634.428 181.256 633.699 181.45 633.104 181.2Z" fill="#D9D9D9" fill-opacity="0.25"/>
<path d="M630.779 184.935L610.186 176.292C609.591 176.042 609.356 175.444 609.66 174.955C609.964 174.466 610.693 174.273 611.288 174.523L631.88 183.166C632.475 183.416 632.711 184.014 632.407 184.503C632.103 184.992 631.374 185.185 630.779 184.935Z" fill="#D9D9D9" fill-opacity="0.25"/>
<path d="M628.453 188.671L607.86 180.028C607.265 179.778 607.029 179.179 607.334 178.691C607.638 178.202 608.367 178.009 608.962 178.258L629.554 186.902C630.149 187.151 630.385 187.75 630.081 188.239C629.777 188.727 629.048 188.921 628.453 188.671Z" fill="#D9D9D9" fill-opacity="0.25"/>
<path d="M626.127 192.407L605.535 183.763C604.94 183.514 604.704 182.915 605.008 182.426C605.313 181.938 606.042 181.744 606.637 181.994L627.229 190.637C627.824 190.887 628.06 191.486 627.756 191.974C627.452 192.463 626.723 192.656 626.127 192.407Z" fill="#D9D9D9" fill-opacity="0.25"/>
<path d="M623.802 196.142L603.21 187.498C602.615 187.249 602.379 186.65 602.683 186.161C602.987 185.673 603.716 185.479 604.311 185.729L624.904 194.372C625.499 194.622 625.735 195.221 625.43 195.709C625.126 196.198 624.397 196.392 623.802 196.142Z" fill="#D9D9D9" fill-opacity="0.25"/>
<path d="M621.477 199.878L600.885 191.234C600.289 190.985 600.054 190.386 600.358 189.897C600.662 189.409 601.391 189.215 601.986 189.465L622.579 198.108C623.174 198.358 623.409 198.957 623.105 199.445C622.801 199.934 622.072 200.127 621.477 199.878Z" fill="#D9D9D9" fill-opacity="0.25"/>
<path d="M607.281 97.2889L615.998 105.721C616.43 106.139 616.368 106.766 615.858 107.122C615.349 107.477 614.585 107.425 614.152 107.007L605.436 98.5749C605.004 98.1565 605.066 97.5295 605.575 97.1743C606.085 96.8193 606.849 96.8705 607.281 97.2889Z" fill="#D9D9D9" fill-opacity="0.25"/>
<path d="M597.88 93.9942L606.597 102.426C607.029 102.845 606.967 103.472 606.457 103.827C605.948 104.182 605.184 104.131 604.752 103.712L596.035 95.2802C595.603 94.8618 595.665 94.2349 596.175 93.8796C596.684 93.5246 597.448 93.5759 597.88 93.9942Z" fill="#D9D9D9" fill-opacity="0.25"/>
<path d="M588.912 91.1204L597.629 99.5526C598.061 99.971 597.999 100.598 597.489 100.953C596.98 101.308 596.216 101.257 595.784 100.839L587.067 92.4064C586.635 91.9881 586.697 91.3611 587.207 91.0058C587.716 90.6508 588.48 90.7021 588.912 91.1204Z" fill="#D9D9D9" fill-opacity="0.25"/>
<path d="M608.817 106.11C609.327 105.755 610.09 105.806 610.523 106.225C610.955 106.643 610.893 107.27 610.383 107.625C609.874 107.98 609.11 107.929 608.678 107.511C608.245 107.092 608.308 106.465 608.817 106.11Z" fill="#D9D9D9" fill-opacity="0.25"/>
<path d="M599.096 102.507C599.605 102.152 600.369 102.203 600.802 102.622C601.234 103.04 601.172 103.667 600.662 104.022C600.153 104.377 599.389 104.326 598.956 103.908C598.524 103.489 598.586 102.862 599.096 102.507Z" fill="#D9D9D9" fill-opacity="0.25"/>
<path d="M601.95 93.6669C602.46 93.3119 603.224 93.3632 603.656 93.7815C604.088 94.1999 604.026 94.8269 603.517 95.1819C603.007 95.5371 602.244 95.4858 601.811 95.0675C601.379 94.6491 601.441 94.0219 601.95 93.6669Z" fill="#D9D9D9" fill-opacity="0.25"/>
<path d="M592.317 90.1483C592.826 89.793 593.59 89.8445 594.022 90.2628C594.455 90.6812 594.392 91.3082 593.883 91.6632C593.373 92.0184 592.61 91.9672 592.177 91.5488C591.745 91.1305 591.807 90.5033 592.317 90.1483Z" fill="#D9D9D9" fill-opacity="0.25"/>
<path d="M763.493 139.452L761.986 154.578C761.932 155.125 761.348 155.532 760.682 155.487L759.921 155.436C759.254 155.392 758.759 154.912 758.813 154.365L760.32 139.239C760.374 138.692 760.958 138.285 761.624 138.33L762.385 138.381C763.051 138.426 763.547 138.905 763.493 139.452Z" fill="#D9D9D9" fill-opacity="0.25"/>
<path d="M758.478 129.207L756.972 144.333C756.918 144.88 756.334 145.287 755.667 145.242L754.906 145.191C754.24 145.146 753.745 144.666 753.799 144.12L755.305 128.994C755.36 128.447 755.944 128.04 756.61 128.085L757.371 128.136C758.037 128.18 758.533 128.66 758.478 129.207Z" fill="#D9D9D9" fill-opacity="0.25"/>
<path d="M753.394 119.686L751.888 134.811C751.833 135.358 751.249 135.766 750.583 135.721L749.822 135.67C749.156 135.625 748.66 135.145 748.715 134.598L750.221 119.473C750.275 118.926 750.859 118.519 751.526 118.563L752.286 118.614C752.953 118.659 753.448 119.139 753.394 119.686Z" fill="#D9D9D9" fill-opacity="0.25"/>
<path d="M754.896 149.143C755.773 149.202 756.425 149.833 756.353 150.552C756.282 151.272 755.513 151.807 754.637 151.748C753.761 151.69 753.109 151.058 753.18 150.339C753.252 149.62 754.02 149.084 754.896 149.143Z" fill="#D9D9D9" fill-opacity="0.25"/>
<path d="M749.936 138.367C750.813 138.426 751.465 139.057 751.393 139.776C751.322 140.496 750.553 141.031 749.677 140.973C748.801 140.914 748.149 140.283 748.22 139.563C748.292 138.844 749.06 138.308 749.936 138.367Z" fill="#D9D9D9" fill-opacity="0.25"/>
<path d="M762.605 132.324C763.482 132.383 764.134 133.014 764.062 133.734C763.991 134.453 763.222 134.989 762.346 134.93C761.47 134.871 760.818 134.24 760.889 133.521C760.961 132.801 761.729 132.266 762.605 132.324Z" fill="#D9D9D9" fill-opacity="0.25"/>
<path d="M757.63 121.693C758.507 121.752 759.159 122.383 759.087 123.102C759.015 123.822 758.247 124.357 757.371 124.298C756.495 124.24 755.842 123.609 755.914 122.889C755.986 122.17 756.754 121.634 757.63 121.693Z" fill="#D9D9D9" fill-opacity="0.25"/>
<path d="M681.298 76.2588C683.574 78.6197 683.089 82.0487 680.213 83.918C677.338 85.7871 673.162 85.3884 670.886 83.0275C668.61 80.6667 669.095 77.2375 671.97 75.3685C674.845 73.4994 679.022 73.8978 681.298 76.2588Z" fill="#D9D9D9" fill-opacity="0.25"/>
<path d="M278.132 101.194L276.885 100.517C274.189 99.0543 270.518 99.6886 268.686 101.933L257.1 116.133C255.268 118.378 255.97 121.383 258.666 122.846L275.722 132.097C278.419 133.559 282.089 132.925 283.921 130.68L284.768 129.642C285.997 128.135 288.46 127.71 290.269 128.691L291.517 129.368C294.213 130.83 297.884 130.196 299.716 127.951L311.302 113.752C313.133 111.507 312.432 108.502 309.736 107.039L292.68 97.7882C289.983 96.3256 286.312 96.9599 284.481 99.2047L283.634 100.243C282.405 101.749 279.942 102.175 278.132 101.194Z" stroke="#0F1B1B" stroke-opacity="0.07" stroke-width="1.30629" stroke-miterlimit="10"/>
<path d="M738.529 184.983L731.908 192.336C730.947 193.404 729.113 193.63 727.812 192.841L718.857 187.404C717.556 186.615 717.281 185.108 718.243 184.041L724.864 176.687C725.825 175.619 727.659 175.393 728.96 176.183L737.915 181.619C739.216 182.409 739.491 183.915 738.529 184.983Z" fill="#D9D9D9" fill-opacity="0.25"/>
<path d="M688.224 485.715L696.58 482.236L700.816 489.097L688.224 485.715ZM706.152 475.91L697.796 479.389L693.56 472.528L706.152 475.91ZM704.364 491.095C704.383 491.048 704.392 491.001 704.402 490.953C704.405 490.937 704.412 490.921 704.415 490.904C704.419 490.874 704.417 490.844 704.418 490.814C704.419 490.778 704.423 490.743 704.42 490.707C704.418 490.69 704.412 490.674 704.41 490.657C704.392 490.547 704.358 490.438 704.293 490.333L698.682 481.248L709.702 476.659C710.056 476.564 710.354 476.339 710.478 476.026C710.686 475.505 710.34 474.944 709.704 474.773L691.538 469.894C690.903 469.724 690.22 470.008 690.012 470.53C689.993 470.577 689.984 470.624 689.974 470.672C689.971 470.688 689.964 470.704 689.961 470.721C689.957 470.751 689.959 470.781 689.958 470.811C689.957 470.847 689.953 470.882 689.956 470.918C689.958 470.935 689.964 470.951 689.966 470.968C689.984 471.078 690.019 471.187 690.083 471.292L695.694 480.377L684.674 484.966C684.32 485.061 684.022 485.286 683.898 485.599C683.69 486.12 684.036 486.681 684.672 486.852L702.838 491.731C703.473 491.901 704.156 491.617 704.364 491.095Z" fill="#D9D9D9" fill-opacity="0.25"/>
<path d="M656.157 416.044L635.565 407.401C634.97 407.151 634.734 406.553 635.038 406.064C635.342 405.575 636.071 405.382 636.666 405.632L657.259 414.275C657.854 414.525 658.089 415.123 657.785 415.612C657.481 416.101 656.752 416.294 656.157 416.044Z" fill="#D9D9D9" fill-opacity="0.25"/>
<path d="M653.832 419.78L633.24 411.137C632.644 410.887 632.409 410.288 632.713 409.8C633.017 409.311 633.746 409.117 634.341 409.367L654.934 418.011C655.529 418.26 655.764 418.859 655.46 419.348C655.156 419.836 654.427 420.03 653.832 419.78Z" fill="#D9D9D9" fill-opacity="0.25"/>
<path d="M651.507 423.516L630.914 414.872C630.319 414.622 630.083 414.024 630.388 413.535C630.692 413.047 631.421 412.853 632.016 413.103L652.608 421.746C653.203 421.996 653.439 422.595 653.135 423.083C652.831 423.572 652.102 423.765 651.507 423.516Z" fill="#D9D9D9" fill-opacity="0.25"/>
<path d="M649.181 427.251L628.588 418.608C627.993 418.358 627.757 417.759 628.062 417.271C628.366 416.782 629.095 416.588 629.69 416.838L650.282 425.481C650.877 425.731 651.113 426.33 650.809 426.818C650.505 427.307 649.776 427.501 649.181 427.251Z" fill="#D9D9D9" fill-opacity="0.25"/>
<path d="M646.855 430.986L626.263 422.343C625.668 422.093 625.432 421.495 625.736 421.006C626.04 420.517 626.77 420.324 627.365 420.574L647.957 429.217C648.552 429.467 648.788 430.065 648.484 430.554C648.18 431.043 647.45 431.236 646.855 430.986Z" fill="#D9D9D9" fill-opacity="0.25"/>
<path d="M644.53 434.722L623.938 426.078C623.343 425.829 623.107 425.23 623.411 424.741C623.715 424.253 624.444 424.059 625.04 424.309L645.632 432.952C646.227 433.202 646.463 433.801 646.159 434.289C645.854 434.778 645.125 434.972 644.53 434.722Z" fill="#D9D9D9" fill-opacity="0.25"/>
<path d="M642.205 438.457L621.613 429.814C621.018 429.564 620.782 428.966 621.086 428.477C621.39 427.988 622.119 427.795 622.714 428.045L643.306 436.688C643.902 436.938 644.137 437.536 643.833 438.025C643.529 438.514 642.8 438.707 642.205 438.457Z" fill="#D9D9D9" fill-opacity="0.25"/>
<path d="M639.879 442.193L619.287 433.55C618.692 433.3 618.456 432.701 618.76 432.213C619.064 431.724 619.793 431.53 620.389 431.78L640.981 440.424C641.576 440.673 641.812 441.272 641.508 441.761C641.203 442.249 640.474 442.443 639.879 442.193Z" fill="#D9D9D9" fill-opacity="0.25"/>
<path d="M637.554 445.929L616.961 437.285C616.366 437.035 616.13 436.437 616.435 435.948C616.739 435.459 617.468 435.266 618.063 435.516L638.655 444.159C639.25 444.409 639.486 445.007 639.182 445.496C638.878 445.985 638.149 446.178 637.554 445.929Z" fill="#D9D9D9" fill-opacity="0.25"/>
<path d="M635.228 449.664L614.636 441.021C614.041 440.771 613.805 440.172 614.109 439.684C614.413 439.195 615.142 439.001 615.737 439.251L636.329 447.895C636.924 448.144 637.16 448.743 636.856 449.232C636.552 449.72 635.823 449.914 635.228 449.664Z" fill="#D9D9D9" fill-opacity="0.25"/>
<path d="M632.903 453.4L612.311 444.756C611.716 444.507 611.48 443.908 611.784 443.419C612.088 442.931 612.817 442.737 613.412 442.987L634.005 451.63C634.6 451.88 634.836 452.479 634.531 452.967C634.227 453.456 633.498 453.649 632.903 453.4Z" fill="#D9D9D9" fill-opacity="0.25"/>
<path d="M618.708 350.811L627.424 359.243C627.857 359.661 627.794 360.288 627.285 360.643C626.775 360.998 626.012 360.947 625.579 360.529L616.863 352.096C616.43 351.678 616.493 351.051 617.002 350.696C617.512 350.341 618.275 350.392 618.708 350.811Z" fill="#D9D9D9" fill-opacity="0.25"/>
<path d="M609.306 347.516L618.023 355.948C618.455 356.367 618.392 356.994 617.883 357.349C617.373 357.704 616.61 357.653 616.177 357.234L607.461 348.802C607.028 348.384 607.091 347.757 607.6 347.402C608.11 347.047 608.874 347.098 609.306 347.516Z" fill="#D9D9D9" fill-opacity="0.25"/>
<path d="M600.339 344.643L609.056 353.075C609.488 353.493 609.426 354.12 608.916 354.476C608.407 354.831 607.643 354.779 607.21 354.361L598.494 345.929C598.062 345.51 598.124 344.883 598.634 344.528C599.143 344.173 599.907 344.224 600.339 344.643Z" fill="#D9D9D9" fill-opacity="0.25"/>
<path d="M620.243 359.632C620.753 359.277 621.516 359.328 621.949 359.747C622.381 360.165 622.319 360.792 621.81 361.147C621.3 361.502 620.536 361.451 620.104 361.033C619.672 360.614 619.734 359.987 620.243 359.632Z" fill="#D9D9D9" fill-opacity="0.25"/>
<path d="M610.522 356.029C611.032 355.674 611.795 355.725 612.228 356.143C612.66 356.562 612.598 357.189 612.088 357.544C611.579 357.899 610.815 357.848 610.383 357.429C609.95 357.011 610.013 356.384 610.522 356.029Z" fill="#D9D9D9" fill-opacity="0.25"/>
<path d="M613.377 347.189C613.886 346.834 614.65 346.885 615.082 347.304C615.515 347.722 615.452 348.349 614.943 348.704C614.433 349.059 613.67 349.008 613.237 348.59C612.805 348.171 612.867 347.544 613.377 347.189Z" fill="#D9D9D9" fill-opacity="0.25"/>
<path d="M603.743 343.67C604.253 343.315 605.016 343.366 605.449 343.785C605.881 344.203 605.819 344.83 605.31 345.185C604.8 345.54 604.036 345.489 603.604 345.071C603.172 344.652 603.234 344.025 603.743 343.67Z" fill="#D9D9D9" fill-opacity="0.25"/>
<path d="M769.905 382.729L768.399 397.855C768.344 398.402 767.76 398.809 767.094 398.764L766.333 398.713C765.667 398.668 765.171 398.189 765.226 397.642L766.732 382.516C766.787 381.969 767.371 381.562 768.037 381.607L768.798 381.658C769.464 381.703 769.96 382.182 769.905 382.729Z" fill="#D9D9D9" fill-opacity="0.25"/>
<path d="M764.82 373.207L763.314 388.333C763.259 388.88 762.675 389.287 762.009 389.243L761.248 389.192C760.582 389.147 760.086 388.667 760.141 388.12L761.647 372.994C761.702 372.447 762.286 372.04 762.952 372.085L763.713 372.136C764.379 372.181 764.875 372.66 764.82 373.207Z" fill="#D9D9D9" fill-opacity="0.25"/>
<path d="M766.322 402.665C767.198 402.724 767.851 403.354 767.779 404.074C767.707 404.794 766.939 405.329 766.063 405.27C765.187 405.211 764.534 404.58 764.606 403.861C764.678 403.142 765.446 402.606 766.322 402.665Z" fill="#D9D9D9" fill-opacity="0.25"/>
<path d="M761.363 391.889C762.239 391.948 762.891 392.579 762.82 393.298C762.748 394.018 761.98 394.553 761.103 394.494C760.227 394.436 759.575 393.804 759.646 393.085C759.718 392.366 760.486 391.83 761.363 391.889Z" fill="#D9D9D9" fill-opacity="0.25"/>
<path d="M769.056 375.215C769.932 375.274 770.584 375.905 770.513 376.624C770.441 377.344 769.673 377.879 768.797 377.82C767.92 377.762 767.268 377.131 767.34 376.411C767.411 375.692 768.18 375.156 769.056 375.215Z" fill="#D9D9D9" fill-opacity="0.25"/>
<path d="M692.724 329.781C695 332.142 694.515 335.571 691.639 337.44C688.764 339.309 684.588 338.911 682.312 336.55C680.035 334.189 680.521 330.76 683.396 328.891C686.271 327.022 690.447 327.42 692.724 329.781Z" fill="#D9D9D9" fill-opacity="0.25"/>
<path d="M757.008 428.026L755.795 427.29C753.172 425.698 749.475 426.153 747.537 428.306L735.274 441.926C733.336 444.079 733.89 447.115 736.512 448.707L753.098 458.775C755.721 460.367 759.418 459.912 761.356 457.759L762.253 456.763C763.554 455.318 766.035 455.013 767.794 456.081L769.007 456.818C771.629 458.409 775.326 457.954 777.265 455.801L789.527 442.182C791.466 440.028 790.912 436.993 788.289 435.401L771.703 425.332C769.081 423.74 765.384 424.195 763.445 426.348L762.548 427.344C761.248 428.789 758.767 429.094 757.008 428.026Z" stroke="#0F1B1B" stroke-opacity="0.07" stroke-width="1.30629" stroke-miterlimit="10"/>
<path d="M749.954 438.505L743.334 445.859C742.372 446.927 740.538 447.152 739.237 446.363L730.282 440.926C728.981 440.137 728.707 438.631 729.668 437.563L736.289 430.209C737.25 429.141 739.085 428.916 740.385 429.705L749.34 435.142C750.641 435.931 750.916 437.437 749.954 438.505Z" fill="#D9D9D9" fill-opacity="0.25"/>
<path d="M309.923 104.663L303.302 112.016C302.341 113.084 300.507 113.31 299.206 112.52L290.251 107.084C288.95 106.294 288.675 104.788 289.637 103.721L296.258 96.367C297.219 95.299 299.053 95.0733 300.354 95.8628L309.309 101.299C310.61 102.089 310.885 103.595 309.923 104.663Z" fill="#D9D9D9" fill-opacity="0.25"/>
</g>
</g>
<circle cx="625" cy="414" r="25" fill="url(#paint0_radial_221_5667)"/>
<circle cx="550" cy="434" r="12" fill="url(#paint1_radial_221_5667)"/>
<circle cx="718" cy="367" r="40" fill="url(#paint2_radial_221_5667)"/>
<rect x="26" y="62" width="0.564744" height="1.12949" fill="#DCDCDC"/>
</g>
<defs>
<radialGradient id="paint0_radial_221_5667" cx="0" cy="0" r="1" gradientUnits="userSpaceOnUse" gradientTransform="translate(613.889 401.037) rotate(59.144) scale(42.1998)">
<stop stop-color="#9EECE5" stop-opacity="0.48"/>
<stop offset="0.604593" stop-color="#9EECE5"/>
<stop offset="0.796202" stop-color="#72DFDD"/>
<stop offset="1" stop-color="#51BBF6"/>
</radialGradient>
<radialGradient id="paint1_radial_221_5667" cx="0" cy="0" r="1" gradientUnits="userSpaceOnUse" gradientTransform="translate(544.667 427.778) rotate(59.144) scale(20.2559)">
<stop stop-color="#9EECE5" stop-opacity="0.48"/>
<stop offset="0.604593" stop-color="#9EECE5"/>
<stop offset="0.796202" stop-color="#72DFDD"/>
<stop offset="1" stop-color="#51BBF6"/>
</radialGradient>
<radialGradient id="paint2_radial_221_5667" cx="0" cy="0" r="1" gradientUnits="userSpaceOnUse" gradientTransform="translate(700.222 346.259) rotate(59.144) scale(67.5197)">
<stop stop-color="#FBB5D7" stop-opacity="0.37"/>
<stop offset="0.604593" stop-color="#F8A4CD"/>
<stop offset="0.796202" stop-color="#E571C7"/>
<stop offset="1" stop-color="#515BF6"/>
</radialGradient>
<clipPath id="clip0_221_5667">
<rect width="768" height="513" fill="white"/>
</clipPath>
<clipPath id="clip1_221_5667">
<rect width="1011.07" height="467" fill="white" transform="translate(-121.767 66)"/>
</clipPath>
</defs>
</svg>
