<svg xmlns="http://www.w3.org/2000/svg" width="1439" height="792" fill="none"><mask id="a" width="1548" height="715" x="0" y="77" maskUnits="userSpaceOnUse" style="mask-type:luminance"><path fill="#fff" d="M0 77h1548v715H0V77Z"/></mask><g fill="#0F1B1B" fill-opacity=".07" mask="url(#a)"><path d="m585.582 217.03-19.902-1.336a2.05 2.05 0 0 0-1.319.354c-.356.245-.599.601-.64 1.011l-1.482 14.888-18.132-1.217a2.047 2.047 0 0 0-1.318.354c-.357.245-.6.601-.641 1.011l-1.485 14.917-18.166-1.22a2.05 2.05 0 0 0-1.319.355c-.356.244-.599.6-.64 1.01l-1.483 14.888-18.131-1.217a2.05 2.05 0 0 0-1.319.355c-.356.244-.599.6-.64 1.01l-1.627 16.343c-.081.811.654 1.522 1.641 1.588.988.067 1.854-.537 1.935-1.348l1.483-14.893 18.137 1.218c.498.033.964-.104 1.316-.352.354-.244.596-.6.636-1.009l1.484-14.893 18.137 1.218c.507.034.98-.11 1.333-.367.365-.244.616-.604.657-1.02l1.483-14.893 18.137 1.218c.498.033.965-.105 1.316-.353.355-.244.596-.599.637-1.008l1.483-14.893 18.137 1.217c.987.067 1.853-.537 1.934-1.348.081-.811-.654-1.522-1.642-1.588ZM136.873 759.797l2.701-16.246c.067-.408-.076-.799-.361-1.1-.277-.306-.697-.524-1.194-.58l-18.025-2.02 2.461-14.801c.067-.407-.076-.798-.36-1.1a1.89 1.89 0 0 0-1.195-.579l-18.059-2.024 2.464-14.83c.068-.407-.075-.798-.36-1.1-.277-.306-.697-.524-1.194-.579l-18.025-2.02 2.46-14.801c.068-.408-.076-.798-.36-1.1-.277-.306-.698-.524-1.194-.58l-19.786-2.217c-.982-.11-1.886.454-2.02 1.26-.134.807.553 1.549 1.535 1.659l18.03 2.021-2.46 14.805c-.068.407.075.797.357 1.098.278.304.697.521 1.192.577l18.031 2.02-2.461 14.806c-.069.414.081.809.374 1.112.277.313.702.538 1.205.595l18.031 2.02-2.461 14.806c-.067.406.075.796.358 1.097.277.304.697.522 1.192.577l18.03 2.02-2.461 14.806c-.134.806.554 1.549 1.535 1.659.982.11 1.886-.455 2.02-1.261ZM1526.74 104.696l-19.9-1.336c-.5-.034-.97.105-1.32.355-.36.244-.6.6-.64 1.01l-1.49 14.888-18.13-1.217c-.5-.034-.96.105-1.32.354-.35.245-.59.601-.64 1.011l-1.48 14.917-18.17-1.22c-.5-.033-.96.106-1.32.355-.35.244-.6.6-.64 1.01l-1.48 14.889-18.13-1.218a2.05 2.05 0 0 0-1.32.355c-.36.244-.6.6-.64 1.011l-1.63 16.342c-.08.811.66 1.522 1.65 1.588.98.067 1.85-.537 1.93-1.348l1.48-14.893 18.14 1.218c.5.033.96-.104 1.32-.352.35-.244.59-.6.63-1.009l1.49-14.893 18.13 1.218c.51.034.98-.11 1.34-.367.36-.244.61-.604.65-1.02l1.49-14.893 18.13 1.218c.5.033.97-.105 1.32-.353.35-.244.59-.599.64-1.008l1.48-14.893 18.14 1.218c.98.066 1.85-.538 1.93-1.348.08-.811-.65-1.522-1.64-1.589ZM1488.9 691.71l-19.91-1.336a2.02 2.02 0 0 0-1.31.354c-.36.245-.6.601-.64 1.011l-1.49 14.888-18.13-1.217a2.05 2.05 0 0 0-1.32.354c-.35.244-.6.601-.64 1.011l-1.48 14.917-18.17-1.22a2.05 2.05 0 0 0-1.32.355c-.35.244-.6.6-.64 1.01l-1.48 14.888-18.13-1.217c-.5-.034-.97.105-1.32.355-.36.244-.6.6-.64 1.01l-1.63 16.343c-.08.811.66 1.522 1.64 1.588.99.066 1.86-.537 1.94-1.348l1.48-14.893 18.14 1.218c.5.033.96-.104 1.31-.353.36-.244.6-.599.64-1.008l1.48-14.893 18.14 1.218c.51.034.98-.11 1.33-.367.37-.245.62-.604.66-1.021l1.48-14.892 18.14 1.217c.5.034.97-.104 1.32-.352.35-.244.59-.6.63-1.008l1.49-14.893 18.13 1.218c.99.066 1.86-.538 1.94-1.349.08-.811-.66-1.522-1.64-1.588ZM1130.99 375.225l-19.9-1.337c-.5-.033-.97.106-1.32.355-.36.244-.6.6-.64 1.01l-1.48 14.889-18.13-1.218a2.05 2.05 0 0 0-1.32.355c-.36.244-.6.6-.64 1.01l-1.49 14.917-18.16-1.219a2.05 2.05 0 0 0-1.32.354c-.36.244-.6.601-.64 1.011l-1.49 14.888-18.13-1.218c-.5-.033-.96.106-1.31.355-.36.245-.6.601-.64 1.011l-1.63 16.342c-.08.811.65 1.522 1.64 1.588.99.067 1.85-.537 1.93-1.347l1.49-14.894 18.13 1.218c.5.034.97-.104 1.32-.352.35-.244.6-.599.64-1.008l1.48-14.893 18.14 1.217c.5.034.98-.11 1.33-.366.37-.245.62-.605.66-1.021l1.48-14.893 18.14 1.218c.5.033.96-.104 1.31-.352.36-.244.6-.6.64-1.009l1.48-14.893 18.14 1.218c.99.066 1.85-.537 1.93-1.348.08-.811-.65-1.522-1.64-1.588ZM146.561 440.522l-12.922-12.501c-.324-.314-.775-.487-1.238-.515a2.064 2.064 0 0 0-1.323.343l-13.869 9.666-11.773-11.388c-.324-.314-.774-.487-1.237-.515a2.062 2.062 0 0 0-1.323.343l-13.896 9.686-11.795-11.411c-.325-.313-.774-.487-1.238-.515a2.062 2.062 0 0 0-1.323.343l-13.87 9.667-11.771-11.388c-.325-.314-.775-.488-1.238-.515a2.05 2.05 0 0 0-1.323.343l-15.224 10.611c-.755.526-.848 1.456-.207 2.076.641.62 1.773.696 2.529.17l13.874-9.67 11.776 11.392c.323.313.771.486 1.233.515.462.033.938-.078 1.319-.344l13.873-9.669 11.777 11.392c.329.318.788.491 1.258.514.47.039.956-.069 1.344-.34l13.873-9.669 11.777 11.392c.323.313.771.486 1.233.514a2.05 2.05 0 0 0 1.319-.343l13.874-9.67 11.776 11.392c.641.62 1.773.697 2.528.17.756-.526.848-1.456.207-2.076ZM993.258 609.222l-12.923-12.501c-.324-.314-.774-.487-1.237-.515a2.062 2.062 0 0 0-1.323.343l-13.87 9.667-11.772-11.389c-.324-.313-.774-.486-1.237-.514a2.049 2.049 0 0 0-1.323.343l-13.896 9.685-11.796-11.411c-.324-.313-.774-.487-1.237-.514a2.05 2.05 0 0 0-1.323.343l-13.87 9.666-11.772-11.388c-.324-.314-.774-.487-1.237-.515a2.062 2.062 0 0 0-1.323.343l-15.224 10.611c-.756.527-.848 1.456-.207 2.076.641.62 1.773.697 2.528.17l13.874-9.67 11.776 11.392c.324.313.772.487 1.233.515a2.06 2.06 0 0 0 1.32-.343l13.873-9.67 11.777 11.392c.328.318.787.491 1.258.514.469.04.956-.069 1.343-.339l13.874-9.67 11.776 11.392c.324.313.772.486 1.234.515a2.06 2.06 0 0 0 1.319-.344l13.873-9.67 11.777 11.393c.641.62 1.773.696 2.528.169.755-.526.848-1.456.207-2.076Z"/></g><mask id="b" width="1548" height="715" x="0" y="77" maskUnits="userSpaceOnUse" style="mask-type:luminance"><path fill="#fff" d="M0 77h1548v715H0V77Z"/></mask><g fill="#EAEAEA" fill-opacity=".25" mask="url(#b)"><path d="m718.403 114.429 94.423 77.534c.724.593.724 1.557 0 2.151-.723.594-1.896.594-2.62 0l-94.423-77.534c-.723-.594-.723-1.557 0-2.151.723-.595 1.896-.595 2.62 0ZM723.935 109.887l94.423 77.534c.723.594.723 1.557 0 2.151-.724.594-1.897.594-2.62 0l-94.423-77.534c-.724-.594-.724-1.557 0-2.151.723-.594 1.896-.594 2.62 0ZM729.466 105.345l94.423 77.534c.723.594.723 1.557 0 2.151-.724.594-1.897.594-2.62 0l-94.423-77.534c-.724-.594-.724-1.557 0-2.151.723-.594 1.896-.594 2.62 0Z"/><path d="m753.659 176.371 24.043-10.011 12.191 19.742-36.234-9.731Zm51.588-28.218-24.043 10.011-12.192-19.742 36.235 9.731Zm-5.145 43.699c.054-.135.081-.272.11-.408.01-.048.03-.093.037-.141.013-.088.006-.174.009-.261.004-.102.015-.204.006-.308-.005-.049-.022-.095-.03-.143a2.47 2.47 0 0 0-.335-.931l-16.146-26.145 31.711-13.204c1.019-.273 1.875-.921 2.234-1.822.597-1.501-.399-3.115-2.227-3.606l-52.276-14.04c-1.828-.491-3.794.328-4.392 1.829-.054.135-.081.272-.109.408-.01.048-.03.093-.038.141-.013.088-.005.174-.009.261-.004.103-.014.205-.005.308.005.049.022.095.03.144.049.315.149.63.335.93l16.145 26.146-31.71 13.203c-1.019.274-1.875.921-2.234 1.822-.598 1.501.399 3.116 2.227 3.607l52.275 14.039c1.828.491 3.795-.328 4.392-1.829ZM449.135 490.485l-13.521-19.15 23.32-11.103-9.799 30.253Zm-37.205-40.711 13.522 19.15-23.321 11.103 9.799-30.253Zm53.423 1.766c-.168-.037-.335-.051-.503-.067-.058-.006-.115-.019-.173-.023-.107-.005-.212.005-.318.008-.125.002-.249-.001-.374.012-.06.007-.115.024-.173.033a3.952 3.952 0 0 0-1.113.327l-30.884 14.704-17.834-25.257c-.39-.82-1.225-1.486-2.341-1.729-1.859-.406-3.766.502-4.26 2.028l-14.138 43.645c-.494 1.526.612 3.092 2.471 3.499.167.036.335.05.502.066.059.005.115.02.174.023.107.005.211-.005.317-.008.125-.002.25.001.375-.012.059-.007.115-.023.173-.033a3.993 3.993 0 0 0 1.113-.326l30.884-14.705 17.834 25.257c.39.82 1.225 1.485 2.341 1.729 1.858.406 3.766-.502 4.26-2.028l14.137-43.645c.495-1.526-.611-3.093-2.47-3.498Z"/><path d="m404.931 494.836 79.877-87.869c.613-.673 1.773-.812 2.593-.309.82.502.989 1.455.377 2.129L407.9 496.656c-.612.673-1.772.812-2.592.309-.82-.502-.989-1.456-.377-2.129ZM398.662 490.994l79.878-87.869c.612-.674 1.773-.812 2.593-.31.82.503.988 1.456.376 2.13l-79.877 87.869c-.612.673-1.773.811-2.593.309-.82-.503-.988-1.456-.377-2.129ZM392.394 487.152l79.877-87.87c.612-.673 1.773-.811 2.593-.309.82.503.988 1.456.377 2.129l-79.878 87.87c-.612.673-1.773.811-2.593.309-.82-.503-.988-1.456-.376-2.129ZM859.567 705.487l-13.522-19.15 23.321-11.103-9.799 30.253Zm-37.205-40.71 13.522 19.149-23.321 11.103 9.799-30.252Zm53.423 1.765c-.168-.037-.336-.051-.503-.067-.059-.005-.115-.019-.173-.022-.108-.006-.212.004-.318.007-.125.002-.25-.001-.375.012-.059.007-.114.024-.173.033a3.962 3.962 0 0 0-1.113.327l-30.884 14.704-17.834-25.257c-.39-.82-1.225-1.485-2.341-1.729-1.858-.406-3.766.502-4.26 2.028l-14.137 43.646c-.494 1.526.612 3.092 2.47 3.498.168.036.336.051.503.066.058.006.115.02.173.023.108.006.212-.005.318-.007.125-.003.25.001.375-.013.059-.007.114-.023.172-.032a3.992 3.992 0 0 0 1.114-.327l30.884-14.704 17.834 25.256c.389.82 1.225 1.486 2.341 1.729 1.858.407 3.766-.502 4.26-2.028l14.137-43.645c.494-1.526-.612-3.092-2.47-3.498Z"/><path d="m865.913 742.437-60.823-97.614c-.466-.748-.105-1.665.805-2.047.911-.383 2.028-.087 2.494.661l60.823 97.615c.466.748.105 1.664-.805 2.047-.911.383-2.028.087-2.494-.662ZM858.95 745.363l-60.824-97.614c-.466-.748-.105-1.665.805-2.048.912-.382 2.028-.086 2.494.662l60.823 97.614c.466.748.106 1.665-.805 2.047-.911.383-2.027.087-2.493-.661ZM851.986 748.289l-60.824-97.615c-.466-.748-.105-1.664.806-2.047.911-.383 2.027-.087 2.493.661l60.823 97.615c.466.748.106 1.665-.805 2.047-.911.383-2.027.087-2.493-.661ZM1429.25 360.786l-5.39-21.687 26.41-4.432-21.02 26.119Zm-19.49-48.316 5.4 21.687-26.41 4.432 21.01-26.119Zm49.96 15.633c-.14-.078-.3-.135-.45-.194-.05-.021-.1-.049-.16-.067-.09-.034-.2-.051-.3-.076-.12-.03-.24-.066-.36-.086-.06-.009-.12-.008-.18-.015a4.179 4.179 0 0 0-1.18.02l-34.98 5.869-7.11-28.604c-.06-.879-.59-1.728-1.55-2.251-1.61-.87-3.77-.508-4.83.81l-30.31 37.682c-1.06 1.318-.62 3.091.98 3.962.15.078.3.136.45.194.06.021.1.049.16.067.1.033.2.051.3.076.12.031.24.066.36.086.06.009.12.008.18.014.38.045.78.049 1.18-.018l34.98-5.87 7.12 28.604c.05.879.58 1.728 1.55 2.251 1.6.87 3.76.508 4.82-.81l30.32-37.682c1.06-1.318.62-3.091-.99-3.962Z"/><path d="M1427.28 417.134 1410 346.762c-.2-.824.44-1.626 1.45-1.792 1-.166 1.98.367 2.18 1.19l17.28 70.373c.21.823-.44 1.626-1.45 1.792-1 .166-1.98-.367-2.18-1.191ZM1419.61 418.404l-17.28-70.373c-.2-.823.45-1.625 1.45-1.791 1-.167 1.98.366 2.18 1.19l17.28 70.373c.21.823-.44 1.625-1.44 1.792-1.01.165-1.98-.367-2.19-1.191ZM1411.94 419.674l-17.28-70.373c-.2-.823.45-1.625 1.45-1.792 1-.166 1.98.367 2.18 1.191l17.29 70.372c.2.824-.45 1.626-1.45 1.792-1.01.166-1.98-.367-2.19-1.19ZM64.936 614.8l-13.522-19.149 23.32-11.103-9.798 30.252ZM27.73 574.09l13.522 19.149-23.321 11.103 9.799-30.252Zm53.422 1.765c-.167-.037-.335-.05-.502-.066-.059-.006-.115-.02-.174-.023-.107-.006-.211.005-.317.007-.125.003-.25-.001-.375.013-.059.007-.115.023-.173.032a3.956 3.956 0 0 0-1.113.327l-30.884 14.704-17.834-25.256c-.39-.821-1.225-1.486-2.34-1.73-1.86-.405-3.767.503-4.26 2.029L9.042 609.537c-.494 1.526.611 3.092 2.47 3.498.168.037.336.051.503.066.058.006.115.02.173.024.107.005.212-.005.318-.008.125-.002.25.001.374-.013.06-.006.115-.023.173-.032a3.956 3.956 0 0 0 1.113-.327l30.885-14.704 17.834 25.256c.39.821 1.225 1.486 2.34 1.73 1.859.406 3.766-.502 4.26-2.028l14.138-43.646c.494-1.526-.612-3.092-2.47-3.498Z"/><path d="m63.387 574.255-35.323-64.889c-.417-.767.002-1.667.936-2.01.934-.342 2.03.001 2.447.768l35.323 64.89c.418.767-.001 1.666-.935 2.009-.934.343-2.03-.001-2.448-.768ZM56.246 576.876l-35.323-64.889c-.418-.767.001-1.666.935-2.009.935-.343 2.03.001 2.448.768l35.323 64.889c.417.767-.002 1.666-.936 2.009-.934.343-2.03-.001-2.447-.768ZM49.105 579.498l-35.323-64.89c-.418-.767 0-1.666.935-2.009.934-.343 2.03.001 2.447.768l35.323 64.889c.418.767 0 1.667-.935 2.01-.934.343-2.03-.001-2.447-.768Z"/></g><mask id="c" width="1548" height="715" x="0" y="77" maskUnits="userSpaceOnUse" style="mask-type:luminance"><path fill="#fff" d="M0 77h1548v715H0V77Z"/></mask><g fill="#0F1B1B" fill-opacity=".07" mask="url(#c)"><path d="m949.179 303.018-55.617-9.511 25.866-41.551 55.617 9.511-25.866 41.551Zm-29.794-52.02-41.758-31.294 55.348 9.464 41.758 31.295-55.348-9.465Zm-26.833 42.087-41.964-31.449 25.866-41.551 41.964 31.449-25.866 41.551Zm83.851-31.759.008-.018a.365.365 0 0 0 .028-.073l.002-.005.001-.009.009-.042c.013-.01.027-.018.04-.029.211-.19.195-.484-.037-.658l-42.828-32.095c-.013-.011-.028-.018-.042-.027l-.034-.02c-.016-.009-.034-.016-.051-.023a.487.487 0 0 0-.053-.021l-.04-.01c-.017-.004-.033-.01-.051-.013l-56.766-9.707c-.306-.053-.606.109-.67.36-.004.016-.004.031-.006.046l-.02.017-.024.017-.009.011c-.014.013-.025.027-.037.041a.357.357 0 0 0-.03.038l-.01.012-26.391 42.395-.01.019c-.111.182-.069.408.123.552l42.828 32.096.022.014a.637.637 0 0 0 .027.017l.027.016.036.017.016.009.017.005a.382.382 0 0 0 .036.013l.027.007a.405.405 0 0 0 .047.012l.016.004 56.766 9.707c.247.043.488-.056.606-.227.008-.011.018-.02.025-.032l26.391-42.395c.005-.007.007-.014.011-.021ZM384.249 150.446l28.138-40.524 40.185 32.996-28.138 40.525-40.185-32.997Zm69.446-7.266 49.113-22.993-28.001 40.329-49.113 22.992 28.001-40.328Zm-40.507-33.918 49.355-23.106 40.185 32.997-49.356 23.106-40.184-32.997Zm10.992 75.285c.005.005.012.008.018.013a.628.628 0 0 0 .076.044l.004.003.011.004.045.019c.008.013.013.027.022.04.155.224.501.301.773.174l50.372-23.582c.016-.007.029-.017.043-.025l.034-.02a.35.35 0 0 0 .043-.033.299.299 0 0 0 .064-.063c.011-.012.023-.023.031-.036l28.719-41.361c.155-.224.06-.508-.212-.635-.016-.008-.033-.013-.05-.019l-.014-.021c-.005-.008-.007-.016-.013-.024-.002-.004-.006-.007-.009-.01a.47.47 0 0 0-.036-.042c-.011-.012-.022-.024-.035-.035l-.011-.011-41.001-33.667-.02-.014a.66.66 0 0 0-.677-.074l-50.371 23.582-.023.013a.254.254 0 0 0-.028.016.382.382 0 0 0-.058.039c-.005.003-.011.006-.015.01-.005.003-.008.008-.012.011l-.025.024-.018.019c-.009.011-.019.022-.027.034a.11.11 0 0 0-.01.011l-28.719 41.362c-.125.18-.085.398.076.543l.03.03 41.001 33.666c.006.006.014.01.022.015ZM1488.14 556.844l-55.62-9.51 25.87-41.551 55.62 9.51-25.87 41.551Zm-29.79-52.019-41.76-31.294 55.35 9.464 41.75 31.294-55.34-9.464Zm-26.84 42.086-41.96-31.448 25.87-41.551 41.96 31.449-25.87 41.55Zm83.85-31.759c.01-.006.01-.012.01-.017l.03-.074v-.014c.01-.013.01-.027.01-.041a.411.411 0 0 0 .01-.687l-42.83-32.096c-.02-.01-.03-.017-.05-.026l-.03-.02c-.02-.009-.03-.017-.05-.024-.02-.007-.03-.014-.05-.02l-.04-.01a1.142 1.142 0 0 1-.05-.014l-56.77-9.707c-.31-.052-.61.11-.67.361 0 .015 0 .031-.01.046 0 .005-.01.011-.02.017 0 .006-.01.011-.02.017 0 .004-.01.007-.01.011-.01.012-.02.026-.04.041a.63.63 0 0 0-.03.038c0 .004 0 .008-.01.012l-26.39 42.394c0 .007 0 .013-.01.02-.11.182-.07.408.13.552l42.82 32.096.03.014c0 .005.01.011.02.017l.03.016c.01.006.02.012.04.017 0 .003.01.006.01.009l.02.005.03.013.03.007c.02.005.03.009.05.012l.02.004 56.76 9.707c.25.042.49-.056.61-.227.01-.011.02-.021.02-.032l26.39-42.395c.01-.007.01-.014.01-.022ZM685.274 674.125l-54.794 12.318v-46.665l54.794-12.318v46.665Zm-55.363-35.184-54.529-12.258 54.529-12.259 54.528 12.259-54.528 12.258Zm-.565 47.503-54.797-12.319v-46.664l54.797 12.318v46.665Zm57.058-59.617a.487.487 0 0 0-.017-.095l-.002-.004c0-.003-.002-.006-.004-.009-.005-.014-.009-.027-.015-.04.006-.014.015-.027.019-.041.083-.248-.095-.504-.396-.572l-55.926-12.572c-.018-.004-.035-.005-.053-.008a.546.546 0 0 0-.04-.005c-.021-.002-.04-.002-.059-.002-.02 0-.039 0-.059.002l-.041.005c-.018.003-.035.004-.053.008l-55.925 12.572c-.302.068-.48.324-.397.572.005.015.013.028.02.042l-.009.023-.011.025-.003.012-.01.051a.347.347 0 0 0-.006.045l-.001.014v47.612l.002.021c.002.204.164.39.415.446l55.925 12.573.027.003.034.005.033.005.042.002.019.001.018-.001.039-.002.028-.004a.722.722 0 0 0 .049-.007l.016-.002 55.925-12.573c.244-.054.404-.232.415-.428.001-.013.004-.026.004-.039V626.85l-.003-.023Z"/></g><mask id="d" width="1548" height="715" x="0" y="77" maskUnits="userSpaceOnUse" style="mask-type:luminance"><path fill="#fff" d="M0 77h1548v715H0V77Z"/></mask><g fill="#EAEAEA" fill-opacity=".25" mask="url(#d)"><path d="M934.872 132.698h28.298c1.023 0 1.852.681 1.852 1.521v.96c0 .84-.829 1.521-1.852 1.521h-28.298c-1.023 0-1.852-.681-1.852-1.521v-.96c0-.84.829-1.521 1.852-1.521ZM916.459 140.258h28.297c1.023 0 1.852.681 1.852 1.522v.959c0 .841-.829 1.521-1.852 1.521h-28.297c-1.023 0-1.853-.68-1.853-1.521v-.959c0-.841.83-1.522 1.853-1.522ZM899.399 147.818h28.297c1.023 0 1.853.681 1.853 1.522v.959c0 .841-.83 1.522-1.853 1.522h-28.297c-1.023 0-1.853-.681-1.853-1.522v-.959c0-.841.83-1.522 1.853-1.522ZM953.954 142.259c0-1.105 1.091-2.001 2.437-2.001 1.346 0 2.437.896 2.437 2.001 0 1.106-1.091 2.002-2.437 2.002-1.346 0-2.437-.896-2.437-2.002ZM934.547 149.819c0-1.105 1.091-2.001 2.437-2.001 1.346 0 2.437.896 2.437 2.001 0 1.106-1.091 2.002-2.437 2.002-1.346 0-2.437-.896-2.437-2.002ZM921.737 134.699c0-1.105 1.091-2.001 2.437-2.001 1.346 0 2.437.896 2.437 2.001 0 1.106-1.091 2.002-2.437 2.002-1.346 0-2.437-.896-2.437-2.002ZM902.601 142.259c0-1.105 1.091-2.001 2.437-2.001 1.346 0 2.437.896 2.437 2.001 0 1.106-1.091 2.002-2.437 2.002-1.346 0-2.437-.896-2.437-2.002ZM1026.02 704.718h28.3c1.02 0 1.85.681 1.85 1.521v.96c0 .84-.83 1.521-1.85 1.521h-28.3c-1.02 0-1.85-.681-1.85-1.521v-.96c0-.84.83-1.521 1.85-1.521ZM1007.61 712.278h28.3c1.02 0 1.85.681 1.85 1.521v.96c0 .84-.83 1.521-1.85 1.521h-28.3c-1.02 0-1.85-.681-1.85-1.521v-.96c0-.84.83-1.521 1.85-1.521ZM990.548 719.838h28.302c1.02 0 1.85.681 1.85 1.521v.96c0 .84-.83 1.521-1.85 1.521h-28.302c-1.023 0-1.852-.681-1.852-1.521v-.96c0-.84.829-1.521 1.852-1.521ZM1045.1 714.279c0-1.106 1.09-2.002 2.44-2.002 1.35 0 2.44.896 2.44 2.002 0 1.105-1.09 2.001-2.44 2.001-1.35 0-2.44-.896-2.44-2.001ZM1025.7 721.839c0-1.105 1.09-2.001 2.43-2.001 1.35 0 2.44.896 2.44 2.001s-1.09 2.001-2.44 2.001c-1.34 0-2.43-.896-2.43-2.001ZM1012.89 706.719c0-1.106 1.09-2.002 2.43-2.002 1.35 0 2.44.896 2.44 2.002 0 1.105-1.09 2.001-2.44 2.001-1.34 0-2.43-.896-2.43-2.001ZM993.75 714.279c0-1.106 1.092-2.002 2.438-2.002s2.437.896 2.437 2.002c0 1.105-1.091 2.001-2.437 2.001-1.346 0-2.438-.896-2.438-2.001ZM266.694 462.831h28.297c1.024 0 1.853.682 1.853 1.522v.959c0 .841-.829 1.522-1.853 1.522h-28.297c-1.023 0-1.853-.681-1.853-1.522v-.959c0-.84.83-1.522 1.853-1.522ZM248.28 470.391h28.298c1.023 0 1.852.682 1.852 1.522v.959c0 .841-.829 1.522-1.852 1.522H248.28c-1.023 0-1.853-.681-1.853-1.522v-.959c0-.84.83-1.522 1.853-1.522ZM231.22 477.951h28.298c1.023 0 1.852.682 1.852 1.522v.959c0 .841-.829 1.522-1.852 1.522H231.22c-1.023 0-1.852-.681-1.852-1.522v-.959c0-.84.829-1.522 1.852-1.522ZM285.775 472.393c0-1.106 1.091-2.002 2.437-2.002 1.346 0 2.437.896 2.437 2.002 0 1.105-1.091 2.001-2.437 2.001-1.346 0-2.437-.896-2.437-2.001ZM266.369 479.953c0-1.106 1.091-2.002 2.437-2.002 1.346 0 2.437.896 2.437 2.002 0 1.105-1.091 2.001-2.437 2.001-1.346 0-2.437-.896-2.437-2.001ZM253.558 464.833c0-1.106 1.092-2.002 2.438-2.002 1.345 0 2.437.896 2.437 2.002 0 1.105-1.092 2.001-2.437 2.001-1.346 0-2.438-.896-2.438-2.001ZM234.423 472.393c0-1.106 1.091-2.002 2.437-2.002 1.346 0 2.437.896 2.437 2.002 0 1.105-1.091 2.001-2.437 2.001-1.346 0-2.437-.896-2.437-2.001Z"/></g><mask id="e" width="1548" height="715" x="0" y="77" maskUnits="userSpaceOnUse" style="mask-type:luminance"><path fill="#fff" d="M0 77h1548v715H0V77Z"/></mask><g mask="url(#e)"><path fill="#0F1B1B" fill-opacity=".07" d="m326.103 272.215-81.341 46.968-33.702-76.85 81.341-46.968 33.702 76.85Zm-116.585-30.983-98.653 6.365 80.947-46.74 98.653-6.366-80.947 46.741Zm33.378 78.505-99.14 6.397-33.701-76.85 99.139-6.397 33.702 76.85Zm50.91-125.965-.017-.03a.738.738 0 0 0-.081-.117c-.002-.003-.002-.005-.005-.007l-.012-.013c-.018-.02-.035-.04-.054-.059 0-.025.004-.051.002-.077-.044-.448-.521-.783-1.067-.748l-101.181 6.529c-.032.002-.062.009-.092.013a.808.808 0 0 0-.169.037.978.978 0 0 0-.16.06c-.027.013-.055.023-.081.038l-83.021 47.938c-.449.258-.556.767-.241 1.135.019.022.042.04.064.061-.001.013.002.027.002.041.001.015-.003.03-.001.046l.005.022c.003.03.011.059.019.088.007.026.013.052.024.077l.007.025 34.386 78.41c.005.012.014.022.019.033.15.334.552.562 1.005.533l101.181-6.529c.017-.001.032-.005.048-.007l.059-.008.057-.009.07-.017.033-.007c.011-.003.019-.008.029-.011l.061-.022.045-.02a.865.865 0 0 0 .075-.036c.008-.004.017-.006.025-.011l83.021-47.938c.362-.209.497-.579.373-.908-.007-.021-.011-.043-.02-.065l-34.386-78.41c-.006-.013-.015-.024-.022-.037Z"/><path fill="#D9D9D9" fill-opacity=".25" d="m186.683 290.148-31.528-13.234c-.911-.382-1.271-1.299-.806-2.047.466-.748 1.582-1.044 2.493-.662l31.528 13.234c.911.382 1.272 1.299.806 2.047-.465.748-1.582 1.044-2.493.662ZM183.123 295.867l-31.528-13.234c-.911-.382-1.272-1.298-.806-2.046.465-.749 1.582-1.045 2.493-.663l31.528 13.234c.911.382 1.272 1.299.806 2.047-.466.748-1.582 1.044-2.493.662ZM179.563 301.586l-31.528-13.233c-.911-.383-1.272-1.299-.806-2.047.465-.748 1.581-1.045 2.492-.662l31.528 13.233c.912.382 1.272 1.299.807 2.047-.466.748-1.582 1.044-2.493.662ZM176.002 307.306l-31.528-13.234c-.911-.382-1.272-1.299-.806-2.047.466-.748 1.582-1.044 2.493-.662l31.528 13.233c.911.383 1.272 1.299.806 2.047-.465.749-1.582 1.045-2.493.663ZM172.442 313.025l-31.528-13.234c-.911-.382-1.272-1.298-.806-2.046.465-.748 1.582-1.045 2.493-.663l31.528 13.234c.911.382 1.271 1.299.806 2.047-.466.748-1.582 1.044-2.493.662ZM168.882 318.744l-31.528-13.233c-.911-.383-1.272-1.299-.807-2.047.466-.748 1.582-1.045 2.493-.662l31.528 13.233c.911.382 1.272 1.299.807 2.047-.466.748-1.582 1.044-2.493.662ZM165.321 324.463l-31.528-13.233c-.911-.382-1.272-1.299-.806-2.047.466-.748 1.582-1.044 2.493-.662l31.528 13.233c.911.383 1.272 1.299.806 2.047-.465.748-1.582 1.045-2.493.662ZM161.761 330.183l-31.528-13.234c-.911-.382-1.272-1.299-.806-2.047.465-.748 1.582-1.044 2.493-.662l31.528 13.234c.911.382 1.272 1.298.806 2.047-.466.748-1.582 1.044-2.493.662ZM158.201 335.902l-31.529-13.234c-.911-.382-1.271-1.298-.806-2.047.466-.748 1.582-1.044 2.493-.662l31.528 13.234c.911.382 1.272 1.299.806 2.047-.465.748-1.581 1.044-2.492.662ZM154.64 341.621l-31.528-13.233c-.911-.382-1.272-1.299-.806-2.047.466-.748 1.582-1.045 2.493-.662l31.528 13.233c.911.383 1.272 1.299.806 2.047-.465.748-1.582 1.045-2.493.662ZM151.08 347.341l-31.528-13.234c-.911-.382-1.272-1.299-.806-2.047.465-.748 1.582-1.044 2.493-.662l31.528 13.233c.911.383 1.271 1.299.806 2.048-.466.748-1.582 1.044-2.493.662ZM129.346 190.272l13.345 12.91c.662.64.567 1.6-.213 2.144-.78.544-1.949.465-2.612-.175l-13.345-12.91c-.662-.641-.567-1.601.214-2.145.78-.543 1.949-.465 2.611.176ZM114.952 185.228l13.345 12.91c.662.641.567 1.601-.213 2.144-.78.544-1.949.465-2.612-.175l-13.345-12.91c-.662-.641-.567-1.601.213-2.144.781-.544 1.95-.466 2.612.175ZM101.224 180.829l13.345 12.91c.662.64.566 1.6-.214 2.144-.78.544-1.949.465-2.611-.175l-13.345-12.911c-.662-.64-.567-1.6.213-2.144.78-.543 1.949-.465 2.612.176ZM131.697 203.778c.78-.544 1.949-.465 2.611.175.662.641.567 1.601-.213 2.144-.78.544-1.949.466-2.612-.175-.662-.64-.566-1.601.214-2.144ZM116.814 198.262c.78-.544 1.949-.466 2.612.175.662.64.566 1.6-.214 2.144-.78.544-1.949.465-2.611-.175-.662-.641-.567-1.601.213-2.144ZM121.184 184.727c.78-.543 1.949-.465 2.612.176.662.64.566 1.6-.214 2.144-.78.543-1.949.465-2.611-.176-.662-.64-.567-1.6.213-2.144ZM106.435 179.34c.78-.544 1.949-.465 2.611.175.662.641.567 1.601-.213 2.144-.78.544-1.95.465-2.612-.175-.662-.641-.566-1.601.214-2.144Z"/><path fill="#8E8790" fill-opacity=".12" d="m368.512 254.826-2.306 23.159c-.083.837-.977 1.46-1.997 1.392l-1.165-.078c-1.02-.069-1.779-.803-1.696-1.64l2.306-23.159c.084-.837.978-1.461 1.998-1.392l1.165.078c1.02.069 1.779.803 1.695 1.64ZM360.837 239.14l-2.306 23.159c-.084.837-.978 1.461-1.998 1.392l-1.165-.078c-1.02-.069-1.779-.803-1.695-1.64l2.306-23.159c.083-.837.977-1.46 1.997-1.392l1.165.078c1.02.069 1.779.803 1.696 1.64ZM353.051 224.563l-2.306 23.158c-.084.837-.978 1.461-1.998 1.392l-1.165-.078c-1.02-.068-1.779-.803-1.695-1.64l2.306-23.158c.083-.838.977-1.461 1.997-1.393l1.165.078c1.02.069 1.779.803 1.696 1.641ZM355.352 269.663c1.341.09 2.34 1.056 2.23 2.158-.109 1.101-1.286 1.921-2.627 1.831-1.342-.09-2.34-1.056-2.231-2.157.11-1.102 1.286-1.922 2.628-1.832ZM347.757 253.165c1.342.09 2.341 1.056 2.231 2.157-.11 1.102-1.286 1.922-2.628 1.832-1.341-.09-2.34-1.056-2.23-2.158.109-1.101 1.286-1.921 2.627-1.831ZM367.154 243.913c1.341.09 2.34 1.056 2.23 2.158-.109 1.101-1.286 1.921-2.627 1.831-1.342-.09-2.34-1.056-2.231-2.157.11-1.102 1.286-1.922 2.628-1.832ZM359.537 227.636c1.342.09 2.34 1.056 2.231 2.158-.11 1.101-1.287 1.921-2.628 1.831-1.342-.09-2.34-1.056-2.23-2.157.109-1.102 1.286-1.922 2.627-1.832Z"/><path fill="#D9D9D9" fill-opacity=".25" d="M242.668 158.074c3.485 3.615 2.742 8.865-1.66 11.727s-10.796 2.251-14.281-1.364c-3.485-3.614-2.742-8.864 1.66-11.726 4.402-2.861 10.796-2.251 14.281 1.363Z"/><path stroke="#0F1B1B" stroke-miterlimit="10" stroke-opacity=".07" stroke-width="2" d="m341.09 308.492-1.857-1.127c-4.015-2.437-9.675-1.74-12.644 1.556l-18.774 20.852c-2.968 3.297-2.119 7.945 1.896 10.382l25.394 15.416c4.015 2.438 9.675 1.741 12.643-1.556l1.373-1.525c1.992-2.212 5.79-2.679 8.484-1.044l1.857 1.128c4.015 2.437 9.675 1.74 12.643-1.557l18.774-20.852c2.969-3.296 2.12-7.945-1.895-10.382l-25.394-15.416c-4.015-2.437-9.676-1.74-12.643 1.556l-1.373 1.525c-1.992 2.212-5.79 2.68-8.484 1.044Z"/><path fill="#D9D9D9" fill-opacity=".25" d="m330.292 324.536-10.137 11.259c-1.472 1.635-4.28 1.981-6.271.772l-13.711-8.324c-1.992-1.209-2.413-3.514-.941-5.149l10.137-11.259c1.472-1.635 4.28-1.981 6.271-.772l13.711 8.324c1.992 1.209 2.413 3.514.941 5.149Z"/><path fill="#0F1B1B" fill-opacity=".07" d="m833.299 418.53-81.341 46.967-33.702-76.85 81.341-46.967 33.702 76.85Zm-116.585-30.984-98.653 6.366 80.947-46.741 98.653-6.365-80.947 46.74Zm33.378 78.505-99.14 6.397-33.701-76.85 99.139-6.397 33.702 76.85Zm50.91-125.965-.018-.03a.712.712 0 0 0-.08-.117l-.005-.007-.013-.013c-.017-.019-.034-.04-.054-.058.001-.026.005-.051.002-.077-.043-.449-.52-.784-1.067-.748l-101.18 6.528c-.032.002-.062.009-.092.014l-.072.01a1.086 1.086 0 0 0-.098.026c-.032.01-.064.019-.095.031-.022.009-.043.02-.064.03-.027.012-.055.022-.081.037l-83.021 47.938c-.449.259-.556.767-.241 1.135.019.023.042.04.064.061-.001.014.002.028.002.042 0 .015-.003.03-.001.045 0 .008.003.015.005.023a.542.542 0 0 0 .019.087c.007.026.013.052.023.077.004.009.004.017.008.025l34.386 78.411c.005.011.014.021.019.032.149.335.552.562 1.005.533l101.181-6.528c.016-.001.031-.006.048-.007l.059-.009a.562.562 0 0 0 .127-.026l.033-.006c.01-.003.019-.008.029-.012a1.095 1.095 0 0 0 .181-.077c.008-.005.017-.007.025-.012l83.021-47.938c.362-.208.497-.578.372-.907-.007-.022-.01-.044-.019-.065l-34.386-78.41c-.006-.014-.015-.025-.022-.038Z"/><path fill="#D9D9D9" fill-opacity=".25" d="m742.976 543.132 12.792-5.326 6.487 10.504-19.279-5.178Zm27.447-15.013-12.792 5.327-6.486-10.504 19.278 5.177Zm-2.737 23.25c.029-.072.043-.145.059-.217.005-.025.016-.05.019-.075.007-.047.003-.093.005-.139.002-.055.008-.109.003-.164-.002-.026-.012-.05-.016-.076a1.315 1.315 0 0 0-.178-.495l-8.59-13.911 16.871-7.025c.543-.145.998-.49 1.189-.969.318-.799-.213-1.658-1.185-1.919l-27.813-7.47c-.972-.261-2.019.175-2.337.974-.029.071-.043.144-.058.217-.005.025-.016.049-.02.075-.007.046-.003.092-.005.139-.002.054-.008.108-.003.163.003.026.012.051.016.076.026.169.08.336.178.496l8.591 13.91-16.872 7.025c-.542.146-.997.49-1.188.97-.318.798.212 1.657 1.184 1.918l27.814 7.47c.972.261 2.018-.174 2.336-.973ZM693.879 436.462l-31.528-13.233c-.911-.383-1.272-1.299-.806-2.047.465-.748 1.582-1.045 2.493-.662l31.527 13.233c.911.383 1.272 1.299.807 2.047-.466.748-1.582 1.045-2.493.662ZM690.319 442.181l-31.528-13.233c-.911-.382-1.272-1.299-.807-2.047.466-.748 1.582-1.044 2.493-.662l31.528 13.233c.911.383 1.272 1.299.807 2.047-.466.749-1.582 1.045-2.493.662ZM686.758 447.901l-31.528-13.234c-.911-.382-1.272-1.299-.806-2.047.466-.748 1.582-1.044 2.493-.662l31.528 13.234c.911.382 1.272 1.299.806 2.047-.465.748-1.582 1.044-2.493.662ZM683.198 453.62l-31.528-13.233c-.911-.383-1.272-1.299-.806-2.047.465-.748 1.581-1.045 2.492-.662l31.528 13.233c.912.382 1.272 1.299.807 2.047-.466.748-1.582 1.044-2.493.662ZM679.638 459.339l-31.528-13.233c-.911-.382-1.272-1.299-.806-2.047.465-.748 1.581-1.045 2.492-.662l31.528 13.233c.911.383 1.272 1.299.807 2.047-.466.748-1.582 1.045-2.493.662ZM676.077 465.059l-31.528-13.234c-.911-.382-1.272-1.299-.806-2.047.466-.748 1.582-1.044 2.493-.662l31.527 13.234c.912.382 1.273 1.298.807 2.047-.465.748-1.582 1.044-2.493.662ZM672.517 470.778l-31.528-13.234c-.911-.382-1.272-1.298-.806-2.047.466-.748 1.582-1.044 2.493-.662l31.528 13.234c.911.382 1.272 1.299.806 2.047-.466.748-1.582 1.044-2.493.662ZM668.957 476.497l-31.528-13.233c-.911-.383-1.272-1.299-.807-2.047.466-.748 1.582-1.045 2.493-.662l31.528 13.233c.911.382 1.272 1.299.807 2.047-.466.748-1.582 1.044-2.493.662ZM665.396 482.217l-31.528-13.234c-.911-.382-1.272-1.299-.806-2.047.466-.748 1.582-1.044 2.493-.662l31.528 13.233c.911.383 1.272 1.299.806 2.047-.465.749-1.582 1.045-2.493.663ZM661.836 487.936l-31.528-13.234c-.911-.382-1.272-1.299-.806-2.047.465-.748 1.582-1.044 2.493-.662l31.527 13.234c.911.382 1.273 1.299.807 2.047-.466.748-1.582 1.044-2.493.662ZM658.275 493.655l-31.528-13.233c-.911-.383-1.271-1.299-.806-2.047.466-.749 1.582-1.045 2.493-.663l31.528 13.234c.911.382 1.272 1.299.806 2.047-.465.748-1.581 1.044-2.493.662ZM636.542 336.586l13.345 12.91c.662.641.567 1.601-.213 2.145-.78.543-1.95.465-2.612-.176l-13.345-12.91c-.662-.64-.567-1.6.213-2.144.78-.544 1.95-.465 2.612.175ZM622.147 331.542l13.346 12.911c.662.64.566 1.6-.214 2.144-.78.543-1.949.465-2.611-.176l-13.345-12.91c-.663-.64-.567-1.6.213-2.144.78-.544 1.95-.465 2.611.175ZM608.419 327.143l13.346 12.91c.662.641.566 1.6-.214 2.144-.78.544-1.949.465-2.611-.175l-13.345-12.91c-.663-.641-.567-1.601.213-2.145.78-.543 1.95-.465 2.611.176ZM638.893 350.092c.78-.543 1.949-.465 2.611.176.662.64.567 1.6-.213 2.144-.78.544-1.95.465-2.612-.175-.662-.641-.566-1.601.214-2.145ZM624.01 344.576c.78-.544 1.949-.465 2.611.175.662.641.567 1.601-.213 2.144-.78.544-1.949.466-2.612-.175-.662-.64-.566-1.601.214-2.144ZM628.38 331.042c.78-.544 1.949-.466 2.611.175.662.641.567 1.6-.213 2.144-.78.544-1.949.465-2.612-.175-.662-.641-.566-1.601.214-2.144ZM613.63 325.654c.78-.544 1.949-.465 2.612.176.662.64.566 1.6-.214 2.144-.78.543-1.949.465-2.611-.176-.662-.64-.567-1.6.213-2.144ZM875.708 401.141l-2.306 23.158c-.084.838-.978 1.461-1.998 1.393l-1.165-.079c-1.019-.068-1.779-.803-1.695-1.64l2.306-23.158c.083-.838.978-1.461 1.997-1.392l1.165.078c1.02.068 1.779.802 1.696 1.64ZM868.032 385.455l-2.306 23.158c-.083.838-.977 1.461-1.997 1.392l-1.165-.078c-1.02-.068-1.779-.803-1.696-1.64l2.306-23.158c.084-.838.978-1.461 1.998-1.392l1.165.078c1.02.068 1.779.802 1.695 1.64ZM860.247 370.877l-2.306 23.158c-.084.838-.978 1.461-1.998 1.393l-1.165-.078c-1.02-.069-1.779-.803-1.696-1.641l2.307-23.158c.083-.837.977-1.461 1.997-1.392l1.165.078c1.02.068 1.779.803 1.696 1.64ZM862.548 415.978c1.341.09 2.34 1.056 2.23 2.157-.11 1.102-1.286 1.922-2.628 1.832-1.341-.09-2.34-1.056-2.23-2.158.11-1.101 1.286-1.921 2.628-1.831ZM854.953 399.479c1.342.09 2.34 1.056 2.23 2.158-.11 1.101-1.286 1.921-2.628 1.831-1.341-.09-2.339-1.056-2.23-2.157.11-1.102 1.286-1.922 2.628-1.832ZM874.35 390.228c1.341.09 2.34 1.055 2.23 2.157-.11 1.102-1.286 1.922-2.628 1.832-1.341-.09-2.34-1.056-2.23-2.158.11-1.102 1.286-1.922 2.628-1.831ZM866.733 373.951c1.342.09 2.34 1.056 2.23 2.157-.109 1.102-1.286 1.922-2.627 1.832-1.342-.09-2.34-1.057-2.231-2.158.11-1.101 1.286-1.921 2.628-1.831ZM749.864 304.389c3.485 3.614 2.742 8.864-1.661 11.726-4.402 2.862-10.795 2.252-14.28-1.363-3.486-3.614-2.742-8.865 1.66-11.726 4.402-2.862 10.796-2.252 14.281 1.363Z"/><path stroke="#0F1B1B" stroke-miterlimit="10" stroke-opacity=".07" stroke-width="4" d="m848.286 454.807-1.857-1.128c-4.015-2.437-9.676-1.74-12.643 1.557l-18.775 20.852c-2.968 3.296-2.119 7.945 1.895 10.382l25.395 15.416c4.015 2.437 9.675 1.74 12.643-1.556l1.373-1.525c1.992-2.212 5.79-2.68 8.483-1.044l1.858 1.127c4.014 2.437 9.675 1.74 12.643-1.556l18.774-20.852c2.968-3.297 2.12-7.945-1.895-10.382l-25.394-15.416c-4.015-2.438-9.676-1.741-12.644 1.556l-1.373 1.525c-1.991 2.212-5.789 2.679-8.483 1.044Z"/><path fill="#D9D9D9" fill-opacity=".25" d="m837.488 470.851-10.137 11.258c-1.472 1.636-4.28 1.981-6.271.772l-13.711-8.323c-1.992-1.209-2.413-3.515-.941-5.15l10.137-11.258c1.472-1.636 4.28-1.981 6.271-.772l13.712 8.323c1.991 1.209 2.412 3.515.94 5.15Z"/><path fill="#DADADA" fill-opacity=".25" d="m288.937 690.769-31.528-13.233c-.911-.382-1.272-1.299-.806-2.047.466-.748 1.582-1.045 2.493-.662l31.528 13.233c.911.383 1.272 1.299.806 2.047-.465.748-1.582 1.045-2.493.662ZM285.377 696.489l-31.528-13.234c-.911-.382-1.272-1.299-.806-2.047.465-.748 1.582-1.044 2.493-.662l31.528 13.234c.911.382 1.272 1.298.806 2.047-.466.748-1.582 1.044-2.493.662ZM281.817 702.208l-31.528-13.234c-.911-.382-1.272-1.299-.807-2.047.466-.748 1.582-1.044 2.493-.662l31.528 13.234c.911.382 1.272 1.299.807 2.047-.466.748-1.582 1.044-2.493.662ZM278.256 707.927l-31.528-13.233c-.911-.383-1.271-1.299-.806-2.047.466-.748 1.582-1.045 2.493-.662l31.528 13.233c.911.382 1.272 1.299.806 2.047-.465.748-1.582 1.044-2.493.662ZM274.696 713.646l-31.528-13.233c-.911-.382-1.272-1.299-.806-2.047.465-.748 1.582-1.044 2.493-.662l31.527 13.233c.911.383 1.273 1.299.807 2.047-.466.749-1.582 1.045-2.493.662ZM271.136 719.366l-31.528-13.234c-.912-.382-1.272-1.299-.807-2.047.466-.748 1.582-1.044 2.493-.662l31.528 13.234c.911.382 1.272 1.299.806 2.047-.465.748-1.581 1.044-2.492.662ZM267.575 725.085l-31.528-13.233c-.911-.383-1.272-1.299-.806-2.047.466-.749 1.582-1.045 2.493-.662l31.528 13.233c.911.382 1.272 1.299.806 2.047-.465.748-1.582 1.044-2.493.662ZM264.015 730.804l-31.528-13.233c-.911-.382-1.272-1.299-.806-2.047.465-.748 1.582-1.045 2.493-.662l31.528 13.233c.911.383 1.271 1.299.806 2.047-.466.748-1.582 1.045-2.493.662ZM260.455 736.524l-31.528-13.234c-.911-.382-1.272-1.299-.807-2.047.466-.748 1.582-1.044 2.493-.662l31.528 13.233c.911.383 1.272 1.299.807 2.047-.466.749-1.582 1.045-2.493.663ZM256.894 742.243l-31.528-13.234c-.911-.382-1.272-1.299-.806-2.047.466-.748 1.582-1.044 2.493-.662l31.528 13.234c.911.382 1.272 1.299.806 2.047-.465.748-1.582 1.044-2.493.662ZM253.334 747.962l-31.528-13.233c-.911-.383-1.272-1.299-.806-2.047.465-.748 1.581-1.045 2.492-.662l31.528 13.233c.912.382 1.272 1.299.807 2.047-.466.748-1.582 1.044-2.493.662Z"/><path fill="#8E8790" fill-opacity=".12" d="m231.6 590.893 13.346 12.91c.661.641.566 1.601-.214 2.145-.78.543-1.949.465-2.612-.176l-13.345-12.91c-.662-.64-.566-1.6.214-2.144.78-.544 1.949-.465 2.611.175ZM217.206 585.85l13.345 12.91c.662.64.567 1.6-.213 2.144-.78.544-1.949.465-2.612-.175l-13.345-12.911c-.662-.64-.567-1.6.213-2.144.78-.543 1.949-.465 2.612.176ZM203.478 581.45l13.345 12.91c.662.641.566 1.6-.214 2.144-.78.544-1.949.465-2.611-.175l-13.345-12.91c-.662-.641-.567-1.601.213-2.145.78-.543 1.949-.465 2.612.176ZM233.951 604.399c.78-.544 1.949-.465 2.611.176.662.64.567 1.6-.213 2.144-.78.544-1.949.465-2.612-.175-.662-.641-.566-1.601.214-2.145ZM219.068 598.883c.78-.544 1.949-.465 2.612.175.662.641.566 1.601-.214 2.144-.78.544-1.949.466-2.611-.175-.662-.64-.567-1.6.213-2.144ZM223.438 585.349c.78-.544 1.949-.465 2.612.175.662.641.566 1.601-.214 2.144-.78.544-1.949.466-2.611-.175-.662-.641-.567-1.6.213-2.144ZM208.689 579.961c.78-.544 1.949-.465 2.611.176.662.64.567 1.6-.214 2.144-.78.543-1.949.465-2.611-.176-.662-.64-.566-1.6.214-2.144Z"/><path fill="#D9D9D9" fill-opacity=".25" d="m470.766 655.448-2.306 23.158c-.083.838-.978 1.461-1.997 1.393l-1.165-.078c-1.02-.069-1.779-.804-1.696-1.641l2.306-23.158c.084-.838.978-1.461 1.998-1.392l1.165.078c1.02.068 1.779.803 1.695 1.64ZM463.091 639.762l-2.307 23.158c-.083.838-.977 1.461-1.997 1.393l-1.165-.079c-1.02-.068-1.779-.803-1.696-1.64l2.307-23.158c.083-.838.977-1.461 1.997-1.392l1.165.078c1.02.068 1.779.802 1.696 1.64ZM455.305 625.184l-2.306 23.158c-.084.838-.978 1.461-1.998 1.393l-1.165-.078c-1.02-.069-1.779-.803-1.695-1.641l2.306-23.158c.083-.837.977-1.461 1.997-1.392l1.165.078c1.02.068 1.779.803 1.696 1.64ZM457.606 670.285c1.341.09 2.34 1.056 2.23 2.157-.109 1.102-1.286 1.922-2.627 1.832-1.342-.09-2.34-1.056-2.231-2.158.11-1.101 1.286-1.921 2.628-1.831ZM450.011 653.786c1.342.09 2.34 1.056 2.231 2.158-.11 1.101-1.287 1.921-2.628 1.831-1.341-.09-2.34-1.056-2.23-2.157.109-1.102 1.286-1.922 2.627-1.832ZM469.408 644.535c1.341.09 2.34 1.056 2.23 2.157-.109 1.102-1.286 1.922-2.627 1.832-1.342-.09-2.34-1.056-2.231-2.158.11-1.101 1.286-1.921 2.628-1.831ZM461.791 628.258c1.342.09 2.34 1.056 2.231 2.157-.11 1.102-1.287 1.922-2.628 1.832-1.342-.09-2.34-1.056-2.23-2.158.109-1.101 1.285-1.921 2.627-1.831ZM344.922 558.696c3.485 3.615 2.742 8.865-1.66 11.726-4.403 2.862-10.796 2.252-14.281-1.363-3.486-3.614-2.742-8.865 1.66-11.726 4.402-2.862 10.796-2.252 14.281 1.363Z"/><path stroke="#0F1B1B" stroke-miterlimit="10" stroke-opacity=".07" stroke-width="2" d="m504.773 692.3-1.858-1.127c-4.014-2.437-9.675-1.74-12.643 1.556l-18.774 20.852c-2.968 3.297-2.12 7.945 1.895 10.382l25.394 15.416c4.015 2.438 9.676 1.741 12.644-1.556l1.373-1.525c1.991-2.212 5.789-2.679 8.483-1.044l1.857 1.128c4.015 2.437 9.676 1.74 12.644-1.557l18.774-20.852c2.968-3.296 2.119-7.945-1.895-10.382l-25.395-15.416c-4.015-2.437-9.675-1.74-12.643 1.556l-1.373 1.525c-1.992 2.212-5.79 2.68-8.483 1.044ZM760.725 246.739l-1.857-1.127c-4.015-2.438-9.676-1.741-12.644 1.556L727.45 268.02c-2.968 3.297-2.119 7.945 1.895 10.382l25.395 15.416c4.014 2.437 9.675 1.74 12.643-1.556l1.373-1.525c1.991-2.212 5.79-2.68 8.483-1.044l1.858 1.127c4.014 2.437 9.675 1.741 12.643-1.556l18.774-20.852c2.968-3.297 2.12-7.945-1.895-10.382l-25.394-15.416c-4.015-2.437-9.676-1.741-12.644 1.556l-1.373 1.525c-1.991 2.212-5.789 2.679-8.483 1.044Z"/><path fill="#D9D9D9" fill-opacity=".25" d="m432.546 725.158-10.137 11.259c-1.472 1.635-4.28 1.98-6.271.771l-13.711-8.323c-1.992-1.209-2.413-3.515-.94-5.15l10.136-11.258c1.472-1.635 4.28-1.981 6.272-.772l13.711 8.323c1.991 1.209 2.412 3.515.94 5.15ZM1222.64 331.45l12.79-5.326 6.49 10.504-19.28-5.178Zm27.45-15.013-12.79 5.327-6.49-10.504 19.28 5.177Zm-2.74 23.25a.88.88 0 0 0 .06-.217c.01-.025.02-.049.02-.075.01-.047 0-.093.01-.139v-.163c0-.027-.01-.051-.02-.077a1.195 1.195 0 0 0-.18-.495l-8.59-13.91 16.88-7.026c.54-.145.99-.49 1.18-.969.32-.799-.21-1.658-1.18-1.919l-27.81-7.47c-.98-.261-2.02.175-2.34.974-.03.071-.04.144-.06.217 0 .025-.01.049-.02.075-.01.046 0 .092 0 .139-.01.054-.01.109-.01.163.01.026.02.051.02.077.03.168.08.335.18.495l8.59 13.911-16.87 7.024c-.55.146-1 .49-1.19.97-.32.798.21 1.657 1.18 1.919l27.82 7.469c.97.261 2.01-.174 2.33-.973ZM1173.55 224.78l-31.53-13.233c-.91-.382-1.27-1.299-.81-2.047.47-.748 1.58-1.044 2.49-.662l31.53 13.233c.91.383 1.27 1.299.81 2.047-.47.748-1.58 1.045-2.49.662ZM1169.99 230.5l-31.53-13.234c-.91-.382-1.28-1.299-.81-2.047.47-.748 1.58-1.044 2.49-.662l31.53 13.234c.91.382 1.27 1.298.81 2.047-.47.748-1.58 1.044-2.49.662ZM1166.42 236.219l-31.52-13.233c-.91-.383-1.28-1.299-.81-2.048.47-.748 1.58-1.044 2.49-.662l31.53 13.234c.91.382 1.27 1.299.81 2.047-.47.748-1.58 1.044-2.5.662ZM1394.54 241.938l-31.53-13.233c-.91-.383-1.27-1.299-.81-2.047.47-.748 1.59-1.045 2.5-.662l31.52 13.233c.92.382 1.28 1.299.81 2.047-.47.748-1.58 1.045-2.49.662ZM1159.3 247.657l-31.52-13.233c-.91-.382-1.28-1.299-.81-2.047.47-.748 1.58-1.044 2.49-.662l31.53 13.233c.91.383 1.27 1.299.81 2.047-.47.749-1.58 1.045-2.5.662ZM1155.74 253.377l-31.52-13.234c-.92-.382-1.28-1.299-.81-2.047.47-.748 1.58-1.044 2.49-.662l31.53 13.234c.91.382 1.27 1.299.81 2.047-.47.748-1.59 1.044-2.5.662ZM1152.18 259.096l-31.52-13.234c-.92-.382-1.28-1.298-.81-2.047.46-.748 1.58-1.044 2.49-.662l31.53 13.234c.91.382 1.27 1.299.81 2.047-.47.748-1.59 1.044-2.5.662ZM1148.62 264.815l-31.52-13.233c-.92-.382-1.28-1.299-.81-2.047.46-.748 1.58-1.044 2.49-.662l31.53 13.233c.91.383 1.27 1.299.81 2.047-.47.748-1.59 1.045-2.5.662ZM1145.06 270.535l-31.53-13.234c-.91-.382-1.27-1.299-.8-2.047.46-.748 1.58-1.044 2.49-.662l31.53 13.234c.91.382 1.27 1.299.81 2.047-.47.748-1.59 1.044-2.5.662ZM1141.5 276.254l-31.53-13.234c-.91-.382-1.27-1.298-.8-2.047.46-.748 1.58-1.044 2.49-.662l31.53 13.234c.91.382 1.27 1.299.81 2.047-.47.748-1.59 1.044-2.5.662ZM1137.94 281.973l-31.53-13.233c-.91-.383-1.27-1.299-.8-2.047.46-.748 1.58-1.045 2.49-.662l31.53 13.233c.91.382 1.27 1.299.8 2.047-.46.748-1.58 1.044-2.49.662ZM1116.21 124.905l13.34 12.91c.67.64.57 1.6-.21 2.144-.78.543-1.95.465-2.61-.176l-13.35-12.91c-.66-.64-.56-1.6.22-2.144.78-.543 1.95-.465 2.61.176ZM1101.81 119.861l13.35 12.91c.66.64.57 1.6-.21 2.144-.78.544-1.95.465-2.62-.175l-13.34-12.91c-.66-.641-.57-1.601.21-2.145.78-.543 1.95-.465 2.61.176ZM1088.09 115.461l13.34 12.91c.66.641.57 1.601-.21 2.145-.78.543-1.95.465-2.61-.176l-13.35-12.91c-.66-.64-.57-1.6.21-2.144.78-.544 1.95-.465 2.62.175ZM1118.56 138.41c.78-.543 1.95-.465 2.61.176.66.64.57 1.6-.21 2.144-.78.544-1.95.465-2.61-.175-.67-.641-.57-1.601.21-2.145ZM1103.68 132.894c.78-.543 1.95-.465 2.61.176.66.64.56 1.6-.22 2.144-.78.543-1.95.465-2.61-.176-.66-.64-.56-1.6.22-2.144ZM1108.05 119.36c.78-.544 1.95-.465 2.61.175.66.641.56 1.601-.22 2.144-.78.544-1.94.466-2.61-.175-.66-.641-.56-1.601.22-2.144ZM1093.3 113.972c.78-.544 1.95-.465 2.61.176.66.64.56 1.6-.22 2.144s-1.94.465-2.61-.175c-.66-.641-.56-1.601.22-2.145ZM1355.37 189.459l-2.3 23.158c-.09.838-.98 1.461-2 1.393l-1.16-.078c-1.02-.069-1.78-.804-1.7-1.641l2.31-23.158c.08-.838.97-1.461 1.99-1.392l1.17.078c1.02.068 1.78.802 1.69 1.64ZM1347.7 173.773l-2.31 23.158c-.08.838-.97 1.461-1.99 1.393l-1.17-.078c-1.02-.069-1.78-.803-1.7-1.641l2.31-23.158c.08-.837.98-1.461 2-1.392l1.16.078c1.02.068 1.78.803 1.7 1.64ZM1339.91 159.195l-2.3 23.159c-.09.837-.98 1.46-2 1.392l-1.17-.078c-1.02-.069-1.77-.803-1.69-1.64l2.31-23.159c.08-.837.97-1.461 1.99-1.392l1.17.078c1.02.069 1.78.803 1.69 1.64ZM1342.21 204.296c1.35.09 2.34 1.056 2.23 2.157-.1 1.102-1.28 1.922-2.62 1.832-1.34-.09-2.34-1.056-2.23-2.158.11-1.101 1.28-1.921 2.62-1.831ZM1334.62 187.797c1.34.09 2.34 1.056 2.23 2.158-.11 1.102-1.29 1.921-2.63 1.831-1.34-.09-2.34-1.056-2.23-2.157.11-1.102 1.29-1.922 2.63-1.832ZM1354.02 178.546c1.34.09 2.34 1.056 2.23 2.157-.11 1.102-1.29 1.922-2.63 1.832-1.34-.09-2.34-1.056-2.23-2.158.11-1.101 1.28-1.921 2.63-1.831ZM1346.4 162.269c1.34.09 2.34 1.056 2.23 2.157-.11 1.102-1.29 1.922-2.63 1.832-1.34-.09-2.34-1.056-2.23-2.158.11-1.101 1.29-1.921 2.63-1.831ZM1229.53 92.707c3.49 3.615 2.74 8.865-1.66 11.727-4.4 2.861-10.8 2.251-14.28-1.364-3.49-3.614-2.74-8.864 1.66-11.726s10.8-2.252 14.28 1.363Z"/><path stroke="#0F1B1B" stroke-miterlimit="10" stroke-opacity=".07" stroke-width="2" d="m612.267 130.883-1.91-1.036c-4.129-2.239-9.749-1.268-12.553 2.169l-17.739 21.74c-2.804 3.437-1.731 8.038 2.398 10.278l26.113 14.163c4.129 2.239 9.749 1.268 12.553-2.169l1.297-1.59c1.882-2.306 5.653-2.957 8.423-1.455l1.91 1.036c4.128 2.24 9.748 1.268 12.553-2.168l17.738-21.74c2.805-3.437 1.731-8.039-2.397-10.278l-26.114-14.164c-4.128-2.239-9.748-1.268-12.552 2.169l-1.298 1.59c-1.881 2.306-5.652 2.957-8.422 1.455Z"/><path fill="#D9D9D9" fill-opacity=".25" d="m1317.15 259.169-10.13 11.259c-1.47 1.635-4.28 1.98-6.27.772l-13.71-8.324c-2-1.209-2.42-3.515-.95-5.15l10.14-11.258c1.47-1.635 4.28-1.981 6.27-.772l13.71 8.323c2 1.209 2.42 3.515.94 5.15ZM1240.14 719.605l12.79-5.326 6.49 10.503-19.28-5.177Zm27.44-15.013-12.79 5.326-6.48-10.503 19.27 5.177Zm-2.73 23.25c.03-.072.04-.145.06-.217 0-.026.01-.05.01-.075.01-.047.01-.093.01-.139 0-.055.01-.109 0-.164 0-.026-.01-.051-.01-.076a1.355 1.355 0 0 0-.18-.495l-8.59-13.911 16.87-7.025c.54-.146 1-.49 1.19-.969.32-.799-.21-1.658-1.19-1.919l-27.81-7.47c-.97-.261-2.02.175-2.34.973-.03.072-.04.145-.05.217-.01.026-.02.05-.02.076-.01.046-.01.092-.01.138 0 .055-.01.109 0 .164 0 .026.01.051.01.076.03.168.08.336.18.495l8.59 13.911-16.87 7.025c-.54.146-1 .49-1.19.97-.32.798.21 1.657 1.19 1.918l27.81 7.47c.97.261 2.02-.174 2.34-.973ZM1191.04 612.935l-31.53-13.233c-.91-.383-1.27-1.299-.8-2.047.46-.749 1.58-1.045 2.49-.662l31.53 13.233c.91.382 1.27 1.299.8 2.047-.46.748-1.58 1.044-2.49.662ZM1187.48 618.654l-31.53-13.233c-.91-.383-1.27-1.299-.81-2.047.47-.748 1.59-1.045 2.5-.662l31.53 13.233c.91.383 1.27 1.299.8 2.047-.46.748-1.58 1.045-2.49.662ZM1183.92 624.374l-31.53-13.234c-.91-.382-1.27-1.299-.81-2.047.47-.748 1.59-1.044 2.5-.662l31.52 13.234c.92.382 1.28 1.298.81 2.047-.46.748-1.58 1.044-2.49.662ZM1180.36 630.093l-31.53-13.234c-.91-.382-1.27-1.299-.81-2.047.47-.748 1.59-1.044 2.5-.662l31.53 13.234c.91.382 1.27 1.299.8 2.047-.46.748-1.58 1.044-2.49.662ZM1176.8 635.812l-31.53-13.233c-.91-.383-1.27-1.299-.81-2.047.47-.748 1.59-1.045 2.5-.662l31.52 13.233c.92.382 1.28 1.299.81 2.047-.46.748-1.58 1.044-2.49.662ZM1173.24 641.531l-31.53-13.233c-.91-.382-1.27-1.299-.81-2.047.47-.748 1.59-1.044 2.5-.662l31.52 13.233c.92.383 1.28 1.299.81 2.047-.46.749-1.58 1.045-2.49.662ZM1169.68 647.251l-31.53-13.234c-.91-.382-1.27-1.299-.81-2.047.47-.748 1.59-1.044 2.5-.662l31.52 13.234c.91.382 1.28 1.299.81 2.047-.47.748-1.58 1.044-2.49.662ZM1166.12 652.97l-31.53-13.234c-.91-.382-1.27-1.298-.81-2.047.47-.748 1.58-1.044 2.5-.662l31.52 13.234c.91.382 1.28 1.299.81 2.047-.47.748-1.58 1.044-2.49.662ZM1162.56 658.689l-31.53-13.233c-.91-.382-1.27-1.299-.81-2.047.47-.748 1.58-1.045 2.5-.662l31.52 13.233c.91.383 1.28 1.299.81 2.047-.47.748-1.58 1.045-2.49.662ZM1159 664.409l-31.53-13.234c-.91-.382-1.27-1.299-.81-2.047.47-.748 1.58-1.044 2.5-.662l31.52 13.233c.91.383 1.27 1.299.81 2.048-.47.748-1.58 1.044-2.49.662ZM1155.44 670.128l-31.53-13.234c-.91-.382-1.27-1.298-.81-2.047.47-.748 1.58-1.044 2.49-.662l31.53 13.234c.91.382 1.27 1.299.81 2.047-.47.748-1.58 1.044-2.49.662ZM1133.7 513.059l13.35 12.91c.66.641.56 1.601-.22 2.144-.78.544-1.95.466-2.61-.175l-13.34-12.91c-.66-.641-.57-1.601.21-2.144.78-.544 1.95-.465 2.61.175ZM1119.31 508.015l13.34 12.91c.67.641.57 1.601-.21 2.145-.78.543-1.95.465-2.61-.176l-13.35-12.91c-.66-.64-.56-1.6.22-2.144s1.95-.465 2.61.175ZM1105.58 503.616l13.35 12.91c.66.64.56 1.6-.22 2.144s-1.95.465-2.61-.175l-13.35-12.91c-.66-.641-.56-1.601.22-2.145.78-.543 1.95-.465 2.61.176ZM1136.05 526.565c.78-.544 1.95-.465 2.61.176.67.64.57 1.6-.21 2.144-.78.543-1.95.465-2.61-.176-.66-.64-.57-1.6.21-2.144ZM1121.17 521.049c.78-.544 1.95-.465 2.61.175.66.641.57 1.601-.21 2.144-.78.544-1.95.465-2.61-.175-.67-.641-.57-1.601.21-2.144ZM1125.54 507.514c.78-.543 1.95-.465 2.61.176.66.64.57 1.6-.21 2.144-.78.544-1.95.465-2.61-.175-.67-.641-.57-1.601.21-2.145ZM1110.79 502.127c.78-.544 1.95-.465 2.61.175.66.641.57 1.601-.21 2.144-.78.544-1.95.466-2.61-.175-.66-.64-.57-1.601.21-2.144ZM1372.87 577.614l-2.31 23.158c-.08.837-.98 1.461-2 1.392l-1.16-.078c-1.02-.068-1.78-.803-1.7-1.64l2.31-23.158c.08-.838.98-1.461 2-1.393l1.16.078c1.02.069 1.78.803 1.7 1.641ZM1365.19 561.928l-2.3 23.158c-.09.838-.98 1.461-2 1.392l-1.17-.078c-1.02-.068-1.77-.803-1.69-1.64l2.3-23.158c.09-.838.98-1.461 2-1.393l1.17.079c1.02.068 1.78.802 1.69 1.64ZM1357.41 547.35l-2.31 23.158c-.08.838-.98 1.461-2 1.392l-1.16-.078c-1.02-.068-1.78-.803-1.7-1.64l2.31-23.158c.08-.838.98-1.461 2-1.393l1.16.079c1.02.068 1.78.802 1.7 1.64ZM1359.71 592.451c1.34.09 2.34 1.055 2.23 2.157-.11 1.102-1.29 1.922-2.63 1.832-1.34-.09-2.34-1.057-2.23-2.158.11-1.102 1.29-1.921 2.63-1.831ZM1352.11 575.952c1.34.09 2.34 1.056 2.23 2.158-.11 1.101-1.28 1.921-2.62 1.831-1.35-.09-2.34-1.056-2.23-2.157.11-1.102 1.28-1.922 2.62-1.832ZM1371.51 566.7c1.34.09 2.34 1.056 2.23 2.158-.11 1.102-1.29 1.922-2.63 1.832-1.34-.091-2.34-1.056-2.23-2.158.11-1.102 1.29-1.922 2.63-1.832ZM1363.89 550.423c1.34.09 2.34 1.056 2.23 2.158-.11 1.102-1.28 1.922-2.62 1.832-1.35-.09-2.34-1.056-2.23-2.158.11-1.102 1.28-1.922 2.62-1.832Z"/><path fill="#0F1B1B" fill-opacity=".07" d="M1257.36 552.896c.47-4.534-1.1-9.22-4.88-13.045-1.94-1.968-4.29-3.518-6.88-4.632-7.32-3.153-12.79-8.604-14.77-15.193-.74-2.458-2.12-4.83-4.16-6.946-3.65-3.789-8.76-6.067-14.16-6.724-3.89-.474-6.65-3.391-6.33-6.607.46-4.514-1.12-9.176-4.88-12.984-7.5-7.599-21.15-8.978-30.66-3.091-10.01 6.196-11.8 17.904-4.06 25.928 3.65 3.79 8.77 6.068 14.16 6.725 3.91.475 6.67 3.318 6.34 6.546-.48 4.533 1.1 9.219 4.87 13.044 1.94 1.968 4.3 3.518 6.89 4.633 7.31 3.153 12.79 8.603 14.77 15.191.74 2.46 2.11 4.831 4.15 6.947 3.66 3.789 8.77 6.067 14.17 6.724 3.88.474 6.65 3.391 6.32 6.607-.45 4.515 1.13 9.176 4.89 12.984 7.49 7.6 21.15 8.978 30.66 3.091 10.01-6.196 11.79-17.904 4.06-25.928-3.66-3.79-8.77-6.068-14.17-6.725-3.9-.475-6.66-3.318-6.33-6.545Z"/><path fill="#D9D9D9" fill-opacity=".25" d="M1247.02 480.862c3.49 3.614 2.75 8.864-1.66 11.726-4.4 2.862-10.79 2.252-14.28-1.363-3.48-3.615-2.74-8.865 1.66-11.726 4.4-2.862 10.8-2.252 14.28 1.363Z"/><path stroke="#0F1B1B" stroke-miterlimit="10" stroke-opacity=".07" stroke-width="2" d="m1345.45 631.28-1.86-1.128c-4.02-2.437-9.68-1.74-12.64 1.556l-18.78 20.853c-2.97 3.296-2.12 7.944 1.9 10.382l25.39 15.415c4.02 2.438 9.68 1.741 12.64-1.556l1.38-1.525c1.99-2.212 5.79-2.679 8.48-1.044l1.86 1.128c4.01 2.437 9.67 1.74 12.64-1.556l18.78-20.853c2.96-3.296 2.11-7.944-1.9-10.382l-25.39-15.415c-4.02-2.438-9.68-1.741-12.65 1.556l-1.37 1.525c-1.99 2.212-5.79 2.679-8.48 1.044Z"/><path fill="#D9D9D9" fill-opacity=".25" d="m1334.65 647.324-10.14 11.258c-1.47 1.635-4.28 1.981-6.27.772l-13.71-8.323c-1.99-1.209-2.41-3.515-.94-5.15l10.14-11.259c1.47-1.635 4.28-1.98 6.27-.771l13.71 8.323c1.99 1.209 2.41 3.514.94 5.15ZM660.938 136.195l-10.137 11.258c-1.472 1.635-4.28 1.981-6.271.772l-13.711-8.323c-1.992-1.209-2.413-3.515-.94-5.15l10.136-11.259c1.472-1.635 4.281-1.98 6.272-.771l13.711 8.323c1.991 1.209 2.412 3.514.94 5.15Z"/></g><circle cx="1288" cy="633" r="35" fill="url(#f)"/><circle cx="1153" cy="680" r="20" fill="url(#g)"/><circle cx="1383" cy="550" r="50" fill="url(#h)"/><defs><radialGradient id="f" cx="0" cy="0" r="1" gradientTransform="rotate(59.144 94.436 1428.651) scale(59.0798)" gradientUnits="userSpaceOnUse"><stop stop-color="#9EECE5" stop-opacity=".48"/><stop offset=".605" stop-color="#9EECE5"/><stop offset=".796" stop-color="#72DFDD"/><stop offset="1" stop-color="#51BBF6"/></radialGradient><radialGradient id="g" cx="0" cy="0" r="1" gradientTransform="rotate(59.144 -17.997 1342.96) scale(33.7599)" gradientUnits="userSpaceOnUse"><stop stop-color="#9EECE5" stop-opacity=".48"/><stop offset=".605" stop-color="#9EECE5"/><stop offset=".796" stop-color="#72DFDD"/><stop offset="1" stop-color="#51BBF6"/></radialGradient><radialGradient id="h" cx="0" cy="0" r="1" gradientTransform="rotate(59.144 218.596 1461.104) scale(84.3997)" gradientUnits="userSpaceOnUse"><stop stop-color="#FBB5D7" stop-opacity=".37"/><stop offset=".605" stop-color="#F8A4CD"/><stop offset=".796" stop-color="#E571C7"/><stop offset="1" stop-color="#515BF6"/></radialGradient></defs></svg>