<svg xmlns="http://www.w3.org/2000/svg" width="600" height="681" fill="none"><mask id="a" width="1548" height="715" x="-948" y="-29" maskUnits="userSpaceOnUse" style="mask-type:luminance"><path fill="#fff" d="M-948-29H600v715H-948V-29Z"/></mask><g fill="#0F1B1B" fill-opacity=".1" mask="url(#a)"><path d="M578.738-1.304 558.835-2.64a2.048 2.048 0 0 0-1.318.355c-.357.244-.599.6-.64 1.01l-1.483 14.888-18.131-1.217c-.5-.034-.967.105-1.319.354-.356.245-.599.6-.64 1.011l-1.485 14.917-18.167-1.22a2.05 2.05 0 0 0-1.318.355c-.357.244-.6.6-.641 1.01l-1.482 14.889-18.132-1.218a2.05 2.05 0 0 0-1.318.355c-.357.244-.599.6-.64 1.01l-1.628 16.343c-.08.81.655 1.522 1.642 1.588.988.067 1.854-.537 1.934-1.348l1.483-14.893 18.138 1.218c.498.033.964-.104 1.315-.352.355-.244.596-.6.637-1.009l1.483-14.893 18.137 1.218c.507.034.98-.11 1.333-.367.366-.244.616-.604.657-1.02l1.484-14.893 18.137 1.218a2.05 2.05 0 0 0 1.315-.352c.356-.245.597-.6.637-1.01L560.308.416l18.138 1.218c.987.066 1.853-.538 1.934-1.348.081-.811-.655-1.522-1.642-1.589ZM540.896 585.71l-19.903-1.336a2.05 2.05 0 0 0-1.318.354c-.357.245-.599.601-.64 1.011l-1.483 14.888-18.131-1.217a2.05 2.05 0 0 0-1.319.354c-.356.244-.599.601-.64 1.011l-1.485 14.917-18.167-1.22a2.042 2.042 0 0 0-1.318.355c-.357.244-.6.6-.641 1.01l-1.482 14.888-18.132-1.217a2.044 2.044 0 0 0-1.318.355c-.357.244-.599.6-.64 1.01l-1.627 16.343c-.081.811.654 1.522 1.641 1.588.988.066 1.854-.537 1.934-1.348l1.483-14.893 18.138 1.218c.498.033.964-.104 1.315-.353.355-.244.596-.599.637-1.008l1.483-14.893 18.137 1.218c.507.034.98-.111 1.333-.367.366-.245.616-.604.658-1.021l1.483-14.892 18.137 1.217c.498.034.964-.104 1.315-.352.356-.244.597-.6.637-1.008l1.483-14.893 18.138 1.218c.987.066 1.853-.538 1.934-1.349.081-.811-.655-1.522-1.642-1.588ZM182.992 269.225l-19.902-1.337c-.5-.033-.967.106-1.319.355-.356.244-.599.6-.64 1.01l-1.482 14.889-18.132-1.218a2.048 2.048 0 0 0-1.318.355c-.357.244-.6.6-.641 1.01l-1.485 14.917-18.166-1.219c-.5-.034-.968.105-1.319.354-.356.244-.599.601-.64 1.011l-1.483 14.888-18.131-1.218c-.5-.033-.967.106-1.319.355-.356.245-.599.601-.64 1.011l-1.627 16.342c-.081.811.654 1.522 1.641 1.588.988.067 1.854-.537 1.935-1.347l1.483-14.894 18.137 1.218a2.05 2.05 0 0 0 1.316-.352c.355-.244.596-.599.636-1.008l1.484-14.893 18.137 1.217c.507.034.98-.11 1.333-.366.365-.245.616-.605.657-1.021l1.483-14.893 18.137 1.218c.499.033.965-.104 1.316-.352.355-.244.596-.6.637-1.009l1.483-14.893 18.137 1.218c.987.066 1.853-.537 1.934-1.348.081-.811-.654-1.522-1.642-1.588ZM45.258 503.222l-12.923-12.501c-.324-.314-.774-.487-1.237-.515a2.061 2.061 0 0 0-1.323.343l-13.87 9.667-11.772-11.389c-.324-.313-.774-.486-1.237-.514a2.05 2.05 0 0 0-1.323.343l-13.896 9.685-11.796-11.411c-.324-.313-.774-.487-1.237-.514a2.05 2.05 0 0 0-1.323.343l-13.87 9.666-11.772-11.388c-.324-.314-.774-.487-1.237-.515a2.063 2.063 0 0 0-1.323.343l-15.224 10.611c-.756.527-.849 1.456-.207 2.076.64.62 1.773.697 2.528.17l13.874-9.67 11.776 11.392c.324.313.772.487 1.233.515.462.034.939-.078 1.32-.343l13.873-9.67 11.776 11.392c.33.318.788.491 1.259.514.469.04.956-.069 1.343-.339l13.874-9.67 11.776 11.392c.324.313.772.486 1.233.515.462.033.939-.078 1.32-.344l13.873-9.67 11.777 11.393c.64.62 1.772.696 2.528.169.755-.526.848-1.456.207-2.076Z"/></g><mask id="b" width="1548" height="715" x="-948" y="-29" maskUnits="userSpaceOnUse" style="mask-type:luminance"><path fill="#fff" d="M-948-29H600v715H-948V-29Z"/></mask><g fill="#EAEAEA" fill-opacity=".5" mask="url(#b)"><path d="m481.253 254.786-5.397-21.688 26.411-4.432-21.014 26.12ZM461.76 206.47l5.397 21.687-26.411 4.432 21.014-26.119Zm49.961 15.633c-.145-.078-.298-.135-.451-.194-.053-.021-.101-.049-.155-.067-.1-.034-.203-.051-.304-.076-.12-.03-.237-.067-.361-.086-.058-.009-.117-.008-.176-.015a4.184 4.184 0 0 0-1.181.02l-34.978 5.869-7.119-28.604c-.051-.879-.586-1.728-1.549-2.251-1.604-.87-3.764-.508-4.825.81l-30.316 37.682c-1.06 1.318-.619 3.091.986 3.962.145.078.298.135.451.194.053.021.101.049.155.067.099.033.202.051.304.076.12.03.236.066.36.086.059.009.118.008.177.014.383.045.78.049 1.181-.019l34.978-5.869 7.119 28.604c.051.879.585 1.728 1.548 2.251 1.605.87 3.765.508 4.825-.81l30.317-37.682c1.06-1.318.618-3.091-.986-3.962Z"/><path d="m479.281 311.134-17.283-70.372c-.202-.824.447-1.626 1.45-1.792 1.003-.166 1.98.366 2.182 1.19l17.283 70.373c.202.823-.447 1.626-1.45 1.792-1.003.166-1.98-.367-2.182-1.191ZM471.613 312.404l-17.283-70.373c-.202-.823.447-1.625 1.45-1.792 1.003-.166 1.98.367 2.182 1.191l17.283 70.372c.202.824-.447 1.626-1.45 1.793-1.003.165-1.98-.368-2.182-1.191ZM463.945 313.674l-17.283-70.373c-.202-.824.447-1.626 1.45-1.792 1.003-.166 1.98.367 2.182 1.191l17.283 70.372c.202.824-.447 1.626-1.45 1.792-1.003.166-1.98-.367-2.182-1.19Z"/></g><mask id="c" width="1548" height="715" x="-948" y="-29" maskUnits="userSpaceOnUse" style="mask-type:luminance"><path fill="#fff" d="M-948-29H600v715H-948V-29Z"/></mask><g fill="#0F1B1B" fill-opacity=".1" mask="url(#c)"><path d="m1.179 197.018-55.617-9.511 25.866-41.551 55.617 9.511-25.866 41.551Zm-29.794-52.02-41.758-31.294 55.348 9.464 41.758 31.295-55.347-9.465Zm-26.833 42.087-41.964-31.449 25.866-41.551 41.964 31.449-25.866 41.551Zm83.85-31.759.01-.018a.392.392 0 0 0 .027-.073l.002-.005.001-.009.009-.042c.013-.01.027-.018.04-.029.21-.19.195-.484-.037-.658l-42.828-32.095c-.013-.011-.028-.018-.042-.027a.383.383 0 0 0-.034-.02c-.016-.009-.034-.016-.051-.023a.474.474 0 0 0-.093-.031c-.017-.004-.033-.01-.051-.013l-56.766-9.707c-.306-.053-.606.109-.67.36-.004.016-.004.031-.006.046l-.02.017-.024.017-.01.011c-.013.013-.024.027-.036.041a.398.398 0 0 0-.03.038l-.01.012-26.391 42.395-.01.019c-.11.182-.07.408.123.552l42.828 32.096.022.014.027.017.027.016c.012.006.023.012.036.017l.016.009.017.005a.443.443 0 0 0 .11.032l.016.004 56.766 9.707c.247.043.488-.056.606-.227.008-.011.018-.02.025-.032l26.391-42.395c.005-.007.007-.014.01-.021ZM540.14 450.844l-55.617-9.51 25.866-41.551 55.617 9.51-25.866 41.551Zm-29.793-52.019-41.759-31.294 55.348 9.464 41.758 31.294-55.347-9.464Zm-26.834 42.086-41.964-31.448 25.866-41.551 41.964 31.448-25.866 41.551Zm83.851-31.759.008-.018a.343.343 0 0 0 .03-.077l.001-.01c.003-.013.007-.027.009-.041.013-.01.028-.018.04-.029.211-.19.195-.484-.037-.658l-42.828-32.096c-.013-.01-.028-.017-.042-.026l-.034-.02a.474.474 0 0 0-.104-.044.779.779 0 0 0-.04-.01c-.017-.005-.033-.011-.051-.014l-56.766-9.707c-.306-.052-.606.109-.67.361-.004.015-.004.03-.006.046l-.02.017-.024.017-.009.01c-.014.013-.025.027-.037.041a.368.368 0 0 0-.03.039l-.01.012-26.391 42.394-.01.02c-.111.182-.069.408.123.552l42.828 32.096c.006.005.015.008.022.013l.027.018.027.016.036.017.016.009.018.005a.362.362 0 0 0 .035.013l.027.007c.016.004.031.009.047.012l.016.004 56.766 9.707c.247.042.488-.056.606-.227.008-.011.018-.021.025-.032l26.391-42.395c.005-.007.007-.014.011-.022Z"/></g><mask id="d" width="1548" height="715" x="-948" y="-29" maskUnits="userSpaceOnUse" style="mask-type:luminance"><path fill="#fff" d="M-948-29H600v715H-948V-29Z"/></mask><g fill="#EAEAEA" fill-opacity=".5" mask="url(#d)"><path d="M-13.128 26.698H15.17c1.023 0 1.852.68 1.852 1.521v.96c0 .84-.83 1.521-1.852 1.521h-28.298c-1.023 0-1.852-.68-1.852-1.521v-.96c0-.84.83-1.521 1.852-1.521ZM5.954 36.26c0-1.106 1.09-2.002 2.437-2.002 1.346 0 2.437.896 2.437 2.001 0 1.106-1.091 2.002-2.437 2.002-1.346 0-2.437-.896-2.437-2.002ZM78.022 598.717h28.297c1.023 0 1.853.682 1.853 1.522v.959c0 .841-.83 1.522-1.853 1.522H78.022c-1.023 0-1.853-.681-1.853-1.522v-.959c0-.84.83-1.522 1.853-1.522ZM59.608 606.277h28.298c1.023 0 1.852.682 1.852 1.522v.959c0 .841-.83 1.522-1.852 1.522H59.608c-1.023 0-1.853-.681-1.853-1.522v-.959c0-.84.83-1.522 1.853-1.522ZM42.548 613.837h28.298c1.023 0 1.852.682 1.852 1.522v.959c0 .841-.83 1.522-1.852 1.522H42.548c-1.023 0-1.852-.681-1.852-1.522v-.959c0-.84.83-1.522 1.852-1.522ZM97.103 608.279c0-1.106 1.091-2.002 2.437-2.002 1.346 0 2.437.896 2.437 2.002 0 1.105-1.091 2.001-2.437 2.001-1.346 0-2.437-.896-2.437-2.001ZM77.697 615.839c0-1.106 1.09-2.002 2.437-2.002 1.346 0 2.437.896 2.437 2.002 0 1.105-1.091 2.001-2.437 2.001-1.346 0-2.438-.896-2.438-2.001ZM64.886 600.719c0-1.106 1.092-2.002 2.437-2.002 1.346 0 2.437.896 2.437 2.002 0 1.105-1.09 2.001-2.437 2.001-1.345 0-2.437-.896-2.437-2.001ZM45.75 608.279c0-1.106 1.092-2.002 2.438-2.002s2.437.896 2.437 2.002c0 1.105-1.091 2.001-2.437 2.001-1.346 0-2.438-.896-2.438-2.001ZM544.752 119.449h28.298c1.023 0 1.852.681 1.852 1.521v.96c0 .84-.829 1.521-1.852 1.521h-28.298c-1.023 0-1.852-.681-1.852-1.521v-.96c0-.84.829-1.521 1.852-1.521ZM526.338 127.009h28.298c1.023 0 1.852.681 1.852 1.521v.96c0 .84-.829 1.521-1.852 1.521h-28.298c-1.023 0-1.852-.681-1.852-1.521v-.96c0-.84.829-1.521 1.852-1.521ZM509.279 134.569h28.297c1.023 0 1.853.681 1.853 1.521v.96c0 .841-.83 1.521-1.853 1.521h-28.297c-1.023 0-1.853-.68-1.853-1.521v-.96c0-.84.83-1.521 1.853-1.521ZM563.834 129.01c0-1.105 1.091-2.001 2.437-2.001 1.346 0 2.437.896 2.437 2.001 0 1.106-1.091 2.002-2.437 2.002-1.346 0-2.437-.896-2.437-2.002ZM544.427 136.57c0-1.105 1.091-2.001 2.437-2.001 1.346 0 2.437.896 2.437 2.001 0 1.106-1.091 2.002-2.437 2.002-1.346 0-2.437-.896-2.437-2.002ZM531.617 121.45c0-1.105 1.091-2.001 2.437-2.001 1.346 0 2.437.896 2.437 2.001s-1.091 2.002-2.437 2.002c-1.346 0-2.437-.897-2.437-2.002ZM512.481 129.01c0-1.105 1.091-2.001 2.437-2.001 1.346 0 2.437.896 2.437 2.001 0 1.106-1.091 2.002-2.437 2.002-1.346 0-2.437-.896-2.437-2.002Z"/></g><mask id="e" width="1548" height="715" x="-948" y="-29" maskUnits="userSpaceOnUse" style="mask-type:luminance"><path fill="#fff" d="M-948-29H600v715H-948V-29Z"/></mask><g mask="url(#e)"><path fill="#D9D9D9" fill-opacity=".4" d="m274.643 225.45 12.792-5.326 6.486 10.504-19.278-5.178Zm27.447-15.013-12.792 5.327-6.486-10.504 19.278 5.177Zm-2.737 23.25c.029-.072.043-.145.058-.217.005-.025.016-.049.02-.075.007-.047.003-.093.005-.139.002-.054.008-.109.003-.163-.003-.027-.012-.051-.016-.077a1.315 1.315 0 0 0-.178-.495l-8.591-13.91 16.872-7.026c.542-.145.997-.49 1.188-.969.318-.799-.212-1.658-1.184-1.919l-27.814-7.47c-.972-.261-2.018.175-2.336.974-.029.071-.043.144-.058.217-.006.025-.016.049-.02.075-.007.046-.004.092-.005.139-.002.054-.008.109-.003.163.002.026.012.051.016.077.026.168.08.335.178.495l8.59 13.911-16.871 7.024c-.543.146-.998.49-1.189.97-.318.798.213 1.657 1.185 1.919l27.813 7.469c.973.261 2.019-.174 2.337-.973ZM225.545 118.78l-31.528-13.233c-.911-.382-1.271-1.299-.806-2.047.466-.748 1.582-1.044 2.493-.662l31.528 13.233c.911.383 1.272 1.299.806 2.047-.465.748-1.581 1.045-2.493.662ZM221.985 124.5l-31.528-13.234c-.911-.382-1.272-1.299-.806-2.047.465-.748 1.582-1.044 2.493-.662l31.528 13.234c.911.382 1.272 1.298.806 2.047-.466.748-1.582 1.044-2.493.662ZM218.425 130.219l-31.528-13.233c-.911-.383-1.273-1.299-.807-2.048.466-.748 1.582-1.044 2.493-.662l31.528 13.234c.911.382 1.272 1.299.807 2.047-.466.748-1.582 1.044-2.493.662ZM214.864 135.938l-31.528-13.233c-.911-.383-1.271-1.299-.806-2.047.466-.748 1.582-1.045 2.493-.662l31.528 13.233c.911.382 1.272 1.299.806 2.047-.465.748-1.581 1.045-2.493.662ZM211.304 141.657l-31.528-13.233c-.911-.382-1.272-1.299-.806-2.047.465-.748 1.582-1.044 2.493-.662l31.528 13.233c.911.383 1.272 1.299.806 2.047-.466.749-1.582 1.045-2.493.662ZM207.744 147.377l-31.528-13.234c-.911-.382-1.272-1.299-.806-2.047.465-.748 1.581-1.044 2.493-.662l31.527 13.234c.911.382 1.272 1.299.807 2.047-.466.748-1.582 1.044-2.493.662ZM204.183 153.096l-31.528-13.234c-.911-.382-1.271-1.298-.806-2.047.466-.748 1.582-1.044 2.493-.662l31.528 13.234c.911.382 1.272 1.299.806 2.047-.465.748-1.582 1.044-2.493.662ZM200.623 158.815l-31.528-13.233c-.911-.382-1.272-1.299-.806-2.047.465-.748 1.582-1.044 2.493-.662l31.528 13.233c.911.383 1.272 1.299.806 2.047-.466.748-1.582 1.045-2.493.662ZM197.063 164.535l-31.528-13.234c-.911-.382-1.273-1.299-.807-2.047.466-.748 1.582-1.044 2.493-.662l31.528 13.234c.911.382 1.272 1.299.807 2.047-.466.748-1.582 1.044-2.493.662ZM193.502 170.254l-31.528-13.234c-.911-.382-1.272-1.298-.806-2.047.466-.748 1.582-1.044 2.493-.662l31.528 13.234c.911.382 1.272 1.299.806 2.047-.465.748-1.582 1.044-2.493.662ZM189.942 175.973l-31.528-13.233c-.911-.383-1.272-1.299-.806-2.047.465-.748 1.582-1.045 2.493-.662l31.528 13.233c.911.382 1.271 1.299.806 2.047-.466.748-1.582 1.044-2.493.662ZM168.208 18.904l13.346 12.91c.661.641.566 1.601-.214 2.145-.78.543-1.949.465-2.612-.176l-13.345-12.91c-.662-.64-.566-1.6.214-2.144.78-.543 1.949-.465 2.611.175ZM153.814 13.86l13.345 12.91c.662.641.567 1.601-.213 2.145-.78.544-1.949.465-2.612-.175l-13.345-12.91c-.662-.64-.567-1.6.213-2.145.78-.543 1.95-.465 2.612.176ZM140.086 9.461l13.345 12.91c.662.64.567 1.6-.213 2.145-.781.543-1.95.465-2.612-.176l-13.345-12.91c-.662-.64-.567-1.6.213-2.144.78-.544 1.95-.465 2.612.175ZM170.559 32.41c.78-.543 1.949-.465 2.611.176.662.64.567 1.6-.213 2.144-.78.544-1.949.465-2.612-.175-.662-.64-.566-1.601.214-2.145ZM155.676 26.894c.78-.543 1.949-.465 2.612.176.662.64.566 1.6-.214 2.143-.78.544-1.949.466-2.611-.175-.662-.64-.567-1.6.213-2.144ZM160.046 13.36c.78-.544 1.949-.465 2.612.175.662.64.566 1.6-.214 2.144-.78.544-1.949.466-2.611-.175-.662-.64-.567-1.6.213-2.144ZM145.297 7.972c.78-.544 1.949-.465 2.611.176.662.64.567 1.6-.213 2.144-.78.543-1.949.465-2.612-.175-.662-.641-.566-1.601.214-2.145ZM407.374 83.459l-2.306 23.158c-.083.838-.978 1.461-1.997 1.393l-1.165-.078c-1.02-.069-1.779-.804-1.696-1.641l2.306-23.158c.084-.838.978-1.46 1.998-1.392l1.165.078c1.02.068 1.779.802 1.695 1.64ZM399.699 67.773l-2.306 23.158c-.084.838-.978 1.461-1.998 1.393l-1.165-.078c-1.02-.069-1.779-.803-1.695-1.64l2.306-23.159c.083-.838.977-1.46 1.997-1.392l1.165.078c1.02.068 1.779.803 1.696 1.64ZM391.913 53.195l-2.306 23.159c-.084.837-.978 1.46-1.998 1.392l-1.165-.078c-1.02-.069-1.779-.803-1.695-1.64l2.306-23.159c.084-.837.978-1.46 1.998-1.392l1.165.078c1.02.069 1.779.803 1.695 1.64ZM394.214 98.296c1.342.09 2.34 1.056 2.231 2.157-.11 1.102-1.287 1.922-2.628 1.832-1.342-.09-2.34-1.056-2.23-2.158.109-1.101 1.286-1.921 2.627-1.831ZM386.619 81.797c1.342.09 2.341 1.056 2.231 2.158-.11 1.102-1.286 1.921-2.628 1.832-1.341-.09-2.34-1.057-2.23-2.158.11-1.102 1.286-1.922 2.627-1.832ZM406.016 72.546c1.342.09 2.34 1.056 2.23 2.157-.109 1.102-1.286 1.922-2.627 1.832-1.342-.09-2.34-1.056-2.231-2.158.11-1.101 1.286-1.921 2.628-1.831ZM398.399 56.269c1.342.09 2.34 1.056 2.231 2.157-.11 1.102-1.287 1.922-2.628 1.832-1.341-.09-2.34-1.056-2.23-2.158.109-1.101 1.286-1.921 2.627-1.831ZM281.53-13.293c3.485 3.615 2.742 8.865-1.66 11.727-4.402 2.861-10.796 2.25-14.281-1.364-3.485-3.614-2.742-8.864 1.66-11.726s10.796-2.252 14.281 1.363ZM369.154 153.169l-10.137 11.258c-1.472 1.636-4.28 1.981-6.271.772l-13.711-8.323c-1.992-1.209-2.412-3.515-.94-5.15l10.136-11.258c1.473-1.636 4.281-1.981 6.272-.772l13.711 8.323c1.991 1.209 2.412 3.515.94 5.15Z"/><path fill="#0F1B1B" fill-opacity=".1" d="m382.459 489.003-81.341 46.967-33.701-76.85 81.34-46.967 33.702 76.85Zm-116.585-30.984-98.653 6.365 80.947-46.74 98.653-6.366-80.947 46.741Zm33.378 78.505-99.14 6.397-33.701-76.85 99.139-6.397 33.702 76.85Zm50.91-125.965-.017-.03a.786.786 0 0 0-.081-.117l-.004-.007-.013-.013c-.018-.02-.035-.04-.054-.058 0-.026.004-.051.002-.077-.043-.449-.521-.784-1.067-.748l-101.181 6.528c-.032.002-.061.009-.092.013-.024.004-.048.006-.071.011a.934.934 0 0 0-.098.026.978.978 0 0 0-.096.031c-.022.009-.043.02-.064.03-.027.012-.055.022-.081.037l-83.021 47.938c-.448.259-.556.767-.241 1.135.019.023.042.04.064.061-.001.013.002.028.002.042.001.015-.003.03-.001.045l.005.022c.004.03.011.059.019.088.007.026.014.052.024.077l.007.025 34.386 78.41c.005.012.014.022.019.033.15.335.552.562 1.005.533l101.182-6.528c.016-.001.031-.006.047-.007.02-.002.039-.006.059-.009a.562.562 0 0 0 .057-.009l.07-.017.033-.006c.011-.003.019-.008.029-.012l.061-.022.046-.02c.025-.011.05-.022.074-.035.008-.005.017-.007.025-.012l83.022-47.938c.361-.208.496-.578.372-.907-.007-.022-.011-.044-.02-.065l-34.386-78.41c-.006-.014-.015-.025-.022-.038ZM84.657 75.497 3.316 122.464l-33.702-76.85L50.955-1.353l33.702 76.85ZM-31.928 44.513l-98.653 6.365 80.947-46.74 98.653-6.365-80.947 46.74ZM1.45 123.018l-99.14 6.397-33.702-76.85 99.14-6.397 33.702 76.85ZM52.36-2.947l-.018-.03a.77.77 0 0 0-.08-.117l-.005-.007-.013-.013c-.017-.02-.034-.04-.054-.058 0-.026.005-.051.002-.077-.042-.449-.52-.784-1.066-.748L-50.055 2.53c-.032.002-.062.01-.092.013-.024.004-.048.006-.072.011a1.006 1.006 0 0 0-.098.026l-.095.031-.064.03c-.027.012-.055.022-.081.037l-83.022 47.938c-.448.259-.555.767-.24 1.135.019.023.042.04.063.06 0 .015.002.029.003.043 0 .015-.003.03-.001.045 0 .008.004.015.004.023a.895.895 0 0 0 .043.164c.003.008.004.017.008.025l34.386 78.411c.005.011.013.021.019.032.15.335.551.562 1.005.533L2.892 124.56c.017-.001.032-.006.048-.007.02-.002.039-.006.059-.009a1.398 1.398 0 0 0 .127-.026l.033-.006c.01-.003.019-.008.029-.012a1.297 1.297 0 0 0 .18-.077c.009-.005.018-.007.026-.012l83.021-47.938c.361-.208.497-.579.372-.907-.007-.022-.01-.044-.02-.065L52.381-2.91c-.005-.014-.014-.025-.021-.038Z"/><path fill="#D9D9D9" fill-opacity=".4" d="m292.137 613.605 12.792-5.326 6.486 10.504-19.278-5.178Zm27.447-15.013-12.792 5.327-6.486-10.504 19.278 5.177Zm-2.737 23.25c.029-.072.043-.145.058-.217.005-.025.016-.05.02-.075.007-.047.003-.093.005-.139.002-.055.008-.109.003-.164-.003-.026-.012-.051-.016-.076a1.315 1.315 0 0 0-.178-.495l-8.591-13.911 16.872-7.025c.542-.146.997-.49 1.188-.969.318-.799-.212-1.658-1.184-1.919l-27.814-7.47c-.972-.261-2.018.175-2.336.973-.029.072-.043.145-.058.218-.006.025-.016.049-.02.075-.007.046-.004.092-.005.138-.002.055-.008.109-.003.164.002.026.012.051.016.076.026.169.08.336.178.496l8.59 13.91-16.871 7.025c-.543.146-.998.49-1.189.97-.318.798.213 1.657 1.185 1.918l27.813 7.47c.973.261 2.019-.174 2.337-.973ZM243.039 506.935l-31.528-13.233c-.911-.383-1.271-1.299-.806-2.047.466-.749 1.582-1.045 2.493-.662l31.528 13.233c.911.382 1.272 1.299.806 2.047-.465.748-1.581 1.044-2.493.662ZM239.479 512.654l-31.528-13.233c-.911-.383-1.272-1.299-.806-2.047.465-.748 1.582-1.045 2.493-.662l31.528 13.233c.911.383 1.272 1.299.806 2.047-.466.748-1.582 1.045-2.493.662ZM235.919 518.374l-31.528-13.234c-.911-.382-1.273-1.299-.807-2.047.466-.748 1.582-1.044 2.493-.662l31.528 13.233c.911.383 1.272 1.299.807 2.047-.466.749-1.582 1.045-2.493.663ZM232.358 524.093 200.83 510.86c-.911-.383-1.272-1.299-.806-2.047.466-.749 1.582-1.045 2.493-.663l31.528 13.234c.911.382 1.272 1.299.806 2.047-.465.748-1.582 1.044-2.493.662ZM228.798 529.812l-31.528-13.233c-.911-.383-1.272-1.299-.806-2.047.466-.748 1.582-1.045 2.493-.662l31.528 13.233c.911.382 1.272 1.299.806 2.047-.466.748-1.582 1.045-2.493.662ZM225.238 535.531l-31.528-13.233c-.911-.382-1.272-1.299-.806-2.047.465-.748 1.582-1.044 2.493-.662l31.527 13.233c.911.383 1.272 1.299.807 2.047-.466.749-1.582 1.045-2.493.662ZM221.677 541.251l-31.528-13.234c-.911-.382-1.272-1.299-.806-2.047.466-.748 1.582-1.044 2.493-.662l31.528 13.234c.911.382 1.272 1.299.806 2.047-.465.748-1.581 1.044-2.493.662ZM218.117 546.97l-31.528-13.234c-.911-.382-1.272-1.298-.806-2.047.465-.748 1.582-1.044 2.493-.662l31.528 13.234c.911.382 1.272 1.299.806 2.047-.466.748-1.582 1.044-2.493.662ZM214.557 552.689l-31.528-13.233c-.911-.383-1.273-1.299-.806-2.047.465-.748 1.581-1.045 2.492-.662l31.528 13.233c.911.382 1.272 1.299.807 2.047-.466.748-1.582 1.045-2.493.662ZM210.996 558.409l-31.528-13.234c-.911-.382-1.272-1.299-.806-2.047.466-.748 1.582-1.044 2.493-.662l31.528 13.234c.911.382 1.272 1.299.806 2.047-.465.748-1.582 1.044-2.493.662ZM207.436 564.128l-31.528-13.234c-.911-.382-1.272-1.298-.806-2.047.465-.748 1.582-1.044 2.493-.662l31.528 13.234c.911.382 1.272 1.299.806 2.047-.466.748-1.582 1.044-2.493.662ZM185.702 407.059l13.346 12.91c.662.641.566 1.601-.214 2.144-.78.544-1.949.466-2.611-.175l-13.346-12.91c-.662-.641-.566-1.601.214-2.144.78-.544 1.949-.465 2.611.175ZM171.308 402.015l13.345 12.91c.662.641.567 1.601-.213 2.145-.78.543-1.949.465-2.612-.176l-13.345-12.91c-.662-.64-.567-1.6.213-2.144.78-.544 1.95-.465 2.612.175ZM157.58 397.616l13.345 12.91c.662.64.567 1.6-.213 2.144-.781.544-1.95.465-2.612-.175l-13.345-12.91c-.662-.641-.567-1.601.213-2.145.781-.543 1.95-.465 2.612.176ZM188.053 420.565c.78-.544 1.949-.465 2.612.175.661.641.566 1.601-.214 2.144-.78.544-1.949.466-2.612-.175-.662-.64-.566-1.6.214-2.144ZM173.17 415.049c.78-.544 1.949-.465 2.612.175.662.641.566 1.601-.214 2.144-.78.544-1.949.465-2.611-.175-.662-.641-.567-1.601.213-2.144ZM177.54 401.514c.78-.543 1.949-.465 2.612.176.662.64.566 1.6-.214 2.144-.78.544-1.949.465-2.611-.175-.662-.641-.567-1.601.213-2.145ZM162.791 396.127c.78-.544 1.949-.465 2.611.175.662.641.567 1.601-.213 2.144-.78.544-1.949.466-2.612-.175-.662-.64-.566-1.6.214-2.144Z"/><path fill="#D9D9D9" fill-opacity=".5" d="m424.868 471.614-2.306 23.158c-.083.837-.977 1.461-1.997 1.392l-1.165-.078c-1.02-.068-1.779-.803-1.696-1.64l2.306-23.158c.084-.838.978-1.461 1.998-1.393l1.165.078c1.02.069 1.779.803 1.695 1.641ZM417.193 455.928l-2.306 23.158c-.084.837-.978 1.461-1.998 1.392l-1.165-.078c-1.02-.068-1.779-.803-1.696-1.64l2.307-23.158c.083-.838.978-1.461 1.997-1.393l1.165.078c1.02.069 1.779.803 1.696 1.641ZM409.407 441.35l-2.306 23.158c-.084.838-.978 1.461-1.998 1.392l-1.165-.078c-1.02-.068-1.779-.803-1.695-1.64l2.306-23.158c.084-.838.978-1.461 1.998-1.393l1.165.079c1.02.068 1.779.802 1.695 1.64ZM411.708 486.451c1.342.09 2.34 1.056 2.231 2.157-.11 1.102-1.286 1.922-2.628 1.832-1.342-.09-2.34-1.057-2.231-2.158.11-1.101 1.286-1.921 2.628-1.831ZM404.113 469.952c1.342.09 2.341 1.056 2.231 2.157-.11 1.102-1.286 1.922-2.628 1.832-1.341-.09-2.34-1.056-2.23-2.158.11-1.101 1.286-1.921 2.627-1.831ZM423.51 460.7c1.342.09 2.34 1.056 2.23 2.158-.109 1.102-1.286 1.922-2.627 1.832-1.342-.091-2.34-1.056-2.231-2.158.11-1.102 1.286-1.922 2.628-1.832ZM415.893 444.424c1.342.09 2.341 1.056 2.231 2.157-.11 1.102-1.287 1.922-2.628 1.832-1.341-.09-2.34-1.056-2.23-2.158.109-1.102 1.286-1.921 2.627-1.831Z"/><path fill="#0F1B1B" fill-opacity=".1" d="M309.362 446.896c.472-4.534-1.105-9.22-4.878-13.045-1.941-1.968-4.294-3.518-6.881-4.632-7.318-3.153-12.793-8.604-14.773-15.193-.739-2.458-2.116-4.83-4.156-6.946-3.654-3.789-8.768-6.067-14.163-6.724-3.888-.474-6.648-3.391-6.327-6.607.452-4.514-1.128-9.176-4.884-12.984-7.497-7.599-21.152-8.978-30.662-3.091-10.009 6.196-11.795 17.904-4.059 25.928 3.654 3.79 8.768 6.068 14.164 6.725 3.902.475 6.669 3.318 6.332 6.546-.472 4.533 1.105 9.219 4.879 13.044 1.94 1.968 4.294 3.518 6.881 4.633 7.318 3.153 12.793 8.603 14.772 15.191.739 2.46 2.116 4.831 4.156 6.947 3.654 3.789 8.768 6.067 14.164 6.724 3.887.474 6.648 3.391 6.326 6.607-.451 4.515 1.128 9.176 4.885 12.984 7.497 7.6 21.151 8.978 30.661 3.091 10.009-6.196 11.796-17.904 4.059-25.928-3.653-3.79-8.768-6.068-14.163-6.725-3.903-.475-6.669-3.318-6.333-6.545Z"/><path fill="#D9D9D9" fill-opacity=".4" d="M299.024 374.862c3.485 3.614 2.742 8.864-1.66 11.726s-10.796 2.252-14.281-1.363c-3.485-3.615-2.742-8.865 1.66-11.726 4.402-2.862 10.796-2.252 14.281 1.363Z"/><path stroke="#0F1B1B" stroke-miterlimit="10" stroke-opacity=".1" stroke-width="2" d="m201.735 637.58-1.857-1.128c-4.015-2.437-9.675-1.74-12.643 1.557l-18.775 20.852c-2.968 3.296-2.119 7.944 1.896 10.382l25.394 15.416c4.015 2.437 9.675 1.74 12.643-1.556l1.373-1.525c1.992-2.212 5.79-2.68 8.484-1.045l1.857 1.128c4.015 2.437 9.675 1.74 12.643-1.556l18.774-20.852c2.969-3.297 2.12-7.945-1.895-10.382l-25.394-15.416c-4.015-2.438-9.676-1.741-12.643 1.556l-1.373 1.525c-1.992 2.212-5.79 2.679-8.484 1.044Z"/><path fill="#D9D9D9" fill-opacity=".4" d="m190.937 653.624-10.136 11.259c-1.472 1.635-4.28 1.98-6.272.771l-13.711-8.323c-1.991-1.209-2.412-3.515-.94-5.15l10.137-11.258c1.472-1.635 4.28-1.981 6.271-.772l13.711 8.323c1.992 1.209 2.413 3.515.94 5.15Z"/></g></svg>