<svg xmlns="http://www.w3.org/2000/svg" width="600" height="681" fill="none"><g clip-path="url(#a)"><mask id="b" width="1569" height="715" x="-969" y="-32" maskUnits="userSpaceOnUse" style="mask-type:luminance"><path fill="#fff" d="M-968.919-32H600v715H-968.919V-32Z"/></mask><g fill="#0F1B1B" fill-opacity=".1" mask="url(#b)"><path d="M578.451-4.304 558.279-5.64a2.097 2.097 0 0 0-1.336.355c-.362.244-.607.6-.649 1.01l-1.502 14.888-18.377-1.217a2.099 2.099 0 0 0-1.336.354c-.362.245-.608.6-.649 1.011l-1.506 14.917-18.412-1.22a2.099 2.099 0 0 0-1.336.355c-.361.244-.608.6-.649 1.01l-1.503 14.889-18.376-1.218a2.097 2.097 0 0 0-1.336.355c-.362.244-.608.6-.649 1.01l-1.65 16.343c-.081.81.664 1.522 1.665 1.588 1.001.067 1.878-.537 1.96-1.348l1.503-14.893 18.382 1.218a2.1 2.1 0 0 0 1.334-.352c.359-.244.604-.6.645-1.009l1.503-14.893 18.382 1.218c.514.034.994-.11 1.352-.367.37-.244.624-.604.666-1.02l1.503-14.893 18.382 1.218c.505.033.977-.105 1.333-.353.36-.244.605-.6.646-1.008l1.503-14.893 18.383 1.218c1 .066 1.878-.538 1.96-1.348.082-.811-.664-1.522-1.664-1.589ZM540.097 582.71l-20.171-1.336a2.096 2.096 0 0 0-1.336.354c-.362.245-.608.601-.649 1.011l-1.503 14.888-18.376-1.217a2.101 2.101 0 0 0-1.337.354c-.361.244-.607.601-.648 1.011l-1.506 14.917-18.412-1.22a2.09 2.09 0 0 0-1.336.355c-.362.244-.608.6-.649 1.01l-1.503 14.888-18.376-1.217a2.09 2.09 0 0 0-1.336.355c-.362.244-.608.6-.649 1.01l-1.65 16.343c-.082.811.664 1.522 1.664 1.588 1.001.066 1.879-.537 1.96-1.348l1.504-14.893 18.382 1.218c.505.033.977-.104 1.333-.353.36-.244.605-.599.646-1.008l1.503-14.893 18.382 1.218c.514.034.993-.111 1.351-.367.371-.245.624-.604.667-1.021l1.503-14.892 18.382 1.217c.505.034.977-.104 1.333-.352.36-.244.604-.6.646-1.008l1.503-14.893 18.382 1.218c1.001.066 1.878-.538 1.96-1.349.082-.811-.663-1.522-1.664-1.588ZM177.357 266.225l-20.171-1.337a2.106 2.106 0 0 0-1.337.355c-.361.244-.607.6-.648 1.01l-1.503 14.889-18.376-1.218a2.098 2.098 0 0 0-1.337.355c-.361.244-.607.6-.649 1.01l-1.505 14.917-18.412-1.219a2.096 2.096 0 0 0-1.336.354c-.362.244-.608.601-.649 1.011l-1.503 14.888-18.377-1.218a2.103 2.103 0 0 0-1.336.355c-.361.245-.607.601-.648 1.011l-1.65 16.342c-.082.811.663 1.522 1.664 1.588 1 .067 1.879-.537 1.96-1.347l1.503-14.894 18.383 1.218c.504.034.977-.104 1.333-.352.36-.244.604-.599.646-1.008l1.503-14.893 18.382 1.217c.514.034.993-.11 1.351-.366.371-.245.624-.605.666-1.021l1.503-14.893 18.383 1.218a2.1 2.1 0 0 0 1.333-.352c.36-.244.604-.6.645-1.009l1.503-14.893 18.383 1.218c1.001.066 1.878-.537 1.96-1.348.082-.811-.663-1.522-1.664-1.588ZM37.761 500.222l-13.097-12.501c-.329-.314-.785-.487-1.254-.515a2.111 2.111 0 0 0-1.34.343l-14.058 9.667-11.931-11.389c-.329-.313-.785-.486-1.254-.514a2.1 2.1 0 0 0-1.341.343l-14.084 9.685-11.955-11.411c-.329-.313-.785-.487-1.254-.514a2.099 2.099 0 0 0-1.34.343l-14.058 9.666-11.93-11.388c-.33-.314-.786-.487-1.255-.515a2.112 2.112 0 0 0-1.341.343l-15.43 10.611c-.766.527-.86 1.456-.21 2.076.65.62 1.797.697 2.563.17l14.061-9.67 11.936 11.392c.327.313.782.487 1.25.515.467.034.95-.078 1.336-.343l14.061-9.67 11.936 11.392c.334.318.798.491 1.275.514.476.04.969-.069 1.362-.339l14.061-9.67 11.936 11.392c.327.313.782.486 1.25.515.467.033.95-.078 1.336-.344l14.061-9.67 11.936 11.393c.65.62 1.797.696 2.563.169.765-.526.859-1.456.21-2.076Z"/></g><mask id="c" width="1569" height="715" x="-969" y="-32" maskUnits="userSpaceOnUse" style="mask-type:luminance"><path fill="#fff" d="M-968.919-32H600v715H-968.919V-32Z"/></mask><g fill="#EAEAEA" fill-opacity=".5" mask="url(#c)"><path d="m479.648 251.786-5.47-21.688 26.768-4.432-21.298 26.12Zm-19.757-48.316 5.471 21.687-26.769 4.432 21.298-26.119Zm50.637 15.633c-.147-.078-.303-.135-.457-.194-.054-.021-.103-.049-.158-.067-.101-.034-.205-.051-.308-.076-.121-.03-.239-.067-.365-.086-.059-.009-.119-.008-.179-.015a4.297 4.297 0 0 0-1.197.02l-35.45 5.869-7.215-28.604c-.053-.879-.594-1.728-1.57-2.251-1.627-.87-3.816-.508-4.89.81l-30.727 37.682c-1.074 1.318-.627 3.091 1 3.962.147.078.302.135.457.194.054.021.102.049.157.067.101.033.205.051.308.076.122.03.24.066.365.086.06.009.12.008.179.014.389.045.791.049 1.198-.019l35.45-5.869 7.215 28.604c.052.879.593 1.728 1.57 2.251 1.626.87 3.815.508 4.89-.81l30.726-37.682c1.075-1.318.627-3.091-.999-3.962Z"/><path d="m477.649 308.134-17.516-70.372c-.205-.824.453-1.626 1.469-1.792 1.017-.166 2.007.366 2.212 1.19l17.516 70.373c.205.823-.452 1.626-1.469 1.792-1.016.166-2.007-.367-2.212-1.191ZM469.878 309.404l-17.517-70.373c-.204-.823.454-1.625 1.47-1.792 1.017-.166 2.007.367 2.212 1.191l17.516 70.372c.205.824-.453 1.626-1.469 1.793-1.017.165-2.007-.368-2.212-1.191ZM462.106 310.674l-17.516-70.373c-.205-.824.453-1.626 1.469-1.792 1.017-.166 2.007.367 2.212 1.191l17.516 70.372c.205.824-.452 1.626-1.469 1.792-1.017.166-2.007-.367-2.212-1.19Z"/></g><mask id="d" width="1569" height="715" x="-969" y="-32" maskUnits="userSpaceOnUse" style="mask-type:luminance"><path fill="#fff" d="M-968.919-32H600v715H-968.919V-32Z"/></mask><g fill="#0F1B1B" fill-opacity=".1" mask="url(#d)"><path d="m-6.913 194.018-56.369-9.511 26.216-41.551 56.368 9.511-26.215 41.551Zm-30.196-52.02-42.323-31.294 56.096 9.464 42.322 31.295-56.095-9.465Zm-27.196 42.087-42.531-31.449 26.215-41.551 42.531 31.449-26.215 41.551Zm84.983-31.759.009-.018a.394.394 0 0 0 .029-.073l.001-.005.001-.009c.004-.014.008-.028.01-.042.013-.01.027-.018.04-.029.214-.19.197-.484-.037-.658l-43.407-32.095c-.014-.011-.03-.018-.043-.027l-.034-.02c-.017-.009-.035-.016-.052-.023a.478.478 0 0 0-.054-.021l-.04-.01c-.018-.004-.034-.01-.052-.013l-57.533-9.707c-.31-.053-.615.109-.68.36-.003.016-.003.031-.005.046l-.02.017-.025.017-.01.011-.037.041a.42.42 0 0 0-.03.038l-.01.012-26.748 42.395c-.004.006-.006.013-.009.019-.113.182-.071.408.123.552l43.407 32.096.023.014.027.017.027.016.037.017.017.009.017.005a.44.44 0 0 0 .063.02.423.423 0 0 0 .048.012l.016.004 57.533 9.707c.25.043.495-.056.614-.227.009-.011.019-.02.026-.032l26.748-42.395.01-.021ZM539.331 447.844l-56.368-9.51 26.215-41.551 56.369 9.51-26.216 41.551Zm-30.196-52.019-42.322-31.294 56.095 9.464 42.322 31.294-56.095-9.464Zm-27.196 42.086-42.531-31.448 26.216-41.551 42.531 31.448-26.216 41.551Zm84.984-31.759.008-.018a.347.347 0 0 0 .031-.077l.001-.01c.003-.013.007-.027.009-.041.013-.01.028-.018.04-.029.214-.19.198-.484-.037-.658l-43.407-32.096c-.013-.01-.029-.017-.043-.026l-.034-.02a.49.49 0 0 0-.106-.044l-.04-.01c-.017-.005-.034-.011-.052-.014l-57.532-9.707c-.311-.052-.615.109-.68.361-.004.015-.004.03-.006.046a.163.163 0 0 0-.02.017l-.025.017-.009.01-.038.041c-.01.013-.021.025-.03.039l-.01.012-26.748 42.394-.009.02c-.113.182-.071.408.124.552l43.407 32.096c.006.005.015.008.022.013l.027.018.028.016.037.017.016.009.017.005a.52.52 0 0 0 .036.013l.028.007.048.012.015.004 57.533 9.707c.251.042.495-.056.615-.227.008-.011.018-.021.025-.032l26.748-42.395c.005-.007.007-.014.011-.022Z"/></g><mask id="e" width="1569" height="715" x="-969" y="-32" maskUnits="userSpaceOnUse" style="mask-type:luminance"><path fill="#fff" d="M-968.919-32H600v715H-968.919V-32Z"/></mask><g fill="#EAEAEA" fill-opacity=".5" mask="url(#e)"><path d="M-21.413 23.698h28.68c1.037 0 1.877.68 1.877 1.521v.96c0 .84-.84 1.521-1.877 1.521h-28.68c-1.037 0-1.878-.68-1.878-1.521v-.96c0-.84.84-1.521 1.878-1.521ZM-2.074 33.26c0-1.106 1.106-2.002 2.47-2.002s2.47.896 2.47 2.001c0 1.106-1.106 2.002-2.47 2.002s-2.47-.896-2.47-2.002ZM70.968 595.717h28.68c1.037 0 1.877.682 1.877 1.522v.959c0 .841-.84 1.522-1.877 1.522h-28.68c-1.037 0-1.878-.681-1.878-1.522v-.959c0-.84.841-1.522 1.878-1.522ZM52.306 603.277h28.68c1.036 0 1.877.682 1.877 1.522v.959c0 .841-.84 1.522-1.878 1.522h-28.68c-1.036 0-1.877-.681-1.877-1.522v-.959c0-.84.84-1.522 1.878-1.522ZM35.015 610.837h28.68c1.037 0 1.877.682 1.877 1.522v.959c0 .841-.84 1.522-1.877 1.522h-28.68c-1.037 0-1.878-.681-1.878-1.522v-.959c0-.84.841-1.522 1.878-1.522ZM90.307 605.279c0-1.106 1.106-2.002 2.47-2.002 1.365 0 2.47.896 2.47 2.002 0 1.105-1.105 2.001-2.47 2.001-1.364 0-2.47-.896-2.47-2.001ZM70.638 612.839c0-1.106 1.106-2.002 2.47-2.002 1.365 0 2.47.896 2.47 2.002 0 1.105-1.105 2.001-2.47 2.001-1.364 0-2.47-.896-2.47-2.001ZM57.655 597.719c0-1.106 1.106-2.002 2.47-2.002s2.47.896 2.47 2.002c0 1.105-1.106 2.001-2.47 2.001s-2.47-.896-2.47-2.001ZM38.26 605.279c0-1.106 1.107-2.002 2.47-2.002 1.365 0 2.47.896 2.47 2.002 0 1.105-1.105 2.001-2.47 2.001-1.363 0-2.47-.896-2.47-2.001ZM544.006 116.449h28.68c1.037 0 1.877.681 1.877 1.521v.96c0 .84-.84 1.521-1.877 1.521h-28.68c-1.037 0-1.878-.681-1.878-1.521v-.96c0-.84.841-1.521 1.878-1.521ZM525.343 124.009h28.68c1.037 0 1.877.681 1.877 1.521v.96c0 .84-.84 1.521-1.877 1.521h-28.68c-1.037 0-1.878-.681-1.878-1.521v-.96c0-.84.841-1.521 1.878-1.521ZM508.053 131.569h28.68c1.037 0 1.877.681 1.877 1.521v.96c0 .841-.84 1.521-1.877 1.521h-28.68c-1.037 0-1.878-.68-1.878-1.521v-.96c0-.84.841-1.521 1.878-1.521ZM563.345 126.01c0-1.105 1.106-2.001 2.47-2.001s2.47.896 2.47 2.001c0 1.106-1.106 2.002-2.47 2.002s-2.47-.896-2.47-2.002ZM543.676 133.57c0-1.105 1.106-2.001 2.47-2.001s2.47.896 2.47 2.001c0 1.106-1.106 2.002-2.47 2.002s-2.47-.896-2.47-2.002ZM530.693 118.45c0-1.105 1.106-2.001 2.47-2.001s2.47.896 2.47 2.001-1.106 2.002-2.47 2.002-2.47-.897-2.47-2.002ZM511.298 126.01c0-1.105 1.106-2.001 2.471-2.001 1.364 0 2.469.896 2.469 2.001 0 1.106-1.105 2.002-2.469 2.002-1.365 0-2.471-.896-2.471-2.002Z"/></g><mask id="f" width="599" height="687" x="1" y="-4" maskUnits="userSpaceOnUse" style="mask-type:luminance"><path fill="#fff" d="M1.013-4H600v687H1.013V-4Z"/></mask><g mask="url(#f)"><path fill="#D9D9D9" fill-opacity=".4" d="m270.246 222.45 12.965-5.326 6.574 10.504-19.539-5.178Zm27.818-15.013-12.965 5.327-6.574-10.504 19.539 5.177Zm-2.774 23.25c.029-.072.043-.145.059-.217.005-.025.016-.049.02-.075.007-.047.003-.093.005-.139.002-.054.008-.109.003-.163-.003-.027-.012-.051-.016-.077a1.305 1.305 0 0 0-.181-.495l-8.706-13.91 17.1-7.026c.549-.145 1.01-.49 1.204-.969.322-.799-.215-1.658-1.201-1.919l-28.189-7.47c-.985-.261-2.046.175-2.368.974-.029.071-.044.144-.059.217-.005.025-.016.049-.02.075-.007.046-.003.092-.005.139-.002.054-.008.109-.003.163.003.026.012.051.016.077.027.168.081.335.181.495l8.706 13.911-17.099 7.024c-.55.146-1.012.49-1.205.97-.323.798.215 1.657 1.201 1.919l28.189 7.469c.986.261 2.046-.174 2.368-.973ZM220.485 115.78l-31.954-13.233c-.923-.382-1.289-1.299-.817-2.047.472-.748 1.603-1.044 2.527-.662l31.954 13.233c.923.383 1.289 1.299.817 2.047-.472.748-1.603 1.045-2.527.662ZM216.877 121.5l-31.954-13.234c-.924-.382-1.29-1.299-.817-2.047.471-.748 1.603-1.044 2.526-.662l31.954 13.234c.924.382 1.289 1.298.817 2.047-.472.748-1.603 1.044-2.526.662ZM213.268 127.219l-31.954-13.233c-.923-.383-1.289-1.299-.817-2.048.472-.748 1.603-1.044 2.527-.662l31.953 13.234c.924.382 1.29 1.299.818 2.047-.472.748-1.603 1.044-2.527.662ZM209.66 132.938l-31.954-13.233c-.924-.383-1.289-1.299-.817-2.047.472-.748 1.603-1.045 2.526-.662l31.954 13.233c.924.382 1.289 1.299.818 2.047-.472.748-1.604 1.045-2.527.662ZM206.052 138.657l-31.955-13.233c-.923-.382-1.289-1.299-.817-2.047.472-.748 1.604-1.044 2.527-.662l31.954 13.233c.923.383 1.289 1.299.817 2.047-.472.749-1.603 1.045-2.526.662ZM202.443 144.377l-31.954-13.234c-.923-.382-1.289-1.299-.817-2.047.472-.748 1.603-1.044 2.527-.662l31.953 13.234c.924.382 1.29 1.299.818 2.047-.472.748-1.603 1.044-2.527.662ZM198.835 150.096l-31.954-13.234c-.924-.382-1.29-1.298-.818-2.047.472-.748 1.604-1.044 2.527-.662l31.954 13.234c.923.382 1.289 1.299.817 2.047-.472.748-1.603 1.044-2.526.662ZM195.226 155.815l-31.954-13.233c-.923-.382-1.289-1.299-.817-2.047.472-.748 1.603-1.044 2.526-.662l31.955 13.233c.923.383 1.289 1.299.817 2.047-.472.748-1.604 1.045-2.527.662ZM191.618 161.535l-31.954-13.234c-.924-.382-1.29-1.299-.818-2.047.472-.748 1.604-1.044 2.527-.662l31.954 13.234c.923.382 1.289 1.299.817 2.047-.472.748-1.603 1.044-2.526.662ZM188.009 167.254l-31.954-13.234c-.923-.382-1.289-1.298-.817-2.047.472-.748 1.603-1.044 2.526-.662l31.954 13.234c.924.382 1.29 1.299.818 2.047-.472.748-1.604 1.044-2.527.662ZM184.401 172.973l-31.954-13.233c-.924-.383-1.289-1.299-.818-2.047.472-.748 1.604-1.045 2.527-.662l31.954 13.233c.924.382 1.289 1.299.817 2.047-.472.748-1.603 1.044-2.526.662ZM162.373 15.905l13.526 12.91c.671.64.574 1.6-.217 2.144-.79.544-1.975.465-2.646-.175l-13.526-12.91c-.671-.641-.574-1.601.216-2.145.791-.543 1.976-.465 2.647.176ZM147.784 10.86l13.526 12.91c.671.641.574 1.601-.216 2.145-.791.544-1.976.465-2.647-.175l-13.526-12.91c-.671-.64-.574-1.6.217-2.145.79-.543 1.975-.465 2.646.176ZM133.871 6.461l13.525 12.91c.671.64.575 1.6-.216 2.145-.791.543-1.976.465-2.647-.176L131.008 8.43c-.671-.64-.575-1.6.216-2.144.791-.544 1.976-.465 2.647.175ZM164.756 29.41c.79-.543 1.975-.465 2.647.176.67.64.574 1.6-.217 2.144-.791.544-1.975.465-2.647-.175-.671-.64-.574-1.601.217-2.145ZM149.672 23.894c.791-.543 1.975-.465 2.647.176.671.64.574 1.6-.217 2.143-.79.544-1.975.466-2.647-.175-.67-.64-.574-1.6.217-2.144ZM154.101 10.36c.791-.544 1.976-.465 2.647.175.671.64.574 1.6-.217 2.144-.79.544-1.975.466-2.646-.175-.671-.64-.575-1.6.216-2.144ZM139.152 4.972c.791-.544 1.976-.465 2.647.176.671.64.574 1.6-.216 2.144-.791.544-1.976.465-2.647-.175-.671-.641-.574-1.601.216-2.145ZM404.771 80.459l-2.337 23.158c-.085.838-.991 1.461-2.025 1.393l-1.18-.078c-1.034-.069-1.803-.804-1.719-1.641l2.338-23.158c.084-.838.991-1.46 2.024-1.392l1.181.078c1.034.068 1.803.802 1.718 1.64ZM396.992 64.773l-2.337 23.158c-.085.838-.991 1.461-2.025 1.393l-1.181-.078c-1.033-.069-1.803-.803-1.718-1.64l2.337-23.159c.085-.838.991-1.46 2.025-1.392l1.181.078c1.033.068 1.803.803 1.718 1.64ZM389.101 50.195l-2.337 23.159c-.085.837-.991 1.46-2.025 1.392l-1.181-.078c-1.033-.069-1.803-.803-1.718-1.64l2.337-23.159c.085-.837.991-1.46 2.025-1.392l1.181.078c1.033.069 1.803.803 1.718 1.64ZM391.433 95.296c1.36.09 2.372 1.056 2.261 2.157-.111 1.102-1.304 1.922-2.663 1.832-1.36-.09-2.372-1.056-2.261-2.158.111-1.101 1.304-1.921 2.663-1.831ZM383.736 78.797c1.36.09 2.372 1.056 2.261 2.158-.112 1.102-1.304 1.921-2.664 1.832-1.359-.09-2.371-1.057-2.26-2.158.111-1.102 1.303-1.922 2.663-1.832ZM403.395 69.546c1.359.09 2.371 1.056 2.26 2.157-.111 1.102-1.304 1.922-2.663 1.832-1.36-.09-2.372-1.056-2.261-2.158.112-1.101 1.304-1.921 2.664-1.831ZM395.675 53.269c1.36.09 2.372 1.056 2.261 2.157-.112 1.102-1.304 1.922-2.664 1.832-1.359-.09-2.371-1.056-2.26-2.158.111-1.101 1.303-1.921 2.663-1.831ZM366.035 150.169l-10.274 11.258c-1.492 1.636-4.338 1.981-6.356.772l-13.897-8.323c-2.018-1.209-2.444-3.515-.952-5.15l10.273-11.258c1.492-1.636 4.338-1.981 6.356-.772l13.897 8.323c2.018 1.209 2.445 3.515.953 5.15ZM287.976 610.605l12.965-5.326 6.575 10.504-19.54-5.178Zm27.818-15.013-12.964 5.327-6.574-10.504 19.538 5.177Zm-2.773 23.25c.029-.072.043-.145.058-.217.006-.025.017-.05.021-.075.006-.047.003-.093.004-.139.002-.055.009-.109.004-.164-.003-.026-.013-.051-.017-.076a1.286 1.286 0 0 0-.18-.495l-8.707-13.911 17.1-7.025c.55-.146 1.011-.49 1.205-.969.322-.799-.216-1.658-1.201-1.919l-28.189-7.47c-.986-.261-2.046.175-2.368.973-.03.072-.044.145-.059.218-.006.025-.017.049-.021.075-.007.046-.003.092-.005.138-.002.055-.008.109-.002.164.002.026.011.051.015.076.027.169.081.336.181.496l8.706 13.91-17.099 7.025c-.55.146-1.011.49-1.205.97-.322.798.216 1.657 1.201 1.918l28.189 7.47c.986.261 2.046-.174 2.369-.973ZM238.216 503.935l-31.954-13.233c-.924-.383-1.289-1.299-.818-2.047.472-.749 1.604-1.045 2.527-.662l31.954 13.233c.924.382 1.289 1.299.817 2.047-.472.748-1.603 1.044-2.526.662ZM234.607 509.654l-31.954-13.233c-.923-.383-1.289-1.299-.817-2.047.472-.748 1.603-1.045 2.527-.662l31.954 13.233c.923.383 1.289 1.299.817 2.047-.472.748-1.603 1.045-2.527.662ZM230.999 515.374l-31.954-13.234c-.924-.382-1.29-1.299-.817-2.047.471-.748 1.603-1.044 2.526-.662l31.954 13.233c.923.383 1.289 1.299.817 2.047-.472.749-1.603 1.045-2.526.663ZM227.39 521.093l-31.954-13.233c-.923-.383-1.289-1.299-.817-2.047.472-.749 1.603-1.045 2.527-.663l31.954 13.234c.923.382 1.289 1.299.817 2.047-.472.748-1.603 1.044-2.527.662ZM223.782 526.812l-31.954-13.233c-.924-.383-1.289-1.299-.817-2.047.472-.748 1.603-1.045 2.526-.662l31.954 13.233c.924.382 1.289 1.299.817 2.047-.471.748-1.603 1.045-2.526.662ZM220.174 532.531l-31.955-13.233c-.923-.382-1.289-1.299-.817-2.047.472-.748 1.604-1.044 2.527-.662l31.954 13.233c.923.383 1.289 1.299.817 2.047-.472.749-1.603 1.045-2.526.662ZM216.565 538.251l-31.954-13.234c-.923-.382-1.29-1.299-.817-2.047.472-.748 1.603-1.044 2.526-.662l31.954 13.234c.923.382 1.29 1.299.818 2.047-.472.748-1.604 1.044-2.527.662ZM212.957 543.97l-31.955-13.234c-.923-.382-1.289-1.298-.817-2.047.472-.748 1.604-1.044 2.527-.662l31.954 13.234c.923.382 1.289 1.299.817 2.047-.472.748-1.603 1.044-2.526.662ZM209.348 549.689l-31.954-13.233c-.923-.383-1.289-1.299-.817-2.047.472-.748 1.603-1.045 2.526-.662l31.955 13.233c.923.382 1.289 1.299.817 2.047-.472.748-1.604 1.045-2.527.662ZM205.74 555.409l-31.954-13.234c-.924-.382-1.29-1.299-.818-2.047.472-.748 1.604-1.044 2.527-.662l31.954 13.234c.923.382 1.289 1.299.817 2.047-.472.748-1.603 1.044-2.526.662ZM202.131 561.128l-31.954-13.234c-.923-.382-1.289-1.298-.817-2.047.472-.748 1.603-1.044 2.527-.662l31.954 13.234c.923.382 1.289 1.299.817 2.047-.472.748-1.604 1.044-2.527.662ZM180.104 404.059l13.525 12.91c.671.641.574 1.601-.216 2.144-.791.544-1.976.466-2.647-.175l-13.526-12.91c-.671-.641-.574-1.601.217-2.144.79-.544 1.975-.465 2.647.175ZM165.515 399.015l13.526 12.91c.67.641.574 1.601-.217 2.145-.791.543-1.975.465-2.647-.176l-13.525-12.91c-.671-.64-.575-1.6.216-2.144.791-.544 1.976-.465 2.647.175ZM151.601 394.616l13.526 12.91c.671.64.574 1.6-.217 2.144-.79.544-1.975.465-2.646-.175l-13.526-12.91c-.671-.641-.574-1.601.216-2.145.791-.543 1.976-.465 2.647.176ZM182.486 417.565c.791-.544 1.976-.465 2.647.175.671.641.574 1.601-.217 2.144-.79.544-1.975.466-2.646-.175-.671-.64-.574-1.6.216-2.144ZM167.402 412.049c.791-.544 1.976-.465 2.647.175.671.641.574 1.601-.216 2.144-.791.544-1.976.465-2.647-.175-.671-.641-.574-1.601.216-2.144ZM171.831 398.514c.791-.543 1.976-.465 2.647.176.671.64.574 1.6-.216 2.144-.791.544-1.976.465-2.647-.175-.671-.641-.574-1.601.216-2.145ZM156.883 393.127c.79-.544 1.975-.465 2.646.175.671.641.574 1.601-.216 2.144-.791.544-1.976.466-2.647-.175-.671-.64-.574-1.6.217-2.144Z"/><path fill="#D9D9D9" fill-opacity=".5" d="m422.502 468.614-2.338 23.158c-.084.837-.99 1.461-2.024 1.392l-1.181-.078c-1.033-.068-1.803-.803-1.718-1.64l2.337-23.158c.085-.838.991-1.461 2.025-1.393l1.18.078c1.034.069 1.803.803 1.719 1.641ZM414.722 452.928l-2.337 23.158c-.085.837-.991 1.461-2.025 1.392l-1.18-.078c-1.034-.068-1.803-.803-1.719-1.64l2.338-23.158c.084-.838.991-1.461 2.024-1.393l1.181.078c1.034.069 1.803.803 1.718 1.641ZM406.832 438.35l-2.338 23.158c-.084.838-.991 1.461-2.024 1.392l-1.181-.078c-1.034-.068-1.803-.803-1.718-1.64l2.337-23.158c.085-.838.991-1.461 2.024-1.393l1.181.079c1.034.068 1.803.802 1.719 1.64ZM409.164 483.451c1.359.09 2.371 1.056 2.26 2.157-.111 1.102-1.303 1.922-2.663 1.832-1.36-.09-2.372-1.057-2.261-2.158.112-1.101 1.304-1.921 2.664-1.831ZM401.466 466.952c1.36.09 2.372 1.056 2.261 2.157-.111 1.102-1.303 1.922-2.663 1.832-1.36-.09-2.372-1.056-2.261-2.158.111-1.101 1.304-1.921 2.663-1.831ZM421.125 457.7c1.36.09 2.372 1.056 2.261 2.158-.112 1.102-1.304 1.922-2.663 1.832-1.36-.091-2.372-1.056-2.261-2.158.111-1.102 1.303-1.922 2.663-1.832ZM413.405 441.424c1.36.09 2.372 1.056 2.261 2.157-.111 1.102-1.304 1.922-2.663 1.832-1.36-.09-2.372-1.056-2.261-2.158.112-1.102 1.304-1.921 2.663-1.831Z"/><path fill="#0F1B1B" fill-opacity=".1" d="M305.434 443.896c.479-4.534-1.119-9.22-4.944-13.045-1.967-1.968-4.352-3.518-6.974-4.632-7.417-3.153-12.965-8.604-14.972-15.193-.749-2.458-2.145-4.83-4.212-6.946-3.703-3.789-8.886-6.067-14.355-6.724-3.94-.474-6.738-3.391-6.412-6.607.458-4.514-1.143-9.176-4.95-12.984-7.598-7.599-21.438-8.978-31.077-3.091-10.144 6.196-11.954 17.904-4.113 25.928 3.703 3.79 8.886 6.068 14.355 6.725 3.955.475 6.759 3.318 6.418 6.546-.478 4.533 1.12 9.219 4.944 13.044 1.967 1.968 4.352 3.518 6.974 4.633 7.417 3.153 12.966 8.603 14.972 15.191.749 2.46 2.145 4.831 4.213 6.947 3.703 3.789 8.886 6.067 14.354 6.724 3.941.474 6.739 3.391 6.413 6.607-.458 4.515 1.143 9.176 4.95 12.984 7.598 7.6 21.437 8.978 31.076 3.091 10.144-6.196 11.955-17.904 4.114-25.928-3.703-3.79-8.887-6.068-14.355-6.725-3.955-.475-6.759-3.318-6.419-6.545Z"/><path fill="#D9D9D9" fill-opacity=".4" d="M294.957 371.862c3.532 3.614 2.779 8.864-1.683 11.726-4.461 2.862-10.941 2.252-14.473-1.363-3.533-3.615-2.78-8.865 1.682-11.726 4.461-2.862 10.942-2.252 14.474 1.363Z"/><path stroke="#0F1B1B" stroke-miterlimit="10" stroke-opacity=".1" stroke-width="2" d="m394.709 522.28-1.882-1.128c-4.069-2.437-9.806-1.74-12.814 1.556l-19.028 20.852c-3.009 3.297-2.149 7.945 1.92 10.382l25.738 15.416c4.069 2.438 9.806 1.741 12.814-1.556l1.392-1.525c2.018-2.212 5.868-2.679 8.598-1.044l1.882 1.128c4.069 2.437 9.806 1.74 12.814-1.556l19.028-20.853c3.008-3.296 2.148-7.944-1.921-10.382l-25.737-15.416c-4.069-2.437-9.806-1.74-12.814 1.557l-1.392 1.525c-2.018 2.211-5.868 2.679-8.598 1.044Z"/><path fill="#D9D9D9" fill-opacity=".4" d="m383.765 538.324-10.274 11.258c-1.492 1.635-4.338 1.981-6.356.772l-13.896-8.323c-2.019-1.209-2.445-3.515-.953-5.15l10.273-11.259c1.493-1.635 4.339-1.98 6.357-.771l13.896 8.323c2.018 1.209 2.445 3.514.953 5.15Z"/></g></g><defs><clipPath id="a"><path fill="#fff" d="M0 0h600v683H0z"/></clipPath></defs></svg>