<svg width="375" height="1061" viewBox="0 0 375 1061" fill="none" xmlns="http://www.w3.org/2000/svg">
<g clip-path="url(#clip0_990_6407)">
<rect width="375" height="1061" fill="#F0F2F7"/>
<rect y="478" width="375" height="368" fill="white"/>
<circle cx="375.336" cy="134.268" r="32.143" fill="url(#paint0_radial_990_6407)"/>
<path d="M415.939 135.932L416.761 135.999L416.603 137.955C416.568 138.378 416.649 138.713 416.846 138.959C417.042 139.206 417.324 139.344 417.692 139.374C418.039 139.402 418.336 139.311 418.584 139.1C418.831 138.897 418.971 138.584 419.006 138.161L419.165 136.194L420.018 136.263L419.856 138.261C419.819 138.719 419.697 139.111 419.489 139.436C419.288 139.762 419.027 140.002 418.707 140.158C418.387 140.321 418.029 140.386 417.633 140.354C417.224 140.32 416.874 140.198 416.584 139.986C416.294 139.781 416.075 139.501 415.93 139.147C415.791 138.793 415.74 138.388 415.777 137.93L415.939 135.932ZM412.85 135.021L420.072 135.607L419.992 136.586L412.77 135.999L412.85 135.021ZM412.512 139.184L415.961 136.824L416.208 137.776L412.411 140.422L412.512 139.184Z" fill="#212121"/>
<path d="M411.695 143.066C411.787 142.673 411.958 142.338 412.209 142.061C412.465 141.792 412.773 141.607 413.133 141.505C413.493 141.404 413.883 141.403 414.303 141.501L417.108 142.159L416.894 143.074L414.129 142.425C413.865 142.363 413.624 142.353 413.407 142.395C413.195 142.446 413.017 142.547 412.874 142.699C412.731 142.852 412.632 143.047 412.577 143.284C412.492 143.643 412.538 143.95 412.714 144.206C412.897 144.463 413.188 144.639 413.588 144.733L416.353 145.381L416.138 146.296L413.333 145.638C412.912 145.54 412.564 145.365 412.287 145.114C412.009 144.863 411.816 144.56 411.706 144.206C411.601 143.859 411.598 143.479 411.695 143.066Z" fill="#212121"/>
<path d="M409.939 148.677C410.08 148.329 410.279 148.042 410.536 147.815C410.797 147.598 411.09 147.458 411.416 147.395C411.742 147.332 412.074 147.357 412.411 147.471L413.794 148.032C414.122 148.188 414.377 148.4 414.561 148.67C414.748 148.949 414.857 149.256 414.886 149.59C414.919 149.934 414.867 150.277 414.728 150.619C414.558 151.038 414.299 151.373 413.95 151.622C413.598 151.877 413.203 152.029 412.763 152.076C412.324 152.123 411.878 152.055 411.426 151.872C410.975 151.689 410.608 151.427 410.325 151.087C410.042 150.747 409.864 150.363 409.789 149.935C409.719 149.516 409.769 149.097 409.939 148.677ZM410.82 148.866C410.702 149.156 410.667 149.438 410.713 149.712C410.76 149.987 410.873 150.235 411.053 150.459C411.239 150.684 411.487 150.86 411.797 150.985C412.1 151.108 412.397 151.154 412.688 151.121C412.979 151.089 413.234 150.99 413.452 150.823C413.676 150.658 413.846 150.434 413.961 150.15C414.078 149.86 414.114 149.578 414.067 149.304C414.027 149.032 413.913 148.786 413.724 148.567C413.535 148.348 413.286 148.175 412.976 148.05C412.673 147.927 412.378 147.875 412.093 147.895C411.811 147.923 411.558 148.019 411.333 148.184C411.106 148.355 410.935 148.582 410.82 148.866ZM411.016 146.298L417.925 149.099L417.572 149.969L414.137 148.577L413.091 147.961L411.902 147.671L410.663 147.169L411.016 146.298Z" fill="#212121"/>
<path d="M407.643 153.558L413.04 154.27L412.505 155.167L408.324 154.536L408.495 154.248L410.999 157.696L410.464 158.593L407.354 154.043L407.643 153.558ZM406.62 151.296L408.446 154.086L407.354 154.043L406.086 152.193L406.62 151.296Z" fill="#212121"/>
<path d="M402.188 160.758C402.525 160.406 402.911 160.169 403.347 160.046C403.782 159.923 404.22 159.914 404.66 160.017C405.106 160.126 405.505 160.348 405.856 160.685C406.203 161.017 406.436 161.399 406.553 161.829C406.676 162.265 406.686 162.703 406.582 163.143C406.478 163.584 406.258 163.98 405.921 164.332C405.589 164.679 405.205 164.913 404.77 165.036C404.335 165.169 403.897 165.183 403.456 165.08C403.016 164.976 402.622 164.758 402.275 164.426C401.923 164.089 401.684 163.7 401.556 163.26C401.433 162.825 401.426 162.384 401.534 161.939C401.638 161.498 401.856 161.105 402.188 160.758ZM402.844 161.386C402.628 161.612 402.488 161.864 402.425 162.141C402.362 162.418 402.373 162.693 402.458 162.967C402.547 163.246 402.711 163.498 402.947 163.725C403.178 163.946 403.435 164.091 403.717 164.158C403.994 164.231 404.267 164.227 404.536 164.148C404.806 164.078 405.048 163.93 405.265 163.704C405.482 163.477 405.621 163.226 405.684 162.949C405.752 162.676 405.744 162.403 405.659 162.129C405.574 161.856 405.416 161.608 405.185 161.387C404.949 161.16 404.689 161.009 404.407 160.931C404.13 160.858 403.854 160.859 403.58 160.934C403.306 161.009 403.061 161.16 402.844 161.386Z" fill="#212121"/>
<path d="M396.962 165.497L398.723 167.792C398.952 168.09 399.234 168.264 399.57 168.313C399.906 168.362 400.223 168.272 400.521 168.043C400.72 167.891 400.863 167.711 400.95 167.504C401.037 167.297 401.065 167.083 401.035 166.86C401.005 166.638 400.913 166.427 400.761 166.228L401.201 166.167C401.429 166.465 401.566 166.781 401.612 167.115C401.657 167.448 401.612 167.773 401.476 168.087C401.345 168.408 401.13 168.682 400.832 168.911C400.533 169.14 400.214 169.266 399.873 169.291C399.527 169.32 399.194 169.264 398.875 169.122C398.561 168.987 398.299 168.783 398.092 168.513L396.217 166.069L396.962 165.497ZM399.746 163.362L402.764 167.296L402.019 167.868L399 163.934L399.746 163.362Z" fill="#212121"/>
<path d="M392.897 171.667L393.229 172.422L391.433 173.213C391.045 173.385 390.789 173.615 390.666 173.905C390.542 174.195 390.555 174.509 390.704 174.847C390.844 175.165 391.066 175.383 391.369 175.501C391.665 175.621 392.008 175.596 392.396 175.425L394.202 174.629L394.547 175.412L392.713 176.221C392.292 176.406 391.89 176.485 391.505 176.456C391.122 176.435 390.787 176.32 390.497 176.113C390.202 175.909 389.974 175.625 389.814 175.262C389.649 174.886 389.59 174.52 389.639 174.164C389.681 173.811 389.823 173.486 390.065 173.189C390.309 172.899 390.642 172.661 391.062 172.476L392.897 171.667ZM392.227 168.517L395.149 175.147L394.251 175.543L391.329 168.912L392.227 168.517ZM388.405 170.201L392.122 172.111L391.403 172.782L387.269 170.702L388.405 170.201Z" fill="#212121"/>
<path d="M384.469 171.353C384.908 171.242 385.333 171.248 385.746 171.373C386.16 171.505 386.52 171.733 386.825 172.057C387.124 172.383 387.333 172.782 387.453 173.254C387.574 173.727 387.581 174.177 387.474 174.607C387.362 175.038 387.158 175.409 386.864 175.721C386.563 176.035 386.19 176.248 385.745 176.362C385.381 176.454 385.037 176.459 384.715 176.376C384.387 176.302 384.101 176.152 383.857 175.927C383.614 175.708 383.438 175.427 383.329 175.081L382.96 173.634C382.893 173.285 382.912 172.953 383.019 172.639C383.119 172.326 383.294 172.055 383.545 171.826C383.79 171.605 384.098 171.448 384.469 171.353ZM384.537 172.252C384.085 172.367 383.759 172.612 383.56 172.986C383.362 173.366 383.325 173.796 383.447 174.275C383.531 174.606 383.668 174.876 383.858 175.086C384.043 175.305 384.267 175.452 384.531 175.529C384.796 175.612 385.081 175.615 385.384 175.538C385.688 175.46 385.94 175.321 386.14 175.119C386.333 174.919 386.465 174.677 386.537 174.393C386.603 174.118 386.596 173.821 386.515 173.504C386.432 173.181 386.295 172.91 386.104 172.693C385.907 172.485 385.672 172.34 385.4 172.258C385.128 172.177 384.84 172.175 384.537 172.252ZM382.897 171.862L383.227 173.157L383.354 174.374L383.822 175.494L384.121 176.668L383.2 176.902L381.976 172.096L382.897 171.862Z" fill="#212121"/>
<path d="M380.172 172.358L380.82 177.275L379.888 177.398L379.24 172.481L380.172 172.358ZM380.483 178.32C380.656 178.297 380.805 178.334 380.93 178.43C381.056 178.532 381.13 178.67 381.153 178.842C381.174 179.008 381.137 179.153 381.042 179.278C380.947 179.41 380.813 179.487 380.64 179.51C380.468 179.533 380.319 179.493 380.193 179.39C380.068 179.294 379.994 179.164 379.973 178.998C379.95 178.825 379.986 178.673 380.081 178.541C380.177 178.416 380.311 178.343 380.483 178.32Z" fill="#212121"/>
<path d="M377.56 172.657L378.02 180.097L377.082 180.155L376.622 172.715L377.56 172.657Z" fill="#212121"/>
<path d="M373.302 172.651C373.58 172.662 373.843 172.707 374.091 172.786C374.332 172.872 374.554 172.985 374.757 173.126C374.96 173.273 375.135 173.443 375.281 173.637L374.652 174.219C374.48 173.989 374.278 173.814 374.046 173.694C373.813 173.58 373.551 173.518 373.259 173.507C372.967 173.495 372.739 173.535 372.575 173.626C372.411 173.725 372.326 173.864 372.319 174.045C372.312 174.226 372.372 174.367 372.501 174.47C372.622 174.579 372.782 174.669 372.981 174.739C373.18 174.817 373.393 174.891 373.621 174.962C373.84 175.041 374.049 175.136 374.247 175.248C374.445 175.36 374.606 175.509 374.731 175.695C374.849 175.881 374.903 176.123 374.891 176.422C374.88 176.721 374.797 176.976 374.642 177.186C374.488 177.402 374.279 177.565 374.017 177.673C373.749 177.781 373.43 177.828 373.061 177.814C372.672 177.799 372.33 177.716 372.036 177.566C371.735 177.422 371.493 177.21 371.309 176.931L371.937 176.35C372.069 176.536 372.238 176.682 372.443 176.787C372.641 176.892 372.868 176.95 373.125 176.96C373.397 176.97 373.607 176.93 373.757 176.838C373.9 176.753 373.974 176.627 373.981 176.46C373.987 176.293 373.929 176.162 373.808 176.067C373.686 175.971 373.526 175.889 373.326 175.818C373.12 175.748 372.907 175.673 372.687 175.595C372.467 175.524 372.258 175.429 372.061 175.31C371.863 175.191 371.706 175.035 371.588 174.842C371.463 174.649 371.406 174.4 371.418 174.094C371.436 173.628 371.617 173.266 371.962 173.007C372.299 172.749 372.746 172.63 373.302 172.651Z" fill="#212121"/>
<path d="M365.432 174.978L365.216 175.774L363.322 175.261C362.912 175.15 362.568 175.168 362.29 175.316C362.012 175.465 361.824 175.717 361.728 176.073C361.637 176.409 361.672 176.717 361.834 176.999C361.989 177.279 362.271 177.475 362.681 177.586L364.585 178.102L364.361 178.928L362.427 178.404C361.983 178.284 361.621 178.092 361.339 177.828C361.055 177.571 360.866 177.271 360.771 176.928C360.67 176.583 360.671 176.219 360.775 175.836C360.883 175.44 361.067 175.118 361.329 174.872C361.583 174.624 361.898 174.46 362.273 174.382C362.646 174.309 363.054 174.334 363.497 174.454L365.432 174.978ZM366.891 172.107L364.996 179.1L364.049 178.844L365.944 171.85L366.891 172.107ZM362.861 171.014L364.551 174.837L363.569 174.906L361.661 170.689L362.861 171.014Z" fill="#212121"/>
<path d="M359.144 169.463C359.513 169.627 359.81 169.859 360.035 170.157C360.251 170.459 360.375 170.796 360.408 171.168C360.44 171.541 360.368 171.924 360.193 172.319L359.021 174.951L358.163 174.569L359.317 171.975C359.428 171.727 359.483 171.492 359.482 171.271C359.472 171.053 359.406 170.86 359.283 170.691C359.16 170.522 358.988 170.388 358.765 170.289C358.428 170.139 358.117 170.126 357.833 170.251C357.546 170.382 357.319 170.636 357.152 171.011L355.997 173.605L355.139 173.223L356.311 170.59C356.486 170.196 356.723 169.886 357.021 169.661C357.32 169.436 357.654 169.303 358.022 169.261C358.382 169.223 358.756 169.29 359.144 169.463Z" fill="#212121"/>
<path d="M354.012 166.723C354.329 166.926 354.575 167.174 354.75 167.468C354.915 167.765 354.999 168.079 355.001 168.411C355.003 168.743 354.917 169.064 354.743 169.374L353.937 170.631C353.724 170.924 353.468 171.136 353.169 171.267C352.86 171.4 352.539 171.45 352.204 171.417C351.86 171.387 351.533 171.272 351.222 171.073C350.841 170.828 350.561 170.512 350.38 170.123C350.193 169.731 350.118 169.314 350.152 168.873C350.187 168.432 350.336 168.007 350.599 167.597C350.862 167.187 351.187 166.874 351.573 166.659C351.959 166.443 352.369 166.338 352.804 166.344C353.229 166.352 353.632 166.478 354.012 166.723ZM353.665 167.554C353.401 167.385 353.131 167.298 352.852 167.293C352.574 167.289 352.309 167.354 352.057 167.49C351.8 167.632 351.582 167.843 351.402 168.124C351.225 168.4 351.126 168.683 351.104 168.975C351.082 169.267 351.133 169.535 351.257 169.78C351.378 170.031 351.567 170.239 351.824 170.405C352.088 170.574 352.359 170.661 352.637 170.665C352.911 170.676 353.174 170.609 353.424 170.463C353.674 170.318 353.89 170.105 354.07 169.823C354.247 169.548 354.352 169.268 354.385 168.984C354.409 168.701 354.361 168.435 354.241 168.184C354.115 167.929 353.923 167.72 353.665 167.554ZM356.153 168.22L352.128 174.494L351.337 173.987L353.338 170.867L354.136 169.953L354.641 168.837L355.362 167.712L356.153 168.22Z" fill="#212121"/>
<path d="M349.65 163.575L347.969 168.753L347.184 168.065L348.565 164.068L348.816 164.288L344.971 166.124L344.186 165.435L349.226 163.204L349.65 163.575ZM352.06 162.981L348.985 164.27L349.226 163.204L351.275 162.292L352.06 162.981Z" fill="#212121"/>
<path d="M343.56 156.887C343.844 157.283 344.006 157.706 344.046 158.157C344.086 158.607 344.015 159.04 343.832 159.453C343.643 159.871 343.35 160.222 342.954 160.506C342.564 160.785 342.146 160.943 341.701 160.979C341.251 161.02 340.818 160.948 340.405 160.765C339.991 160.582 339.642 160.292 339.359 159.896C339.079 159.506 338.919 159.085 338.879 158.635C338.829 158.182 338.895 157.749 339.078 157.336C339.262 156.922 339.548 156.575 339.939 156.296C340.335 156.012 340.761 155.848 341.217 155.804C341.668 155.763 342.102 155.838 342.52 156.026C342.934 156.21 343.28 156.496 343.56 156.887ZM342.822 157.416C342.639 157.161 342.418 156.977 342.157 156.864C341.896 156.751 341.623 156.711 341.339 156.744C341.048 156.781 340.77 156.895 340.504 157.085C340.244 157.271 340.054 157.497 339.936 157.762C339.813 158.021 339.766 158.29 339.795 158.569C339.814 158.847 339.915 159.113 340.097 159.367C340.279 159.622 340.501 159.806 340.762 159.919C341.017 160.036 341.287 160.078 341.571 160.045C341.856 160.012 342.129 159.903 342.389 159.716C342.655 159.526 342.852 159.299 342.98 159.036C343.103 158.777 343.153 158.506 343.13 158.222C343.107 157.939 343.004 157.67 342.822 157.416Z" fill="#212121"/>
<path d="M339.877 150.916L337.3 152.228C336.965 152.398 336.743 152.644 336.633 152.965C336.523 153.287 336.554 153.615 336.724 153.95C336.838 154.173 336.988 154.347 337.176 154.47C337.364 154.593 337.57 154.66 337.794 154.671C338.018 154.682 338.242 154.63 338.465 154.517L338.445 154.96C338.11 155.131 337.774 155.208 337.438 155.192C337.102 155.175 336.791 155.072 336.507 154.881C336.216 154.693 335.985 154.432 335.815 154.097C335.644 153.762 335.578 153.424 335.616 153.085C335.651 152.739 335.767 152.422 335.964 152.134C336.155 151.85 336.402 151.63 336.706 151.475L339.451 150.078L339.877 150.916ZM341.469 154.042L337.049 156.292L336.623 155.454L341.043 153.205L341.469 154.042Z" fill="#212121"/>
<path d="M334.583 145.873L333.78 146.061L333.332 144.15C333.235 143.737 333.055 143.443 332.793 143.269C332.53 143.094 332.219 143.049 331.86 143.133C331.522 143.213 331.267 143.391 331.095 143.667C330.923 143.936 330.885 144.277 330.982 144.691L331.432 146.612L330.599 146.807L330.141 144.856C330.036 144.409 330.033 143.998 330.131 143.625C330.223 143.253 330.397 142.944 330.654 142.698C330.909 142.445 331.23 142.273 331.616 142.183C332.016 142.089 332.386 142.099 332.727 142.212C333.067 142.318 333.36 142.517 333.607 142.809C333.848 143.103 334.021 143.474 334.126 143.921L334.583 145.873ZM337.803 145.793L330.749 147.448L330.525 146.492L337.579 144.837L337.803 145.793ZM336.85 141.727L334.289 145.03L333.762 144.199L336.566 140.517L336.85 141.727Z" fill="#212121"/>
<path d="M336.421 137.565C336.449 138.017 336.363 138.434 336.164 138.816C335.957 139.198 335.666 139.509 335.29 139.748C334.914 139.981 334.483 140.112 333.997 140.142C333.51 140.172 333.066 140.095 332.664 139.911C332.262 139.719 331.935 139.45 331.683 139.103C331.431 138.749 331.291 138.343 331.263 137.884C331.24 137.509 331.299 137.171 331.441 136.869C331.575 136.561 331.776 136.308 332.042 136.11C332.302 135.913 332.612 135.793 332.972 135.749L334.462 135.657C334.818 135.656 335.14 135.737 335.429 135.901C335.718 136.057 335.951 136.28 336.129 136.569C336.3 136.851 336.397 137.183 336.421 137.565ZM335.526 137.464C335.497 136.998 335.317 136.633 334.987 136.367C334.65 136.102 334.235 135.985 333.742 136.016C333.401 136.037 333.11 136.121 332.868 136.268C332.619 136.409 332.432 136.602 332.308 136.847C332.176 137.092 332.12 137.371 332.14 137.684C332.159 137.996 332.249 138.27 332.41 138.504C332.57 138.731 332.783 138.906 333.049 139.029C333.307 139.146 333.6 139.194 333.926 139.174C334.26 139.153 334.551 139.069 334.8 138.921C335.041 138.767 335.227 138.563 335.358 138.311C335.489 138.059 335.545 137.777 335.526 137.464ZM336.215 135.925L334.881 136.008L333.661 135.905L332.474 136.157L331.265 136.231L331.207 135.283L336.156 134.977L336.215 135.925Z" fill="#212121"/>
<path d="M336.222 132.987L331.272 132.701L331.326 131.763L336.277 132.049L336.222 132.987ZM330.309 132.174C330.298 132.348 330.235 132.487 330.117 132.592C329.992 132.696 329.843 132.743 329.67 132.733C329.503 132.724 329.367 132.66 329.262 132.542C329.151 132.424 329.1 132.278 329.11 132.105C329.12 131.931 329.187 131.792 329.312 131.688C329.429 131.583 329.572 131.535 329.738 131.545C329.912 131.555 330.055 131.619 330.166 131.737C330.271 131.855 330.319 132 330.309 132.174Z" fill="#212121"/>
<path d="M336.398 130.501L329 129.584L329.116 128.652L336.514 129.569L336.398 130.501Z" fill="#212121"/>
<path d="M337.171 126.357C337.109 126.629 337.017 126.879 336.894 127.108C336.765 127.329 336.613 127.526 336.438 127.701C336.256 127.874 336.057 128.014 335.84 128.122L335.383 127.397C335.64 127.27 335.849 127.103 336.01 126.897C336.164 126.689 336.274 126.443 336.338 126.158C336.403 125.873 336.405 125.641 336.346 125.464C336.279 125.285 336.158 125.175 335.981 125.135C335.805 125.095 335.654 125.129 335.53 125.236C335.401 125.335 335.283 125.476 335.177 125.659C335.065 125.841 334.953 126.037 334.841 126.247C334.724 126.449 334.592 126.636 334.446 126.81C334.299 126.984 334.123 127.115 333.917 127.204C333.713 127.287 333.465 127.295 333.173 127.228C332.881 127.162 332.646 127.034 332.468 126.844C332.283 126.652 332.162 126.418 332.103 126.14C332.046 125.856 332.058 125.534 332.14 125.174C332.226 124.794 332.37 124.474 332.572 124.213C332.769 123.943 333.021 123.743 333.329 123.613L333.785 124.338C333.578 124.433 333.404 124.572 333.263 124.754C333.123 124.93 333.025 125.143 332.968 125.394C332.908 125.659 332.909 125.873 332.972 126.037C333.03 126.193 333.14 126.29 333.303 126.326C333.466 126.363 333.605 126.331 333.721 126.229C333.837 126.126 333.948 125.984 334.053 125.801C334.161 125.611 334.273 125.415 334.39 125.213C334.5 125.01 334.632 124.822 334.785 124.65C334.938 124.478 335.12 124.351 335.331 124.27C335.544 124.183 335.8 124.173 336.098 124.241C336.553 124.344 336.876 124.588 337.067 124.974C337.259 125.353 337.294 125.814 337.171 126.357Z" fill="#212121"/>
<path d="M336.329 118.182L335.587 117.822L336.445 116.056C336.63 115.675 336.676 115.333 336.583 115.032C336.489 114.731 336.276 114.5 335.944 114.339C335.631 114.187 335.321 114.164 335.014 114.27C334.71 114.37 334.466 114.611 334.28 114.993L333.418 116.768L332.648 116.394L333.524 114.591C333.725 114.178 333.981 113.857 334.293 113.629C334.598 113.399 334.928 113.269 335.283 113.24C335.64 113.205 335.998 113.274 336.354 113.447C336.724 113.627 337.005 113.868 337.199 114.171C337.395 114.467 337.497 114.807 337.504 115.19C337.505 115.57 337.406 115.966 337.205 116.379L336.329 118.182ZM338.878 120.152L332.36 116.985L332.789 116.103L339.306 119.269L338.878 120.152ZM340.703 116.396L336.632 117.343L336.747 116.366L341.246 115.278L340.703 116.396Z" fill="#212121"/>
<path d="M342.88 113.062C342.651 113.395 342.369 113.644 342.035 113.811C341.698 113.968 341.344 114.028 340.972 113.992C340.6 113.955 340.236 113.814 339.881 113.569L337.508 111.934L338.041 111.161L340.379 112.772C340.603 112.926 340.824 113.023 341.041 113.063C341.257 113.093 341.459 113.064 341.648 112.974C341.836 112.884 342 112.739 342.138 112.538C342.347 112.234 342.417 111.931 342.346 111.629C342.27 111.323 342.062 111.053 341.724 110.82L339.386 109.209L339.919 108.435L342.292 110.07C342.647 110.315 342.908 110.605 343.075 110.939C343.241 111.274 343.311 111.627 343.284 111.997C343.256 112.357 343.121 112.712 342.88 113.062Z" fill="#212121"/>
<path d="M346.432 108.591C346.175 108.866 345.886 109.062 345.565 109.181C345.244 109.29 344.919 109.315 344.592 109.257C344.266 109.199 343.965 109.056 343.692 108.829L342.602 107.808C342.352 107.545 342.19 107.255 342.116 106.937C342.041 106.61 342.05 106.285 342.143 105.962C342.236 105.629 342.408 105.327 342.66 105.058C342.969 104.728 343.332 104.509 343.747 104.402C344.166 104.29 344.59 104.291 345.017 104.405C345.444 104.519 345.836 104.743 346.191 105.076C346.547 105.409 346.796 105.785 346.937 106.204C347.079 106.622 347.108 107.045 347.023 107.471C346.938 107.888 346.741 108.261 346.432 108.591ZM345.677 108.099C345.891 107.87 346.026 107.62 346.081 107.347C346.136 107.074 346.12 106.802 346.032 106.529C345.939 106.251 345.771 105.998 345.527 105.77C345.288 105.546 345.028 105.397 344.744 105.322C344.461 105.248 344.188 105.25 343.925 105.327C343.656 105.4 343.417 105.548 343.208 105.772C342.994 106 342.859 106.251 342.804 106.523C342.744 106.791 342.763 107.062 342.86 107.334C342.958 107.607 343.128 107.857 343.372 108.086C343.611 108.309 343.867 108.463 344.141 108.548C344.414 108.623 344.685 108.624 344.953 108.551C345.227 108.473 345.468 108.322 345.677 108.099ZM344.572 110.425L339.131 105.329L339.773 104.643L342.478 107.177L343.233 108.127L344.239 108.825L345.214 109.739L344.572 110.425Z" fill="#212121"/>
<path d="M350.412 104.769L345.632 102.162L346.454 101.518L350.127 103.612L349.864 103.818L348.77 99.7003L349.591 99.0557L350.855 104.421L350.412 104.769ZM350.551 107.247L349.851 103.988L350.855 104.421L351.373 106.603L350.551 107.247Z" fill="#212121"/>
<path d="M358.097 99.9965C357.655 100.203 357.209 100.285 356.759 100.242C356.309 100.199 355.897 100.049 355.524 99.7935C355.148 99.5314 354.856 99.1797 354.65 98.7384C354.447 98.3033 354.368 97.8638 354.414 97.4197C354.457 96.9693 354.606 96.5575 354.862 96.1844C355.118 95.8112 355.466 95.5214 355.907 95.315C356.343 95.1116 356.785 95.0313 357.236 95.0743C357.689 95.108 358.103 95.2527 358.476 95.5085C358.849 95.7643 359.137 96.1097 359.341 96.5448C359.547 96.9861 359.63 97.4352 359.59 97.8918C359.548 98.3422 359.395 98.7555 359.133 99.1316C358.877 99.5048 358.532 99.7931 358.097 99.9965ZM357.712 99.1737C357.996 99.041 358.217 98.8569 358.376 98.6213C358.534 98.3857 358.624 98.1249 358.644 97.839C358.661 97.5467 358.6 97.2524 358.461 96.9561C358.326 96.6661 358.139 96.4385 357.9 96.2734C357.668 96.1054 357.412 96.01 357.132 95.9871C356.856 95.9549 356.576 96.0051 356.292 96.1378C356.009 96.2705 355.787 96.4546 355.629 96.6902C355.467 96.9195 355.376 97.1772 355.356 97.4631C355.336 97.749 355.394 98.037 355.53 98.3271C355.668 98.6234 355.855 98.8587 356.09 99.0331C356.322 99.2011 356.58 99.2997 356.862 99.3289C357.145 99.3581 357.428 99.3064 357.712 99.1737Z" fill="#212121"/>
<path d="M364.448 97.5257L363.628 94.7523C363.522 94.3918 363.321 94.1283 363.025 93.9618C362.729 93.7952 362.4 93.7652 362.04 93.8717C361.8 93.9428 361.602 94.0593 361.447 94.2213C361.291 94.3834 361.188 94.5736 361.136 94.7921C361.085 95.0105 361.094 95.2399 361.165 95.4802L360.733 95.3794C360.626 95.019 360.612 94.6749 360.689 94.3472C360.766 94.0195 360.925 93.7332 361.165 93.4881C361.402 93.2364 361.701 93.0573 362.062 92.9508C362.422 92.8443 362.766 92.8407 363.093 92.94C363.426 93.0374 363.717 93.2092 363.964 93.4556C364.209 93.6953 364.38 93.9786 364.476 94.3057L365.349 97.2594L364.448 97.5257ZM361.084 98.52L359.678 93.7641L360.579 93.4978L361.985 98.2536L361.084 98.52Z" fill="#212121"/>
<path d="M370.725 93.1771L370.69 92.3531L372.651 92.2698C373.075 92.2518 373.398 92.1301 373.618 91.9048C373.838 91.6794 373.941 91.3825 373.925 91.0139C373.91 90.6662 373.783 90.3825 373.544 90.1628C373.312 89.9427 372.983 89.8417 372.559 89.8597L370.588 89.9435L370.551 89.0881L372.554 89.0031C373.013 88.9836 373.417 89.057 373.765 89.2233C374.113 89.3827 374.384 89.6115 374.578 89.9098C374.779 90.2078 374.888 90.555 374.904 90.9514C374.922 91.3617 374.843 91.7238 374.668 92.0378C374.501 92.3514 374.25 92.6024 373.917 92.7908C373.583 92.9721 373.187 93.0726 372.728 93.0921L370.725 93.1771ZM370.202 96.3552L369.894 89.1161L370.875 89.0744L371.182 96.3136L370.202 96.3552ZM374.374 96.178L371.608 93.0456L372.522 92.6828L375.615 96.1253L374.374 96.178Z" fill="#212121"/>
<path d="M378.481 96.5119C378.032 96.4562 377.638 96.2952 377.299 96.0288C376.961 95.7555 376.709 95.4121 376.543 94.9988C376.384 94.5863 376.334 94.1382 376.394 93.6547C376.454 93.1712 376.611 92.7489 376.867 92.3877C377.129 92.0274 377.454 91.7556 377.841 91.5722C378.235 91.3896 378.66 91.3266 379.116 91.3831C379.489 91.4293 379.811 91.5498 380.081 91.7447C380.36 91.9334 380.571 92.1771 380.717 92.4757C380.863 92.7673 380.924 93.094 380.9 93.4558L380.717 94.9374C380.652 95.2872 380.513 95.589 380.299 95.8431C380.092 96.098 379.831 96.2864 379.514 96.4085C379.205 96.5245 378.861 96.559 378.481 96.5119ZM378.745 95.6504C379.208 95.7078 379.6 95.5986 379.922 95.3229C380.245 95.0402 380.436 94.6537 380.497 94.1633C380.539 93.8248 380.51 93.5231 380.409 93.2582C380.317 92.9872 380.162 92.7681 379.944 92.6008C379.727 92.4266 379.463 92.3203 379.152 92.2818C378.841 92.2432 378.556 92.2815 378.296 92.3966C378.044 92.5125 377.832 92.6897 377.662 92.9282C377.5 93.1606 377.399 93.4391 377.359 93.7638C377.318 94.0953 377.347 94.397 377.447 94.6689C377.554 94.9347 377.719 95.1551 377.943 95.3301C378.167 95.5051 378.434 95.6119 378.745 95.6504ZM380.131 96.6112L380.295 95.2849L380.62 94.1049L380.592 92.8915L380.741 91.6896L381.683 91.8065L381.073 96.728L380.131 96.6112Z" fill="#212121"/>
<path d="M382.919 97.1319L384.107 92.317L385.019 92.542L383.831 97.3569L382.919 97.1319ZM384.8 91.4665C384.631 91.4248 384.506 91.3366 384.425 91.2018C384.345 91.0603 384.326 90.905 384.368 90.7361C384.408 90.5739 384.495 90.4521 384.63 90.3706C384.766 90.2824 384.919 90.2591 385.088 90.3008C385.257 90.3425 385.381 90.4341 385.461 90.5756C385.542 90.7104 385.563 90.8589 385.523 91.0211C385.481 91.1901 385.392 91.3186 385.256 91.4068C385.121 91.4883 384.969 91.5082 384.8 91.4665Z" fill="#212121"/>
<path d="M385.365 97.7663L387.639 90.6672L388.534 90.9539L386.26 98.053L385.365 97.7663Z" fill="#212121"/>
<path d="M389.217 99.2565C388.962 99.1462 388.733 99.0094 388.53 98.8461C388.337 98.6793 388.171 98.4938 388.031 98.2896C387.895 98.079 387.794 97.8571 387.728 97.6238L388.524 97.308C388.601 97.5842 388.727 97.8203 388.9 98.0164C389.076 98.206 389.298 98.3588 389.566 98.4747C389.835 98.5906 390.062 98.6355 390.247 98.6095C390.436 98.5771 390.566 98.4779 390.638 98.3117C390.709 98.1456 390.704 97.9916 390.621 97.8497C390.547 97.7042 390.43 97.5627 390.27 97.4251C390.112 97.2812 389.94 97.135 389.754 96.9864C389.577 96.8342 389.417 96.6702 389.273 96.4943C389.129 96.3184 389.032 96.1212 388.983 95.9027C388.939 95.6868 388.977 95.4416 389.096 95.1668C389.214 94.892 389.383 94.6845 389.603 94.5444C389.826 94.3979 390.079 94.3213 390.362 94.3148C390.652 94.311 390.966 94.3822 391.304 94.5285C391.662 94.683 391.951 94.8835 392.171 95.1299C392.399 95.3727 392.549 95.6574 392.621 95.9838L391.825 96.2997C391.769 96.0784 391.664 95.8816 391.511 95.7094C391.364 95.5399 391.173 95.4041 390.936 95.302C390.687 95.1944 390.476 95.1564 390.303 95.1879C390.14 95.2158 390.025 95.3064 389.958 95.4598C389.892 95.6131 389.899 95.7562 389.978 95.8889C390.057 96.0216 390.177 96.1568 390.337 96.2943C390.504 96.4346 390.676 96.5808 390.853 96.733C391.033 96.8788 391.193 97.0429 391.334 97.2251C391.475 97.4074 391.566 97.6096 391.607 97.8318C391.654 98.0568 391.616 98.3098 391.495 98.591C391.31 99.0191 391.01 99.2916 390.596 99.4084C390.188 99.5279 389.729 99.4773 389.217 99.2565Z" fill="#212121"/>
<path d="M397.461 99.9472L397.951 99.2838L399.53 100.45C399.872 100.702 400.199 100.81 400.512 100.773C400.825 100.736 401.091 100.569 401.31 100.272C401.517 99.9921 401.596 99.6915 401.548 99.3703C401.505 99.0532 401.313 98.7685 400.971 98.5163L399.384 97.3439L399.893 96.6552L401.505 97.8462C401.875 98.1192 402.143 98.4297 402.31 98.7779C402.481 99.1205 402.548 99.4688 402.512 99.8226C402.481 100.181 402.347 100.519 402.112 100.838C401.868 101.169 401.579 101.401 401.246 101.536C400.919 101.675 400.566 101.713 400.188 101.65C399.815 101.582 399.443 101.411 399.074 101.138L397.461 99.9472ZM395.059 102.093L399.364 96.2644L400.153 96.8475L395.848 102.676L395.059 102.093ZM398.418 104.574L398.231 100.399L399.171 100.691L399.417 105.312L398.418 104.574Z" fill="#212121"/>
<path d="M401.263 107.28C400.978 106.994 400.784 106.672 400.68 106.313C400.587 105.953 400.592 105.594 400.695 105.235C400.798 104.876 401.003 104.543 401.308 104.238L403.345 102.201L404.01 102.865L402.002 104.873C401.81 105.065 401.674 105.264 401.596 105.471C401.527 105.678 401.519 105.882 401.574 106.084C401.628 106.286 401.741 106.473 401.913 106.645C402.174 106.906 402.459 107.029 402.77 107.014C403.084 106.994 403.387 106.839 403.678 106.549L405.686 104.541L406.35 105.205L404.312 107.243C404.007 107.548 403.675 107.752 403.316 107.856C402.957 107.959 402.597 107.964 402.238 107.87C401.889 107.777 401.564 107.58 401.263 107.28Z" fill="#212121"/>
<path d="M405.175 111.78C404.953 111.477 404.813 111.157 404.755 110.819C404.707 110.483 404.742 110.16 404.86 109.849C404.977 109.539 405.173 109.27 405.447 109.043L406.651 108.161C406.955 107.963 407.271 107.858 407.596 107.843C407.932 107.83 408.25 107.899 408.551 108.05C408.861 108.202 409.125 108.427 409.343 108.725C409.61 109.09 409.759 109.486 409.787 109.914C409.82 110.347 409.741 110.763 409.55 111.162C409.359 111.561 409.067 111.904 408.674 112.192C408.281 112.48 407.866 112.655 407.428 112.717C406.99 112.779 406.57 112.729 406.166 112.568C405.773 112.407 405.442 112.145 405.175 111.78ZM405.798 111.129C405.983 111.382 406.205 111.56 406.462 111.665C406.72 111.769 406.991 111.803 407.276 111.768C407.566 111.728 407.845 111.609 408.115 111.411C408.379 111.218 408.573 110.989 408.699 110.724C408.824 110.46 408.873 110.191 408.845 109.918C408.823 109.641 408.722 109.378 408.541 109.131C408.356 108.879 408.134 108.7 407.876 108.596C407.624 108.487 407.355 108.456 407.069 108.501C406.783 108.547 406.506 108.668 406.236 108.866C405.972 109.059 405.774 109.283 405.64 109.536C405.516 109.791 405.465 110.057 405.487 110.334C405.513 110.617 405.617 110.882 405.798 111.129ZM403.716 109.613L409.728 105.206L410.284 105.964L407.294 108.155L406.221 108.722L405.349 109.581L404.271 110.371L403.716 109.613Z" fill="#212121"/>
<path d="M408.103 116.243L411.538 112.019L412.022 112.945L409.293 116.175L409.138 115.879L413.386 115.554L413.87 116.479L408.365 116.743L408.103 116.243ZM405.641 115.929L408.974 115.835L408.365 116.743L406.125 116.854L405.641 115.929Z" fill="#212121"/>
<path d="M411.38 124.642C411.258 124.17 411.259 123.717 411.384 123.282C411.508 122.847 411.731 122.469 412.05 122.149C412.377 121.828 412.776 121.606 413.248 121.484C413.713 121.363 414.159 121.366 414.587 121.493C415.022 121.617 415.4 121.84 415.72 122.159C416.04 122.479 416.261 122.875 416.383 123.347C416.503 123.812 416.501 124.262 416.376 124.696C416.26 125.136 416.042 125.516 415.722 125.836C415.403 126.156 415.01 126.377 414.545 126.497C414.074 126.619 413.617 126.618 413.175 126.496C412.74 126.371 412.362 126.145 412.04 125.819C411.72 125.499 411.5 125.106 411.38 124.642ZM412.259 124.414C412.338 124.717 412.478 124.968 412.681 125.168C412.883 125.367 413.123 125.502 413.401 125.574C413.685 125.645 413.985 125.639 414.302 125.557C414.612 125.477 414.87 125.334 415.076 125.13C415.284 124.933 415.424 124.698 415.498 124.428C415.58 124.162 415.582 123.877 415.504 123.574C415.425 123.271 415.285 123.02 415.082 122.821C414.886 122.62 414.65 122.483 414.372 122.411C414.095 122.339 413.801 122.343 413.491 122.424C413.174 122.505 412.909 122.646 412.694 122.845C412.487 123.043 412.343 123.278 412.262 123.55C412.182 123.823 412.181 124.111 412.259 124.414Z" fill="#212121"/>
<path d="M412.671 131.604L415.548 131.314C415.922 131.277 416.218 131.128 416.437 130.868C416.656 130.608 416.746 130.291 416.709 129.917C416.684 129.668 416.606 129.452 416.476 129.269C416.345 129.086 416.178 128.949 415.973 128.858C415.768 128.767 415.54 128.734 415.291 128.759L415.471 128.353C415.845 128.315 416.185 128.365 416.493 128.502C416.801 128.638 417.052 128.847 417.249 129.129C417.452 129.409 417.572 129.736 417.61 130.11C417.647 130.484 417.587 130.822 417.428 131.125C417.271 131.435 417.048 131.688 416.76 131.885C416.479 132.081 416.169 132.196 415.829 132.23L412.765 132.539L412.671 131.604ZM412.32 128.113L417.254 127.617L417.348 128.552L412.414 129.048L412.32 128.113Z" fill="#212121"/>
</g>
<defs>
<radialGradient id="paint0_radial_990_6407" cx="0" cy="0" r="1" gradientUnits="userSpaceOnUse" gradientTransform="translate(361.051 117.601) rotate(59.144) scale(54.2571)">
<stop stop-color="#9EECE5" stop-opacity="0.48"/>
<stop offset="0.604593" stop-color="#9EECE5"/>
<stop offset="0.796202" stop-color="#72DFDD"/>
<stop offset="1" stop-color="#51BBF6"/>
</radialGradient>
<clipPath id="clip0_990_6407">
<rect width="375" height="1061" fill="white"/>
</clipPath>
</defs>
</svg>
