<svg xmlns="http://www.w3.org/2000/svg" width="375" height="648" fill="none"><mask id="a" fill="#fff"><path fill-rule="evenodd" d="M0 56.31C0 25.21 25.21 0 56.31 0H318.69C349.79 0 375 25.21 375 56.31V498.69C375 529.79 349.79 555 318.691 555H154.893c-9.33 0-16.893 7.563-16.893 16.893v59.214c0 9.33-7.563 16.893-16.893 16.893H56.309C25.211 648 0 622.79 0 591.691V56.31Z" clip-rule="evenodd"/></mask><path fill="#212439" fill-rule="evenodd" d="M0 56.31C0 25.21 25.21 0 56.31 0H318.69C349.79 0 375 25.21 375 56.31V498.69C375 529.79 349.79 555 318.691 555H154.893c-9.33 0-16.893 7.563-16.893 16.893v59.214c0 9.33-7.563 16.893-16.893 16.893H56.309C25.211 648 0 622.79 0 591.691V56.31Z" clip-rule="evenodd"/><path fill="#212121" d="M56.31.563C25.52.563.562 25.521.562 56.31H-.563C-.563 24.9 24.899-.563 56.309-.563V.563Zm262.381 0H56.309V-.563h262.382V.563Zm55.746 55.746c0-30.788-24.958-55.746-55.746-55.746V-.563c31.41 0 56.872 25.462 56.872 56.872h-1.126Zm0 442.382V56.309h1.126v442.382h-1.126Zm-55.746 55.746c30.788 0 55.746-24.958 55.746-55.746h1.126c0 31.41-25.462 56.872-56.872 56.872v-1.126Zm-163.798 0h163.798v1.126H154.893v-1.126Zm-17.456 76.67v-59.214h1.126v59.214h-1.126Zm-16.33 16.33c9.019 0 16.33-7.311 16.33-16.33h1.126c0 9.641-7.815 17.456-17.456 17.456v-1.126Zm-64.798 0h64.798v1.126H56.309v-1.126ZM.563 591.691c0 30.788 24.959 55.746 55.746 55.746v1.126c-31.41 0-56.872-25.462-56.872-56.872H.563Zm0-36.691v36.691H-.563V555H.563Zm0-188v188H-.563V367H.563Zm0-310.69V367H-.563V56.31H.563Zm154.33 499.253c-9.019 0-16.33 7.311-16.33 16.33h-1.126c0-9.641 7.815-17.456 17.456-17.456v1.126Z" mask="url(#a)"/></svg>