<svg xmlns="http://www.w3.org/2000/svg" width="600" height="681" fill="none"><g clip-path="url(#a)"><path fill="#fff" d="M0 0h600v681H0z"/><g clip-path="url(#b)"><mask id="c" width="1569" height="713" x="-969" y="-32" maskUnits="userSpaceOnUse" style="mask-type:luminance"><path fill="#fff" d="M-968.919-31.906H600V681H-968.919V-31.906Z"/></mask><g fill="#0F1B1B" fill-opacity=".1" mask="url(#c)"><path d="m578.451-4.291-20.172-1.332a2.101 2.101 0 0 0-1.336.353c-.361.244-.607.599-.649 1.008l-1.502 14.844-18.377-1.214a2.103 2.103 0 0 0-1.336.354c-.362.244-.608.599-.649 1.008l-1.506 14.873-18.412-1.216a2.102 2.102 0 0 0-1.336.353c-.361.244-.608.599-.649 1.008l-1.503 14.844-18.376-1.213a2.101 2.101 0 0 0-1.336.353c-.362.244-.607.599-.649 1.008l-1.65 16.294c-.081.81.664 1.518 1.665 1.584 1.001.066 1.878-.536 1.96-1.344l1.503-14.85 18.383 1.215c.504.033.977-.104 1.333-.351.359-.244.604-.598.645-1.006l1.503-14.85 18.382 1.215c.514.034.994-.11 1.352-.366.37-.244.624-.602.666-1.017l1.503-14.85 18.382 1.215c.505.033.978-.104 1.333-.351.36-.244.605-.598.646-1.006l1.503-14.85 18.383 1.215c1 .066 1.878-.536 1.96-1.344.082-.809-.664-1.518-1.664-1.584ZM540.097 581.004l-20.171-1.333a2.103 2.103 0 0 0-1.336.354c-.362.243-.608.598-.649 1.007l-1.503 14.845-18.376-1.214a2.107 2.107 0 0 0-1.337.354c-.361.243-.607.598-.648 1.007l-1.506 14.874-18.412-1.217a2.103 2.103 0 0 0-1.336.354c-.362.243-.608.599-.649 1.007l-1.503 14.845-18.376-1.214a2.103 2.103 0 0 0-1.336.354c-.362.243-.608.599-.649 1.008l-1.65 16.294c-.082.809.664 1.518 1.664 1.584 1.001.066 1.879-.536 1.961-1.344l1.503-14.85 18.382 1.214c.505.034.977-.103 1.333-.351.36-.243.605-.597.646-1.005l1.503-14.85 18.382 1.215c.514.034.993-.11 1.351-.366.371-.244.625-.602.667-1.018l1.503-14.849 18.382 1.214a2.1 2.1 0 0 0 1.333-.351c.36-.243.604-.598.646-1.005l1.503-14.85 18.382 1.215c1.001.066 1.878-.536 1.961-1.345.081-.808-.664-1.517-1.665-1.583ZM177.357 265.445l-20.171-1.332a2.1 2.1 0 0 0-1.336.353c-.362.244-.608.599-.649 1.008l-1.503 14.844-18.376-1.213a2.097 2.097 0 0 0-1.337.353c-.361.244-.607.599-.649 1.008l-1.505 14.873-18.412-1.216a2.096 2.096 0 0 0-1.336.354c-.362.243-.608.598-.649 1.007l-1.503 14.845-18.376-1.214a2.102 2.102 0 0 0-1.337.353c-.361.244-.607.599-.648 1.008l-1.65 16.295c-.082.808.663 1.517 1.664 1.583 1.001.066 1.879-.536 1.96-1.344l1.503-14.849 18.383 1.214c.505.033.977-.104 1.333-.351.36-.244.604-.598.646-1.006l1.503-14.849 18.382 1.214c.514.034.993-.11 1.351-.366.371-.244.624-.602.666-1.017l1.504-14.849 18.382 1.214c.505.033.977-.104 1.333-.351.36-.244.604-.598.645-1.006l1.503-14.849 18.383 1.214c1.001.066 1.878-.536 1.96-1.344.082-.809-.663-1.518-1.664-1.584ZM37.761 498.757l-13.097-12.464c-.329-.313-.785-.486-1.254-.513a2.11 2.11 0 0 0-1.34.341L8.011 495.76l-11.931-11.355c-.329-.313-.785-.486-1.254-.513a2.11 2.11 0 0 0-1.341.341l-14.084 9.657-11.955-11.377c-.328-.312-.785-.485-1.254-.513a2.11 2.11 0 0 0-1.34.342l-14.058 9.638-11.93-11.355c-.33-.313-.786-.485-1.255-.513a2.112 2.112 0 0 0-1.341.342l-15.43 10.58c-.766.525-.86 1.452-.21 2.07.65.618 1.797.694 2.563.169l14.061-9.641 11.936 11.358c.328.312.782.486 1.25.514.467.033.95-.078 1.337-.343l14.06-9.641 11.936 11.359c.334.317.799.489 1.275.513.476.039.969-.07 1.362-.339l14.061-9.641L6.406 498.77c.327.312.782.485 1.25.513.467.034.95-.077 1.336-.342l14.061-9.642 11.936 11.359c.65.619 1.797.694 2.563.169.765-.524.859-1.451.21-2.07Z"/></g><mask id="d" width="1569" height="713" x="-969" y="-32" maskUnits="userSpaceOnUse" style="mask-type:luminance"><path fill="#fff" d="M-968.919-31.906H600V681H-968.919V-31.906Z"/></mask><g fill="#EAEAEA" fill-opacity=".5" mask="url(#d)"><path d="m479.648 251.049-5.47-21.624 26.768-4.419-21.298 26.043Zm-19.757-48.175 5.471 21.624-26.769 4.419 21.298-26.043Zm50.637 15.588c-.147-.079-.302-.135-.457-.194-.054-.021-.103-.048-.158-.067-.101-.033-.205-.05-.308-.076-.121-.03-.239-.066-.365-.085-.059-.009-.119-.008-.178-.015a4.343 4.343 0 0 0-1.198.019l-35.45 5.852-7.215-28.519c-.053-.877-.594-1.724-1.57-2.245-1.626-.868-3.816-.506-4.89.807l-30.726 37.572c-1.075 1.314-.628 3.082.999 3.95.147.079.302.136.457.194.054.021.102.049.157.067.101.033.206.05.308.076.122.03.24.066.365.086.06.008.12.007.179.014.389.044.791.048 1.198-.019l35.45-5.853 7.215 28.521c.052.877.593 1.723 1.57 2.244 1.626.868 3.815.506 4.89-.807l30.726-37.572c1.075-1.314.627-3.082-.999-3.95Z"/><path d="m477.649 307.232-17.516-70.166c-.205-.822.453-1.621 1.469-1.787 1.017-.166 2.007.366 2.212 1.187l17.516 70.166c.205.822-.452 1.622-1.469 1.787-1.016.166-2.007-.366-2.212-1.187ZM469.878 308.498l-17.516-70.166c-.205-.822.453-1.621 1.469-1.787 1.017-.166 2.007.366 2.212 1.187l17.516 70.166c.205.821-.453 1.621-1.469 1.787-1.017.166-2.007-.366-2.212-1.187ZM462.106 309.764l-17.516-70.166c-.205-.822.453-1.621 1.469-1.787 1.017-.166 2.007.366 2.212 1.187l17.516 70.166c.205.822-.452 1.622-1.469 1.787-1.017.166-2.007-.366-2.212-1.187Z"/></g><mask id="e" width="1569" height="713" x="-969" y="-32" maskUnits="userSpaceOnUse" style="mask-type:luminance"><path fill="#fff" d="M-968.919-31.906H600V681H-968.919V-31.906Z"/></mask><g fill="#0F1B1B" fill-opacity=".1" mask="url(#e)"><path d="m-6.913 193.45-56.369-9.483 26.216-41.429 56.368 9.482-26.215 41.43Zm-30.196-51.868-42.323-31.202 56.096 9.437 42.322 31.202-56.095-9.437Zm-27.196 41.963-42.531-31.356 26.215-41.429 42.531 31.356-26.215 41.429Zm84.983-31.665.009-.018a.356.356 0 0 0 .028-.073l.002-.005.001-.009c.004-.014.008-.027.01-.041.013-.01.027-.018.04-.029.213-.19.197-.483-.037-.656l-43.407-32.002c-.014-.01-.03-.018-.043-.026l-.034-.021a.897.897 0 0 0-.052-.023l-.054-.02a.595.595 0 0 0-.04-.01c-.018-.005-.034-.011-.052-.014l-57.533-9.678c-.31-.052-.615.109-.68.359-.003.016-.003.031-.005.046l-.02.017-.025.017-.01.011c-.013.012-.025.026-.037.04l-.03.038-.01.013-26.748 42.27c-.004.006-.006.013-.009.019-.113.182-.071.407.123.551l43.407 32.002.023.013.027.018.027.015.037.018.017.009.017.005.036.012a.26.26 0 0 0 .027.008c.016.004.032.009.048.011.006.001.01.004.016.004l57.533 9.679c.25.042.495-.056.614-.226.009-.011.019-.021.026-.032l26.748-42.271.01-.021ZM539.331 446.533l-56.368-9.483 26.215-41.429 56.369 9.483-26.216 41.429Zm-30.196-51.867-42.323-31.203 56.096 9.437 42.322 31.203-56.095-9.437Zm-27.196 41.963-42.531-31.356 26.216-41.43 42.531 31.357-26.216 41.429Zm84.984-31.666.008-.018a.41.41 0 0 0 .029-.073l.001-.004.002-.01c.003-.013.007-.027.009-.041.013-.01.027-.018.04-.029.214-.189.197-.483-.037-.656l-43.407-32.002c-.013-.01-.029-.017-.043-.026l-.034-.02a.483.483 0 0 0-.052-.023.503.503 0 0 0-.054-.021l-.04-.01c-.018-.004-.034-.01-.052-.013l-57.533-9.679c-.31-.052-.614.109-.679.36-.004.015-.004.03-.006.045a.313.313 0 0 1-.021.017c-.007.007-.016.011-.024.018l-.009.01c-.014.013-.025.027-.038.041l-.03.038-.01.012-26.748 42.271-.009.019c-.113.181-.071.407.124.551l43.406 32.001c.007.006.016.009.023.014l.027.017.028.016a.584.584 0 0 0 .036.017l.017.009.017.005a.52.52 0 0 0 .036.013l.028.007a.464.464 0 0 0 .047.012l.016.004 57.533 9.679c.251.042.495-.056.615-.227.008-.011.018-.02.025-.032l26.748-42.27c.005-.007.007-.015.011-.022Z"/></g><mask id="f" width="1569" height="713" x="-969" y="-32" maskUnits="userSpaceOnUse" style="mask-type:luminance"><path fill="#fff" d="M-968.919-31.906H600V681H-968.919V-31.906Z"/></mask><g fill="#EAEAEA" fill-opacity=".5" mask="url(#f)"><path d="M-21.413 23.629h28.68c1.036 0 1.877.679 1.877 1.517v.956c0 .838-.84 1.517-1.877 1.517h-28.68c-1.037 0-1.878-.679-1.878-1.517v-.956c0-.838.84-1.517 1.878-1.517ZM-2.074 33.162c0-1.102 1.106-1.995 2.47-1.995s2.47.893 2.47 1.995-1.106 1.995-2.47 1.995-2.47-.893-2.47-1.995ZM70.968 593.973h28.68c1.037 0 1.877.679 1.877 1.517v.957c0 .838-.84 1.517-1.877 1.517h-28.68c-1.037 0-1.878-.679-1.878-1.517v-.957c0-.838.841-1.517 1.878-1.517ZM52.306 601.511h28.68c1.036 0 1.877.679 1.877 1.517v.957c0 .838-.84 1.517-1.878 1.517h-28.68c-1.036 0-1.877-.679-1.877-1.517v-.957c0-.838.84-1.517 1.878-1.517ZM35.015 609.049h28.68c1.037 0 1.877.679 1.877 1.517v.957c0 .838-.84 1.517-1.877 1.517h-28.68c-1.037 0-1.877-.679-1.877-1.517v-.957c0-.838.84-1.517 1.877-1.517ZM90.307 603.506c0-1.102 1.106-1.995 2.47-1.995 1.365 0 2.47.893 2.47 1.995 0 1.103-1.105 1.996-2.47 1.996-1.364 0-2.47-.893-2.47-1.996ZM70.638 611.044c0-1.102 1.106-1.995 2.47-1.995 1.365 0 2.47.893 2.47 1.995s-1.105 1.996-2.47 1.996c-1.364 0-2.47-.894-2.47-1.996ZM57.655 595.968c0-1.102 1.106-1.995 2.47-1.995s2.47.893 2.47 1.995-1.106 1.996-2.47 1.996-2.47-.894-2.47-1.996ZM38.26 603.506c0-1.102 1.107-1.995 2.47-1.995 1.365 0 2.47.893 2.47 1.995 0 1.103-1.105 1.996-2.47 1.996-1.363 0-2.47-.893-2.47-1.996ZM544.006 116.108h28.68c1.037 0 1.877.679 1.877 1.517v.957c0 .838-.84 1.517-1.877 1.517h-28.68c-1.037 0-1.878-.679-1.878-1.517v-.957c0-.838.841-1.517 1.878-1.517ZM525.343 123.646h28.68c1.037 0 1.877.679 1.877 1.517v.957c0 .837-.84 1.517-1.877 1.517h-28.68c-1.037 0-1.878-.679-1.878-1.517v-.957c0-.838.841-1.517 1.878-1.517ZM508.053 131.184h28.68c1.037 0 1.877.679 1.877 1.517v.957c0 .838-.84 1.517-1.877 1.517h-28.68c-1.037 0-1.878-.679-1.878-1.517v-.957c0-.838.841-1.517 1.878-1.517ZM563.345 125.641c0-1.102 1.106-1.995 2.47-1.995s2.47.893 2.47 1.995-1.106 1.996-2.47 1.996-2.47-.894-2.47-1.996ZM543.676 133.179c0-1.102 1.106-1.995 2.47-1.995s2.47.893 2.47 1.995-1.106 1.996-2.47 1.996-2.47-.894-2.47-1.996ZM530.693 118.103c0-1.102 1.106-1.995 2.47-1.995s2.47.893 2.47 1.995-1.106 1.996-2.47 1.996-2.47-.894-2.47-1.996ZM511.298 125.641c0-1.102 1.106-1.995 2.471-1.995 1.364 0 2.469.893 2.469 1.995s-1.105 1.996-2.469 1.996c-1.365 0-2.471-.894-2.471-1.996Z"/></g><mask id="g" width="599" height="685" x="1" y="-4" maskUnits="userSpaceOnUse" style="mask-type:luminance"><path fill="#fff" d="M1.013-3.988H600V681H1.013V-3.988Z"/></mask><g mask="url(#g)"><path fill="#D9D9D9" fill-opacity=".4" d="m270.246 221.799 12.965-5.311 6.574 10.473-19.539-5.162Zm27.818-14.969-12.965 5.311-6.574-10.473 19.539 5.162Zm-2.774 23.182c.029-.072.043-.145.059-.217.005-.025.016-.049.02-.074.007-.047.003-.093.005-.139.002-.054.008-.109.003-.163-.003-.026-.012-.051-.016-.076a1.3 1.3 0 0 0-.181-.494l-8.706-13.87 17.1-7.004c.549-.146 1.01-.489 1.204-.967.322-.796-.215-1.653-1.201-1.913l-28.189-7.448c-.985-.26-2.046.174-2.368.97-.029.072-.044.145-.059.217-.006.025-.016.049-.02.075-.007.046-.003.092-.005.138-.002.055-.008.109-.003.164.002.025.012.05.016.075a1.3 1.3 0 0 0 .181.494l8.706 13.87-17.099 7.004c-.55.146-1.012.489-1.205.967-.323.796.215 1.653 1.201 1.913l28.189 7.448c.986.26 2.046-.174 2.368-.97ZM76.406 32.2l13.526 12.872c.67.638.574 1.595-.217 2.138-.79.542-1.975.463-2.646-.175L73.543 34.162c-.671-.638-.574-1.595.216-2.138.791-.542 1.976-.463 2.647.175ZM61.818 27.17l13.525 12.872c.671.639.574 1.596-.216 2.138-.79.542-1.976.464-2.647-.175L58.955 29.133c-.672-.638-.575-1.595.216-2.138.79-.542 1.975-.463 2.647.175ZM47.904 22.784 61.43 35.656c.67.638.574 1.596-.217 2.138-.79.542-1.975.464-2.647-.175L45.041 24.747c-.671-.639-.575-1.596.216-2.138.79-.542 1.976-.464 2.647.174ZM78.789 45.666c.79-.543 1.975-.464 2.647.175.67.638.574 1.595-.217 2.137-.79.542-1.975.464-2.647-.174-.67-.639-.574-1.596.217-2.138ZM63.705 40.165c.79-.542 1.975-.463 2.647.175.67.639.574 1.596-.217 2.138-.79.542-1.975.464-2.647-.175-.67-.638-.574-1.595.217-2.138ZM68.134 26.67c.79-.541 1.976-.463 2.647.175.67.64.574 1.596-.217 2.138-.79.543-1.975.464-2.646-.174-.671-.639-.574-1.597.216-2.138ZM53.185 21.299c.791-.542 1.976-.464 2.647.175.671.639.574 1.596-.216 2.138-.791.542-1.976.464-2.647-.175-.671-.639-.574-1.596.216-2.138ZM322.543 47.687 311.74 68.362c-.391.748-1.461 1.004-2.39.571l-1.062-.493c-.93-.433-1.366-1.39-.975-2.137l10.803-20.675c.391-.747 1.461-1.003 2.39-.57l1.062.493c.929.432 1.366 1.389.975 2.136ZM321.132 30.33l-10.804 20.676c-.39.747-1.46 1.003-2.39.57l-1.061-.493c-.93-.432-1.366-1.389-.976-2.136l10.804-20.675c.391-.748 1.461-1.004 2.39-.571l1.062.493c.929.433 1.366 1.39.975 2.137ZM319.205 13.962l-10.804 20.675c-.39.748-1.46 1.003-2.39.57l-1.061-.493c-.93-.432-1.366-1.389-.976-2.136l10.804-20.675c.391-.748 1.461-1.004 2.39-.571l1.062.493c.929.433 1.366 1.39.975 2.137ZM304.631 56.66c1.228.57 1.805 1.832 1.289 2.819-.516.986-1.93 1.323-3.157.753-1.228-.57-1.804-1.832-1.289-2.818.516-.986 1.93-1.323 3.157-.753ZM303.598 38.58c1.228.57 1.805 1.832 1.289 2.818s-1.93 1.323-3.157.753c-1.228-.57-1.805-1.832-1.289-2.818s1.93-1.323 3.157-.753ZM325.325 37.085c1.228.57 1.805 1.832 1.289 2.818s-1.93 1.323-3.157.753c-1.228-.57-1.804-1.832-1.289-2.817.516-.987 1.93-1.324 3.157-.754ZM324.189 19.202c1.228.57 1.805 1.831 1.289 2.818-.516.986-1.93 1.323-3.157.753-1.228-.57-1.805-1.832-1.289-2.818s1.929-1.323 3.157-.753ZM287.976 608.817l12.965-5.311 6.574 10.473-19.539-5.162Zm27.818-14.969-12.964 5.311-6.574-10.473 19.538 5.162Zm-2.773 23.182c.029-.072.043-.144.058-.217.006-.025.017-.049.02-.074.007-.047.004-.093.005-.139.002-.054.009-.109.004-.163-.003-.026-.013-.051-.017-.076a1.282 1.282 0 0 0-.18-.494l-8.707-13.87 17.1-7.004c.55-.145 1.011-.489 1.204-.967.323-.796-.215-1.653-1.2-1.913l-28.189-7.448c-.986-.26-2.046.174-2.368.97-.03.072-.044.145-.059.217-.006.025-.017.05-.021.075-.007.046-.003.092-.005.138-.002.055-.008.109-.003.164.003.025.012.05.016.076.027.167.081.334.181.493l8.706 13.87-17.099 7.005c-.55.145-1.011.488-1.205.966-.322.796.216 1.653 1.201 1.913L310.652 618c.986.261 2.046-.174 2.369-.97ZM238.216 502.459l-31.954-13.194c-.924-.381-1.289-1.295-.818-2.041.472-.746 1.604-1.042 2.527-.66l31.954 13.194c.923.382 1.289 1.295.817 2.041s-1.603 1.042-2.526.66ZM234.607 508.162l-31.954-13.195c-.923-.381-1.289-1.295-.817-2.041s1.603-1.041 2.527-.66l31.954 13.195c.923.381 1.289 1.295.817 2.041s-1.604 1.041-2.527.66ZM230.999 513.864l-31.954-13.194c-.924-.381-1.29-1.295-.818-2.041.472-.746 1.604-1.042 2.527-.66l31.954 13.194c.923.382 1.289 1.295.817 2.041s-1.603 1.042-2.526.66ZM227.39 519.567l-31.954-13.195c-.923-.381-1.289-1.295-.817-2.041s1.603-1.041 2.527-.66l31.954 13.195c.923.381 1.289 1.295.817 2.041s-1.603 1.041-2.527.66ZM223.782 525.27l-31.954-13.195c-.924-.381-1.289-1.295-.817-2.041.471-.746 1.603-1.042 2.526-.66l31.954 13.194c.924.382 1.289 1.295.817 2.041-.471.746-1.603 1.042-2.526.661ZM220.173 530.972l-31.954-13.195c-.923-.381-1.289-1.295-.817-2.041s1.603-1.041 2.527-.66l31.954 13.195c.923.381 1.289 1.295.817 2.041s-1.603 1.041-2.527.66ZM216.565 536.675l-31.954-13.195c-.923-.381-1.29-1.295-.817-2.041.472-.746 1.603-1.042 2.526-.66l31.954 13.194c.923.382 1.289 1.296.818 2.041-.472.746-1.604 1.042-2.527.661ZM212.956 542.377l-31.954-13.195c-.923-.381-1.289-1.295-.817-2.041.472-.745 1.604-1.041 2.527-.66l31.954 13.195c.923.381 1.289 1.295.817 2.041s-1.603 1.041-2.527.66ZM209.348 548.08l-31.954-13.195c-.923-.381-1.289-1.295-.817-2.041s1.603-1.041 2.526-.66l31.954 13.194c.924.382 1.29 1.296.818 2.041-.472.746-1.604 1.042-2.527.661ZM205.739 553.782l-31.954-13.195c-.923-.381-1.289-1.295-.817-2.041.472-.745 1.604-1.041 2.527-.66l31.954 13.195c.923.381 1.289 1.295.817 2.041s-1.603 1.041-2.527.66ZM202.131 559.485l-31.954-13.195c-.923-.381-1.289-1.295-.817-2.041s1.603-1.041 2.526-.66l31.955 13.195c.923.381 1.289 1.295.817 2.041s-1.604 1.041-2.527.66ZM180.104 402.876l13.525 12.872c.671.639.574 1.596-.216 2.138-.791.542-1.976.464-2.647-.175l-13.526-12.872c-.671-.639-.574-1.596.217-2.138.79-.542 1.975-.464 2.647.175ZM165.515 397.847l13.526 12.872c.67.639.574 1.596-.217 2.138-.791.542-1.975.464-2.647-.175l-13.525-12.872c-.671-.639-.575-1.596.216-2.138.791-.542 1.976-.464 2.647.175ZM151.601 393.46l13.526 12.872c.671.639.574 1.596-.217 2.138-.79.542-1.975.464-2.646-.174l-13.526-12.873c-.671-.638-.574-1.595.216-2.138.791-.542 1.976-.463 2.647.175ZM182.486 416.342c.791-.542 1.976-.463 2.647.175.671.639.574 1.596-.217 2.138-.79.542-1.975.464-2.646-.175-.671-.638-.574-1.596.216-2.138ZM167.402 410.842c.791-.542 1.976-.464 2.647.175.671.639.574 1.596-.216 2.138-.791.542-1.976.464-2.647-.175-.671-.638-.574-1.596.216-2.138ZM171.831 397.347c.791-.542 1.976-.463 2.647.175.671.639.574 1.596-.216 2.138-.791.542-1.976.464-2.647-.174-.671-.639-.574-1.597.216-2.139ZM156.883 391.976c.79-.543 1.975-.464 2.646.175.671.638.574 1.595-.216 2.137-.791.543-1.976.464-2.647-.174-.671-.639-.574-1.596.217-2.138Z"/><path fill="#D9D9D9" fill-opacity=".5" d="m422.502 467.241-2.338 23.091c-.084.835-.99 1.457-2.024 1.388l-1.181-.078c-1.033-.068-1.803-.8-1.718-1.635l2.337-23.091c.085-.835.991-1.456 2.025-1.388l1.18.078c1.034.068 1.803.8 1.719 1.635ZM414.722 451.602l-2.337 23.09c-.085.835-.991 1.457-2.025 1.388l-1.18-.078c-1.034-.068-1.803-.8-1.719-1.635l2.338-23.091c.084-.835.991-1.456 2.024-1.388l1.181.078c1.034.068 1.803.801 1.718 1.636ZM406.832 437.066l-2.338 23.091c-.084.835-.991 1.456-2.024 1.388l-1.181-.078c-1.034-.068-1.803-.801-1.719-1.635l2.338-23.091c.084-.835.991-1.456 2.024-1.388l1.181.078c1.034.068 1.803.8 1.719 1.635ZM409.163 482.035c1.36.09 2.372 1.053 2.261 2.151-.111 1.099-1.303 1.916-2.663 1.826-1.36-.089-2.372-1.053-2.261-2.151.112-1.098 1.304-1.916 2.663-1.826ZM401.466 465.585c1.36.089 2.372 1.053 2.261 2.151-.111 1.098-1.303 1.916-2.663 1.826-1.36-.09-2.372-1.053-2.261-2.151.111-1.099 1.304-1.916 2.663-1.826ZM421.125 456.36c1.36.09 2.372 1.053 2.261 2.151-.112 1.099-1.304 1.916-2.664 1.826-1.359-.089-2.371-1.052-2.26-2.151.111-1.098 1.303-1.916 2.663-1.826ZM413.405 440.131c1.36.09 2.372 1.053 2.261 2.151-.111 1.098-1.304 1.916-2.663 1.826-1.36-.09-2.372-1.053-2.261-2.151.111-1.098 1.304-1.916 2.663-1.826Z"/><path fill="#0F1B1B" fill-opacity=".1" d="M305.434 442.596c.479-4.52-1.119-9.193-4.944-13.007-1.967-1.962-4.352-3.507-6.974-4.618-7.417-3.144-12.965-8.579-14.972-15.148-.749-2.452-2.145-4.816-4.212-6.926-3.703-3.778-8.886-6.049-14.355-6.705-3.94-.472-6.738-3.38-6.412-6.588.458-4.5-1.143-9.148-4.951-12.945-7.597-7.577-21.437-8.952-31.076-3.082-10.144 6.178-11.954 17.852-4.113 25.852 3.703 3.778 8.886 6.05 14.355 6.705 3.955.474 6.759 3.308 6.418 6.527-.478 4.52 1.12 9.192 4.944 13.006 1.967 1.962 4.352 3.507 6.974 4.619 7.417 3.144 12.966 8.578 14.972 15.147.749 2.452 2.145 4.817 4.213 6.926 3.702 3.778 8.886 6.05 14.354 6.705 3.941.472 6.739 3.381 6.412 6.588-.457 4.501 1.144 9.149 4.951 12.946 7.598 7.577 21.437 8.951 31.076 3.081 10.144-6.178 11.955-17.851 4.114-25.852-3.703-3.778-8.887-6.05-14.355-6.705-3.955-.474-6.76-3.308-6.419-6.526Z"/><path fill="#D9D9D9" fill-opacity=".4" d="M294.957 370.773c3.532 3.604 2.779 8.839-1.683 11.692-4.461 2.853-10.941 2.245-14.474-1.359-3.532-3.604-2.779-8.839 1.683-11.692 4.461-2.854 10.942-2.245 14.474 1.359Z"/><path stroke="#0F1B1B" stroke-miterlimit="10" stroke-opacity=".1" stroke-width="2" d="m394.709 520.75-1.882-1.124c-4.069-2.43-9.806-1.735-12.814 1.552l-19.028 20.791c-3.009 3.287-2.149 7.921 1.92 10.352l25.738 15.37c4.069 2.43 9.806 1.736 12.814-1.551l1.392-1.521c2.018-2.205 5.868-2.671 8.598-1.041l1.882 1.124c4.069 2.43 9.806 1.736 12.814-1.551l19.028-20.791c3.008-3.287 2.148-7.922-1.921-10.352l-25.737-15.371c-4.069-2.43-9.806-1.735-12.814 1.552l-1.392 1.52c-2.018 2.206-5.868 2.672-8.598 1.041Z"/><path fill="#D9D9D9" fill-opacity=".4" d="m383.765 536.747-10.274 11.226c-1.492 1.63-4.338 1.975-6.356.77l-13.896-8.3c-2.019-1.205-2.445-3.504-.953-5.134l10.273-11.226c1.492-1.63 4.339-1.975 6.357-.769l13.896 8.299c2.018 1.205 2.445 3.504.953 5.134Z"/></g></g><path fill="#DCDCDC" d="M340.865 559.216h2.373v.163h-2.373z"/></g><defs><clipPath id="a"><path fill="#fff" d="M0 0h600v681H0z"/></clipPath><clipPath id="b"><path fill="#fff" d="M0 0h600v681H0z"/></clipPath></defs></svg>