<svg xmlns="http://www.w3.org/2000/svg" width="768" height="786" fill="none"><g clip-path="url(#a)"><path fill="#DCDCDC" d="M746 31h1v629.612h-1zM642 64.261h1l.026 595.841h-1zM538 81.109h1v579.566h-1zm-104 43.467h1v536.099h-1zm-208 69.549h1v466.551h-1zM122 298.26h1V661h-1zM12 375.334h1v285.01h-1zm318-206.949h1V660.05h-1z"/><path stroke="#DCDCDC" stroke-dasharray="10 10" d="M829 661.112H-39.003M750 522.557H20m731-142.505H61m690-142.506H201m547.013-71.252H393M747.027 98.79H449.985"/><ellipse cx="657.197" cy="289.448" fill="url(#b)" rx="42.197" ry="42.238"/><ellipse cx="545.364" cy="414.737" fill="url(#c)" rx="22.386" ry="22.364" transform="rotate(-90 545.364 414.737)"/><ellipse cx="643.127" cy="515.598" fill="#212121" rx="10.137" ry="10.127" transform="rotate(-90 643.127 515.598)"/><ellipse cx="539.127" cy="229.32" fill="#212121" rx="10.137" ry="10.127" transform="rotate(-90 539.127 229.32)"/><ellipse cx="385.127" cy="375.462" fill="#212121" rx="10.137" ry="10.127" transform="rotate(-90 385.127 375.462)"/></g><defs><radialGradient id="b" cx="0" cy="0" r="1" gradientTransform="matrix(-73.54885 -71.84352 56.5811 -57.92414 699.393 325.37)" gradientUnits="userSpaceOnUse"><stop offset=".147" stop-color="#EAEAEA"/><stop offset=".31" stop-color="#FFE6ED"/><stop offset=".386" stop-color="#F7C2DC"/><stop offset=".477" stop-color="#F2B0D0"/><stop offset=".644" stop-color="#E98ED1"/><stop offset=".79" stop-color="#6D73DD"/><stop offset=".915" stop-color="#3073C1"/><stop offset="1" stop-color="#638B9F"/></radialGradient><radialGradient id="c" cx="0" cy="0" r="1" gradientTransform="rotate(-135.727 372.101 101.398) scale(54.4932 42.9147)" gradientUnits="userSpaceOnUse"><stop offset=".147" stop-color="#EAEAEA"/><stop offset=".31" stop-color="#FFE6ED"/><stop offset=".386" stop-color="#F7C2DC"/><stop offset=".477" stop-color="#F2B0D0"/><stop offset=".644" stop-color="#E98ED1"/><stop offset=".79" stop-color="#6D73DD"/><stop offset=".915" stop-color="#3073C1"/><stop offset="1" stop-color="#638B9F"/></radialGradient><clipPath id="a"><path fill="#fff" d="M0 0h768v786H0z"/></clipPath></defs></svg>