<svg width="375" height="699" viewBox="0 0 375 699" fill="none" xmlns="http://www.w3.org/2000/svg">
<rect width="1" height="643.57" transform="matrix(1 -4.33747e-05 4.15331e-05 1 369 53.7122)" fill="#DCDCDC"/>
<rect x="297" y="85.842" width="1" height="613.158" fill="#DCDCDC"/>
<rect x="225" y="131.829" width="1" height="567.171" fill="#DCDCDC"/>
<rect x="81" y="205.408" width="1" height="493.592" fill="#DCDCDC"/>
<rect x="9" y="245.263" width="1" height="453.737" fill="#DCDCDC"/>
<rect x="153" y="178.838" width="1" height="520.162" fill="#DCDCDC"/>
<line x1="473" y1="697.783" x2="-255" y2="697.783" stroke="#DCDCDC" stroke-dasharray="10 10"/>
<line x1="478" y1="574.126" x2="-142" y2="574.126" stroke="#DCDCDC" stroke-dasharray="10 10"/>
<line x1="478" y1="445.04" x2="-142" y2="445.04" stroke="#DCDCDC" stroke-dasharray="10 10"/>
<line x1="479.012" y1="330.583" x2="-34.9883" y2="330.583" stroke="#DCDCDC" stroke-dasharray="10 10"/>
<line x1="478" y1="387.812" x2="-36" y2="387.812" stroke="#DCDCDC" stroke-dasharray="10 10"/>
<line x1="479" y1="273.355" x2="-35" y2="273.355" stroke="#DCDCDC" stroke-dasharray="10 10"/>
<line x1="407.007" y1="216.127" x2="51.9945" y2="216.127" stroke="#DCDCDC" stroke-dasharray="10 10"/>
<line x1="476.013" y1="158.899" x2="121" y2="158.899" stroke="#DCDCDC" stroke-dasharray="10 10"/>
<circle cx="315.073" cy="341.073" r="25" transform="rotate(179.832 315.073 341.073)" fill="url(#paint0_radial_1103_2505)"/>
<defs>
<radialGradient id="paint0_radial_1103_2505" cx="0" cy="0" r="1" gradientUnits="userSpaceOnUse" gradientTransform="translate(340.073 362.335) rotate(-135.7) scale(60.8851 47.9497)">
<stop offset="0.146825" stop-color="#EAEAEA"/>
<stop offset="0.309839" stop-color="#FFE6ED"/>
<stop offset="0.386422" stop-color="#F7C2DC"/>
<stop offset="0.477083" stop-color="#F2B0D0"/>
<stop offset="0.64375" stop-color="#E98ED1"/>
<stop offset="0.789583" stop-color="#6D73DD"/>
<stop offset="0.914583" stop-color="#3073C1"/>
<stop offset="1" stop-color="#638B9F"/>
</radialGradient>
</defs>
</svg>
