<svg width="375" height="330" viewBox="0 0 375 330" fill="none" xmlns="http://www.w3.org/2000/svg">
<g clip-path="url(#clip0_988_9297)">
<g clip-path="url(#clip1_988_9297)">
<mask id="mask0_988_9297" style="mask-type:luminance" maskUnits="userSpaceOnUse" x="0" y="-394" width="467" height="1012">
<path d="M466.984 617.5L466.984 -393.5H0.0166016L0.0166016 617.5H466.984Z" fill="white"/>
</mask>
<g mask="url(#mask0_988_9297)">
<path d="M375.53 235.055L376.403 248.054C376.425 248.38 376.334 248.685 376.171 248.915C376.012 249.148 375.779 249.306 375.511 249.333L365.788 250.301L366.583 262.143C366.605 262.469 366.514 262.774 366.351 263.004C366.192 263.237 365.959 263.395 365.691 263.422L355.949 264.392L356.746 276.257C356.767 276.583 356.677 276.888 356.514 277.117C356.354 277.35 356.122 277.509 355.854 277.536L346.13 278.504L346.926 290.346C346.947 290.672 346.857 290.977 346.694 291.207C346.535 291.44 346.302 291.598 346.034 291.625L335.361 292.688C334.831 292.741 334.367 292.26 334.323 291.616C334.28 290.971 334.674 290.405 335.204 290.352L344.93 289.384L344.135 277.538C344.113 277.213 344.203 276.908 344.365 276.679C344.524 276.447 344.757 276.29 345.024 276.263L354.75 275.295L353.955 263.449C353.933 263.118 354.027 262.809 354.195 262.579C354.354 262.34 354.589 262.176 354.861 262.149L364.588 261.181L363.792 249.335C363.77 249.01 363.86 248.705 364.022 248.476C364.182 248.244 364.414 248.087 364.681 248.06L374.407 247.092L373.612 235.246C373.569 234.601 373.963 234.036 374.493 233.983C375.022 233.93 375.487 234.41 375.53 235.055Z" fill="#0F1B1B" fill-opacity="0.07"/>
<path d="M119.389 -31.1975L127.553 -22.7577C127.758 -22.546 127.871 -22.252 127.889 -21.9494C127.912 -21.6475 127.839 -21.3349 127.666 -21.0856L121.352 -12.0274L128.79 -4.33883C128.995 -4.12715 129.108 -3.83332 129.126 -3.53082C129.149 -3.22857 129.076 -2.91605 128.902 -2.66673L122.577 6.40884L130.029 14.1125C130.234 14.3241 130.347 14.6182 130.365 14.9207C130.388 15.2227 130.315 15.5352 130.141 15.7845L123.828 24.8427L131.266 32.5311C131.471 32.743 131.584 33.0368 131.602 33.3394C131.624 33.6416 131.552 33.9538 131.378 34.2034L124.448 44.1463C124.104 44.6396 123.497 44.7002 123.092 44.2813C122.687 43.8627 122.637 43.1234 122.981 42.63L129.296 33.5692L121.856 25.878C121.652 25.6668 121.538 25.374 121.52 25.0726C121.498 24.7711 121.571 24.4599 121.744 24.2111L128.06 15.1503L120.619 7.45907C120.411 7.24424 120.299 6.94462 120.283 6.63737C120.257 6.33091 120.329 6.01313 120.505 5.75985L126.821 -3.30097L119.38 -10.9922C119.176 -11.2034 119.063 -11.4961 119.044 -11.7976C119.022 -12.099 119.095 -12.4102 119.268 -12.659L125.584 -21.7199L118.144 -29.4111C117.739 -29.8297 117.689 -30.569 118.033 -31.0624C118.377 -31.5558 118.984 -31.6161 119.389 -31.1975Z" fill="#0F1B1B" fill-opacity="0.07"/>
</g>
<mask id="mask1_988_9297" style="mask-type:luminance" maskUnits="userSpaceOnUse" x="0" y="-394" width="467" height="1012">
<path d="M466.984 617.5L466.984 -393.5H0.0166016L0.0166016 617.5H466.984Z" fill="white"/>
</mask>
<g mask="url(#mask1_988_9297)">
<path d="M196.937 324.169L209.443 333L216.694 317.77L196.937 324.169ZM223.524 348.468L211.018 339.637L203.767 354.868L223.524 348.468ZM222.372 313.578C222.396 313.687 222.405 313.797 222.415 313.906C222.419 313.944 222.428 313.981 222.43 314.019C222.434 314.089 222.427 314.157 222.425 314.227C222.423 314.308 222.426 314.39 222.417 314.471C222.412 314.51 222.402 314.546 222.396 314.584C222.358 314.833 222.292 315.079 222.182 315.311L212.579 335.482L229.074 347.129C229.61 347.384 230.044 347.929 230.203 348.658C230.468 349.872 229.875 351.117 228.879 351.44L200.374 360.673C199.377 360.996 198.355 360.274 198.089 359.06C198.065 358.95 198.056 358.841 198.046 358.731C198.042 358.693 198.033 358.656 198.031 358.618C198.027 358.548 198.034 358.48 198.036 358.411C198.037 358.329 198.035 358.248 198.044 358.166C198.048 358.128 198.059 358.091 198.065 358.053C198.103 357.804 198.169 357.558 198.279 357.326L207.882 337.156L191.387 325.509C190.851 325.254 190.417 324.708 190.258 323.98C189.992 322.766 190.586 321.52 191.582 321.197L220.087 311.964C221.084 311.642 222.106 312.364 222.372 313.578Z" fill="#EAEAEA" fill-opacity="0.25"/>
<path d="M194.095 353.04L251.482 300.872C251.922 300.472 252.012 299.714 251.684 299.178C251.356 298.643 250.733 298.533 250.294 298.932L192.906 351.1C192.466 351.5 192.376 352.258 192.704 352.794C193.032 353.329 193.655 353.439 194.095 353.04Z" fill="#EAEAEA" fill-opacity="0.25"/>
<path d="M196.604 357.133L253.991 304.965C254.431 304.566 254.522 303.808 254.193 303.272C253.865 302.736 253.243 302.626 252.803 303.026L195.415 355.194C194.976 355.594 194.885 356.352 195.213 356.887C195.542 357.423 196.164 357.533 196.604 357.133Z" fill="#EAEAEA" fill-opacity="0.25"/>
<path d="M199.113 361.228L256.501 309.06C256.94 308.66 257.031 307.902 256.703 307.366C256.374 306.831 255.752 306.721 255.312 307.12L197.925 359.288C197.485 359.688 197.395 360.446 197.723 360.982C198.051 361.517 198.674 361.627 199.113 361.228Z" fill="#EAEAEA" fill-opacity="0.25"/>
<path d="M56.5183 56.1165L69.0248 64.9475L76.2762 49.7167L56.5183 56.1165ZM83.1062 80.415L70.5997 71.584L63.3484 86.8148L83.1062 80.415ZM81.9533 45.5247C81.9773 45.6342 81.9864 45.7438 81.9968 45.853C82.0004 45.8912 82.0095 45.9281 82.0117 45.9662C82.0154 46.0363 82.0084 46.1045 82.0069 46.1737C82.0052 46.2553 82.0076 46.3367 81.9987 46.4183C81.9942 46.457 81.9834 46.4931 81.9775 46.5312C81.9395 46.7803 81.8742 47.0265 81.7639 47.2582L72.1606 67.4287L88.6558 79.076C89.1915 79.3308 89.6261 79.8761 89.7852 80.6048C90.0502 81.8186 89.4572 83.0644 88.4606 83.3872L59.9557 92.6202C58.9591 92.943 57.9363 92.2208 57.671 91.0068C57.6472 90.8973 57.638 90.7878 57.6278 90.6785C57.6241 90.6403 57.6148 90.6037 57.6129 90.5653C57.6092 90.4952 57.6159 90.4273 57.6176 90.3578C57.6191 90.2762 57.617 90.1948 57.6258 90.1132C57.6302 90.0745 57.641 90.0385 57.647 90.0003C57.6849 89.7512 57.7504 89.505 57.8604 89.2734L67.4637 69.1029L50.9688 57.4556C50.433 57.201 49.9985 56.6554 49.8394 55.9267C49.5741 54.713 50.1673 53.4671 51.164 53.1443L79.6686 43.9113C80.6655 43.5885 81.6883 44.3107 81.9533 45.5247Z" fill="#EAEAEA" fill-opacity="0.25"/>
<path d="M32.3859 51.9721L96.1382 91.696C96.6266 92.0003 97.2252 91.7647 97.4751 91.1699C97.725 90.5749 97.5317 89.8459 97.0432 89.5415L33.2911 49.8176C32.8025 49.5133 32.2039 49.7489 31.954 50.3437C31.7041 50.9387 31.8974 51.6677 32.3859 51.9721Z" fill="#EAEAEA" fill-opacity="0.25"/>
<path d="M30.4751 56.5198L94.2271 96.2437C94.7157 96.548 95.3143 96.3124 95.5642 95.7177C95.8141 95.1226 95.6208 94.3936 95.1323 94.0893L31.3802 54.3654C30.8916 54.061 30.293 54.2967 30.0431 54.8914C29.7932 55.4864 29.9865 56.2155 30.4751 56.5198Z" fill="#EAEAEA" fill-opacity="0.25"/>
<path d="M28.5644 61.0683L92.3167 100.792C92.805 101.097 93.4036 100.861 93.6536 100.266C93.9035 99.6711 93.7102 98.9421 93.2216 98.6377L29.4696 58.9138C28.981 58.6095 28.3824 58.8451 28.1325 59.4399C27.8825 60.0349 28.0758 60.7639 28.5644 61.0683Z" fill="#EAEAEA" fill-opacity="0.25"/>
</g>
<mask id="mask2_988_9297" style="mask-type:luminance" maskUnits="userSpaceOnUse" x="0" y="-394" width="467" height="1012">
<path d="M466.984 617.5L466.984 -393.5H0.0166016L0.0166016 617.5H466.984Z" fill="white"/>
</mask>
<g mask="url(#mask2_988_9297)">
<path d="M319.371 -2.40926L325.583 33.9141L352.72 17.0209L346.508 -19.3024L319.371 -2.40926ZM353.345 17.0488L373.784 44.3211L367.602 8.17359L347.164 -19.0987L353.345 17.0488ZM325.859 34.5736L346.398 61.9804L373.535 45.0872L352.996 17.6804L325.859 34.5736ZM346.601 -20.1892C346.604 -20.1913 346.608 -20.1929 346.612 -20.1947C346.628 -20.2026 346.644 -20.2089 346.66 -20.2131C346.661 -20.2134 346.662 -20.2139 346.663 -20.2142C346.665 -20.2147 346.667 -20.2144 346.669 -20.215C346.678 -20.2171 346.687 -20.2197 346.696 -20.2208C346.703 -20.2295 346.708 -20.2387 346.715 -20.2468C346.839 -20.3845 347.031 -20.374 347.145 -20.2229L368.107 7.74813C368.113 7.75682 368.118 7.76683 368.124 7.77604C368.128 7.78315 368.133 7.79026 368.137 7.79789C368.143 7.80869 368.148 7.82001 368.152 7.83133C368.157 7.84265 368.162 7.85397 368.166 7.86608C368.168 7.87477 368.17 7.88346 368.172 7.89215C368.175 7.9032 368.179 7.91373 368.181 7.92532L374.521 44.999C374.555 45.1991 374.449 45.3952 374.285 45.4368C374.275 45.4395 374.265 45.4395 374.255 45.4405C374.252 45.4453 374.248 45.4495 374.244 45.454C374.24 45.459 374.237 45.4645 374.233 45.4695C374.23 45.4719 374.228 45.4732 374.226 45.4755C374.218 45.4842 374.208 45.4919 374.199 45.4998C374.191 45.5066 374.183 45.5135 374.174 45.5192C374.171 45.5211 374.169 45.5237 374.166 45.5256L346.478 62.7618C346.474 62.7644 346.47 62.7655 346.466 62.7679C346.347 62.8405 346.199 62.8134 346.105 62.6881L325.143 34.7171C325.14 34.7126 325.138 34.7073 325.134 34.7026C325.13 34.6968 325.127 34.691 325.123 34.685C325.12 34.6792 325.116 34.6734 325.113 34.6673C325.109 34.6594 325.105 34.6518 325.101 34.6436C325.099 34.6399 325.097 34.6368 325.096 34.6331C325.094 34.6294 325.093 34.6257 325.092 34.622C325.089 34.6144 325.087 34.6068 325.084 34.5989C325.082 34.5931 325.08 34.587 325.079 34.581C325.076 34.5707 325.073 34.5604 325.071 34.5502C325.071 34.5465 325.069 34.5433 325.069 34.5399L318.729 -2.53379C318.701 -2.69518 318.766 -2.85262 318.877 -2.92976C318.885 -2.93504 318.891 -2.94161 318.898 -2.94635L346.586 -20.1823C346.591 -20.1852 346.596 -20.1865 346.601 -20.1892Z" fill="#0F1B1B" fill-opacity="0.07"/>
<path d="M77.0011 169.948L68.9563 205.733H99.433L107.478 169.948H77.0011ZM99.9798 206.105L107.986 241.718L115.992 206.105L107.986 170.493L99.9798 206.105ZM68.9557 206.474L77.0009 242.262H107.478L99.4324 206.474H68.9557ZM107.891 169.209C107.896 169.209 107.9 169.21 107.904 169.211C107.921 169.213 107.937 169.216 107.953 169.221C107.954 169.221 107.955 169.221 107.956 169.222C107.958 169.222 107.96 169.223 107.962 169.224C107.971 169.227 107.98 169.23 107.988 169.234C107.997 169.23 108.006 169.225 108.015 169.222C108.177 169.167 108.344 169.284 108.388 169.481L116.599 206.006C116.602 206.017 116.603 206.028 116.604 206.04C116.606 206.049 116.607 206.058 116.608 206.067C116.609 206.08 116.609 206.092 116.609 206.105C116.609 206.118 116.609 206.131 116.608 206.144C116.607 206.153 116.606 206.161 116.604 206.17C116.603 206.182 116.602 206.193 116.599 206.205L108.388 242.73C108.344 242.927 108.177 243.043 108.015 242.989C108.005 242.986 107.996 242.98 107.987 242.976C107.982 242.978 107.977 242.979 107.972 242.982C107.967 242.984 107.962 242.987 107.956 242.989C107.953 242.99 107.951 242.99 107.948 242.991C107.937 242.994 107.926 242.996 107.915 242.997C107.905 242.999 107.896 243.001 107.886 243.001C107.883 243.001 107.88 243.002 107.876 243.002H76.7806C76.7761 243.002 76.7717 243.001 76.7672 243.001C76.6342 243 76.5125 242.893 76.4758 242.73L68.2647 206.205C68.2634 206.199 68.2634 206.193 68.2623 206.187C68.261 206.18 68.26 206.172 68.2591 206.165C68.258 206.158 68.2569 206.151 68.2563 206.144C68.2556 206.134 68.2552 206.125 68.255 206.116C68.2548 206.112 68.2539 206.108 68.2539 206.104C68.2539 206.1 68.2548 206.096 68.255 206.092C68.2552 206.084 68.2556 206.075 68.2563 206.067C68.2569 206.06 68.2578 206.054 68.2584 206.048C68.26 206.037 68.2613 206.027 68.2634 206.016C68.2641 206.013 68.2641 206.009 68.2647 206.006L76.4758 169.481C76.5114 169.322 76.6273 169.217 76.7557 169.21C76.7642 169.209 76.7722 169.207 76.7806 169.207H107.876C107.881 169.207 107.886 169.209 107.891 169.209Z" fill="#0F1B1B" fill-opacity="0.07"/>
</g>
<mask id="mask3_988_9297" style="mask-type:luminance" maskUnits="userSpaceOnUse" x="0" y="-394" width="467" height="1012">
<path d="M466.984 617.5L466.984 -393.5H0.0166016L0.0166016 617.5H466.984Z" fill="white"/>
</mask>
<g mask="url(#mask3_988_9297)">
</g>
<mask id="mask4_988_9297" style="mask-type:luminance" maskUnits="userSpaceOnUse" x="0" y="-394" width="467" height="1012">
<path d="M466.984 617.5L466.984 -393.5H0.0166016L0.0166016 617.5H466.984Z" fill="white"/>
</mask>
<g mask="url(#mask4_988_9297)">
<path d="M162.552 132.261L166.031 123.907L159.171 119.671L162.552 132.261ZM172.357 114.336L168.879 122.69L175.739 126.926L172.357 114.336ZM157.173 116.123C157.22 116.104 157.267 116.095 157.315 116.085C157.331 116.082 157.347 116.075 157.364 116.072C157.394 116.068 157.424 116.07 157.454 116.069C157.49 116.068 157.525 116.064 157.561 116.067C157.578 116.069 157.594 116.075 157.611 116.078C157.721 116.095 157.83 116.13 157.935 116.194L167.02 121.804L171.608 110.785C171.703 110.431 171.928 110.134 172.241 110.009C172.762 109.801 173.323 110.148 173.494 110.783L178.372 128.948C178.543 129.583 178.258 130.266 177.737 130.474C177.69 130.493 177.642 130.502 177.595 130.512C177.578 130.515 177.562 130.522 177.546 130.525C177.516 130.529 177.486 130.527 177.455 130.528C177.42 130.529 177.384 130.533 177.348 130.53C177.331 130.528 177.315 130.522 177.299 130.52C177.189 130.502 177.079 130.467 176.975 130.403L167.89 124.793L163.302 135.812C163.207 136.166 162.982 136.463 162.669 136.588C162.147 136.796 161.586 136.449 161.416 135.814L156.537 117.649C156.367 117.014 156.651 116.331 157.173 116.123Z" fill="#D9D9D9" fill-opacity="0.25"/>
<path d="M232.219 164.327L240.861 184.918C241.111 185.513 241.71 185.749 242.198 185.445C242.687 185.14 242.88 184.411 242.631 183.816L233.988 163.226C233.738 162.631 233.14 162.395 232.651 162.699C232.162 163.003 231.969 163.732 232.219 164.327Z" fill="#D9D9D9" fill-opacity="0.25"/>
<path d="M228.483 166.652L237.126 187.243C237.376 187.838 237.974 188.074 238.463 187.77C238.952 187.465 239.145 186.736 238.895 186.141L230.253 165.551C230.003 164.956 229.404 164.72 228.916 165.024C228.427 165.328 228.234 166.057 228.483 166.652Z" fill="#D9D9D9" fill-opacity="0.25"/>
<path d="M224.748 168.978L233.391 189.569C233.64 190.164 234.239 190.399 234.728 190.095C235.216 189.791 235.41 189.062 235.16 188.467L226.517 167.876C226.268 167.281 225.669 167.045 225.18 167.35C224.692 167.654 224.498 168.383 224.748 168.978Z" fill="#D9D9D9" fill-opacity="0.25"/>
<path d="M221.013 171.303L229.656 191.894C229.905 192.489 230.504 192.724 230.993 192.42C231.481 192.116 231.675 191.387 231.425 190.792L222.782 170.201C222.532 169.606 221.934 169.37 221.445 169.674C220.957 169.979 220.763 170.708 221.013 171.303Z" fill="#D9D9D9" fill-opacity="0.25"/>
<path d="M217.278 173.628L225.92 194.219C226.17 194.814 226.769 195.049 227.257 194.745C227.746 194.441 227.939 193.712 227.69 193.117L219.047 172.526C218.797 171.931 218.199 171.695 217.71 172C217.221 172.304 217.028 173.033 217.278 173.628Z" fill="#D9D9D9" fill-opacity="0.25"/>
<path d="M213.542 175.953L222.185 196.544C222.435 197.139 223.034 197.375 223.522 197.071C224.011 196.766 224.204 196.037 223.954 195.442L215.312 174.852C215.062 174.257 214.463 174.021 213.975 174.325C213.486 174.629 213.293 175.358 213.542 175.953Z" fill="#D9D9D9" fill-opacity="0.25"/>
<path d="M209.807 178.278L218.45 198.869C218.7 199.464 219.298 199.7 219.787 199.396C220.275 199.092 220.469 198.363 220.219 197.768L211.576 177.177C211.327 176.582 210.728 176.346 210.239 176.65C209.751 176.954 209.557 177.683 209.807 178.278Z" fill="#D9D9D9" fill-opacity="0.25"/>
<path d="M206.072 180.604L214.715 201.195C214.964 201.79 215.563 202.025 216.051 201.721C216.54 201.417 216.733 200.688 216.484 200.093L207.841 179.503C207.591 178.908 206.993 178.672 206.504 178.976C206.016 179.28 205.822 180.009 206.072 180.604Z" fill="#D9D9D9" fill-opacity="0.25"/>
<path d="M202.336 182.929L210.979 203.52C211.229 204.115 211.827 204.351 212.316 204.047C212.805 203.743 212.998 203.014 212.748 202.419L204.106 181.828C203.856 181.233 203.257 180.997 202.769 181.301C202.28 181.605 202.087 182.334 202.336 182.929Z" fill="#D9D9D9" fill-opacity="0.25"/>
<path d="M198.601 185.255L207.244 205.845C207.494 206.44 208.092 206.676 208.581 206.372C209.07 206.068 209.263 205.339 209.013 204.744L200.371 184.153C200.121 183.558 199.522 183.322 199.034 183.626C198.545 183.93 198.352 184.66 198.601 185.255Z" fill="#D9D9D9" fill-opacity="0.25"/>
<path d="M194.866 187.58L203.509 208.171C203.758 208.766 204.357 209.001 204.846 208.697C205.334 208.393 205.528 207.664 205.278 207.069L196.635 186.478C196.386 185.883 195.787 185.647 195.298 185.952C194.81 186.256 194.616 186.985 194.866 187.58Z" fill="#D9D9D9" fill-opacity="0.25"/>
<path d="M297.448 201.774L289.016 193.058C288.598 192.626 287.971 192.688 287.616 193.198C287.261 193.707 287.312 194.471 287.73 194.903L296.162 203.619C296.58 204.052 297.207 203.989 297.562 203.48C297.917 202.97 297.866 202.206 297.448 201.774Z" fill="#D9D9D9" fill-opacity="0.25"/>
<path d="M300.742 211.175L292.31 202.459C291.892 202.027 291.265 202.089 290.91 202.599C290.555 203.108 290.606 203.872 291.024 204.304L299.456 213.02C299.874 213.452 300.501 213.39 300.856 212.881C301.211 212.371 301.16 211.607 300.742 211.175Z" fill="#D9D9D9" fill-opacity="0.25"/>
<path d="M303.615 220.141L295.184 211.425C294.765 210.993 294.138 211.055 293.783 211.565C293.428 212.074 293.479 212.838 293.898 213.27L302.329 221.986C302.748 222.418 303.375 222.356 303.73 221.847C304.085 221.337 304.034 220.573 303.615 220.141Z" fill="#D9D9D9" fill-opacity="0.25"/>
<path d="M288.627 200.238C288.982 199.729 288.931 198.965 288.512 198.533C288.094 198.1 287.467 198.163 287.112 198.672C286.757 199.182 286.808 199.945 287.227 200.378C287.645 200.81 288.272 200.748 288.627 200.238Z" fill="#D9D9D9" fill-opacity="0.25"/>
<path d="M292.23 209.958C292.585 209.449 292.534 208.685 292.115 208.253C291.697 207.82 291.07 207.883 290.715 208.392C290.36 208.902 290.411 209.665 290.83 210.098C291.248 210.53 291.875 210.468 292.23 209.958Z" fill="#D9D9D9" fill-opacity="0.25"/>
<path d="M301.069 207.105C301.424 206.595 301.373 205.832 300.954 205.399C300.536 204.967 299.909 205.029 299.554 205.539C299.199 206.048 299.25 206.812 299.668 207.244C300.087 207.676 300.714 207.614 301.069 207.105Z" fill="#D9D9D9" fill-opacity="0.25"/>
<path d="M304.587 216.738C304.943 216.228 304.891 215.465 304.473 215.032C304.055 214.6 303.428 214.662 303.073 215.172C302.717 215.681 302.769 216.445 303.187 216.877C303.605 217.309 304.232 217.247 304.587 216.738Z" fill="#D9D9D9" fill-opacity="0.25"/>
<path d="M255.287 45.5744L240.162 47.0807C239.615 47.1352 239.208 47.7191 239.253 48.3852L239.304 49.1461C239.349 49.812 239.829 50.308 240.375 50.2535L255.5 48.7472C256.047 48.6927 256.454 48.1085 256.409 47.4427L256.358 46.6818C256.314 46.0157 255.834 45.5199 255.287 45.5744Z" fill="#D9D9D9" fill-opacity="0.25"/>
<path d="M265.532 50.5874L250.407 52.0936C249.86 52.1481 249.453 52.7321 249.498 53.3982L249.549 54.1591C249.593 54.8249 250.073 55.3209 250.62 55.2664L265.744 53.7602C266.291 53.7057 266.699 53.1215 266.654 52.4556L266.603 51.6947C266.558 51.0286 266.079 50.5329 265.532 50.5874Z" fill="#D9D9D9" fill-opacity="0.25"/>
<path d="M275.052 55.6722L259.928 57.1784C259.381 57.2329 258.974 57.8169 259.018 58.483L259.069 59.2439C259.114 59.91 259.594 60.4058 260.14 60.3513L275.265 58.845C275.812 58.7905 276.219 58.2066 276.175 57.5405L276.124 56.7796C276.079 56.1135 275.599 55.6177 275.052 55.6722Z" fill="#D9D9D9" fill-opacity="0.25"/>
<path d="M245.597 54.1694C245.538 53.2932 244.907 52.6411 244.188 52.7127C243.468 52.7846 242.933 53.5528 242.992 54.429C243.051 55.305 243.682 55.9571 244.401 55.8855C245.12 55.8139 245.656 55.0456 245.597 54.1694Z" fill="#D9D9D9" fill-opacity="0.25"/>
<path d="M256.372 59.1294C256.313 58.2532 255.683 57.601 254.963 57.6727C254.244 57.7445 253.708 58.5128 253.767 59.389C253.826 60.2649 254.457 60.9171 255.176 60.8455C255.895 60.7738 256.431 60.0056 256.372 59.1294Z" fill="#D9D9D9" fill-opacity="0.25"/>
<path d="M262.415 46.4617C262.356 45.5855 261.725 44.9333 261.006 45.0049C260.286 45.0768 259.751 45.8451 259.809 46.7213C259.868 47.5972 260.499 48.2493 261.218 48.1777C261.938 48.1061 262.473 47.3379 262.415 46.4617Z" fill="#D9D9D9" fill-opacity="0.25"/>
<path d="M273.045 51.4363C272.986 50.5601 272.355 49.9079 271.636 49.9795C270.916 50.0511 270.381 50.8194 270.44 51.6956C270.499 52.5718 271.13 53.224 271.849 53.1523C272.568 53.0807 273.104 52.3125 273.045 51.4363Z" fill="#D9D9D9" fill-opacity="0.25"/>
<path d="M318.476 127.763C316.115 125.487 312.687 125.972 310.818 128.847C308.949 131.722 309.347 135.898 311.708 138.174C314.069 140.451 317.497 139.965 319.366 137.09C321.235 134.215 320.837 130.039 318.476 127.763Z" fill="#D9D9D9" fill-opacity="0.25"/>
<path d="M220.238 63.4838L220.974 64.6968C222.566 67.3188 222.111 71.0158 219.958 72.954L206.339 85.2156C204.186 87.1541 201.15 86.5999 199.559 83.9779L189.491 67.3928C187.899 64.7707 188.354 61.0737 190.507 59.1352L191.503 58.2387C192.947 56.9379 193.253 54.4575 192.185 52.6982L191.448 51.4853C189.857 48.8633 190.312 45.1663 192.465 43.2278L206.083 30.9665C208.236 29.0279 211.272 29.5821 212.864 32.2042L222.932 48.7893C224.524 51.4113 224.069 55.1083 221.916 57.0466L220.92 57.9433C219.475 59.2439 219.17 61.7246 220.238 63.4838Z" stroke="#0F1B1B" stroke-opacity="0.07" stroke-width="2.6124" stroke-miterlimit="10"/>
<path d="M209.76 70.5363L202.407 77.1565C201.339 78.118 201.113 79.9517 201.902 81.2524L207.338 90.2071C208.128 91.5077 209.634 91.7825 210.702 90.821L218.055 84.2008C219.123 83.2393 219.348 81.4053 218.559 80.105L213.123 71.1503C212.333 69.8496 210.827 69.5748 209.76 70.5363Z" fill="#D9D9D9" fill-opacity="0.25"/>
<path d="M89.199 310.042L74.0743 311.548C73.5273 311.603 73.1202 312.187 73.165 312.853L73.216 313.614C73.2608 314.28 73.7405 314.776 74.2872 314.721L89.412 313.215C89.9589 313.16 90.366 312.576 90.3213 311.91L90.2702 311.149C90.2255 310.483 89.746 309.987 89.199 310.042Z" fill="#D9D9D9" fill-opacity="0.25"/>
<path d="M99.4434 315.055L84.3187 316.561C83.7717 316.616 83.3646 317.2 83.4094 317.866L83.4604 318.627C83.5051 319.293 83.9849 319.789 84.5316 319.734L99.6564 318.228C100.203 318.173 100.61 317.589 100.566 316.923L100.515 316.163C100.47 315.496 99.9904 315.001 99.4434 315.055Z" fill="#D9D9D9" fill-opacity="0.25"/>
<path d="M108.964 320.14L93.8394 321.646C93.2925 321.701 92.8854 322.285 92.9301 322.951L92.9811 323.712C93.0259 324.378 93.5056 324.874 94.0524 324.819L109.177 323.313C109.724 323.258 110.131 322.674 110.086 322.008L110.035 321.247C109.991 320.581 109.511 320.086 108.964 320.14Z" fill="#D9D9D9" fill-opacity="0.25"/>
<path d="M79.5089 318.637C79.4501 317.761 78.8192 317.109 78.0998 317.181C77.3803 317.252 76.8448 318.021 76.9036 318.897C76.9624 319.773 77.5934 320.425 78.3127 320.353C79.0322 320.282 79.5677 319.514 79.5089 318.637Z" fill="#D9D9D9" fill-opacity="0.25"/>
<path d="M90.2843 323.597C90.2255 322.721 89.5946 322.069 88.8751 322.141C88.1557 322.212 87.6202 322.981 87.679 323.857C87.7378 324.733 88.3686 325.385 89.0881 325.313C89.8076 325.242 90.3431 324.473 90.2843 323.597Z" fill="#D9D9D9" fill-opacity="0.25"/>
<path d="M96.3263 310.929C96.2675 310.053 95.6366 309.401 94.9171 309.473C94.1977 309.544 93.6622 310.313 93.721 311.189C93.7798 312.065 94.4106 312.717 95.1301 312.646C95.8496 312.574 96.3851 311.806 96.3263 310.929Z" fill="#D9D9D9" fill-opacity="0.25"/>
<path d="M106.957 315.904C106.898 315.028 106.267 314.376 105.548 314.447C104.828 314.519 104.293 315.287 104.352 316.163C104.41 317.039 105.041 317.692 105.761 317.62C106.48 317.548 107.016 316.78 106.957 315.904Z" fill="#D9D9D9" fill-opacity="0.25"/>
<path d="M65.1306 287.832L65.8669 289.045C67.4587 291.667 67.0036 295.364 64.8506 297.303L51.232 309.564C49.079 311.503 46.0433 310.949 44.4515 308.327L34.3834 291.741C32.7916 289.119 33.2467 285.422 35.3997 283.484L36.3957 282.587C37.8402 281.287 38.1455 278.806 37.0775 277.047L36.3412 275.834C34.7494 273.212 35.2045 269.515 37.3575 267.576L50.9761 255.315C53.1291 253.377 56.1648 253.931 57.7566 256.553L67.8247 273.138C69.4165 275.76 68.9614 279.457 66.8084 281.395L65.8124 282.292C64.3678 283.593 64.0626 286.073 65.1306 287.832Z" stroke="#0F1B1B" stroke-opacity="0.07" stroke-width="1.3062" stroke-miterlimit="10"/>
<path d="M356.127 120.67L356.863 121.883C358.455 124.505 358 128.202 355.847 130.14L342.229 142.401C340.076 144.34 337.04 143.786 335.448 141.164L325.38 124.579C323.788 121.957 324.243 118.26 326.396 116.321L327.392 115.425C328.837 114.124 329.142 111.643 328.074 109.884L327.338 108.671C325.746 106.049 326.201 102.352 328.354 100.414L341.973 88.1523C344.126 86.2137 347.161 86.7679 348.753 89.39L358.821 105.975C360.413 108.597 359.958 112.294 357.805 114.232L356.809 115.129C355.364 116.43 355.059 118.91 356.127 120.67Z" stroke="#0F1B1B" stroke-opacity="0.07" stroke-width="1.3062" stroke-miterlimit="10"/>
</g>
</g>
</g>
<defs>
<clipPath id="clip0_988_9297">
<rect width="375" height="330" fill="white"/>
</clipPath>
<clipPath id="clip1_988_9297">
<rect width="606" height="467" fill="white" transform="matrix(0 -1 -1 0 467 617)"/>
</clipPath>
</defs>
</svg>
