<svg xmlns="http://www.w3.org/2000/svg" width="375" height="287" fill="none"><g clip-path="url(#a)"><path fill="#212439" d="M0 0h375v287H0z"/><path stroke="#DCDCDC" stroke-dasharray="2.84 2.84" d="M0-.5h276" transform="matrix(.00133 1 -1 .00136 320.496 0)"/><ellipse cx="32.01" cy="32.004" fill="url(#b)" rx="32.01" ry="32.004" transform="matrix(.49983 -.86612 .79413 .60775 293.17 86.316)"/><path stroke="#DCDCDC" stroke-dasharray="2.84 2.84" d="M0-.5h265.301" transform="rotate(179.86 185.551 79.261) skewX(-.037)"/><path stroke="#B0B0B0" stroke-dasharray="2.84 2.84" d="M7.784 27.771s31.876-7.84 34.187 25.391c2.311 33.232 14.633 32.008 39.392 29.256 24.759-2.75 31.931 60.39 60.44 44.89 28.51-15.5 30.256 53.75 58.117 25.23"/><ellipse cx="15.992" cy="15.867" fill="url(#c)" rx="15.992" ry="15.867" transform="matrix(.2989 -.95428 .92101 .38953 244.135 124.059)"/><ellipse cx="213.162" cy="135.014" fill="url(#d)" rx="9.004" ry="8.912" transform="rotate(-90 213.162 135.014)"/></g><defs><radialGradient id="b" cx="0" cy="0" r="1" gradientTransform="rotate(-135.705 44.062 16.583) scale(77.9497 61.3885)" gradientUnits="userSpaceOnUse"><stop offset=".147" stop-color="#EAEAEA"/><stop offset=".31" stop-color="#E6FFFC"/><stop offset=".386" stop-color="#C2F7F7"/><stop offset=".477" stop-color="#B0EEF2"/><stop offset=".644" stop-color="#8EE9D8"/><stop offset=".79" stop-color="#6DDDDD"/><stop offset=".915" stop-color="#3073C1"/><stop offset="1" stop-color="#638B9F"/></radialGradient><radialGradient id="c" cx="0" cy="0" r="1" gradientTransform="rotate(-135.923 21.935 8.207) scale(38.7987 30.5489)" gradientUnits="userSpaceOnUse"><stop offset=".147" stop-color="#EAEAEA"/><stop offset=".31" stop-color="#FFE6ED"/><stop offset=".386" stop-color="#F7C2DC"/><stop offset=".477" stop-color="#F2B0D0"/><stop offset=".644" stop-color="#E98ED1"/><stop offset=".79" stop-color="#6D73DD"/><stop offset=".915" stop-color="#3073C1"/><stop offset="1" stop-color="#638B9F"/></radialGradient><radialGradient id="d" cx="0" cy="0" r="1" gradientTransform="rotate(-135.994 139.893 26.41) scale(21.8184 17.1777)" gradientUnits="userSpaceOnUse"><stop offset=".147" stop-color="#EAEAEA"/><stop offset=".31" stop-color="#E6FFFC"/><stop offset=".386" stop-color="#C2F7F7"/><stop offset=".477" stop-color="#B0EEF2"/><stop offset=".644" stop-color="#8EE9D8"/><stop offset=".79" stop-color="#6DDDDD"/><stop offset=".915" stop-color="#3073C1"/><stop offset="1" stop-color="#638B9F"/></radialGradient><clipPath id="a"><path fill="#fff" d="M0 0h375v287H0z"/></clipPath></defs></svg>