<svg width="375" height="287" viewBox="0 0 375 287" fill="none" xmlns="http://www.w3.org/2000/svg">
<g clip-path="url(#clip0_240_3981)">
<rect width="375" height="287" fill="#212439"/>
<line y1="-0.5" x2="276" y2="-0.5" transform="matrix(0.00133333 0.999999 -0.999999 0.00136004 320.496 0)" stroke="#DCDCDC" stroke-dasharray="2.84 2.84"/>
<ellipse cx="32.0095" cy="32.0041" rx="32.0095" ry="32.0041" transform="matrix(0.499832 -0.866122 0.794131 0.607747 293.17 86.3159)" fill="url(#paint0_radial_240_3981)"/>
<line y1="-0.5" x2="265.301" y2="-0.5" transform="matrix(-0.999997 0.00248824 -0.00184277 -0.999998 371.299 158.06)" stroke="#DCDCDC" stroke-dasharray="2.84 2.84"/>
<path d="M7.78394 27.7715C7.78394 27.7715 39.6597 19.9301 41.971 53.1623C44.2823 86.3945 56.6036 85.1696 81.3626 82.4185C106.122 79.6673 113.294 142.808 141.803 127.308C170.313 111.808 172.059 181.058 199.92 152.538" stroke="#B0B0B0" stroke-dasharray="2.84 2.84"/>
<ellipse cx="15.9917" cy="15.8672" rx="15.9917" ry="15.8672" transform="matrix(0.298905 -0.954283 0.921013 0.389531 244.135 124.059)" fill="url(#paint1_radial_240_3981)"/>
<ellipse cx="213.162" cy="135.014" rx="9.00369" ry="8.9115" transform="rotate(-90 213.162 135.014)" fill="url(#paint2_radial_240_3981)"/>
</g>
<defs>
<radialGradient id="paint0_radial_240_3981" cx="0" cy="0" r="1" gradientUnits="userSpaceOnUse" gradientTransform="translate(64.0191 59.2225) rotate(-135.705) scale(77.9497 61.3885)">
<stop offset="0.146825" stop-color="#EAEAEA"/>
<stop offset="0.309839" stop-color="#E6FFFC"/>
<stop offset="0.386422" stop-color="#C2F7F7"/>
<stop offset="0.477083" stop-color="#B0EEF2"/>
<stop offset="0.64375" stop-color="#8EE9D8"/>
<stop offset="0.789583" stop-color="#6DDDDD"/>
<stop offset="0.914583" stop-color="#3073C1"/>
<stop offset="1" stop-color="#638B9F"/>
</radialGradient>
<radialGradient id="paint1_radial_240_3981" cx="0" cy="0" r="1" gradientUnits="userSpaceOnUse" gradientTransform="translate(31.9834 29.3618) rotate(-135.923) scale(38.7987 30.5489)">
<stop offset="0.146825" stop-color="#EAEAEA"/>
<stop offset="0.309839" stop-color="#FFE6ED"/>
<stop offset="0.386422" stop-color="#F7C2DC"/>
<stop offset="0.477083" stop-color="#F2B0D0"/>
<stop offset="0.64375" stop-color="#E98ED1"/>
<stop offset="0.789583" stop-color="#6D73DD"/>
<stop offset="0.914583" stop-color="#3073C1"/>
<stop offset="1" stop-color="#638B9F"/>
</radialGradient>
<radialGradient id="paint2_radial_240_3981" cx="0" cy="0" r="1" gradientUnits="userSpaceOnUse" gradientTransform="translate(222.166 142.593) rotate(-135.994) scale(21.8184 17.1777)">
<stop offset="0.146825" stop-color="#EAEAEA"/>
<stop offset="0.309839" stop-color="#E6FFFC"/>
<stop offset="0.386422" stop-color="#C2F7F7"/>
<stop offset="0.477083" stop-color="#B0EEF2"/>
<stop offset="0.64375" stop-color="#8EE9D8"/>
<stop offset="0.789583" stop-color="#6DDDDD"/>
<stop offset="0.914583" stop-color="#3073C1"/>
<stop offset="1" stop-color="#638B9F"/>
</radialGradient>
<clipPath id="clip0_240_3981">
<rect width="375" height="287" fill="white"/>
</clipPath>
</defs>
</svg>
