<svg xmlns="http://www.w3.org/2000/svg" width="768" height="763" fill="none"><g clip-path="url(#a)"><path fill="#F0F2F7" d="M0 0h770v763H0z"/><circle cx="20" cy="36" r="10" fill="url(#b)"/><path fill="#fff" d="M372 160h398v427H372z"/><circle cx="770.453" cy="72.22" r="37.08" fill="url(#c)"/><path fill="#212121" d="m817.292 74.14.948.077-.183 2.257c-.04.488.054.874.28 1.158.227.285.553.444.977.478.4.033.743-.072 1.028-.315.285-.234.447-.596.487-1.084l.184-2.269.985.08-.188 2.305c-.042.528-.184.98-.424 1.355a2.16 2.16 0 0 1-.901.833 2.28 2.28 0 0 1-1.239.226c-.472-.038-.875-.18-1.21-.425a2.16 2.16 0 0 1-.755-.967c-.161-.408-.219-.876-.176-1.404l.187-2.305Zm-3.564-1.05 8.331.676-.092 1.128-8.331-.676.092-1.129Zm-.39 4.801 3.979-2.722.285 1.099-4.38 3.052.116-1.429ZM812.395 82.37a2.58 2.58 0 0 1 .594-1.16c.295-.31.651-.523 1.066-.64.415-.117.865-.12 1.349-.005l3.237.759-.248 1.055-3.189-.748a1.986 1.986 0 0 0-.833-.035c-.245.058-.45.175-.615.35-.165.177-.279.401-.343.675-.098.414-.045.769.158 1.064.211.297.547.5 1.008.608l3.19.748-.248 1.055-3.236-.76c-.485-.113-.887-.314-1.207-.604a2.303 2.303 0 0 1-.669-1.048c-.121-.4-.126-.837-.014-1.314ZM810.37 88.843c.163-.402.392-.733.689-.994.301-.25.639-.413 1.015-.485a2.213 2.213 0 0 1 1.147.088l1.596.647c.378.18.673.424.885.735.216.322.341.676.375 1.062.038.397-.022.793-.182 1.187-.196.484-.496.87-.898 1.157-.406.294-.862.469-1.369.523a3.162 3.162 0 0 1-1.542-.235 3.162 3.162 0 0 1-1.271-.905 2.798 2.798 0 0 1-.618-1.33 2.638 2.638 0 0 1 .173-1.45Zm1.016.217c-.135.335-.176.66-.123.977.054.316.185.603.392.86.215.261.501.464.858.608.35.142.693.195 1.028.157a1.73 1.73 0 0 0 .881-.344c.259-.19.455-.448.587-.776.136-.335.177-.66.123-.977a1.648 1.648 0 0 0-.396-.85 2.204 2.204 0 0 0-.863-.596 2.28 2.28 0 0 0-1.019-.18 1.754 1.754 0 0 0-.876.334c-.262.198-.459.46-.592.787Zm.227-2.962 7.969 3.23-.407 1.005-3.963-1.606-1.206-.71-1.372-.335-1.429-.58.408-1.004ZM807.721 94.473l6.226.821-.617 1.035-4.823-.728.197-.331 2.888 3.977-.616 1.035-3.588-5.25.333-.559Zm-1.18-2.609 2.107 3.218-1.26-.05-1.463-2.133.616-1.035ZM801.429 102.779c.388-.406.834-.68 1.336-.822a2.996 2.996 0 0 1 1.516-.033c.514.125.973.382 1.379.771.401.383.669.823.804 1.32a2.97 2.97 0 0 1 .033 1.515 2.924 2.924 0 0 1-.762 1.371 2.9 2.9 0 0 1-1.328.813 2.856 2.856 0 0 1-1.515.05 2.912 2.912 0 0 1-1.363-.754 2.999 2.999 0 0 1-.83-1.345 2.949 2.949 0 0 1-.024-1.524c.119-.508.37-.962.754-1.362Zm.756.724a1.84 1.84 0 0 0-.483.871c-.073.32-.06.638.038.954.103.321.291.612.564.873.267.256.563.422.888.5.32.084.635.08.946-.012.31-.08.59-.251.84-.512s.411-.551.484-.871a1.737 1.737 0 0 0-.029-.945 2.003 2.003 0 0 0-.547-.857 2.09 2.09 0 0 0-.898-.525 1.816 1.816 0 0 0-.954.003c-.316.087-.599.26-.849.521ZM795.4 108.246l2.031 2.647c.264.344.59.544.978.601.387.057.753-.047 1.097-.311.229-.176.394-.383.494-.622a1.39 1.39 0 0 0 .098-.743 1.531 1.531 0 0 0-.316-.729l.507-.07c.264.344.423.708.475 1.093.052.385 0 .759-.156 1.122-.152.369-.4.686-.744.95a2.03 2.03 0 0 1-1.106.438 2.315 2.315 0 0 1-1.151-.194 2.246 2.246 0 0 1-.904-.703l-2.163-2.819.86-.66Zm3.211-2.463 3.483 4.539-.86.659-3.483-4.539.86-.659ZM790.71 115.364l.384.87-2.072.913c-.448.198-.743.464-.886.799-.142.334-.127.696.045 1.086.162.367.417.618.767.754.342.139.737.11 1.185-.088l2.083-.918.398.904-2.116.932c-.485.214-.95.305-1.394.272a2.156 2.156 0 0 1-1.161-.396 2.282 2.282 0 0 1-.789-.982c-.191-.433-.258-.855-.202-1.266.048-.408.212-.783.491-1.125.283-.335.666-.609 1.151-.823l2.116-.932Zm-.772-3.635 3.37 7.649-1.036.457-3.37-7.649 1.036-.457Zm-4.409 1.943 4.288 2.204-.83.774-4.769-2.4 1.311-.578ZM780.989 115.002a2.693 2.693 0 0 1 1.472.022c.478.152.893.415 1.245.789.344.377.586.837.725 1.382a3.15 3.15 0 0 1 .024 1.559c-.13.498-.365.926-.704 1.286a2.655 2.655 0 0 1-1.291.739c-.42.107-.816.113-1.188.017a2.159 2.159 0 0 1-1.599-1.494l-.425-1.669a2.213 2.213 0 0 1 .068-1.149 2.13 2.13 0 0 1 .606-.937 2.475 2.475 0 0 1 1.067-.545Zm.077 1.036c-.521.133-.897.415-1.126.847-.228.439-.272.935-.131 1.487.097.381.255.693.474.936.214.252.473.422.777.51.306.096.634.1.984.011.35-.09.641-.251.872-.483.222-.231.375-.51.457-.838a2.105 2.105 0 0 0-.025-1.025 2.213 2.213 0 0 0-.474-.936 1.818 1.818 0 0 0-.812-.501 1.837 1.837 0 0 0-.996-.008Zm-1.892-.45.381 1.494.146 1.405.541 1.291.345 1.354-1.062.271-1.413-5.544 1.062-.271ZM776.031 116.161l.747 5.672-1.074.141-.748-5.671 1.075-.142Zm.36 6.877a.666.666 0 0 1 .514.127.704.704 0 0 1 .257.476.649.649 0 0 1-.128.503.645.645 0 0 1-.463.267.65.65 0 0 1-.516-.138.656.656 0 0 1-.254-.453.712.712 0 0 1 .125-.526.667.667 0 0 1 .465-.256ZM773.018 116.505l.53 8.583-1.082.067-.53-8.583 1.082-.067ZM768.106 116.499c.321.012.625.064.91.156.278.099.534.229.769.391.234.17.436.366.604.59l-.725.671a2.06 2.06 0 0 0-.7-.606 2.26 2.26 0 0 0-.908-.216c-.337-.013-.6.034-.788.139a.56.56 0 0 0-.296.483.563.563 0 0 0 .21.49c.14.126.324.229.554.31.23.09.476.175.738.258.253.09.494.2.722.329.228.129.414.301.559.516.136.214.198.494.184.839a1.546 1.546 0 0 1-.287.88 1.62 1.62 0 0 1-.721.563c-.31.125-.677.179-1.103.163a2.806 2.806 0 0 1-1.182-.287 2.042 2.042 0 0 1-.839-.732l.725-.671c.152.215.346.383.583.505.228.121.491.188.787.199.313.012.556-.035.729-.141a.499.499 0 0 0 .258-.436.518.518 0 0 0-.199-.453 1.96 1.96 0 0 0-.556-.287 57.042 57.042 0 0 1-.737-.257 3.469 3.469 0 0 1-.723-.329 1.61 1.61 0 0 1-.545-.54c-.144-.222-.21-.51-.196-.863.021-.538.23-.956.627-1.254.389-.298.905-.435 1.546-.41ZM759.027 119.183l-.249.918-2.185-.592c-.473-.128-.87-.107-1.19.064-.321.171-.537.462-.649.873-.105.387-.064.744.123 1.069.178.323.504.548.977.676l2.197.596-.259.953-2.232-.605c-.511-.139-.929-.36-1.254-.665a2.149 2.149 0 0 1-.655-1.038 2.283 2.283 0 0 1 .004-1.259c.124-.457.337-.828.639-1.112a2.157 2.157 0 0 1 1.089-.566c.43-.083.901-.056 1.412.083l2.232.605Zm1.684-3.312-2.186 8.067-1.093-.296 2.186-8.067 1.093.296Zm-4.65-1.26 1.95 4.409-1.132.08-2.201-4.864 1.383.375ZM751.774 112.821a2.57 2.57 0 0 1 1.028.8c.249.349.392.738.429 1.167.038.43-.045.872-.247 1.327l-1.352 3.037-.991-.441 1.333-2.993c.127-.286.19-.557.19-.812a1.208 1.208 0 0 0-.23-.669 1.451 1.451 0 0 0-.598-.464c-.388-.173-.747-.187-1.074-.043-.332.151-.593.444-.786.876l-1.332 2.993-.991-.441 1.352-3.036c.203-.455.476-.813.82-1.072.344-.26.729-.414 1.155-.462.415-.044.846.034 1.294.233ZM745.854 109.66c.365.234.648.52.85.86a2.21 2.21 0 0 1-.007 2.198l-.93 1.45a2.16 2.16 0 0 1-.886.734 2.224 2.224 0 0 1-1.113.173 2.476 2.476 0 0 1-1.133-.397 2.572 2.572 0 0 1-.971-1.096 2.782 2.782 0 0 1-.263-1.442c.04-.508.212-.999.515-1.472a3.16 3.16 0 0 1 1.124-1.082c.445-.249.919-.37 1.42-.363.49.009.955.155 1.394.437Zm-.401.959a1.777 1.777 0 0 0-.937-.301 1.843 1.843 0 0 0-.918.227 2.114 2.114 0 0 0-.756.731 2.1 2.1 0 0 0-.343.982c-.025.337.034.646.177.929.138.289.356.529.654.72.304.195.616.295.937.301.317.012.619-.066.908-.233.289-.168.537-.414.746-.738.203-.318.325-.641.363-.969a1.759 1.759 0 0 0-.166-.923 1.818 1.818 0 0 0-.665-.726Zm2.87.768-4.643 7.238-.912-.585 2.309-3.599.92-1.055.582-1.287.832-1.298.912.586ZM740.821 106.029l-1.938 5.973-.906-.794 1.593-4.611.29.254-4.436 2.118-.906-.795 5.814-2.574.489.429Zm2.78-.686-3.547 1.487.278-1.23 2.364-1.051.905.794ZM733.796 98.313a2.941 2.941 0 0 1 .314 2.961 3.005 3.005 0 0 1-1.013 1.214c-.45.322-.932.505-1.445.546a2.98 2.98 0 0 1-1.496-.247 2.936 2.936 0 0 1-1.207-1.002 2.914 2.914 0 0 1-.553-1.456 2.86 2.86 0 0 1 .23-1.498c.212-.477.542-.877.993-1.2a2.995 2.995 0 0 1 1.475-.567 2.95 2.95 0 0 1 1.502.257c.478.21.878.542 1.2.992Zm-.852.61a1.837 1.837 0 0 0-.766-.636 1.816 1.816 0 0 0-.944-.139 2.095 2.095 0 0 0-.963.394c-.3.215-.519.475-.656.78-.141.3-.195.61-.162.932.022.32.138.627.348.921.211.293.466.505.767.636.294.135.606.183.934.145.329-.037.643-.164.943-.379a2.09 2.09 0 0 0 .682-.785c.142-.299.199-.611.173-.938a1.835 1.835 0 0 0-.356-.93ZM729.548 91.425l-2.973 1.513c-.387.197-.643.48-.77.852-.126.37-.091.749.105 1.135.132.258.305.458.522.6a1.4 1.4 0 0 0 .712.232c.259.012.517-.047.775-.178l-.023.512a2.291 2.291 0 0 1-1.162.267 2.073 2.073 0 0 1-1.074-.359 2.281 2.281 0 0 1-.799-.905 2.037 2.037 0 0 1-.229-1.167c.04-.399.174-.764.402-1.096.22-.328.505-.582.856-.76l3.166-1.612.492.966Zm1.836 3.606-5.099 2.596-.491-.966 5.098-2.596.492.966ZM723.441 85.607l-.926.218-.518-2.205c-.111-.477-.319-.816-.622-1.017-.302-.2-.661-.253-1.075-.155a1.358 1.358 0 0 0-.883.615c-.199.31-.243.704-.131 1.181l.52 2.216-.962.226-.528-2.252c-.121-.516-.125-.989-.011-1.42a2.15 2.15 0 0 1 .603-1.069c.294-.291.664-.49 1.11-.594.461-.108.888-.097 1.282.033.391.123.73.353 1.015.69.277.339.477.766.598 1.282l.528 2.251Zm3.714-.092-8.137 1.91-.259-1.103 8.138-1.909.258 1.102Zm-1.1-4.69-2.953 3.81-.609-.958 3.235-4.247.327 1.395ZM725.561 76.024a2.7 2.7 0 0 1-.297 1.443 2.88 2.88 0 0 1-1.008 1.076 3.16 3.16 0 0 1-1.492.454 3.163 3.163 0 0 1-1.537-.267 2.927 2.927 0 0 1-1.132-.932 2.665 2.665 0 0 1-.485-1.406 2.37 2.37 0 0 1 .206-1.17 2.16 2.16 0 0 1 1.766-1.292l1.719-.107c.41-.001.782.093 1.115.281.333.18.603.438.808.77.197.326.31.71.337 1.15Zm-1.033-.117c-.033-.537-.24-.958-.621-1.265-.389-.305-.868-.44-1.437-.405-.393.024-.729.12-1.008.291a1.577 1.577 0 0 0-.647.667 1.77 1.77 0 0 0-.193.966c.022.36.126.676.312.946.185.262.431.464.737.606.298.134.635.19 1.012.167.385-.024.72-.121 1.008-.292.278-.178.493-.413.644-.703.151-.291.215-.617.193-.978Zm.795-1.775-1.539.096-1.407-.119-1.369.29-1.395.086-.067-1.094 5.71-.352.067 1.093ZM725.332 70.743l-5.712-.33.063-1.083 5.711.331-.062 1.082Zm-6.823-.938a.668.668 0 0 1-.22.482.711.711 0 0 1-.517.163.65.65 0 0 1-.469-.22.646.646 0 0 1-.176-.505c.011-.2.089-.36.233-.481a.652.652 0 0 1 .492-.165c.2.012.365.086.494.222a.67.67 0 0 1 .163.504ZM725.534 67.875 717 66.817l.133-1.075 8.534 1.057-.133 1.076ZM726.426 63.095a3.412 3.412 0 0 1-.32.866 3.301 3.301 0 0 1-.525.683c-.21.2-.44.362-.691.486l-.527-.835c.297-.147.538-.34.724-.578.178-.24.304-.523.378-.852.075-.33.078-.596.009-.801a.562.562 0 0 0-.42-.38.563.563 0 0 0-.521.117 1.637 1.637 0 0 0-.407.489c-.13.209-.259.435-.388.677-.135.233-.287.45-.456.65a1.64 1.64 0 0 1-.609.455c-.236.095-.522.104-.859.028a1.547 1.547 0 0 1-.813-.444 1.617 1.617 0 0 1-.421-.812c-.066-.327-.052-.699.042-1.114.099-.438.266-.808.499-1.11.226-.31.517-.54.872-.69l.527.835c-.239.11-.44.27-.603.48a1.812 1.812 0 0 0-.34.739c-.069.305-.067.552.005.742.066.18.194.29.381.333a.518.518 0 0 0 .483-.113 1.93 1.93 0 0 0 .383-.493c.124-.22.254-.445.389-.678.127-.235.279-.451.456-.65.176-.199.386-.344.63-.438.245-.1.54-.112.884-.034.525.12.898.401 1.118.846.222.437.262.97.12 1.596ZM725.455 53.664l-.856-.416.989-2.036c.214-.44.267-.835.159-1.182-.108-.347-.353-.613-.736-.8a1.356 1.356 0 0 0-1.073-.079c-.351.116-.633.394-.847.834l-.995 2.048-.888-.432 1.011-2.08c.231-.477.527-.846.887-1.109a2.157 2.157 0 0 1 1.142-.45c.412-.04.824.04 1.236.24.426.207.751.485.974.835.226.342.344.734.352 1.175.002.438-.113.896-.345 1.372l-1.01 2.08Zm2.94 2.272-7.519-3.652.495-1.019 7.518 3.653-.494 1.018Zm2.105-4.333-4.696 1.093.133-1.127 5.189-1.255-.626 1.29ZM733.012 47.758a2.565 2.565 0 0 1-.975.863c-.389.181-.797.251-1.226.209-.43-.042-.849-.205-1.259-.487l-2.737-1.886.615-.893 2.697 1.859c.258.178.512.29.763.336.249.035.483 0 .7-.103.218-.104.406-.271.566-.503.241-.35.321-.7.24-1.048-.088-.354-.328-.665-.718-.933l-2.697-1.86.615-.892 2.737 1.886c.41.283.711.617.903 1.003.193.386.273.793.242 1.22-.033.416-.188.825-.466 1.229ZM737.109 42.6a2.595 2.595 0 0 1-1 .68 2.209 2.209 0 0 1-2.16-.407l-1.258-1.177a2.165 2.165 0 0 1-.561-1.004 2.226 2.226 0 0 1 .032-1.125c.106-.385.305-.732.596-1.042a2.576 2.576 0 0 1 1.254-.757 2.79 2.79 0 0 1 1.465.003c.493.132.945.39 1.355.774.41.384.697.818.86 1.3.164.484.197.971.099 1.463-.098.48-.325.911-.682 1.292Zm-.87-.568c.247-.264.402-.553.466-.867.063-.315.044-.63-.057-.944a2.12 2.12 0 0 0-.582-.876 2.1 2.1 0 0 0-.903-.516 1.733 1.733 0 0 0-.946.006c-.31.084-.585.255-.827.512a1.777 1.777 0 0 0-.466.868 1.65 1.65 0 0 0 .065.935c.112.314.309.603.591.867.275.258.571.436.886.533.315.087.628.088.938.004.315-.09.593-.264.835-.522Zm-1.276 2.683-6.276-5.878.741-.791 3.12 2.922.871 1.097 1.16.805 1.125 1.054-.741.791ZM741.7 38.19l-5.513-3.006.947-.743 4.238 2.415-.303.238-1.263-4.75.948-.744 1.458 6.19-.512.4Zm.161 2.86-.807-3.76 1.158.5.597 2.516-.948.744ZM750.565 32.685a2.93 2.93 0 0 1-1.543.283 2.987 2.987 0 0 1-1.425-.517 2.996 2.996 0 0 1-1.008-1.217 2.852 2.852 0 0 1-.272-1.521c.049-.52.222-.995.517-1.425.295-.43.697-.765 1.206-1.003a2.91 2.91 0 0 1 1.532-.278 2.86 2.86 0 0 1 1.431.501c.431.295.763.694.998 1.196a3 3 0 0 1 .288 1.553c-.05.52-.226.997-.528 1.43a2.91 2.91 0 0 1-1.196.998Zm-.443-.949c.327-.153.582-.365.765-.637.183-.272.286-.573.31-.902a2.1 2.1 0 0 0-.211-1.019 1.92 1.92 0 0 0-.647-.788 1.726 1.726 0 0 0-.886-.33 1.772 1.772 0 0 0-.969.174 1.838 1.838 0 0 0-.766.637 1.73 1.73 0 0 0-.314.892c-.023.33.044.662.2.997.16.341.375.613.647.814.268.194.565.308.891.341.326.034.652-.026.98-.179ZM757.892 29.835l-.945-3.2c-.123-.415-.355-.72-.697-.911-.341-.192-.72-.227-1.136-.104a1.524 1.524 0 0 0-.684.403 1.397 1.397 0 0 0-.358.659 1.53 1.53 0 0 0 .033.794l-.499-.117a2.3 2.3 0 0 1-.05-1.19c.089-.378.272-.709.548-.992a2.29 2.29 0 0 1 1.035-.62 2.034 2.034 0 0 1 1.19-.012c.385.112.72.31 1.005.595.282.276.479.603.591.98l1.007 3.408-1.04.307Zm-3.88 1.147-1.622-5.486 1.04-.307 1.621 5.486-1.039.307ZM765.133 24.819l-.04-.95 2.262-.097c.49-.02.861-.161 1.115-.421.255-.26.373-.603.355-1.028a1.355 1.355 0 0 0-.44-.982c-.268-.254-.646-.37-1.136-.35l-2.274.097-.042-.986 2.31-.099c.53-.022.995.063 1.397.255.402.184.715.448.938.792.232.343.357.744.377 1.201.02.473-.071.891-.273 1.253a2.153 2.153 0 0 1-.867.869c-.385.21-.842.325-1.371.348l-2.311.098Zm-.603 3.666-.355-8.351 1.131-.048.355 8.35-1.131.049Zm4.813-.204-3.191-3.614 1.055-.419 3.568 3.972-1.432.06ZM774.08 28.666a2.698 2.698 0 0 1-1.363-.558 2.885 2.885 0 0 1-.872-1.188 3.161 3.161 0 0 1-.172-1.55 3.165 3.165 0 0 1 .545-1.462c.303-.416.677-.73 1.124-.94.455-.211.946-.284 1.471-.219.431.053.802.192 1.114.417a2.162 2.162 0 0 1 .944 1.974l-.211 1.71a2.217 2.217 0 0 1-.482 1.044 2.135 2.135 0 0 1-.906.652 2.48 2.48 0 0 1-1.192.12Zm.305-.994c.534.066.987-.06 1.358-.378.372-.326.593-.772.663-1.338.049-.39.015-.738-.101-1.044a1.577 1.577 0 0 0-.537-.758c-.25-.201-.555-.324-.913-.368-.359-.045-.688 0-.987.132a1.82 1.82 0 0 0-.732.614c-.187.268-.303.589-.35.963-.047.383-.014.731.101 1.044.124.307.315.561.573.763.258.202.567.325.925.37Zm1.598 1.108.19-1.53.375-1.361-.033-1.4.172-1.386 1.088.134-.704 5.678-1.088-.135ZM779.2 29.38l1.37-5.554 1.053.26-1.371 5.554-1.052-.26Zm2.17-6.535a.667.667 0 0 1-.433-.305.71.71 0 0 1-.066-.537.652.652 0 0 1 .303-.422.646.646 0 0 1 .528-.08.647.647 0 0 1 .43.317.654.654 0 0 1 .072.513.711.711 0 0 1-.308.445.67.67 0 0 1-.526.07ZM782.022 30.113l2.623-8.19 1.033.331-2.624 8.19-1.032-.331ZM786.466 31.832a3.414 3.414 0 0 1-.793-.474 3.286 3.286 0 0 1-.575-.642 2.797 2.797 0 0 1-.351-.768l.918-.364c.09.319.235.591.435.817.203.219.459.395.768.529.31.134.572.185.786.155a.562.562 0 0 0 .45-.343.563.563 0 0 0-.019-.533 1.63 1.63 0 0 0-.405-.49c-.182-.166-.38-.335-.595-.506a4.55 4.55 0 0 1-.555-.568 1.634 1.634 0 0 1-.335-.682c-.05-.25-.007-.532.13-.85a1.55 1.55 0 0 1 .586-.717c.256-.17.548-.257.875-.265.334-.004.697.078 1.087.247.413.178.746.41 1 .693.264.28.437.609.519.985l-.918.365a1.615 1.615 0 0 0-.362-.681 1.803 1.803 0 0 0-.663-.47c-.288-.124-.531-.168-.73-.132a.5.5 0 0 0-.398.314.516.516 0 0 0 .022.495c.091.153.23.309.415.468.192.161.391.33.595.506.207.168.392.357.555.567.163.21.267.444.314.7.054.26.011.552-.129.876-.213.494-.559.808-1.037.943-.47.138-1 .08-1.59-.175ZM795.976 32.629l.565-.766 1.821 1.346c.394.29.772.415 1.133.372.361-.043.668-.236.921-.578.238-.323.33-.67.274-1.04-.049-.366-.271-.694-.665-.985l-1.831-1.353.587-.794 1.86 1.374c.426.315.736.673.928 1.075.197.395.275.797.233 1.205a2.282 2.282 0 0 1-.461 1.172c-.282.38-.615.649-.999.804a2.16 2.16 0 0 1-1.22.132c-.431-.079-.86-.276-1.286-.59l-1.86-1.374Zm-2.772 2.474 4.967-6.723.91.673-4.966 6.723-.911-.673Zm3.876 2.863-.216-4.816 1.084.336.284 5.331-1.152-.851ZM800.362 41.087a2.57 2.57 0 0 1-.673-1.115 2.313 2.313 0 0 1 .017-1.244c.119-.414.355-.797.707-1.15l2.351-2.35.766.767-2.316 2.316a1.984 1.984 0 0 0-.469.69 1.203 1.203 0 0 0-.025.707c.062.233.193.448.391.647.301.3.631.443.988.426.364-.023.713-.202 1.048-.537l2.316-2.316.767.766-2.351 2.35c-.352.353-.735.588-1.149.708-.415.119-.829.125-1.244.017-.403-.108-.778-.335-1.124-.682ZM804.874 46.279a2.601 2.601 0 0 1-.484-1.109 2.207 2.207 0 0 1 .798-2.049l1.389-1.018c.351-.227.715-.35 1.091-.366.387-.015.754.064 1.1.239.358.175.663.435.914.778.309.421.48.878.513 1.372.038.5-.053.98-.274 1.44-.22.46-.557.856-1.01 1.188a3.158 3.158 0 0 1-1.437.606 2.792 2.792 0 0 1-1.456-.173 2.637 2.637 0 0 1-1.144-.908Zm.719-.751c.214.291.469.497.766.618.298.12.611.16.939.118.334-.046.657-.183.968-.41.304-.224.529-.488.673-.793.145-.305.201-.615.169-.93a1.745 1.745 0 0 0-.351-.908 1.777 1.777 0 0 0-.766-.618 1.652 1.652 0 0 0-.931-.108c-.33.052-.651.192-.961.42-.305.223-.534.48-.688.773-.143.294-.202.6-.177.92.031.327.15.633.359.918Zm-2.402-1.749 6.936-5.084.641.874-3.449 2.528-1.238.654-1.006.99-1.243.912-.641-.874ZM808.252 51.427l3.963-4.872.558 1.067-3.148 3.726-.179-.341 4.901-.375.558 1.067-6.351.305-.302-.577Zm-2.84-.363 3.845-.108-.703 1.048-2.584.128-.558-1.068ZM812.032 61.115a2.93 2.93 0 0 1 .005-1.568c.143-.502.4-.937.769-1.306a2.993 2.993 0 0 1 1.381-.769 2.845 2.845 0 0 1 1.545.011c.502.144.937.4 1.307.77.369.368.624.825.765 1.369a2.916 2.916 0 0 1-.008 1.557 2.87 2.87 0 0 1-.754 1.315c-.369.369-.822.623-1.358.762a3 3 0 0 1-1.581-.002 2.956 2.956 0 0 1-1.309-.78 2.913 2.913 0 0 1-.762-1.358Zm1.014-.262a1.808 1.808 0 0 0 1.317 1.339c.328.08.675.074 1.04-.02.358-.093.655-.257.893-.493a1.73 1.73 0 0 0 .487-.81c.095-.307.097-.635.006-.985-.09-.35-.252-.64-.486-.87a1.728 1.728 0 0 0-.819-.471 1.997 1.997 0 0 0-1.016.014 2.096 2.096 0 0 0-.92.486 1.819 1.819 0 0 0-.498.814 1.84 1.84 0 0 0-.004.996ZM813.521 69.147l3.32-.334c.431-.043.773-.215 1.025-.515.252-.3.357-.665.314-1.096a1.53 1.53 0 0 0-.269-.748 1.403 1.403 0 0 0-.581-.474 1.522 1.522 0 0 0-.786-.115l.207-.468a2.29 2.29 0 0 1 1.18.171c.354.158.645.4.871.724.234.323.373.7.417 1.132.043.431-.027.822-.209 1.171-.182.357-.439.65-.772.877-.324.226-.682.359-1.073.398l-3.535.355-.109-1.078Zm-.405-4.026 5.692-.573.109 1.078-5.692.573-.109-1.078Z"/></g><defs><radialGradient id="b" cx="0" cy="0" r="1" gradientTransform="rotate(59.144 -19.375 29.114) scale(16.8799)" gradientUnits="userSpaceOnUse"><stop stop-color="#9EECE5" stop-opacity=".48"/><stop offset=".605" stop-color="#9EECE5"/><stop offset=".796" stop-color="#72DFDD"/><stop offset="1" stop-color="#51BBF6"/></radialGradient><radialGradient id="c" cx="0" cy="0" r="1" gradientTransform="rotate(59.144 330.29 690.869) scale(62.5902)" gradientUnits="userSpaceOnUse"><stop stop-color="#9EECE5" stop-opacity=".48"/><stop offset=".605" stop-color="#9EECE5"/><stop offset=".796" stop-color="#72DFDD"/><stop offset="1" stop-color="#51BBF6"/></radialGradient><clipPath id="a"><path fill="#fff" d="M0 0h770v763H0z"/></clipPath></defs></svg>