<svg width="171" height="171" viewBox="0 0 171 171" fill="none" xmlns="http://www.w3.org/2000/svg">
<path d="M146 85.6768C146 118.814 119.137 145.677 86 145.677C52.8629 145.677 26 118.814 26 85.6768C26 52.5397 52.8629 25.6768 86 25.6768C119.137 25.6768 146 52.5397 146 85.6768Z" fill="url(#paint0_radial_502_3084)"/>
<path d="M156.973 87.6617L158.39 87.7768L158.117 91.1497C158.057 91.8793 158.197 92.4565 158.536 92.8813C158.875 93.3061 159.361 93.5442 159.995 93.5957C160.593 93.6442 161.105 93.4872 161.532 93.1245C161.958 92.7738 162.2 92.2337 162.26 91.5041L162.535 88.1132L164.006 88.2326L163.726 91.6773C163.662 92.4667 163.451 93.1418 163.092 93.7026C162.746 94.2644 162.297 94.6795 161.745 94.9477C161.193 95.2279 160.576 95.3404 159.894 95.285C159.188 95.2278 158.585 95.0163 158.085 94.6506C157.584 94.2969 157.208 93.8149 156.957 93.2046C156.717 92.5952 156.629 91.8958 156.694 91.1064L156.973 87.6617ZM151.647 86.0916L164.098 87.1023L163.961 88.7888L151.51 87.7781L151.647 86.0916ZM151.064 93.268L157.011 89.1998L157.437 90.8417L150.891 95.403L151.064 93.268Z" fill="#212121"/>
<path d="M149.655 99.9615C149.814 99.2839 150.11 98.7062 150.542 98.2283C150.984 97.7649 151.515 97.4457 152.135 97.2708C152.756 97.0959 153.428 97.0934 154.152 97.2633L158.989 98.398L158.619 99.9752L153.852 98.8569C153.397 98.75 152.982 98.7328 152.607 98.8052C152.242 98.892 151.936 99.0667 151.689 99.3294C151.443 99.592 151.272 99.9278 151.176 100.337C151.03 100.956 151.109 101.486 151.413 101.927C151.728 102.371 152.23 102.673 152.919 102.835L157.686 103.953L157.316 105.53L152.479 104.396C151.755 104.226 151.154 103.924 150.676 103.492C150.198 103.059 149.864 102.537 149.675 101.926C149.495 101.329 149.488 100.674 149.655 99.9615Z" fill="#212121"/>
<path d="M146.628 109.636C146.872 109.035 147.215 108.54 147.658 108.15C148.108 107.775 148.614 107.533 149.176 107.425C149.738 107.316 150.309 107.36 150.89 107.556L153.275 108.524C153.84 108.791 154.28 109.158 154.597 109.623C154.92 110.103 155.107 110.632 155.158 111.21C155.215 111.803 155.124 112.394 154.885 112.983C154.592 113.706 154.145 114.282 153.544 114.712C152.938 115.152 152.256 115.413 151.498 115.494C150.74 115.576 149.971 115.458 149.193 115.143C148.414 114.827 147.781 114.376 147.294 113.79C146.806 113.204 146.499 112.542 146.371 111.804C146.249 111.081 146.335 110.358 146.628 109.636ZM148.148 109.96C147.945 110.461 147.883 110.947 147.964 111.42C148.044 111.893 148.239 112.322 148.549 112.706C148.87 113.096 149.298 113.398 149.832 113.615C150.354 113.827 150.867 113.905 151.368 113.849C151.87 113.794 152.309 113.622 152.684 113.334C153.071 113.051 153.364 112.664 153.562 112.175C153.765 111.675 153.826 111.188 153.746 110.715C153.677 110.247 153.48 109.824 153.154 109.446C152.828 109.067 152.398 108.77 151.864 108.554C151.342 108.342 150.834 108.252 150.341 108.286C149.855 108.335 149.419 108.501 149.032 108.784C148.641 109.079 148.346 109.471 148.148 109.96ZM148.486 105.533L160.396 110.362L159.787 111.863L153.866 109.462L152.062 108.401L150.012 107.9L147.877 107.034L148.486 105.533Z" fill="#212121"/>
<path d="M142.669 118.05L151.974 119.277L151.053 120.824L143.845 119.735L144.139 119.24L148.455 125.185L147.534 126.731L142.172 118.885L142.669 118.05ZM140.907 114.151L144.055 118.96L142.172 118.885L139.985 115.697L140.907 114.151Z" fill="#212121"/>
<path d="M133.265 130.463C133.846 129.856 134.512 129.447 135.263 129.235C136.014 129.024 136.769 129.007 137.528 129.186C138.296 129.373 138.983 129.757 139.59 130.338C140.188 130.91 140.589 131.568 140.792 132.31C141.003 133.061 141.02 133.816 140.841 134.575C140.662 135.335 140.283 136.018 139.702 136.624C139.129 137.223 138.467 137.627 137.717 137.839C136.966 138.067 136.211 138.092 135.452 137.914C134.693 137.735 134.014 137.359 133.416 136.787C132.809 136.206 132.396 135.536 132.176 134.777C131.964 134.026 131.952 133.267 132.139 132.499C132.317 131.74 132.693 131.061 133.265 130.463ZM134.397 131.546C134.023 131.936 133.782 132.37 133.674 132.847C133.566 133.325 133.584 133.8 133.73 134.272C133.885 134.752 134.166 135.188 134.574 135.578C134.972 135.959 135.415 136.209 135.901 136.325C136.379 136.451 136.85 136.445 137.314 136.307C137.778 136.187 138.197 135.932 138.57 135.541C138.944 135.151 139.185 134.718 139.293 134.24C139.41 133.771 139.396 133.3 139.25 132.828C139.104 132.356 138.831 131.929 138.432 131.547C138.025 131.157 137.578 130.895 137.091 130.761C136.613 130.636 136.138 130.638 135.666 130.767C135.193 130.896 134.77 131.156 134.397 131.546Z" fill="#212121"/>
<path d="M124.256 138.634L127.291 142.59C127.686 143.104 128.173 143.403 128.752 143.488C129.331 143.573 129.878 143.418 130.392 143.024C130.735 142.761 130.981 142.451 131.131 142.094C131.281 141.737 131.329 141.367 131.277 140.983C131.225 140.6 131.067 140.237 130.804 139.894L131.563 139.789C131.957 140.303 132.194 140.847 132.272 141.423C132.35 141.998 132.272 142.557 132.038 143.099C131.812 143.651 131.441 144.125 130.927 144.519C130.413 144.914 129.862 145.132 129.274 145.174C128.677 145.224 128.104 145.127 127.554 144.884C127.011 144.65 126.561 144.299 126.203 143.833L122.971 139.62L124.256 138.634ZM129.055 134.952L134.259 141.736L132.974 142.722L127.769 135.938L129.055 134.952Z" fill="#212121"/>
<path d="M117.247 149.271L117.82 150.572L114.723 151.937C114.054 152.232 113.612 152.63 113.4 153.13C113.188 153.63 113.21 154.171 113.466 154.753C113.708 155.302 114.09 155.678 114.612 155.881C115.123 156.088 115.714 156.044 116.384 155.749L119.497 154.377L120.092 155.728L116.929 157.122C116.205 157.441 115.51 157.577 114.846 157.528C114.187 157.491 113.609 157.293 113.11 156.936C112.601 156.583 112.208 156.094 111.932 155.468C111.647 154.82 111.546 154.19 111.63 153.576C111.702 152.967 111.947 152.406 112.364 151.895C112.786 151.394 113.359 150.984 114.084 150.665L117.247 149.271ZM116.092 143.839L121.13 155.271L119.581 155.953L114.544 144.522L116.092 143.839ZM109.504 146.743L115.912 150.036L114.671 151.193L107.543 147.607L109.504 146.743Z" fill="#212121"/>
<path d="M102.717 148.73C103.473 148.538 104.207 148.549 104.918 148.764C105.632 148.991 106.252 149.384 106.779 149.943C107.293 150.506 107.654 151.194 107.862 152.008C108.069 152.822 108.081 153.599 107.898 154.339C107.704 155.082 107.353 155.722 106.846 156.26C106.328 156.801 105.685 157.169 104.917 157.365C104.289 157.525 103.697 157.533 103.14 157.39C102.575 157.261 102.082 157.003 101.661 156.615C101.243 156.239 100.94 155.752 100.751 155.157L100.116 152.662C99.9995 152.06 100.033 151.488 100.217 150.946C100.389 150.407 100.691 149.94 101.123 149.545C101.547 149.165 102.078 148.893 102.717 148.73ZM102.834 150.28C102.054 150.478 101.493 150.9 101.15 151.544C100.809 152.201 100.744 152.942 100.954 153.767C101.1 154.337 101.336 154.803 101.664 155.166C101.983 155.543 102.369 155.797 102.824 155.929C103.281 156.072 103.772 156.077 104.295 155.944C104.818 155.811 105.253 155.57 105.597 155.222C105.93 154.877 106.159 154.46 106.281 153.971C106.396 153.496 106.383 152.985 106.244 152.438C106.102 151.88 105.866 151.414 105.535 151.04C105.196 150.681 104.792 150.431 104.322 150.29C103.853 150.15 103.357 150.146 102.834 150.28ZM100.006 149.607L100.575 151.84L100.794 153.938L101.601 155.869L102.117 157.892L100.529 158.297L98.4186 150.011L100.006 149.607Z" fill="#212121"/>
<path d="M95.3086 150.463L96.4254 158.94L94.8193 159.151L93.7024 150.674L95.3086 150.463ZM95.8457 160.741C96.1431 160.701 96.3996 160.765 96.615 160.93C96.832 161.107 96.9601 161.344 96.9993 161.642C97.0369 161.927 96.9731 162.178 96.8078 162.393C96.6441 162.62 96.4135 162.754 96.1161 162.793C95.8187 162.832 95.5614 162.763 95.3444 162.586C95.129 162.421 95.0025 162.195 94.9649 161.91C94.9257 161.612 94.9879 161.35 95.1516 161.123C95.3169 160.907 95.5483 160.78 95.8457 160.741Z" fill="#212121"/>
<path d="M90.8049 150.977L91.5978 163.804L89.9809 163.904L89.188 151.077L90.8049 150.977Z" fill="#212121"/>
<path d="M83.4649 150.968C83.9445 150.987 84.3979 151.064 84.8249 151.201C85.2395 151.349 85.6223 151.544 85.9732 151.786C86.3237 152.039 86.6246 152.333 86.8759 152.667L85.7924 153.67C85.4954 153.274 85.1468 152.973 84.7465 152.765C84.3457 152.569 83.8936 152.462 83.3899 152.442C82.8863 152.423 82.4934 152.492 82.2111 152.649C81.9283 152.818 81.781 153.059 81.7689 153.371C81.7569 153.682 81.8615 153.927 82.0829 154.103C82.2918 154.291 82.568 154.446 82.9116 154.568C83.2547 154.701 83.622 154.829 84.0136 154.952C84.3926 155.087 84.7526 155.251 85.0934 155.444C85.4342 155.638 85.7125 155.895 85.9283 156.215C86.1321 156.535 86.224 156.953 86.2041 157.469C86.1842 157.984 86.0412 158.423 85.775 158.785C85.5084 159.159 85.1493 159.439 84.6977 159.626C84.2342 159.812 83.6847 159.893 83.0491 159.869C82.3776 159.843 81.7887 159.7 81.2824 159.44C80.7636 159.192 80.3453 158.828 80.0276 158.347L81.1111 157.344C81.3389 157.665 81.6294 157.917 81.9827 158.098C82.3239 158.28 82.7164 158.379 83.1601 158.396C83.6277 158.414 83.9907 158.344 84.249 158.186C84.4948 158.039 84.6233 157.822 84.6344 157.534C84.6455 157.246 84.5462 157.02 84.3363 156.856C84.1265 156.692 83.8498 156.549 83.5062 156.428C83.1507 156.306 82.7834 156.178 82.4043 156.043C82.0247 155.92 81.6648 155.756 81.3245 155.551C80.9841 155.346 80.7123 155.077 80.5089 154.745C80.2936 154.412 80.1961 153.982 80.2165 153.455C80.2475 152.651 80.5599 152.027 81.1535 151.581C81.7351 151.136 82.5056 150.931 83.4649 150.968Z" fill="#212121"/>
<path d="M69.8958 154.979L69.5239 156.352L66.2577 155.467C65.5512 155.275 64.9582 155.307 64.4787 155.563C63.9992 155.818 63.6762 156.253 63.5099 156.867C63.3529 157.446 63.4138 157.978 63.6924 158.464C63.9595 158.947 64.4463 159.284 65.1528 159.475L68.4363 160.365L68.0503 161.79L64.7146 160.886C63.9502 160.678 63.325 160.347 62.8391 159.892C62.35 159.449 62.024 158.932 61.8609 158.341C61.6863 157.746 61.6884 157.119 61.8674 156.459C62.0525 155.775 62.3705 155.221 62.8214 154.796C63.2606 154.368 63.8032 154.087 64.4492 153.951C65.0921 153.827 65.7957 153.868 66.5602 154.075L69.8958 154.979ZM72.4122 150.029L69.1448 162.086L67.5117 161.644L70.7791 149.586L72.4122 150.029ZM65.4629 148.146L68.3767 154.735L66.6846 154.855L63.3954 147.586L65.4629 148.146Z" fill="#212121"/>
<path d="M59.055 145.471C59.6909 145.754 60.203 146.153 60.5914 146.667C60.9639 147.188 61.178 147.769 61.2337 148.411C61.2894 149.053 61.1659 149.714 60.8634 150.394L58.8431 154.933L57.3631 154.274L59.3541 149.801C59.5444 149.374 59.6391 148.969 59.6381 148.588C59.6212 148.212 59.5069 147.879 59.295 147.588C59.0832 147.296 58.7854 147.065 58.4017 146.895C57.8207 146.636 57.2852 146.614 56.7953 146.83C56.3005 147.056 55.9091 147.493 55.6212 148.139L53.6302 152.612L52.1502 151.954L54.1705 147.415C54.473 146.735 54.8815 146.201 55.3959 145.813C55.9103 145.424 56.4855 145.194 57.1216 145.123C57.7418 145.057 58.3863 145.174 59.055 145.471Z" fill="#212121"/>
<path d="M50.2081 140.746C50.7536 141.096 51.1772 141.525 51.4791 142.032C51.7644 142.543 51.9088 143.085 51.9123 143.657C51.9158 144.23 51.7674 144.783 51.4673 145.318L50.0776 147.484C49.7104 147.99 49.2691 148.356 48.7538 148.581C48.2219 148.81 47.6676 148.897 47.0907 148.84C46.4973 148.788 45.9329 148.59 45.3975 148.246C44.741 147.825 44.257 147.279 43.9456 146.609C43.624 145.932 43.4932 145.214 43.553 144.454C43.6128 143.694 43.8694 142.961 44.323 142.254C44.7765 141.547 45.3362 141.007 46.002 140.636C46.6678 140.265 47.3753 140.084 48.1245 140.094C48.857 140.108 49.5516 140.325 50.2081 140.746ZM49.6093 142.18C49.1548 141.889 48.6878 141.739 48.2083 141.731C47.7288 141.722 47.2715 141.835 46.8362 142.069C46.3945 142.313 46.0181 142.678 45.7071 143.163C45.4026 143.638 45.2315 144.127 45.1938 144.63C45.1561 145.133 45.2442 145.596 45.458 146.018C45.6654 146.451 45.9913 146.809 46.4357 147.094C46.8902 147.386 47.3572 147.536 47.8367 147.544C48.3097 147.562 48.762 147.446 49.1937 147.195C49.6253 146.945 49.9966 146.577 50.3076 146.092C50.6121 145.618 50.7933 145.135 50.8512 144.645C50.8926 144.158 50.8095 143.698 50.6022 143.266C50.3847 142.827 50.0538 142.465 49.6093 142.18ZM53.8987 143.328L46.9598 154.145L45.5962 153.271L49.0462 147.892L50.4214 146.315L51.2912 144.392L52.5351 142.453L53.8987 143.328Z" fill="#212121"/>
<path d="M42.6867 135.32L39.7894 144.247L38.4361 143.061L40.8163 136.17L41.2494 136.55L34.6199 139.714L33.2666 138.527L41.9559 134.679L42.6867 135.32ZM46.8415 134.296L41.5407 136.518L41.9559 134.679L45.4883 133.109L46.8415 134.296Z" fill="#212121"/>
<path d="M32.1877 123.789C32.6768 124.472 32.9561 125.202 33.0255 125.979C33.0949 126.756 32.9717 127.501 32.656 128.214C32.3305 128.934 31.8264 129.539 31.1435 130.028C30.4704 130.51 29.7502 130.782 28.9831 130.845C28.2062 130.914 27.4611 130.791 26.7478 130.475C26.0346 130.16 25.4334 129.66 24.9442 128.977C24.4621 128.304 24.1863 127.579 24.1169 126.802C24.0307 126.023 24.1455 125.276 24.4612 124.563C24.7769 123.85 25.2714 123.252 25.9445 122.77C26.6274 122.281 27.3621 121.998 28.1488 121.922C28.9257 121.852 29.6743 121.98 30.3945 122.306C31.1078 122.621 31.7055 123.116 32.1877 123.789ZM30.9146 124.701C30.6001 124.262 30.2182 123.945 29.7687 123.75C29.3193 123.556 28.8491 123.486 28.3581 123.543C27.8574 123.606 27.3778 123.802 26.9193 124.131C26.4705 124.452 26.1439 124.841 25.9395 125.298C25.7281 125.744 25.6471 126.208 25.6965 126.689C25.7293 127.168 25.9029 127.627 26.2173 128.066C26.5318 128.505 26.9137 128.821 27.3632 129.016C27.8028 129.218 28.2682 129.29 28.7591 129.234C29.2501 129.177 29.7199 128.988 30.1687 128.667C30.6272 128.339 30.967 127.948 31.1882 127.494C31.3997 127.047 31.4855 126.58 31.4458 126.092C31.4061 125.603 31.229 125.14 30.9146 124.701Z" fill="#212121"/>
<path d="M25.8387 113.495L21.3952 115.756C20.8177 116.05 20.4343 116.474 20.2451 117.028C20.0559 117.582 20.1082 118.148 20.4022 118.726C20.5981 119.111 20.8579 119.409 21.1814 119.622C21.5049 119.834 21.8599 119.95 22.2465 119.968C22.633 119.987 23.0188 119.898 23.4038 119.702L23.369 120.468C22.7915 120.761 22.2129 120.894 21.633 120.866C21.0532 120.838 20.518 120.66 20.0272 120.33C19.5258 120.007 19.1281 119.556 18.8342 118.979C18.5403 118.401 18.4261 117.82 18.4917 117.234C18.5518 116.638 18.7518 116.092 19.0917 115.596C19.4209 115.105 19.8476 114.726 20.3716 114.459L25.1039 112.051L25.8387 113.495ZM28.5821 118.885L20.9624 122.763L20.2275 121.319L27.8473 117.441L28.5821 118.885Z" fill="#212121"/>
<path d="M16.7116 104.8L15.3272 105.125L14.5543 101.83C14.3871 101.118 14.0772 100.611 13.6246 100.31C13.172 100.01 12.6361 99.9322 12.0169 100.077C11.4328 100.215 10.9931 100.521 10.6981 100.997C10.4002 101.461 10.3349 102.05 10.5021 102.762L11.2791 106.075L9.84214 106.412L9.05278 103.047C8.87189 102.276 8.86617 101.569 9.03562 100.925C9.19339 100.284 9.49366 99.7512 9.93645 99.3268C10.3765 98.8908 10.9295 98.5947 11.5954 98.4384C12.2847 98.2767 12.9233 98.2933 13.5114 98.4881C14.0967 98.6713 14.6025 99.0148 15.0289 99.5188C15.4436 100.025 15.7414 100.664 15.9223 101.435L16.7116 104.8ZM22.2629 104.662L10.1011 107.516L9.71469 105.868L21.8765 103.015L22.2629 104.662ZM20.6185 97.6528L16.2045 103.347L15.2953 101.915L20.1292 95.5674L20.6185 97.6528Z" fill="#212121"/>
<path d="M19.8798 90.4781C19.9279 91.2566 19.78 91.9751 19.4359 92.6335C19.0799 93.2928 18.578 93.8288 17.9303 94.2415C17.2817 94.6423 16.5383 94.8686 15.6999 94.9204C14.8615 94.9722 14.0958 94.8392 13.4029 94.5213C12.7092 94.1915 12.1455 93.7274 11.7118 93.129C11.2773 92.5187 11.0356 91.8182 10.9868 91.0277C10.9468 90.381 11.049 89.7976 11.2934 89.2775C11.525 88.7462 11.8708 88.31 12.3306 87.969C12.7785 87.6287 13.3127 87.4214 13.9333 87.347L16.5024 87.1882C17.1155 87.1863 17.6712 87.3263 18.1695 87.6081C18.6671 87.8779 19.0695 88.2618 19.3768 88.7598C19.6714 89.2466 19.8391 89.8193 19.8798 90.4781ZM18.3361 90.303C18.2865 89.5005 17.977 88.8704 17.4077 88.4126C16.8264 87.9556 16.1105 87.7534 15.2601 87.806C14.6733 87.8422 14.1713 87.9875 13.7542 88.2417C13.3243 88.4847 13.0022 88.8172 12.7879 89.2392C12.5615 89.662 12.465 90.1429 12.4983 90.6818C12.5316 91.2208 12.687 91.6921 12.9644 92.0958C13.2411 92.4874 13.6084 92.7894 14.0664 93.0015C14.5116 93.2024 15.0157 93.2855 15.5787 93.2507C16.1536 93.2152 16.6556 93.0699 17.0846 92.815C17.501 92.5488 17.822 92.1983 18.0476 91.7635C18.2732 91.3288 18.3694 90.8419 18.3361 90.303ZM19.5247 87.6506L17.2251 87.7927L15.1222 87.6161L13.075 88.0492L10.991 88.1781L10.8899 86.5432L19.4236 86.0157L19.5247 87.6506Z" fill="#212121"/>
<path d="M19.5375 82.5853L11.0018 82.0908L11.0955 80.4735L19.6312 80.9681L19.5375 82.5853ZM9.34149 81.1832C9.32414 81.4827 9.21407 81.7227 9.01128 81.9033C8.79652 82.0832 8.53939 82.1645 8.23989 82.1471C7.95237 82.1304 7.71833 82.0207 7.53776 81.8179C7.3452 81.6145 7.2576 81.363 7.27496 81.0635C7.29231 80.764 7.40837 80.5243 7.62313 80.3444C7.82592 80.1638 8.07107 80.0819 8.35859 80.0985C8.65809 80.1159 8.90411 80.2263 9.09666 80.4298C9.27723 80.6326 9.35884 80.8837 9.34149 81.1832Z" fill="#212121"/>
<path d="M19.8397 78.2988L7.08533 76.718L7.2846 75.1103L20.039 76.6911L19.8397 78.2988Z" fill="#212121"/>
<path d="M21.1725 71.1545C21.0664 71.6226 20.9071 72.0541 20.6947 72.4489C20.4731 72.8293 20.2114 73.1699 19.9095 73.4706C19.5958 73.7687 19.2519 74.0107 18.8775 74.1965L18.09 72.9477C18.5335 72.7282 18.8939 72.4408 19.1713 72.0853C19.4371 71.7271 19.6256 71.3023 19.737 70.8108C19.8483 70.3192 19.8526 69.9203 19.7497 69.614C19.6352 69.305 19.4258 69.1161 19.1215 69.0471C18.8172 68.9782 18.5579 69.0364 18.3437 69.2216C18.1204 69.3925 17.9177 69.6357 17.7354 69.9512C17.5415 70.2641 17.3481 70.6017 17.1553 70.964C16.9534 71.312 16.7262 71.6358 16.4738 71.9355C16.2213 72.2351 15.9177 72.4616 15.5631 72.615C15.2111 72.7567 14.7834 72.7706 14.2802 72.6566C13.7769 72.5425 13.3718 72.3215 13.0646 71.9936C12.7458 71.6629 12.536 71.2586 12.4352 70.7805C12.337 70.2906 12.3581 69.7356 12.4987 69.1153C12.6472 68.4599 12.8955 67.9071 13.2436 67.4569C13.5826 66.9924 14.0175 66.648 14.5481 66.4237L15.3356 67.6726C14.9783 67.8377 14.678 68.0772 14.4346 68.3912C14.1938 68.6935 14.0244 69.0611 13.9263 69.4942C13.8228 69.9506 13.8252 70.3203 13.9334 70.6031C14.0325 70.8717 14.2225 71.0378 14.5034 71.1014C14.7842 71.1651 15.0246 71.1088 15.2245 70.9326C15.4244 70.7564 15.6154 70.5106 15.7976 70.195C15.9825 69.8678 16.1759 69.5302 16.3778 69.1822C16.568 68.8316 16.7952 68.5077 17.0593 68.2108C17.3235 67.9138 17.6374 67.6958 18.0011 67.5567C18.3675 67.406 18.8082 67.3889 19.3231 67.5056C20.1072 67.6833 20.6639 68.1047 20.993 68.7699C21.3248 69.4233 21.3846 70.2182 21.1725 71.1545Z" fill="#212121"/>
<path d="M19.721 57.0605L18.4419 56.4391L19.9208 53.3953C20.2407 52.7369 20.3198 52.1484 20.1583 51.6296C19.9967 51.1109 19.6299 50.7125 19.0579 50.4346C18.5182 50.1724 17.9838 50.1328 17.4545 50.316C16.9305 50.4883 16.5086 50.9037 16.1887 51.5621L14.702 54.622L13.3744 53.977L14.8847 50.8685C15.2308 50.1561 15.6727 49.6037 16.2102 49.2111C16.737 48.8133 17.3061 48.5895 17.9173 48.5396C18.5338 48.4789 19.1497 48.5981 19.7649 48.897C20.4017 49.2064 20.8868 49.6222 21.2201 50.1443C21.5587 50.6557 21.7344 51.2414 21.7473 51.9013C21.7494 52.5561 21.5774 53.2396 21.2313 53.952L19.721 57.0605ZM24.1148 60.4561L12.8788 54.997L13.6182 53.4751L24.8543 58.9342L24.1148 60.4561ZM27.2613 53.98L20.2439 55.6136L20.4421 53.9288L28.1974 52.0534L27.2613 53.98Z" fill="#212121"/>
<path d="M31.0154 48.233C30.6205 48.8062 30.1346 49.2364 29.5577 49.5239C28.9777 49.7946 28.367 49.8984 27.7255 49.8353C27.0841 49.7723 26.457 49.5297 25.8444 49.1075L21.7534 46.2889L22.6725 44.9549L26.7042 47.7327C27.0896 47.9982 27.4698 48.1655 27.8449 48.2344C28.2169 48.2867 28.5655 48.2355 28.8908 48.0807C29.216 47.9259 29.4978 47.6756 29.7361 47.3297C30.0969 46.806 30.2164 46.2836 30.0946 45.7624C29.9628 45.2345 29.6055 44.7697 29.0225 44.368L24.9908 41.5902L25.9099 40.2562L30.0009 43.0748C30.6135 43.497 31.0636 43.9965 31.351 44.5734C31.6384 45.1503 31.7589 45.7579 31.7125 46.3963C31.6631 47.018 31.4307 47.6303 31.0154 48.233Z" fill="#212121"/>
<path d="M37.1393 40.5249C36.6963 40.9978 36.198 41.3367 35.6444 41.5416C35.0902 41.7296 34.5313 41.7733 33.9677 41.6729C33.4041 41.5725 32.8866 41.3262 32.4154 40.9341L30.5367 39.1745C30.1059 38.7217 29.8264 38.2214 29.6981 37.6738C29.5693 37.1092 29.5849 36.5483 29.7449 35.9913C29.9044 35.4172 30.2016 34.8981 30.6364 34.4339C31.1696 33.8646 31.794 33.4876 32.5096 33.3029C33.2334 33.1095 33.9635 33.111 34.7001 33.3077C35.4366 33.5043 36.1115 33.8898 36.7245 34.464C37.3376 35.0382 37.7663 35.6864 38.0107 36.4085C38.255 37.1307 38.3043 37.8592 38.1586 38.5941C38.0123 39.312 37.6725 39.9556 37.1393 40.5249ZM35.8381 39.676C36.2072 39.2819 36.4393 38.8498 36.5343 38.3798C36.6293 37.9097 36.6011 37.4395 36.4499 36.969C36.2899 36.4903 35.9997 36.0541 35.5793 35.6603C35.1677 35.2748 34.7178 35.0178 34.2297 34.8894C33.7416 34.7611 33.2705 34.7638 32.8164 34.8975C32.3536 35.023 31.9417 35.2784 31.5807 35.6638C31.2116 36.0579 30.9795 36.49 30.8845 36.96C30.7808 37.4219 30.813 37.8878 30.9812 38.3577C31.1494 38.8276 31.4437 39.2595 31.8641 39.6532C32.2757 40.0388 32.7174 40.3045 33.1891 40.4504C33.6602 40.5793 34.1272 40.581 34.5901 40.4555C35.0611 40.3212 35.4771 40.0614 35.8381 39.676ZM33.9317 43.6862L24.5517 34.9004L25.6591 33.7181L30.3229 38.0863L31.6245 39.7247L33.3576 40.9288L35.0391 42.5038L33.9317 43.6862Z" fill="#212121"/>
<path d="M44.0001 33.9351L35.7602 29.4415L37.1762 28.3302L43.5099 31.9402L43.0568 32.2957L41.1694 25.1965L42.5855 24.0853L44.7647 33.335L44.0001 33.9351ZM44.2412 38.2077L43.0344 32.5879L44.7647 33.335L45.6572 37.0964L44.2412 38.2077Z" fill="#212121"/>
<path d="M57.2497 25.7072C56.4888 26.0631 55.7201 26.2039 54.9436 26.1299C54.1671 26.0558 53.4572 25.7983 52.8138 25.3573C52.1654 24.9054 51.6632 24.299 51.3074 23.5381C50.9567 22.7881 50.8209 22.0303 50.9 21.2647C50.9741 20.4882 51.2316 19.7783 51.6726 19.1349C52.1136 18.4915 52.7145 17.9919 53.4755 17.6361C54.2255 17.2854 54.9888 17.147 55.7652 17.2211C56.5475 17.2792 57.2603 17.5287 57.9037 17.9697C58.5471 18.4107 59.0441 19.0062 59.3949 19.7563C59.7507 20.5172 59.8941 21.2913 59.8251 22.0787C59.7511 22.8552 59.4881 23.5676 59.0362 24.2161C58.5953 24.8594 57.9997 25.3565 57.2497 25.7072ZM56.5863 24.2887C57.0755 24.0599 57.4569 23.7425 57.7306 23.3363C58.0044 22.9301 58.1584 22.4805 58.1928 21.9875C58.2222 21.4837 58.1174 20.9763 57.8785 20.4654C57.6446 19.9654 57.3221 19.573 56.9108 19.2885C56.5104 18.9988 56.0692 18.8342 55.5871 18.7947C55.1107 18.7393 54.628 18.8259 54.1388 19.0547C53.6497 19.2834 53.2682 19.6009 52.9945 20.007C52.7157 20.4024 52.5591 20.8465 52.5247 21.3395C52.4903 21.8325 52.59 22.329 52.8238 22.829C53.0627 23.3399 53.3849 23.7457 53.7904 24.0462C54.1908 24.3359 54.6346 24.5059 55.1218 24.5562C55.609 24.6066 56.0972 24.5174 56.5863 24.2887Z" fill="#212121"/>
<path d="M68.1997 21.4474L66.7865 16.6659C66.6028 16.0444 66.2559 15.5901 65.7456 15.303C65.2352 15.0159 64.6694 14.9641 64.0479 15.1478C63.6337 15.2702 63.2926 15.4711 63.0248 15.7505C62.757 16.0299 62.5787 16.3579 62.4898 16.7345C62.4009 17.1111 62.4176 17.5066 62.5401 17.9209L61.7943 17.7472C61.6106 17.1257 61.5854 16.5325 61.7188 15.9676C61.8521 15.4026 62.1254 14.9089 62.5386 14.4865C62.9484 14.0525 63.464 13.7437 64.0855 13.5601C64.7069 13.3764 65.2994 13.3702 65.8631 13.5415C66.4383 13.7093 66.9388 14.0056 67.3646 14.4303C67.787 14.8435 68.0816 15.3321 68.2482 15.896L69.7533 20.9882L68.1997 21.4474ZM62.3997 23.1616L59.9764 14.9622L61.5299 14.503L63.9533 22.7024L62.3997 23.1616Z" fill="#212121"/>
<path d="M79.0214 13.9503L78.9611 12.5295L82.342 12.3859C83.0734 12.3549 83.629 12.1451 84.0088 11.7566C84.3887 11.3682 84.5651 10.8562 84.5381 10.2208C84.5126 9.62133 84.2937 9.13218 83.8812 8.75334C83.4808 8.37399 82.9149 8.19985 82.1835 8.23092L78.7846 8.37529L78.722 6.90062L82.1749 6.75395C82.9661 6.72034 83.6621 6.84692 84.2629 7.13369C84.8631 7.40846 85.3302 7.80299 85.6643 8.31727C86.0105 8.83105 86.198 9.42963 86.2271 10.113C86.2571 10.8204 86.1215 11.4447 85.8202 11.986C85.5309 12.5267 85.0988 12.9595 84.5241 13.2841C83.9489 13.5968 83.2656 13.77 82.4743 13.8036L79.0214 13.9503ZM78.1191 19.4295L77.589 6.94874L79.2795 6.87694L79.8096 19.3577L78.1191 19.4295ZM85.3126 19.1239L80.5432 13.7235L82.12 13.098L87.4527 19.033L85.3126 19.1239Z" fill="#212121"/>
<path d="M92.3925 19.6996C91.6184 19.6036 90.9394 19.326 90.3555 18.8667C89.773 18.3955 89.3385 17.8035 89.052 17.0909C88.7774 16.3797 88.6918 15.6073 88.7951 14.7737C88.8984 13.94 89.17 13.2119 89.61 12.5893C90.0618 11.9682 90.6217 11.4995 91.2897 11.1832C91.9696 10.8685 92.7025 10.7598 93.4885 10.8572C94.1315 10.9369 94.6862 11.1447 95.1524 11.4806C95.632 11.8061 95.9971 12.2262 96.2477 12.7409C96.4998 13.2437 96.6053 13.807 96.5643 14.4307L96.2477 16.9851C96.1367 17.5881 95.8968 18.1085 95.5281 18.5465C95.1714 18.986 94.72 19.3109 94.174 19.5213C93.6413 19.7213 93.0475 19.7807 92.3925 19.6996ZM92.8486 18.2144C93.6465 18.3133 94.3228 18.125 94.8775 17.6497C95.4337 17.1624 95.7642 16.496 95.869 15.6504C95.9413 15.0669 95.8909 14.5467 95.7178 14.09C95.558 13.6228 95.2904 13.245 94.9151 12.9566C94.5412 12.6564 94.0863 12.473 93.5504 12.4066C93.0145 12.3402 92.5226 12.4062 92.0748 12.6046C91.6389 12.8045 91.2746 13.11 90.9818 13.5211C90.7024 13.9218 90.528 14.402 90.4586 14.9617C90.3877 15.5333 90.4381 16.0535 90.6098 16.5222C90.7948 16.9804 91.0803 17.3604 91.4661 17.6621C91.8519 17.9639 92.3127 18.148 92.8486 18.2144ZM95.237 19.8708L95.5204 17.5842L96.081 15.5497L96.0319 13.4578L96.2887 11.3857L97.9143 11.5872L96.8626 20.0722L95.237 19.8708Z" fill="#212121"/>
<path d="M100.044 20.7685L102.092 12.4673L103.665 12.8553L101.617 21.1565L100.044 20.7685ZM103.288 11.0011C102.997 10.9292 102.781 10.7771 102.64 10.5447C102.503 10.3006 102.47 10.033 102.542 9.74172C102.611 9.4621 102.761 9.25207 102.994 9.11165C103.229 8.95957 103.492 8.91945 103.784 8.9913C104.075 9.06315 104.289 9.2211 104.427 9.46515C104.567 9.69754 104.603 9.95355 104.534 10.2332C104.462 10.5244 104.309 10.7461 104.073 10.8982C103.841 11.0386 103.579 11.0729 103.288 11.0011Z" fill="#212121"/>
<path d="M104.261 21.8622L108.183 9.62299L109.725 10.1173L105.804 22.3565L104.261 21.8622Z" fill="#212121"/>
<path d="M110.903 24.4315C110.463 24.2412 110.068 24.0053 109.719 23.7239C109.386 23.4362 109.099 23.1164 108.859 22.7644C108.623 22.4013 108.449 22.0187 108.335 21.6166L109.707 21.072C109.841 21.5482 110.058 21.9554 110.356 22.2934C110.659 22.6203 111.042 22.8837 111.505 23.0835C111.968 23.2833 112.359 23.3608 112.679 23.316C113.004 23.2601 113.228 23.089 113.352 22.8026C113.475 22.5161 113.466 22.2506 113.323 22.006C113.196 21.7551 112.994 21.5111 112.718 21.274C112.446 21.0259 112.149 20.7738 111.829 20.5176C111.524 20.2552 111.247 19.9724 110.999 19.6692C110.751 19.366 110.584 19.026 110.498 18.6492C110.424 18.2771 110.489 17.8542 110.693 17.3805C110.898 16.9068 111.19 16.5491 111.568 16.3075C111.952 16.0548 112.388 15.9229 112.876 15.9116C113.376 15.9051 113.918 16.0279 114.502 16.28C115.118 16.5464 115.616 16.892 115.995 17.3169C116.389 17.7356 116.648 18.2263 116.771 18.7891L115.398 19.3338C115.302 18.9522 115.122 18.6129 114.858 18.316C114.605 18.0238 114.274 17.7897 113.867 17.6137C113.437 17.4281 113.073 17.3626 112.775 17.4169C112.493 17.465 112.295 17.6212 112.181 17.8856C112.067 18.15 112.078 18.3966 112.214 18.6255C112.351 18.8543 112.557 19.0873 112.834 19.3244C113.122 19.5663 113.418 19.8184 113.723 20.0808C114.033 20.3322 114.309 20.615 114.553 20.9292C114.796 21.2434 114.953 21.5921 115.023 21.9752C115.103 22.363 115.039 22.7993 114.83 23.284C114.511 24.0222 113.995 24.4919 113.28 24.6932C112.577 24.8993 111.785 24.812 110.903 24.4315Z" fill="#212121"/>
<path d="M125.116 25.6223L125.961 24.4785L128.683 26.489C129.272 26.9239 129.836 27.1094 130.375 27.0455C130.915 26.9815 131.374 26.6938 131.752 26.1822C132.108 25.6996 132.245 25.1814 132.161 24.6276C132.088 24.0809 131.757 23.5901 131.168 23.1552L128.431 21.1339L129.308 19.9467L132.088 22C132.725 22.4706 133.188 23.006 133.475 23.6063C133.77 24.197 133.886 24.7974 133.823 25.4074C133.77 26.0247 133.54 26.6083 133.134 27.1585C132.713 27.728 132.216 28.1289 131.642 28.3611C131.077 28.6004 130.469 28.666 129.818 28.558C129.174 28.4403 128.533 28.1462 127.896 27.6756L125.116 25.6223ZM120.974 29.321L128.396 19.2729L129.757 20.2782L122.335 30.3263L120.974 29.321ZM126.766 33.5988L126.443 26.401L128.063 26.904L128.489 34.8715L126.766 33.5988Z" fill="#212121"/>
<path d="M131.671 38.2641C131.179 37.772 130.844 37.2162 130.666 36.5968C130.505 35.9774 130.513 35.3579 130.691 34.7385C130.87 34.1191 131.222 33.5463 131.748 33.0202L135.261 29.5073L136.406 30.6528L132.944 34.1148C132.613 34.4458 132.38 34.7894 132.244 35.1458C132.125 35.5022 132.113 35.8543 132.206 36.2022C132.299 36.5501 132.494 36.8726 132.791 37.1695C133.241 37.6193 133.733 37.8314 134.268 37.8059C134.811 37.772 135.333 37.5047 135.833 37.0041L139.295 33.5421L140.441 34.6876L136.928 38.2005C136.402 38.7266 135.829 39.0787 135.21 39.2569C134.59 39.4351 133.971 39.4436 133.351 39.2824C132.749 39.1212 132.189 38.7817 131.671 38.2641Z" fill="#212121"/>
<path d="M138.415 46.0226C138.032 45.4999 137.791 44.9477 137.691 44.3657C137.609 43.7864 137.669 43.229 137.872 42.6936C138.074 42.1582 138.412 41.6951 138.884 41.3042L140.96 39.7825C141.485 39.4426 142.028 39.2601 142.59 39.2351C143.169 39.2126 143.717 39.3315 144.235 39.5915C144.77 39.8542 145.225 40.242 145.601 40.755C146.062 41.3841 146.317 42.0673 146.367 42.8047C146.424 43.5518 146.287 44.2691 145.958 44.9568C145.629 45.6444 145.126 46.2365 144.448 46.7331C143.771 47.2297 143.055 47.5315 142.3 47.6384C141.545 47.7454 140.82 47.6594 140.124 47.3806C139.446 47.1043 138.876 46.6517 138.415 46.0226ZM139.489 44.9003C139.808 45.3358 140.19 45.6436 140.635 45.8237C141.079 46.0038 141.547 46.0629 142.037 46.0011C142.537 45.9321 143.019 45.7274 143.484 45.3869C143.939 45.0534 144.274 44.6587 144.49 44.2026C144.707 43.7466 144.791 43.2831 144.743 42.8121C144.705 42.3341 144.53 41.8821 144.218 41.4563C143.899 41.0208 143.517 40.7129 143.072 40.5329C142.638 40.3457 142.174 40.2914 141.681 40.37C141.188 40.4486 140.709 40.6582 140.245 40.9987C139.79 41.3322 139.447 41.7172 139.217 42.1539C139.003 42.5932 138.915 43.0519 138.953 43.5299C138.998 44.0176 139.177 44.4744 139.489 44.9003ZM135.9 42.2868L146.265 34.6887L147.223 35.9953L142.069 39.773L140.219 40.75L138.716 42.2312L136.857 43.5934L135.9 42.2868Z" fill="#212121"/>
<path d="M143.464 53.7173L149.385 46.4355L150.219 48.0305L145.515 53.5993L145.248 53.0889L152.572 52.5283L153.406 54.1233L143.914 54.5786L143.464 53.7173ZM139.219 53.1749L144.964 53.0136L143.914 54.5786L140.053 54.7699L139.219 53.1749Z" fill="#212121"/>
<path d="M149.112 68.1965C148.902 67.3833 148.904 66.6018 149.119 65.852C149.334 65.1023 149.717 64.4515 150.269 63.8998C150.832 63.345 151.52 62.9624 152.333 62.7519C153.135 62.5445 153.904 62.5498 154.643 62.7678C155.392 62.9828 156.043 63.3659 156.595 63.9173C157.147 64.4686 157.528 65.1509 157.738 65.9641C157.946 66.7657 157.942 67.5414 157.727 68.2912C157.527 69.0496 157.151 69.7046 156.599 70.2564C156.048 70.8081 155.371 71.1877 154.57 71.3952C153.757 71.6056 152.969 71.6049 152.208 71.3929C151.458 71.1779 150.806 70.7889 150.251 70.2259C149.699 69.6746 149.32 68.9981 149.112 68.1965ZM150.628 67.8042C150.764 68.3269 151.006 68.7601 151.355 69.1035C151.704 69.447 152.118 69.6808 152.597 69.8049C153.086 69.926 153.604 69.9159 154.15 69.7746C154.685 69.6363 155.13 69.391 155.485 69.0388C155.843 68.6982 156.085 68.2946 156.212 67.8278C156.354 67.3697 156.357 66.8792 156.222 66.3565C156.087 65.8337 155.845 65.4006 155.495 65.0571C155.158 64.7106 154.75 64.4754 154.272 64.3512C153.793 64.2271 153.287 64.2342 152.752 64.3725C152.206 64.5139 151.749 64.7563 151.379 65.0999C151.021 65.4405 150.772 65.8456 150.634 66.3154C150.495 66.7851 150.493 67.2814 150.628 67.8042Z" fill="#212121"/>
<path d="M151.338 80.1997L156.299 79.7007C156.944 79.6359 157.455 79.3794 157.832 78.9315C158.209 78.4835 158.365 77.9371 158.3 77.2924C158.257 76.8625 158.123 76.4901 157.898 76.175C157.674 75.8599 157.385 75.6236 157.031 75.4662C156.677 75.3088 156.286 75.2517 155.856 75.2949L156.165 74.5945C156.81 74.5296 157.398 74.6152 157.928 74.8514C158.458 75.0875 158.892 75.4478 159.231 75.9324C159.581 76.4158 159.788 76.9799 159.853 77.6246C159.918 78.2694 159.814 78.8527 159.541 79.3747C159.269 79.9086 158.885 80.3452 158.388 80.6846C157.903 81.0228 157.369 81.2213 156.784 81.2802L151.5 81.8116L151.338 80.1997ZM150.733 74.1821L159.24 73.3264L159.402 74.9383L150.895 75.7939L150.733 74.1821Z" fill="#212121"/>
<defs>
<radialGradient id="paint0_radial_502_3084" cx="0" cy="0" r="1" gradientUnits="userSpaceOnUse" gradientTransform="translate(59.3333 54.5656) rotate(59.144) scale(101.28)">
<stop stop-color="#9EECE5" stop-opacity="0.48"/>
<stop offset="0.604593" stop-color="#9EECE5"/>
<stop offset="0.796202" stop-color="#72DFDD"/>
<stop offset="1" stop-color="#51BBF6"/>
</radialGradient>
</defs>
</svg>
