<svg width="768" height="378" viewBox="0 0 768 378" fill="none" xmlns="http://www.w3.org/2000/svg">
<g clip-path="url(#clip0_221_5620)">
<rect width="768" height="378" fill="#212439"/>
<ellipse cx="58.1398" cy="58.1337" rx="58.1398" ry="58.1337" transform="matrix(0.499921 -0.866071 0.86598 0.500079 583.053 130.241)" fill="url(#paint0_radial_221_5620)"/>
<line x1="642.73" y1="-28.0004" x2="643.304" y2="379" stroke="#DCDCDC" stroke-width="0.581307" stroke-dasharray="5.81 5.81"/>
<line x1="768.002" y1="253.702" x2="219.249" y2="254.877" stroke="#DCDCDC" stroke-width="0.581307" stroke-dasharray="5.81 5.81"/>
<path d="M16.1014 21.4448C16.1014 21.4448 82.034 7.48379 86.8146 66.6507C91.5953 125.818 117.081 123.637 168.293 118.739C219.505 113.84 234.34 226.256 293.31 198.66C352.279 171.064 355.891 294.358 413.52 243.58" stroke="#B0B0B0" stroke-width="1.16261" stroke-dasharray="5.81 5.81"/>
<ellipse cx="29.0707" cy="29.066" rx="29.0707" ry="29.066" transform="matrix(0.341957 -0.939716 0.93967 0.342084 504.975 192.875)" fill="url(#paint1_radial_221_5620)"/>
<ellipse cx="437.883" cy="213.002" rx="15.4079" ry="15.4046" transform="rotate(-90 437.883 213.002)" fill="url(#paint2_radial_221_5620)"/>
</g>
<defs>
<radialGradient id="paint0_radial_221_5620" cx="0" cy="0" r="1" gradientUnits="userSpaceOnUse" gradientTransform="translate(116.28 107.575) rotate(-135.703) scale(141.587 111.505)">
<stop offset="0.146825" stop-color="#EAEAEA"/>
<stop offset="0.309839" stop-color="#E6FFFC"/>
<stop offset="0.386422" stop-color="#C2F7F7"/>
<stop offset="0.477083" stop-color="#B0EEF2"/>
<stop offset="0.64375" stop-color="#8EE9D8"/>
<stop offset="0.789583" stop-color="#6DDDDD"/>
<stop offset="0.914583" stop-color="#3073C1"/>
<stop offset="1" stop-color="#638B9F"/>
</radialGradient>
<radialGradient id="paint1_radial_221_5620" cx="0" cy="0" r="1" gradientUnits="userSpaceOnUse" gradientTransform="translate(58.1414 53.7858) rotate(-135.704) scale(70.7934 55.7527)">
<stop offset="0.146825" stop-color="#EAEAEA"/>
<stop offset="0.309839" stop-color="#FFE6ED"/>
<stop offset="0.386422" stop-color="#F7C2DC"/>
<stop offset="0.477083" stop-color="#F2B0D0"/>
<stop offset="0.64375" stop-color="#E98ED1"/>
<stop offset="0.789583" stop-color="#6D73DD"/>
<stop offset="0.914583" stop-color="#3073C1"/>
<stop offset="1" stop-color="#638B9F"/>
</radialGradient>
<radialGradient id="paint2_radial_221_5620" cx="0" cy="0" r="1" gradientUnits="userSpaceOnUse" gradientTransform="translate(453.291 226.103) rotate(-135.706) scale(37.5205 29.5489)">
<stop offset="0.146825" stop-color="#EAEAEA"/>
<stop offset="0.309839" stop-color="#E6FFFC"/>
<stop offset="0.386422" stop-color="#C2F7F7"/>
<stop offset="0.477083" stop-color="#B0EEF2"/>
<stop offset="0.64375" stop-color="#8EE9D8"/>
<stop offset="0.789583" stop-color="#6DDDDD"/>
<stop offset="0.914583" stop-color="#3073C1"/>
<stop offset="1" stop-color="#638B9F"/>
</radialGradient>
<clipPath id="clip0_221_5620">
<rect width="768" height="378" fill="white"/>
</clipPath>
</defs>
</svg>
