<svg width="375" height="699" viewBox="0 0 375 699" fill="none" xmlns="http://www.w3.org/2000/svg">
<rect width="1" height="643.57" transform="matrix(1 -4.33747e-05 4.15331e-05 1 369 53.7122)" fill="#DCDCDC"/>
<rect x="297" y="85.842" width="1" height="613.158" fill="#DCDCDC"/>
<rect x="225" y="131.829" width="1" height="567.171" fill="#DCDCDC"/>
<rect x="81" y="205.408" width="1" height="493.592" fill="#DCDCDC"/>
<rect x="9" y="245.263" width="1" height="453.737" fill="#DCDCDC"/>
<rect x="153" y="178.838" width="1" height="520.162" fill="#DCDCDC"/>
<line x1="473" y1="697.783" x2="-255" y2="697.783" stroke="#DCDCDC" stroke-dasharray="10 10"/>
<line x1="478" y1="574.126" x2="-142" y2="574.126" stroke="#DCDCDC" stroke-dasharray="10 10"/>
<line x1="478" y1="445.04" x2="-142" y2="445.04" stroke="#DCDCDC" stroke-dasharray="10 10"/>
<line x1="479.012" y1="330.583" x2="-34.9883" y2="330.583" stroke="#DCDCDC" stroke-dasharray="10 10"/>
<line x1="478" y1="387.812" x2="-36" y2="387.812" stroke="#DCDCDC" stroke-dasharray="10 10"/>
<line x1="479" y1="273.355" x2="-35" y2="273.355" stroke="#DCDCDC" stroke-dasharray="10 10"/>
<line x1="407.007" y1="216.127" x2="51.9945" y2="216.127" stroke="#DCDCDC" stroke-dasharray="10 10"/>
<line x1="476.013" y1="158.899" x2="121" y2="158.899" stroke="#DCDCDC" stroke-dasharray="10 10"/>
<path d="M118.37 375.236L119.092 375.295L118.953 377.014C118.922 377.385 118.994 377.679 119.166 377.896C119.339 378.112 119.587 378.234 119.91 378.26C120.214 378.285 120.475 378.204 120.693 378.02C120.91 377.841 121.033 377.566 121.063 377.194L121.204 375.466L121.953 375.527L121.811 377.282C121.778 377.685 121.67 378.029 121.488 378.314C121.311 378.601 121.082 378.812 120.801 378.949C120.52 379.091 120.205 379.149 119.858 379.121C119.499 379.091 119.191 378.984 118.937 378.797C118.681 378.617 118.49 378.371 118.361 378.06C118.239 377.75 118.195 377.394 118.227 376.991L118.37 375.236ZM115.656 374.436L122 374.951L121.93 375.811L115.586 375.296L115.656 374.436ZM115.359 378.093L118.389 376.02L118.606 376.857L115.271 379.181L115.359 378.093Z" fill="#212121"/>
<path d="M114.641 381.503C114.722 381.158 114.873 380.864 115.093 380.62C115.318 380.384 115.589 380.221 115.905 380.132C116.221 380.043 116.564 380.042 116.933 380.128L119.397 380.707L119.208 381.51L116.78 380.94C116.548 380.886 116.336 380.877 116.145 380.914C115.959 380.958 115.803 381.047 115.678 381.181C115.552 381.315 115.465 381.486 115.416 381.694C115.342 382.01 115.382 382.28 115.537 382.505C115.697 382.731 115.953 382.885 116.304 382.967L118.733 383.537L118.544 384.341L116.08 383.763C115.711 383.676 115.405 383.522 115.161 383.302C114.918 383.082 114.748 382.816 114.651 382.504C114.559 382.2 114.556 381.866 114.641 381.503Z" fill="#212121"/>
<path d="M113.099 386.432C113.223 386.126 113.398 385.874 113.624 385.675C113.853 385.484 114.111 385.361 114.397 385.306C114.683 385.25 114.974 385.273 115.27 385.373L116.486 385.866C116.773 386.002 116.998 386.189 117.159 386.426C117.324 386.671 117.419 386.94 117.445 387.234C117.474 387.537 117.428 387.838 117.306 388.138C117.157 388.506 116.929 388.8 116.622 389.019C116.314 389.243 115.966 389.376 115.58 389.418C115.194 389.459 114.802 389.399 114.406 389.238C114.009 389.077 113.687 388.848 113.438 388.549C113.19 388.25 113.033 387.913 112.968 387.537C112.906 387.169 112.95 386.801 113.099 386.432ZM113.873 386.598C113.77 386.853 113.738 387.101 113.779 387.342C113.82 387.582 113.92 387.801 114.078 387.997C114.241 388.195 114.459 388.35 114.731 388.46C114.998 388.568 115.258 388.608 115.514 388.579C115.77 388.551 115.993 388.463 116.185 388.317C116.382 388.172 116.531 387.975 116.632 387.726C116.735 387.471 116.767 387.223 116.726 386.982C116.69 386.744 116.59 386.528 116.424 386.335C116.258 386.143 116.039 385.991 115.767 385.881C115.501 385.773 115.242 385.728 114.991 385.745C114.743 385.77 114.521 385.854 114.324 385.999C114.124 386.149 113.974 386.348 113.873 386.598ZM114.045 384.342L120.114 386.802L119.804 387.567L116.787 386.344L115.868 385.803L114.823 385.548L113.735 385.107L114.045 384.342Z" fill="#212121"/>
<path d="M111.082 390.72L115.823 391.345L115.353 392.133L111.681 391.578L111.831 391.326L114.03 394.355L113.56 395.143L110.828 391.145L111.082 390.72ZM110.184 388.733L111.788 391.183L110.828 391.145L109.714 389.521L110.184 388.733Z" fill="#212121"/>
<path d="M106.29 397.044C106.586 396.735 106.926 396.527 107.308 396.419C107.691 396.311 108.075 396.303 108.462 396.394C108.854 396.489 109.204 396.684 109.513 396.98C109.818 397.272 110.022 397.607 110.125 397.985C110.233 398.368 110.241 398.753 110.15 399.139C110.059 399.526 109.866 399.874 109.57 400.184C109.278 400.488 108.941 400.695 108.558 400.802C108.176 400.919 107.791 400.931 107.405 400.84C107.018 400.749 106.672 400.558 106.367 400.266C106.058 399.97 105.847 399.629 105.735 399.242C105.627 398.86 105.621 398.473 105.716 398.082C105.807 397.695 105.999 397.349 106.29 397.044ZM106.867 397.596C106.677 397.795 106.554 398.016 106.499 398.259C106.443 398.502 106.453 398.744 106.527 398.985C106.606 399.23 106.749 399.451 106.957 399.65C107.16 399.845 107.386 399.972 107.633 400.031C107.877 400.095 108.117 400.092 108.353 400.022C108.59 399.961 108.803 399.83 108.993 399.632C109.184 399.433 109.306 399.212 109.362 398.969C109.421 398.729 109.414 398.49 109.339 398.249C109.265 398.008 109.126 397.791 108.923 397.596C108.715 397.398 108.488 397.264 108.24 397.196C107.996 397.132 107.754 397.133 107.513 397.199C107.273 397.265 107.057 397.397 106.867 397.596Z" fill="#212121"/>
<path d="M101.7 401.207L103.247 403.223C103.448 403.485 103.696 403.637 103.991 403.681C104.286 403.724 104.565 403.645 104.827 403.444C105.001 403.31 105.127 403.152 105.203 402.97C105.279 402.789 105.304 402.6 105.277 402.405C105.251 402.209 105.171 402.024 105.037 401.85L105.423 401.796C105.624 402.058 105.744 402.335 105.784 402.628C105.824 402.921 105.785 403.206 105.665 403.483C105.55 403.764 105.361 404.005 105.099 404.206C104.837 404.407 104.556 404.518 104.257 404.54C103.953 404.565 103.661 404.516 103.38 404.392C103.104 404.272 102.875 404.094 102.692 403.856L101.045 401.71L101.7 401.207ZM104.145 399.332L106.797 402.788L106.142 403.29L103.49 399.834L104.145 399.332Z" fill="#212121"/>
<path d="M98.1286 406.627L98.4208 407.29L96.843 407.985C96.5017 408.136 96.277 408.338 96.1688 408.593C96.0606 408.848 96.0718 409.124 96.2025 409.42C96.3258 409.7 96.5204 409.892 96.7864 409.995C97.0468 410.101 97.3477 410.078 97.6889 409.928L99.2751 409.229L99.5784 409.917L97.967 410.627C97.5978 410.79 97.244 410.859 96.9057 410.834C96.5699 410.815 96.2751 410.715 96.0211 410.533C95.7616 410.353 95.5615 410.104 95.421 409.785C95.2755 409.455 95.2241 409.133 95.2667 408.82C95.3036 408.51 95.4284 408.225 95.6409 407.964C95.8559 407.709 96.148 407.5 96.5173 407.337L98.1286 406.627ZM97.5405 403.86L100.107 409.684L99.3182 410.032L96.7516 404.207L97.5405 403.86ZM94.1835 405.339L97.4486 407.017L96.8163 407.606L93.1848 405.779L94.1835 405.339Z" fill="#212121"/>
<path d="M90.7259 406.352C91.111 406.254 91.4847 406.259 91.847 406.369C92.2109 406.484 92.5269 406.685 92.7951 406.97C93.0573 407.256 93.2413 407.607 93.347 408.022C93.4526 408.436 93.4589 408.832 93.3656 409.209C93.2665 409.588 93.0878 409.914 92.8295 410.188C92.5653 410.464 92.2377 410.651 91.8466 410.751C91.5267 410.832 91.2249 410.837 90.9413 410.764C90.6534 410.698 90.4022 410.567 90.1877 410.369C89.9748 410.177 89.8202 409.93 89.724 409.626L89.4002 408.355C89.341 408.048 89.3582 407.757 89.4519 407.481C89.5396 407.206 89.6935 406.968 89.9136 406.767C90.1292 406.573 90.4 406.435 90.7259 406.352ZM90.785 407.141C90.388 407.242 90.102 407.457 89.9271 407.785C89.7536 408.12 89.7204 408.497 89.8276 408.918C89.9015 409.208 90.022 409.446 90.1889 409.631C90.3514 409.823 90.5484 409.952 90.7801 410.019C91.0132 410.092 91.2631 410.095 91.5297 410.027C91.7964 409.959 92.0175 409.837 92.1932 409.659C92.3629 409.484 92.4791 409.271 92.5418 409.022C92.6 408.78 92.5937 408.519 92.5227 408.241C92.4503 407.957 92.3298 407.719 92.1614 407.529C91.9886 407.345 91.7826 407.218 91.5435 407.147C91.3045 407.075 91.0516 407.073 90.785 407.141ZM89.3443 406.798L89.6341 407.936L89.7457 409.005L90.1571 409.989L90.4198 411.02L89.611 411.226L88.5355 407.004L89.3443 406.798Z" fill="#212121"/>
<path d="M86.9509 407.234L87.5199 411.553L86.7016 411.661L86.1325 407.342L86.9509 407.234ZM87.2246 412.471C87.3761 412.451 87.5068 412.483 87.6165 412.567C87.7271 412.658 87.7924 412.779 87.8123 412.93C87.8315 413.076 87.799 413.203 87.7148 413.313C87.6314 413.429 87.5139 413.497 87.3623 413.517C87.2108 413.537 87.0797 413.502 86.9692 413.411C86.8594 413.327 86.7949 413.212 86.7758 413.067C86.7558 412.915 86.7875 412.782 86.8709 412.666C86.9551 412.556 87.073 412.491 87.2246 412.471Z" fill="#212121"/>
<path d="M84.6562 407.496L85.0602 414.032L84.2363 414.083L83.8324 407.547L84.6562 407.496Z" fill="#212121"/>
<path d="M80.9164 407.492C81.1608 407.501 81.3918 407.541 81.6093 407.61C81.8206 407.686 82.0156 407.785 82.1944 407.908C82.373 408.038 82.5263 408.187 82.6543 408.357L82.1023 408.868C81.951 408.667 81.7733 408.513 81.5694 408.407C81.3652 408.308 81.1348 408.253 80.8782 408.243C80.6216 408.233 80.4214 408.268 80.2776 408.348C80.1335 408.435 80.0584 408.557 80.0523 408.716C80.0461 408.875 80.0995 408.999 80.2122 409.089C80.3187 409.185 80.4594 409.264 80.6345 409.326C80.8093 409.394 80.9965 409.459 81.196 409.522C81.3891 409.59 81.5725 409.674 81.7461 409.773C81.9198 409.871 82.0616 410.002 82.1715 410.165C82.2754 410.328 82.3222 410.541 82.3121 410.804C82.3019 411.067 82.229 411.29 82.0934 411.475C81.9576 411.665 81.7746 411.808 81.5445 411.903C81.3084 411.998 81.0284 412.039 80.7046 412.027C80.3624 412.014 80.0624 411.941 79.8044 411.809C79.54 411.682 79.3269 411.496 79.1651 411.251L79.7171 410.74C79.8332 410.904 79.9812 411.032 80.1612 411.125C80.3351 411.217 80.535 411.268 80.7611 411.276C80.9994 411.286 81.1843 411.25 81.3159 411.169C81.4412 411.095 81.5066 410.984 81.5123 410.837C81.5179 410.691 81.4673 410.576 81.3604 410.492C81.2535 410.408 81.1125 410.335 80.9375 410.274C80.7563 410.212 80.5692 410.146 80.376 410.078C80.1826 410.015 79.9992 409.931 79.8258 409.827C79.6524 409.722 79.5139 409.585 79.4103 409.416C79.3006 409.247 79.2509 409.028 79.2613 408.759C79.2771 408.349 79.4362 408.031 79.7387 407.804C80.0351 407.577 80.4276 407.473 80.9164 407.492Z" fill="#212121"/>
<path d="M74.0028 409.536L73.8133 410.235L72.1492 409.784C71.7892 409.686 71.487 409.703 71.2427 409.833C70.9984 409.963 70.8338 410.184 70.7491 410.497C70.6691 410.792 70.7001 411.064 70.8421 411.311C70.9782 411.557 71.2262 411.729 71.5862 411.826L73.2592 412.28L73.0625 413.006L71.3629 412.545C70.9734 412.439 70.6549 412.271 70.4073 412.039C70.1581 411.813 69.992 411.549 69.9089 411.248C69.82 410.945 69.821 410.626 69.9122 410.289C70.0066 409.941 70.1686 409.659 70.3983 409.442C70.6221 409.224 70.8986 409.081 71.2277 409.012C71.5552 408.948 71.9138 408.969 72.3033 409.075L74.0028 409.536ZM75.285 407.013L73.6202 413.157L72.7881 412.931L74.4529 406.788L75.285 407.013ZM71.7442 406.054L73.2288 409.411L72.3666 409.472L70.6908 405.768L71.7442 406.054Z" fill="#212121"/>
<path d="M68.4792 404.691C68.8032 404.835 69.0641 405.038 69.262 405.301C69.4518 405.566 69.5609 405.862 69.5893 406.189C69.6177 406.516 69.5548 406.853 69.4006 407.199L68.3713 409.512L67.6172 409.176L68.6316 406.897C68.7286 406.679 68.7768 406.473 68.7763 406.279C68.7677 406.088 68.7095 405.918 68.6015 405.77C68.4936 405.621 68.3419 405.503 68.1464 405.416C67.8503 405.285 67.5775 405.274 67.3279 405.383C67.0758 405.499 66.8764 405.721 66.7297 406.051L65.7152 408.33L64.9611 407.994L65.9905 405.681C66.1447 405.335 66.3528 405.063 66.6149 404.865C66.877 404.667 67.1701 404.55 67.4941 404.514C67.8101 404.48 68.1385 404.539 68.4792 404.691Z" fill="#212121"/>
<path d="M63.9716 402.284C64.2496 402.462 64.4654 402.68 64.6192 402.939C64.7646 403.199 64.8382 403.475 64.8399 403.767C64.8417 404.059 64.7661 404.341 64.6132 404.613L63.9051 405.717C63.718 405.975 63.4932 406.161 63.2306 406.276C62.9597 406.392 62.6772 406.436 62.3833 406.408C62.0809 406.381 61.7933 406.28 61.5206 406.105C61.1861 405.89 60.9395 405.612 60.7808 405.271C60.617 404.926 60.5503 404.56 60.5807 404.173C60.6112 403.786 60.742 403.412 60.9731 403.052C61.2041 402.691 61.4893 402.417 61.8286 402.228C62.1678 402.038 62.5283 401.946 62.91 401.951C63.2832 401.958 63.6371 402.069 63.9716 402.284ZM63.6665 403.014C63.435 402.866 63.197 402.789 62.9527 402.785C62.7084 402.781 62.4754 402.839 62.2536 402.958C62.0285 403.082 61.8368 403.268 61.6783 403.515C61.5232 403.757 61.436 404.006 61.4168 404.262C61.3976 404.519 61.4424 404.755 61.5514 404.97C61.6571 405.19 61.8231 405.373 62.0495 405.518C62.2811 405.667 62.5191 405.743 62.7634 405.747C63.0044 405.757 63.2348 405.697 63.4548 405.57C63.6747 405.442 63.8639 405.255 64.0223 405.008C64.1775 404.766 64.2698 404.52 64.2993 404.27C64.3204 404.022 64.2781 403.788 64.1724 403.568C64.0616 403.344 63.893 403.159 63.6665 403.014ZM65.852 403.599L62.3166 409.111L61.6218 408.665L63.3796 405.925L64.0803 405.121L64.5235 404.141L65.1573 403.153L65.852 403.599Z" fill="#212121"/>
<path d="M60.1394 399.519L58.6631 404.068L57.9736 403.463L59.1864 399.952L59.407 400.145L56.0292 401.758L55.3397 401.153L59.767 399.193L60.1394 399.519ZM62.2563 398.997L59.5554 400.129L59.767 399.193L61.5668 398.392L62.2563 398.997Z" fill="#212121"/>
<path d="M54.7899 393.644C55.0391 393.992 55.1814 394.363 55.2168 394.759C55.2521 395.155 55.1894 395.535 55.0285 395.898C54.8627 396.265 54.6058 396.573 54.2579 396.823C53.9149 397.068 53.548 397.207 53.1571 397.239C52.7613 397.274 52.3816 397.211 52.0182 397.05C51.6548 396.89 51.3485 396.635 51.0993 396.287C50.8536 395.944 50.7131 395.575 50.6777 395.179C50.6338 394.782 50.6923 394.401 50.8532 394.038C51.014 393.675 51.2659 393.37 51.6089 393.124C51.9568 392.875 52.3312 392.731 52.732 392.692C53.1279 392.657 53.5093 392.722 53.8763 392.888C54.2397 393.049 54.5442 393.301 54.7899 393.644ZM54.1412 394.108C53.981 393.885 53.7864 393.723 53.5574 393.624C53.3284 393.525 53.0888 393.49 52.8387 393.518C52.5836 393.551 52.3392 393.65 52.1056 393.818C51.8769 393.982 51.7105 394.18 51.6064 394.412C51.4986 394.64 51.4574 394.876 51.4826 395.121C51.4992 395.365 51.5877 395.599 51.7479 395.823C51.9081 396.046 52.1027 396.208 52.3317 396.307C52.5558 396.41 52.7929 396.447 53.043 396.418C53.2931 396.389 53.5325 396.293 53.7612 396.129C53.9948 395.962 54.168 395.763 54.2807 395.531C54.3884 395.304 54.4321 395.066 54.4119 394.817C54.3917 394.568 54.3015 394.332 54.1412 394.108Z" fill="#212121"/>
<path d="M51.5551 388.399L49.291 389.551C48.9968 389.701 48.8015 389.917 48.705 390.199C48.6086 390.481 48.6353 390.77 48.7851 391.064C48.8849 391.26 49.0173 391.412 49.1821 391.52C49.3469 391.629 49.5278 391.688 49.7248 391.697C49.9217 391.707 50.1183 391.661 50.3144 391.562L50.2967 391.951C50.0025 392.101 49.7077 392.169 49.4122 392.155C49.1168 392.14 48.8441 392.049 48.5941 391.882C48.3386 391.717 48.1359 391.487 47.9862 391.193C47.8364 390.898 47.7782 390.602 47.8116 390.304C47.8423 390 47.9442 389.722 48.1174 389.469C48.2851 389.219 48.5025 389.026 48.7695 388.89L51.1807 387.663L51.5551 388.399ZM52.9529 391.145L49.0705 393.121L48.6961 392.385L52.5785 390.409L52.9529 391.145Z" fill="#212121"/>
<path d="M46.9046 383.969L46.1993 384.134L45.8055 382.455C45.7203 382.092 45.5624 381.834 45.3318 381.681C45.1011 381.528 44.8281 381.488 44.5126 381.562C44.215 381.632 43.991 381.788 43.8406 382.031C43.6889 382.267 43.6556 382.567 43.7408 382.93L44.1367 384.618L43.4045 384.79L43.0024 383.075C42.9102 382.682 42.9073 382.322 42.9936 381.994C43.074 381.667 43.227 381.396 43.4526 381.18C43.6768 380.958 43.9586 380.807 44.2978 380.727C44.649 380.645 44.9745 380.653 45.2741 380.753C45.5723 380.846 45.83 381.021 46.0473 381.278C46.2586 381.536 46.4103 381.861 46.5025 382.254L46.9046 383.969ZM49.7331 383.898L43.5365 385.352L43.3396 384.513L49.5362 383.059L49.7331 383.898ZM48.8952 380.327L46.6462 383.228L46.183 382.499L48.646 379.264L48.8952 380.327Z" fill="#212121"/>
<path d="M48.5188 376.671C48.5434 377.068 48.468 377.434 48.2927 377.77C48.1113 378.105 47.8556 378.379 47.5255 378.589C47.1951 378.793 46.8163 378.908 46.3891 378.935C45.962 378.961 45.5718 378.893 45.2188 378.731C44.8653 378.563 44.5781 378.327 44.3571 378.022C44.1358 377.711 44.0126 377.354 43.9877 376.951C43.9674 376.622 44.0194 376.325 44.1439 376.06C44.262 375.789 44.4381 375.567 44.6724 375.393C44.9006 375.22 45.1728 375.114 45.489 375.076L46.798 374.995C47.1104 374.994 47.3935 375.065 47.6474 375.209C47.901 375.346 48.106 375.542 48.2626 375.796C48.4127 376.044 48.4981 376.336 48.5188 376.671ZM47.7323 376.582C47.707 376.173 47.5493 375.852 47.2593 375.619C46.9631 375.386 46.5984 375.283 46.1651 375.31C45.8661 375.328 45.6103 375.402 45.3978 375.532C45.1787 375.656 45.0146 375.825 44.9054 376.04C44.7901 376.255 44.7409 376.501 44.7579 376.775C44.7749 377.05 44.854 377.29 44.9954 377.496C45.1363 377.695 45.3235 377.849 45.5568 377.957C45.7837 378.059 46.0405 378.102 46.3274 378.084C46.6203 378.066 46.8761 377.992 47.0947 377.862C47.3068 377.726 47.4704 377.548 47.5853 377.326C47.7003 377.105 47.7493 376.857 47.7323 376.582ZM48.3379 375.231L47.1662 375.303L46.0948 375.213L45.0517 375.434L43.9899 375.499L43.9384 374.666L48.2864 374.398L48.3379 375.231Z" fill="#212121"/>
<path d="M48.3444 372.65L43.9954 372.398L44.0431 371.574L48.3922 371.826L48.3444 372.65ZM43.1494 371.935C43.1406 372.088 43.0845 372.21 42.9812 372.302C42.8718 372.394 42.7407 372.435 42.5881 372.427C42.4417 372.418 42.3224 372.362 42.2304 372.259C42.1323 372.155 42.0877 372.027 42.0965 371.874C42.1053 371.722 42.1645 371.6 42.2739 371.508C42.3772 371.416 42.5021 371.374 42.6486 371.383C42.8012 371.392 42.9266 371.448 43.0247 371.552C43.1167 371.655 43.1583 371.783 43.1494 371.935Z" fill="#212121"/>
<path d="M48.4985 370.466L42 369.66L42.1015 368.841L48.6001 369.647L48.4985 370.466Z" fill="#212121"/>
<path d="M49.1776 366.826C49.1235 367.064 49.0424 367.284 48.9341 367.485C48.8212 367.679 48.6879 367.853 48.534 368.006C48.3743 368.158 48.199 368.281 48.0083 368.376L47.607 367.739C47.833 367.628 48.0166 367.481 48.158 367.3C48.2934 367.117 48.3894 366.901 48.4462 366.651C48.5029 366.4 48.5051 366.197 48.4527 366.041C48.3943 365.883 48.2876 365.787 48.1326 365.752C47.9775 365.717 47.8454 365.746 47.7363 365.841C47.6225 365.928 47.5192 366.052 47.4264 366.213C47.3275 366.372 47.229 366.544 47.1308 366.729C47.0279 366.906 46.9121 367.071 46.7835 367.224C46.6549 367.376 46.5002 367.492 46.3195 367.57C46.1401 367.642 45.9223 367.649 45.6659 367.591C45.4094 367.533 45.203 367.42 45.0465 367.253C44.8841 367.085 44.7772 366.879 44.7258 366.635C44.6758 366.386 44.6865 366.103 44.7582 365.787C44.8338 365.453 44.9603 365.171 45.1377 364.942C45.3104 364.705 45.532 364.53 45.8024 364.415L46.2036 365.052C46.0216 365.136 45.8685 365.258 45.7445 365.418C45.6218 365.572 45.5355 365.759 45.4855 365.98C45.4328 366.212 45.434 366.401 45.4891 366.545C45.5396 366.682 45.6365 366.766 45.7796 366.799C45.9227 366.831 46.0452 366.802 46.147 366.713C46.2488 366.623 46.3462 366.498 46.439 366.337C46.5332 366.17 46.6318 365.998 46.7346 365.821C46.8315 365.642 46.9473 365.477 47.0819 365.326C47.2165 365.174 47.3764 365.063 47.5617 364.993C47.7484 364.916 47.9729 364.907 48.2353 364.967C48.6348 365.057 48.9184 365.272 49.0861 365.611C49.2552 365.944 49.2857 366.349 49.1776 366.826Z" fill="#212121"/>
<path d="M48.438 359.645L47.7863 359.328L48.5398 357.777C48.7028 357.442 48.7431 357.142 48.6608 356.877C48.5785 356.613 48.3916 356.41 48.1001 356.269C47.8251 356.135 47.5528 356.115 47.2832 356.208C47.0162 356.296 46.8012 356.508 46.6382 356.843L45.8807 358.402L45.2043 358.074L45.9738 356.49C46.1502 356.127 46.3753 355.845 46.6492 355.645C46.9176 355.443 47.2075 355.329 47.519 355.303C47.8331 355.272 48.1469 355.333 48.4604 355.485C48.7848 355.643 49.032 355.855 49.2018 356.121C49.3743 356.381 49.4638 356.68 49.4704 357.016C49.4715 357.35 49.3838 357.698 49.2075 358.061L48.438 359.645ZM50.6767 361.375L44.9518 358.593L45.3285 357.818L51.0534 360.599L50.6767 361.375ZM52.2799 358.075L48.7044 358.907L48.8054 358.049L52.7568 357.093L52.2799 358.075Z" fill="#212121"/>
<path d="M54.1927 355.147C53.9915 355.439 53.7439 355.658 53.45 355.805C53.1545 355.942 52.8433 355.995 52.5165 355.963C52.1896 355.931 51.8701 355.808 51.558 355.592L49.4736 354.156L49.9419 353.477L51.9961 354.892C52.1924 355.027 52.3862 355.112 52.5773 355.148C52.7668 355.174 52.9444 355.148 53.1102 355.069C53.2759 354.99 53.4194 354.863 53.5408 354.687C53.7247 354.42 53.7856 354.154 53.7235 353.888C53.6564 353.619 53.4743 353.382 53.1773 353.178L51.1231 351.762L51.5914 351.083L53.6758 352.519C53.9879 352.734 54.2172 352.988 54.3637 353.282C54.5101 353.576 54.5715 353.886 54.5479 354.211C54.5227 354.528 54.4043 354.84 54.1927 355.147Z" fill="#212121"/>
<path d="M57.3128 351.219C57.0871 351.46 56.8332 351.633 56.5511 351.738C56.2688 351.833 55.984 351.856 55.6968 351.804C55.4097 351.753 55.146 351.628 54.9059 351.428L53.9487 350.531C53.7292 350.301 53.5868 350.046 53.5214 349.767C53.4558 349.479 53.4637 349.193 53.5453 348.91C53.6265 348.617 53.7779 348.353 53.9995 348.116C54.2711 347.826 54.5893 347.634 54.9539 347.54C55.3227 347.441 55.6947 347.442 56.07 347.542C56.4453 347.642 56.7891 347.839 57.1015 348.131C57.4138 348.424 57.6323 348.754 57.7568 349.122C57.8813 349.49 57.9064 349.861 57.8321 350.236C57.7576 350.601 57.5845 350.929 57.3128 351.219ZM56.6498 350.787C56.8379 350.586 56.9561 350.366 57.0045 350.126C57.0529 349.887 57.0386 349.647 56.9616 349.408C56.88 349.164 56.7322 348.942 56.518 348.741C56.3083 348.544 56.079 348.414 55.8303 348.348C55.5816 348.283 55.3416 348.284 55.1102 348.352C54.8744 348.416 54.6646 348.546 54.4806 348.743C54.2926 348.943 54.1743 349.164 54.1259 349.403C54.0731 349.638 54.0895 349.876 54.1752 350.115C54.2609 350.355 54.4108 350.575 54.625 350.775C54.8347 350.972 55.0598 351.107 55.3001 351.181C55.5402 351.247 55.7781 351.248 56.0139 351.184C56.2539 351.116 56.4659 350.983 56.6498 350.787ZM55.6785 352.83L50.8992 348.354L51.4635 347.751L53.8397 349.977L54.5029 350.812L55.386 351.425L56.2427 352.228L55.6785 352.83Z" fill="#212121"/>
<path d="M60.8085 347.862L56.6102 345.572L57.3317 345.006L60.5588 346.845L60.3279 347.027L59.3663 343.409L60.0878 342.843L61.1981 347.556L60.8085 347.862ZM60.9314 350.039L60.3165 347.175L61.1981 347.556L61.6529 349.473L60.9314 350.039Z" fill="#212121"/>
<path d="M67.5593 343.67C67.1716 343.851 66.78 343.923 66.3843 343.885C65.9887 343.847 65.627 343.716 65.2992 343.491C64.9688 343.261 64.7129 342.952 64.5316 342.564C64.3529 342.182 64.2838 341.796 64.3241 341.406C64.3618 341.01 64.493 340.649 64.7177 340.321C64.9424 339.993 65.2486 339.739 65.6363 339.557C66.0185 339.379 66.4073 339.308 66.803 339.346C67.2015 339.375 67.5647 339.503 67.8925 339.727C68.2204 339.952 68.4736 340.255 68.6523 340.638C68.8336 341.025 68.9067 341.42 68.8715 341.821C68.8338 342.216 68.6998 342.579 68.4696 342.91C68.2449 343.238 67.9415 343.491 67.5593 343.67ZM67.2213 342.947C67.4706 342.83 67.6649 342.669 67.8044 342.462C67.9438 342.255 68.0223 342.026 68.0399 341.774C68.0548 341.518 68.0014 341.259 67.8797 340.999C67.7606 340.744 67.5962 340.544 67.3867 340.399C67.1827 340.252 66.9578 340.168 66.7122 340.148C66.4695 340.119 66.2235 340.164 65.9743 340.28C65.725 340.397 65.5307 340.558 65.3912 340.765C65.2492 340.967 65.1694 341.193 65.1519 341.444C65.1343 341.695 65.1851 341.948 65.3043 342.203C65.426 342.463 65.5902 342.67 65.7968 342.823C66.0008 342.971 66.2269 343.058 66.4751 343.083C66.7234 343.109 66.9721 343.063 67.2213 342.947Z" fill="#212121"/>
<path d="M73.1386 341.499L72.4186 339.063C72.325 338.746 72.1482 338.515 71.8882 338.369C71.6282 338.222 71.3399 338.196 71.0232 338.289C70.8122 338.352 70.6384 338.454 70.5019 338.597C70.3655 338.739 70.2746 338.906 70.2293 339.098C70.184 339.29 70.1926 339.491 70.255 339.702L69.875 339.614C69.7814 339.297 69.7686 338.995 69.8365 338.707C69.9044 338.419 70.0437 338.168 70.2542 337.953C70.463 337.731 70.7257 337.574 71.0424 337.481C71.359 337.387 71.6609 337.384 71.9481 337.471C72.2411 337.557 72.4962 337.708 72.7131 337.924C72.9284 338.134 73.0784 338.383 73.1634 338.671L73.9302 341.265L73.1386 341.499ZM70.1834 342.373L68.9487 338.195L69.7403 337.961L70.975 342.139L70.1834 342.373Z" fill="#212121"/>
<path d="M78.6524 337.679L78.6217 336.955L80.3443 336.882C80.717 336.866 81 336.76 81.1936 336.562C81.3871 336.364 81.477 336.103 81.4633 335.779C81.4503 335.474 81.3387 335.224 81.1286 335.031C80.9245 334.838 80.6362 334.749 80.2636 334.765L78.5318 334.839L78.4999 334.087L80.2592 334.013C80.6623 333.996 81.0169 334.06 81.323 334.206C81.6288 334.346 81.8669 334.547 82.0371 334.809C82.2134 335.071 82.309 335.376 82.3238 335.724C82.3391 336.085 82.27 336.403 82.1165 336.678C81.9691 336.954 81.749 337.174 81.4561 337.34C81.163 337.499 80.8149 337.587 80.4117 337.605L78.6524 337.679ZM78.1927 340.471L77.9226 334.112L78.7839 334.075L79.054 340.434L78.1927 340.471ZM81.8579 340.315L79.4278 337.564L80.2312 337.245L82.9483 340.269L81.8579 340.315Z" fill="#212121"/>
<path d="M85.4652 340.609C85.0708 340.56 84.7248 340.418 84.4273 340.184C84.1305 339.944 83.9091 339.643 83.7632 339.279C83.6232 338.917 83.5796 338.524 83.6323 338.099C83.6849 337.674 83.8233 337.303 84.0474 336.986C84.2777 336.669 84.5629 336.431 84.9033 336.269C85.2497 336.109 85.6231 336.054 86.0236 336.103C86.3513 336.144 86.6339 336.25 86.8714 336.421C87.1158 336.587 87.3018 336.801 87.4295 337.063C87.5579 337.319 87.6117 337.606 87.5908 337.924L87.4294 339.226C87.3729 339.533 87.2507 339.798 87.0628 340.021C86.8811 340.245 86.6511 340.411 86.3729 340.518C86.1015 340.62 85.7989 340.65 85.4652 340.609ZM85.6976 339.852C86.1041 339.902 86.4487 339.806 86.7313 339.564C87.0147 339.316 87.1831 338.976 87.2365 338.546C87.2733 338.248 87.2477 337.983 87.1595 337.751C87.0781 337.512 86.9417 337.32 86.7505 337.173C86.56 337.02 86.3282 336.927 86.0551 336.893C85.7821 336.859 85.5315 336.893 85.3033 336.994C85.0812 337.096 84.8956 337.251 84.7464 337.461C84.604 337.665 84.5152 337.909 84.4798 338.195C84.4437 338.486 84.4694 338.751 84.5569 338.99C84.6512 339.223 84.7966 339.417 84.9932 339.571C85.1897 339.724 85.4246 339.818 85.6976 339.852ZM86.9145 340.696L87.0589 339.531L87.3445 338.494L87.3195 337.428L87.4504 336.373L88.2786 336.475L87.7428 340.799L86.9145 340.696Z" fill="#212121"/>
<path d="M89.3638 341.153L90.4072 336.924L91.2086 337.121L90.1652 341.351L89.3638 341.153ZM91.0165 336.177C90.8681 336.14 90.7582 336.063 90.6866 335.944C90.6165 335.82 90.5998 335.683 90.6364 335.535C90.6715 335.393 90.7483 335.286 90.8667 335.214C90.9866 335.136 91.1207 335.116 91.2691 335.153C91.4176 335.189 91.5268 335.27 91.5969 335.394C91.6684 335.513 91.6866 335.643 91.6515 335.785C91.6149 335.934 91.5366 336.047 91.4168 336.124C91.2984 336.196 91.165 336.213 91.0165 336.177Z" fill="#212121"/>
<path d="M91.5125 341.711L93.5104 335.475L94.2964 335.726L92.2986 341.962L91.5125 341.711Z" fill="#212121"/>
<path d="M94.8967 343.02C94.6721 342.923 94.471 342.803 94.2931 342.659C94.1233 342.513 93.9773 342.35 93.8549 342.17C93.735 341.985 93.646 341.79 93.5879 341.585L94.2872 341.308C94.3556 341.551 94.4658 341.758 94.6178 341.93C94.7723 342.097 94.9675 342.231 95.2032 342.333C95.439 342.435 95.6384 342.474 95.8014 342.451C95.9669 342.423 96.0811 342.336 96.1441 342.19C96.2071 342.044 96.2023 341.908 96.1296 341.784C96.0649 341.656 95.9621 341.532 95.8211 341.411C95.6826 341.284 95.5316 341.156 95.3681 341.025C95.2128 340.892 95.0719 340.748 94.9454 340.593C94.819 340.439 94.734 340.265 94.6903 340.073C94.6523 339.884 94.6854 339.668 94.7896 339.427C94.8939 339.186 95.0425 339.003 95.2355 338.88C95.4309 338.752 95.6531 338.684 95.902 338.679C96.1565 338.675 96.4325 338.738 96.73 338.866C97.0443 339.002 97.298 339.178 97.4909 339.395C97.6918 339.608 97.8236 339.858 97.8862 340.145L97.187 340.422C97.1378 340.228 97.0459 340.055 96.9114 339.904C96.7826 339.755 96.6143 339.636 96.4066 339.546C96.1877 339.451 96.0023 339.418 95.8505 339.446C95.7068 339.47 95.6058 339.55 95.5476 339.684C95.4894 339.819 95.4951 339.945 95.5647 340.061C95.6342 340.178 95.7394 340.297 95.8804 340.418C96.027 340.541 96.178 340.669 96.3334 340.803C96.4912 340.931 96.6321 341.075 96.7561 341.235C96.8801 341.395 96.9599 341.573 96.9955 341.768C97.0367 341.966 97.004 342.188 96.8973 342.435C96.7349 342.811 96.4718 343.05 96.1078 343.153C95.7494 343.258 95.3457 343.214 94.8967 343.02Z" fill="#212121"/>
<path d="M102.138 343.626L102.569 343.044L103.956 344.068C104.256 344.29 104.543 344.384 104.818 344.352C105.093 344.319 105.327 344.172 105.519 343.912C105.701 343.666 105.77 343.402 105.728 343.12C105.69 342.841 105.522 342.591 105.222 342.369L103.827 341.34L104.274 340.735L105.691 341.781C106.015 342.021 106.251 342.293 106.397 342.599C106.548 342.9 106.607 343.206 106.575 343.517C106.548 343.831 106.431 344.129 106.223 344.409C106.009 344.699 105.756 344.904 105.463 345.022C105.175 345.144 104.866 345.177 104.534 345.122C104.206 345.062 103.879 344.912 103.555 344.673L102.138 343.626ZM100.028 345.511L103.81 340.391L104.503 340.904L100.721 346.023L100.028 345.511ZM102.979 347.691L102.814 344.023L103.64 344.279L103.857 348.339L102.979 347.691Z" fill="#212121"/>
<path d="M105.478 350.068C105.228 349.817 105.057 349.534 104.966 349.218C104.884 348.902 104.888 348.587 104.979 348.271C105.07 347.956 105.249 347.664 105.517 347.396L107.307 345.606L107.891 346.19L106.127 347.953C105.958 348.122 105.839 348.297 105.77 348.479C105.71 348.66 105.703 348.84 105.751 349.017C105.798 349.194 105.898 349.359 106.049 349.51C106.278 349.739 106.529 349.847 106.801 349.834C107.078 349.817 107.344 349.681 107.599 349.426L109.363 347.662L109.946 348.245L108.157 350.035C107.889 350.303 107.597 350.483 107.281 350.573C106.966 350.664 106.65 350.669 106.334 350.586C106.027 350.504 105.742 350.331 105.478 350.068Z" fill="#212121"/>
<path d="M108.914 354.021C108.719 353.754 108.596 353.473 108.545 353.176C108.503 352.881 108.534 352.597 108.637 352.324C108.741 352.052 108.913 351.816 109.153 351.617L110.211 350.841C110.478 350.668 110.755 350.575 111.041 350.562C111.336 350.551 111.616 350.611 111.879 350.744C112.152 350.878 112.384 351.075 112.576 351.337C112.811 351.657 112.941 352.005 112.966 352.381C112.995 352.762 112.925 353.127 112.758 353.478C112.59 353.828 112.333 354.13 111.988 354.383C111.643 354.636 111.278 354.789 110.894 354.844C110.509 354.898 110.14 354.855 109.785 354.713C109.439 354.572 109.149 354.341 108.914 354.021ZM109.462 353.449C109.624 353.671 109.819 353.828 110.045 353.919C110.272 354.011 110.51 354.041 110.76 354.01C111.014 353.975 111.26 353.87 111.497 353.697C111.729 353.527 111.9 353.326 112.01 353.093C112.12 352.861 112.163 352.625 112.138 352.385C112.119 352.141 112.03 351.911 111.871 351.694C111.708 351.472 111.514 351.315 111.287 351.224C111.066 351.128 110.829 351.1 110.578 351.141C110.327 351.181 110.083 351.287 109.847 351.461C109.615 351.631 109.44 351.827 109.323 352.049C109.214 352.273 109.169 352.507 109.189 352.751C109.211 352.999 109.302 353.232 109.462 353.449ZM107.633 352.117L112.914 348.246L113.402 348.912L110.776 350.836L109.833 351.334L109.067 352.089L108.121 352.783L107.633 352.117Z" fill="#212121"/>
<path d="M111.487 357.941L114.504 354.231L114.929 355.044L112.532 357.881L112.396 357.621L116.127 357.335L116.553 358.148L111.716 358.38L111.487 357.941ZM109.324 357.665L112.251 357.583L111.716 358.38L109.749 358.478L109.324 357.665Z" fill="#212121"/>
<path d="M114.365 365.319C114.257 364.904 114.259 364.506 114.368 364.124C114.478 363.742 114.673 363.41 114.954 363.129C115.241 362.847 115.591 362.652 116.006 362.544C116.414 362.439 116.806 362.441 117.182 362.553C117.564 362.662 117.896 362.857 118.177 363.138C118.458 363.419 118.652 363.767 118.76 364.181C118.865 364.59 118.863 364.985 118.754 365.367C118.652 365.753 118.46 366.087 118.179 366.368C117.898 366.649 117.554 366.843 117.145 366.948C116.731 367.056 116.33 367.055 115.942 366.947C115.56 366.838 115.228 366.639 114.945 366.353C114.664 366.072 114.47 365.727 114.365 365.319ZM115.137 365.119C115.206 365.385 115.329 365.606 115.507 365.781C115.685 365.956 115.896 366.075 116.14 366.138C116.39 366.2 116.653 366.195 116.932 366.123C117.204 366.052 117.431 365.927 117.611 365.748C117.794 365.574 117.918 365.369 117.982 365.131C118.054 364.897 118.056 364.647 117.987 364.381C117.918 364.115 117.795 363.894 117.617 363.719C117.445 363.542 117.237 363.423 116.993 363.359C116.75 363.296 116.492 363.3 116.219 363.37C115.941 363.442 115.708 363.566 115.519 363.741C115.337 363.914 115.21 364.121 115.14 364.36C115.069 364.599 115.068 364.852 115.137 365.119Z" fill="#212121"/>
<path d="M115.499 371.434L118.026 371.18C118.355 371.147 118.615 371.016 118.807 370.788C118.999 370.56 119.079 370.282 119.046 369.953C119.024 369.734 118.956 369.544 118.841 369.384C118.727 369.223 118.579 369.103 118.399 369.023C118.219 368.942 118.02 368.913 117.801 368.935L117.958 368.578C118.287 368.545 118.586 368.589 118.856 368.709C119.126 368.83 119.348 369.013 119.52 369.26C119.698 369.506 119.804 369.794 119.837 370.122C119.87 370.451 119.817 370.748 119.678 371.014C119.539 371.286 119.344 371.508 119.091 371.681C118.844 371.854 118.571 371.955 118.273 371.985L115.581 372.256L115.499 371.434ZM115.19 368.368L119.525 367.932L119.607 368.754L115.273 369.19L115.19 368.368Z" fill="#212121"/>
<circle cx="113.215" cy="388.175" r="35" transform="rotate(-180 113.215 388.175)" fill="url(#paint0_radial_701_3084)"/>
<circle cx="315.073" cy="341.073" r="25" transform="rotate(179.832 315.073 341.073)" fill="url(#paint1_radial_701_3084)"/>
<defs>
<radialGradient id="paint0_radial_701_3084" cx="0" cy="0" r="1" gradientUnits="userSpaceOnUse" gradientTransform="translate(148.215 417.942) rotate(-135.7) scale(85.2392 67.1295)">
<stop offset="0.146825" stop-color="#EAEAEA"/>
<stop offset="0.309839" stop-color="#E6FFFC"/>
<stop offset="0.386422" stop-color="#C2F7F7"/>
<stop offset="0.477083" stop-color="#B0EEF2"/>
<stop offset="0.64375" stop-color="#8EE9D8"/>
<stop offset="0.789583" stop-color="#6DDDDD"/>
<stop offset="0.914583" stop-color="#3073C1"/>
<stop offset="1" stop-color="#638B9F"/>
</radialGradient>
<radialGradient id="paint1_radial_701_3084" cx="0" cy="0" r="1" gradientUnits="userSpaceOnUse" gradientTransform="translate(340.073 362.335) rotate(-135.7) scale(60.8851 47.9497)">
<stop offset="0.146825" stop-color="#EAEAEA"/>
<stop offset="0.309839" stop-color="#FFE6ED"/>
<stop offset="0.386422" stop-color="#F7C2DC"/>
<stop offset="0.477083" stop-color="#F2B0D0"/>
<stop offset="0.64375" stop-color="#E98ED1"/>
<stop offset="0.789583" stop-color="#6D73DD"/>
<stop offset="0.914583" stop-color="#3073C1"/>
<stop offset="1" stop-color="#638B9F"/>
</radialGradient>
</defs>
</svg>
