<svg width="768" height="786" viewBox="0 0 768 786" fill="none" xmlns="http://www.w3.org/2000/svg">
<g clip-path="url(#clip0_221_6144)">
<rect x="746" y="31" width="1" height="629.612" fill="#DCDCDC"/>
<rect width="1" height="595.841" transform="matrix(1 -4.09984e-05 4.39403e-05 1 642 64.261)" fill="#DCDCDC"/>
<rect x="538" y="81.1091" width="1" height="579.566" fill="#DCDCDC"/>
<rect x="434" y="124.576" width="1" height="536.099" fill="#DCDCDC"/>
<rect x="226" y="194.125" width="1" height="466.551" fill="#DCDCDC"/>
<rect x="122" y="298.26" width="1" height="362.74" fill="#DCDCDC"/>
<rect x="12" y="375.334" width="1" height="285.01" fill="#DCDCDC"/>
<rect x="330" y="168.385" width="1" height="491.665" fill="#DCDCDC"/>
<line x1="829" y1="661.112" x2="-39.0029" y2="661.112" stroke="#DCDCDC" stroke-dasharray="10 10"/>
<line x1="750" y1="522.557" x2="20" y2="522.557" stroke="#DCDCDC" stroke-dasharray="10 10"/>
<line x1="751" y1="380.052" x2="61" y2="380.052" stroke="#DCDCDC" stroke-dasharray="10 10"/>
<line x1="751" y1="237.546" x2="201" y2="237.546" stroke="#DCDCDC" stroke-dasharray="10 10"/>
<line x1="748.013" y1="166.294" x2="393" y2="166.294" stroke="#DCDCDC" stroke-dasharray="10 10"/>
<line x1="747.027" y1="98.7905" x2="449.985" y2="98.7905" stroke="#DCDCDC" stroke-dasharray="10 10"/>
<path d="M180.193 332.269L181.389 332.366L181.158 335.212C181.109 335.828 181.227 336.315 181.512 336.674C181.798 337.032 182.209 337.233 182.744 337.277C183.248 337.318 183.681 337.185 184.041 336.879C184.4 336.583 184.605 336.128 184.655 335.512L184.887 332.65L186.128 332.751L185.893 335.658C185.839 336.324 185.66 336.894 185.358 337.367C185.065 337.841 184.686 338.192 184.221 338.418C183.755 338.655 183.234 338.749 182.659 338.703C182.063 338.654 181.554 338.476 181.132 338.167C180.709 337.869 180.392 337.462 180.18 336.947C179.977 336.432 179.903 335.842 179.957 335.176L180.193 332.269ZM175.698 330.943L186.206 331.797L186.09 333.22L175.583 332.367L175.698 330.943ZM175.207 337L180.225 333.567L180.585 334.953L175.061 338.802L175.207 337Z" fill="#212121"/>
<path d="M174.018 342.663C174.152 342.092 174.401 341.604 174.766 341.201C175.139 340.81 175.587 340.54 176.11 340.393C176.634 340.245 177.201 340.243 177.812 340.387L181.894 341.345L181.582 342.676L177.559 341.732C177.175 341.642 176.825 341.627 176.509 341.688C176.2 341.761 175.942 341.909 175.734 342.13C175.526 342.352 175.382 342.635 175.301 342.98C175.178 343.503 175.245 343.95 175.501 344.323C175.767 344.697 176.191 344.953 176.773 345.089L180.795 346.034L180.483 347.365L176.401 346.406C175.79 346.263 175.283 346.009 174.88 345.643C174.476 345.278 174.195 344.838 174.035 344.321C173.882 343.818 173.877 343.265 174.018 342.663Z" fill="#212121"/>
<path d="M171.462 350.841C171.667 350.334 171.957 349.916 172.331 349.587C172.71 349.271 173.137 349.067 173.611 348.975C174.085 348.884 174.567 348.921 175.057 349.087L177.07 349.904C177.547 350.13 177.918 350.439 178.185 350.832C178.458 351.238 178.616 351.684 178.659 352.172C178.707 352.672 178.631 353.171 178.429 353.669C178.182 354.279 177.805 354.765 177.298 355.128C176.787 355.499 176.211 355.719 175.572 355.788C174.932 355.856 174.284 355.757 173.627 355.49C172.97 355.224 172.436 354.843 172.025 354.348C171.613 353.853 171.353 353.294 171.245 352.671C171.143 352.061 171.215 351.451 171.462 350.841ZM172.744 351.115C172.573 351.538 172.521 351.949 172.589 352.348C172.657 352.747 172.822 353.109 173.083 353.434C173.355 353.762 173.715 354.018 174.166 354.201C174.607 354.38 175.039 354.446 175.462 354.399C175.885 354.352 176.256 354.207 176.572 353.964C176.899 353.725 177.146 353.399 177.313 352.986C177.484 352.564 177.536 352.153 177.468 351.754C177.409 351.358 177.243 351.001 176.968 350.682C176.693 350.363 176.33 350.112 175.88 349.929C175.439 349.75 175.01 349.674 174.595 349.702C174.185 349.744 173.816 349.884 173.49 350.123C173.16 350.372 172.911 350.702 172.744 351.115ZM173.028 347.378L183.079 351.457L182.565 352.724L177.568 350.696L176.047 349.8L174.317 349.377L172.515 348.645L173.028 347.378Z" fill="#212121"/>
<path d="M168.121 357.957L175.971 358.995L175.194 360.3L169.113 359.38L169.361 358.962L173.003 363.981L172.226 365.287L167.701 358.662L168.121 357.957ZM166.633 354.665L169.29 358.725L167.701 358.662L165.856 355.97L166.633 354.665Z" fill="#212121"/>
<path d="M160.183 368.452C160.673 367.94 161.234 367.595 161.867 367.416C162.501 367.237 163.138 367.224 163.778 367.374C164.426 367.532 165.006 367.856 165.518 368.347C166.022 368.83 166.36 369.386 166.531 370.012C166.71 370.646 166.723 371.284 166.573 371.925C166.422 372.566 166.102 373.143 165.612 373.655C165.129 374.16 164.571 374.502 163.937 374.68C163.304 374.873 162.668 374.894 162.027 374.744C161.387 374.593 160.814 374.276 160.31 373.792C159.798 373.302 159.449 372.736 159.263 372.095C159.085 371.461 159.074 370.82 159.232 370.172C159.383 369.531 159.7 368.957 160.183 368.452ZM161.137 369.367C160.822 369.696 160.619 370.063 160.527 370.466C160.436 370.869 160.452 371.27 160.575 371.669C160.705 372.074 160.943 372.442 161.286 372.771C161.623 373.093 161.996 373.304 162.406 373.402C162.809 373.508 163.207 373.503 163.598 373.387C163.989 373.285 164.343 373.07 164.658 372.741C164.973 372.411 165.176 372.045 165.267 371.642C165.366 371.245 165.354 370.848 165.23 370.449C165.107 370.051 164.877 369.69 164.541 369.368C164.197 369.039 163.82 368.817 163.41 368.705C163.007 368.599 162.606 368.6 162.207 368.709C161.809 368.818 161.452 369.038 161.137 369.367Z" fill="#212121"/>
<path d="M152.576 375.361L155.135 378.701C155.468 379.135 155.879 379.388 156.368 379.459C156.856 379.531 157.317 379.4 157.751 379.067C158.04 378.845 158.248 378.583 158.374 378.282C158.501 377.981 158.542 377.668 158.498 377.344C158.454 377.021 158.321 376.714 158.099 376.425L158.739 376.335C159.072 376.769 159.271 377.229 159.337 377.715C159.403 378.201 159.337 378.672 159.14 379.131C158.948 379.597 158.636 379.996 158.202 380.329C157.768 380.663 157.304 380.847 156.808 380.883C156.304 380.925 155.821 380.843 155.357 380.638C154.899 380.44 154.519 380.144 154.217 379.75L151.491 376.194L152.576 375.361ZM156.624 372.252L161.013 377.979L159.929 378.812L155.539 373.085L156.624 372.252Z" fill="#212121"/>
<path d="M146.65 384.353L147.133 385.452L144.52 386.604C143.955 386.854 143.583 387.189 143.403 387.612C143.224 388.034 143.243 388.491 143.459 388.982C143.663 389.445 143.985 389.762 144.426 389.933C144.857 390.109 145.355 390.071 145.92 389.822L148.547 388.663L149.049 389.803L146.38 390.981C145.769 391.25 145.183 391.365 144.623 391.324C144.067 391.293 143.579 391.126 143.158 390.825C142.728 390.527 142.397 390.114 142.165 389.586C141.924 389.039 141.839 388.507 141.909 387.988C141.971 387.474 142.177 387.001 142.53 386.569C142.886 386.147 143.369 385.8 143.981 385.531L146.65 384.353ZM145.677 379.768L149.924 389.417L148.618 389.993L144.37 380.345L145.677 379.768ZM140.117 382.221L145.523 385L144.476 385.976L138.463 382.95L140.117 382.221Z" fill="#212121"/>
<path d="M134.382 383.905C135.02 383.742 135.639 383.751 136.239 383.933C136.841 384.124 137.364 384.456 137.809 384.928C138.243 385.402 138.547 385.983 138.722 386.67C138.897 387.357 138.907 388.013 138.753 388.637C138.588 389.265 138.292 389.805 137.864 390.259C137.427 390.716 136.884 391.027 136.236 391.192C135.707 391.327 135.207 391.334 134.737 391.213C134.26 391.105 133.844 390.887 133.489 390.56C133.137 390.242 132.881 389.832 132.721 389.329L132.186 387.224C132.088 386.716 132.116 386.233 132.272 385.775C132.417 385.32 132.672 384.926 133.036 384.593C133.394 384.272 133.842 384.042 134.382 383.905ZM134.479 385.212C133.822 385.38 133.348 385.736 133.058 386.28C132.771 386.834 132.716 387.46 132.893 388.156C133.016 388.637 133.215 389.031 133.491 389.336C133.76 389.654 134.087 389.869 134.47 389.98C134.856 390.101 135.27 390.106 135.712 389.993C136.154 389.88 136.52 389.677 136.811 389.384C137.092 389.092 137.285 388.74 137.388 388.327C137.485 387.926 137.474 387.495 137.357 387.034C137.237 386.563 137.038 386.169 136.759 385.854C136.473 385.55 136.132 385.34 135.736 385.221C135.34 385.103 134.921 385.1 134.479 385.212ZM132.094 384.645L132.573 386.529L132.758 388.301L133.439 389.93L133.873 391.638L132.534 391.979L130.754 384.986L132.094 384.645Z" fill="#212121"/>
<path d="M128.124 385.369L129.065 392.523L127.71 392.702L126.768 385.548L128.124 385.369ZM128.576 394.043C128.827 394.01 129.043 394.063 129.225 394.203C129.408 394.352 129.516 394.553 129.549 394.804C129.581 395.045 129.527 395.256 129.388 395.438C129.249 395.63 129.055 395.742 128.804 395.775C128.553 395.808 128.336 395.75 128.153 395.601C127.971 395.461 127.864 395.271 127.832 395.03C127.799 394.779 127.852 394.558 127.99 394.366C128.13 394.184 128.325 394.076 128.576 394.043Z" fill="#212121"/>
<path d="M124.319 385.804L124.988 396.63L123.623 396.714L122.955 385.889L124.319 385.804Z" fill="#212121"/>
<path d="M118.12 385.797C118.525 385.813 118.908 385.879 119.268 385.994C119.618 386.119 119.941 386.283 120.237 386.487C120.533 386.702 120.787 386.949 120.999 387.231L120.084 388.078C119.834 387.744 119.54 387.489 119.202 387.314C118.864 387.149 118.482 387.058 118.057 387.042C117.632 387.025 117.3 387.083 117.062 387.216C116.823 387.359 116.699 387.562 116.689 387.825C116.679 388.088 116.767 388.294 116.954 388.443C117.13 388.602 117.363 388.733 117.653 388.835C117.943 388.948 118.253 389.056 118.583 389.16C118.903 389.274 119.207 389.412 119.495 389.575C119.782 389.738 120.017 389.955 120.199 390.226C120.371 390.496 120.449 390.848 120.432 391.284C120.415 391.719 120.295 392.089 120.07 392.395C119.845 392.71 119.542 392.947 119.161 393.104C118.77 393.262 118.306 393.33 117.77 393.309C117.203 393.287 116.706 393.167 116.279 392.947C115.841 392.738 115.488 392.43 115.22 392.025L116.134 391.178C116.326 391.449 116.571 391.661 116.869 391.815C117.157 391.968 117.489 392.052 117.863 392.066C118.258 392.081 118.564 392.022 118.782 391.889C118.99 391.765 119.098 391.582 119.107 391.339C119.117 391.096 119.033 390.905 118.856 390.767C118.679 390.628 118.445 390.508 118.155 390.405C117.855 390.302 117.545 390.194 117.225 390.08C116.905 389.977 116.601 389.838 116.314 389.665C116.027 389.492 115.797 389.265 115.626 388.985C115.444 388.704 115.362 388.341 115.379 387.896C115.405 387.218 115.669 386.691 116.17 386.315C116.66 385.939 117.311 385.766 118.12 385.797Z" fill="#212121"/>
<path d="M106.659 389.179L106.345 390.337L103.589 389.59C102.993 389.428 102.492 389.455 102.088 389.67C101.683 389.886 101.411 390.253 101.27 390.771C101.138 391.26 101.189 391.709 101.425 392.119C101.65 392.527 102.061 392.811 102.657 392.973L105.428 393.725L105.103 394.927L102.288 394.163C101.643 393.988 101.115 393.709 100.705 393.325C100.292 392.95 100.017 392.514 99.8792 392.015C99.7318 391.513 99.7334 390.984 99.8843 390.426C100.04 389.85 100.309 389.382 100.689 389.024C101.06 388.662 101.517 388.424 102.063 388.31C102.605 388.205 103.199 388.24 103.844 388.415L106.659 389.179ZM108.781 385.001L106.026 395.177L104.648 394.804L107.403 384.628L108.781 385.001ZM102.917 383.411L105.377 388.973L103.949 389.074L101.172 382.937L102.917 383.411Z" fill="#212121"/>
<path d="M97.5028 381.147C98.0394 381.386 98.4715 381.723 98.7993 382.157C99.1137 382.597 99.2945 383.088 99.3416 383.63C99.3887 384.172 99.2847 384.73 99.0295 385.303L97.3259 389.134L96.0771 388.578L97.756 384.802C97.9165 384.442 97.9963 384.1 97.9954 383.778C97.9811 383.461 97.8846 383.18 97.7058 382.934C97.527 382.688 97.2757 382.493 96.9519 382.349C96.4617 382.13 96.0099 382.112 95.5966 382.294C95.1791 382.485 94.849 382.853 94.6062 383.399L92.9273 387.174L91.6785 386.618L93.3821 382.787C93.6372 382.213 93.9818 381.763 94.4157 381.435C94.8496 381.107 95.3349 380.913 95.8715 380.853C96.3948 380.798 96.9385 380.896 97.5028 381.147Z" fill="#212121"/>
<path d="M90.0316 377.151C90.4918 377.447 90.8493 377.809 91.104 378.237C91.3448 378.668 91.4667 379.126 91.4697 379.609C91.4727 380.092 91.3477 380.56 91.0946 381.011L89.9225 382.84C89.6128 383.267 89.2407 383.575 88.806 383.766C88.3574 383.959 87.8897 384.032 87.403 383.984C86.9024 383.94 86.4263 383.772 85.9746 383.482C85.4207 383.127 85.0123 382.666 84.7495 382.1C84.4781 381.529 84.3676 380.922 84.418 380.28C84.4683 379.639 84.6847 379.02 85.0672 378.423C85.4497 377.826 85.9217 377.371 86.4834 377.057C87.045 376.744 87.6418 376.592 88.2738 376.6C88.8918 376.612 89.4777 376.796 90.0316 377.151ZM89.5267 378.361C89.1432 378.115 88.7492 377.989 88.3448 377.982C87.9403 377.975 87.5545 378.07 87.1873 378.268C86.8147 378.474 86.4973 378.781 86.235 379.191C85.9782 379.591 85.8339 380.004 85.8022 380.429C85.7705 380.854 85.8448 381.245 86.0253 381.601C86.2003 381.966 86.4753 382.269 86.8502 382.51C87.2337 382.756 87.6277 382.883 88.0322 382.89C88.4312 382.905 88.8128 382.807 89.1769 382.596C89.5409 382.384 89.8541 382.074 90.1164 381.665C90.3732 381.264 90.526 380.856 90.5748 380.442C90.6096 380.032 90.5394 379.644 90.3644 379.278C90.1809 378.908 89.9017 378.602 89.5267 378.361ZM93.1454 379.331L87.2934 388.463L86.143 387.724L89.0526 383.184L90.2124 381.853L90.9458 380.229L91.9949 378.592L93.1454 379.331Z" fill="#212121"/>
<path d="M83.6797 372.562L81.2362 380.099L80.0946 379.097L82.102 373.279L82.4673 373.6L76.8753 376.271L75.7337 375.269L83.0632 372.021L83.6797 372.562ZM87.1844 371.697L82.713 373.573L83.0632 372.021L86.0428 370.695L87.1844 371.697Z" fill="#212121"/>
<path d="M74.8161 362.812C75.2286 363.389 75.4641 364.005 75.5225 364.661C75.581 365.317 75.477 365.946 75.2106 366.548C74.9359 367.157 74.5106 367.667 73.9345 368.08C73.3666 368.487 72.759 368.717 72.1119 368.77C71.4565 368.829 70.828 368.725 70.2264 368.458C69.6247 368.192 69.1176 367.771 68.7051 367.194C68.2984 366.626 68.0659 366.014 68.0074 365.358C67.9349 364.699 68.0318 364.069 68.2982 363.467C68.5646 362.865 68.9818 362.36 69.5497 361.953C70.1258 361.54 70.7456 361.301 71.4093 361.236C72.0646 361.178 72.6961 361.286 73.3036 361.56C73.9053 361.827 74.4094 362.244 74.8161 362.812ZM73.742 363.583C73.4768 363.212 73.1546 362.944 72.7755 362.78C72.3964 362.616 71.9998 362.558 71.5856 362.605C71.1632 362.659 70.7586 362.824 70.3718 363.102C69.9932 363.373 69.7177 363.702 69.5451 364.087C69.3667 364.464 69.2983 364.856 69.34 365.262C69.3675 365.666 69.5139 366.053 69.7791 366.424C70.0443 366.795 70.3665 367.062 70.7456 367.226C71.1165 367.397 71.509 367.458 71.9232 367.41C72.3373 367.362 72.7337 367.203 73.1123 366.931C73.4991 366.654 73.7859 366.324 73.9725 365.941C74.1509 365.564 74.2234 365.169 74.19 364.757C74.1565 364.345 74.0072 363.953 73.742 363.583Z" fill="#212121"/>
<path d="M69.4577 354.112L65.7084 356.023C65.2211 356.271 64.8976 356.629 64.7378 357.097C64.5781 357.564 64.6221 358.042 64.87 358.53C65.0352 358.855 65.2543 359.107 65.5272 359.286C65.8001 359.465 66.0996 359.563 66.4257 359.578C66.7518 359.594 67.0773 359.519 67.4022 359.354L67.3727 359.999C66.8854 360.248 66.3972 360.36 65.908 360.336C65.4189 360.313 64.9673 360.162 64.5534 359.884C64.1304 359.611 63.795 359.231 63.5471 358.743C63.2992 358.256 63.203 357.765 63.2585 357.271C63.3093 356.767 63.4782 356.306 63.765 355.887C64.0429 355.473 64.4029 355.153 64.845 354.928L68.838 352.894L69.4577 354.112ZM71.7711 358.662L65.3419 361.938L64.7222 360.719L71.1515 357.443L71.7711 358.662Z" fill="#212121"/>
<path d="M61.752 346.756L60.5838 347.031L59.9321 344.25C59.7911 343.649 59.5297 343.221 59.1478 342.967C58.7659 342.714 58.3137 342.648 57.7911 342.771C57.2982 342.887 56.9272 343.146 56.6781 343.547C56.4267 343.939 56.3715 344.436 56.5124 345.037L57.1676 347.833L55.9549 348.118L55.2894 345.278C55.1369 344.627 55.1322 344.03 55.2753 343.487C55.4085 342.946 55.662 342.496 56.0357 342.138C56.4071 341.77 56.8738 341.52 57.4357 341.388C58.0174 341.251 58.5563 341.265 59.0525 341.429C59.5464 341.584 59.9732 341.874 60.3329 342.299C60.6828 342.727 60.934 343.266 61.0865 343.917L61.752 346.756ZM66.4366 346.639L56.1733 349.049L55.8475 347.659L66.1107 345.249L66.4366 346.639ZM65.05 340.723L61.3243 345.53L60.5573 344.322L64.6375 338.963L65.05 340.723Z" fill="#212121"/>
<path d="M64.4253 334.654C64.4659 335.311 64.341 335.917 64.0506 336.473C63.7502 337.029 63.3266 337.482 62.7799 337.83C62.2326 338.168 61.6051 338.359 60.8976 338.403C60.19 338.447 59.5439 338.335 58.9591 338.066C58.3737 337.788 57.898 337.396 57.532 336.891C57.1654 336.376 56.9614 335.785 56.9202 335.118C56.8865 334.572 56.9728 334.08 57.1791 333.641C57.3746 333.193 57.6664 332.824 58.0545 332.537C58.4325 332.249 58.8833 332.074 59.4071 332.012L61.5752 331.877C62.0926 331.876 62.5616 331.994 62.9821 332.232C63.402 332.459 63.7416 332.783 64.001 333.204C64.2496 333.614 64.391 334.098 64.4253 334.654ZM63.1225 334.506C63.0807 333.829 62.8196 333.297 62.3391 332.911C61.8486 332.525 61.2445 332.355 60.5268 332.399C60.0315 332.43 59.6079 332.552 59.2559 332.767C58.8931 332.972 58.6213 333.252 58.4403 333.609C58.2493 333.965 58.1678 334.371 58.1959 334.826C58.224 335.281 58.3551 335.679 58.5892 336.019C58.8227 336.35 59.1327 336.605 59.5191 336.784C59.8949 336.953 60.3203 337.023 60.7953 336.994C61.2805 336.964 61.7042 336.841 62.0663 336.626C62.4177 336.401 62.6886 336.106 62.879 335.739C63.0695 335.372 63.1506 334.961 63.1225 334.506ZM64.1258 332.268L62.1851 332.388L60.4104 332.239L58.6827 332.604L56.9239 332.713L56.8387 331.333L64.0406 330.888L64.1258 332.268Z" fill="#212121"/>
<path d="M64.1365 327.979L56.9329 327.561L57.0119 326.196L64.2155 326.614L64.1365 327.979ZM55.5317 326.795C55.5171 327.048 55.4242 327.25 55.2531 327.403C55.0719 327.554 54.8549 327.623 54.6021 327.608C54.3595 327.594 54.1619 327.502 54.0095 327.33C53.847 327.159 53.7731 326.946 53.7877 326.694C53.8023 326.441 53.9003 326.239 54.0815 326.087C54.2526 325.935 54.4595 325.865 54.7022 325.879C54.9549 325.894 55.1626 325.987 55.3251 326.159C55.4775 326.33 55.5464 326.542 55.5317 326.795Z" fill="#212121"/>
<path d="M64.3911 324.356L53.6274 323.02L53.7954 321.664L64.5591 322.999L64.3911 324.356Z" fill="#212121"/>
<path d="M65.5158 318.319C65.4263 318.714 65.292 319.078 65.1127 319.412C64.9258 319.733 64.705 320.02 64.4503 320.274C64.1857 320.525 63.8955 320.729 63.5796 320.886L62.9149 319.832C63.2891 319.647 63.5932 319.404 63.8272 319.104C64.0514 318.802 64.2104 318.444 64.3043 318.029C64.3982 317.614 64.4018 317.277 64.3149 317.019C64.2182 316.758 64.0414 316.598 63.7846 316.54C63.5279 316.482 63.3091 316.531 63.1283 316.687C62.94 316.832 62.7689 317.037 62.6152 317.303C62.4516 317.567 62.2884 317.852 62.1258 318.158C61.9554 318.451 61.7638 318.725 61.5508 318.978C61.3378 319.23 61.0817 319.422 60.7824 319.551C60.4854 319.671 60.1245 319.682 59.6999 319.586C59.2752 319.489 58.9332 319.303 58.674 319.026C58.4049 318.747 58.2278 318.406 58.1426 318.002C58.0597 317.589 58.0775 317.12 58.196 316.597C58.3212 316.044 58.5306 315.577 58.8243 315.197C59.1103 314.805 59.4772 314.514 59.925 314.325L60.5897 315.379C60.2882 315.519 60.0348 315.721 59.8294 315.986C59.6263 316.241 59.4834 316.551 59.4007 316.917C59.3135 317.302 59.3156 317.614 59.4069 317.853C59.4905 318.079 59.6509 318.22 59.8879 318.273C60.125 318.327 60.3278 318.28 60.4964 318.131C60.6651 317.982 60.8263 317.775 60.98 317.509C61.136 317.232 61.2991 316.947 61.4694 316.654C61.6298 316.358 61.8215 316.085 62.0443 315.834C62.2672 315.583 62.5321 315.399 62.839 315.282C63.1481 315.155 63.52 315.141 63.9546 315.239C64.6163 315.389 65.0861 315.745 65.3639 316.306C65.644 316.858 65.6946 317.529 65.5158 318.319Z" fill="#212121"/>
<path d="M64.2918 306.403L63.2125 305.878L64.4596 303.309C64.7294 302.753 64.796 302.257 64.6596 301.819C64.5232 301.381 64.2137 301.044 63.731 300.81C63.2757 300.588 62.8247 300.555 62.3783 300.709C61.9362 300.854 61.5803 301.205 61.3106 301.761L60.0569 304.344L58.9367 303.799L60.2103 301.175C60.5021 300.574 60.8748 300.107 61.3283 299.776C61.7726 299.44 62.2527 299.252 62.7684 299.21C63.2885 299.158 63.8081 299.259 64.3272 299.512C64.8646 299.773 65.2739 300.124 65.5552 300.565C65.841 300.997 65.9893 301.491 66.0003 302.048C66.0022 302.601 65.8572 303.178 65.5654 303.779L64.2918 306.403ZM67.9995 309.271L58.5188 304.66L59.1423 303.375L68.623 307.986L67.9995 309.271ZM70.6528 303.804L64.7326 305.182L64.8995 303.76L71.4422 302.178L70.6528 303.804Z" fill="#212121"/>
<path d="M73.8239 298.94C73.4909 299.424 73.081 299.787 72.5944 300.03C72.1052 300.258 71.59 300.346 71.0489 300.293C70.5077 300.239 69.9787 300.034 69.4619 299.678L66.0104 297.298L66.7856 296.171L70.187 298.517C70.5122 298.742 70.8329 298.883 71.1493 298.941C71.4632 298.985 71.7572 298.942 72.0316 298.811C72.3059 298.681 72.5436 298.469 72.7446 298.177C73.0489 297.735 73.1496 297.294 73.0468 296.854C72.9356 296.409 72.6341 296.016 72.1422 295.677L68.7408 293.331L69.5159 292.205L72.9674 294.585C73.4843 294.942 73.864 295.363 74.1065 295.851C74.349 296.338 74.4508 296.851 74.4118 297.39C74.3701 297.915 74.1742 298.431 73.8239 298.94Z" fill="#212121"/>
<path d="M78.9936 292.422C78.6199 292.821 78.1996 293.108 77.7326 293.281C77.2651 293.439 76.7937 293.476 76.3183 293.391C75.8429 293.307 75.4064 293.099 75.0088 292.768L73.4241 291.282C73.0607 290.899 72.8249 290.477 72.7166 290.015C72.608 289.538 72.6211 289.064 72.7561 288.594C72.8906 288.109 73.1413 287.671 73.508 287.279C73.9578 286.798 74.4845 286.48 75.0881 286.324C75.6986 286.161 76.3145 286.162 76.9358 286.328C77.5572 286.494 78.1264 286.82 78.6436 287.305C79.1607 287.789 79.5224 288.337 79.7285 288.947C79.9346 289.556 79.9762 290.171 79.8533 290.792C79.7299 291.398 79.4433 291.941 78.9936 292.422ZM77.8959 291.705C78.2073 291.373 78.403 291.008 78.4832 290.611C78.5633 290.214 78.5395 289.817 78.412 289.42C78.277 289.016 78.0322 288.647 77.6776 288.315C77.3303 287.989 76.9509 287.772 76.5391 287.664C76.1274 287.555 75.73 287.558 75.347 287.671C74.9566 287.776 74.6091 287.992 74.3047 288.318C73.9933 288.65 73.7975 289.015 73.7174 289.412C73.6299 289.802 73.6571 290.195 73.799 290.592C73.9409 290.989 74.1891 291.353 74.5438 291.686C74.891 292.012 75.2636 292.236 75.6615 292.359C76.0589 292.468 76.4528 292.469 76.8432 292.363C77.2406 292.25 77.5915 292.031 77.8959 291.705ZM76.288 295.091L68.3754 287.673L69.3096 286.675L73.2437 290.363L74.3416 291.746L75.8036 292.763L77.2221 294.093L76.288 295.091Z" fill="#212121"/>
<path d="M84.7883 286.848L77.838 283.055L79.0326 282.116L84.375 285.164L83.9927 285.464L82.4013 279.47L83.5959 278.532L85.4334 286.341L84.7883 286.848ZM84.9913 290.455L83.9738 285.711L85.4334 286.341L86.1859 289.517L84.9913 290.455Z" fill="#212121"/>
<path d="M95.9761 279.889C95.334 280.19 94.6854 280.309 94.0304 280.246C93.3753 280.184 92.7764 279.967 92.2336 279.595C91.6866 279.213 91.2631 278.702 90.9631 278.059C90.6673 277.426 90.5529 276.786 90.6198 276.14C90.6824 275.485 90.8999 274.885 91.2721 274.342C91.6442 273.799 92.1514 273.377 92.7934 273.076C93.4263 272.78 94.0703 272.663 94.7254 272.726C95.3853 272.775 95.9867 272.985 96.5294 273.357C97.0721 273.729 97.4914 274.232 97.7871 274.865C98.0872 275.507 98.208 276.161 98.1497 276.826C98.087 277.481 97.865 278.083 97.4837 278.63C97.1115 279.173 96.6089 279.593 95.9761 279.889ZM95.4167 278.692C95.8294 278.499 96.1513 278.231 96.3823 277.888C96.6133 277.545 96.7434 277.165 96.7725 276.749C96.7974 276.324 96.7091 275.895 96.5076 275.464C96.3104 275.042 96.0384 274.711 95.6915 274.471C95.3537 274.226 94.9815 274.087 94.5747 274.054C94.1728 274.007 93.7655 274.081 93.3528 274.274C92.94 274.467 92.6182 274.735 92.3872 275.078C92.1519 275.412 92.0196 275.787 91.9905 276.203C91.9614 276.619 92.0454 277.038 92.2426 277.46C92.444 277.892 92.7158 278.234 93.0578 278.488C93.3956 278.732 93.77 278.876 94.181 278.918C94.5921 278.96 95.0039 278.885 95.4167 278.692Z" fill="#212121"/>
<path d="M105.224 276.287L104.032 272.251C103.877 271.726 103.584 271.343 103.154 271.101C102.723 270.859 102.246 270.815 101.721 270.97C101.372 271.074 101.084 271.243 100.858 271.479C100.632 271.715 100.481 271.992 100.406 272.31C100.331 272.628 100.345 272.961 100.449 273.311L99.8193 273.165C99.6644 272.64 99.6433 272.139 99.7559 271.662C99.8685 271.186 100.099 270.769 100.448 270.412C100.794 270.046 101.229 269.785 101.753 269.63C102.278 269.475 102.778 269.469 103.253 269.614C103.739 269.756 104.161 270.005 104.52 270.364C104.877 270.713 105.125 271.125 105.266 271.601L106.535 275.899L105.224 276.287ZM100.329 277.734L98.2858 270.814L99.5969 270.426L101.64 277.347L100.329 277.734Z" fill="#212121"/>
<path d="M114.37 269.954L114.319 268.755L117.172 268.634C117.79 268.607 118.259 268.43 118.579 268.103C118.9 267.775 119.049 267.343 119.026 266.806C119.004 266.301 118.82 265.888 118.472 265.568C118.134 265.248 117.656 265.101 117.039 265.127L114.17 265.249L114.118 264.005L117.032 263.881C117.699 263.852 118.287 263.959 118.794 264.201C119.3 264.433 119.694 264.766 119.976 265.2C120.269 265.634 120.427 266.139 120.451 266.715C120.477 267.312 120.362 267.839 120.108 268.296C119.864 268.752 119.499 269.118 119.014 269.392C118.529 269.656 117.952 269.802 117.284 269.83L114.37 269.954ZM113.608 274.578L113.161 264.045L114.588 263.985L115.035 274.518L113.608 274.578ZM119.679 274.32L115.654 269.763L116.985 269.235L121.485 274.243L119.679 274.32Z" fill="#212121"/>
<path d="M125.662 274.807C125.008 274.726 124.435 274.492 123.943 274.104C123.451 273.706 123.084 273.207 122.842 272.605C122.611 272.005 122.538 271.353 122.625 270.65C122.713 269.946 122.942 269.332 123.313 268.806C123.694 268.282 124.167 267.887 124.73 267.62C125.304 267.354 125.922 267.263 126.586 267.345C127.129 267.412 127.597 267.588 127.99 267.871C128.395 268.146 128.703 268.5 128.915 268.935C129.127 269.359 129.216 269.835 129.182 270.361L128.915 272.517C128.821 273.026 128.619 273.465 128.308 273.835C128.007 274.205 127.626 274.48 127.165 274.657C126.716 274.826 126.215 274.876 125.662 274.807ZM126.047 273.554C126.72 273.638 127.291 273.479 127.759 273.078C128.228 272.666 128.507 272.104 128.595 271.39C128.656 270.898 128.614 270.459 128.467 270.073C128.333 269.679 128.107 269.36 127.79 269.117C127.474 268.863 127.09 268.709 126.638 268.653C126.186 268.596 125.771 268.652 125.393 268.819C125.025 268.988 124.718 269.246 124.471 269.593C124.235 269.931 124.088 270.336 124.029 270.809C123.97 271.291 124.012 271.73 124.157 272.126C124.313 272.512 124.554 272.833 124.88 273.088C125.205 273.342 125.594 273.498 126.047 273.554ZM128.062 274.952L128.301 273.022L128.774 271.305L128.732 269.54L128.949 267.791L130.321 267.961L129.434 275.122L128.062 274.952Z" fill="#212121"/>
<path d="M132.125 275.712L133.852 268.706L135.179 269.034L133.453 276.04L132.125 275.712ZM134.861 267.468C134.615 267.408 134.433 267.279 134.314 267.083C134.198 266.877 134.171 266.651 134.231 266.405C134.289 266.169 134.416 265.992 134.613 265.874C134.811 265.745 135.033 265.712 135.279 265.772C135.525 265.833 135.706 265.966 135.822 266.172C135.94 266.368 135.971 266.585 135.912 266.821C135.852 267.066 135.722 267.253 135.524 267.382C135.328 267.5 135.107 267.529 134.861 267.468Z" fill="#212121"/>
<path d="M135.687 276.637L138.993 266.307L140.295 266.725L136.989 277.055L135.687 276.637Z" fill="#212121"/>
<path d="M141.296 278.81C140.924 278.65 140.591 278.45 140.297 278.213C140.015 277.97 139.773 277.7 139.571 277.403C139.372 277.096 139.225 276.773 139.128 276.434L140.286 275.974C140.4 276.376 140.582 276.72 140.834 277.005C141.09 277.281 141.413 277.504 141.804 277.673C142.194 277.841 142.524 277.907 142.794 277.869C143.068 277.822 143.257 277.678 143.362 277.436C143.466 277.194 143.458 276.97 143.337 276.763C143.23 276.552 143.06 276.346 142.826 276.145C142.597 275.936 142.347 275.723 142.076 275.507C141.819 275.285 141.585 275.046 141.376 274.79C141.167 274.534 141.026 274.247 140.953 273.929C140.89 273.615 140.945 273.258 141.117 272.858C141.29 272.458 141.536 272.156 141.856 271.953C142.179 271.739 142.547 271.628 142.959 271.619C143.381 271.613 143.838 271.717 144.33 271.93C144.851 272.155 145.271 272.447 145.59 272.806C145.923 273.159 146.142 273.573 146.245 274.049L145.088 274.508C145.006 274.186 144.854 273.899 144.631 273.649C144.418 273.402 144.139 273.204 143.795 273.056C143.433 272.899 143.126 272.844 142.874 272.889C142.636 272.93 142.469 273.062 142.373 273.285C142.276 273.508 142.286 273.716 142.401 273.909C142.516 274.103 142.691 274.299 142.924 274.5C143.167 274.704 143.417 274.917 143.674 275.138C143.936 275.351 144.169 275.589 144.374 275.855C144.58 276.12 144.712 276.414 144.771 276.738C144.839 277.065 144.785 277.433 144.609 277.842C144.34 278.466 143.904 278.862 143.302 279.032C142.708 279.206 142.04 279.132 141.296 278.81Z" fill="#212121"/>
<path d="M153.297 279.826L154.009 278.86L156.306 280.558C156.802 280.925 157.278 281.082 157.733 281.028C158.188 280.974 158.575 280.731 158.894 280.299C159.195 279.892 159.31 279.454 159.24 278.987C159.178 278.525 158.898 278.111 158.401 277.744L156.093 276.037L156.832 275.034L159.178 276.768C159.715 277.166 160.105 277.618 160.348 278.125C160.596 278.623 160.694 279.13 160.642 279.645C160.597 280.167 160.403 280.659 160.06 281.124C159.706 281.605 159.286 281.943 158.801 282.139C158.325 282.341 157.812 282.396 157.263 282.305C156.72 282.206 156.179 281.957 155.642 281.56L153.297 279.826ZM149.803 282.948L156.063 274.465L157.211 275.314L150.951 283.797L149.803 282.948ZM154.689 286.561L154.416 280.483L155.783 280.908L156.143 287.635L154.689 286.561Z" fill="#212121"/>
<path d="M158.833 290.508C158.418 290.092 158.136 289.623 157.985 289.1C157.849 288.577 157.856 288.054 158.007 287.531C158.157 287.008 158.454 286.524 158.898 286.08L161.861 283.114L162.827 284.081L159.907 287.004C159.628 287.284 159.431 287.574 159.317 287.875C159.216 288.176 159.206 288.473 159.284 288.767C159.363 289.06 159.528 289.333 159.778 289.583C160.158 289.963 160.573 290.142 161.024 290.121C161.482 290.092 161.922 289.866 162.344 289.444L165.264 286.521L166.231 287.488L163.268 290.454C162.824 290.898 162.341 291.195 161.818 291.346C161.296 291.496 160.773 291.504 160.251 291.367C159.742 291.231 159.27 290.945 158.833 290.508Z" fill="#212121"/>
<path d="M164.527 297.067C164.204 296.626 164.001 296.16 163.917 295.669C163.847 295.179 163.898 294.709 164.069 294.257C164.24 293.805 164.525 293.414 164.923 293.084L166.675 291.798C167.117 291.511 167.576 291.357 168.05 291.336C168.538 291.317 169 291.417 169.437 291.637C169.888 291.859 170.272 292.186 170.59 292.619C170.979 293.15 171.194 293.727 171.236 294.35C171.283 294.98 171.168 295.586 170.89 296.167C170.613 296.747 170.188 297.247 169.616 297.667C169.045 298.086 168.441 298.341 167.804 298.431C167.167 298.522 166.556 298.449 165.969 298.214C165.397 297.981 164.916 297.598 164.527 297.067ZM165.433 296.12C165.703 296.487 166.025 296.747 166.4 296.899C166.775 297.051 167.169 297.101 167.582 297.049C168.004 296.99 168.411 296.818 168.803 296.53C169.187 296.248 169.47 295.915 169.652 295.53C169.835 295.145 169.906 294.754 169.866 294.356C169.834 293.952 169.686 293.571 169.423 293.211C169.154 292.844 168.832 292.584 168.457 292.432C168.09 292.274 167.699 292.228 167.283 292.294C166.867 292.361 166.463 292.538 166.071 292.825C165.688 293.107 165.398 293.432 165.204 293.801C165.024 294.172 164.95 294.559 164.982 294.963C165.02 295.374 165.17 295.76 165.433 296.12ZM162.406 293.913L171.151 287.497L171.958 288.6L167.61 291.79L166.049 292.615L164.781 293.866L163.213 295.016L162.406 293.913Z" fill="#212121"/>
<path d="M168.789 303.573L173.786 297.425L174.49 298.771L170.52 303.473L170.294 303.043L176.474 302.568L177.177 303.914L169.169 304.3L168.789 303.573ZM165.208 303.116L170.056 302.979L169.169 304.3L165.912 304.463L165.208 303.116Z" fill="#212121"/>
<path d="M173.557 315.812C173.38 315.126 173.382 314.466 173.563 313.834C173.745 313.201 174.068 312.651 174.534 312.186C175.009 311.717 175.589 311.394 176.276 311.216C176.952 311.041 177.602 311.045 178.225 311.229C178.857 311.411 179.406 311.734 179.872 312.199C180.337 312.664 180.659 313.24 180.836 313.927C181.011 314.603 181.008 315.258 180.826 315.891C180.657 316.531 180.34 317.084 179.874 317.55C179.409 318.015 178.838 318.336 178.162 318.511C177.476 318.689 176.811 318.688 176.169 318.51C175.536 318.328 174.986 318 174.518 317.525C174.052 317.06 173.732 316.489 173.557 315.812ZM174.836 315.481C174.951 315.922 175.155 316.288 175.449 316.577C175.744 316.867 176.093 317.065 176.497 317.169C176.91 317.271 177.347 317.263 177.808 317.143C178.259 317.027 178.634 316.819 178.934 316.522C179.236 316.235 179.441 315.894 179.548 315.5C179.668 315.113 179.671 314.699 179.557 314.258C179.443 313.817 179.238 313.451 178.944 313.161C178.659 312.869 178.315 312.671 177.911 312.566C177.508 312.461 177.08 312.467 176.629 312.584C176.169 312.704 175.782 312.908 175.47 313.198C175.168 313.486 174.958 313.828 174.841 314.224C174.724 314.621 174.722 315.04 174.836 315.481Z" fill="#212121"/>
<path d="M175.437 325.956L179.623 325.534C180.167 325.479 180.599 325.263 180.917 324.885C181.235 324.507 181.367 324.045 181.312 323.501C181.276 323.139 181.163 322.824 180.973 322.558C180.784 322.292 180.54 322.093 180.241 321.96C179.943 321.827 179.612 321.779 179.25 321.816L179.511 321.225C180.055 321.17 180.551 321.242 180.998 321.441C181.446 321.64 181.812 321.945 182.098 322.353C182.393 322.761 182.568 323.237 182.623 323.782C182.678 324.326 182.59 324.818 182.359 325.259C182.13 325.709 181.805 326.078 181.386 326.364C180.977 326.65 180.526 326.817 180.032 326.867L175.573 327.316L175.437 325.956ZM174.926 320.877L182.106 320.154L182.242 321.514L175.063 322.237L174.926 320.877Z" fill="#212121"/>
<path d="M130.387 336.927C130.387 303.102 157.78 275.682 191.572 275.682C225.364 275.682 252.757 303.102 252.757 336.927C252.757 370.751 225.364 398.172 191.572 398.172C157.78 398.172 130.387 370.751 130.387 336.927Z" fill="url(#paint0_radial_221_6144)"/>
<ellipse cx="657.197" cy="289.448" rx="42.1967" ry="42.2378" fill="url(#paint1_radial_221_6144)"/>
<ellipse cx="545.364" cy="414.737" rx="22.386" ry="22.3643" transform="rotate(-90 545.364 414.737)" fill="url(#paint2_radial_221_6144)"/>
<ellipse cx="643.127" cy="515.598" rx="10.1371" ry="10.1272" transform="rotate(-90 643.127 515.598)" fill="#212121"/>
<ellipse cx="539.127" cy="229.32" rx="10.1371" ry="10.1272" transform="rotate(-90 539.127 229.32)" fill="#212121"/>
<ellipse cx="385.127" cy="375.462" rx="10.1371" ry="10.1272" transform="rotate(-90 385.127 375.462)" fill="#212121"/>
</g>
<defs>
<radialGradient id="paint0_radial_221_6144" cx="0" cy="0" r="1" gradientUnits="userSpaceOnUse" gradientTransform="translate(130.387 284.84) rotate(44.3282) scale(149.082 117.411)">
<stop offset="0.146825" stop-color="#EAEAEA"/>
<stop offset="0.309839" stop-color="#E6FFFC"/>
<stop offset="0.386422" stop-color="#C2F7F7"/>
<stop offset="0.477083" stop-color="#B0EEF2"/>
<stop offset="0.64375" stop-color="#8EE9D8"/>
<stop offset="0.789583" stop-color="#6DDDDD"/>
<stop offset="0.914583" stop-color="#3073C1"/>
<stop offset="1" stop-color="#638B9F"/>
</radialGradient>
<radialGradient id="paint1_radial_221_6144" cx="0" cy="0" r="1" gradientUnits="userSpaceOnUse" gradientTransform="translate(699.393 325.37) rotate(-135.672) scale(102.815 80.973)">
<stop offset="0.146825" stop-color="#EAEAEA"/>
<stop offset="0.309839" stop-color="#FFE6ED"/>
<stop offset="0.386422" stop-color="#F7C2DC"/>
<stop offset="0.477083" stop-color="#F2B0D0"/>
<stop offset="0.64375" stop-color="#E98ED1"/>
<stop offset="0.789583" stop-color="#6D73DD"/>
<stop offset="0.914583" stop-color="#3073C1"/>
<stop offset="1" stop-color="#638B9F"/>
</radialGradient>
<radialGradient id="paint2_radial_221_6144" cx="0" cy="0" r="1" gradientUnits="userSpaceOnUse" gradientTransform="translate(567.75 433.757) rotate(-135.727) scale(54.4932 42.9147)">
<stop offset="0.146825" stop-color="#EAEAEA"/>
<stop offset="0.309839" stop-color="#FFE6ED"/>
<stop offset="0.386422" stop-color="#F7C2DC"/>
<stop offset="0.477083" stop-color="#F2B0D0"/>
<stop offset="0.64375" stop-color="#E98ED1"/>
<stop offset="0.789583" stop-color="#6D73DD"/>
<stop offset="0.914583" stop-color="#3073C1"/>
<stop offset="1" stop-color="#638B9F"/>
</radialGradient>
<clipPath id="clip0_221_6144">
<rect width="768" height="786" fill="white"/>
</clipPath>
</defs>
</svg>
