<svg width="171" height="171" viewBox="0 0 171 171" fill="none" xmlns="http://www.w3.org/2000/svg">
<path d="M156.618 87.6617L158.035 87.7768L157.761 91.1497C157.702 91.8793 157.842 92.4565 158.181 92.8813C158.519 93.3061 159.006 93.5442 159.64 93.5956C160.238 93.6442 160.75 93.4871 161.177 93.1245C161.603 92.7738 161.845 92.2336 161.904 91.504L162.18 88.1132L163.651 88.2326L163.371 91.6773C163.307 92.4667 163.096 93.1418 162.737 93.7026C162.391 94.2644 161.942 94.6794 161.39 94.9477C160.838 95.2279 160.22 95.3404 159.539 95.285C158.833 95.2277 158.23 95.0163 157.73 94.6506C157.229 94.2969 156.853 93.8149 156.601 93.2045C156.362 92.5952 156.274 91.8958 156.338 91.1064L156.618 87.6617ZM151.292 86.0916L163.743 87.1023L163.606 88.7888L151.155 87.778L151.292 86.0916ZM150.709 93.268L156.656 89.1998L157.082 90.8417L150.536 95.403L150.709 93.268Z" fill="#212121"/>
<path d="M149.3 99.9615C149.459 99.2839 149.755 98.7062 150.187 98.2283C150.629 97.7649 151.16 97.4457 151.78 97.2708C152.4 97.0959 153.073 97.0934 153.797 97.2633L158.634 98.398L158.264 99.9752L153.497 98.8569C153.042 98.75 152.627 98.7328 152.252 98.8052C151.887 98.892 151.581 99.0667 151.334 99.3294C151.088 99.592 150.916 99.9278 150.82 100.337C150.675 100.956 150.754 101.486 151.058 101.927C151.373 102.371 151.875 102.673 152.564 102.835L157.331 103.953L156.961 105.53L152.124 104.396C151.4 104.226 150.798 103.924 150.321 103.492C149.843 103.059 149.509 102.537 149.32 101.926C149.139 101.329 149.133 100.674 149.3 99.9615Z" fill="#212121"/>
<path d="M146.273 109.636C146.516 109.035 146.86 108.54 147.303 108.15C147.752 107.775 148.258 107.533 148.82 107.425C149.382 107.316 149.954 107.36 150.534 107.556L152.92 108.524C153.485 108.791 153.925 109.158 154.242 109.623C154.565 110.103 154.752 110.632 154.802 111.21C154.86 111.803 154.769 112.394 154.53 112.983C154.237 113.706 153.79 114.282 153.188 114.712C152.582 115.152 151.9 115.413 151.142 115.494C150.384 115.576 149.616 115.458 148.838 115.143C148.059 114.827 147.426 114.376 146.939 113.79C146.451 113.204 146.143 112.542 146.015 111.804C145.894 111.081 145.98 110.358 146.273 109.636ZM147.792 109.96C147.589 110.461 147.528 110.947 147.608 111.42C147.689 111.893 147.884 112.322 148.194 112.706C148.515 113.096 148.943 113.398 149.477 113.615C149.999 113.827 150.511 113.905 151.013 113.849C151.515 113.794 151.953 113.622 152.329 113.334C152.716 113.051 153.008 112.664 153.207 112.175C153.41 111.675 153.471 111.188 153.391 110.715C153.322 110.247 153.124 109.824 152.799 109.446C152.473 109.067 152.043 108.77 151.509 108.554C150.986 108.342 150.479 108.252 149.986 108.286C149.5 108.335 149.064 108.501 148.677 108.784C148.286 109.079 147.991 109.471 147.792 109.96ZM148.131 105.533L160.041 110.362L159.432 111.863L153.51 109.462L151.707 108.401L149.657 107.9L147.522 107.034L148.131 105.533Z" fill="#212121"/>
<path d="M142.314 118.05L151.619 119.277L150.698 120.824L143.489 119.735L143.784 119.24L148.1 125.185L147.179 126.731L141.817 118.885L142.314 118.05ZM140.551 114.151L143.7 118.96L141.817 118.885L139.63 115.697L140.551 114.151Z" fill="#212121"/>
<path d="M132.91 130.463C133.491 129.856 134.157 129.447 134.908 129.235C135.658 129.024 136.413 129.007 137.173 129.186C137.941 129.373 138.628 129.757 139.235 130.338C139.833 130.91 140.233 131.568 140.436 132.31C140.648 133.061 140.664 133.816 140.486 134.575C140.307 135.335 139.927 136.018 139.346 136.624C138.774 137.223 138.112 137.627 137.361 137.839C136.611 138.067 135.856 138.092 135.097 137.914C134.338 137.735 133.659 137.359 133.061 136.787C132.454 136.206 132.04 135.536 131.82 134.777C131.609 134.026 131.596 133.267 131.783 132.499C131.962 131.74 132.338 131.061 132.91 130.463ZM134.041 131.546C133.668 131.936 133.427 132.37 133.319 132.847C133.21 133.325 133.229 133.8 133.375 134.272C133.53 134.752 133.811 135.188 134.218 135.578C134.617 135.959 135.06 136.209 135.546 136.325C136.024 136.451 136.495 136.445 136.959 136.307C137.423 136.187 137.842 135.932 138.215 135.541C138.589 135.151 138.829 134.718 138.938 134.24C139.055 133.771 139.04 133.3 138.894 132.828C138.748 132.356 138.476 131.929 138.077 131.547C137.67 131.157 137.223 130.895 136.736 130.761C136.258 130.636 135.783 130.638 135.31 130.767C134.838 130.896 134.415 131.156 134.041 131.546Z" fill="#212121"/>
<path d="M123.901 138.634L126.936 142.59C127.33 143.104 127.817 143.403 128.397 143.488C128.976 143.573 129.523 143.418 130.037 143.024C130.38 142.761 130.626 142.451 130.776 142.094C130.925 141.737 130.974 141.367 130.922 140.983C130.87 140.6 130.712 140.237 130.449 139.894L131.208 139.789C131.602 140.303 131.838 140.847 131.917 141.423C131.995 141.998 131.917 142.557 131.683 143.099C131.456 143.651 131.086 144.125 130.572 144.519C130.058 144.914 129.507 145.132 128.919 145.174C128.322 145.224 127.749 145.127 127.199 144.884C126.656 144.65 126.206 144.299 125.848 143.833L122.616 139.62L123.901 138.634ZM128.699 134.952L133.904 141.736L132.619 142.722L127.414 135.938L128.699 134.952Z" fill="#212121"/>
<path d="M116.891 149.271L117.465 150.572L114.368 151.937C113.698 152.232 113.257 152.63 113.045 153.13C112.832 153.63 112.855 154.171 113.111 154.753C113.353 155.302 113.735 155.678 114.257 155.881C114.768 156.088 115.359 156.044 116.028 155.749L119.142 154.377L119.737 155.728L116.574 157.122C115.849 157.441 115.155 157.577 114.491 157.528C113.832 157.491 113.253 157.293 112.755 156.936C112.246 156.583 111.853 156.094 111.577 155.468C111.292 154.82 111.191 154.19 111.274 153.576C111.347 152.967 111.592 152.406 112.009 151.895C112.431 151.394 113.004 150.984 113.729 150.665L116.891 149.271ZM115.737 143.839L120.774 155.271L119.226 155.953L114.189 144.522L115.737 143.839ZM109.148 146.743L115.557 150.036L114.316 151.193L107.188 147.607L109.148 146.743Z" fill="#212121"/>
<path d="M102.362 148.73C103.118 148.538 103.852 148.549 104.563 148.764C105.277 148.991 105.897 149.384 106.423 149.943C106.938 150.506 107.299 151.194 107.507 152.008C107.714 152.822 107.726 153.599 107.543 154.339C107.349 155.082 106.998 155.722 106.491 156.26C105.972 156.801 105.329 157.169 104.562 157.365C103.934 157.525 103.342 157.533 102.785 157.39C102.22 157.261 101.727 157.003 101.306 156.615C100.888 156.239 100.585 155.752 100.396 155.157L99.7604 152.662C99.6442 152.06 99.6781 151.488 99.8619 150.946C100.034 150.407 100.336 149.94 100.768 149.545C101.191 149.165 101.723 148.893 102.362 148.73ZM102.478 150.28C101.699 150.478 101.138 150.9 100.794 151.544C100.454 152.201 100.389 152.942 100.599 153.767C100.744 154.337 100.981 154.803 101.308 155.166C101.627 155.543 102.014 155.797 102.469 155.929C102.926 156.072 103.417 156.077 103.94 155.944C104.463 155.811 104.897 155.57 105.242 155.222C105.575 154.877 105.803 154.46 105.926 153.971C106.041 153.496 106.028 152.985 105.889 152.438C105.747 151.88 105.51 151.414 105.18 151.04C104.841 150.681 104.436 150.431 103.967 150.29C103.498 150.15 103.002 150.146 102.478 150.28ZM99.6507 149.607L100.22 151.84L100.438 153.938L101.246 155.869L101.761 157.892L100.174 158.297L98.0634 150.011L99.6507 149.607Z" fill="#212121"/>
<path d="M94.9533 150.463L96.0701 158.94L94.464 159.151L93.3471 150.674L94.9533 150.463ZM95.4904 160.741C95.7878 160.701 96.0443 160.765 96.2597 160.93C96.4767 161.107 96.6048 161.344 96.644 161.642C96.6816 161.927 96.6178 162.178 96.4525 162.393C96.2888 162.62 96.0582 162.754 95.7608 162.793C95.4634 162.832 95.2062 162.763 94.9892 162.586C94.7737 162.421 94.6472 162.195 94.6096 161.91C94.5704 161.612 94.6326 161.35 94.7964 161.123C94.9616 160.907 95.193 160.78 95.4904 160.741Z" fill="#212121"/>
<path d="M90.4497 150.977L91.2425 163.804L89.6256 163.904L88.8327 151.077L90.4497 150.977Z" fill="#212121"/>
<path d="M83.1096 150.968C83.5893 150.987 84.0426 151.064 84.4697 151.201C84.8843 151.349 85.267 151.544 85.618 151.786C85.9684 152.039 86.2693 152.333 86.5206 152.667L85.4371 153.67C85.1402 153.274 84.7916 152.973 84.3913 152.765C83.9905 152.569 83.5383 152.462 83.0347 152.442C82.5311 152.423 82.1381 152.492 81.8559 152.649C81.5731 152.818 81.4257 153.059 81.4137 153.371C81.4017 153.682 81.5063 153.927 81.7277 154.103C81.9366 154.291 82.2128 154.446 82.5564 154.568C82.8995 154.701 83.2668 154.829 83.6583 154.952C84.0374 155.087 84.3974 155.251 84.7382 155.444C85.0789 155.638 85.3572 155.895 85.573 156.215C85.7768 156.535 85.8688 156.953 85.8489 157.469C85.829 157.984 85.6859 158.423 85.4198 158.785C85.1531 159.159 84.794 159.439 84.3425 159.626C83.879 159.812 83.3294 159.893 82.6939 159.869C82.0224 159.843 81.4335 159.7 80.9271 159.44C80.4083 159.192 79.9901 158.828 79.6724 158.347L80.7559 157.344C80.9837 157.665 81.2742 157.917 81.6274 158.098C81.9687 158.28 82.3612 158.379 82.8048 158.396C83.2725 158.414 83.6355 158.344 83.8937 158.186C84.1396 158.039 84.2681 157.822 84.2792 157.534C84.2903 157.246 84.1909 157.02 83.9811 156.856C83.7713 156.692 83.4946 156.549 83.151 156.428C82.7955 156.306 82.4281 156.178 82.0491 156.043C81.6695 155.92 81.3096 155.756 80.9692 155.551C80.6289 155.346 80.3571 155.077 80.1537 154.745C79.9384 154.412 79.8409 153.982 79.8613 153.455C79.8923 152.651 80.2046 152.027 80.7983 151.581C81.3799 151.136 82.1504 150.931 83.1096 150.968Z" fill="#212121"/>
<path d="M69.5407 154.979L69.1688 156.352L65.9026 155.467C65.1961 155.275 64.6031 155.307 64.1236 155.563C63.644 155.818 63.3211 156.253 63.1548 156.867C62.9978 157.446 63.0587 157.978 63.3373 158.464C63.6044 158.947 64.0912 159.284 64.7977 159.475L68.0812 160.365L67.6952 161.79L64.3595 160.886C63.5951 160.678 62.9699 160.347 62.484 159.892C61.9949 159.449 61.6689 158.932 61.5058 158.341C61.3312 157.746 61.3333 157.119 61.5123 156.459C61.6974 155.775 62.0154 155.221 62.4663 154.796C62.9055 154.368 63.4481 154.087 64.0941 153.951C64.737 153.827 65.4406 153.868 66.2051 154.075L69.5407 154.979ZM72.0571 150.029L68.7897 162.086L67.1566 161.644L70.424 149.586L72.0571 150.029ZM65.1078 148.146L68.0216 154.735L66.3295 154.855L63.0403 147.586L65.1078 148.146Z" fill="#212121"/>
<path d="M58.6998 145.471C59.3357 145.754 59.8478 146.153 60.2362 146.667C60.6087 147.188 60.8228 147.769 60.8785 148.411C60.9342 149.053 60.8108 149.714 60.5082 150.394L58.4879 154.933L57.0079 154.274L58.9989 149.801C59.1892 149.374 59.2839 148.969 59.2829 148.588C59.2661 148.212 59.1517 147.879 58.9399 147.588C58.728 147.296 58.4303 147.065 58.0466 146.895C57.4655 146.636 56.93 146.614 56.4401 146.83C55.9453 147.056 55.554 147.493 55.266 148.139L53.275 152.612L51.795 151.954L53.8153 147.415C54.1179 146.735 54.5264 146.201 55.0407 145.813C55.5551 145.424 56.1304 145.194 56.7664 145.123C57.3866 145.057 58.0311 145.174 58.6998 145.471Z" fill="#212121"/>
<path d="M49.853 140.746C50.3984 141.096 50.8221 141.525 51.124 142.032C51.4093 142.543 51.5537 143.085 51.5571 143.657C51.5606 144.23 51.4123 144.783 51.1121 145.318L49.7224 147.484C49.3552 147.99 48.9139 148.356 48.3987 148.581C47.8668 148.81 47.3124 148.897 46.7355 148.84C46.1421 148.788 45.5777 148.59 45.0424 148.246C44.3858 147.825 43.9018 147.279 43.5904 146.609C43.2689 145.932 43.138 145.214 43.1978 144.454C43.2576 143.694 43.5143 142.961 43.9678 142.254C44.4213 141.547 44.981 141.007 45.6468 140.636C46.3127 140.265 47.0202 140.084 47.7693 140.094C48.5019 140.108 49.1964 140.325 49.853 140.746ZM49.2542 142.18C48.7996 141.889 48.3326 141.739 47.8532 141.731C47.3737 141.722 46.9163 141.835 46.4811 142.069C46.0393 142.313 45.663 142.678 45.352 143.163C45.0475 143.638 44.8764 144.127 44.8386 144.63C44.8009 145.133 44.889 145.596 45.1029 146.018C45.3102 146.451 45.6361 146.809 46.0805 147.094C46.5351 147.386 47.0021 147.536 47.4816 147.544C47.9546 147.562 48.4069 147.446 48.8385 147.195C49.2701 146.945 49.6415 146.577 49.9524 146.092C50.257 145.618 50.4382 145.135 50.4961 144.645C50.5374 144.158 50.4544 143.698 50.247 143.266C50.0296 142.827 49.6986 142.465 49.2542 142.18ZM53.5435 143.328L46.6046 154.145L45.241 153.271L48.6911 147.892L50.0662 146.315L50.936 144.392L52.1799 142.453L53.5435 143.328Z" fill="#212121"/>
<path d="M42.3315 135.32L39.4342 144.247L38.0809 143.061L40.4612 136.17L40.8942 136.55L34.2647 139.714L32.9114 138.527L41.6008 134.679L42.3315 135.32ZM46.4864 134.296L41.1855 136.518L41.6008 134.679L45.1331 133.109L46.4864 134.296Z" fill="#212121"/>
<path d="M31.8324 123.789C32.3215 124.472 32.6008 125.202 32.6702 125.979C32.7396 126.756 32.6164 127.501 32.3007 128.214C31.9753 128.934 31.4711 129.539 30.7882 130.028C30.1151 130.51 29.3949 130.782 28.6278 130.845C27.8509 130.914 27.1058 130.791 26.3925 130.475C25.6793 130.16 25.0781 129.66 24.5889 128.977C24.1068 128.304 23.831 127.579 23.7616 126.802C23.6755 126.023 23.7902 125.276 24.106 124.563C24.4217 123.85 24.9161 123.252 25.5892 122.77C26.2721 122.281 27.0069 121.998 27.7935 121.922C28.5704 121.852 29.319 121.98 30.0392 122.306C30.7525 122.621 31.3502 123.116 31.8324 123.789ZM30.5593 124.701C30.2448 124.262 29.8629 123.945 29.4134 123.75C28.964 123.556 28.4938 123.486 28.0028 123.543C27.5021 123.606 27.0225 123.802 26.564 124.131C26.1153 124.452 25.7887 124.841 25.5842 125.298C25.3728 125.744 25.2918 126.208 25.3413 126.689C25.374 127.168 25.5476 127.627 25.862 128.066C26.1765 128.505 26.5584 128.821 27.0079 129.016C27.4476 129.218 27.9129 129.29 28.4038 129.234C28.8948 129.177 29.3646 128.988 29.8134 128.667C30.2719 128.339 30.6117 127.948 30.8329 127.494C31.0444 127.047 31.1302 126.58 31.0905 126.092C31.0508 125.603 30.8737 125.14 30.5593 124.701Z" fill="#212121"/>
<path d="M25.4835 113.495L21.04 115.756C20.4625 116.05 20.0792 116.474 19.8899 117.028C19.7007 117.582 19.753 118.148 20.047 118.726C20.2429 119.111 20.5027 119.409 20.8262 119.622C21.1497 119.834 21.5048 119.95 21.8913 119.968C22.2778 119.987 22.6636 119.898 23.0486 119.702L23.0138 120.468C22.4363 120.761 21.8577 120.894 21.2779 120.866C20.6981 120.838 20.1628 120.66 19.6721 120.33C19.1707 120.007 18.773 119.556 18.479 118.979C18.1851 118.401 18.0709 117.82 18.1365 117.234C18.1966 116.638 18.3966 116.092 18.7366 115.596C19.0658 115.105 19.4924 114.726 20.0164 114.459L24.7487 112.051L25.4835 113.495ZM28.227 118.885L20.6072 122.763L19.8724 121.319L27.4921 117.441L28.227 118.885Z" fill="#212121"/>
<path d="M16.3563 104.8L14.9719 105.125L14.199 101.83C14.0318 101.118 13.7219 100.611 13.2693 100.31C12.8167 100.01 12.2808 99.9322 11.6616 100.077C11.0775 100.215 10.6379 100.521 10.3428 100.997C10.0449 101.461 9.97962 102.05 10.1468 102.762L10.9238 106.075L9.48685 106.412L8.6975 103.047C8.5166 102.276 8.51088 101.569 8.68033 100.925C8.8381 100.284 9.13838 99.7512 9.58116 99.3268C10.0212 98.8908 10.5742 98.5947 11.2401 98.4384C11.9294 98.2767 12.5681 98.2933 13.1561 98.4881C13.7414 98.6713 14.2472 99.0148 14.6736 99.5188C15.0883 100.025 15.3861 100.664 15.567 101.435L16.3563 104.8ZM21.9077 104.662L9.74586 107.516L9.35941 105.868L21.5212 103.015L21.9077 104.662ZM20.2632 97.6528L15.8492 103.347L14.94 101.915L19.7739 95.5674L20.2632 97.6528Z" fill="#212121"/>
<path d="M19.5245 90.4781C19.5726 91.2566 19.4246 91.9751 19.0806 92.6335C18.7246 93.2928 18.2227 93.8288 17.5749 94.2415C16.9264 94.6423 16.1829 94.8686 15.3445 94.9204C14.5061 94.9722 13.7405 94.8392 13.0476 94.5213C12.3539 94.1915 11.7902 93.7274 11.3564 93.129C10.922 92.5187 10.6803 91.8182 10.6314 91.0277C10.5914 90.381 10.6936 89.7976 10.938 89.2775C11.1697 88.7462 11.5154 88.31 11.9753 87.969C12.4231 87.6287 12.9574 87.4214 13.578 87.347L16.1471 87.1882C16.7601 87.1863 17.3158 87.3263 17.8141 87.6081C18.3117 87.8779 18.7142 88.2618 19.0215 88.7598C19.3161 89.2466 19.4837 89.8193 19.5245 90.4781ZM17.9807 90.303C17.9311 89.5005 17.6216 88.8704 17.0523 88.4126C16.471 87.9556 15.7552 87.7534 14.9048 87.806C14.3179 87.8422 13.8159 87.9875 13.3988 88.2417C12.969 88.4847 12.6469 88.8172 12.4325 89.2392C12.2062 89.662 12.1096 90.1429 12.143 90.6818C12.1763 91.2208 12.3316 91.6921 12.6091 92.0958C12.8858 92.4874 13.2531 92.7894 13.7111 93.0015C14.1563 93.2024 14.6604 93.2855 15.2233 93.2507C15.7982 93.2152 16.3002 93.0699 16.7293 92.815C17.1457 92.5488 17.4667 92.1983 17.6923 91.7635C17.9179 91.3288 18.014 90.8419 17.9807 90.303ZM19.1693 87.6506L16.8697 87.7927L14.7668 87.6161L12.7196 88.0492L10.6356 88.1781L10.5346 86.5432L19.0683 86.0157L19.1693 87.6506Z" fill="#212121"/>
<path d="M19.1821 82.5854L10.6464 82.0908L10.7401 80.4735L19.2758 80.9681L19.1821 82.5854ZM8.98614 81.1832C8.96879 81.4827 8.85872 81.7228 8.65594 81.9033C8.44117 82.0832 8.18404 82.1645 7.88454 82.1471C7.59703 82.1305 7.36298 82.0208 7.18241 81.818C6.98986 81.6145 6.90226 81.363 6.91961 81.0635C6.93696 80.764 7.05302 80.5243 7.26779 80.3444C7.47057 80.1639 7.71572 80.0819 8.00324 80.0986C8.30274 80.1159 8.54876 80.2263 8.74132 80.4298C8.92189 80.6326 9.0035 80.8837 8.98614 81.1832Z" fill="#212121"/>
<path d="M19.4846 78.2988L6.73023 76.7179L6.9295 75.1102L19.6839 76.6911L19.4846 78.2988Z" fill="#212121"/>
<path d="M20.8173 71.1545C20.7113 71.6226 20.552 72.0541 20.3395 72.4489C20.1179 72.8293 19.8562 73.1699 19.5543 73.4706C19.2407 73.7687 18.8967 74.0107 18.5224 74.1965L17.7349 72.9477C18.1783 72.7282 18.5388 72.4408 18.8162 72.0853C19.0819 71.7271 19.2704 71.3023 19.3818 70.8108C19.4932 70.3192 19.4974 69.9203 19.3946 69.614C19.28 69.305 19.0706 69.1161 18.7663 69.0471C18.462 68.9782 18.2028 69.0364 17.9885 69.2216C17.7653 69.3925 17.5625 69.6357 17.3803 69.9512C17.1863 70.2641 16.9929 70.6017 16.8001 70.964C16.5982 71.312 16.371 71.6358 16.1186 71.9355C15.8661 72.2351 15.5626 72.4616 15.2079 72.615C14.8559 72.7567 14.4283 72.7706 13.925 72.6566C13.4218 72.5425 13.0166 72.3215 12.7095 71.9936C12.3907 71.6629 12.1808 71.2586 12.08 70.7805C11.9818 70.2906 12.003 69.7356 12.1435 69.1153C12.292 68.4599 12.5403 67.9071 12.8884 67.4569C13.2274 66.9924 13.6623 66.648 14.193 66.4237L14.9805 67.6726C14.6232 67.8377 14.3228 68.0772 14.0794 68.3912C13.8386 68.6935 13.6692 69.0611 13.5711 69.4942C13.4677 69.9506 13.47 70.3203 13.5782 70.6031C13.6773 70.8717 13.8673 71.0378 14.1482 71.1014C14.4291 71.1651 14.6694 71.1088 14.8693 70.9326C15.0692 70.7564 15.2603 70.5106 15.4425 70.195C15.6274 69.8678 15.8208 69.5302 16.0226 69.1822C16.2128 68.8316 16.44 68.5077 16.7042 68.2108C16.9683 67.9138 17.2822 67.6958 17.646 67.5567C18.0123 67.406 18.453 67.3889 18.9679 67.5056C19.7521 67.6833 20.3087 68.1047 20.6379 68.7699C20.9697 69.4233 21.0295 70.2182 20.8173 71.1545Z" fill="#212121"/>
<path d="M19.3657 57.0605L18.0867 56.4391L19.5655 53.3953C19.8854 52.7369 19.9646 52.1484 19.8031 51.6296C19.6415 51.1109 19.2747 50.7125 18.7027 50.4346C18.163 50.1724 17.6285 50.1328 17.0993 50.316C16.5753 50.4883 16.1534 50.9037 15.8335 51.5621L14.3468 54.622L13.0192 53.977L14.5295 50.8685C14.8756 50.1561 15.3174 49.6037 15.855 49.2111C16.3818 48.8133 16.9508 48.5895 17.5621 48.5396C18.1786 48.4789 18.7945 48.5981 19.4097 48.897C20.0465 49.2064 20.5316 49.6222 20.8649 50.1443C21.2035 50.6557 21.3792 51.2414 21.3921 51.9013C21.3942 52.5561 21.2221 53.2396 20.876 53.952L19.3657 57.0605ZM23.7596 60.4561L12.5236 54.997L13.263 53.4751L24.499 58.9342L23.7596 60.4561ZM26.9061 53.98L19.8886 55.6136L20.0868 53.9288L27.8422 52.0534L26.9061 53.98Z" fill="#212121"/>
<path d="M30.6603 48.233C30.2654 48.8061 29.7795 49.2364 29.2026 49.5238C28.6226 49.7945 28.0119 49.8984 27.3704 49.8353C26.729 49.7722 26.1019 49.5296 25.4893 49.1075L21.3983 46.2888L22.3174 44.9548L26.3491 47.7326C26.7345 47.9982 27.1147 48.1654 27.4898 48.2344C27.8618 48.2867 28.2104 48.2355 28.5357 48.0807C28.8609 47.9259 29.1427 47.6755 29.381 47.3297C29.7418 46.806 29.8613 46.2835 29.7395 45.7624C29.6077 45.2345 29.2504 44.7697 28.6674 44.368L24.6357 41.5901L25.5548 40.2561L29.6458 43.0748C30.2584 43.4969 30.7085 43.9964 30.9959 44.5734C31.2833 45.1503 31.4038 45.7579 31.3574 46.3963C31.308 47.018 31.0756 47.6302 30.6603 48.233Z" fill="#212121"/>
<path d="M36.784 40.525C36.341 40.9979 35.8427 41.3368 35.289 41.5417C34.7349 41.7296 34.176 41.7734 33.6124 41.673C33.0487 41.5725 32.5313 41.3263 32.06 40.9342L30.1814 39.1746C29.7506 38.7217 29.471 38.2215 29.3427 37.6738C29.2139 37.1092 29.2295 36.5484 29.3896 35.9913C29.5491 35.4173 29.8462 34.8982 30.281 34.434C30.8142 33.8647 31.4386 33.4877 32.1542 33.303C32.878 33.1095 33.6082 33.1111 34.3447 33.3077C35.0813 33.5044 35.7561 33.8898 36.3692 34.4641C36.9823 35.0383 37.411 35.6865 37.6553 36.4086C37.8997 37.1307 37.949 37.8592 37.8032 38.5941C37.6569 39.3121 37.3172 39.9557 36.784 40.525ZM35.4827 39.6761C35.8519 39.282 36.0839 38.8499 36.1789 38.3798C36.2739 37.9098 36.2458 37.4395 36.0946 36.969C35.9346 36.4904 35.6444 36.0541 35.224 35.6604C34.8124 35.2748 34.3625 35.0179 33.8744 34.8895C33.3862 34.7611 32.9151 34.7638 32.4611 34.8975C31.9982 35.023 31.5863 35.2785 31.2254 35.6638C30.8563 36.058 30.6242 36.49 30.5292 36.9601C30.4254 37.4219 30.4577 37.8878 30.6259 38.3577C30.794 38.8277 31.0883 39.2595 31.5087 39.6533C31.9204 40.0388 32.362 40.3045 32.8337 40.4504C33.3049 40.5793 33.7719 40.581 34.2347 40.4555C34.7058 40.3213 35.1218 40.0614 35.4827 39.6761ZM33.5763 43.6862L24.1963 34.9005L25.3038 33.7181L29.9675 38.0864L31.2691 39.7248L33.0022 40.9288L34.6838 42.5039L33.5763 43.6862Z" fill="#212121"/>
<path d="M43.6448 33.9351L35.405 29.4415L36.821 28.3303L43.1547 31.9402L42.7016 32.2958L40.8142 25.1966L42.2303 24.0853L44.4095 33.3351L43.6448 33.9351ZM43.8859 38.2077L42.6791 32.5879L44.4095 33.3351L45.302 37.0964L43.8859 38.2077Z" fill="#212121"/>
<path d="M56.8943 25.7072C56.1334 26.063 55.3647 26.2039 54.5883 26.1298C53.8118 26.0558 53.1019 25.7982 52.4585 25.3572C51.81 24.9054 51.3079 24.299 50.9521 23.5381C50.6013 22.788 50.4655 22.0302 50.5447 21.2646C50.6187 20.4881 50.8763 19.7782 51.3173 19.1348C51.7582 18.4914 52.3592 17.9919 53.1201 17.636C53.8702 17.2853 54.6334 17.147 55.4099 17.221C56.1922 17.2791 56.905 17.5287 57.5484 17.9697C58.1917 18.4107 58.6888 19.0062 59.0395 19.7562C59.3953 20.5171 59.5388 21.2913 59.4698 22.0786C59.3957 22.8551 59.1328 23.5676 58.6809 24.216C58.2399 24.8594 57.6444 25.3564 56.8943 25.7072ZM56.231 24.2886C56.7202 24.0599 57.1016 23.7424 57.3753 23.3362C57.649 22.93 57.8031 22.4805 57.8375 21.9875C57.8668 21.4836 57.762 20.9762 57.5231 20.4653C57.2893 19.9653 56.9668 19.573 56.5555 19.2884C56.1551 18.9987 55.7138 18.8342 55.2317 18.7947C54.7554 18.7392 54.2726 18.8259 53.7835 19.0546C53.2943 19.2833 52.9129 19.6008 52.6392 20.007C52.3604 20.4023 52.2038 20.8465 52.1693 21.3394C52.1349 21.8324 52.2346 22.3289 52.4685 22.829C52.7074 23.3399 53.0296 23.7456 53.435 24.0461C53.8354 24.3358 54.2792 24.5058 54.7664 24.5562C55.2537 24.6065 55.7418 24.5174 56.231 24.2886Z" fill="#212121"/>
<path d="M67.8446 21.4474L66.4314 16.6659C66.2477 16.0445 65.9008 15.5902 65.3904 15.303C64.8801 15.0159 64.3143 14.9642 63.6928 15.1478C63.2786 15.2703 62.9375 15.4712 62.6697 15.7505C62.4019 16.0299 62.2236 16.3579 62.1347 16.7345C62.0458 17.1112 62.0625 17.5066 62.185 17.9209L61.4392 17.7472C61.2555 17.1258 61.2303 16.5326 61.3637 15.9676C61.497 15.4026 61.7703 14.9089 62.1835 14.4865C62.5933 14.0526 63.1089 13.7437 63.7304 13.5601C64.3518 13.3764 64.9443 13.3702 65.508 13.5415C66.0832 13.7094 66.5837 14.0056 67.0095 14.4304C67.4319 14.8436 67.7265 15.3321 67.8931 15.896L69.3982 20.9883L67.8446 21.4474ZM62.0446 23.1616L59.6213 14.9622L61.1748 14.5031L63.5982 22.7025L62.0446 23.1616Z" fill="#212121"/>
<path d="M78.6663 13.9503L78.606 12.5296L81.9869 12.386C82.7183 12.3549 83.2739 12.1451 83.6537 11.7567C84.0336 11.3682 84.21 10.8562 84.183 10.2208C84.1575 9.62136 83.9386 9.13221 83.5261 8.75337C83.1257 8.37402 82.5598 8.19988 81.8284 8.23095L78.4295 8.37532L78.3669 6.90065L81.8198 6.75398C82.611 6.72037 83.307 6.84695 83.9078 7.13372C84.508 7.40849 84.9751 7.80302 85.3092 8.31731C85.6554 8.83108 85.8429 9.42966 85.872 10.113C85.902 10.8204 85.7664 11.4447 85.4651 11.986C85.1758 12.5268 84.7437 12.9595 84.169 13.2842C83.5938 13.5969 82.9105 13.77 82.1192 13.8036L78.6663 13.9503ZM77.764 19.4295L77.2339 6.94878L78.9244 6.87697L79.4545 19.3577L77.764 19.4295ZM84.9575 19.124L80.1881 13.7235L81.7649 13.098L87.0976 19.0331L84.9575 19.124Z" fill="#212121"/>
<path d="M92.0374 19.6995C91.2633 19.6036 90.5843 19.3259 90.0004 18.8666C89.4179 18.3954 88.9834 17.8035 88.6969 17.0908C88.4223 16.3796 88.3367 15.6072 88.44 14.7736C88.5433 13.94 88.8149 13.2119 89.2549 12.5892C89.7067 11.9681 90.2666 11.4994 90.9346 11.1832C91.6144 10.8684 92.3474 10.7597 93.1334 10.8572C93.7764 10.9369 94.3311 11.1447 94.7973 11.4806C95.2769 11.806 95.642 12.2261 95.8926 12.7409C96.1447 13.2437 96.2502 13.8069 96.2092 14.4306L95.8926 16.9851C95.7816 17.588 95.5417 18.1085 95.173 18.5464C94.8163 18.9859 94.3649 19.3108 93.8188 19.5213C93.2862 19.7213 92.6924 19.7807 92.0374 19.6995ZM92.4935 18.2143C93.2914 18.3132 93.9677 18.125 94.5224 17.6496C95.0786 17.1623 95.4091 16.4959 95.5139 15.6504C95.5862 15.0668 95.5358 14.5467 95.3627 14.0899C95.2029 13.6227 94.9353 13.2449 94.56 12.9566C94.1861 12.6563 93.7312 12.473 93.1953 12.4065C92.6594 12.3401 92.1675 12.4061 91.7197 12.6045C91.2838 12.8044 90.9195 13.1099 90.6267 13.5211C90.3473 13.9217 90.1729 14.4019 90.1035 14.9616C90.0326 15.5333 90.083 16.0534 90.2547 16.5221C90.4397 16.9803 90.7252 17.3603 91.111 17.6621C91.4968 17.9638 91.9576 18.1479 92.4935 18.2143ZM94.8819 19.8707L95.1653 17.5842L95.7259 15.5497L95.6768 13.4578L95.9336 11.3856L97.5592 11.5871L96.5075 20.0722L94.8819 19.8707Z" fill="#212121"/>
<path d="M99.6891 20.7685L101.737 12.4673L103.31 12.8553L101.262 21.1565L99.6891 20.7685ZM102.933 11.0011C102.641 10.9292 102.426 10.7771 102.285 10.5447C102.148 10.3006 102.115 10.033 102.187 9.74172C102.256 9.4621 102.406 9.25207 102.639 9.11165C102.874 8.95957 103.137 8.91945 103.429 8.9913C103.72 9.06315 103.934 9.2211 104.072 9.46515C104.212 9.69754 104.248 9.95355 104.179 10.2332C104.107 10.5244 103.954 10.7461 103.718 10.8982C103.486 11.0386 103.224 11.0729 102.933 11.0011Z" fill="#212121"/>
<path d="M103.906 21.8622L107.827 9.62296L109.37 10.1172L105.449 22.3564L103.906 21.8622Z" fill="#212121"/>
<path d="M110.548 24.4315C110.107 24.2413 109.713 24.0054 109.364 23.724C109.03 23.4363 108.744 23.1164 108.503 22.7644C108.268 22.4014 108.093 22.0188 107.98 21.6167L109.352 21.0721C109.486 21.5483 109.702 21.9554 110.001 22.2934C110.304 22.6204 110.687 22.8838 111.15 23.0836C111.612 23.2834 112.004 23.3609 112.324 23.3161C112.649 23.2602 112.873 23.0891 112.996 22.8026C113.12 22.5162 113.111 22.2507 112.968 22.006C112.841 21.7552 112.639 21.5112 112.362 21.2741C112.091 21.026 111.794 20.7738 111.473 20.5177C111.168 20.2553 110.892 19.9725 110.644 19.6693C110.396 19.3661 110.229 19.0261 110.143 18.6493C110.069 18.2772 110.133 17.8543 110.338 17.3806C110.543 16.9068 110.834 16.5492 111.213 16.3075C111.597 16.0549 112.033 15.9229 112.521 15.9117C113.021 15.9051 113.562 16.0279 114.146 16.2801C114.763 16.5465 115.261 16.8921 115.64 17.317C116.034 17.7356 116.293 18.2264 116.416 18.7892L115.043 19.3338C114.947 18.9522 114.766 18.613 114.502 18.316C114.25 18.0238 113.919 17.7897 113.512 17.6137C113.082 17.4282 112.718 17.3626 112.42 17.417C112.138 17.465 111.94 17.6213 111.826 17.8857C111.712 18.1501 111.723 18.3967 111.859 18.6256C111.996 18.8544 112.202 19.0874 112.479 19.3245C112.767 19.5663 113.063 19.8185 113.368 20.0809C113.678 20.3322 113.954 20.615 114.197 20.9293C114.441 21.2435 114.597 21.5921 114.667 21.9752C114.748 22.3631 114.684 22.7993 114.475 23.2841C114.156 24.0222 113.639 24.4919 112.925 24.6933C112.222 24.8993 111.429 24.8121 110.548 24.4315Z" fill="#212121"/>
<path d="M124.761 25.6223L125.606 24.4785L128.328 26.4891C128.916 26.924 129.481 27.1095 130.02 27.0455C130.56 26.9816 131.018 26.6938 131.396 26.1823C131.753 25.6996 131.889 25.1814 131.806 24.6276C131.733 24.081 131.401 23.5902 130.813 23.1552L128.076 21.134L128.953 19.9467L131.733 22.0001C132.37 22.4707 132.832 23.0061 133.12 23.6064C133.415 24.1971 133.531 24.7974 133.468 25.4075C133.415 26.0247 133.185 26.6084 132.779 27.1586C132.358 27.7281 131.861 28.1289 131.286 28.3611C130.722 28.6005 130.114 28.6661 129.462 28.5581C128.818 28.4404 128.178 28.1462 127.541 27.6757L124.761 25.6223ZM120.619 29.3211L128.041 19.273L129.402 20.2783L121.98 30.3264L120.619 29.3211ZM126.41 33.5989L126.088 26.4011L127.708 26.904L128.133 34.8715L126.41 33.5989Z" fill="#212121"/>
<path d="M131.316 38.2642C130.824 37.772 130.489 37.2162 130.311 36.5968C130.149 35.9774 130.158 35.358 130.336 34.7385C130.514 34.1191 130.866 33.5464 131.393 33.0203L134.905 29.5074L136.051 30.6529L132.589 34.1149C132.258 34.4458 132.025 34.7894 131.889 35.1458C131.77 35.5022 131.757 35.8544 131.851 36.2022C131.944 36.5501 132.139 36.8726 132.436 37.1696C132.886 37.6193 133.378 37.8314 133.913 37.806C134.456 37.772 134.978 37.5047 135.478 37.0041L138.94 33.5421L140.086 34.6876L136.573 38.2005C136.047 38.7266 135.474 39.0788 134.855 39.2569C134.235 39.4351 133.616 39.4436 132.996 39.2824C132.394 39.1212 131.834 38.7818 131.316 38.2642Z" fill="#212121"/>
<path d="M138.06 46.0225C137.676 45.4999 137.435 44.9476 137.336 44.3657C137.254 43.7864 137.314 43.229 137.516 42.6936C137.719 42.1582 138.057 41.695 138.529 41.3042L140.605 39.7824C141.129 39.4426 141.673 39.2601 142.235 39.2351C142.813 39.2126 143.362 39.3314 143.88 39.5915C144.414 39.8542 144.87 40.242 145.246 40.755C145.707 41.384 145.962 42.0673 146.012 42.8047C146.068 43.5517 145.932 44.2691 145.603 44.9567C145.274 45.6444 144.77 46.2365 144.093 46.7331C143.415 47.2297 142.699 47.5315 141.944 47.6384C141.19 47.7453 140.465 47.6594 139.769 47.3805C139.091 47.1043 138.521 46.6516 138.06 46.0225ZM139.134 44.9002C139.453 45.3358 139.835 45.6436 140.279 45.8236C140.724 46.0037 141.191 46.0629 141.682 46.001C142.182 45.9321 142.664 45.7274 143.128 45.3868C143.583 45.0534 143.919 44.6587 144.135 44.2026C144.351 43.7465 144.436 43.283 144.388 42.8121C144.35 42.334 144.175 41.8821 143.863 41.4562C143.543 41.0207 143.162 40.7129 142.717 40.5328C142.282 40.3457 141.819 40.2914 141.326 40.37C140.833 40.4486 140.354 40.6582 139.889 40.9987C139.435 41.3321 139.092 41.7172 138.862 42.1539C138.648 42.5932 138.56 43.0518 138.598 43.5299C138.643 44.0176 138.822 44.4744 139.134 44.9002ZM135.544 42.2868L145.91 34.6887L146.868 35.9952L141.714 39.773L139.863 40.75L138.36 42.2312L136.502 43.5933L135.544 42.2868Z" fill="#212121"/>
<path d="M143.109 53.7173L149.03 46.4355L149.864 48.0305L145.16 53.5993L144.893 53.0889L152.217 52.5284L153.051 54.1234L143.559 54.5786L143.109 53.7173ZM138.864 53.1749L144.609 53.0136L143.559 54.5786L139.698 54.7699L138.864 53.1749Z" fill="#212121"/>
<path d="M148.757 68.1965C148.547 67.3833 148.549 66.6018 148.764 65.852C148.979 65.1023 149.362 64.4515 149.913 63.8998C150.476 63.345 151.164 62.9624 151.978 62.7519C152.779 62.5445 153.549 62.5498 154.287 62.7678C155.037 62.9828 155.688 63.3659 156.24 63.9173C156.791 64.4686 157.172 65.1509 157.383 65.9641C157.59 66.7657 157.587 67.5414 157.372 68.2912C157.171 69.0496 156.795 69.7046 156.244 70.2564C155.693 70.8081 155.016 71.1877 154.215 71.3952C153.401 71.6056 152.614 71.6049 151.853 71.3929C151.103 71.1779 150.451 70.7889 149.896 70.2259C149.344 69.6746 148.965 68.9981 148.757 68.1965ZM150.273 67.8042C150.408 68.3269 150.651 68.7601 151 69.1035C151.349 69.447 151.763 69.6808 152.241 69.8049C152.731 69.926 153.249 69.9159 153.795 69.7746C154.33 69.6363 154.774 69.391 155.129 69.0388C155.487 68.6982 155.73 68.2946 155.857 67.8278C155.999 67.3697 156.002 66.8792 155.867 66.3565C155.732 65.8337 155.489 65.4006 155.14 65.0571C154.803 64.7106 154.395 64.4754 153.916 64.3512C153.438 64.2271 152.931 64.2342 152.397 64.3725C151.851 64.5139 151.393 64.7563 151.024 65.0999C150.665 65.4405 150.417 65.8456 150.278 66.3154C150.14 66.7851 150.138 67.2814 150.273 67.8042Z" fill="#212121"/>
<path d="M150.983 80.1997L155.944 79.7007C156.588 79.6358 157.099 79.3794 157.476 78.9314C157.854 78.4834 158.01 77.9371 157.945 77.2923C157.902 76.8625 157.768 76.49 157.543 76.1749C157.318 75.8598 157.029 75.6236 156.676 75.4662C156.322 75.3088 155.93 75.2517 155.501 75.2949L155.81 74.5944C156.455 74.5296 157.042 74.6152 157.573 74.8513C158.103 75.0874 158.537 75.4478 158.875 75.9324C159.225 76.4158 159.433 76.9798 159.498 77.6246C159.563 78.2693 159.459 78.8527 159.185 79.3746C158.913 79.9085 158.529 80.3452 158.033 80.6846C157.548 81.0228 157.013 81.2213 156.428 81.2801L151.145 81.8115L150.983 80.1997ZM150.377 74.182L158.885 73.3264L159.047 74.9382L150.54 75.7939L150.377 74.182Z" fill="#212121"/>
</svg>
