<svg width="1440" height="895" viewBox="0 0 1440 895" fill="none" xmlns="http://www.w3.org/2000/svg">
<rect width="1440" height="895" fill="#F0F2F7"/>
<rect x="723" y="196" width="717" height="639" fill="white"/>
<circle cx="36" cy="82" r="10" fill="url(#paint0_radial_988_46885)"/>
<circle cx="1356.45" cy="192.22" r="37.0796" fill="url(#paint1_radial_988_46885)"/>
<path d="M1403.29 194.14L1404.24 194.217L1404.06 196.474C1404.02 196.962 1404.11 197.348 1404.34 197.632C1404.56 197.917 1404.89 198.076 1405.31 198.11C1405.71 198.143 1406.06 198.038 1406.34 197.795C1406.63 197.56 1406.79 197.199 1406.83 196.711L1407.01 194.442L1408 194.522L1407.81 196.827C1407.77 197.355 1407.63 197.807 1407.39 198.182C1407.15 198.558 1406.85 198.836 1406.48 199.015C1406.12 199.203 1405.7 199.278 1405.25 199.241C1404.77 199.202 1404.37 199.061 1404.04 198.816C1403.7 198.58 1403.45 198.257 1403.28 197.849C1403.12 197.441 1403.06 196.973 1403.1 196.445L1403.29 194.14ZM1399.73 193.089L1408.06 193.766L1407.97 194.894L1399.64 194.218L1399.73 193.089ZM1399.34 197.891L1403.32 195.169L1403.6 196.268L1399.22 199.32L1399.34 197.891Z" fill="#212121"/>
<path d="M1398.4 202.37C1398.5 201.916 1398.7 201.53 1398.99 201.21C1399.28 200.9 1399.64 200.687 1400.05 200.57C1400.47 200.452 1400.92 200.451 1401.4 200.564L1404.64 201.324L1404.39 202.379L1401.2 201.631C1400.9 201.559 1400.62 201.548 1400.37 201.596C1400.13 201.654 1399.92 201.771 1399.76 201.947C1399.59 202.123 1399.48 202.347 1399.41 202.621C1399.32 203.035 1399.37 203.39 1399.57 203.685C1399.78 203.982 1400.12 204.184 1400.58 204.293L1403.77 205.041L1403.52 206.096L1400.28 205.337C1399.8 205.223 1399.4 205.022 1399.08 204.732C1398.76 204.443 1398.54 204.093 1398.41 203.684C1398.29 203.285 1398.28 202.847 1398.4 202.37Z" fill="#212121"/>
<path d="M1396.37 208.843C1396.53 208.441 1396.76 208.11 1397.06 207.849C1397.36 207.598 1397.7 207.436 1398.07 207.364C1398.45 207.291 1398.83 207.32 1399.22 207.452L1400.82 208.099C1401.2 208.278 1401.49 208.523 1401.7 208.834C1401.92 209.156 1402.04 209.51 1402.08 209.896C1402.12 210.293 1402.05 210.689 1401.89 211.083C1401.7 211.567 1401.4 211.952 1401 212.24C1400.59 212.534 1400.14 212.709 1399.63 212.763C1399.12 212.817 1398.61 212.739 1398.09 212.528C1397.56 212.317 1397.14 212.015 1396.82 211.623C1396.49 211.231 1396.28 210.788 1396.2 210.294C1396.12 209.81 1396.17 209.327 1396.37 208.843ZM1397.39 209.06C1397.25 209.395 1397.21 209.721 1397.26 210.037C1397.32 210.353 1397.45 210.64 1397.66 210.898C1397.87 211.158 1398.16 211.361 1398.51 211.505C1398.86 211.647 1399.21 211.7 1399.54 211.662C1399.88 211.625 1400.17 211.51 1400.42 211.318C1400.68 211.128 1400.88 210.869 1401.01 210.542C1401.15 210.207 1401.19 209.882 1401.13 209.565C1401.09 209.252 1400.95 208.969 1400.74 208.716C1400.52 208.463 1400.23 208.264 1399.87 208.119C1399.52 207.977 1399.18 207.917 1398.85 207.94C1398.53 207.973 1398.24 208.084 1397.98 208.273C1397.72 208.47 1397.52 208.733 1397.39 209.06ZM1397.61 206.098L1405.58 209.329L1405.17 210.333L1401.21 208.727L1400.01 208.017L1398.63 207.682L1397.21 207.102L1397.61 206.098Z" fill="#212121"/>
<path d="M1393.72 214.473L1399.95 215.294L1399.33 216.329L1394.51 215.601L1394.7 215.27L1397.59 219.247L1396.98 220.282L1393.39 215.032L1393.72 214.473ZM1392.54 211.864L1394.65 215.082L1393.39 215.032L1391.93 212.899L1392.54 211.864Z" fill="#212121"/>
<path d="M1387.43 222.779C1387.82 222.373 1388.26 222.099 1388.77 221.957C1389.27 221.816 1389.77 221.805 1390.28 221.924C1390.79 222.049 1391.25 222.306 1391.66 222.695C1392.06 223.078 1392.33 223.518 1392.46 224.015C1392.61 224.517 1392.62 225.022 1392.5 225.53C1392.38 226.038 1392.12 226.495 1391.74 226.901C1391.35 227.302 1390.91 227.573 1390.41 227.714C1389.9 227.867 1389.4 227.884 1388.89 227.764C1388.38 227.645 1387.93 227.393 1387.53 227.01C1387.12 226.622 1386.85 226.173 1386.7 225.665C1386.56 225.163 1386.55 224.655 1386.67 224.141C1386.79 223.633 1387.05 223.179 1387.43 222.779ZM1388.19 223.503C1387.94 223.764 1387.77 224.055 1387.7 224.374C1387.63 224.694 1387.64 225.012 1387.74 225.328C1387.84 225.649 1388.03 225.94 1388.3 226.201C1388.57 226.457 1388.87 226.623 1389.19 226.701C1389.51 226.785 1389.83 226.781 1390.14 226.689C1390.45 226.609 1390.73 226.438 1390.98 226.177C1391.23 225.916 1391.39 225.626 1391.46 225.306C1391.54 224.992 1391.53 224.677 1391.43 224.361C1391.33 224.045 1391.15 223.76 1390.89 223.504C1390.61 223.243 1390.31 223.068 1389.99 222.979C1389.67 222.895 1389.35 222.896 1389.03 222.982C1388.72 223.069 1388.44 223.242 1388.19 223.503Z" fill="#212121"/>
<path d="M1381.4 228.246L1383.43 230.893C1383.7 231.237 1384.02 231.437 1384.41 231.494C1384.8 231.551 1385.16 231.447 1385.51 231.183C1385.74 231.007 1385.9 230.8 1386 230.561C1386.1 230.322 1386.13 230.075 1386.1 229.818C1386.06 229.562 1385.96 229.319 1385.78 229.089L1386.29 229.019C1386.55 229.363 1386.71 229.727 1386.76 230.112C1386.82 230.497 1386.76 230.871 1386.61 231.234C1386.46 231.603 1386.21 231.92 1385.86 232.184C1385.52 232.448 1385.15 232.594 1384.76 232.622C1384.36 232.656 1383.97 232.591 1383.61 232.428C1383.24 232.271 1382.94 232.037 1382.7 231.725L1380.54 228.906L1381.4 228.246ZM1384.61 225.783L1388.09 230.322L1387.23 230.981L1383.75 226.442L1384.61 225.783Z" fill="#212121"/>
<path d="M1376.71 235.364L1377.09 236.234L1375.02 237.147C1374.57 237.345 1374.28 237.611 1374.14 237.946C1373.99 238.28 1374.01 238.642 1374.18 239.032C1374.34 239.399 1374.6 239.65 1374.95 239.786C1375.29 239.925 1375.68 239.896 1376.13 239.698L1378.22 238.78L1378.61 239.684L1376.5 240.616C1376.01 240.83 1375.55 240.921 1375.1 240.888C1374.66 240.863 1374.28 240.731 1373.94 240.492C1373.6 240.256 1373.34 239.929 1373.15 239.51C1372.96 239.077 1372.9 238.655 1372.95 238.244C1373 237.836 1373.16 237.461 1373.44 237.119C1373.73 236.784 1374.11 236.51 1374.59 236.296L1376.71 235.364ZM1375.94 231.729L1379.31 239.378L1378.27 239.835L1374.9 232.186L1375.94 231.729ZM1371.53 233.672L1375.82 235.876L1374.99 236.65L1370.22 234.25L1371.53 233.672Z" fill="#212121"/>
<path d="M1366.99 235.002C1367.49 234.873 1367.99 234.88 1368.46 235.024C1368.94 235.176 1369.35 235.439 1369.71 235.813C1370.05 236.19 1370.29 236.65 1370.43 237.195C1370.57 237.739 1370.58 238.259 1370.46 238.754C1370.33 239.252 1370.09 239.68 1369.75 240.04C1369.4 240.402 1368.97 240.648 1368.46 240.779C1368.04 240.886 1367.64 240.892 1367.27 240.796C1366.89 240.71 1366.56 240.537 1366.28 240.278C1366 240.026 1365.8 239.7 1365.67 239.302L1365.25 237.633C1365.17 237.23 1365.19 236.847 1365.32 236.484C1365.43 236.124 1365.63 235.811 1365.92 235.547C1366.21 235.292 1366.56 235.111 1366.99 235.002ZM1367.07 236.038C1366.54 236.171 1366.17 236.453 1365.94 236.885C1365.71 237.324 1365.67 237.82 1365.81 238.372C1365.91 238.753 1366.06 239.065 1366.28 239.308C1366.5 239.56 1366.76 239.73 1367.06 239.818C1367.37 239.914 1367.69 239.918 1368.04 239.829C1368.39 239.739 1368.68 239.578 1368.92 239.346C1369.14 239.115 1369.29 238.836 1369.37 238.508C1369.45 238.19 1369.44 237.849 1369.35 237.483C1369.25 237.109 1369.09 236.798 1368.87 236.547C1368.65 236.307 1368.38 236.14 1368.06 236.046C1367.75 235.952 1367.42 235.949 1367.07 236.038ZM1365.17 235.588L1365.55 237.082L1365.7 238.487L1366.24 239.778L1366.59 241.132L1365.52 241.403L1364.11 235.859L1365.17 235.588Z" fill="#212121"/>
<path d="M1362.03 236.161L1362.78 241.833L1361.7 241.974L1360.96 236.303L1362.03 236.161ZM1362.39 243.038C1362.59 243.012 1362.76 243.054 1362.91 243.165C1363.05 243.283 1363.14 243.442 1363.16 243.641C1363.19 243.832 1363.14 244 1363.03 244.144C1362.92 244.296 1362.77 244.385 1362.57 244.411C1362.37 244.437 1362.2 244.391 1362.06 244.273C1361.91 244.162 1361.83 244.011 1361.8 243.82C1361.77 243.621 1361.82 243.446 1361.93 243.294C1362.04 243.149 1362.19 243.064 1362.39 243.038Z" fill="#212121"/>
<path d="M1359.02 236.505L1359.55 245.088L1358.47 245.155L1357.94 236.572L1359.02 236.505Z" fill="#212121"/>
<path d="M1354.11 236.499C1354.43 236.511 1354.73 236.563 1355.02 236.655C1355.29 236.754 1355.55 236.884 1355.78 237.046C1356.02 237.216 1356.22 237.412 1356.39 237.636L1355.66 238.307C1355.47 238.042 1355.23 237.84 1354.96 237.701C1354.7 237.57 1354.39 237.499 1354.06 237.485C1353.72 237.472 1353.46 237.519 1353.27 237.624C1353.08 237.737 1352.98 237.898 1352.97 238.107C1352.96 238.315 1353.03 238.479 1353.18 238.597C1353.32 238.723 1353.51 238.826 1353.74 238.907C1353.97 238.997 1354.21 239.082 1354.47 239.165C1354.73 239.255 1354.97 239.365 1355.2 239.494C1355.42 239.623 1355.61 239.795 1355.75 240.01C1355.89 240.224 1355.95 240.504 1355.94 240.849C1355.93 241.194 1355.83 241.487 1355.65 241.729C1355.47 241.98 1355.23 242.167 1354.93 242.292C1354.62 242.417 1354.25 242.471 1353.83 242.455C1353.38 242.437 1352.98 242.342 1352.65 242.168C1352.3 242.002 1352.02 241.758 1351.81 241.436L1352.53 240.765C1352.68 240.98 1352.88 241.148 1353.11 241.27C1353.34 241.391 1353.61 241.458 1353.9 241.469C1354.22 241.481 1354.46 241.434 1354.63 241.328C1354.8 241.23 1354.88 241.085 1354.89 240.892C1354.9 240.7 1354.83 240.549 1354.69 240.439C1354.55 240.329 1354.36 240.233 1354.13 240.152C1353.9 240.071 1353.65 239.985 1353.4 239.895C1353.14 239.813 1352.9 239.703 1352.67 239.566C1352.45 239.428 1352.26 239.248 1352.13 239.026C1351.98 238.804 1351.92 238.516 1351.93 238.163C1351.95 237.625 1352.16 237.207 1352.56 236.909C1352.95 236.611 1353.46 236.474 1354.11 236.499Z" fill="#212121"/>
<path d="M1345.03 239.183L1344.78 240.101L1342.59 239.509C1342.12 239.381 1341.72 239.402 1341.4 239.573C1341.08 239.744 1340.87 240.035 1340.75 240.446C1340.65 240.833 1340.69 241.19 1340.88 241.515C1341.06 241.838 1341.38 242.063 1341.85 242.191L1344.05 242.787L1343.79 243.74L1341.56 243.135C1341.05 242.996 1340.63 242.775 1340.31 242.47C1339.98 242.174 1339.76 241.828 1339.65 241.432C1339.53 241.034 1339.54 240.615 1339.66 240.173C1339.78 239.716 1339.99 239.345 1340.29 239.061C1340.59 238.774 1340.95 238.586 1341.38 238.495C1341.81 238.412 1342.28 238.439 1342.8 238.578L1345.03 239.183ZM1346.71 235.871L1344.52 243.938L1343.43 243.642L1345.62 235.575L1346.71 235.871ZM1342.06 234.611L1344.01 239.02L1342.88 239.1L1340.68 234.236L1342.06 234.611Z" fill="#212121"/>
<path d="M1337.77 232.821C1338.2 233.01 1338.54 233.277 1338.8 233.621C1339.05 233.97 1339.19 234.359 1339.23 234.788C1339.27 235.218 1339.19 235.66 1338.98 236.115L1337.63 239.152L1336.64 238.711L1337.97 235.718C1338.1 235.432 1338.16 235.161 1338.16 234.906C1338.15 234.655 1338.08 234.432 1337.93 234.237C1337.79 234.042 1337.59 233.888 1337.34 233.773C1336.95 233.6 1336.59 233.586 1336.26 233.73C1335.93 233.881 1335.67 234.174 1335.48 234.606L1334.14 237.599L1333.15 237.158L1334.51 234.122C1334.71 233.667 1334.98 233.309 1335.33 233.05C1335.67 232.79 1336.05 232.636 1336.48 232.588C1336.89 232.544 1337.33 232.622 1337.77 232.821Z" fill="#212121"/>
<path d="M1331.85 229.66C1332.22 229.894 1332.5 230.18 1332.7 230.52C1332.9 230.862 1332.99 231.224 1332.99 231.607C1333 231.99 1332.9 232.361 1332.7 232.718L1331.77 234.168C1331.52 234.507 1331.23 234.751 1330.88 234.902C1330.52 235.055 1330.15 235.113 1329.77 235.075C1329.37 235.04 1328.99 234.908 1328.64 234.678C1328.2 234.396 1327.87 234.031 1327.66 233.582C1327.45 233.13 1327.36 232.649 1327.4 232.14C1327.44 231.632 1327.61 231.141 1327.92 230.668C1328.22 230.195 1328.59 229.834 1329.04 229.586C1329.49 229.337 1329.96 229.216 1330.46 229.223C1330.95 229.232 1331.41 229.378 1331.85 229.66ZM1331.45 230.619C1331.15 230.424 1330.84 230.324 1330.52 230.318C1330.2 230.313 1329.89 230.388 1329.6 230.545C1329.3 230.708 1329.05 230.952 1328.84 231.276C1328.64 231.594 1328.52 231.921 1328.5 232.258C1328.47 232.595 1328.53 232.904 1328.68 233.187C1328.81 233.476 1329.03 233.716 1329.33 233.907C1329.63 234.102 1329.95 234.202 1330.27 234.208C1330.58 234.22 1330.89 234.142 1331.18 233.975C1331.46 233.807 1331.71 233.561 1331.92 233.237C1332.12 232.919 1332.25 232.596 1332.28 232.268C1332.31 231.942 1332.26 231.635 1332.12 231.345C1331.97 231.052 1331.75 230.81 1331.45 230.619ZM1334.32 231.387L1329.68 238.625L1328.77 238.04L1331.08 234.441L1332 233.386L1332.58 232.099L1333.41 230.801L1334.32 231.387Z" fill="#212121"/>
<path d="M1326.82 226.029L1324.88 232.002L1323.98 231.208L1325.57 226.597L1325.86 226.851L1321.42 228.969L1320.52 228.174L1326.33 225.6L1326.82 226.029ZM1329.6 225.343L1326.05 226.83L1326.33 225.6L1328.7 224.549L1329.6 225.343Z" fill="#212121"/>
<path d="M1319.8 218.313C1320.12 218.77 1320.31 219.258 1320.36 219.778C1320.4 220.298 1320.32 220.797 1320.11 221.274C1319.89 221.756 1319.55 222.16 1319.1 222.488C1318.65 222.81 1318.17 222.993 1317.65 223.034C1317.13 223.081 1316.63 222.998 1316.16 222.787C1315.68 222.576 1315.28 222.242 1314.95 221.785C1314.63 221.334 1314.44 220.849 1314.4 220.329C1314.34 219.808 1314.42 219.308 1314.63 218.831C1314.84 218.354 1315.17 217.954 1315.62 217.631C1316.08 217.304 1316.57 217.115 1317.09 217.064C1317.61 217.017 1318.11 217.103 1318.6 217.321C1319.07 217.532 1319.47 217.863 1319.8 218.313ZM1318.94 218.923C1318.73 218.63 1318.48 218.418 1318.18 218.287C1317.88 218.157 1317.56 218.111 1317.23 218.149C1316.9 218.191 1316.58 218.322 1316.27 218.542C1315.97 218.757 1315.75 219.017 1315.62 219.323C1315.47 219.621 1315.42 219.932 1315.45 220.254C1315.47 220.574 1315.59 220.881 1315.8 221.175C1316.01 221.468 1316.27 221.68 1316.57 221.811C1316.86 221.946 1317.17 221.994 1317.5 221.956C1317.83 221.919 1318.14 221.792 1318.45 221.577C1318.75 221.357 1318.98 221.096 1319.13 220.792C1319.27 220.493 1319.33 220.181 1319.3 219.854C1319.27 219.527 1319.15 219.217 1318.94 218.923Z" fill="#212121"/>
<path d="M1315.55 211.425L1312.57 212.938C1312.19 213.135 1311.93 213.419 1311.81 213.79C1311.68 214.16 1311.71 214.539 1311.91 214.925C1312.04 215.183 1312.22 215.383 1312.43 215.525C1312.65 215.667 1312.89 215.744 1313.14 215.757C1313.4 215.769 1313.66 215.71 1313.92 215.579L1313.9 216.091C1313.51 216.287 1313.12 216.376 1312.73 216.358C1312.35 216.339 1311.99 216.219 1311.66 215.999C1311.32 215.782 1311.06 215.481 1310.86 215.094C1310.66 214.708 1310.59 214.319 1310.63 213.927C1310.67 213.528 1310.81 213.163 1311.03 212.831C1311.25 212.503 1311.54 212.249 1311.89 212.071L1315.06 210.459L1315.55 211.425ZM1317.38 215.032L1312.29 217.627L1311.79 216.661L1316.89 214.066L1317.38 215.032Z" fill="#212121"/>
<path d="M1309.44 205.607L1308.51 205.825L1308 203.62C1307.89 203.143 1307.68 202.804 1307.38 202.603C1307.07 202.402 1306.71 202.35 1306.3 202.447C1305.91 202.539 1305.61 202.744 1305.42 203.063C1305.22 203.373 1305.17 203.767 1305.29 204.244L1305.81 206.46L1304.84 206.686L1304.32 204.434C1304.2 203.918 1304.19 203.445 1304.3 203.014C1304.41 202.586 1304.61 202.229 1304.91 201.945C1305.2 201.653 1305.57 201.455 1306.02 201.351C1306.48 201.243 1306.91 201.254 1307.3 201.384C1307.69 201.507 1308.03 201.736 1308.32 202.074C1308.59 202.413 1308.79 202.84 1308.91 203.356L1309.44 205.607ZM1313.16 205.515L1305.02 207.424L1304.76 206.322L1312.9 204.413L1313.16 205.515ZM1312.06 200.825L1309.1 204.635L1308.49 203.677L1311.73 199.43L1312.06 200.825Z" fill="#212121"/>
<path d="M1311.56 196.024C1311.59 196.545 1311.49 197.026 1311.26 197.467C1311.03 197.908 1310.69 198.266 1310.26 198.543C1309.82 198.811 1309.32 198.962 1308.76 198.997C1308.2 199.031 1307.69 198.942 1307.23 198.73C1306.76 198.509 1306.39 198.199 1306.1 197.798C1305.8 197.39 1305.64 196.921 1305.61 196.392C1305.58 195.959 1305.65 195.569 1305.82 195.221C1305.97 194.866 1306.2 194.574 1306.51 194.346C1306.81 194.118 1307.17 193.979 1307.58 193.929L1309.3 193.823C1309.71 193.822 1310.08 193.916 1310.42 194.104C1310.75 194.285 1311.02 194.541 1311.22 194.875C1311.42 195.2 1311.53 195.584 1311.56 196.024ZM1310.53 195.907C1310.49 195.37 1310.29 194.949 1309.91 194.642C1309.52 194.337 1309.04 194.201 1308.47 194.236C1308.08 194.261 1307.74 194.358 1307.46 194.528C1307.17 194.691 1306.96 194.913 1306.82 195.195C1306.66 195.478 1306.6 195.8 1306.62 196.161C1306.64 196.521 1306.75 196.837 1306.93 197.107C1307.12 197.369 1307.36 197.571 1307.67 197.713C1307.97 197.847 1308.31 197.903 1308.68 197.88C1309.07 197.856 1309.4 197.759 1309.69 197.588C1309.97 197.41 1310.18 197.175 1310.33 196.885C1310.49 196.594 1310.55 196.268 1310.53 195.907ZM1311.32 194.132L1309.78 194.228L1308.38 194.109L1307.01 194.399L1305.61 194.485L1305.55 193.392L1311.26 193.039L1311.32 194.132Z" fill="#212121"/>
<path d="M1311.33 190.743L1305.62 190.412L1305.68 189.33L1311.39 189.661L1311.33 190.743ZM1304.51 189.805C1304.5 190.005 1304.42 190.166 1304.29 190.287C1304.14 190.407 1303.97 190.462 1303.77 190.45C1303.58 190.439 1303.42 190.365 1303.3 190.23C1303.17 190.094 1303.12 189.925 1303.13 189.725C1303.14 189.525 1303.22 189.364 1303.36 189.244C1303.5 189.123 1303.66 189.068 1303.85 189.079C1304.05 189.091 1304.22 189.165 1304.35 189.301C1304.47 189.437 1304.52 189.605 1304.51 189.805Z" fill="#212121"/>
<path d="M1311.53 187.875L1303 186.817L1303.13 185.742L1311.67 186.799L1311.53 187.875Z" fill="#212121"/>
<path d="M1312.43 183.095C1312.35 183.408 1312.25 183.697 1312.11 183.961C1311.96 184.215 1311.78 184.443 1311.58 184.645C1311.37 184.844 1311.14 185.006 1310.89 185.13L1310.36 184.295C1310.66 184.148 1310.9 183.955 1311.09 183.718C1311.26 183.478 1311.39 183.194 1311.47 182.865C1311.54 182.536 1311.54 182.269 1311.47 182.064C1311.4 181.857 1311.26 181.731 1311.05 181.685C1310.85 181.639 1310.68 181.677 1310.53 181.801C1310.38 181.916 1310.25 182.078 1310.13 182.29C1310 182.499 1309.87 182.725 1309.74 182.967C1309.6 183.2 1309.45 183.417 1309.28 183.617C1309.11 183.818 1308.91 183.969 1308.67 184.072C1308.44 184.167 1308.15 184.176 1307.81 184.1C1307.48 184.023 1307.21 183.876 1307 183.656C1306.79 183.435 1306.65 183.164 1306.58 182.844C1306.51 182.517 1306.53 182.145 1306.62 181.73C1306.72 181.292 1306.89 180.922 1307.12 180.621C1307.35 180.31 1307.64 180.079 1307.99 179.929L1308.52 180.765C1308.28 180.875 1308.08 181.036 1307.92 181.246C1307.76 181.448 1307.64 181.694 1307.58 181.984C1307.51 182.289 1307.51 182.537 1307.58 182.726C1307.65 182.906 1307.78 183.017 1307.96 183.059C1308.15 183.102 1308.31 183.064 1308.45 182.946C1308.58 182.828 1308.71 182.664 1308.83 182.453C1308.95 182.234 1309.08 182.008 1309.22 181.775C1309.34 181.54 1309.5 181.324 1309.67 181.125C1309.85 180.926 1310.06 180.78 1310.3 180.687C1310.55 180.587 1310.84 180.575 1311.19 180.653C1311.71 180.772 1312.09 181.054 1312.31 181.499C1312.53 181.936 1312.57 182.468 1312.43 183.095Z" fill="#212121"/>
<path d="M1311.45 173.664L1310.6 173.248L1311.59 171.212C1311.8 170.771 1311.86 170.378 1311.75 170.03C1311.64 169.683 1311.39 169.417 1311.01 169.231C1310.65 169.055 1310.29 169.029 1309.94 169.151C1309.59 169.267 1309.31 169.545 1309.09 169.985L1308.1 172.033L1307.21 171.601L1308.22 169.521C1308.45 169.044 1308.75 168.675 1309.11 168.412C1309.46 168.146 1309.84 167.996 1310.25 167.963C1310.66 167.922 1311.07 168.002 1311.48 168.202C1311.91 168.409 1312.23 168.687 1312.46 169.037C1312.68 169.379 1312.8 169.771 1312.81 170.212C1312.81 170.65 1312.7 171.108 1312.47 171.584L1311.45 173.664ZM1314.39 175.936L1306.88 172.284L1307.37 171.265L1314.89 174.918L1314.39 175.936ZM1316.5 171.603L1311.8 172.696L1311.94 171.569L1317.13 170.314L1316.5 171.603Z" fill="#212121"/>
<path d="M1319.01 167.758C1318.75 168.141 1318.42 168.429 1318.04 168.621C1317.65 168.803 1317.24 168.872 1316.81 168.83C1316.38 168.788 1315.96 168.625 1315.55 168.343L1312.81 166.457L1313.43 165.564L1316.13 167.423C1316.39 167.601 1316.64 167.712 1316.89 167.759C1317.14 167.794 1317.37 167.759 1317.59 167.656C1317.81 167.552 1318 167.385 1318.16 167.153C1318.4 166.803 1318.48 166.453 1318.4 166.105C1318.31 165.751 1318.07 165.44 1317.68 165.172L1314.98 163.313L1315.6 162.42L1318.33 164.306C1318.74 164.589 1319.04 164.923 1319.24 165.309C1319.43 165.695 1319.51 166.102 1319.48 166.529C1319.45 166.945 1319.29 167.354 1319.01 167.758Z" fill="#212121"/>
<path d="M1323.11 162.6C1322.81 162.917 1322.48 163.143 1322.11 163.28C1321.74 163.406 1321.36 163.435 1320.99 163.368C1320.61 163.301 1320.26 163.136 1319.95 162.874L1318.69 161.697C1318.4 161.394 1318.22 161.059 1318.13 160.692C1318.04 160.315 1318.05 159.939 1318.16 159.567C1318.27 159.182 1318.47 158.835 1318.76 158.525C1319.11 158.144 1319.53 157.891 1320.01 157.768C1320.5 157.638 1320.98 157.639 1321.48 157.771C1321.97 157.903 1322.42 158.16 1322.83 158.545C1323.24 158.929 1323.53 159.363 1323.69 159.846C1323.86 160.329 1323.89 160.816 1323.79 161.308C1323.69 161.789 1323.47 162.219 1323.11 162.6ZM1322.24 162.032C1322.49 161.768 1322.64 161.479 1322.7 161.165C1322.77 160.85 1322.75 160.536 1322.65 160.221C1322.54 159.9 1322.35 159.609 1322.07 159.345C1321.79 159.087 1321.49 158.915 1321.16 158.829C1320.84 158.743 1320.52 158.745 1320.22 158.835C1319.91 158.919 1319.63 159.09 1319.39 159.347C1319.14 159.611 1318.99 159.9 1318.92 160.215C1318.85 160.524 1318.88 160.836 1318.99 161.15C1319.1 161.464 1319.3 161.753 1319.58 162.017C1319.86 162.275 1320.15 162.453 1320.47 162.55C1320.78 162.636 1321.09 162.638 1321.4 162.554C1321.72 162.464 1322 162.29 1322.24 162.032ZM1320.96 164.715L1314.69 158.837L1315.43 158.046L1318.55 160.968L1319.42 162.065L1320.58 162.87L1321.7 163.924L1320.96 164.715Z" fill="#212121"/>
<path d="M1327.7 158.191L1322.19 155.184L1323.13 154.44L1327.37 156.856L1327.07 157.094L1325.81 152.344L1326.75 151.6L1328.21 157.789L1327.7 158.191ZM1327.86 161.05L1327.05 157.289L1328.21 157.789L1328.81 160.306L1327.86 161.05Z" fill="#212121"/>
<path d="M1336.57 152.685C1336.06 152.923 1335.54 153.018 1335.02 152.968C1334.5 152.919 1334.03 152.746 1333.6 152.451C1333.16 152.149 1332.83 151.743 1332.59 151.234C1332.35 150.732 1332.26 150.225 1332.32 149.713C1332.37 149.193 1332.54 148.718 1332.83 148.288C1333.13 147.857 1333.53 147.523 1334.04 147.285C1334.54 147.05 1335.05 146.958 1335.57 147.007C1336.1 147.046 1336.57 147.213 1337 147.508C1337.43 147.803 1337.77 148.202 1338 148.704C1338.24 149.213 1338.33 149.731 1338.29 150.257C1338.24 150.777 1338.06 151.254 1337.76 151.688C1337.47 152.118 1337.07 152.451 1336.57 152.685ZM1336.12 151.736C1336.45 151.583 1336.7 151.371 1336.89 151.099C1337.07 150.827 1337.17 150.526 1337.2 150.197C1337.22 149.859 1337.15 149.52 1336.99 149.178C1336.83 148.843 1336.61 148.581 1336.34 148.391C1336.07 148.197 1335.78 148.087 1335.45 148.06C1335.13 148.023 1334.81 148.081 1334.48 148.234C1334.16 148.387 1333.9 148.6 1333.72 148.871C1333.53 149.136 1333.43 149.433 1333.4 149.763C1333.38 150.093 1333.45 150.425 1333.6 150.76C1333.76 151.101 1333.98 151.373 1334.25 151.574C1334.52 151.768 1334.82 151.882 1335.14 151.915C1335.47 151.949 1335.79 151.889 1336.12 151.736Z" fill="#212121"/>
<path d="M1343.89 149.835L1342.95 146.636C1342.82 146.22 1342.59 145.916 1342.25 145.724C1341.91 145.532 1341.53 145.497 1341.11 145.62C1340.84 145.702 1340.61 145.836 1340.43 146.023C1340.25 146.21 1340.13 146.43 1340.07 146.682C1340.01 146.934 1340.02 147.198 1340.11 147.475L1339.61 147.359C1339.48 146.943 1339.47 146.546 1339.56 146.168C1339.65 145.79 1339.83 145.46 1340.1 145.177C1340.38 144.887 1340.72 144.68 1341.14 144.558C1341.56 144.435 1341.95 144.431 1342.33 144.545C1342.71 144.657 1343.05 144.856 1343.33 145.14C1343.62 145.416 1343.81 145.743 1343.92 146.121L1344.93 149.528L1343.89 149.835ZM1340.01 150.982L1338.39 145.496L1339.43 145.189L1341.05 150.675L1340.01 150.982Z" fill="#212121"/>
<path d="M1351.13 144.819L1351.09 143.868L1353.36 143.772C1353.84 143.751 1354.22 143.611 1354.47 143.351C1354.72 143.091 1354.84 142.748 1354.82 142.323C1354.81 141.922 1354.66 141.595 1354.39 141.341C1354.12 141.088 1353.74 140.971 1353.25 140.992L1350.97 141.088L1350.93 140.102L1353.24 140.004C1353.77 139.981 1354.24 140.066 1354.64 140.258C1355.04 140.441 1355.35 140.705 1355.58 141.05C1355.81 141.393 1355.94 141.794 1355.95 142.251C1355.97 142.724 1355.88 143.142 1355.68 143.504C1355.49 143.866 1355.2 144.156 1354.82 144.373C1354.43 144.582 1353.97 144.698 1353.44 144.721L1351.13 144.819ZM1350.53 148.485L1350.17 140.134L1351.31 140.086L1351.66 148.437L1350.53 148.485ZM1355.34 148.28L1352.15 144.667L1353.21 144.248L1356.77 148.22L1355.34 148.28Z" fill="#212121"/>
<path d="M1360.08 148.666C1359.56 148.601 1359.11 148.416 1358.72 148.108C1358.33 147.793 1358.04 147.397 1357.84 146.92C1357.66 146.444 1357.6 145.927 1357.67 145.37C1357.74 144.812 1357.92 144.325 1358.22 143.908C1358.52 143.492 1358.9 143.179 1359.34 142.967C1359.8 142.757 1360.29 142.684 1360.81 142.749C1361.24 142.802 1361.61 142.941 1361.93 143.166C1362.25 143.384 1362.49 143.665 1362.66 144.009C1362.83 144.346 1362.9 144.723 1362.87 145.14L1362.66 146.849C1362.59 147.253 1362.42 147.601 1362.18 147.894C1361.94 148.188 1361.64 148.406 1361.27 148.546C1360.92 148.68 1360.52 148.72 1360.08 148.666ZM1360.39 147.672C1360.92 147.738 1361.37 147.612 1361.74 147.294C1362.11 146.968 1362.34 146.522 1362.41 145.956C1362.45 145.566 1362.42 145.218 1362.31 144.912C1362.2 144.6 1362.02 144.347 1361.77 144.154C1361.52 143.953 1361.21 143.83 1360.85 143.786C1360.5 143.741 1360.17 143.785 1359.87 143.918C1359.58 144.052 1359.33 144.256 1359.14 144.532C1358.95 144.8 1358.83 145.121 1358.79 145.495C1358.74 145.878 1358.77 146.226 1358.89 146.54C1359.01 146.846 1359.2 147.1 1359.46 147.302C1359.72 147.504 1360.03 147.627 1360.39 147.672ZM1361.98 148.78L1362.17 147.25L1362.55 145.889L1362.52 144.489L1362.69 143.103L1363.77 143.237L1363.07 148.915L1361.98 148.78Z" fill="#212121"/>
<path d="M1365.2 149.381L1366.57 143.826L1367.62 144.086L1366.25 149.64L1365.2 149.381ZM1367.37 142.845C1367.18 142.797 1367.03 142.695 1366.94 142.54C1366.85 142.377 1366.82 142.198 1366.87 142.003C1366.92 141.816 1367.02 141.675 1367.17 141.581C1367.33 141.479 1367.51 141.453 1367.7 141.501C1367.9 141.549 1368.04 141.654 1368.13 141.818C1368.23 141.973 1368.25 142.144 1368.2 142.332C1368.16 142.526 1368.05 142.675 1367.9 142.777C1367.74 142.87 1367.57 142.893 1367.37 142.845Z" fill="#212121"/>
<path d="M1368.02 150.113L1370.65 141.923L1371.68 142.254L1369.05 150.443L1368.02 150.113Z" fill="#212121"/>
<path d="M1372.47 151.832C1372.17 151.704 1371.91 151.547 1371.67 151.358C1371.45 151.166 1371.26 150.952 1371.1 150.716C1370.94 150.473 1370.82 150.217 1370.75 149.948L1371.67 149.584C1371.76 149.903 1371.9 150.175 1372.1 150.401C1372.3 150.62 1372.56 150.796 1372.87 150.93C1373.18 151.064 1373.44 151.115 1373.65 151.085C1373.87 151.048 1374.02 150.934 1374.1 150.742C1374.19 150.55 1374.18 150.373 1374.08 150.209C1374 150.041 1373.86 149.878 1373.68 149.719C1373.5 149.553 1373.3 149.384 1373.09 149.213C1372.88 149.037 1372.7 148.848 1372.53 148.645C1372.36 148.442 1372.25 148.215 1372.19 147.963C1372.14 147.714 1372.19 147.431 1372.33 147.114C1372.46 146.797 1372.66 146.558 1372.91 146.396C1373.17 146.227 1373.46 146.139 1373.79 146.131C1374.12 146.127 1374.48 146.209 1374.87 146.378C1375.29 146.556 1375.62 146.787 1375.87 147.071C1376.14 147.351 1376.31 147.68 1376.39 148.056L1375.47 148.421C1375.41 148.166 1375.29 147.939 1375.11 147.74C1374.94 147.544 1374.72 147.388 1374.45 147.27C1374.16 147.146 1373.92 147.102 1373.72 147.138C1373.53 147.17 1373.4 147.275 1373.32 147.452C1373.24 147.629 1373.25 147.794 1373.34 147.947C1373.43 148.1 1373.57 148.256 1373.76 148.415C1373.95 148.576 1374.15 148.745 1374.35 148.921C1374.56 149.089 1374.74 149.278 1374.91 149.488C1375.07 149.699 1375.18 149.932 1375.22 150.188C1375.28 150.448 1375.23 150.74 1375.09 151.064C1374.88 151.558 1374.53 151.872 1374.06 152.007C1373.59 152.145 1373.06 152.086 1372.47 151.832Z" fill="#212121"/>
<path d="M1381.98 152.629L1382.54 151.863L1384.36 153.209C1384.76 153.5 1385.13 153.624 1385.49 153.581C1385.86 153.538 1386.16 153.346 1386.42 153.003C1386.65 152.68 1386.75 152.334 1386.69 151.963C1386.64 151.597 1386.42 151.269 1386.03 150.978L1384.19 149.625L1384.78 148.831L1386.64 150.205C1387.07 150.52 1387.38 150.878 1387.57 151.28C1387.77 151.675 1387.84 152.077 1387.8 152.485C1387.77 152.898 1387.61 153.288 1387.34 153.657C1387.06 154.038 1386.73 154.306 1386.34 154.461C1385.96 154.621 1385.56 154.665 1385.12 154.593C1384.69 154.514 1384.26 154.317 1383.84 154.002L1381.98 152.629ZM1379.2 155.103L1384.17 148.38L1385.08 149.053L1380.12 155.776L1379.2 155.103ZM1383.08 157.966L1382.86 153.15L1383.95 153.486L1384.23 158.817L1383.08 157.966Z" fill="#212121"/>
<path d="M1386.36 161.087C1386.03 160.758 1385.81 160.386 1385.69 159.972C1385.58 159.557 1385.59 159.143 1385.71 158.728C1385.83 158.314 1386.06 157.931 1386.41 157.579L1388.76 155.228L1389.53 155.995L1387.21 158.311C1386.99 158.532 1386.84 158.762 1386.75 159.001C1386.67 159.239 1386.66 159.475 1386.72 159.708C1386.78 159.941 1386.91 160.156 1387.11 160.355C1387.41 160.656 1387.74 160.798 1388.1 160.781C1388.46 160.758 1388.81 160.579 1389.15 160.244L1391.46 157.928L1392.23 158.694L1389.88 161.045C1389.53 161.397 1389.14 161.632 1388.73 161.752C1388.32 161.871 1387.9 161.877 1387.49 161.769C1387.08 161.661 1386.71 161.434 1386.36 161.087Z" fill="#212121"/>
<path d="M1390.87 166.279C1390.62 165.929 1390.46 165.559 1390.39 165.17C1390.33 164.782 1390.38 164.409 1390.51 164.051C1390.65 163.693 1390.87 163.383 1391.19 163.122L1392.58 162.103C1392.93 161.876 1393.29 161.754 1393.67 161.737C1394.05 161.722 1394.42 161.802 1394.77 161.976C1395.13 162.151 1395.43 162.411 1395.68 162.754C1395.99 163.175 1396.16 163.632 1396.19 164.126C1396.23 164.625 1396.14 165.105 1395.92 165.566C1395.7 166.026 1395.36 166.422 1394.91 166.754C1394.46 167.086 1393.98 167.288 1393.47 167.36C1392.97 167.431 1392.48 167.374 1392.02 167.187C1391.56 167.002 1391.18 166.7 1390.87 166.279ZM1391.59 165.528C1391.81 165.819 1392.06 166.025 1392.36 166.146C1392.66 166.266 1392.97 166.306 1393.3 166.264C1393.63 166.218 1393.95 166.081 1394.27 165.853C1394.57 165.63 1394.79 165.366 1394.94 165.061C1395.08 164.756 1395.14 164.446 1395.11 164.13C1395.08 163.811 1394.97 163.508 1394.76 163.223C1394.54 162.932 1394.29 162.726 1393.99 162.605C1393.7 162.48 1393.39 162.444 1393.06 162.496C1392.73 162.549 1392.41 162.689 1392.1 162.917C1391.79 163.14 1391.56 163.398 1391.41 163.69C1391.27 163.984 1391.21 164.291 1391.23 164.611C1391.26 164.937 1391.38 165.243 1391.59 165.528ZM1389.19 163.779L1396.13 158.695L1396.77 159.569L1393.32 162.097L1392.08 162.751L1391.08 163.742L1389.83 164.653L1389.19 163.779Z" fill="#212121"/>
<path d="M1394.25 171.427L1398.21 166.555L1398.77 167.622L1395.62 171.348L1395.45 171.007L1400.35 170.632L1400.91 171.699L1394.55 172.004L1394.25 171.427ZM1391.41 171.064L1395.26 170.956L1394.55 172.004L1391.97 172.132L1391.41 171.064Z" fill="#212121"/>
<path d="M1398.03 181.116C1397.89 180.571 1397.89 180.049 1398.04 179.547C1398.18 179.045 1398.44 178.61 1398.81 178.241C1399.18 177.869 1399.64 177.613 1400.19 177.472C1400.72 177.334 1401.24 177.337 1401.73 177.483C1402.23 177.627 1402.67 177.883 1403.04 178.252C1403.41 178.621 1403.66 179.078 1403.8 179.622C1403.94 180.158 1403.94 180.677 1403.8 181.179C1403.66 181.686 1403.41 182.125 1403.04 182.494C1402.67 182.863 1402.22 183.117 1401.68 183.256C1401.14 183.397 1400.61 183.396 1400.1 183.254C1399.6 183.11 1399.17 182.85 1398.79 182.473C1398.42 182.105 1398.17 181.652 1398.03 181.116ZM1399.05 180.853C1399.14 181.203 1399.3 181.493 1399.53 181.722C1399.77 181.952 1400.04 182.109 1400.36 182.192C1400.69 182.273 1401.04 182.266 1401.4 182.171C1401.76 182.079 1402.06 181.915 1402.3 181.679C1402.54 181.451 1402.7 181.181 1402.78 180.869C1402.88 180.562 1402.88 180.234 1402.79 179.884C1402.7 179.535 1402.54 179.245 1402.3 179.015C1402.08 178.783 1401.8 178.626 1401.48 178.543C1401.16 178.46 1400.83 178.464 1400.47 178.557C1400.1 178.651 1399.8 178.814 1399.55 179.044C1399.31 179.271 1399.14 179.543 1399.05 179.857C1398.96 180.171 1398.96 180.503 1399.05 180.853Z" fill="#212121"/>
<path d="M1399.52 189.147L1402.84 188.813C1403.27 188.77 1403.61 188.598 1403.87 188.298C1404.12 187.999 1404.22 187.633 1404.18 187.202C1404.15 186.914 1404.06 186.665 1403.91 186.454C1403.76 186.243 1403.57 186.085 1403.33 185.98C1403.09 185.874 1402.83 185.836 1402.54 185.865L1402.75 185.396C1403.18 185.353 1403.58 185.41 1403.93 185.568C1404.29 185.726 1404.58 185.967 1404.8 186.292C1405.04 186.615 1405.18 186.993 1405.22 187.424C1405.26 187.855 1405.19 188.246 1405.01 188.595C1404.83 188.952 1404.57 189.244 1404.24 189.471C1403.91 189.698 1403.56 189.831 1403.16 189.87L1399.63 190.226L1399.52 189.147ZM1399.12 185.121L1404.81 184.548L1404.92 185.627L1399.22 186.199L1399.12 185.121Z" fill="#212121"/>
<defs>
<radialGradient id="paint0_radial_988_46885" cx="0" cy="0" r="1" gradientUnits="userSpaceOnUse" gradientTransform="translate(31.5556 76.8148) rotate(59.144) scale(16.8799)">
<stop stop-color="#9EECE5" stop-opacity="0.48"/>
<stop offset="0.604593" stop-color="#9EECE5"/>
<stop offset="0.796202" stop-color="#72DFDD"/>
<stop offset="1" stop-color="#51BBF6"/>
</radialGradient>
<radialGradient id="paint1_radial_988_46885" cx="0" cy="0" r="1" gradientUnits="userSpaceOnUse" gradientTransform="translate(1339.97 172.994) rotate(59.144) scale(62.5902)">
<stop stop-color="#9EECE5" stop-opacity="0.48"/>
<stop offset="0.604593" stop-color="#9EECE5"/>
<stop offset="0.796202" stop-color="#72DFDD"/>
<stop offset="1" stop-color="#51BBF6"/>
</radialGradient>
</defs>
</svg>
