<svg width="1052" height="261" viewBox="0 0 1052 261" fill="none" xmlns="http://www.w3.org/2000/svg">
<mask id="path-1-inside-1_1105_2536" fill="white">
<path fill-rule="evenodd" clip-rule="evenodd" d="M80 0C35.8172 0 0 35.8172 0 80C0 124.183 35.8172 160 80 160H224C279.228 160 324 115.228 324 60V161C324 216.228 368.772 261 424 261H1022C1038.57 261 1052 247.569 1052 231V100C1052 44.7715 1007.23 0 952 0H324H80Z"/>
</mask>
<path fill-rule="evenodd" clip-rule="evenodd" d="M80 0C35.8172 0 0 35.8172 0 80C0 124.183 35.8172 160 80 160H224C279.228 160 324 115.228 324 60V161C324 216.228 368.772 261 424 261H1022C1038.57 261 1052 247.569 1052 231V100C1052 44.7715 1007.23 0 952 0H324H80Z" fill="#212439"/>
<path d="M1 80C1 36.3695 36.3695 1 80 1V-1C35.2649 -1 -1 35.2649 -1 80H1ZM80 159C36.3695 159 1 123.63 1 80H-1C-1 124.735 35.2649 161 80 161V159ZM224 159H80V161H224V159ZM323 60C323 114.676 278.676 159 224 159V161C279.781 161 325 115.781 325 60H323ZM325 161V60H323V161H325ZM424 260C369.324 260 325 215.676 325 161H323C323 216.781 368.219 262 424 262V260ZM1022 260H424V262H1022V260ZM1051 231C1051 247.016 1038.02 260 1022 260V262C1039.12 262 1053 248.121 1053 231H1051ZM1051 100V231H1053V100H1051ZM952 1C1006.68 1 1051 45.3238 1051 100H1053C1053 44.2192 1007.78 -1 952 -1V1ZM324 1H952V-1H324V1ZM80 1H324V-1H80V1Z" fill="white" mask="url(#path-1-inside-1_1105_2536)"/>
<path d="M218 260.5C216.067 260.5 214.5 258.933 214.5 257V175C214.5 173.067 216.067 171.5 218 171.5H284C294.77 171.5 303.5 180.23 303.5 191V257C303.5 258.933 301.933 260.5 300 260.5H218Z" fill="#C4FC50" stroke="#333F52"/>
<path d="M243.45 201.699L273.45 200.599L274.55 230.599L269.255 230.841L268.485 209.841L246.494 233.506L242.606 229.893L264.597 206.228L243.597 206.998L243.45 201.699Z" fill="#212121"/>
</svg>
