<svg xmlns="http://www.w3.org/2000/svg" width="335" height="328" fill="none"><mask id="a" fill="#fff"><path fill-rule="evenodd" d="M335 282.5c0 25.129-20.371 45.5-45.5 45.5S244 307.629 244 282.5V280c0-26.51 21.49-48 48-48H56.31C25.21 232 0 206.79 0 175.691V16.893C0 7.563 7.563 0 16.893 0H278.69C309.79 0 335 25.21 335 56.31V282.5Z" clip-rule="evenodd"/></mask><path fill="#212439" fill-rule="evenodd" d="M335 282.5c0 25.129-20.371 45.5-45.5 45.5S244 307.629 244 282.5V280c0-26.51 21.49-48 48-48H56.31C25.21 232 0 206.79 0 175.691V16.893C0 7.563 7.563 0 16.893 0H278.69C309.79 0 335 25.21 335 56.31V282.5Z" clip-rule="evenodd"/><path fill="#212121" d="M289.5 327.437c24.818 0 44.937-20.119 44.937-44.937h1.126c0 25.44-20.623 46.063-46.063 46.063v-1.126ZM244.563 282.5c0 24.818 20.119 44.937 44.937 44.937v1.126c-25.44 0-46.063-20.623-46.063-46.063h1.126Zm0-2.5v2.5h-1.126V280h1.126ZM292 232.563c-26.199 0-47.437 21.238-47.437 47.437h-1.126c0-26.821 21.742-48.563 48.563-48.563v1.126Zm-235.69-1.126H292v1.126H56.31v-1.126ZM.562 175.691c0 30.788 24.958 55.746 55.746 55.746v1.126c-31.41 0-56.872-25.462-56.872-56.872H.563Zm0-158.798V175.69H-.563V16.893H.563ZM16.893.563C7.874.563.563 7.874.563 16.893H-.563c0-9.64 7.815-17.456 17.456-17.456V.563Zm261.798 0H16.893V-.563H278.69V.563Zm55.746 55.746c0-30.788-24.958-55.746-55.746-55.746V-.563c31.41 0 56.872 25.462 56.872 56.872h-1.126Zm0 175.691V56.31h1.126V232h-1.126Zm0 50.5V232h1.126v50.5h-1.126Z" mask="url(#a)"/><path fill="#C4FC50" stroke="#333F52" stroke-width=".534" d="M185.267 287.865c0 1.032.836 1.868 1.868 1.868h42.73a1.868 1.868 0 0 0 1.868-1.868v-34.191c0-5.748-4.659-10.407-10.407-10.407h-34.191a1.868 1.868 0 0 0-1.868 1.868v42.73Z"/><path fill="#212121" d="m215.968 274.621.574-15.667-15.666-.574-.126 2.765 10.966.402-12.358 11.484 1.887 2.03 12.358-11.484-.402 10.967 2.767.077Z"/></svg>