<svg xmlns="http://www.w3.org/2000/svg" width="375" height="619" fill="none"><mask id="a" width="467" height="1012" x="-46" y="-102" maskUnits="userSpaceOnUse" style="mask-type:luminance"><path fill="#fff" d="M420.967 909V-102H-46V909h466.967Z"/></mask><g fill="#0F1B1B" fill-opacity=".07" mask="url(#a)"><path d="m329.514 526.555.872 12.999c.022.326-.068.631-.231.861-.16.233-.392.391-.66.418l-9.724.968.795 11.842c.022.326-.068.631-.231.861-.16.233-.392.392-.66.418l-9.742.97.796 11.865c.022.326-.069.631-.232.861a.919.919 0 0 1-.659.418l-9.724.968.795 11.842c.022.326-.068.631-.231.861-.16.233-.393.391-.661.418l-10.673 1.063c-.529.053-.994-.427-1.037-1.072-.043-.645.351-1.211.88-1.263l9.727-.969-.795-11.846a1.34 1.34 0 0 1 .23-.859c.159-.231.391-.389.658-.416l9.727-.968-.795-11.846a1.33 1.33 0 0 1 .239-.87c.16-.239.395-.402.667-.429l9.726-.969-.795-11.846a1.34 1.34 0 0 1 .23-.859.92.92 0 0 1 .659-.416l9.726-.968-.795-11.846c-.043-.645.351-1.21.88-1.263.53-.053.994.427 1.038 1.072ZM226.196 170.348l.873 12.999c.022.326-.069.631-.232.86-.159.233-.392.392-.66.419l-9.723.968.795 11.842c.022.326-.069.631-.232.861a.919.919 0 0 1-.66.418l-9.742.97.797 11.865c.022.326-.069.631-.232.86-.159.233-.392.392-.66.419l-9.723.968.795 11.842c.022.326-.069.631-.232.861a.919.919 0 0 1-.66.418l-10.673 1.063c-.53.053-.994-.428-1.037-1.072-.044-.645.35-1.211.88-1.264l9.727-.968-.796-11.846c-.022-.325.068-.63.23-.859.16-.232.392-.389.659-.416l9.727-.969-.796-11.845a1.33 1.33 0 0 1 .24-.87c.16-.239.394-.403.666-.43l9.727-.968-.796-11.846a1.35 1.35 0 0 1 .23-.859c.16-.232.392-.389.659-.416l9.727-.968-.796-11.846c-.043-.645.351-1.21.881-1.263.53-.053.994.427 1.037 1.072ZM73.373 260.303l8.164 8.439c.205.212.318.506.336.809.023.302-.05.614-.224.864l-6.313 9.058 7.438 7.688c.205.212.318.506.336.808.022.303-.05.615-.224.864l-6.325 9.076 7.452 7.704c.205.211.318.505.336.808.022.302-.05.614-.224.864l-6.313 9.058 7.438 7.688c.204.212.318.506.336.808.022.303-.05.615-.224.865l-6.93 9.942c-.344.494-.951.554-1.356.135-.405-.418-.455-1.157-.111-1.651l6.315-9.061-7.44-7.691a1.27 1.27 0 0 1-.336-.805 1.346 1.346 0 0 1 .224-.862l6.315-9.061-7.44-7.691a1.271 1.271 0 0 1-.336-.822 1.344 1.344 0 0 1 .222-.877l6.315-9.061-7.44-7.691a1.27 1.27 0 0 1-.336-.805 1.34 1.34 0 0 1 .224-.862l6.316-9.061-7.44-7.691c-.405-.419-.455-1.158-.111-1.651.344-.494.95-.554 1.356-.135Z"/></g><mask id="b" width="467" height="1012" x="-46" y="-102" maskUnits="userSpaceOnUse" style="mask-type:luminance"><path fill="#fff" d="M420.967 909V-102H-46V909h466.967Z"/></mask><g fill="#EAEAEA" fill-opacity=".25" mask="url(#b)"><path d="m396.523 439.811-50.638-61.668c-.388-.473-1.017-.473-1.405 0-.388.472-.388 1.238 0 1.711l50.638 61.668c.387.472 1.017.472 1.405 0 .388-.473.388-1.239 0-1.711Zm2.966-3.612-50.637-61.668c-.389-.473-1.018-.473-1.406 0-.388.472-.388 1.239 0 1.711l50.638 61.668c.388.472 1.017.472 1.405 0 .388-.473.388-1.239 0-1.711Zm2.966-3.613-50.637-61.668c-.388-.473-1.017-.473-1.405 0-.388.472-.388 1.239 0 1.711l50.637 61.668c.388.472 1.017.472 1.405 0 .388-.473.388-1.239 0-1.711Z"/><path d="m356.068 416.785 6.539-15.702-12.894-7.963 6.355 23.665Zm18.429-33.692-6.538 15.702 12.894 7.963-6.356-23.665Zm-28.54 3.36c.089-.036.178-.053.267-.072.031-.006.061-.019.092-.024.057-.009.114-.004.17-.006.067-.003.134-.01.201-.004.032.003.063.015.094.02.207.032.412.097.608.219l17.076 10.544 8.623-20.71c.179-.666.601-1.224 1.19-1.459.98-.39 2.035.261 2.355 1.455l9.169 34.141c.321 1.194-.214 2.478-1.194 2.868-.088.036-.178.053-.267.072-.031.006-.061.019-.092.024-.057.009-.113.004-.17.006-.067.003-.134.01-.201.004-.032-.004-.062-.015-.094-.02a1.613 1.613 0 0 1-.608-.219l-17.075-10.544-8.624 20.71c-.178.665-.601 1.224-1.189 1.459-.981.39-2.035-.261-2.356-1.455l-9.169-34.141c-.321-1.194.214-2.478 1.194-2.868ZM150.92 615.67l12.506 8.831 7.252-15.231-19.758 6.4Zm26.588 24.298-12.507-8.831-7.251 15.231 19.758-6.4Zm-1.153-34.89c.024.109.033.219.043.328.004.038.013.075.015.113.004.07-.003.139-.004.208-.002.081 0 .163-.009.244-.004.039-.015.075-.021.113a2.594 2.594 0 0 1-.213.727l-9.604 20.171 16.495 11.647c.536.255.971.8 1.13 1.529.265 1.214-.328 2.459-1.325 2.782l-28.505 9.233c-.996.323-2.019-.399-2.284-1.613-.024-.11-.033-.219-.044-.328-.003-.039-.013-.075-.015-.114-.003-.07.004-.138.005-.207.002-.082 0-.163.008-.245.005-.038.016-.075.022-.113a2.57 2.57 0 0 1 .213-.727l9.603-20.17-16.495-11.647c-.535-.255-.97-.8-1.129-1.529-.265-1.214.328-2.46 1.325-2.783l28.504-9.233c.997-.322 2.02.4 2.285 1.614Z"/><path d="m148.078 644.54 57.388-52.168c.439-.4.53-1.158.201-1.693-.328-.536-.95-.646-1.39-.246L146.89 642.6c-.44.4-.531 1.158-.202 1.694.328.535.95.645 1.39.246Zm2.509 4.093 57.388-52.168c.44-.399.53-1.157.202-1.693-.329-.535-.951-.645-1.391-.246l-57.387 52.168c-.44.4-.53 1.158-.202 1.694.328.535.951.645 1.39.245Zm2.51 4.095 57.387-52.168c.44-.4.53-1.158.202-1.694-.328-.535-.951-.645-1.39-.245l-57.388 52.167c-.44.4-.53 1.158-.202 1.694.328.535.951.645 1.391.246ZM10.502 347.617l12.507 8.831 7.25-15.231-19.757 6.4Zm26.588 24.298-12.507-8.831-7.251 15.231 19.758-6.4Zm-1.153-34.89c.024.109.033.219.043.328.004.038.013.075.015.113.004.07-.003.139-.004.208-.002.081 0 .163-.009.244-.004.039-.015.075-.02.113a2.591 2.591 0 0 1-.214.727l-9.604 20.171 16.495 11.647c.536.255.97.8 1.13 1.529.265 1.214-.328 2.46-1.325 2.782L13.94 384.12c-.996.323-2.02-.399-2.284-1.613-.024-.11-.033-.219-.044-.328-.003-.039-.013-.075-.014-.114-.004-.07.003-.138.004-.207.002-.082 0-.163.008-.245.005-.038.016-.074.022-.113a2.57 2.57 0 0 1 .213-.727l9.603-20.17-16.495-11.647c-.535-.255-.97-.8-1.129-1.529-.265-1.214.328-2.46 1.325-2.783l28.504-9.233c.997-.322 2.02.4 2.285 1.614Z"/><path d="m-13.63 343.472 63.752 39.724c.488.304 1.087.069 1.337-.526s.056-1.324-.432-1.628l-63.752-39.724c-.49-.305-1.088-.069-1.338.526s-.056 1.324.432 1.628Zm-1.911 4.548 63.752 39.724c.488.304 1.087.068 1.337-.526.25-.595.056-1.324-.432-1.629l-63.752-39.724c-.489-.304-1.087-.068-1.337.526-.25.595-.057 1.324.432 1.629Zm-1.911 4.548L46.3 392.292c.489.305 1.087.069 1.337-.526s.057-1.324-.432-1.628l-63.752-39.724c-.488-.304-1.087-.069-1.337.526s-.056 1.324.432 1.628ZM235.626-24.446l14.164 3.525 2.895-17.25-17.059 13.725Zm31.556 12.731-14.165-3.525-2.894 17.25 17.059-13.725Zm-10.211-32.63c.052.095.089.195.127.295.014.034.032.066.044.101.022.065.033.132.05.199.02.078.043.154.056.235.006.038.005.077.009.115.03.25.032.51-.012.772l-3.833 22.844 18.681 4.649c.574.034 1.129.383 1.47 1.012.568 1.048.332 2.458-.529 3.15l-24.61 19.8c-.861.693-2.019.405-2.588-.643-.051-.095-.088-.195-.127-.295-.013-.035-.031-.066-.043-.101-.022-.065-.033-.133-.05-.199-.02-.078-.043-.154-.056-.235-.006-.038-.005-.077-.009-.115-.03-.251-.032-.51.012-.772l3.833-22.844-18.681-4.65c-.574-.033-1.129-.381-1.47-1.01-.568-1.049-.332-2.46.529-3.152l24.61-19.8c.861-.692 2.019-.404 2.587.644Z"/></g><mask id="c" width="467" height="1012" x="-46" y="-102" maskUnits="userSpaceOnUse" style="mask-type:luminance"><path fill="#fff" d="M420.967 909V-102H-46V909h466.967Z"/></mask><g fill="#0F1B1B" fill-opacity=".07" mask="url(#c)"><path d="m273.355 289.091 6.211 36.323 27.137-16.893-6.211-36.323-27.137 16.893Zm33.974 19.458 20.438 27.272-6.181-36.147-20.438-27.273 6.181 36.148Zm-27.487 17.525 20.539 27.406 27.137-16.893-20.539-27.406-27.137 16.893Zm20.742-54.763.012-.006a.268.268 0 0 1 .047-.018l.003-.001.006-.001.027-.006.019-.026c.125-.137.317-.127.43.024l20.962 27.971c.007.009.011.019.017.028a.16.16 0 0 1 .013.022l.016.033a.496.496 0 0 1 .013.035l.007.026.008.033 6.34 37.074c.034.2-.071.396-.236.438-.01.003-.02.003-.029.004a.127.127 0 0 0-.011.013c-.005.005-.008.011-.012.016l-.007.006a.615.615 0 0 1-.026.024l-.025.019-.008.007-27.688 17.236c-.004.003-.009.004-.013.006-.119.073-.267.046-.361-.08l-20.961-27.971c-.004-.004-.006-.01-.009-.014l-.012-.018-.01-.018a.163.163 0 0 1-.011-.023l-.006-.011c-.002-.003-.002-.007-.003-.011a.155.155 0 0 1-.008-.023l-.006-.018-.007-.031-.003-.01-6.34-37.074a.403.403 0 0 1 .149-.396l.021-.016 27.688-17.236.014-.007Zm72.415 386.736 26.467-18.377-21.55-26.245-26.467 18.377 21.55 26.245Zm4.746-45.356 15.017-32.075-26.339 18.287-15.016 32.076 26.338-18.288Zm22.152 26.456 15.09-32.234-21.55-26.245-15.091 32.234 21.551 26.245Zm-49.169-7.179-.008-.012a.31.31 0 0 1-.029-.05l-.002-.002-.002-.007-.013-.03c-.009-.005-.018-.008-.026-.014-.146-.101-.197-.328-.114-.505l15.401-32.898.017-.028a.16.16 0 0 1 .013-.022c.007-.01.014-.02.022-.028l.022-.027.019-.015.023-.021 27.013-18.756c.146-.101.332-.039.415.138.005.011.008.023.012.034.005.002.009.006.014.009.005.002.011.004.015.008a.043.043 0 0 1 .007.006c.01.007.019.015.027.023l.023.023.008.007 21.988 26.778.008.013a.43.43 0 0 1 .049.442l-15.401 32.898-.009.015-.01.018-.011.018a.347.347 0 0 1-.015.02l-.006.01-.008.007-.015.017a.36.36 0 0 1-.034.03l-.008.006-27.013 18.756c-.118.082-.26.056-.355-.05l-.019-.019-21.988-26.777a.13.13 0 0 1-.01-.015ZM107.58-62.905l6.212 36.323 27.137-16.893-6.212-36.323-27.137 16.893Zm33.974 19.458 20.439 27.272-6.182-36.147-20.438-27.272 6.181 36.147Zm-27.486 17.525 20.539 27.407 27.137-16.894-20.539-27.406-27.137 16.893Zm20.741-54.763.012-.005a.256.256 0 0 1 .048-.019l.003-.001h.006c.009-.003.018-.006.027-.007l.019-.026c.124-.137.316-.127.43.024l20.961 27.971c.007.009.012.019.018.028l.013.022c.006.01.011.022.015.034a.38.38 0 0 1 .014.034l.006.026.009.033 6.34 37.074c.034.2-.072.396-.236.438-.01.003-.02.003-.03.004l-.011.013-.011.016-.007.006-.027.024a.226.226 0 0 1-.025.02l-.008.006-27.688 17.236-.012.006c-.119.073-.267.046-.361-.08l-20.962-27.97-.009-.015-.011-.018-.01-.017-.012-.024-.005-.01-.004-.012-.008-.023-.005-.018-.008-.03-.002-.011-6.34-37.074a.402.402 0 0 1 .148-.396l.021-.016 27.688-17.236.014-.007ZM30.985 461.448l-8.045 35.785h30.476l8.045-35.785H30.985Zm22.978 36.157 8.006 35.613 8.006-35.613-8.006-35.612-8.006 35.612Zm-31.024.369 8.045 35.788h30.477l-8.045-35.788H22.939Zm38.936-37.265.012.002a.271.271 0 0 1 .053.011l.005.002.027.01c.008-.004.017-.009.026-.012.162-.055.33.062.374.259l8.21 36.525c.004.011.004.023.006.034l.003.027.001.038v.039l-.004.027c-.002.011-.002.022-.005.034l-8.211 36.525c-.044.197-.212.313-.373.259-.01-.003-.02-.009-.028-.013l-.015.006-.016.007-.009.002-.032.007-.03.003-.01.001H30.764l-.013-.001c-.133-.001-.255-.107-.292-.271l-8.21-36.525-.003-.018a.083.083 0 0 1-.003-.022.302.302 0 0 1-.005-.049v-.024l.002-.025.002-.019.005-.031.001-.011 8.211-36.525c.036-.159.152-.264.28-.271.009 0 .017-.003.025-.003h31.095l.016.002Z"/></g><mask id="d" width="467" height="1012" x="-46" y="-102" maskUnits="userSpaceOnUse" style="mask-type:luminance"><path fill="#fff" d="M420.967 909V-102H-46V909h466.967Z"/></mask><g fill="#EAEAEA" fill-opacity=".25" mask="url(#d)"><path d="M374.715 321.602v-18.481c0-.668-.444-1.21-.993-1.21h-.627c-.549 0-.993.542-.993 1.21v18.481c0 .668.444 1.21.993 1.21h.627c.549 0 .993-.542.993-1.21Zm-1.306-22.955c.721 0 1.307-.713 1.307-1.592 0-.879-.586-1.591-1.307-1.591-.722 0-1.307.712-1.307 1.591s.585 1.592 1.307 1.592ZM11.004 238.904v-18.481c0-.668-.445-1.209-.993-1.209h-.627c-.55 0-.994.541-.994 1.209v18.481c0 .669.445 1.211.994 1.211h.627c.548 0 .993-.542.993-1.211Zm-4.937 12.027V232.45c0-.668-.445-1.21-.994-1.21h-.626c-.55 0-.994.542-.994 1.21v18.481c0 .668.445 1.21.994 1.21h.626c.55 0 .994-.542.994-1.21ZM1.13 262.072v-18.481c0-.668-.446-1.209-.995-1.209H-.49c-.55 0-.994.541-.994 1.209v18.481c0 .669.445 1.21.994 1.21h.626c.55 0 .994-.541.994-1.21Zm3.63-35.629c.722 0 1.307-.713 1.307-1.592 0-.879-.585-1.592-1.307-1.592s-1.307.713-1.307 1.592c0 .879.585 1.592 1.307 1.592Zm-4.938 12.674c.722 0 1.307-.713 1.307-1.592 0-.879-.585-1.591-1.307-1.591s-1.307.712-1.307 1.591.585 1.592 1.307 1.592Zm9.875 8.367c.722 0 1.307-.713 1.307-1.592 0-.879-.585-1.592-1.307-1.592s-1.307.713-1.307 1.592c0 .879.585 1.592 1.307 1.592ZM4.76 259.981c.722 0 1.307-.713 1.307-1.592 0-.879-.585-1.591-1.307-1.591s-1.307.712-1.307 1.591.585 1.592 1.307 1.592Z"/></g><mask id="e" width="467" height="1012" x="-46" y="-102" maskUnits="userSpaceOnUse" style="mask-type:luminance"><path fill="#fff" d="M420.967 909V-102H-46V909h466.967Z"/></mask><g mask="url(#e)"><path fill="#D9D9D9" fill-opacity=".25" d="m116.536 423.762 3.478-8.355-6.86-4.236 3.382 12.591Zm9.805-17.926-3.479 8.354 6.86 4.236-3.381-12.59Zm-15.185 1.787c.047-.019.095-.028.142-.038.017-.003.033-.01.049-.013.03-.004.06-.002.091-.003.035-.001.071-.005.107-.002.017.002.033.008.049.011.11.017.22.052.324.116l9.085 5.61 4.588-11.019c.095-.354.32-.651.633-.776.522-.207 1.083.139 1.253.774l4.879 18.165c.17.635-.114 1.318-.636 1.526-.047.019-.094.028-.142.038-.016.003-.032.01-.049.013-.03.004-.06.002-.09.003-.036.001-.071.005-.107.002-.017-.002-.033-.008-.05-.01a.853.853 0 0 1-.324-.117l-9.085-5.61-4.588 11.019c-.095.354-.32.651-.633.776-.521.208-1.082-.139-1.253-.774l-4.878-18.165c-.171-.635.114-1.318.635-1.526Zm75.046 48.204 8.643 20.591c.249.595.848.831 1.337.527.488-.304.682-1.033.432-1.628l-8.643-20.591c-.25-.595-.848-.831-1.337-.527-.488.304-.682 1.033-.432 1.628Zm-3.735 2.325 8.642 20.591c.25.595.849.831 1.337.527.489-.304.682-1.033.433-1.629l-8.643-20.59c-.25-.595-.849-.831-1.337-.527-.489.304-.682 1.033-.432 1.628Zm-3.736 2.326 8.643 20.591c.25.595.848.83 1.337.526.488-.304.682-1.033.432-1.628l-8.643-20.591c-.249-.595-.848-.83-1.336-.526-.489.304-.683 1.033-.433 1.628Zm-3.735 2.325 8.643 20.591c.25.595.848.83 1.337.526.489-.304.682-1.033.432-1.628l-8.642-20.591c-.25-.595-.849-.83-1.337-.526-.489.304-.682 1.033-.433 1.628Zm-3.735 2.325 8.643 20.591c.249.595.848.83 1.337.526.488-.304.682-1.033.432-1.628l-8.643-20.59c-.249-.596-.848-.831-1.337-.527-.488.304-.682 1.033-.432 1.628Zm-3.735 2.325 8.642 20.591c.25.595.849.831 1.337.527.489-.304.682-1.033.433-1.628l-8.643-20.591c-.25-.595-.848-.831-1.337-.527-.489.304-.682 1.033-.432 1.628Zm-3.735 2.326 8.643 20.591c.249.595.848.83 1.336.526.489-.304.682-1.033.433-1.628l-8.643-20.591c-.25-.595-.848-.831-1.337-.527-.488.305-.682 1.034-.432 1.629Zm-3.736 2.325 8.643 20.591c.249.595.848.831 1.337.527.488-.304.682-1.033.432-1.628l-8.643-20.591c-.25-.595-.848-.831-1.337-.527-.488.304-.682 1.033-.432 1.628Zm-3.735 2.325 8.643 20.591c.249.595.848.831 1.337.527.488-.304.682-1.033.432-1.628l-8.643-20.591c-.249-.595-.848-.831-1.337-.527-.488.304-.682 1.033-.432 1.628Zm-3.735 2.326 8.642 20.591c.25.595.849.83 1.337.526.489-.304.682-1.033.433-1.628l-8.643-20.591c-.25-.595-.848-.831-1.337-.526-.489.304-.682 1.033-.432 1.628Zm-3.736 2.325 8.643 20.591c.25.595.848.831 1.337.526.489-.304.682-1.033.432-1.628l-8.642-20.59c-.25-.595-.849-.831-1.337-.527-.489.304-.682 1.033-.433 1.628Zm102.582 14.194-8.432-8.716c-.418-.432-1.045-.37-1.4.14-.355.509-.304 1.273.114 1.705l8.432 8.716c.418.433 1.045.37 1.4-.139.355-.51.304-1.273-.114-1.706Zm3.294 9.401-8.431-8.716c-.419-.432-1.046-.37-1.401.14-.355.509-.303 1.273.115 1.705l8.431 8.716c.419.433 1.046.37 1.401-.139.355-.51.304-1.274-.115-1.706Zm2.873 8.966-8.431-8.716c-.419-.432-1.046-.37-1.401.14-.355.509-.303 1.273.115 1.705l8.431 8.716c.419.432 1.046.37 1.401-.139.355-.51.304-1.274-.115-1.706Zm-14.988-19.902c.355-.51.304-1.273-.114-1.706-.418-.432-1.045-.37-1.4.14-.356.509-.304 1.273.114 1.705.418.432 1.045.37 1.4-.139Zm3.603 9.719c.356-.509.304-1.273-.114-1.705-.418-.433-1.045-.37-1.4.139-.356.51-.304 1.273.114 1.706.418.432 1.045.37 1.4-.14Zm8.839-2.853c.356-.51.304-1.273-.114-1.706-.419-.432-1.046-.37-1.401.14-.355.509-.303 1.273.115 1.705.418.433 1.045.37 1.4-.139Zm3.519 9.633c.355-.51.304-1.273-.115-1.706-.418-.432-1.045-.37-1.4.14-.355.509-.304 1.273.114 1.705.419.433 1.046.37 1.401-.139ZM209.27 337.075l-15.124 1.506c-.547.054-.954.638-.91 1.304l.051.761c.045.666.525 1.162 1.072 1.108l15.124-1.507c.547-.054.954-.638.91-1.304l-.051-.761c-.045-.666-.525-1.162-1.072-1.107Zm10.245 5.013-15.125 1.506c-.547.054-.954.638-.909 1.304l.051.761c.045.666.524 1.162 1.071 1.108l15.125-1.507c.547-.054.954-.638.909-1.304l-.051-.761c-.045-.666-.524-1.162-1.071-1.107Zm9.52 5.084-15.124 1.507c-.547.054-.954.638-.91 1.304l.051.761c.045.666.525 1.162 1.072 1.107l15.124-1.506c.547-.054.954-.638.91-1.304l-.051-.761c-.045-.666-.525-1.162-1.072-1.108Zm-29.455-1.502c-.058-.877-.689-1.529-1.409-1.457-.719.072-1.255.84-1.196 1.716.059.876.69 1.528 1.409 1.457.72-.072 1.255-.84 1.196-1.716Zm10.776 4.96c-.059-.877-.69-1.529-1.409-1.457-.72.072-1.255.84-1.196 1.716.058.876.689 1.528 1.409 1.457.719-.072 1.255-.84 1.196-1.716Zm6.042-12.668c-.059-.877-.69-1.529-1.409-1.457-.72.072-1.255.84-1.196 1.716.058.876.689 1.528 1.409 1.457.719-.072 1.255-.84 1.196-1.716Zm10.63 4.974c-.059-.876-.689-1.528-1.409-1.456-.719.071-1.255.839-1.196 1.716.059.876.69 1.528 1.409 1.456.719-.071 1.255-.84 1.196-1.716Zm45.431 76.327c-2.36-2.276-5.789-1.79-7.658 1.085-1.869 2.875-1.471 7.05.89 9.326 2.361 2.277 5.79 1.791 7.659-1.084 1.869-2.875 1.47-7.051-.891-9.327Z"/><path stroke="#0F1B1B" stroke-miterlimit="10" stroke-opacity=".07" stroke-width="2.612" d="m174.221 354.984.736 1.213c1.592 2.622 1.137 6.319-1.016 8.257l-13.618 12.262c-2.153 1.938-5.189 1.384-6.781-1.238l-10.068-16.585c-1.592-2.622-1.137-6.319 1.016-8.258l.996-.896c1.445-1.301 1.75-3.781.682-5.541l-.736-1.213c-1.592-2.622-1.137-6.319 1.016-8.257l13.619-12.261c2.153-1.939 5.188-1.385 6.78 1.237l10.068 16.585c1.592 2.622 1.137 6.319-1.016 8.258l-.996.896c-1.445 1.301-1.75 3.782-.682 5.541Z"/><path fill="#D9D9D9" fill-opacity=".25" d="m163.742 362.036-7.353 6.621c-1.068.961-1.293 2.795-.504 4.095l5.436 8.955c.79 1.301 2.296 1.576 3.364.614l7.353-6.62c1.068-.962 1.293-2.796.504-4.096l-5.436-8.955c-.79-1.3-2.296-1.575-3.364-.614ZM43.182 601.542l-15.124 1.506c-.547.055-.954.639-.91 1.305l.051.761c.045.666.525 1.162 1.072 1.107l15.124-1.506c.547-.055.954-.639.91-1.305l-.051-.761c-.045-.666-.525-1.161-1.072-1.107Zm10.245 5.013-15.125 1.507c-.547.054-.954.638-.91 1.304l.051.761c.045.666.525 1.162 1.072 1.107l15.124-1.506c.547-.054.955-.638.91-1.304l-.051-.761c-.045-.666-.524-1.162-1.071-1.108Zm9.521 5.085-15.125 1.506c-.547.055-.954.639-.91 1.305l.052.761c.044.666.524 1.162 1.07 1.107l15.126-1.506c.547-.054.954-.638.909-1.305l-.051-.76c-.045-.667-.525-1.162-1.071-1.108Zm-29.456-1.503c-.059-.876-.69-1.528-1.41-1.456-.719.071-1.254.84-1.195 1.716.058.876.69 1.528 1.409 1.457.72-.072 1.255-.84 1.196-1.717Zm10.775 4.96c-.058-.876-.69-1.528-1.409-1.456-.72.071-1.255.84-1.196 1.716.059.876.69 1.528 1.41 1.456.719-.071 1.254-.839 1.195-1.716Zm6.043-12.667c-.06-.877-.69-1.529-1.41-1.457-.72.072-1.255.84-1.196 1.716.059.876.69 1.528 1.41 1.457.719-.072 1.254-.84 1.195-1.716Zm10.63 4.974c-.058-.876-.69-1.528-1.409-1.457-.72.072-1.255.84-1.196 1.716.059.877.69 1.529 1.41 1.457.719-.072 1.254-.84 1.195-1.716Z"/><path stroke="#0F1B1B" stroke-miterlimit="10" stroke-opacity=".07" stroke-width="1.306" d="m19.114 579.333.736 1.213c1.592 2.622 1.137 6.319-1.016 8.257L5.215 601.064c-2.153 1.939-5.189 1.385-6.78-1.237l-10.069-16.585c-1.591-2.622-1.136-6.319 1.017-8.258l.996-.896c1.444-1.301 1.75-3.782.682-5.541l-.737-1.213c-1.591-2.622-1.136-6.319 1.017-8.257l13.618-12.262c2.153-1.938 5.189-1.384 6.78 1.238l10.069 16.585c1.592 2.622 1.137 6.319-1.016 8.257l-.996.897c-1.445 1.301-1.75 3.781-.682 5.541ZM310.11 412.17l.737 1.213c1.591 2.622 1.136 6.319-1.017 8.257l-13.618 12.261c-2.153 1.939-5.189 1.385-6.781-1.237l-10.068-16.585c-1.592-2.622-1.137-6.319 1.016-8.258l.996-.896c1.445-1.301 1.75-3.782.682-5.541l-.736-1.213c-1.592-2.622-1.137-6.319 1.016-8.257l13.619-12.262c2.153-1.938 5.189-1.384 6.78 1.238l10.068 16.585c1.592 2.622 1.137 6.319-1.016 8.258l-.996.896c-1.444 1.301-1.75 3.781-.682 5.541Z"/><path fill="#D9D9D9" fill-opacity=".25" d="m254.785 110.491 3.479-8.354-6.86-4.237 3.381 12.591Zm9.805-17.925-3.478 8.354 6.86 4.236-3.382-12.59Zm-15.184 1.787c.047-.019.094-.028.142-.038.016-.003.032-.01.048-.013.031-.004.061-.002.091-.003.036-.001.071-.005.107-.002.017.002.033.008.05.01.11.018.219.053.323.117l9.085 5.61 4.588-11.019c.096-.354.32-.651.633-.776.522-.208 1.083.139 1.254.774l4.878 18.165c.171.635-.114 1.318-.635 1.526-.047.019-.095.028-.142.038-.017.003-.033.01-.049.013-.031.004-.061.002-.091.003-.036.001-.071.005-.107.002-.017-.002-.033-.008-.05-.01a.883.883 0 0 1-.323-.117l-9.085-5.61-4.588 11.018c-.095.355-.32.652-.633.777-.522.208-1.083-.139-1.253-.774l-4.879-18.165c-.17-.635.114-1.318.636-1.526Zm75.045 48.204 8.643 20.591c.25.595.848.83 1.337.526.489-.304.682-1.033.432-1.628l-8.642-20.591c-.25-.595-.849-.83-1.337-.526-.489.304-.682 1.033-.433 1.628Zm-3.734 2.325 8.642 20.591c.25.595.849.831 1.337.527.489-.304.682-1.034.433-1.629l-8.643-20.59c-.25-.595-.849-.831-1.337-.527-.489.304-.682 1.033-.432 1.628Zm-3.736 2.325 8.643 20.591c.25.595.848.831 1.337.527.488-.305.682-1.034.432-1.629l-8.643-20.59c-.249-.595-.848-.831-1.336-.527-.489.304-.683 1.033-.433 1.628Zm-3.735 2.326 8.643 20.591c.249.595.848.83 1.336.526.489-.304.683-1.033.433-1.628l-8.643-20.591c-.25-.595-.848-.831-1.337-.527-.488.305-.682 1.034-.432 1.629Zm-3.736 2.324 8.643 20.591c.25.595.849.831 1.337.527.489-.304.682-1.033.433-1.628l-8.643-20.591c-.25-.595-.849-.831-1.337-.527-.489.304-.682 1.033-.433 1.628Zm-3.735 2.326 8.643 20.591c.25.595.848.831 1.337.526.488-.304.682-1.033.432-1.628l-8.643-20.591c-.249-.595-.848-.83-1.337-.526-.488.304-.682 1.033-.432 1.628Zm-3.735 2.325 8.643 20.591c.249.595.848.831 1.336.527.489-.304.683-1.033.433-1.628l-8.643-20.591c-.25-.595-.848-.831-1.337-.527-.488.304-.682 1.033-.432 1.628Zm-3.736 2.326 8.643 20.591c.25.595.848.83 1.337.526.489-.304.682-1.033.432-1.628l-8.642-20.591c-.25-.595-.849-.831-1.337-.527-.489.305-.682 1.034-.433 1.629Zm-3.734 2.325 8.642 20.591c.25.595.849.831 1.337.526.489-.304.682-1.033.433-1.628l-8.643-20.59c-.25-.595-.849-.831-1.337-.527-.489.304-.682 1.033-.432 1.628Zm-3.736 2.325 8.643 20.591c.25.595.848.831 1.337.527.488-.304.682-1.033.432-1.628l-8.643-20.591c-.249-.595-.848-.831-1.336-.527-.489.304-.683 1.033-.433 1.628Zm-3.735 2.325 8.643 20.591c.249.595.848.831 1.337.527.488-.304.682-1.033.432-1.628l-8.643-20.591c-.25-.595-.848-.831-1.337-.527-.488.304-.682 1.033-.432 1.628ZM347.52 23.804l-15.125 1.506c-.547.055-.954.639-.909 1.305l.051.76c.045.667.524 1.163 1.071 1.108l15.125-1.506c.547-.055.954-.639.909-1.305l-.051-.76c-.045-.667-.524-1.162-1.071-1.108Zm10.244 5.013-15.124 1.506c-.547.055-.954.639-.91 1.305l.051.76c.045.667.525 1.163 1.072 1.108l15.124-1.506c.547-.055.954-.639.91-1.305l-.051-.76c-.045-.667-.525-1.163-1.072-1.108Zm9.521 5.085-15.124 1.506c-.547.055-.954.639-.91 1.305l.051.76c.045.667.525 1.163 1.072 1.108l15.124-1.506c.547-.055.954-.639.91-1.305l-.051-.76c-.045-.667-.525-1.163-1.072-1.108Zm-29.455-1.503c-.059-.876-.69-1.528-1.409-1.457-.72.072-1.255.84-1.196 1.716.058.876.689 1.529 1.409 1.457.719-.072 1.255-.84 1.196-1.716Zm10.775 4.961c-.058-.877-.689-1.53-1.409-1.457-.719.071-1.255.84-1.196 1.716.059.876.69 1.528 1.409 1.456.72-.071 1.255-.84 1.196-1.716Zm6.042-12.669c-.059-.876-.689-1.528-1.409-1.456-.719.071-1.255.84-1.196 1.716.059.876.69 1.528 1.409 1.456.72-.071 1.255-.84 1.196-1.716Zm10.631 4.975c-.059-.876-.69-1.529-1.409-1.457-.72.072-1.255.84-1.197 1.716.059.876.69 1.529 1.409 1.457.72-.072 1.255-.84 1.197-1.716Z"/><path stroke="#0F1B1B" stroke-miterlimit="10" stroke-opacity=".07" stroke-width="1.306" d="m379.8 506.969.163 1.107c.353 2.394-.919 6.024-2.84 8.108l-12.151 13.181c-1.921 2.084-3.765 1.833-4.117-.561l-2.232-15.142c-.352-2.393.919-6.023 2.84-8.107l.889-.964c1.289-1.398 2.142-3.834 1.905-5.44l-.163-1.107c-.353-2.394.919-6.024 2.84-8.108l12.151-13.181c1.922-2.084 3.765-1.833 4.118.561l2.231 15.141c.353 2.394-.919 6.024-2.84 8.108l-.889.964c-1.289 1.398-2.142 3.834-1.905 5.44Z"/><path fill="#D9D9D9" fill-opacity=".25" d="m301.992 48.766-7.353 6.62c-1.068.962-1.293 2.795-.504 4.096l5.437 8.955c.789 1.3 2.295 1.575 3.363.614l7.353-6.62c1.068-.962 1.293-2.796.504-4.096l-5.436-8.955c-.79-1.3-2.296-1.576-3.364-.614ZM1.281 99.066 4.76 90.71l-6.86-4.236 3.381 12.59Zm9.805-17.926-3.478 8.355 6.86 4.236-3.382-12.59Zm-15.184 1.787c.047-.018.094-.027.142-.037.016-.004.032-.01.049-.013.03-.005.06-.002.09-.003.036-.002.071-.006.107-.003.017.002.033.008.05.011.11.017.22.052.324.116l9.084 5.61 4.589-11.018c.095-.354.32-.652.633-.776.521-.208 1.082.138 1.253.773L17.1 95.752c.17.635-.114 1.319-.635 1.526-.047.02-.095.028-.142.038-.017.004-.033.01-.05.013-.03.005-.06.002-.09.003-.035.002-.07.006-.107.002-.017-.001-.033-.007-.05-.01a.859.859 0 0 1-.323-.116l-9.085-5.61-4.588 11.018c-.095.354-.32.652-.633.776-.522.208-1.083-.138-1.253-.774l-4.879-18.164c-.17-.635.114-1.319.636-1.526Zm75.046 48.204 8.642 20.591c.25.595.849.831 1.337.527.489-.304.682-1.033.432-1.628l-8.642-20.591c-.25-.595-.849-.831-1.337-.527-.489.304-.682 1.033-.432 1.628Zm-3.736 2.326 8.643 20.591c.25.595.848.83 1.337.526.488-.304.682-1.033.432-1.628l-8.643-20.591c-.25-.595-.848-.83-1.337-.526-.488.304-.682 1.033-.432 1.628Zm-3.735 2.325 8.643 20.591c.25.595.848.831 1.336.527.489-.305.682-1.034.433-1.629l-8.643-20.59c-.25-.595-.848-.831-1.337-.527-.489.304-.682 1.033-.432 1.628Zm-3.736 2.325 8.643 20.591c.25.595.849.831 1.337.527.489-.304.682-1.033.432-1.628l-8.642-20.591c-.25-.595-.849-.831-1.337-.527-.489.304-.682 1.033-.433 1.628Zm-3.734 2.325 8.642 20.591c.25.595.849.831 1.337.527.489-.304.682-1.033.433-1.628l-8.643-20.591c-.25-.595-.849-.831-1.337-.527-.489.304-.682 1.033-.432 1.628Zm-3.736 2.325 8.643 20.591c.25.595.848.831 1.337.527.489-.304.682-1.033.432-1.628l-8.642-20.591c-.25-.595-.849-.831-1.337-.527-.489.304-.682 1.033-.433 1.628Zm-3.735 2.326 8.643 20.591c.25.595.848.831 1.337.526.488-.304.682-1.033.432-1.628l-8.643-20.591c-.25-.595-.848-.83-1.337-.526-.488.304-.682 1.033-.432 1.628Zm-3.736 2.325 8.643 20.591c.25.595.849.831 1.337.526.489-.304.682-1.033.433-1.628l-8.643-20.591c-.25-.595-.849-.83-1.337-.526-.489.304-.682 1.033-.432 1.628Zm-3.735 2.326 8.643 20.59c.25.596.848.831 1.337.527.488-.304.682-1.033.432-1.628l-8.643-20.591c-.25-.595-.848-.831-1.337-.527-.488.304-.682 1.034-.432 1.629Zm-3.735 2.324 8.643 20.591c.25.595.848.831 1.337.527.488-.304.681-1.033.432-1.628l-8.643-20.591c-.25-.595-.848-.831-1.337-.527-.488.304-.682 1.033-.432 1.628Zm-3.735 2.326 8.643 20.591c.25.595.848.831 1.337.527.488-.304.682-1.033.432-1.628l-8.643-20.591c-.25-.595-.848-.831-1.337-.527-.488.304-.682 1.033-.432 1.628Zm102.581 14.194-8.431-8.716c-.418-.432-1.045-.369-1.401.14-.355.509-.303 1.273.115 1.706l8.432 8.715c.418.433 1.045.37 1.4-.139s.304-1.273-.115-1.706Zm3.294 9.401-8.431-8.716c-.418-.432-1.045-.369-1.401.14-.355.509-.303 1.273.115 1.705l8.432 8.716c.418.433 1.045.37 1.4-.139.355-.51.304-1.273-.115-1.706Zm2.874 8.966-8.432-8.716c-.418-.432-1.045-.37-1.4.14-.355.509-.304 1.273.114 1.705l8.432 8.716c.418.433 1.045.37 1.401-.139.355-.51.303-1.273-.115-1.706Zm-14.988-19.902c.355-.51.304-1.273-.115-1.706-.418-.432-1.045-.37-1.4.14-.355.509-.304 1.273.115 1.705.418.433 1.045.37 1.4-.139Zm3.603 9.72c.355-.509.303-1.273-.115-1.706-.418-.432-1.045-.369-1.4.14s-.304 1.273.114 1.705c.418.433 1.045.37 1.401-.139Zm8.839-2.854c.355-.509.304-1.273-.115-1.706-.418-.432-1.045-.369-1.4.14s-.304 1.273.114 1.705c.419.433 1.046.37 1.401-.139Zm3.518 9.633c.356-.51.304-1.273-.114-1.706-.418-.432-1.045-.37-1.4.14-.356.509-.304 1.273.114 1.705.418.433 1.045.37 1.4-.139Zm-49.3-171.163L78.89 13.885c-.547.054-.954.638-.91 1.304l.052.761c.045.666.524 1.162 1.071 1.108L94.23 15.55c.547-.054.954-.638.91-1.304l-.052-.761c-.045-.666-.524-1.162-1.071-1.107Zm10.245 5.013-15.125 1.506c-.547.054-.954.638-.91 1.304l.052.761c.044.666.524 1.162 1.07 1.108l15.126-1.507c.546-.054.954-.638.909-1.304l-.051-.761c-.045-.666-.524-1.162-1.071-1.107Zm9.52 5.085-15.125 1.506c-.547.054-.954.638-.909 1.304l.051.761c.045.666.525 1.162 1.071 1.108l15.125-1.507c.547-.054.954-.638.909-1.304l-.051-.761c-.044-.666-.524-1.162-1.071-1.107Zm-29.455-1.503c-.059-.877-.69-1.529-1.41-1.457-.719.072-1.254.84-1.195 1.716.058.876.69 1.528 1.409 1.457.72-.072 1.255-.84 1.196-1.716Zm10.774 4.96c-.058-.876-.689-1.528-1.408-1.457-.72.072-1.255.84-1.196 1.716.058.877.69 1.529 1.409 1.457.72-.072 1.255-.84 1.196-1.716Zm6.043-12.668c-.058-.876-.689-1.528-1.409-1.457-.72.072-1.255.84-1.196 1.716.059.876.69 1.528 1.41 1.457.719-.072 1.254-.84 1.195-1.716Zm10.631 4.974c-.059-.876-.69-1.528-1.409-1.456-.72.071-1.255.84-1.197 1.716.059.876.69 1.528 1.41 1.456.719-.071 1.255-.84 1.196-1.716Zm45.43 76.328c-2.36-2.276-5.789-1.79-7.658 1.084-1.869 2.875-1.471 7.051.89 9.327s5.79 1.791 7.659-1.084c1.869-2.875 1.47-7.051-.891-9.327Z"/><path stroke="#0F1B1B" stroke-miterlimit="10" stroke-opacity=".07" stroke-width="1.306" d="m58.967 30.288.736 1.213c1.592 2.622 1.137 6.319-1.016 8.257L45.068 52.02c-2.153 1.938-5.188 1.384-6.78-1.238L28.22 34.197c-1.592-2.622-1.137-6.32 1.016-8.257l.996-.897c1.444-1.3 1.75-3.781.682-5.54l-.737-1.213c-1.591-2.622-1.136-6.32 1.017-8.258L44.812-2.229c2.153-1.939 5.189-1.385 6.78 1.237l10.069 16.585c1.592 2.622 1.137 6.32-1.016 8.258l-.996.896c-1.445 1.301-1.75 3.782-.682 5.541Z"/><path fill="#D9D9D9" fill-opacity=".25" d="m48.488 37.34-7.353 6.62c-1.068.962-1.294 2.796-.504 4.097l5.436 8.954c.79 1.301 2.295 1.576 3.363.614l7.353-6.62c1.068-.961 1.294-2.795.504-4.096l-5.436-8.954c-.79-1.3-2.295-1.576-3.363-.614Zm333.819 440.001-7.353 6.62c-1.068.962-1.294 2.796-.504 4.096l5.436 8.955c.789 1.3 2.295 1.575 3.363.614l7.353-6.62c1.068-.962 1.294-2.796.504-4.096l-5.436-8.955c-.789-1.301-2.295-1.575-3.363-.614Z"/></g></svg>