<svg xmlns="http://www.w3.org/2000/svg" width="375" height="1061" fill="none"><g clip-path="url(#a)"><path fill="#F0F2F7" d="M0 0h375v1061H0z"/><path fill="#fff" d="M0 478h375v368H0z"/><circle cx="375.336" cy="134.268" r="32.143" fill="url(#b)"/><path fill="#212121" d="m415.939 135.932.822.067-.158 1.956c-.035.423.046.758.243 1.004.196.247.478.385.846.415.347.028.644-.063.892-.274.247-.203.387-.516.422-.939l.159-1.967.853.069-.162 1.998c-.037.458-.159.85-.367 1.175a1.874 1.874 0 0 1-.782.722 1.97 1.97 0 0 1-1.074.196 2.023 2.023 0 0 1-1.049-.368 1.87 1.87 0 0 1-.654-.839c-.139-.354-.19-.759-.153-1.217l.162-1.998Zm-3.089-.911 7.222.586-.08.979-7.222-.587.08-.978Zm-.338 4.163 3.449-2.36.247.952-3.797 2.646.101-1.238ZM411.695 143.066a2.22 2.22 0 0 1 .514-1.005c.256-.269.564-.454.924-.556.36-.101.75-.102 1.17-.004l2.805.658-.214.915-2.765-.649a1.722 1.722 0 0 0-.722-.03c-.212.051-.39.152-.533.304a1.252 1.252 0 0 0-.297.585c-.085.359-.039.666.137.922.183.257.474.433.874.527l2.765.648-.215.915-2.805-.658a2.301 2.301 0 0 1-1.046-.524 2.003 2.003 0 0 1-.581-.908c-.105-.347-.108-.727-.011-1.14ZM409.939 148.677a2.26 2.26 0 0 1 .597-.862 1.922 1.922 0 0 1 1.875-.344l1.383.561c.328.156.583.368.767.638.187.279.296.586.325.92.033.344-.019.687-.158 1.029-.17.419-.429.754-.778 1.003a2.427 2.427 0 0 1-1.187.454 2.745 2.745 0 0 1-1.337-.204 2.745 2.745 0 0 1-1.101-.785 2.426 2.426 0 0 1-.536-1.152 2.29 2.29 0 0 1 .15-1.258Zm.881.189c-.118.29-.153.572-.107.846.047.275.16.523.34.747.186.225.434.401.744.526.303.123.6.169.891.136a1.524 1.524 0 0 0 1.273-.971c.117-.29.153-.572.106-.846a1.428 1.428 0 0 0-.343-.737 1.91 1.91 0 0 0-.748-.517 1.969 1.969 0 0 0-.883-.155 1.514 1.514 0 0 0-.76.289 1.57 1.57 0 0 0-.513.682Zm.196-2.568 6.909 2.801-.353.87-3.435-1.392-1.046-.616-1.189-.29-1.239-.502.353-.871ZM407.643 153.558l5.397.712-.535.897-4.181-.631.171-.288 2.504 3.448-.535.897-3.11-4.55.289-.485Zm-1.023-2.262 1.826 2.79-1.092-.043-1.268-1.85.534-.897ZM402.188 160.758a2.543 2.543 0 0 1 1.159-.712 2.586 2.586 0 0 1 1.313-.029c.446.109.845.331 1.196.668.347.332.58.714.697 1.144.123.436.133.874.029 1.314a2.544 2.544 0 0 1-.661 1.189 2.524 2.524 0 0 1-1.151.704 2.485 2.485 0 0 1-1.314.044 2.53 2.53 0 0 1-1.181-.654 2.601 2.601 0 0 1-.719-1.166 2.56 2.56 0 0 1-.022-1.321c.104-.441.322-.834.654-1.181Zm.656.628a1.596 1.596 0 0 0-.419.755c-.063.277-.052.552.033.826.089.279.253.531.489.758.231.221.488.366.77.433.277.073.55.069.819-.01.27-.07.512-.218.729-.444.217-.227.356-.478.419-.755.068-.273.06-.546-.025-.82a1.738 1.738 0 0 0-.474-.742 1.813 1.813 0 0 0-.778-.456 1.568 1.568 0 0 0-.827.003 1.598 1.598 0 0 0-.736.452ZM396.962 165.497l1.761 2.295c.229.298.511.472.847.521.336.049.653-.041.951-.27a1.32 1.32 0 0 0 .429-.539c.087-.207.115-.421.085-.644a1.328 1.328 0 0 0-.274-.632l.44-.061c.228.298.365.614.411.948a1.8 1.8 0 0 1-.136.972 1.971 1.971 0 0 1-.644.824 1.766 1.766 0 0 1-.959.38 2.005 2.005 0 0 1-.998-.169 1.936 1.936 0 0 1-.783-.609l-1.875-2.444.745-.572Zm2.784-2.135 3.018 3.934-.745.572-3.019-3.934.746-.572ZM392.897 171.667l.332.755-1.796.791c-.388.172-.644.402-.767.692-.124.29-.111.604.038.942.14.318.362.536.665.654.296.12.639.095 1.027-.076l1.806-.796.345.783-1.834.809c-.421.185-.823.264-1.208.235a1.872 1.872 0 0 1-1.008-.343 1.975 1.975 0 0 1-.683-.851 2.016 2.016 0 0 1-.175-1.098c.042-.353.184-.678.426-.975.244-.29.577-.528.997-.713l1.835-.809Zm-.67-3.15 2.922 6.63-.898.396-2.922-6.631.898-.395Zm-3.822 1.684 3.717 1.91-.719.671-4.134-2.08 1.136-.501ZM384.469 171.353a2.344 2.344 0 0 1 1.277.02c.414.132.774.36 1.079.684.299.326.508.725.628 1.197.121.473.128.923.021 1.353a2.52 2.52 0 0 1-.61 1.114 2.307 2.307 0 0 1-1.119.641 2.059 2.059 0 0 1-1.03.014 1.865 1.865 0 0 1-1.386-1.295l-.369-1.447a1.916 1.916 0 0 1 .059-.995c.1-.313.275-.584.526-.813.245-.221.553-.378.924-.473Zm.068.899c-.452.115-.778.36-.977.734-.198.38-.235.81-.113 1.289.084.331.221.601.411.811.185.219.409.366.673.443.265.083.55.086.853.009.304-.078.556-.217.756-.419.193-.2.325-.442.397-.726a1.831 1.831 0 0 0-.022-.889 1.935 1.935 0 0 0-.411-.811 1.585 1.585 0 0 0-.704-.435 1.598 1.598 0 0 0-.863-.006Zm-1.64-.39.33 1.295.127 1.217.468 1.12.299 1.174-.921.234-1.224-4.806.921-.234ZM380.172 172.358l.648 4.917-.932.123-.648-4.917.932-.123Zm.311 5.962a.58.58 0 0 1 .447.11c.126.102.2.24.223.412a.573.573 0 0 1-.111.436.563.563 0 0 1-.402.232.56.56 0 0 1-.447-.12.562.562 0 0 1-.22-.392.615.615 0 0 1 .108-.457.58.58 0 0 1 .402-.221ZM377.56 172.657l.46 7.44-.938.058-.46-7.44.938-.058ZM373.302 172.651c.278.011.541.056.789.135.241.086.463.199.666.34.203.147.378.317.524.511l-.629.582a1.772 1.772 0 0 0-.606-.525 1.935 1.935 0 0 0-.787-.187c-.292-.012-.52.028-.684.119a.488.488 0 0 0-.256.419.486.486 0 0 0 .182.425c.121.109.281.199.48.269.199.078.412.152.64.223.219.079.428.174.626.286.198.112.359.261.484.447.118.186.172.428.16.727a1.338 1.338 0 0 1-.249.764 1.409 1.409 0 0 1-.625.487c-.268.108-.587.155-.956.141a2.439 2.439 0 0 1-1.025-.248 1.772 1.772 0 0 1-.727-.635l.628-.581c.132.186.301.332.506.437.198.105.425.163.682.173.272.01.482-.03.632-.122a.435.435 0 0 0 .224-.378.45.45 0 0 0-.173-.393 1.691 1.691 0 0 0-.482-.249c-.206-.07-.419-.145-.639-.223a2.973 2.973 0 0 1-.626-.285 1.376 1.376 0 0 1-.473-.468c-.125-.193-.182-.442-.17-.748.018-.466.199-.828.544-1.087.337-.258.784-.377 1.34-.356ZM365.432 174.978l-.216.796-1.894-.513c-.41-.111-.754-.093-1.032.055-.278.149-.466.401-.562.757-.091.336-.056.644.106.926.155.28.437.476.847.587l1.904.516-.224.826-1.934-.524c-.444-.12-.806-.312-1.088-.576a1.873 1.873 0 0 1-.568-.9c-.101-.345-.1-.709.004-1.092.108-.396.292-.718.554-.964.254-.248.569-.412.944-.49.373-.073.781-.048 1.224.072l1.935.524Zm1.459-2.871-1.895 6.993-.947-.256 1.895-6.994.947.257Zm-4.03-1.093 1.69 3.823-.982.069-1.908-4.217 1.2.325ZM359.144 169.463c.369.164.666.396.891.694.216.302.34.639.373 1.011.032.373-.04.756-.215 1.151l-1.172 2.632-.858-.382 1.154-2.594c.111-.248.166-.483.165-.704a1.044 1.044 0 0 0-.199-.58 1.249 1.249 0 0 0-.518-.402c-.337-.15-.648-.163-.932-.038-.287.131-.514.385-.681.76l-1.155 2.594-.858-.382 1.172-2.633c.175-.394.412-.704.71-.929a2.018 2.018 0 0 1 1.001-.4c.36-.038.734.029 1.122.202ZM354.012 166.723c.317.203.563.451.738.745a1.918 1.918 0 0 1-.007 1.906l-.806 1.257a1.877 1.877 0 0 1-.768.636c-.309.133-.63.183-.965.15a2.15 2.15 0 0 1-.982-.344 2.236 2.236 0 0 1-.842-.95 2.421 2.421 0 0 1-.228-1.25c.035-.441.184-.866.447-1.276a2.74 2.74 0 0 1 .974-.938 2.411 2.411 0 0 1 1.231-.315c.425.008.828.134 1.208.379Zm-.347.831a1.54 1.54 0 0 0-.813-.261 1.6 1.6 0 0 0-.795.197 1.832 1.832 0 0 0-.655.634 1.815 1.815 0 0 0-.298.851 1.533 1.533 0 0 0 .72 1.43c.264.169.535.256.813.26.274.011.537-.056.787-.202.25-.145.466-.358.646-.64.177-.275.282-.555.315-.839a1.522 1.522 0 0 0-.144-.8 1.571 1.571 0 0 0-.576-.63Zm2.488.666-4.025 6.274-.791-.507 2.001-3.12.798-.914.505-1.116.721-1.125.791.508ZM349.65 163.575l-1.681 5.178-.785-.688 1.381-3.997.251.22-3.845 1.836-.785-.689 5.04-2.231.424.371Zm2.41-.594-3.075 1.289.241-1.066 2.049-.912.785.689ZM343.56 156.887c.284.396.446.819.486 1.27.04.45-.031.883-.214 1.296a2.605 2.605 0 0 1-.878 1.053c-.39.279-.808.437-1.253.473a2.576 2.576 0 0 1-1.296-.214 2.536 2.536 0 0 1-1.046-.869c-.28-.39-.44-.811-.48-1.261a2.48 2.48 0 0 1 .199-1.299 2.52 2.52 0 0 1 .861-1.04 2.591 2.591 0 0 1 1.278-.492c.451-.041.885.034 1.303.222.414.184.76.47 1.04.861Zm-.738.529a1.594 1.594 0 0 0-.665-.552 1.57 1.57 0 0 0-.818-.12 1.822 1.822 0 0 0-.835.341 1.66 1.66 0 0 0-.568.677 1.49 1.49 0 0 0-.141.807c.019.278.12.544.302.798.182.255.404.439.665.552.255.117.525.159.809.126a1.73 1.73 0 0 0 .818-.329c.266-.19.463-.417.591-.68a1.57 1.57 0 0 0 .15-.814 1.59 1.59 0 0 0-.308-.806ZM339.877 150.916l-2.577 1.312c-.335.17-.557.416-.667.737-.11.322-.079.65.091.985.114.223.264.397.452.52s.394.19.618.201c.224.011.448-.041.671-.154l-.02.443a1.984 1.984 0 0 1-1.007.232 1.803 1.803 0 0 1-.931-.311 1.973 1.973 0 0 1-.692-.784 1.76 1.76 0 0 1-.199-1.012c.035-.346.151-.663.348-.951.191-.284.438-.504.742-.659l2.745-1.397.426.838Zm1.592 3.126-4.42 2.25-.426-.838 4.42-2.249.426.837ZM334.583 145.873l-.803.188-.448-1.911c-.097-.413-.277-.707-.539-.881-.263-.175-.574-.22-.933-.136-.338.08-.593.258-.765.534-.172.269-.21.61-.113 1.024l.45 1.921-.833.195-.458-1.951c-.105-.447-.108-.858-.01-1.231.092-.372.266-.681.523-.927.255-.253.576-.425.962-.515.4-.094.77-.084 1.111.029.34.106.633.305.88.597.241.294.414.665.519 1.112l.457 1.952Zm3.22-.08-7.054 1.655-.224-.956 7.054-1.655.224.956Zm-.953-4.066-2.561 3.303-.527-.831 2.804-3.682.284 1.21ZM336.421 137.565c.028.452-.058.869-.257 1.251a2.503 2.503 0 0 1-.874.932 2.733 2.733 0 0 1-1.293.394 2.747 2.747 0 0 1-1.333-.231 2.544 2.544 0 0 1-.981-.808 2.298 2.298 0 0 1-.42-1.219 2.052 2.052 0 0 1 .178-1.015c.134-.308.335-.561.601-.759.26-.197.57-.317.93-.361l1.49-.092c.356-.001.678.08.967.244.289.156.522.379.7.668.171.282.268.614.292.996Zm-.895-.101c-.029-.466-.209-.831-.539-1.097-.337-.265-.752-.382-1.245-.351a1.88 1.88 0 0 0-.874.252 1.364 1.364 0 0 0-.56.579 1.525 1.525 0 0 0-.168.837c.019.312.109.586.27.82.16.227.373.402.639.525.258.117.551.165.877.145a1.92 1.92 0 0 0 .874-.253c.241-.154.427-.358.558-.61.131-.252.187-.534.168-.847Zm.689-1.539-1.334.083-1.22-.103-1.187.252-1.209.074-.058-.948 4.949-.306.059.948ZM336.222 132.987l-4.95-.286.054-.938 4.951.286-.055.938Zm-5.913-.813a.583.583 0 0 1-.192.418.618.618 0 0 1-.447.141.564.564 0 0 1-.408-.191.564.564 0 0 1-.152-.437.559.559 0 0 1 .202-.417.563.563 0 0 1 .426-.143c.174.01.317.074.428.192a.58.58 0 0 1 .143.437ZM336.398 130.501l-7.398-.917.116-.932 7.398.917-.116.932ZM337.171 126.357a2.974 2.974 0 0 1-.277.751 2.904 2.904 0 0 1-.456.593 2.446 2.446 0 0 1-.598.421l-.457-.725c.257-.127.466-.294.627-.5a1.94 1.94 0 0 0 .328-.739c.065-.285.067-.517.008-.694a.488.488 0 0 0-.365-.329.489.489 0 0 0-.451.101c-.129.099-.247.24-.353.423a11 11 0 0 0-.336.588 3.967 3.967 0 0 1-.395.563 1.422 1.422 0 0 1-.529.394c-.204.083-.452.091-.744.024a1.343 1.343 0 0 1-.705-.384 1.412 1.412 0 0 1-.365-.704 2.307 2.307 0 0 1 .037-.966c.086-.38.23-.7.432-.961.197-.27.449-.47.757-.6l.456.725a1.38 1.38 0 0 0-.522.416c-.14.176-.238.389-.295.64-.06.265-.059.479.004.643a.434.434 0 0 0 .331.289.447.447 0 0 0 .418-.097c.116-.103.227-.245.332-.428.108-.19.22-.386.337-.588.11-.203.242-.391.395-.563.153-.172.335-.299.546-.38.213-.087.469-.097.767-.029.455.103.778.347.969.733.192.379.227.84.104 1.383ZM336.329 118.182l-.742-.36.858-1.766c.185-.381.231-.723.138-1.024-.094-.301-.307-.532-.639-.693a1.176 1.176 0 0 0-.93-.069c-.304.1-.548.341-.734.723l-.862 1.775-.77-.374.876-1.803c.201-.413.457-.734.769-.962.305-.23.635-.36.99-.389.357-.035.715.034 1.071.207.37.18.651.421.845.724.196.296.298.636.305 1.019.001.38-.098.776-.299 1.189l-.876 1.803Zm2.549 1.97-6.518-3.167.429-.882 6.517 3.166-.428.883Zm1.825-3.756-4.071.947.115-.977 4.499-1.088-.543 1.118ZM342.88 113.062a2.228 2.228 0 0 1-.845.749 2.013 2.013 0 0 1-1.063.181 2.315 2.315 0 0 1-1.091-.423l-2.373-1.635.533-.773 2.338 1.611c.224.154.445.251.662.291.216.03.418.001.607-.089.188-.09.352-.235.49-.436.209-.304.279-.607.208-.909-.076-.306-.284-.576-.622-.809l-2.338-1.611.533-.774 2.373 1.635c.355.245.616.535.783.869.166.335.236.688.209 1.058-.028.36-.163.715-.404 1.065ZM346.432 108.591a2.252 2.252 0 0 1-.867.59 1.92 1.92 0 0 1-1.873-.352l-1.09-1.021a1.87 1.87 0 0 1-.486-.871 1.919 1.919 0 0 1 .027-.975 2.16 2.16 0 0 1 .517-.904c.309-.33.672-.549 1.087-.656a2.421 2.421 0 0 1 1.27.003 2.74 2.74 0 0 1 1.174.671c.356.333.605.709.746 1.128.142.418.171.841.086 1.267-.085.417-.282.79-.591 1.12Zm-.755-.492c.214-.229.349-.479.404-.752a1.595 1.595 0 0 0-.049-.818 1.832 1.832 0 0 0-.505-.759 1.815 1.815 0 0 0-.783-.448 1.507 1.507 0 0 0-.819.005 1.513 1.513 0 0 0-.717.445 1.536 1.536 0 0 0-.404.751c-.06.268-.041.539.056.811.098.273.268.523.512.752.239.223.495.377.769.462.273.075.544.076.812.003.274-.078.515-.229.724-.452Zm-1.105 2.326-5.441-5.096.642-.686 2.705 2.534.755.95 1.006.698.975.914-.642.686ZM350.412 104.769l-4.78-2.607.822-.644 3.673 2.094-.263.206-1.094-4.118.821-.644 1.264 5.365-.443.348Zm.139 2.478-.7-3.259 1.004.433.518 2.182-.822.644ZM358.097 99.996a2.544 2.544 0 0 1-1.338.246 2.588 2.588 0 0 1-1.235-.449 2.597 2.597 0 0 1-.874-1.055 2.47 2.47 0 0 1-.236-1.318c.043-.45.192-.862.448-1.236a2.544 2.544 0 0 1 1.045-.869 2.526 2.526 0 0 1 1.329-.24c.453.033.867.178 1.24.433.373.256.661.602.865 1.037.206.441.289.89.249 1.347a2.55 2.55 0 0 1-.457 1.24 2.523 2.523 0 0 1-1.036.864Zm-.385-.822c.284-.133.505-.317.664-.553a1.58 1.58 0 0 0 .268-.782 1.81 1.81 0 0 0-.183-.883 1.66 1.66 0 0 0-.561-.683 1.495 1.495 0 0 0-.768-.286 1.538 1.538 0 0 0-.84.15 1.59 1.59 0 0 0-.663.553c-.162.23-.253.487-.273.773-.02.286.038.574.174.864.138.296.325.532.56.706.232.168.49.267.772.296.283.03.566-.023.85-.155ZM364.448 97.526l-.82-2.774c-.106-.36-.307-.624-.603-.79-.296-.167-.625-.197-.985-.09-.24.07-.438.187-.593.35a1.213 1.213 0 0 0-.311.57c-.051.218-.042.448.029.688l-.432-.1a1.983 1.983 0 0 1-.044-1.033c.077-.328.236-.614.476-.859a1.97 1.97 0 0 1 .897-.537c.36-.107.704-.11 1.031-.011.333.097.624.27.871.516.245.24.416.523.512.85l.873 2.953-.901.267Zm-3.364.994-1.406-4.756.901-.266 1.406 4.756-.901.266ZM370.725 93.177l-.035-.824 1.961-.083c.424-.018.747-.14.967-.365.22-.226.323-.523.307-.891a1.177 1.177 0 0 0-.381-.851c-.232-.22-.561-.321-.985-.303l-1.971.084-.037-.856 2.003-.085c.459-.02.863.054 1.211.22.348.16.619.389.813.687.201.298.31.645.326 1.041.018.41-.061.773-.236 1.087a1.868 1.868 0 0 1-.751.753c-.334.181-.73.282-1.189.301l-2.003.085Zm-.523 3.178-.308-7.239.981-.042.307 7.24-.98.041Zm4.172-.177-2.766-3.132.914-.363 3.093 3.442-1.241.053ZM378.481 96.512a2.34 2.34 0 0 1-1.182-.483 2.498 2.498 0 0 1-.756-1.03 2.744 2.744 0 0 1-.149-1.344c.06-.484.217-.906.473-1.267.262-.36.587-.632.974-.816a2.3 2.3 0 0 1 1.275-.189c.373.046.695.167.965.362a1.873 1.873 0 0 1 .819 1.711l-.183 1.481c-.065.35-.204.652-.418.906a1.845 1.845 0 0 1-.785.566 2.15 2.15 0 0 1-1.033.103Zm.264-.862c.463.058.855-.051 1.177-.327.323-.283.514-.67.575-1.16.042-.338.013-.64-.088-.905a1.358 1.358 0 0 0-.465-.657 1.538 1.538 0 0 0-.792-.32c-.311-.038-.596 0-.856.116a1.583 1.583 0 0 0-.634.531c-.162.233-.263.511-.303.836-.041.331-.012.633.088.905.107.266.272.486.496.661.224.175.491.282.802.32Zm1.386.961.164-1.326.325-1.18-.028-1.214.149-1.201.942.117-.61 4.921-.942-.117ZM382.919 97.132l1.188-4.815.912.225-1.188 4.815-.912-.225Zm1.881-5.666a.577.577 0 0 1-.375-.264.613.613 0 0 1-.057-.466.566.566 0 0 1 .262-.365.561.561 0 0 1 .458-.07.562.562 0 0 1 .373.275.569.569 0 0 1 .062.445.618.618 0 0 1-.267.386.58.58 0 0 1-.456.06ZM385.365 97.766l2.274-7.099.895.287-2.274 7.099-.895-.287ZM389.217 99.257a2.97 2.97 0 0 1-.687-.41 2.902 2.902 0 0 1-.499-.557 2.453 2.453 0 0 1-.303-.666l.796-.316c.077.276.203.512.376.708.176.19.398.343.666.459.269.116.496.16.681.135a.487.487 0 0 0 .391-.298.489.489 0 0 0-.017-.462 1.426 1.426 0 0 0-.351-.425 10.5 10.5 0 0 0-.516-.439 3.937 3.937 0 0 1-.481-.492 1.41 1.41 0 0 1-.29-.591c-.044-.216-.006-.461.113-.736.118-.275.287-.483.507-.623.223-.146.476-.223.759-.23.29-.003.604.068.942.215.358.154.647.355.867.6.228.244.378.528.45.855l-.796.316a1.391 1.391 0 0 0-.314-.59 1.565 1.565 0 0 0-.575-.408c-.249-.108-.46-.146-.633-.114a.437.437 0 0 0-.345.272.449.449 0 0 0 .02.429c.079.133.199.268.359.405.167.14.339.287.516.439.18.146.34.31.481.492.141.182.232.385.273.607.047.225.009.478-.112.759-.185.428-.485.7-.899.817-.408.12-.867.07-1.379-.151ZM397.461 99.947l.49-.663 1.579 1.166c.342.252.669.36.982.323.313-.037.579-.204.798-.501.207-.28.286-.58.238-.902-.043-.317-.235-.602-.577-.854l-1.587-1.172.509-.689 1.612 1.191c.37.273.638.584.805.932.171.343.238.69.202 1.045a1.98 1.98 0 0 1-.4 1.015 2.015 2.015 0 0 1-.866.698c-.327.139-.68.177-1.058.114-.373-.068-.745-.239-1.114-.512l-1.613-1.19Zm-2.402 2.146 4.305-5.829.789.584-4.305 5.828-.789-.583Zm3.359 2.481-.187-4.175.94.292.246 4.621-.999-.738ZM401.263 107.28a2.24 2.24 0 0 1-.583-.967 2.014 2.014 0 0 1 .015-1.078c.103-.359.308-.692.613-.997l2.037-2.037.665.664-2.008 2.008a1.71 1.71 0 0 0-.406.598 1.037 1.037 0 0 0-.022.613c.054.202.167.389.339.561.261.261.546.384.857.369.314-.02.617-.175.908-.465l2.008-2.008.664.664-2.038 2.038a2.32 2.32 0 0 1-.996.613 2.004 2.004 0 0 1-1.078.014c-.349-.093-.674-.29-.975-.59ZM405.175 111.78a2.261 2.261 0 0 1-.42-.961 1.918 1.918 0 0 1 .692-1.776l1.204-.882c.304-.198.62-.303.945-.318a1.93 1.93 0 0 1 .955.207c.31.152.574.377.792.675.267.365.416.761.444 1.189.033.433-.046.849-.237 1.248a2.74 2.74 0 0 1-.876 1.03 2.74 2.74 0 0 1-1.246.525 2.43 2.43 0 0 1-1.262-.149 2.288 2.288 0 0 1-.991-.788Zm.623-.651c.185.253.407.431.664.536.258.104.529.138.814.103.29-.04.569-.159.839-.357.264-.193.458-.422.584-.687.125-.264.174-.533.146-.806a1.52 1.52 0 0 0-.304-.787 1.536 1.536 0 0 0-.665-.535 1.432 1.432 0 0 0-.807-.095 1.918 1.918 0 0 0-.833.365 1.98 1.98 0 0 0-.596.67 1.52 1.52 0 0 0-.153.798c.026.283.13.548.311.795Zm-2.082-1.516 6.012-4.407.556.758-2.99 2.191-1.073.567-.872.859-1.078.79-.555-.758ZM408.103 116.243l3.435-4.224.484.926-2.729 3.23-.155-.296 4.248-.325.484.925-5.505.264-.262-.5Zm-2.462-.314 3.333-.094-.609.908-2.24.111-.484-.925ZM411.38 124.642a2.54 2.54 0 0 1 .004-1.36c.124-.435.347-.813.666-1.133a2.606 2.606 0 0 1 1.198-.665 2.453 2.453 0 0 1 1.339.009 2.543 2.543 0 0 1 1.796 1.854c.12.465.118.915-.007 1.349-.116.44-.334.82-.654 1.14-.319.32-.712.541-1.177.661a2.609 2.609 0 0 1-1.37-.001 2.569 2.569 0 0 1-1.135-.677c-.32-.32-.54-.713-.66-1.177Zm.879-.228c.079.303.219.554.422.754.202.199.442.334.72.406.284.071.584.065.901-.017.31-.08.568-.223.774-.427.208-.197.348-.432.422-.702.082-.266.084-.551.006-.854a1.59 1.59 0 0 0-.422-.753 1.496 1.496 0 0 0-.71-.41 1.724 1.724 0 0 0-.881.013 1.809 1.809 0 0 0-.797.421 1.587 1.587 0 0 0-.432.705c-.08.273-.081.561-.003.864ZM412.671 131.604l2.877-.29c.374-.037.67-.186.889-.446.219-.26.309-.577.272-.951a1.326 1.326 0 0 0-.233-.648 1.213 1.213 0 0 0-.503-.411 1.329 1.329 0 0 0-.682-.099l.18-.406c.374-.038.714.012 1.022.149.308.136.559.345.756.627.203.28.323.607.361.981.037.374-.023.712-.182 1.015-.157.31-.38.563-.668.76a1.938 1.938 0 0 1-.931.345l-3.064.309-.094-.935Zm-.351-3.491 4.934-.496.094.935-4.934.496-.094-.935Z"/></g><defs><radialGradient id="b" cx="0" cy="0" r="1" gradientTransform="rotate(59.144 76.9 376.945) scale(54.2571)" gradientUnits="userSpaceOnUse"><stop stop-color="#9EECE5" stop-opacity=".48"/><stop offset=".605" stop-color="#9EECE5"/><stop offset=".796" stop-color="#72DFDD"/><stop offset="1" stop-color="#51BBF6"/></radialGradient><clipPath id="a"><path fill="#fff" d="M0 0h375v1061H0z"/></clipPath></defs></svg>