<svg xmlns="http://www.w3.org/2000/svg" width="1440" height="895" fill="none"><path fill="#F0F2F7" d="M0 0h1440v895H0z"/><path fill="#fff" d="M723 196h717v639H723z"/><circle cx="36" cy="82" r="10" fill="url(#a)"/><circle cx="1356.45" cy="192.22" r="37.08" fill="url(#b)"/><path fill="#212121" d="m1403.29 194.14.95.077-.18 2.257c-.04.488.05.874.28 1.158.22.285.55.444.97.478.4.033.75-.072 1.03-.315.29-.235.45-.596.49-1.084l.18-2.269.99.08-.19 2.305c-.04.528-.18.98-.42 1.355a2.22 2.22 0 0 1-.91.833c-.36.188-.78.263-1.23.226-.48-.039-.88-.18-1.21-.425a2.146 2.146 0 0 1-.76-.967c-.16-.408-.22-.876-.18-1.404l.19-2.305Zm-3.56-1.051 8.33.677-.09 1.128-8.33-.676.09-1.129Zm-.39 4.802 3.98-2.722.28 1.099-4.38 3.052.12-1.429ZM1398.4 202.37c.1-.454.3-.84.59-1.16.29-.31.65-.523 1.06-.64.42-.118.87-.119 1.35-.006l3.24.76-.25 1.055-3.19-.748a1.97 1.97 0 0 0-.83-.035c-.24.058-.45.175-.61.351-.17.176-.28.4-.35.674-.09.414-.04.769.16 1.064.21.297.55.499 1.01.608l3.19.748-.25 1.055-3.24-.759c-.48-.114-.88-.315-1.2-.605a2.337 2.337 0 0 1-.67-1.048 2.433 2.433 0 0 1-.01-1.314ZM1396.37 208.843c.16-.402.39-.733.69-.994.3-.251.64-.413 1.01-.485.38-.073.76-.044 1.15.088l1.6.647c.38.179.67.424.88.735.22.322.34.676.38 1.062.04.397-.03.793-.19 1.187-.19.484-.49.869-.89 1.157-.41.294-.86.469-1.37.523a3.153 3.153 0 0 1-1.54-.235 3.058 3.058 0 0 1-1.27-.905 2.709 2.709 0 0 1-.62-1.329 2.61 2.61 0 0 1 .17-1.451Zm1.02.217c-.14.335-.18.661-.13.977.06.316.19.603.4.861.21.26.5.463.85.607.35.142.7.195 1.03.157.34-.037.63-.152.88-.344.26-.19.46-.449.59-.776.14-.335.18-.66.12-.977a1.654 1.654 0 0 0-.39-.849 2.234 2.234 0 0 0-.87-.597 2.275 2.275 0 0 0-1.02-.179c-.32.033-.61.144-.87.333-.26.197-.46.46-.59.787Zm.22-2.962 7.97 3.231-.41 1.004-3.96-1.606-1.2-.71-1.38-.335-1.42-.58.4-1.004ZM1393.72 214.473l6.23.821-.62 1.035-4.82-.728.19-.331 2.89 3.977-.61 1.035-3.59-5.25.33-.559Zm-1.18-2.609 2.11 3.218-1.26-.05-1.46-2.133.61-1.035ZM1387.43 222.779c.39-.406.83-.68 1.34-.822.5-.141 1-.152 1.51-.033.51.125.97.382 1.38.771.4.383.67.823.8 1.32.15.502.16 1.007.04 1.515a3.01 3.01 0 0 1-.76 1.371c-.39.401-.83.672-1.33.813a2.889 2.889 0 0 1-2.88-.704 2.981 2.981 0 0 1-.83-1.345 3.025 3.025 0 0 1-.03-1.524c.12-.508.38-.962.76-1.362Zm.76.724a1.83 1.83 0 0 0-.49.871c-.07.32-.06.638.04.954.1.321.29.612.56.873.27.256.57.422.89.5.32.084.64.08.95-.012.31-.08.59-.251.84-.512s.41-.551.48-.871a1.69 1.69 0 0 0-.03-.945c-.1-.316-.28-.601-.54-.857a2.173 2.173 0 0 0-.9-.525 1.839 1.839 0 0 0-.96.003c-.31.087-.59.26-.84.521ZM1381.4 228.246l2.03 2.647c.27.344.59.544.98.601.39.057.75-.047 1.1-.311.23-.176.39-.383.49-.622.1-.239.13-.486.1-.743a1.549 1.549 0 0 0-.32-.729l.51-.07c.26.344.42.708.47 1.093.06.385 0 .759-.15 1.122-.15.369-.4.686-.75.95-.34.264-.71.41-1.1.438-.4.034-.79-.031-1.15-.194a2.218 2.218 0 0 1-.91-.703l-2.16-2.819.86-.66Zm3.21-2.463 3.48 4.539-.86.659-3.48-4.539.86-.659ZM1376.71 235.364l.38.87-2.07.913c-.45.198-.74.464-.88.799-.15.334-.13.696.04 1.086.16.367.42.618.77.754.34.139.73.11 1.18-.088l2.09-.918.39.904-2.11.932c-.49.214-.95.305-1.4.272a2.176 2.176 0 0 1-1.16-.396c-.34-.236-.6-.563-.79-.982a2.385 2.385 0 0 1-.2-1.266c.05-.408.21-.783.49-1.125.29-.335.67-.609 1.15-.823l2.12-.932Zm-.77-3.635 3.37 7.649-1.04.457-3.37-7.649 1.04-.457Zm-4.41 1.943 4.29 2.204-.83.774-4.77-2.4 1.31-.578ZM1366.99 235.002c.5-.129 1-.122 1.47.022.48.152.89.415 1.25.789.34.377.58.837.72 1.382.14.544.15 1.064.03 1.559-.13.498-.37.926-.71 1.286-.35.362-.78.608-1.29.739a2.37 2.37 0 0 1-1.19.017 2.122 2.122 0 0 1-.99-.518 2.195 2.195 0 0 1-.61-.976l-.42-1.669c-.08-.403-.06-.786.07-1.149.11-.36.31-.673.6-.937.29-.255.64-.436 1.07-.545Zm.08 1.036c-.53.133-.9.415-1.13.847-.23.439-.27.935-.13 1.487.1.381.25.693.47.936.22.252.48.422.78.51.31.096.63.1.98.011.35-.09.64-.251.88-.483.22-.231.37-.51.45-.838.08-.318.07-.659-.02-1.025-.1-.374-.26-.685-.48-.936-.22-.24-.49-.407-.81-.501a1.815 1.815 0 0 0-.99-.008Zm-1.9-.45.38 1.494.15 1.405.54 1.291.35 1.354-1.07.271-1.41-5.544 1.06-.271ZM1362.03 236.161l.75 5.672-1.08.141-.74-5.671 1.07-.142Zm.36 6.877c.2-.026.37.016.52.127.14.118.23.277.25.476a.638.638 0 0 1-.13.503.64.64 0 0 1-.46.267.63.63 0 0 1-.51-.138.659.659 0 0 1-.26-.453.692.692 0 0 1 .13-.526c.11-.145.26-.23.46-.256ZM1359.02 236.505l.53 8.583-1.08.067-.53-8.583 1.08-.067ZM1354.11 236.499c.32.012.62.064.91.156.27.099.53.229.76.391.24.17.44.366.61.59l-.73.671a1.963 1.963 0 0 0-.7-.606 2.217 2.217 0 0 0-.9-.216c-.34-.013-.6.034-.79.139a.567.567 0 0 0-.3.483c-.01.208.06.372.21.49.14.126.33.229.56.31.23.09.47.175.73.258.26.09.5.2.73.329.22.129.41.301.55.516.14.214.2.494.19.839-.01.345-.11.638-.29.88a1.64 1.64 0 0 1-.72.563c-.31.125-.68.179-1.1.163-.45-.018-.85-.113-1.18-.287-.35-.166-.63-.41-.84-.732l.72-.671c.15.215.35.383.58.505.23.121.5.188.79.199.32.012.56-.035.73-.141a.497.497 0 0 0 .26-.436.512.512 0 0 0-.2-.453c-.14-.11-.33-.206-.56-.287-.23-.081-.48-.167-.73-.257-.26-.082-.5-.192-.73-.329a1.603 1.603 0 0 1-.54-.54c-.15-.222-.21-.51-.2-.863.02-.538.23-.956.63-1.254.39-.298.9-.435 1.55-.41ZM1345.03 239.183l-.25.918-2.19-.592c-.47-.128-.87-.107-1.19.064-.32.171-.53.462-.65.873-.1.387-.06.744.13 1.069.18.323.5.548.97.676l2.2.596-.26.953-2.23-.605c-.51-.139-.93-.36-1.25-.665a2.152 2.152 0 0 1-.66-1.038c-.12-.398-.11-.817.01-1.259.12-.457.33-.828.63-1.112.3-.287.66-.475 1.09-.566.43-.083.9-.056 1.42.083l2.23.605Zm1.68-3.312-2.19 8.067-1.09-.296 2.19-8.067 1.09.296Zm-4.65-1.26 1.95 4.409-1.13.08-2.2-4.864 1.38.375ZM1337.77 232.821c.43.189.77.456 1.03.8.25.349.39.738.43 1.167.04.43-.04.872-.25 1.327l-1.35 3.037-.99-.441 1.33-2.993c.13-.286.19-.557.19-.812a1.136 1.136 0 0 0-.23-.669 1.458 1.458 0 0 0-.59-.464c-.39-.173-.75-.187-1.08-.043-.33.151-.59.444-.78.876l-1.34 2.993-.99-.441 1.36-3.036c.2-.455.47-.813.82-1.072.34-.26.72-.414 1.15-.462.41-.044.85.034 1.29.233ZM1331.85 229.66c.37.234.65.52.85.86.2.342.29.704.29 1.087.01.383-.09.754-.29 1.111l-.93 1.45c-.25.339-.54.583-.89.734a2.23 2.23 0 0 1-1.11.173c-.4-.035-.78-.167-1.13-.397a2.6 2.6 0 0 1-.98-1.096c-.21-.452-.3-.933-.26-1.442a3.1 3.1 0 0 1 .52-1.472c.3-.473.67-.834 1.12-1.082.45-.249.92-.37 1.42-.363.49.009.95.155 1.39.437Zm-.4.959c-.3-.195-.61-.295-.93-.301a1.85 1.85 0 0 0-.92.227c-.3.163-.55.407-.76.731-.2.318-.32.645-.34.982-.03.337.03.646.18.929.13.289.35.529.65.72.3.195.62.295.94.301.31.012.62-.066.91-.233.28-.168.53-.414.74-.738.2-.318.33-.641.36-.969.03-.326-.02-.633-.16-.923a1.846 1.846 0 0 0-.67-.726Zm2.87.768-4.64 7.238-.91-.585 2.31-3.599.92-1.055.58-1.287.83-1.298.91.586ZM1326.82 226.029l-1.94 5.973-.9-.794 1.59-4.611.29.254-4.44 2.118-.9-.795 5.81-2.574.49.429Zm2.78-.686-3.55 1.487.28-1.23 2.37-1.051.9.794ZM1319.8 218.313c.32.457.51.945.56 1.465a3.07 3.07 0 0 1-.25 1.496 3.07 3.07 0 0 1-1.01 1.214c-.45.322-.93.505-1.45.546a2.944 2.944 0 0 1-1.49-.247 2.938 2.938 0 0 1-1.21-1.002c-.32-.451-.51-.936-.55-1.456a2.85 2.85 0 0 1 .23-1.498c.21-.477.54-.877.99-1.2.46-.327.95-.516 1.47-.567a2.987 2.987 0 0 1 2.71 1.249Zm-.86.61a1.832 1.832 0 0 0-.76-.636c-.3-.13-.62-.176-.95-.138-.33.042-.65.173-.96.393-.3.215-.52.475-.65.781-.15.298-.2.609-.17.931.02.32.14.627.35.921.21.293.47.505.77.636.29.135.6.183.93.145.33-.037.64-.164.95-.379.3-.22.53-.481.68-.785.14-.299.2-.611.17-.938a1.88 1.88 0 0 0-.36-.931ZM1315.55 211.425l-2.98 1.513c-.38.197-.64.481-.76.852-.13.37-.1.749.1 1.135.13.258.31.458.52.6.22.142.46.219.71.232.26.012.52-.047.78-.178l-.02.512c-.39.196-.78.285-1.17.267a2.095 2.095 0 0 1-1.07-.359c-.34-.217-.6-.518-.8-.905-.2-.386-.27-.775-.23-1.167.04-.399.18-.764.4-1.096.22-.328.51-.582.86-.76l3.17-1.612.49.966Zm1.83 3.607-5.09 2.595-.5-.966 5.1-2.595.49.966ZM1309.44 205.607l-.93.218-.51-2.205c-.11-.477-.32-.816-.62-1.017-.31-.201-.67-.253-1.08-.156-.39.092-.69.297-.88.616-.2.31-.25.704-.13 1.181l.52 2.216-.97.226-.52-2.252c-.12-.516-.13-.989-.02-1.42.11-.428.31-.785.61-1.069.29-.292.66-.49 1.11-.594.46-.108.89-.097 1.28.033.39.123.73.352 1.02.69.27.339.47.766.59 1.282l.53 2.251Zm3.72-.092-8.14 1.909-.26-1.102 8.14-1.909.26 1.102Zm-1.1-4.69-2.96 3.81-.61-.958 3.24-4.247.33 1.395ZM1311.56 196.024c.03.521-.07 1.002-.3 1.443-.23.441-.57.799-1 1.076-.44.268-.94.419-1.5.454a3.145 3.145 0 0 1-1.53-.267 2.87 2.87 0 0 1-1.13-.932c-.3-.408-.46-.877-.49-1.406-.03-.433.04-.823.21-1.171.15-.355.38-.647.69-.875.3-.228.66-.367 1.07-.417l1.72-.106c.41-.001.78.093 1.12.281.33.181.6.437.8.771.2.325.31.709.34 1.149Zm-1.03-.117c-.04-.537-.24-.958-.62-1.265-.39-.305-.87-.441-1.44-.406-.39.025-.73.122-1.01.292-.29.163-.5.385-.64.667-.16.283-.22.605-.2.966.02.36.13.676.31.946.19.262.43.464.74.606.3.134.64.19 1.01.167.39-.024.72-.121 1.01-.292.28-.178.49-.413.64-.703.16-.291.22-.617.2-.978Zm.79-1.775-1.54.096-1.4-.119-1.37.29-1.4.086-.06-1.093 5.71-.353.06 1.093ZM1311.33 190.743l-5.71-.331.06-1.082 5.71.331-.06 1.082Zm-6.82-.938c-.01.2-.09.361-.22.482a.729.729 0 0 1-.52.163.659.659 0 0 1-.47-.22.647.647 0 0 1-.17-.505c.01-.2.09-.361.23-.481.14-.121.3-.176.49-.165.2.012.37.086.5.222.12.136.17.304.16.504ZM1311.53 187.875l-8.53-1.058.13-1.075 8.54 1.057-.14 1.076ZM1312.43 183.095a3.89 3.89 0 0 1-.32.866 3.51 3.51 0 0 1-.53.684c-.21.199-.44.361-.69.485l-.53-.835c.3-.147.54-.34.73-.577.17-.24.3-.524.38-.853.07-.329.07-.596 0-.801a.54.54 0 0 0-.42-.379.568.568 0 0 0-.52.116 1.58 1.58 0 0 0-.4.489c-.13.209-.26.435-.39.677-.14.233-.29.45-.46.65-.17.201-.37.352-.61.455-.23.095-.52.104-.86.028-.33-.077-.6-.224-.81-.444a1.672 1.672 0 0 1-.42-.812c-.07-.327-.05-.699.04-1.114.1-.438.27-.808.5-1.109.23-.311.52-.542.87-.692l.53.836c-.24.11-.44.271-.6.481-.16.202-.28.448-.34.738-.07.305-.07.553 0 .742.07.18.2.291.38.333.19.043.35.005.49-.113.13-.118.26-.282.38-.493.12-.219.25-.445.39-.678.12-.235.28-.451.45-.65.18-.199.39-.345.63-.438.25-.1.54-.112.89-.034.52.119.9.401 1.12.846.22.437.26.969.12 1.596ZM1311.45 173.664l-.85-.416.99-2.036c.21-.441.27-.834.16-1.182-.11-.347-.36-.613-.74-.799a1.35 1.35 0 0 0-1.07-.08c-.35.116-.63.394-.85.834l-.99 2.048-.89-.432 1.01-2.08c.23-.477.53-.846.89-1.109a2.14 2.14 0 0 1 1.14-.449c.41-.041.82.039 1.23.239.43.207.75.485.98.835.22.342.34.734.35 1.175 0 .438-.11.896-.34 1.372l-1.02 2.08Zm2.94 2.272-7.51-3.652.49-1.019 7.52 3.653-.5 1.018Zm2.11-4.333-4.7 1.093.14-1.127 5.19-1.255-.63 1.289ZM1319.01 167.758c-.26.383-.59.671-.97.863-.39.182-.8.251-1.23.209-.43-.042-.85-.205-1.26-.487l-2.74-1.886.62-.893 2.7 1.859c.26.178.51.289.76.336.25.035.48 0 .7-.103.22-.104.41-.271.57-.503.24-.35.32-.7.24-1.048-.09-.354-.33-.665-.72-.933l-2.7-1.859.62-.893 2.73 1.886c.41.283.71.617.91 1.003.19.386.27.793.24 1.22-.03.416-.19.825-.47 1.229ZM1323.11 162.6c-.3.317-.63.543-1 .68-.37.126-.75.155-1.12.088a2.182 2.182 0 0 1-1.04-.494l-1.26-1.177a2.148 2.148 0 0 1-.53-2.13c.11-.385.31-.732.6-1.042.35-.381.77-.634 1.25-.757.49-.13.97-.129 1.47.003.49.132.94.389 1.35.774.41.384.7.818.86 1.301.17.483.2.97.1 1.462-.1.481-.32.911-.68 1.292Zm-.87-.568c.25-.264.4-.553.46-.867.07-.315.05-.629-.05-.944-.11-.321-.3-.612-.58-.876-.28-.258-.58-.43-.91-.516a1.705 1.705 0 0 0-.94.006c-.31.084-.59.255-.83.512-.25.264-.4.553-.47.868-.07.309-.04.621.07.935.11.314.31.603.59.867.28.258.57.436.89.533a1.728 1.728 0 0 0 1.77-.518Zm-1.28 2.683-6.27-5.878.74-.791 3.12 2.922.87 1.097 1.16.805 1.12 1.054-.74.791ZM1327.7 158.191l-5.51-3.007.94-.744 4.24 2.416-.3.238-1.26-4.75.94-.744 1.46 6.189-.51.402Zm.16 2.859-.81-3.761 1.16.5.6 2.517-.95.744ZM1336.57 152.685a2.955 2.955 0 0 1-2.97-.234 2.967 2.967 0 0 1-1.01-1.217 2.732 2.732 0 0 1-.27-1.521c.05-.52.22-.995.51-1.425.3-.431.7-.765 1.21-1.003a2.9 2.9 0 0 1 1.53-.278c.53.039 1 .206 1.43.501.43.295.77.694 1 1.196.24.509.33 1.027.29 1.553-.05.52-.23.997-.53 1.431-.29.43-.69.763-1.19.997Zm-.45-.949c.33-.153.58-.365.77-.637.18-.272.28-.573.31-.902.02-.338-.05-.677-.21-1.019a1.992 1.992 0 0 0-.65-.787 1.727 1.727 0 0 0-.89-.331 1.78 1.78 0 0 0-.97.174 1.85 1.85 0 0 0-.76.637c-.19.265-.29.562-.32.892-.02.33.05.662.2.997.16.341.38.613.65.814.27.194.57.308.89.341.33.034.65-.026.98-.179ZM1343.89 149.835l-.94-3.199c-.13-.416-.36-.72-.7-.912-.34-.192-.72-.227-1.14-.104-.27.082-.5.216-.68.403-.18.187-.3.407-.36.659-.06.252-.05.516.04.793l-.5-.116a2.21 2.21 0 0 1-.05-1.191c.09-.378.27-.708.54-.991a2.3 2.3 0 0 1 1.04-.619c.42-.123.81-.127 1.19-.013.38.112.72.311 1 .595.29.276.48.603.59.981l1.01 3.407-1.04.307Zm-3.88 1.147-1.62-5.486 1.04-.307 1.62 5.486-1.04.307ZM1351.13 144.819l-.04-.951 2.27-.096c.48-.021.86-.161 1.11-.421.25-.26.37-.603.35-1.028a1.344 1.344 0 0 0-.43-.982c-.27-.253-.65-.37-1.14-.349l-2.28.096-.04-.986 2.31-.098c.53-.023 1 .062 1.4.254a2.2 2.2 0 0 1 1.31 1.993c.02.473-.07.891-.27 1.253-.19.362-.48.652-.86.869-.39.209-.85.325-1.38.348l-2.31.098Zm-.6 3.666-.36-8.351 1.14-.048.35 8.351-1.13.048Zm4.81-.205-3.19-3.613 1.06-.419 3.56 3.972-1.43.06ZM1360.08 148.666c-.52-.065-.97-.25-1.36-.558a2.971 2.971 0 0 1-.88-1.188 3.196 3.196 0 0 1-.17-1.55c.07-.558.25-1.045.55-1.462.3-.416.68-.729 1.12-.941.46-.21.95-.283 1.47-.218.43.053.8.192 1.12.417.32.218.56.499.73.843.17.337.24.714.21 1.131l-.21 1.709c-.07.404-.24.752-.48 1.045-.24.294-.54.512-.91.652-.35.134-.75.174-1.19.12Zm.31-.994c.53.066.98-.06 1.35-.378.37-.326.6-.772.67-1.338.04-.39.01-.738-.1-1.044a1.611 1.611 0 0 0-.54-.758 1.787 1.787 0 0 0-.92-.368 1.814 1.814 0 0 0-.98.132c-.29.134-.54.338-.73.614-.19.268-.31.589-.35.963-.05.383-.02.731.1 1.045.12.306.31.56.57.762.26.202.57.325.93.37Zm1.59 1.108.19-1.53.38-1.361-.03-1.4.17-1.386 1.08.134-.7 5.678-1.09-.135ZM1365.2 149.381l1.37-5.555 1.05.26-1.37 5.554-1.05-.259Zm2.17-6.536a.665.665 0 0 1-.43-.305.71.71 0 0 1-.07-.537.685.685 0 0 1 .3-.422.655.655 0 0 1 .53-.08c.2.048.34.153.43.317.1.155.12.326.07.514a.7.7 0 0 1-.3.445.683.683 0 0 1-.53.068ZM1368.02 150.113l2.63-8.19 1.03.331-2.63 8.189-1.03-.33ZM1372.47 151.832c-.3-.128-.56-.285-.8-.474a3.33 3.33 0 0 1-.57-.642 2.579 2.579 0 0 1-.35-.768l.92-.364c.09.319.23.591.43.817.2.219.46.395.77.529s.57.185.78.155a.552.552 0 0 0 .45-.343.532.532 0 0 0-.02-.533 1.612 1.612 0 0 0-.4-.49c-.18-.166-.38-.335-.59-.506a4.479 4.479 0 0 1-.56-.568c-.17-.203-.28-.43-.34-.682-.05-.249 0-.532.14-.849.13-.317.33-.556.58-.718.26-.169.55-.257.88-.265.33-.004.69.078 1.08.247.42.178.75.409 1 .693.27.28.44.609.52.985l-.92.365a1.52 1.52 0 0 0-.36-.681 1.821 1.821 0 0 0-.66-.47c-.29-.124-.53-.168-.73-.132a.508.508 0 0 0-.4.314.51.51 0 0 0 .02.495c.09.153.23.309.42.468.19.161.39.33.59.506.21.168.39.357.56.567.16.211.27.444.31.7.06.26.01.552-.13.876-.21.494-.56.808-1.03.943-.47.138-1 .079-1.59-.175ZM1381.98 152.629l.56-.766 1.82 1.346c.4.291.77.415 1.13.372.37-.043.67-.235.93-.578.23-.323.33-.669.27-1.04-.05-.366-.27-.694-.66-.985l-1.84-1.353.59-.794 1.86 1.374c.43.315.74.673.93 1.075.2.395.27.797.23 1.205-.03.413-.19.803-.46 1.172-.28.381-.61.649-1 .804-.38.16-.78.204-1.22.132-.43-.079-.86-.276-1.28-.591l-1.86-1.373Zm-2.78 2.474 4.97-6.723.91.673-4.96 6.723-.92-.673Zm3.88 2.863-.22-4.816 1.09.336.28 5.331-1.15-.851ZM1386.36 161.087a2.561 2.561 0 0 1-.67-1.115c-.11-.415-.1-.829.02-1.244.12-.414.35-.797.7-1.149l2.35-2.351.77.767-2.32 2.316c-.22.221-.37.451-.46.69-.08.238-.09.474-.03.707.06.233.19.448.39.647.3.301.63.443.99.426.36-.023.71-.202 1.05-.537l2.31-2.316.77.766-2.35 2.351a2.69 2.69 0 0 1-1.15.707c-.41.119-.83.125-1.24.017-.41-.108-.78-.335-1.13-.682ZM1390.87 166.279c-.25-.35-.41-.72-.48-1.109-.06-.388-.01-.761.12-1.119.14-.358.36-.668.68-.929l1.39-1.019a2.15 2.15 0 0 1 1.09-.366c.38-.015.75.065 1.1.239.36.175.66.435.91.778.31.421.48.878.51 1.372.04.499-.05.979-.27 1.44-.22.46-.56.856-1.01 1.188-.45.332-.93.534-1.44.606-.5.071-.99.014-1.45-.173a2.624 2.624 0 0 1-1.15-.908Zm.72-.751c.22.291.47.497.77.618.3.12.61.16.94.118.33-.046.65-.183.97-.411.3-.223.52-.487.67-.792.14-.305.2-.615.17-.931a1.781 1.781 0 0 0-.35-.907c-.22-.291-.47-.497-.77-.618-.29-.125-.6-.161-.93-.109-.33.053-.65.193-.96.421-.31.223-.54.481-.69.773-.14.294-.2.601-.18.921.03.326.15.632.36.917Zm-2.4-1.749 6.94-5.084.64.874-3.45 2.528-1.24.654-1 .991-1.25.911-.64-.874ZM1394.25 171.427l3.96-4.872.56 1.067-3.15 3.726-.17-.341 4.9-.375.56 1.067-6.36.305-.3-.577Zm-2.84-.363 3.85-.108-.71 1.048-2.58.128-.56-1.068ZM1398.03 181.116a2.88 2.88 0 0 1 .01-1.569c.14-.502.4-.937.77-1.306.37-.372.83-.628 1.38-.769a2.833 2.833 0 0 1 1.54.011c.5.144.94.4 1.31.769.37.369.62.826.76 1.37.14.536.14 1.055 0 1.557a2.907 2.907 0 0 1-2.12 2.077c-.54.141-1.07.14-1.58-.002-.5-.144-.93-.404-1.31-.781a2.904 2.904 0 0 1-.76-1.357Zm1.02-.263c.09.35.25.64.48.869.24.23.51.387.83.47.33.081.68.074 1.04-.021.36-.092.66-.256.9-.492.24-.228.4-.498.48-.81.1-.307.1-.635.01-.985a1.789 1.789 0 0 0-.49-.869 1.7 1.7 0 0 0-.82-.472 1.97 1.97 0 0 0-1.01.014 2.08 2.08 0 0 0-.92.487c-.24.227-.41.499-.5.813a1.87 1.87 0 0 0 0 .996ZM1399.52 189.147l3.32-.334c.43-.043.77-.215 1.03-.515.25-.299.35-.665.31-1.096a1.541 1.541 0 0 0-.27-.748 1.371 1.371 0 0 0-.58-.474c-.24-.106-.5-.144-.79-.115l.21-.469c.43-.043.83.014 1.18.172a2 2 0 0 1 .87.724c.24.323.38.701.42 1.132.04.431-.03.822-.21 1.171-.18.357-.44.649-.77.876-.33.227-.68.36-1.08.399l-3.53.356-.11-1.079Zm-.4-4.026 5.69-.573.11 1.079-5.7.572-.1-1.078Z"/><defs><radialGradient id="a" cx="0" cy="0" r="1" gradientTransform="rotate(59.144 -51.908 66.213) scale(16.8799)" gradientUnits="userSpaceOnUse"><stop stop-color="#9EECE5" stop-opacity=".48"/><stop offset=".605" stop-color="#9EECE5"/><stop offset=".796" stop-color="#72DFDD"/><stop offset="1" stop-color="#51BBF6"/></radialGradient><radialGradient id="b" cx="0" cy="0" r="1" gradientTransform="rotate(59.144 517.55 1267.227) scale(62.5902)" gradientUnits="userSpaceOnUse"><stop stop-color="#9EECE5" stop-opacity=".48"/><stop offset=".605" stop-color="#9EECE5"/><stop offset=".796" stop-color="#72DFDD"/><stop offset="1" stop-color="#51BBF6"/></radialGradient></defs></svg>