<svg xmlns="http://www.w3.org/2000/svg" width="48" height="48" fill="none"><path fill="#4139BE" fill-rule="evenodd" d="M0 12.292c-.037 18.67 10.198 26.3 31.913 23.806 3.412-.403 3.412-.44.697 1.467-3.081 2.165-9.684 8.584-9.354 9.134.918 1.468 3.779.11 7.997-3.741 3.998-3.668 8.767-6.897 12.069-8.144 5.685-2.164 6.235-4.108 1.393-4.842-3.851-.587-6.382-1.76-12.472-5.905-4.952-3.375-6.052-3.669-8.4-2.458-3.19 1.65-1.394 3.851 7.373 9.023 2.825 1.651 2.532 1.835-3.484 1.835-16.617 0-24.43-11.152-21.056-29.933C7.226-.437.036-1.28 0 12.292Z" clip-rule="evenodd"/></svg>