<svg width="768" height="763" viewBox="0 0 768 763" fill="none" xmlns="http://www.w3.org/2000/svg">
<g clip-path="url(#clip0_990_5530)">
<rect width="770" height="763" fill="#F0F2F7"/>
<circle cx="20" cy="36" r="10" fill="url(#paint0_radial_990_5530)"/>
<rect x="372" y="160" width="398" height="427" fill="white"/>
<circle cx="770.453" cy="72.2203" r="37.0796" fill="url(#paint1_radial_990_5530)"/>
<path d="M817.292 74.1399L818.24 74.2169L818.057 76.4738C818.017 76.962 818.111 77.3482 818.337 77.6324C818.564 77.9167 818.89 78.076 819.314 78.1104C819.714 78.1429 820.057 78.0378 820.342 77.7952C820.627 77.5605 820.789 77.1991 820.829 76.7109L821.013 74.442L821.998 74.5219L821.81 76.8268C821.768 77.355 821.626 77.8067 821.386 78.182C821.154 78.5579 820.854 78.8356 820.485 79.0151C820.115 79.2026 819.702 79.2778 819.246 79.2408C818.774 79.2025 818.371 79.061 818.036 78.8163C817.701 78.5796 817.449 78.2571 817.281 77.8487C817.12 77.441 817.062 76.973 817.105 76.4448L817.292 74.1399ZM813.728 73.0894L822.059 73.7656L821.967 74.8941L813.636 74.2178L813.728 73.0894ZM813.338 77.8912L817.317 75.1691L817.602 76.2677L813.222 79.3197L813.338 77.8912Z" fill="#212121"/>
<path d="M812.395 82.3699C812.502 81.9165 812.7 81.5299 812.989 81.2102C813.284 80.9001 813.64 80.6866 814.055 80.5695C814.47 80.4525 814.92 80.4508 815.404 80.5645L818.641 81.3237L818.393 82.379L815.204 81.6308C814.899 81.5593 814.621 81.5477 814.371 81.5962C814.126 81.6543 813.921 81.7712 813.756 81.9469C813.591 82.1227 813.477 82.3473 813.413 82.6209C813.315 83.0352 813.368 83.3899 813.571 83.6849C813.782 83.9818 814.118 84.1843 814.579 84.2925L817.769 85.0408L817.521 86.0961L814.285 85.3368C813.8 85.2231 813.398 85.0216 813.078 84.7321C812.758 84.4427 812.535 84.0934 812.409 83.6843C812.288 83.2849 812.283 82.8467 812.395 82.3699Z" fill="#212121"/>
<path d="M810.37 88.8429C810.533 88.4411 810.762 88.1097 811.059 87.8486C811.36 87.5981 811.698 87.4364 812.074 87.3636C812.45 87.2908 812.833 87.3202 813.221 87.4517L814.817 88.0988C815.195 88.2781 815.49 88.5232 815.702 88.8343C815.918 89.1559 816.043 89.5099 816.077 89.8962C816.115 90.293 816.055 90.6886 815.895 91.083C815.699 91.5666 815.399 91.9522 814.997 92.2395C814.591 92.5343 814.135 92.7089 813.628 92.7632C813.121 92.8175 812.607 92.739 812.086 92.5278C811.565 92.3166 811.141 92.0149 810.815 91.6228C810.489 91.2306 810.283 90.7875 810.197 90.2936C810.116 89.8101 810.174 89.3266 810.37 88.8429ZM811.386 89.0601C811.251 89.395 811.21 89.7206 811.263 90.0369C811.317 90.3533 811.448 90.6402 811.655 90.8976C811.87 91.158 812.156 91.3607 812.513 91.5055C812.863 91.6473 813.206 91.6996 813.541 91.6624C813.877 91.6252 814.171 91.5103 814.422 91.3176C814.681 91.128 814.877 90.8695 815.009 90.5421C815.145 90.2072 815.186 89.8816 815.132 89.5653C815.086 89.2519 814.954 88.9688 814.736 88.7158C814.518 88.4627 814.231 88.2638 813.873 88.119C813.524 87.9772 813.184 87.9175 812.854 87.9398C812.529 87.9726 812.237 88.0838 811.978 88.2734C811.716 88.4705 811.519 88.7327 811.386 89.0601ZM811.613 86.0978L819.582 89.3289L819.175 90.3335L815.212 88.7269L814.006 88.0168L812.634 87.6816L811.205 87.1023L811.613 86.0978Z" fill="#212121"/>
<path d="M807.721 94.4734L813.947 95.2944L813.33 96.3292L808.507 95.6008L808.704 95.2697L811.592 99.2471L810.976 100.282L807.388 95.0322L807.721 94.4734ZM806.541 91.8642L808.648 95.0819L807.388 95.0322L805.925 92.8989L806.541 91.8642Z" fill="#212121"/>
<path d="M801.429 102.779C801.817 102.373 802.263 102.099 802.765 101.957C803.267 101.816 803.773 101.805 804.281 101.924C804.795 102.049 805.254 102.306 805.66 102.695C806.061 103.078 806.329 103.518 806.464 104.015C806.606 104.517 806.617 105.022 806.497 105.53C806.378 106.038 806.124 106.495 805.735 106.901C805.352 107.302 804.909 107.573 804.407 107.714C803.905 107.867 803.4 107.884 802.892 107.764C802.384 107.645 801.93 107.393 801.529 107.01C801.123 106.622 800.847 106.173 800.699 105.665C800.558 105.163 800.549 104.655 800.675 104.141C800.794 103.633 801.045 103.179 801.429 102.779ZM802.185 103.503C801.936 103.764 801.774 104.055 801.702 104.374C801.629 104.694 801.642 105.012 801.74 105.328C801.843 105.649 802.031 105.94 802.304 106.201C802.571 106.457 802.867 106.623 803.192 106.701C803.512 106.785 803.827 106.781 804.138 106.689C804.448 106.609 804.728 106.438 804.978 106.177C805.228 105.916 805.389 105.626 805.462 105.306C805.54 104.992 805.53 104.677 805.433 104.361C805.335 104.045 805.153 103.76 804.886 103.504C804.613 103.243 804.314 103.068 803.988 102.979C803.669 102.895 803.351 102.896 803.034 102.982C802.718 103.069 802.435 103.242 802.185 103.503Z" fill="#212121"/>
<path d="M795.4 108.246L797.431 110.893C797.695 111.237 798.021 111.437 798.409 111.494C798.796 111.551 799.162 111.447 799.506 111.183C799.735 111.007 799.9 110.8 800 110.561C800.101 110.322 800.133 110.075 800.098 109.818C800.063 109.562 799.958 109.319 799.782 109.089L800.289 109.019C800.553 109.363 800.712 109.727 800.764 110.112C800.816 110.497 800.764 110.871 800.608 111.234C800.456 111.603 800.208 111.92 799.864 112.184C799.52 112.448 799.151 112.594 798.758 112.622C798.359 112.656 797.975 112.591 797.607 112.428C797.244 112.271 796.943 112.037 796.703 111.725L794.54 108.906L795.4 108.246ZM798.611 105.783L802.094 110.322L801.234 110.981L797.751 106.442L798.611 105.783Z" fill="#212121"/>
<path d="M790.71 115.364L791.094 116.234L789.022 117.147C788.574 117.345 788.279 117.611 788.136 117.946C787.994 118.28 788.009 118.642 788.181 119.032C788.343 119.399 788.598 119.65 788.948 119.786C789.29 119.925 789.685 119.896 790.133 119.698L792.216 118.78L792.614 119.684L790.498 120.616C790.013 120.83 789.548 120.921 789.104 120.888C788.663 120.863 788.276 120.731 787.943 120.492C787.602 120.256 787.339 119.929 787.154 119.51C786.963 119.077 786.896 118.655 786.952 118.244C787 117.836 787.164 117.461 787.443 117.119C787.726 116.784 788.109 116.51 788.594 116.296L790.71 115.364ZM789.938 111.729L793.308 119.378L792.272 119.835L788.902 112.186L789.938 111.729ZM785.529 113.672L789.817 115.876L788.987 116.65L784.218 114.25L785.529 113.672Z" fill="#212121"/>
<path d="M780.989 115.002C781.494 114.873 781.985 114.88 782.461 115.024C782.939 115.176 783.354 115.439 783.706 115.813C784.05 116.19 784.292 116.65 784.431 117.195C784.57 117.739 784.578 118.259 784.455 118.754C784.325 119.252 784.09 119.68 783.751 120.04C783.404 120.402 782.974 120.648 782.46 120.779C782.04 120.886 781.644 120.892 781.272 120.796C780.893 120.71 780.564 120.537 780.282 120.278C780.002 120.026 779.799 119.7 779.673 119.302L779.248 117.633C779.17 117.23 779.193 116.847 779.316 116.484C779.431 116.124 779.633 115.811 779.922 115.547C780.205 115.292 780.561 115.111 780.989 115.002ZM781.066 116.038C780.545 116.171 780.169 116.453 779.94 116.885C779.712 117.324 779.668 117.82 779.809 118.372C779.906 118.753 780.064 119.065 780.283 119.308C780.497 119.56 780.756 119.73 781.06 119.818C781.366 119.914 781.694 119.918 782.044 119.829C782.394 119.739 782.685 119.578 782.916 119.346C783.138 119.115 783.291 118.836 783.373 118.508C783.45 118.19 783.441 117.849 783.348 117.483C783.253 117.109 783.095 116.798 782.874 116.547C782.647 116.307 782.376 116.14 782.062 116.046C781.748 115.952 781.416 115.949 781.066 116.038ZM779.174 115.588L779.555 117.082L779.701 118.487L780.242 119.778L780.587 121.132L779.525 121.403L778.112 115.859L779.174 115.588Z" fill="#212121"/>
<path d="M776.031 116.161L776.778 121.833L775.704 121.974L774.956 116.303L776.031 116.161ZM776.391 123.038C776.59 123.012 776.761 123.054 776.905 123.165C777.051 123.283 777.136 123.442 777.162 123.641C777.188 123.832 777.145 124 777.034 124.144C776.925 124.296 776.771 124.385 776.571 124.411C776.372 124.437 776.2 124.391 776.055 124.273C775.911 124.162 775.826 124.011 775.801 123.82C775.775 123.621 775.817 123.446 775.926 123.294C776.037 123.149 776.192 123.064 776.391 123.038Z" fill="#212121"/>
<path d="M773.018 116.505L773.548 125.088L772.466 125.155L771.936 116.572L773.018 116.505Z" fill="#212121"/>
<path d="M768.106 116.499C768.427 116.511 768.731 116.563 769.016 116.655C769.294 116.754 769.55 116.884 769.785 117.046C770.019 117.216 770.221 117.412 770.389 117.636L769.664 118.307C769.465 118.042 769.232 117.84 768.964 117.701C768.696 117.57 768.393 117.499 768.056 117.485C767.719 117.472 767.456 117.519 767.268 117.624C767.078 117.737 766.98 117.898 766.972 118.107C766.964 118.315 767.034 118.479 767.182 118.597C767.322 118.723 767.506 118.826 767.736 118.907C767.966 118.997 768.212 119.082 768.474 119.165C768.727 119.255 768.968 119.365 769.196 119.494C769.424 119.623 769.61 119.795 769.755 120.01C769.891 120.224 769.953 120.504 769.939 120.849C769.926 121.194 769.83 121.487 769.652 121.729C769.474 121.98 769.233 122.167 768.931 122.292C768.621 122.417 768.254 122.471 767.828 122.455C767.379 122.437 766.985 122.342 766.646 122.168C766.299 122.002 766.019 121.758 765.807 121.436L766.532 120.765C766.684 120.98 766.878 121.148 767.115 121.27C767.343 121.391 767.606 121.458 767.902 121.469C768.215 121.481 768.458 121.434 768.631 121.328C768.796 121.23 768.882 121.085 768.889 120.892C768.896 120.7 768.83 120.549 768.69 120.439C768.549 120.329 768.364 120.233 768.134 120.152C767.896 120.071 767.65 119.985 767.397 119.895C767.143 119.813 766.902 119.703 766.674 119.566C766.447 119.428 766.265 119.248 766.129 119.026C765.985 118.804 765.919 118.516 765.933 118.163C765.954 117.625 766.163 117.207 766.56 116.909C766.949 116.611 767.465 116.474 768.106 116.499Z" fill="#212121"/>
<path d="M759.027 119.183L758.778 120.101L756.593 119.509C756.12 119.381 755.723 119.402 755.403 119.573C755.082 119.744 754.866 120.035 754.754 120.446C754.649 120.833 754.69 121.19 754.877 121.515C755.055 121.838 755.381 122.063 755.854 122.191L758.051 122.787L757.792 123.74L755.56 123.135C755.049 122.996 754.631 122.775 754.306 122.47C753.978 122.174 753.76 121.828 753.651 121.432C753.534 121.034 753.536 120.615 753.655 120.173C753.779 119.716 753.992 119.345 754.294 119.061C754.588 118.774 754.951 118.586 755.383 118.495C755.813 118.412 756.284 118.439 756.795 118.578L759.027 119.183ZM760.711 115.871L758.525 123.938L757.432 123.642L759.618 115.575L760.711 115.871ZM756.061 114.611L758.011 119.02L756.879 119.1L754.678 114.236L756.061 114.611Z" fill="#212121"/>
<path d="M751.774 112.821C752.199 113.01 752.542 113.277 752.802 113.621C753.051 113.97 753.194 114.359 753.231 114.788C753.269 115.218 753.186 115.66 752.984 116.115L751.632 119.152L750.641 118.711L751.974 115.718C752.101 115.432 752.164 115.161 752.164 114.906C752.152 114.655 752.076 114.432 751.934 114.237C751.792 114.042 751.593 113.888 751.336 113.773C750.948 113.6 750.589 113.586 750.262 113.73C749.93 113.881 749.669 114.174 749.476 114.606L748.144 117.599L747.153 117.158L748.505 114.122C748.708 113.667 748.981 113.309 749.325 113.05C749.669 112.79 750.054 112.636 750.48 112.588C750.895 112.544 751.326 112.622 751.774 112.821Z" fill="#212121"/>
<path d="M745.854 109.66C746.219 109.894 746.502 110.18 746.704 110.52C746.895 110.862 746.992 111.224 746.994 111.607C746.997 111.99 746.897 112.361 746.697 112.718L745.767 114.168C745.521 114.507 745.226 114.751 744.881 114.902C744.525 115.055 744.154 115.113 743.768 115.075C743.371 115.04 742.993 114.908 742.635 114.678C742.196 114.396 741.872 114.031 741.664 113.582C741.448 113.13 741.361 112.649 741.401 112.14C741.441 111.632 741.613 111.141 741.916 110.668C742.22 110.195 742.594 109.834 743.04 109.586C743.485 109.337 743.959 109.216 744.46 109.223C744.95 109.232 745.415 109.378 745.854 109.66ZM745.453 110.619C745.149 110.424 744.837 110.324 744.516 110.318C744.195 110.313 743.889 110.388 743.598 110.545C743.302 110.708 743.05 110.952 742.842 111.276C742.639 111.594 742.524 111.921 742.499 112.258C742.474 112.595 742.533 112.904 742.676 113.187C742.814 113.476 743.032 113.716 743.33 113.907C743.634 114.102 743.946 114.202 744.267 114.208C744.584 114.22 744.886 114.142 745.175 113.975C745.464 113.807 745.712 113.561 745.921 113.237C746.124 112.919 746.246 112.596 746.284 112.268C746.312 111.942 746.256 111.635 746.118 111.345C745.972 111.052 745.751 110.81 745.453 110.619ZM748.323 111.387L743.68 118.625L742.768 118.04L745.077 114.441L745.997 113.386L746.579 112.099L747.411 110.801L748.323 111.387Z" fill="#212121"/>
<path d="M740.821 106.029L738.883 112.002L737.977 111.208L739.57 106.597L739.86 106.851L735.424 108.969L734.518 108.174L740.332 105.6L740.821 106.029ZM743.601 105.343L740.054 106.83L740.332 105.6L742.696 104.549L743.601 105.343Z" fill="#212121"/>
<path d="M733.796 98.3131C734.123 98.7701 734.31 99.2584 734.357 99.7783C734.403 100.298 734.321 100.797 734.11 101.274C733.892 101.756 733.554 102.16 733.097 102.488C732.647 102.81 732.165 102.993 731.652 103.034C731.132 103.081 730.634 102.998 730.156 102.787C729.679 102.576 729.277 102.242 728.949 101.785C728.627 101.334 728.442 100.849 728.396 100.329C728.338 99.8078 728.415 99.3083 728.626 98.8311C728.838 98.3538 729.168 97.9539 729.619 97.6313C730.076 97.304 730.567 97.1148 731.094 97.0637C731.614 97.0172 732.114 97.1029 732.596 97.3207C733.074 97.5319 733.474 97.8627 733.796 98.3131ZM732.944 98.9233C732.734 98.6296 732.478 98.4176 732.178 98.2873C731.877 98.157 731.562 98.1108 731.234 98.1485C730.899 98.191 730.578 98.3221 730.271 98.5419C729.971 98.7569 729.752 99.0172 729.615 99.3226C729.474 99.6215 729.42 99.9319 729.453 100.254C729.475 100.574 729.591 100.881 729.801 101.175C730.012 101.468 730.267 101.68 730.568 101.811C730.862 101.946 731.174 101.994 731.502 101.956C731.831 101.919 732.145 101.792 732.445 101.577C732.752 101.357 732.979 101.096 733.127 100.792C733.269 100.493 733.326 100.181 733.3 99.8539C733.273 99.5272 733.155 99.217 732.944 98.9233Z" fill="#212121"/>
<path d="M729.548 91.425L726.575 92.9384C726.188 93.135 725.932 93.4188 725.805 93.7895C725.679 94.1603 725.714 94.5389 725.91 94.9253C726.042 95.1829 726.215 95.3828 726.432 95.5249C726.648 95.6669 726.886 95.7442 727.144 95.7568C727.403 95.7693 727.661 95.71 727.919 95.5788L727.896 96.0907C727.509 96.2874 727.122 96.3764 726.734 96.3576C726.346 96.3388 725.988 96.2193 725.66 95.999C725.324 95.7824 725.058 95.4808 724.861 95.0944C724.665 94.708 724.588 94.3189 724.632 93.9272C724.672 93.5283 724.806 93.1629 725.034 92.8309C725.254 92.5026 725.539 92.2491 725.89 92.0707L729.056 90.459L729.548 91.425ZM731.384 95.0315L726.285 97.6266L725.794 96.6606L730.892 94.0655L731.384 95.0315Z" fill="#212121"/>
<path d="M723.441 85.6074L722.515 85.8247L721.997 83.6203C721.886 83.1435 721.678 82.8045 721.375 82.6034C721.073 82.4023 720.714 82.3503 720.3 82.4475C719.909 82.5392 719.615 82.7443 719.417 83.0628C719.218 83.3734 719.174 83.7672 719.286 84.244L719.806 86.4602L718.844 86.6858L718.316 84.4344C718.195 83.9185 718.191 83.4452 718.305 83.0145C718.41 82.5856 718.611 82.2291 718.908 81.9452C719.202 81.6535 719.572 81.4553 720.018 81.3508C720.479 81.2426 720.906 81.2537 721.3 81.384C721.691 81.5066 722.03 81.7365 722.315 82.0736C722.592 82.4127 722.792 82.8401 722.913 83.3561L723.441 85.6074ZM727.155 85.5154L719.018 87.4245L718.759 86.3223L726.897 84.4131L727.155 85.5154ZM726.055 80.8251L723.102 84.6355L722.493 83.6772L725.728 79.4297L726.055 80.8251Z" fill="#212121"/>
<path d="M725.561 76.0244C725.593 76.5453 725.494 77.0261 725.264 77.4666C725.026 77.9077 724.69 78.2664 724.256 78.5425C723.822 78.8107 723.325 78.9621 722.764 78.9968C722.203 79.0315 721.691 78.9425 721.227 78.7298C720.763 78.5091 720.386 78.1986 720.095 77.7982C719.805 77.3898 719.643 76.9211 719.61 76.3922C719.584 75.9594 719.652 75.569 719.816 75.2211C719.971 74.8656 720.202 74.5737 720.51 74.3455C720.809 74.1179 721.167 73.9791 721.582 73.9293L723.301 73.8231C723.711 73.8218 724.083 73.9155 724.416 74.1041C724.749 74.2846 725.019 74.5415 725.224 74.8747C725.421 75.2004 725.534 75.5836 725.561 76.0244ZM724.528 75.9072C724.495 75.3703 724.288 74.9487 723.907 74.6424C723.518 74.3366 723.039 74.2013 722.47 74.2365C722.077 74.2607 721.741 74.3579 721.462 74.528C721.174 74.6906 720.959 74.9131 720.815 75.1955C720.664 75.4783 720.599 75.8001 720.622 76.1607C720.644 76.5214 720.748 76.8367 720.934 77.1068C721.119 77.3689 721.365 77.5709 721.671 77.7129C721.969 77.8473 722.306 77.9029 722.683 77.8796C723.068 77.8558 723.403 77.7586 723.691 77.588C723.969 77.4099 724.184 77.1754 724.335 76.8845C724.486 76.5936 724.55 76.2679 724.528 75.9072ZM725.323 74.1325L723.784 74.2276L722.377 74.1094L721.008 74.3992L719.613 74.4854L719.546 73.3915L725.256 73.0386L725.323 74.1325Z" fill="#212121"/>
<path d="M725.332 70.7433L719.62 70.4123L719.683 69.3302L725.394 69.6611L725.332 70.7433ZM718.509 69.8051C718.498 70.0055 718.424 70.1661 718.289 70.2869C718.145 70.4073 717.973 70.4617 717.772 70.45C717.58 70.4389 717.423 70.3655 717.303 70.2298C717.174 70.0937 717.115 69.9254 717.127 69.725C717.138 69.5246 717.216 69.3642 717.36 69.2438C717.495 69.123 717.659 69.0682 717.852 69.0793C718.052 69.0909 718.217 69.1648 718.346 69.301C718.466 69.4367 718.521 69.6047 718.509 69.8051Z" fill="#212121"/>
<path d="M725.534 67.8751L717 66.8173L717.133 65.7416L725.667 66.7994L725.534 67.8751Z" fill="#212121"/>
<path d="M726.426 63.0947C726.355 63.408 726.248 63.6967 726.106 63.9608C725.958 64.2154 725.783 64.4433 725.581 64.6445C725.371 64.8439 725.141 65.0058 724.89 65.1302L724.363 64.2946C724.66 64.1477 724.901 63.9554 725.087 63.7175C725.265 63.4779 725.391 63.1936 725.465 62.8647C725.54 62.5359 725.543 62.2689 725.474 62.064C725.397 61.8573 725.257 61.7308 725.054 61.6847C724.85 61.6386 724.676 61.6775 724.533 61.8014C724.384 61.9158 724.248 62.0785 724.126 62.2896C723.996 62.499 723.867 62.7249 723.738 62.9673C723.603 63.2002 723.451 63.4168 723.282 63.6173C723.113 63.8178 722.91 63.9693 722.673 64.072C722.437 64.1668 722.151 64.1761 721.814 64.0998C721.477 64.0235 721.206 63.8756 721.001 63.6562C720.787 63.4349 720.647 63.1644 720.58 62.8445C720.514 62.5167 720.528 62.1454 720.622 61.7303C720.721 61.2918 720.888 60.9219 721.121 60.6207C721.347 60.3098 721.638 60.0794 721.993 59.9293L722.52 60.7649C722.281 60.8754 722.08 61.0357 721.917 61.2458C721.756 61.4481 721.643 61.6941 721.577 61.9838C721.508 62.2892 721.51 62.5365 721.582 62.7258C721.648 62.9055 721.776 63.0167 721.963 63.0592C722.151 63.1018 722.312 63.0642 722.446 62.9463C722.58 62.8284 722.708 62.6639 722.829 62.4528C722.953 62.2338 723.083 62.0079 723.218 61.7751C723.345 61.5404 723.497 61.3238 723.674 61.1251C723.85 60.9264 724.06 60.7805 724.304 60.6874C724.549 60.5866 724.844 60.5752 725.188 60.6532C725.713 60.7721 726.086 61.0541 726.306 61.4992C726.528 61.9364 726.568 62.4683 726.426 63.0947Z" fill="#212121"/>
<path d="M725.455 53.6643L724.599 53.2485L725.588 51.2119C725.802 50.7713 725.855 50.3775 725.747 50.0304C725.639 49.6833 725.394 49.4168 725.011 49.2308C724.65 49.0553 724.292 49.0289 723.938 49.1514C723.587 49.2667 723.305 49.5447 723.091 49.9852L722.096 52.0327L721.208 51.6011L722.219 49.5211C722.45 49.0445 722.746 48.6748 723.106 48.4122C723.458 48.146 723.839 47.9962 724.248 47.9629C724.66 47.9222 725.072 48.0019 725.484 48.202C725.91 48.409 726.235 48.6872 726.458 49.0366C726.684 49.3787 726.802 49.7706 726.81 50.2122C726.812 50.6503 726.697 51.1077 726.465 51.5844L725.455 53.6643ZM728.395 55.9363L720.876 52.2836L721.371 51.2652L728.889 54.918L728.395 55.9363ZM730.5 51.6031L725.804 52.6961L725.937 51.5688L731.126 50.3139L730.5 51.6031Z" fill="#212121"/>
<path d="M733.012 47.7577C732.748 48.1412 732.423 48.4291 732.037 48.6214C731.648 48.8025 731.24 48.872 730.811 48.8298C730.381 48.7876 729.962 48.6253 729.552 48.3428L726.815 46.4568L727.43 45.5642L730.127 47.4229C730.385 47.6006 730.639 47.7125 730.89 47.7586C731.139 47.7936 731.373 47.7593 731.59 47.6558C731.808 47.5522 731.996 47.3847 732.156 47.1533C732.397 46.8028 732.477 46.4533 732.396 46.1046C732.308 45.7513 732.068 45.4403 731.678 45.1716L728.981 43.3129L729.596 42.4203L732.333 44.3063C732.743 44.5887 733.044 44.923 733.236 45.309C733.429 45.695 733.509 46.1016 733.478 46.5287C733.445 46.9447 733.29 47.3544 733.012 47.7577Z" fill="#212121"/>
<path d="M737.109 42.6001C736.813 42.9165 736.48 43.1433 736.109 43.2804C735.738 43.4062 735.364 43.4354 734.987 43.3682C734.61 43.301 734.264 43.1363 733.949 42.8739L732.691 41.6965C732.403 41.3935 732.216 41.0588 732.13 40.6924C732.044 40.3146 732.055 39.9393 732.162 39.5666C732.268 39.1825 732.467 38.8351 732.758 38.5246C733.115 38.1436 733.533 37.8914 734.012 37.7678C734.496 37.6383 734.984 37.6394 735.477 37.771C735.97 37.9025 736.422 38.1604 736.832 38.5447C737.242 38.9289 737.529 39.3626 737.692 39.8458C737.856 40.329 737.889 40.8164 737.791 41.3082C737.693 41.7885 737.466 42.2192 737.109 42.6001ZM736.239 42.0321C736.486 41.7684 736.641 41.4793 736.705 41.1648C736.768 40.8503 736.749 40.5356 736.648 40.2208C736.541 39.9005 736.347 39.6086 736.066 39.3451C735.79 39.0872 735.489 38.9152 735.163 38.8293C734.836 38.7435 734.521 38.7452 734.217 38.8347C733.907 38.9187 733.632 39.0896 733.39 39.3475C733.143 39.6112 732.988 39.9003 732.924 40.2148C732.855 40.5238 732.876 40.8356 732.989 41.15C733.101 41.4644 733.298 41.7534 733.58 42.0168C733.855 42.2748 734.151 42.4526 734.466 42.5502C734.781 42.6365 735.094 42.6376 735.404 42.5536C735.719 42.4638 735.997 42.29 736.239 42.0321ZM734.963 44.7153L728.687 38.8367L729.428 38.0456L732.548 40.9684L733.419 42.0647L734.579 42.8703L735.704 43.9242L734.963 44.7153Z" fill="#212121"/>
<path d="M741.7 38.1908L736.187 35.184L737.134 34.4405L741.372 36.8559L741.069 37.0939L739.806 32.3437L740.754 31.6001L742.212 37.7893L741.7 38.1908ZM741.861 41.0496L741.054 37.2894L742.212 37.7893L742.809 40.3061L741.861 41.0496Z" fill="#212121"/>
<path d="M750.565 32.6854C750.056 32.9235 749.542 33.0178 749.022 32.9682C748.503 32.9186 748.028 32.7463 747.597 32.4513C747.163 32.1489 746.827 31.7432 746.589 31.234C746.355 30.7322 746.264 30.2251 746.317 29.7128C746.366 29.1933 746.539 28.7183 746.834 28.2878C747.129 27.8573 747.531 27.523 748.04 27.2849C748.542 27.0502 749.053 26.9577 749.572 27.0072C750.096 27.0461 750.573 27.2131 751.003 27.5081C751.434 27.8032 751.766 28.2017 752.001 28.7036C752.239 29.2127 752.335 29.7307 752.289 30.2575C752.239 30.777 752.063 31.2538 751.761 31.6877C751.466 32.1181 751.067 32.4507 750.565 32.6854ZM750.122 31.7362C750.449 31.5832 750.704 31.3708 750.887 31.099C751.07 30.8272 751.173 30.5264 751.197 30.1965C751.216 29.8594 751.146 29.5199 750.986 29.178C750.83 28.8434 750.614 28.5809 750.339 28.3905C750.071 28.1967 749.776 28.0866 749.453 28.0602C749.134 28.0231 748.811 28.081 748.484 28.2341C748.157 28.3871 747.901 28.5996 747.718 28.8713C747.532 29.1358 747.427 29.433 747.404 29.7629C747.381 30.0928 747.448 30.425 747.604 30.7596C747.764 31.1014 747.979 31.3729 748.251 31.574C748.519 31.7678 748.816 31.8816 749.142 31.9153C749.468 31.949 749.794 31.8893 750.122 31.7362Z" fill="#212121"/>
<path d="M757.892 29.8351L756.947 26.6357C756.824 26.2199 756.592 25.9159 756.25 25.7238C755.909 25.5317 755.53 25.4971 755.114 25.62C754.837 25.7019 754.609 25.8363 754.43 26.0232C754.251 26.2102 754.131 26.4296 754.072 26.6816C754.012 26.9337 754.024 27.1983 754.105 27.4755L753.606 27.3592C753.484 26.9434 753.467 26.5465 753.556 26.1685C753.645 25.7905 753.828 25.4601 754.104 25.1775C754.379 24.8871 754.724 24.6805 755.139 24.5576C755.555 24.4347 755.952 24.4305 756.329 24.5451C756.714 24.6575 757.049 24.8557 757.334 25.1399C757.616 25.4164 757.813 25.7433 757.925 26.1206L758.932 29.5279L757.892 29.8351ZM754.012 30.9821L752.39 25.4958L753.43 25.1885L755.051 30.6749L754.012 30.9821Z" fill="#212121"/>
<path d="M765.133 24.8187L765.093 23.8681L767.355 23.772C767.845 23.7512 768.216 23.6108 768.47 23.3509C768.725 23.091 768.843 22.7484 768.825 22.3232C768.808 21.9221 768.661 21.5948 768.385 21.3414C768.117 21.0875 767.739 20.971 767.249 20.9918L764.975 21.0884L764.933 20.1017L767.243 20.0035C767.773 19.981 768.238 20.0657 768.64 20.2576C769.042 20.4415 769.355 20.7055 769.578 21.0496C769.81 21.3933 769.935 21.7939 769.955 22.2511C769.975 22.7244 769.884 23.1422 769.682 23.5043C769.489 23.8662 769.2 24.1557 768.815 24.373C768.43 24.5822 767.973 24.6981 767.444 24.7205L765.133 24.8187ZM764.53 28.4849L764.175 20.1339L765.306 20.0858L765.661 28.4369L764.53 28.4849ZM769.343 28.2805L766.152 24.6669L767.207 24.2484L770.775 28.2196L769.343 28.2805Z" fill="#212121"/>
<path d="M774.08 28.6656C773.562 28.6014 773.108 28.4156 772.717 28.1083C772.327 27.793 772.037 27.3969 771.845 26.9201C771.661 26.4442 771.604 25.9274 771.673 25.3696C771.742 24.8118 771.924 24.3246 772.218 23.908C772.521 23.4924 772.895 23.1788 773.342 22.9672C773.797 22.7566 774.288 22.6839 774.813 22.7491C775.244 22.8024 775.615 22.9414 775.927 23.1662C776.248 23.384 776.492 23.6651 776.66 24.0095C776.828 24.3459 776.899 24.7228 776.871 25.1401L776.66 26.8493C776.585 27.2528 776.425 27.601 776.178 27.8941C775.939 28.1881 775.637 28.4055 775.272 28.5463C774.916 28.6802 774.518 28.7199 774.08 28.6656ZM774.385 27.6718C774.919 27.738 775.372 27.6121 775.743 27.294C776.115 26.9679 776.336 26.522 776.406 25.9563C776.455 25.5658 776.421 25.2178 776.305 24.9122C776.198 24.5995 776.019 24.3468 775.768 24.1538C775.518 23.9529 775.213 23.8302 774.855 23.7858C774.496 23.7413 774.167 23.7855 773.868 23.9183C773.576 24.052 773.332 24.2564 773.136 24.5315C772.949 24.7996 772.833 25.1209 772.786 25.4954C772.739 25.8779 772.772 26.226 772.887 26.5395C773.011 26.8462 773.202 27.1004 773.46 27.3023C773.718 27.5042 774.027 27.6274 774.385 27.6718ZM775.983 28.7801L776.173 27.2502L776.548 25.8889L776.515 24.4892L776.687 23.1027L777.775 23.2375L777.071 28.915L775.983 28.7801Z" fill="#212121"/>
<path d="M779.2 29.3808L780.57 23.8264L781.623 24.086L780.252 29.6404L779.2 29.3808ZM781.37 22.8453C781.175 22.7973 781.031 22.6955 780.937 22.54C780.845 22.3767 780.823 22.1976 780.871 22.0027C780.917 21.8156 781.018 21.6751 781.174 21.5811C781.331 21.4793 781.507 21.4525 781.702 21.5006C781.897 21.5487 782.04 21.6543 782.132 21.8176C782.226 21.9731 782.25 22.1444 782.204 22.3315C782.156 22.5264 782.053 22.6747 781.896 22.7765C781.74 22.8705 781.565 22.8934 781.37 22.8453Z" fill="#212121"/>
<path d="M782.022 30.1127L784.645 21.9232L785.678 22.254L783.054 30.4434L782.022 30.1127Z" fill="#212121"/>
<path d="M786.466 31.8318C786.171 31.7045 785.907 31.5467 785.673 31.3584C785.45 31.1659 785.258 30.9519 785.098 30.7163C784.94 30.4734 784.823 30.2174 784.747 29.9483L785.665 29.5839C785.755 29.9026 785.9 30.175 786.1 30.4012C786.303 30.6199 786.559 30.7962 786.868 30.9299C787.178 31.0636 787.44 31.1154 787.654 31.0854C787.871 31.048 788.021 30.9335 788.104 30.7419C788.187 30.5502 788.18 30.3725 788.085 30.2089C788 30.041 787.865 29.8777 787.68 29.7191C787.498 29.5531 787.3 29.3844 787.085 29.213C786.881 29.0374 786.696 28.8482 786.53 28.6453C786.364 28.4424 786.252 28.2149 786.195 27.9628C786.145 27.7138 786.188 27.4309 786.325 27.1139C786.462 26.7969 786.657 26.5576 786.911 26.3959C787.167 26.2269 787.459 26.1386 787.786 26.131C788.12 26.1267 788.483 26.2088 788.873 26.3775C789.286 26.5558 789.619 26.7871 789.873 27.0714C790.137 27.3515 790.31 27.6798 790.392 28.0564L789.474 28.4208C789.409 28.1655 789.288 27.9385 789.112 27.7398C788.943 27.5443 788.722 27.3877 788.449 27.2699C788.161 27.1458 787.918 27.1019 787.719 27.1383C787.53 27.1704 787.397 27.275 787.321 27.4519C787.244 27.6288 787.252 27.7938 787.343 27.9469C787.434 28.1001 787.573 28.2559 787.758 28.4146C787.95 28.5764 788.149 28.7451 788.353 28.9207C788.56 29.0889 788.745 29.2781 788.908 29.4884C789.071 29.6986 789.175 29.9319 789.222 30.1882C789.276 30.4477 789.233 30.7397 789.093 31.064C788.88 31.5579 788.534 31.8722 788.056 32.0069C787.586 32.1448 787.056 32.0864 786.466 31.8318Z" fill="#212121"/>
<path d="M795.976 32.6286L796.541 31.8632L798.362 33.2085C798.756 33.4995 799.134 33.6236 799.495 33.5809C799.856 33.5381 800.163 33.3455 800.416 33.0032C800.654 32.6803 800.746 32.3336 800.69 31.963C800.641 31.5972 800.419 31.2688 800.025 30.9778L798.194 29.6254L798.781 28.831L800.641 30.2049C801.067 30.5197 801.377 30.878 801.569 31.2797C801.766 31.6749 801.844 32.0766 801.802 32.4848C801.766 32.8978 801.613 33.2884 801.341 33.6565C801.059 34.0376 800.726 34.3058 800.342 34.4611C799.964 34.6213 799.557 34.6652 799.122 34.5929C798.691 34.5141 798.262 34.3173 797.836 34.0025L795.976 32.6286ZM793.204 35.1035L798.171 28.3801L799.081 29.0528L794.115 35.7761L793.204 35.1035ZM797.08 37.9658L796.864 33.1496L797.948 33.4862L798.232 38.8173L797.08 37.9658Z" fill="#212121"/>
<path d="M800.362 41.0874C800.033 40.7581 799.808 40.3862 799.689 39.9717C799.581 39.5573 799.587 39.1428 799.706 38.7283C799.825 38.3139 800.061 37.9306 800.413 37.5786L802.764 35.2281L803.53 35.9946L801.214 38.311C800.992 38.5325 800.836 38.7624 800.745 39.0009C800.666 39.2393 800.657 39.475 800.72 39.7077C800.782 39.9405 800.913 40.1563 801.111 40.355C801.412 40.6559 801.742 40.7978 802.099 40.7808C802.463 40.7581 802.812 40.5793 803.147 40.2443L805.463 37.9278L806.23 38.6943L803.879 41.0448C803.527 41.3968 803.144 41.6324 802.73 41.7517C802.315 41.8709 801.901 41.8766 801.486 41.7687C801.083 41.6608 800.708 41.4337 800.362 41.0874Z" fill="#212121"/>
<path d="M804.874 46.2787C804.618 45.929 804.456 45.5594 804.39 45.17C804.335 44.7824 804.375 44.4095 804.511 44.0512C804.646 43.693 804.872 43.3831 805.188 43.1215L806.577 42.1033C806.928 41.8759 807.292 41.7538 807.668 41.7371C808.055 41.722 808.422 41.8015 808.768 41.9756C809.126 42.1513 809.431 42.4108 809.682 42.754C809.991 43.175 810.162 43.6321 810.195 44.1255C810.233 44.6254 810.142 45.1054 809.921 45.5655C809.701 46.0256 809.364 46.4218 808.911 46.7541C808.458 47.0864 807.979 47.2883 807.474 47.3598C806.968 47.4314 806.483 47.3739 806.018 47.1873C805.564 47.0025 805.183 46.6996 804.874 46.2787ZM805.593 45.5277C805.807 45.8191 806.062 46.0251 806.359 46.1456C806.657 46.2661 806.97 46.3056 807.298 46.2643C807.632 46.2181 807.955 46.0812 808.266 45.8533C808.57 45.6302 808.795 45.3661 808.939 45.0609C809.084 44.7558 809.14 44.4456 809.108 44.1305C809.083 43.8106 808.966 43.5082 808.757 43.2233C808.543 42.9319 808.288 42.7259 807.991 42.6054C807.7 42.4802 807.389 42.4439 807.06 42.4965C806.73 42.5491 806.409 42.6893 806.099 42.9171C805.794 43.1402 805.565 43.3979 805.411 43.6901C805.268 43.984 805.209 44.2909 805.234 44.6108C805.265 44.9371 805.384 45.2428 805.593 45.5277ZM803.191 43.779L810.127 38.695L810.768 39.5693L807.319 42.097L806.081 42.7507L805.075 43.7418L803.832 44.6532L803.191 43.779Z" fill="#212121"/>
<path d="M808.252 51.4273L812.215 46.5549L812.773 47.6222L809.625 51.3483L809.446 51.0068L814.347 50.6318L814.905 51.699L808.554 52.0036L808.252 51.4273ZM805.412 51.0644L809.257 50.9564L808.554 52.0036L805.97 52.1316L805.412 51.0644Z" fill="#212121"/>
<path d="M812.032 61.1155C811.891 60.5714 811.893 60.0485 812.037 59.5468C812.18 59.0451 812.437 58.6097 812.806 58.2405C813.182 57.8693 813.643 57.6133 814.187 57.4725C814.723 57.3337 815.238 57.3372 815.732 57.4831C816.234 57.6269 816.669 57.8833 817.039 58.2522C817.408 58.6211 817.663 59.0777 817.804 59.6218C817.942 60.1581 817.94 60.6772 817.796 61.1789C817.662 61.6863 817.41 62.1246 817.042 62.4938C816.673 62.863 816.22 63.117 815.684 63.2558C815.14 63.3966 814.613 63.3961 814.103 63.2543C813.602 63.1104 813.165 62.8501 812.794 62.4734C812.425 62.1045 812.171 61.6519 812.032 61.1155ZM813.046 60.853C813.137 61.2028 813.299 61.4926 813.533 61.7224C813.766 61.9522 814.043 62.1087 814.363 62.1917C814.691 62.2727 815.038 62.266 815.403 62.1714C815.761 62.0789 816.058 61.9148 816.296 61.6791C816.535 61.4512 816.698 61.1811 816.783 60.8688C816.878 60.5623 816.88 60.2341 816.789 59.8843C816.699 59.5345 816.537 59.2447 816.303 59.0149C816.077 58.7831 815.804 58.6257 815.484 58.5426C815.164 58.4596 814.825 58.4643 814.468 58.5569C814.102 58.6514 813.796 58.8136 813.548 59.0435C813.309 59.2714 813.143 59.5425 813.05 59.8568C812.957 60.1712 812.956 60.5032 813.046 60.853Z" fill="#212121"/>
<path d="M813.521 69.147L816.841 68.8131C817.272 68.7697 817.614 68.5982 817.866 68.2984C818.118 67.9987 818.223 67.6331 818.18 67.2017C818.151 66.9141 818.061 66.6648 817.911 66.454C817.76 66.2432 817.567 66.0851 817.33 65.9798C817.094 65.8744 816.832 65.8362 816.544 65.8652L816.751 65.3965C817.183 65.3531 817.576 65.4104 817.931 65.5684C818.285 65.7263 818.576 65.9675 818.802 66.2917C819.036 66.6151 819.175 66.9926 819.219 67.424C819.262 67.8554 819.192 68.2457 819.01 68.595C818.828 68.9522 818.571 69.2444 818.238 69.4715C817.914 69.6977 817.556 69.8306 817.165 69.87L813.63 70.2255L813.521 69.147ZM813.116 65.1205L818.808 64.548L818.917 65.6265L813.225 66.1991L813.116 65.1205Z" fill="#212121"/>
</g>
<defs>
<radialGradient id="paint0_radial_990_5530" cx="0" cy="0" r="1" gradientUnits="userSpaceOnUse" gradientTransform="translate(15.5556 30.8148) rotate(59.144) scale(16.8799)">
<stop stop-color="#9EECE5" stop-opacity="0.48"/>
<stop offset="0.604593" stop-color="#9EECE5"/>
<stop offset="0.796202" stop-color="#72DFDD"/>
<stop offset="1" stop-color="#51BBF6"/>
</radialGradient>
<radialGradient id="paint1_radial_990_5530" cx="0" cy="0" r="1" gradientUnits="userSpaceOnUse" gradientTransform="translate(753.973 52.9938) rotate(59.144) scale(62.5902)">
<stop stop-color="#9EECE5" stop-opacity="0.48"/>
<stop offset="0.604593" stop-color="#9EECE5"/>
<stop offset="0.796202" stop-color="#72DFDD"/>
<stop offset="1" stop-color="#51BBF6"/>
</radialGradient>
<clipPath id="clip0_990_5530">
<rect width="770" height="763" fill="white"/>
</clipPath>
</defs>
</svg>
