<svg xmlns="http://www.w3.org/2000/svg" width="714" height="285" fill="none"><mask id="a" fill="#fff"><path fill-rule="evenodd" d="M657.691 0C688.79 0 714 25.21 714 56.31v23.38c0 31.1-25.21 56.31-56.309 56.31H465.309C434.21 136 409 110.79 409 79.69v149.001C409 259.79 383.79 285 352.691 285H16.893C7.563 285 0 277.437 0 268.107V56.309C0 25.211 25.21 0 56.31 0H657.69Z" clip-rule="evenodd"/></mask><path fill="#212439" fill-rule="evenodd" d="M657.691 0C688.79 0 714 25.21 714 56.31v23.38c0 31.1-25.21 56.31-56.309 56.31H465.309C434.21 136 409 110.79 409 79.69v149.001C409 259.79 383.79 285 352.691 285H16.893C7.563 285 0 277.437 0 268.107V56.309C0 25.211 25.21 0 56.31 0H657.69Z" clip-rule="evenodd"/><path fill="#212121" d="M713.437 56.31c0-30.789-24.958-55.747-55.746-55.747V-.563c31.41 0 56.872 25.462 56.872 56.872h-1.126Zm0 23.38V56.31h1.126v23.38h-1.126Zm-55.746 55.747c30.788 0 55.746-24.958 55.746-55.746h1.126c0 31.41-25.462 56.872-56.872 56.872v-1.126Zm-192.382 0h192.382v1.126H465.309v-1.126Zm-55.746-55.746c0 30.788 24.958 55.746 55.746 55.746v1.126c-31.41 0-56.872-25.462-56.872-56.872h1.126Zm-1.126 149v-149h1.126v149h-1.126Zm-55.746 55.746c30.788 0 55.746-24.958 55.746-55.746h1.126c0 31.41-25.463 56.872-56.872 56.872v-1.126Zm-335.798 0H352.69v1.126H16.893v-1.126Zm-16.33-16.33c0 9.019 7.311 16.33 16.33 16.33v1.126c-9.64 0-17.456-7.815-17.456-17.456H.563Zm0-211.798v211.798H-.563V56.309H.563ZM56.31.563C25.521.563.563 25.521.563 56.31H-.563C-.563 24.9 24.899-.563 56.309-.563V.563ZM409 .563H56.31V-.563H409V.563Zm248.691 0H409V-.563h248.691V.563Z" mask="url(#a)"/></svg>