<svg xmlns="http://www.w3.org/2000/svg" width="375" height="468" fill="none"><g clip-path="url(#a)"><mask id="b" width="1011" height="468" x="-91" y="0" maskUnits="userSpaceOnUse" style="mask-type:luminance"><path fill="#fff" d="M-91 467.484H920V.517H-91v466.967Z"/></mask><g fill="#0F1B1B" fill-opacity=".07" mask="url(#b)"><path d="m291.445 376.03-12.999.873a1.338 1.338 0 0 1-.861-.232.919.919 0 0 1-.418-.66l-.968-9.723-11.842.795a1.338 1.338 0 0 1-.861-.232c-.233-.159-.392-.392-.418-.66l-.97-9.742-11.865.797a1.344 1.344 0 0 1-.861-.232.919.919 0 0 1-.418-.66l-.968-9.723-11.842.795a1.338 1.338 0 0 1-.861-.232.919.919 0 0 1-.418-.66l-1.063-10.673c-.053-.53.427-.994 1.072-1.038.645-.043 1.211.351 1.263.881l.969 9.726 11.846-.795a1.34 1.34 0 0 1 .859.23.923.923 0 0 1 .416.659l.968 9.726 11.846-.795c.331-.022.64.072.87.24.239.159.402.394.429.666l.969 9.727 11.846-.796a1.34 1.34 0 0 1 .859.23c.232.16.389.392.416.659l.968 9.727 11.846-.796c.645-.043 1.21.351 1.263.881.053.529-.427.994-1.072 1.037ZM-1.608 21.548l1.764 10.61a.838.838 0 0 1-.236.72c-.18.2-.455.341-.78.378l-11.772 1.319 1.607 9.666a.839.839 0 0 1-.235.719c-.181.2-.456.342-.78.378l-11.795 1.322 1.61 9.685a.838.838 0 0 1-.235.719c-.182.2-.456.342-.78.378l-11.772 1.32 1.606 9.666a.838.838 0 0 1-.235.718c-.181.2-.455.343-.78.379l-12.922 1.448c-.641.072-1.231-.297-1.319-.823-.088-.526.361-1.011 1.002-1.083l11.776-1.32-1.607-9.67a.838.838 0 0 1 .233-.716c.182-.199.456-.34.779-.377l11.776-1.32-1.607-9.669a.84.84 0 0 1 .244-.727 1.23 1.23 0 0 1 .787-.388l11.776-1.32-1.607-9.669a.838.838 0 0 1 .233-.717c.182-.199.455-.34.779-.377l11.775-1.32-1.607-9.669c-.087-.526.362-1.011 1.003-1.083.64-.072 1.232.297 1.319.823ZM4.72 230.067l-8.44 8.165a1.27 1.27 0 0 1-.809.336 1.346 1.346 0 0 1-.864-.224l-9.058-6.313-7.688 7.438a1.274 1.274 0 0 1-.809.336 1.346 1.346 0 0 1-.863-.224l-9.076-6.326-7.704 7.452a1.275 1.275 0 0 1-.808.337 1.346 1.346 0 0 1-.864-.224l-9.058-6.314-7.688 7.438a1.27 1.27 0 0 1-.809.336 1.34 1.34 0 0 1-.864-.224l-9.942-6.93c-.494-.343-.555-.951-.136-1.356.419-.405 1.158-.454 1.652-.11l9.06 6.315 7.692-7.44c.21-.205.504-.318.805-.336.302-.023.613.05.862.224l9.06 6.315 7.692-7.44a1.27 1.27 0 0 1 .821-.336 1.34 1.34 0 0 1 .878.222l9.06 6.315 7.692-7.44c.211-.204.504-.318.805-.336.302-.022.613.051.862.224l9.06 6.315 7.692-7.44c.418-.405 1.158-.455 1.651-.111.494.344.554.951.135 1.356Z"/></g><mask id="c" width="1011" height="468" x="-91" y="0" maskUnits="userSpaceOnUse" style="mask-type:luminance"><path fill="#fff" d="M-91 467.484H920V.517H-91v466.967Z"/></mask><g fill="#EAEAEA" fill-opacity=".25" mask="url(#c)"><path d="m202.331 197.437-8.831 12.506 15.23 7.251-6.399-19.757Zm-24.299 26.588 8.831-12.507-15.231-7.251 6.4 19.758Zm34.89-1.153c-.109.024-.219.033-.328.043-.038.004-.075.013-.113.015-.07.004-.138-.003-.208-.005-.081-.002-.163.001-.244-.008-.039-.005-.075-.015-.113-.021a2.605 2.605 0 0 1-.727-.214l-20.171-9.603-11.647 16.495c-.254.536-.8.97-1.529 1.129-1.213.265-2.459-.328-2.782-1.324l-9.233-28.505c-.323-.997.399-2.019 1.613-2.285a2.85 2.85 0 0 1 .329-.043c.038-.004.075-.013.113-.015.07-.004.138.003.207.005.082.001.163-.001.245.008.039.004.075.015.113.021.249.038.495.104.727.214l20.17 9.603 11.648-16.495c.254-.536.8-.97 1.528-1.129 1.214-.266 2.46.328 2.783 1.324l9.233 28.505c.323.997-.4 2.02-1.614 2.285Z"/><path d="m173.461 194.595 52.167 57.387c.4.44 1.158.53 1.694.202.535-.328.645-.951.246-1.39L175.4 193.406c-.4-.44-1.158-.53-1.694-.202-.535.328-.645.951-.245 1.391ZM169.367 197.104l52.168 57.387c.4.44 1.158.531 1.693.202.536-.328.646-.95.246-1.39l-52.168-57.388c-.4-.439-1.158-.53-1.693-.202-.536.329-.646.951-.246 1.391ZM165.273 199.613l52.167 57.388c.4.44 1.158.53 1.694.202.535-.329.645-.951.246-1.391l-52.168-57.387c-.4-.44-1.158-.53-1.694-.202-.535.328-.645.951-.245 1.39Z"/></g><mask id="d" width="1011" height="468" x="-91" y="0" maskUnits="userSpaceOnUse" style="mask-type:luminance"><path fill="#fff" d="M-91 467.484H920V.517H-91v466.967Z"/></mask><g fill="#0F1B1B" fill-opacity=".07" mask="url(#d)"><path d="m159.954 419.516 18.376 26.467 26.245-21.551-18.377-26.466-26.244 21.55Zm45.355 4.745 32.076 15.017-18.288-26.339-32.076-15.016 18.288 26.338Zm-26.456 22.152 32.234 15.091 26.245-21.551-32.234-15.09-26.245 21.55Zm7.179-49.169.012-.008a.596.596 0 0 1 .05-.029l.003-.001a.049.049 0 0 1 .007-.003l.029-.013c.005-.008.008-.017.014-.026.102-.146.328-.197.505-.114l32.898 15.402c.011.005.019.011.028.016a.301.301 0 0 1 .051.035.285.285 0 0 1 .026.023l.016.018.02.023 18.756 27.014c.101.146.04.331-.138.414l-.033.013-.009.013c-.003.006-.005.011-.009.016-.001.003-.004.005-.006.007l-.023.027a.25.25 0 0 1-.023.023l-.007.007-26.778 21.988c-.004.004-.008.006-.013.009a.431.431 0 0 1-.442.049l-32.898-15.402c-.005-.002-.009-.006-.015-.008l-.018-.011-.017-.01-.021-.015-.01-.007-.007-.007a.25.25 0 0 1-.017-.016l-.011-.012-.018-.022-.007-.007-18.756-27.014c-.081-.117-.056-.26.05-.355l.019-.019 26.778-21.988.014-.01ZM356.553 77.501l-35.786-8.045v30.477l35.786 8.045V77.501Zm-36.158 22.979-35.612 8.006 35.612 8.005 35.613-8.005-35.613-8.006Zm-.368-31.024L284.238 77.5v30.477l35.789-8.046V69.456Zm37.264 38.935-.001.013a.266.266 0 0 1-.01.049l-.001.003-.003.006a.2.2 0 0 1-.01.026c.004.009.01.017.013.027.054.162-.062.329-.259.373l-36.525 8.211c-.012.003-.023.003-.035.005l-.026.004-.039.001-.038-.001-.027-.004c-.011-.002-.023-.002-.034-.005l-36.525-8.211c-.198-.044-.314-.211-.26-.373l.013-.028-.005-.015-.008-.016-.001-.008a.388.388 0 0 1-.007-.033l-.004-.029-.001-.01V77.28l.002-.013c.001-.133.107-.254.271-.291l36.525-8.211c.005-.002.011-.002.017-.003a.666.666 0 0 1 .022-.003l.022-.003a.61.61 0 0 1 .027-.001l.013-.001h.012a.6.6 0 0 1 .025.002l.018.002.032.005.011.002 36.524 8.21c.159.036.264.152.271.28.001.01.003.017.003.026v31.095l-.002.015Z"/></g><mask id="e" width="1011" height="468" x="-91" y="0" maskUnits="userSpaceOnUse" style="mask-type:luminance"><path fill="#fff" d="M-91 467.484H920V.517H-91v466.967Z"/></mask><g fill="#EAEAEA" fill-opacity=".25" mask="url(#e)"><path d="M83.178 215.497h18.481c.668 0 1.21-.445 1.21-.993v-.627c0-.549-.542-.994-1.21-.994H83.178c-.668 0-1.21.445-1.21.994v.627c0 .548.542.993 1.21.993ZM71.152 210.56h18.481c.668 0 1.21-.445 1.21-.994v-.627c0-.549-.542-.993-1.21-.993H71.152c-.668 0-1.21.444-1.21.993v.627c0 .549.542.994 1.21.994ZM60.01 205.622h18.481c.669 0 1.21-.445 1.21-.994v-.626c0-.549-.541-.994-1.21-.994h-18.48c-.669 0-1.21.445-1.21.994v.626c0 .549.541.994 1.21.994ZM95.64 209.252c0 .722.713 1.308 1.592 1.308.879 0 1.591-.586 1.591-1.308 0-.721-.712-1.307-1.591-1.307-.88 0-1.592.586-1.592 1.307ZM82.965 204.315c0 .722.713 1.307 1.592 1.307.879 0 1.592-.585 1.592-1.307s-.713-1.307-1.592-1.307c-.879 0-1.592.585-1.592 1.307ZM74.6 214.19c0 .722.712 1.307 1.59 1.307.88 0 1.593-.585 1.593-1.307s-.713-1.307-1.592-1.307c-.88 0-1.592.585-1.592 1.307ZM62.102 209.252c0 .722.712 1.308 1.591 1.308.88 0 1.592-.586 1.592-1.308 0-.721-.713-1.307-1.592-1.307-.879 0-1.591.586-1.591 1.307Z"/></g><mask id="f" width="1011" height="468" x="-91" y="0" maskUnits="userSpaceOnUse" style="mask-type:luminance"><path fill="#fff" d="M-91 467.484H920V.517H-91v466.967Z"/></mask><g mask="url(#f)"><path fill="#D9D9D9" fill-opacity=".25" d="m30.923 328.277-20.59 8.643c-.596.249-.831.848-.527 1.336.304.489 1.033.683 1.628.433l20.59-8.643c.596-.25.831-.848.527-1.337-.304-.488-1.033-.682-1.628-.432ZM28.598 324.541l-20.591 8.643c-.595.25-.831.848-.527 1.337.304.489 1.033.682 1.628.433l20.591-8.643c.595-.25.83-.849.527-1.337-.304-.489-1.033-.682-1.628-.433ZM26.272 320.806l-20.59 8.643c-.596.25-.831.848-.527 1.337.304.489 1.033.682 1.628.432l20.59-8.642c.596-.25.832-.849.527-1.337-.304-.489-1.033-.682-1.628-.433ZM23.947 317.071l-20.59 8.643c-.596.249-.831.848-.527 1.336.304.489 1.033.683 1.628.433l20.59-8.643c.596-.25.831-.848.527-1.337-.304-.488-1.033-.682-1.628-.432ZM21.622 313.336l-20.591 8.642c-.595.25-.83.849-.527 1.337.305.489 1.034.682 1.629.433l20.59-8.643c.596-.25.831-.848.527-1.337-.304-.489-1.033-.682-1.628-.432ZM19.297 309.6l-20.591 8.643c-.595.25-.83.848-.527 1.337.304.489 1.033.682 1.628.432l20.591-8.642c.595-.25.831-.849.527-1.337-.304-.489-1.033-.682-1.628-.433ZM16.972 305.865l-20.591 8.643c-.595.25-.831.848-.527 1.337.304.489 1.033.682 1.628.432l20.591-8.642c.595-.25.83-.849.527-1.337-.304-.489-1.033-.682-1.628-.433ZM14.646 302.13l-20.59 8.643c-.596.249-.831.848-.527 1.337.304.488 1.033.682 1.628.432l20.59-8.643c.596-.25.832-.848.527-1.337-.304-.488-1.033-.682-1.628-.432ZM12.32 298.395l-20.59 8.642c-.595.25-.83.849-.527 1.337.304.489 1.033.682 1.628.433l20.591-8.643c.595-.25.83-.848.527-1.337-.304-.489-1.033-.682-1.628-.432ZM9.995 294.659l-20.59 8.643c-.595.25-.831.848-.527 1.337.304.489 1.033.682 1.628.432l20.591-8.642c.595-.25.83-.849.527-1.337-.305-.489-1.034-.682-1.629-.433ZM7.67 290.924l-20.59 8.643c-.595.25-.83.848-.527 1.337.304.488 1.033.682 1.628.432l20.591-8.643c.595-.249.831-.848.527-1.337-.304-.488-1.033-.682-1.628-.432ZM-6.524 393.506l8.716-8.432c.432-.418.37-1.045-.14-1.4-.509-.355-1.272-.304-1.705.114l-8.716 8.432c-.432.418-.37 1.045.14 1.4s1.273.304 1.705-.114Z"/><path fill="#8E8790" fill-opacity=".12" d="m149.676 351.345-1.506-15.124c-.055-.547-.639-.955-1.305-.91l-.761.051c-.666.045-1.162.525-1.107 1.071l1.506 15.125c.055.547.638.954 1.305.91l.76-.052c.667-.044 1.162-.524 1.108-1.071ZM144.663 361.59l-1.507-15.125c-.054-.547-.638-.954-1.304-.909l-.761.051c-.666.044-1.162.524-1.107 1.071l1.506 15.125c.054.546.638.954 1.304.909l.761-.051c.666-.045 1.162-.524 1.108-1.071ZM139.578 371.11l-1.507-15.124c-.054-.547-.638-.954-1.304-.91l-.761.051c-.666.045-1.162.525-1.107 1.072l1.506 15.124c.054.547.638.954 1.304.91l.761-.051c.666-.045 1.162-.525 1.108-1.072ZM141.081 341.655c.877-.059 1.529-.689 1.457-1.409-.072-.719-.84-1.255-1.716-1.196-.876.059-1.528.69-1.457 1.409.072.72.84 1.255 1.716 1.196ZM136.12 352.43c.877-.058 1.529-.689 1.457-1.409-.072-.719-.84-1.255-1.716-1.196-.876.059-1.528.69-1.457 1.409.072.72.84 1.255 1.716 1.196ZM148.788 358.473c.877-.059 1.529-.69 1.457-1.41-.072-.719-.84-1.255-1.716-1.196-.876.059-1.528.69-1.457 1.409.072.72.84 1.255 1.716 1.197ZM143.814 369.103c.876-.059 1.529-.689 1.457-1.409-.072-.719-.84-1.255-1.716-1.196-.876.059-1.528.69-1.457 1.409.072.72.84 1.255 1.716 1.196Z"/><path fill="#D9D9D9" fill-opacity=".25" d="M67.486 414.534c2.276-2.361 1.791-5.79-1.084-7.659-2.875-1.869-7.05-1.47-9.327.891-2.276 2.36-1.79 5.789 1.085 7.658 2.874 1.869 7.05 1.471 9.326-.89Z"/><path stroke="#0F1B1B" stroke-miterlimit="10" stroke-opacity=".07" stroke-width="1.306" d="m131.766 316.296-1.213.736c-2.622 1.592-6.319 1.137-8.257-1.016l-12.262-13.619c-1.938-2.153-1.384-5.188 1.238-6.78l16.585-10.068c2.622-1.592 6.319-1.137 8.258 1.016l.896.996c1.301 1.444 3.782 1.75 5.541.682l1.213-.737c2.622-1.591 6.319-1.136 8.257 1.017l12.262 13.618c1.938 2.153 1.384 5.189-1.238 6.781l-16.585 10.068c-2.622 1.592-6.319 1.137-8.258-1.016l-.896-.996c-1.301-1.445-3.782-1.75-5.541-.682Z"/><path fill="#D9D9D9" fill-opacity=".25" d="m124.714 305.817-6.621-7.353c-.961-1.068-2.795-1.293-4.095-.504l-8.955 5.436c-1.301.79-1.576 2.296-.614 3.364l6.62 7.353c.962 1.068 2.796 1.293 4.096.504l8.955-5.436c1.3-.79 1.575-2.296.614-3.364Z"/><path fill="#0F1B1B" fill-opacity=".07" d="m453.228 244.43-53.124-30.674-22.01 50.191 53.124 30.674 22.01-50.191Zm-76.141 20.236-64.431-4.157 52.867 30.526 64.43 4.157-52.866-30.526Zm21.799-51.272-64.748-4.178-22.011 50.191 64.748 4.178 22.011-50.191Zm33.249 82.268-.011.02a.574.574 0 0 1-.053.076l-.003.005-.008.008c-.012.013-.023.026-.036.038.001.017.003.033.002.05-.028.293-.34.512-.697.489l-66.081-4.264c-.021-.001-.04-.006-.06-.008l-.047-.007-.064-.017c-.021-.007-.042-.013-.062-.021a.536.536 0 0 1-.042-.019c-.018-.008-.036-.015-.053-.024l-54.221-31.309c-.293-.169-.363-.501-.158-.741.013-.015.028-.026.042-.04l.002-.027c0-.01-.002-.02-.001-.03 0-.005.002-.009.003-.014a.286.286 0 0 1 .013-.058.288.288 0 0 1 .015-.05l.005-.016 22.457-51.21.013-.021c.097-.219.36-.367.656-.348l66.082 4.263.031.005.038.005.037.006.046.011.022.005.019.007c.013.005.027.009.04.015a.37.37 0 0 1 .029.013.437.437 0 0 1 .049.023l.016.007 54.222 31.309c.236.136.324.378.243.592-.005.015-.007.029-.013.043l-22.458 51.209c-.003.009-.01.016-.014.025Z"/><path fill="#D9D9D9" fill-opacity=".25" d="m362.173 232.719-20.591 8.642c-.595.25-.831.849-.527 1.337.304.489 1.033.682 1.628.433l20.591-8.643c.595-.25.831-.848.527-1.337-.304-.489-1.033-.682-1.628-.432ZM359.848 228.983l-20.591 8.643c-.595.25-.831.849-.527 1.337.305.489 1.034.682 1.629.432l20.59-8.642c.595-.25.831-.849.527-1.337-.304-.489-1.033-.682-1.628-.433ZM357.522 225.248l-20.591 8.643c-.595.25-.83.848-.526 1.337.304.488 1.033.682 1.628.432l20.591-8.643c.595-.249.831-.848.526-1.337-.304-.488-1.033-.682-1.628-.432ZM355.198 221.513l-20.591 8.643c-.595.249-.831.848-.527 1.337.304.488 1.033.682 1.628.432l20.591-8.643c.595-.249.831-.848.527-1.337-.304-.488-1.033-.682-1.628-.432ZM352.872 217.777l-20.591 8.643c-.595.25-.83.849-.526 1.337.304.489 1.033.682 1.628.433l20.591-8.643c.595-.25.831-.849.527-1.337-.305-.489-1.034-.682-1.629-.433ZM350.547 214.042l-20.591 8.643c-.595.25-.831.848-.527 1.337.304.489 1.033.682 1.628.432l20.591-8.642c.595-.25.831-.849.527-1.337-.304-.489-1.033-.682-1.628-.433ZM348.222 210.307l-20.591 8.643c-.595.25-.831.848-.527 1.337.304.488 1.033.682 1.628.432l20.591-8.643c.595-.249.831-.848.527-1.336-.304-.489-1.033-.683-1.628-.433ZM345.896 206.572l-20.591 8.643c-.595.249-.831.848-.527 1.336.304.489 1.033.682 1.628.433l20.591-8.643c.595-.25.831-.848.527-1.337-.304-.488-1.033-.682-1.628-.432ZM343.571 202.836l-20.591 8.643c-.595.25-.831.849-.527 1.337.304.489 1.033.682 1.628.433l20.591-8.643c.595-.25.831-.849.527-1.337-.304-.489-1.033-.682-1.628-.433ZM341.245 199.101l-20.59 8.643c-.595.25-.831.848-.527 1.337.304.488 1.033.682 1.628.432l20.591-8.643c.595-.249.831-.848.527-1.336-.304-.489-1.034-.683-1.629-.433ZM338.92 195.366l-20.591 8.643c-.595.249-.83.848-.526 1.337.304.488 1.033.682 1.628.432l20.591-8.643c.595-.249.831-.848.526-1.337-.304-.488-1.033-.682-1.628-.432ZM324.726 297.948l8.716-8.432c.432-.418.37-1.045-.14-1.4-.509-.355-1.273-.304-1.705.114l-8.716 8.432c-.433.418-.37 1.045.139 1.4.51.355 1.273.304 1.706-.114ZM315.325 301.242l8.716-8.432c.432-.418.37-1.045-.14-1.4-.509-.355-1.273-.304-1.705.114l-8.716 8.432c-.433.418-.37 1.045.139 1.4.51.355 1.274.304 1.706-.114ZM306.359 304.115l8.716-8.431c.432-.419.37-1.046-.14-1.401-.509-.355-1.273-.304-1.705.115l-8.716 8.431c-.432.419-.37 1.046.139 1.401.51.355 1.274.303 1.706-.115ZM326.261 289.127c.51.355 1.273.304 1.706-.115.432-.418.37-1.045-.14-1.4-.509-.355-1.273-.304-1.705.115-.432.418-.37 1.045.139 1.4ZM316.542 292.73c.509.355 1.273.304 1.705-.115.433-.418.37-1.045-.139-1.4-.51-.355-1.273-.304-1.706.114-.432.419-.37 1.046.14 1.401ZM319.395 301.569c.51.355 1.273.304 1.706-.115.432-.418.37-1.045-.14-1.4-.509-.355-1.273-.304-1.705.114-.433.419-.37 1.046.139 1.401ZM309.762 305.087c.51.356 1.273.304 1.706-.114.432-.418.37-1.045-.14-1.4-.509-.356-1.273-.304-1.705.114-.432.418-.37 1.045.139 1.4Z"/><path fill="#DADADA" fill-opacity=".25" d="m97.706 66.63-20.591 8.643c-.595.25-.83.849-.527 1.337.305.489 1.034.682 1.629.433l20.59-8.643c.595-.25.831-.848.527-1.337-.304-.489-1.033-.682-1.628-.432ZM95.38 62.895l-20.591 8.643c-.595.25-.83.848-.527 1.337.304.488 1.033.682 1.628.432l20.591-8.642c.595-.25.831-.849.527-1.338-.304-.488-1.033-.681-1.628-.432ZM93.055 59.16l-20.591 8.643c-.595.25-.831.848-.527 1.337.304.488 1.033.682 1.628.432l20.591-8.643c.595-.25.83-.848.527-1.337-.304-.488-1.033-.682-1.628-.432ZM90.73 55.425l-20.592 8.642c-.595.25-.83.849-.526 1.337.304.489 1.033.682 1.628.433l20.59-8.643c.596-.25.832-.848.528-1.337-.305-.489-1.034-.682-1.629-.432ZM88.405 51.69l-20.591 8.642c-.595.25-.83.849-.527 1.337.304.489 1.033.682 1.628.433l20.591-8.643c.595-.25.83-.849.527-1.337-.304-.489-1.033-.682-1.628-.432ZM86.079 47.954l-20.591 8.643c-.595.25-.83.848-.526 1.337.303.488 1.033.682 1.628.432l20.59-8.643c.595-.25.831-.848.527-1.337-.304-.488-1.033-.682-1.628-.432ZM83.754 44.219l-20.591 8.643c-.595.25-.83.848-.527 1.337.304.488 1.033.682 1.628.432l20.591-8.643c.595-.25.831-.848.527-1.337-.304-.488-1.033-.682-1.628-.432ZM81.429 40.483l-20.591 8.643c-.595.25-.831.849-.527 1.337.304.489 1.033.682 1.628.433l20.591-8.643c.595-.25.83-.849.527-1.337-.304-.489-1.033-.682-1.628-.432ZM79.103 36.748l-20.591 8.643c-.595.25-.83.848-.527 1.337.304.489 1.034.682 1.629.432l20.59-8.642c.596-.25.831-.849.527-1.337-.304-.489-1.033-.682-1.628-.433ZM76.778 33.013l-20.591 8.643c-.595.25-.83.848-.527 1.337.304.488 1.033.682 1.628.432l20.591-8.643c.595-.25.83-.848.527-1.337-.304-.488-1.033-.682-1.628-.432ZM74.453 29.278 53.861 37.92c-.596.25-.831.849-.527 1.337.304.489 1.033.683 1.628.433l20.591-8.643c.595-.25.83-.848.527-1.337-.304-.489-1.034-.682-1.629-.432Z"/><path fill="#8E8790" fill-opacity=".12" d="m60.258 131.859 8.716-8.431c.432-.418.37-1.045-.14-1.401-.51-.355-1.273-.303-1.705.115l-8.716 8.432c-.432.418-.37 1.045.14 1.4.509.355 1.272.304 1.705-.115ZM50.857 135.154l8.716-8.432c.432-.418.37-1.045-.14-1.4-.509-.355-1.273-.304-1.705.114l-8.716 8.432c-.432.418-.37 1.045.14 1.4.509.355 1.273.304 1.705-.114ZM41.891 138.027l8.716-8.432c.432-.418.37-1.045-.14-1.4-.509-.355-1.272-.304-1.705.114l-8.716 8.432c-.432.418-.37 1.045.14 1.401.51.355 1.273.303 1.705-.115ZM61.794 123.039c.51.355 1.273.303 1.705-.115.432-.418.37-1.045-.14-1.4-.509-.355-1.272-.304-1.705.114-.432.418-.37 1.045.14 1.401ZM52.074 126.641c.509.356 1.272.304 1.705-.114.432-.418.37-1.045-.14-1.4-.509-.356-1.273-.304-1.705.114-.432.418-.37 1.045.14 1.4ZM54.928 135.481c.51.355 1.273.303 1.706-.115.432-.418.37-1.045-.14-1.4s-1.273-.304-1.706.114c-.432.419-.37 1.046.14 1.401ZM45.295 138.999c.51.356 1.273.304 1.706-.114.432-.418.37-1.045-.14-1.4-.51-.356-1.273-.304-1.705.114-.433.418-.37 1.045.14 1.4Z"/><path fill="#D9D9D9" fill-opacity=".25" d="m216.458 89.699-1.506-15.125c-.055-.547-.639-.954-1.305-.91l-.761.052c-.666.045-1.162.524-1.107 1.071l1.506 15.125c.055.547.639.954 1.305.91l.761-.052c.666-.045 1.162-.524 1.107-1.071ZM211.445 99.943l-1.506-15.124c-.055-.547-.639-.954-1.305-.91l-.761.051c-.666.045-1.162.525-1.107 1.072l1.506 15.124c.055.547.639.954 1.305.91l.76-.051c.667-.045 1.162-.525 1.108-1.072ZM206.36 109.464l-1.506-15.125c-.055-.546-.639-.954-1.305-.909l-.761.051c-.666.045-1.162.525-1.107 1.071l1.506 15.125c.055.547.639.954 1.305.909l.761-.051c.666-.044 1.161-.524 1.107-1.071ZM207.863 80.009c.876-.059 1.528-.69 1.456-1.41-.071-.719-.84-1.254-1.716-1.195-.876.058-1.528.69-1.457 1.409.072.72.84 1.255 1.717 1.196ZM202.903 90.784c.876-.059 1.528-.69 1.456-1.409-.071-.72-.84-1.255-1.716-1.196-.876.059-1.528.69-1.456 1.409.071.72.839 1.255 1.716 1.196ZM215.571 96.826c.876-.058 1.528-.69 1.456-1.409-.071-.72-.84-1.255-1.716-1.196-.876.059-1.528.69-1.457 1.41.072.719.84 1.254 1.717 1.195ZM210.596 107.457c.876-.059 1.528-.69 1.457-1.409-.072-.72-.84-1.255-1.716-1.196-.877.058-1.529.689-1.457 1.409.072.719.84 1.255 1.716 1.196ZM134.269 152.888c2.276-2.361 1.79-5.79-1.085-7.659-2.875-1.869-7.05-1.47-9.326.89-2.277 2.361-1.791 5.79 1.084 7.659 2.875 1.869 7.051 1.47 9.327-.89Z"/><path stroke="#0F1B1B" stroke-miterlimit="10" stroke-opacity=".07" stroke-width="1.306" d="m238.668 65.63-1.213.737c-2.622 1.592-6.319 1.136-8.258-1.017l-12.261-13.618c-1.939-2.153-1.385-5.189 1.237-6.78l16.586-10.069c2.622-1.592 6.319-1.136 8.257 1.017l.897.996c1.3 1.444 3.781 1.75 5.54.681l1.213-.736c2.622-1.592 6.319-1.137 8.258 1.016l12.261 13.619c1.938 2.153 1.384 5.189-1.238 6.78l-16.585 10.069c-2.622 1.591-6.319 1.136-8.257-1.017l-.897-.996c-1.301-1.444-3.781-1.75-5.54-.681Z"/><path fill="#D9D9D9" fill-opacity=".25" d="m191.496 44.171-6.62-7.353c-.962-1.068-2.796-1.293-4.096-.504l-8.955 5.436c-1.301.79-1.575 2.296-.614 3.363l6.62 7.353c.962 1.068 2.796 1.294 4.096.505l8.955-5.437c1.3-.79 1.575-2.295.614-3.363Z"/><path stroke="#0F1B1B" stroke-miterlimit="10" stroke-opacity=".07" stroke-width="1.306" d="m310.36 429.399-1.165.428c-2.518.926-6.219-.017-8.267-2.105l-12.951-13.208c-2.048-2.088-1.666-4.53.852-5.455l15.93-5.852c2.518-.926 6.22.017 8.267 2.105l.947.966c1.374 1.401 3.858 2.033 5.547 1.413l1.165-.428c2.519-.926 6.22.017 8.268 2.105l12.951 13.208c2.048 2.088 1.666 4.53-.852 5.456l-15.93 5.851c-2.518.926-6.22-.017-8.267-2.105l-.947-.966c-1.374-1.401-3.858-2.033-5.548-1.413Z"/><path fill="#D9D9D9" fill-opacity=".25" d="m340.659 428.824-6.62-7.353c-.962-1.068-2.796-1.294-4.096-.505l-8.955 5.437c-1.3.789-1.575 2.295-.614 3.363l6.62 7.353c.962 1.068 2.796 1.293 4.096.504l8.955-5.436c1.301-.79 1.575-2.295.614-3.363Z"/></g></g><defs><clipPath id="a"><path fill="#fff" d="M-90.5 467.5h606V.5h-606z"/></clipPath></defs></svg>