<svg xmlns="http://www.w3.org/2000/svg" width="768" height="378" fill="none"><g clip-path="url(#a)"><path fill="#212439" d="M0 0h768v378H0z"/><g filter="url(#b)"><ellipse cx="58.14" cy="58.134" fill="url(#c)" rx="58.14" ry="58.134" transform="rotate(-60.005 404.307 -439.765) skewX(-.01)"/><path stroke="#DCDCDC" stroke-dasharray="5.81 5.81" stroke-width=".581" d="m642.73-28 .574 407M768.002 253.702l-548.753 1.175"/><path stroke="#B0B0B0" stroke-dasharray="5.81 5.81" stroke-width="1.163" d="M16.101 21.445S82.034 7.484 86.815 66.65c4.78 59.167 30.266 56.986 81.478 52.088 51.212-4.899 66.047 107.517 125.017 79.921 58.969-27.596 62.581 95.698 120.21 44.92"/><ellipse cx="29.071" cy="29.066" fill="url(#d)" rx="29.071" ry="29.066" transform="rotate(-70.004 390.205 -264.126) skewX(-.008)"/><ellipse cx="437.883" cy="213.002" fill="url(#e)" rx="15.408" ry="15.405" transform="rotate(-90 437.883 213.002)"/></g></g><defs><radialGradient id="c" cx="0" cy="0" r="1" gradientTransform="rotate(-135.703 80.034 30.122) scale(141.587 111.505)" gradientUnits="userSpaceOnUse"><stop offset=".147" stop-color="#EAEAEA"/><stop offset=".31" stop-color="#E6FFFC"/><stop offset=".386" stop-color="#C2F7F7"/><stop offset=".477" stop-color="#B0EEF2"/><stop offset=".644" stop-color="#8EE9D8"/><stop offset=".79" stop-color="#6DDDDD"/><stop offset=".915" stop-color="#3073C1"/><stop offset="1" stop-color="#638B9F"/></radialGradient><radialGradient id="d" cx="0" cy="0" r="1" gradientTransform="matrix(-50.66977 -49.43966 38.93575 -39.90452 58.141 53.786)" gradientUnits="userSpaceOnUse"><stop offset=".147" stop-color="#EAEAEA"/><stop offset=".31" stop-color="#FFE6ED"/><stop offset=".386" stop-color="#F7C2DC"/><stop offset=".477" stop-color="#F2B0D0"/><stop offset=".644" stop-color="#E98ED1"/><stop offset=".79" stop-color="#6D73DD"/><stop offset=".915" stop-color="#3073C1"/><stop offset="1" stop-color="#638B9F"/></radialGradient><radialGradient id="e" cx="0" cy="0" r="1" gradientTransform="rotate(-135.706 272.659 20.804) scale(37.5205 29.5489)" gradientUnits="userSpaceOnUse"><stop offset=".147" stop-color="#EAEAEA"/><stop offset=".31" stop-color="#E6FFFC"/><stop offset=".386" stop-color="#C2F7F7"/><stop offset=".477" stop-color="#B0EEF2"/><stop offset=".644" stop-color="#8EE9D8"/><stop offset=".79" stop-color="#6DDDDD"/><stop offset=".915" stop-color="#3073C1"/><stop offset="1" stop-color="#638B9F"/></radialGradient><clipPath id="a"><path fill="#fff" d="M0 0h768v378H0z"/></clipPath><filter id="b" width="760.022" height="415.001" x="11.981" y="-28.001" color-interpolation-filters="sRGB" filterUnits="userSpaceOnUse"><feFlood flood-opacity="0" result="BackgroundImageFix"/><feColorMatrix in="SourceAlpha" result="hardAlpha" values="0 0 0 0 0 0 0 0 0 0 0 0 0 0 0 0 0 0 127 0"/><feOffset dy="4"/><feGaussianBlur stdDeviation="2"/><feComposite in2="hardAlpha" operator="out"/><feColorMatrix values="0 0 0 0 0 0 0 0 0 0 0 0 0 0 0 0 0 0 0.25 0"/><feBlend in2="BackgroundImageFix" result="effect1_dropShadow_221_5620"/><feBlend in="SourceGraphic" in2="effect1_dropShadow_221_5620" result="shape"/></filter></defs></svg>