<svg xmlns="http://www.w3.org/2000/svg" width="375" height="619" fill="none"><mask id="a" width="467" height="1011" x="-46" y="-102" maskUnits="userSpaceOnUse" style="mask-type:luminance"><path fill="#fff" d="M420.967 909V-102H-46V909h466.967Z"/></mask><g fill="#0F1B1B" fill-opacity=".07" mask="url(#a)"><path d="m273.355 289.091 6.211 36.323 27.137-16.893-6.211-36.323-27.137 16.893Zm33.974 19.458 20.438 27.272-6.181-36.147-20.438-27.273 6.181 36.148Zm-27.487 17.525 20.539 27.406 27.137-16.893-20.539-27.407-27.137 16.894Zm20.742-54.763.012-.006a.207.207 0 0 1 .047-.018l.003-.001.006-.001.027-.006.019-.026c.125-.138.317-.127.43.024l20.962 27.971c.007.009.011.019.017.028a.16.16 0 0 1 .013.022l.016.033a.496.496 0 0 1 .02.061l.008.033 6.34 37.074c.034.2-.071.396-.236.438l-.029.004-.011.013-.012.015-.007.007a.615.615 0 0 1-.026.024l-.025.019-.008.007-27.688 17.236c-.004.002-.009.003-.013.006-.119.073-.267.045-.361-.08l-20.961-27.971c-.004-.004-.006-.01-.009-.014l-.012-.018-.01-.018-.011-.023-.006-.011-.003-.011-.008-.023-.006-.018-.007-.031-.003-.01-6.34-37.074a.403.403 0 0 1 .149-.396c.007-.005.013-.012.021-.016l27.688-17.236a.061.061 0 0 1 .014-.007ZM372.999 658.046l26.467-18.376-21.55-26.245-26.467 18.377 21.55 26.244Zm4.746-45.355 15.017-32.076-26.339 18.288-15.016 32.076 26.338-18.288Zm22.152 26.456 15.09-32.234-21.55-26.245-15.091 32.234 21.551 26.245Zm-49.169-7.179-.008-.012a.31.31 0 0 1-.029-.05l-.002-.003-.002-.007-.013-.029c-.009-.005-.018-.008-.026-.014-.146-.102-.197-.328-.114-.505l15.401-32.898c.005-.011.012-.019.017-.028a.267.267 0 0 1 .035-.051l.022-.026.019-.016.023-.02 27.013-18.756c.146-.101.332-.04.415.138l.012.033.014.009c.005.003.011.005.015.009.003.001.005.004.007.006.01.007.019.015.027.023a.25.25 0 0 1 .023.023l.008.007 21.988 26.778.008.013a.43.43 0 0 1 .049.442l-15.401 32.898-.009.015-.01.018-.011.017-.015.021-.006.01-.008.007-.015.017-.013.011-.021.018-.008.007-27.013 18.756c-.118.081-.26.056-.355-.05l-.019-.019-21.988-26.778a.071.071 0 0 1-.01-.014ZM107.58-62.905l6.212 36.323 27.137-16.893-6.212-36.324-27.137 16.894Zm33.974 19.458 20.439 27.272-6.182-36.147-20.438-27.273 6.181 36.148Zm-27.486 17.525 20.539 27.406 27.137-16.893-20.539-27.407-27.137 16.894Zm20.741-54.763.012-.006a.256.256 0 0 1 .048-.018l.003-.001.006-.001.027-.006.019-.026c.124-.138.316-.127.43.024l20.961 27.971c.007.009.012.019.018.028l.013.022a.22.22 0 0 1 .015.033l.014.035.006.026.009.033 6.34 37.074c.034.2-.072.396-.236.438l-.03.003-.011.014-.011.015-.007.006c-.009.01-.018.017-.027.025l-.025.02-.008.006-27.688 17.236-.012.006c-.119.072-.267.045-.361-.08l-20.962-27.971-.009-.015-.011-.017-.01-.018-.012-.023-.005-.011-.004-.011-.008-.023-.005-.018-.008-.03-.002-.011-6.34-37.074a.402.402 0 0 1 .148-.396c.007-.005.014-.012.021-.016l27.688-17.236c.005-.004.01-.005.014-.007ZM30.985 461.447l-8.045 35.786h30.476l8.045-35.786H30.985Zm22.978 36.158 8.006 35.612 8.006-35.612-8.006-35.613-8.006 35.613Zm-31.024.368 8.045 35.789h30.477l-8.045-35.789H22.939Zm38.936-37.264.012.001a.271.271 0 0 1 .05.01l.003.001.005.003.027.01c.008-.004.017-.01.026-.013.162-.054.33.062.374.259l8.21 36.525c.004.012.004.023.006.035 0 .009.002.017.003.026l.001.039v.038l-.004.027c-.002.011-.002.023-.005.034l-8.211 36.525c-.044.198-.212.314-.373.26l-.028-.013-.015.005-.016.008-.009.001-.032.007a.309.309 0 0 1-.03.004l-.01.001H30.764l-.013-.002c-.133-.001-.255-.107-.292-.271l-8.21-36.525c-.002-.005-.002-.011-.003-.017a.653.653 0 0 1-.008-.071v-.025l.002-.025.002-.018.005-.032.001-.011 8.211-36.524c.036-.159.152-.264.28-.271l.025-.003h31.095l.016.002Z"/></g></svg>