<svg width="375" height="619" viewBox="0 0 375 619" fill="none" xmlns="http://www.w3.org/2000/svg">
<mask id="mask0_240_2943" style="mask-type:luminance" maskUnits="userSpaceOnUse" x="-46" y="-102" width="467" height="1012">
<path d="M420.967 909L420.967 -102L-46 -102L-46 909L420.967 909Z" fill="white"/>
</mask>
<g mask="url(#mask0_240_2943)">
<path d="M329.514 526.555L330.386 539.554C330.408 539.88 330.318 540.185 330.155 540.415C329.995 540.648 329.763 540.806 329.495 540.833L319.771 541.801L320.566 553.643C320.588 553.969 320.498 554.274 320.335 554.504C320.175 554.737 319.943 554.896 319.675 554.922L309.933 555.892L310.729 567.757C310.751 568.083 310.66 568.388 310.497 568.618C310.338 568.851 310.105 569.009 309.838 569.036L300.114 570.004L300.909 581.846C300.931 582.172 300.841 582.477 300.678 582.707C300.518 582.94 300.285 583.098 300.017 583.125L289.344 584.188C288.815 584.241 288.35 583.761 288.307 583.116C288.264 582.471 288.658 581.905 289.187 581.853L298.914 580.884L298.119 569.038C298.097 568.713 298.187 568.409 298.349 568.179C298.508 567.948 298.74 567.79 299.007 567.763L308.734 566.795L307.939 554.949C307.916 554.618 308.011 554.309 308.178 554.079C308.338 553.84 308.573 553.677 308.845 553.65L318.571 552.681L317.776 540.835C317.754 540.51 317.844 540.206 318.006 539.976C318.165 539.744 318.398 539.587 318.665 539.56L328.391 538.592L327.596 526.746C327.553 526.101 327.947 525.536 328.476 525.483C329.006 525.43 329.47 525.91 329.514 526.555Z" fill="#0F1B1B" fill-opacity="0.07"/>
<path d="M226.196 170.348L227.069 183.347C227.091 183.673 227 183.978 226.837 184.207C226.678 184.44 226.445 184.599 226.177 184.626L216.454 185.594L217.249 197.436C217.271 197.762 217.18 198.067 217.017 198.297C216.858 198.53 216.625 198.688 216.357 198.715L206.615 199.685L207.412 211.55C207.434 211.876 207.343 212.181 207.18 212.41C207.021 212.643 206.788 212.802 206.52 212.829L196.797 213.797L197.592 225.639C197.614 225.965 197.523 226.27 197.36 226.5C197.201 226.733 196.968 226.891 196.7 226.918L186.027 227.981C185.497 228.034 185.033 227.553 184.99 226.909C184.946 226.264 185.34 225.698 185.87 225.645L195.597 224.677L194.801 212.831C194.779 212.506 194.869 212.201 195.031 211.972C195.191 211.74 195.423 211.583 195.69 211.556L205.417 210.587L204.621 198.742C204.599 198.411 204.693 198.102 204.861 197.872C205.021 197.633 205.255 197.469 205.527 197.442L215.254 196.474L214.458 184.628C214.437 184.303 214.527 183.998 214.688 183.769C214.848 183.537 215.08 183.38 215.347 183.353L225.074 182.385L224.278 170.539C224.235 169.894 224.629 169.329 225.159 169.276C225.689 169.223 226.153 169.703 226.196 170.348Z" fill="#0F1B1B" fill-opacity="0.07"/>
<path d="M73.3727 260.303L81.5371 268.742C81.742 268.954 81.8551 269.248 81.8732 269.551C81.8957 269.853 81.8233 270.165 81.6495 270.415L75.3361 279.473L82.7739 287.161C82.9788 287.373 83.0919 287.667 83.1101 287.969C83.1325 288.272 83.0601 288.584 82.8861 288.833L76.5606 297.909L84.0129 305.613C84.2176 305.824 84.3309 306.118 84.349 306.421C84.3715 306.723 84.2991 307.035 84.1251 307.285L77.8117 316.343L85.2495 324.031C85.4544 324.243 85.5677 324.537 85.5856 324.839C85.6081 325.142 85.5357 325.454 85.3619 325.704L78.4317 335.646C78.0878 336.14 77.4807 336.2 77.0756 335.781C76.6707 335.363 76.621 334.624 76.9649 334.13L83.2802 325.069L75.8401 317.378C75.6358 317.167 75.5223 316.874 75.5037 316.573C75.4819 316.271 75.5547 315.96 75.7281 315.711L82.0434 306.65L74.6033 298.959C74.3953 298.744 74.2827 298.445 74.2673 298.137C74.2414 297.831 74.3127 297.513 74.4891 297.26L80.8044 288.199L73.3643 280.508C73.16 280.297 73.0467 280.004 73.0281 279.703C73.0063 279.401 73.0789 279.09 73.2523 278.841L79.5678 269.78L72.1275 262.089C71.7226 261.67 71.6728 260.931 72.0168 260.438C72.3605 259.944 72.9676 259.884 73.3727 260.303Z" fill="#0F1B1B" fill-opacity="0.07"/>
</g>
<mask id="mask1_240_2943" style="mask-type:luminance" maskUnits="userSpaceOnUse" x="-46" y="-102" width="467" height="1012">
<path d="M420.967 909L420.967 -102L-46 -102L-46 909L420.967 909Z" fill="white"/>
</mask>
<g mask="url(#mask1_240_2943)">
<path d="M396.523 439.811L345.885 378.143C345.497 377.67 344.868 377.67 344.48 378.143C344.092 378.615 344.092 379.381 344.48 379.854L395.118 441.522C395.505 441.994 396.135 441.994 396.523 441.522C396.911 441.049 396.911 440.283 396.523 439.811Z" fill="#EAEAEA" fill-opacity="0.25"/>
<path d="M399.489 436.199L348.852 374.531C348.463 374.058 347.834 374.058 347.446 374.531C347.058 375.003 347.058 375.77 347.446 376.242L398.084 437.91C398.472 438.382 399.101 438.382 399.489 437.91C399.877 437.437 399.877 436.671 399.489 436.199Z" fill="#EAEAEA" fill-opacity="0.25"/>
<path d="M402.455 432.586L351.818 370.918C351.43 370.445 350.801 370.445 350.413 370.918C350.025 371.39 350.025 372.157 350.413 372.629L401.05 434.297C401.438 434.769 402.067 434.769 402.455 434.297C402.843 433.824 402.843 433.058 402.455 432.586Z" fill="#EAEAEA" fill-opacity="0.25"/>
<path d="M356.068 416.785L362.607 401.083L349.713 393.12L356.068 416.785ZM374.497 383.093L367.959 398.795L380.853 406.758L374.497 383.093ZM345.957 386.453C346.046 386.417 346.135 386.4 346.224 386.381C346.255 386.375 346.285 386.362 346.316 386.357C346.373 386.348 346.43 386.353 346.486 386.351C346.553 386.348 346.62 386.341 346.687 386.347C346.719 386.35 346.75 386.362 346.781 386.367C346.988 386.399 347.193 386.464 347.389 386.586L364.465 397.13L373.088 376.42C373.267 375.754 373.689 375.196 374.278 374.961C375.258 374.571 376.313 375.222 376.633 376.416L385.802 410.557C386.123 411.751 385.588 413.035 384.608 413.425C384.52 413.461 384.43 413.478 384.341 413.497C384.31 413.503 384.28 413.516 384.249 413.521C384.192 413.53 384.136 413.525 384.079 413.527C384.012 413.53 383.945 413.537 383.878 413.531C383.846 413.527 383.816 413.516 383.784 413.511C383.578 413.479 383.372 413.413 383.176 413.292L366.101 402.748L357.477 423.458C357.299 424.123 356.876 424.682 356.288 424.917C355.307 425.307 354.253 424.656 353.932 423.462L344.763 389.321C344.442 388.127 344.977 386.843 345.957 386.453Z" fill="#EAEAEA" fill-opacity="0.25"/>
<path d="M150.92 615.67L163.426 624.501L170.678 609.27L150.92 615.67ZM177.508 639.968L165.001 631.137L157.75 646.368L177.508 639.968ZM176.355 605.078C176.379 605.187 176.388 605.297 176.398 605.406C176.402 605.444 176.411 605.481 176.413 605.519C176.417 605.589 176.41 605.658 176.409 605.727C176.407 605.808 176.409 605.89 176.4 605.971C176.396 606.01 176.385 606.046 176.379 606.084C176.341 606.333 176.276 606.58 176.166 606.811L166.562 626.982L183.057 638.629C183.593 638.884 184.028 639.429 184.187 640.158C184.452 641.372 183.859 642.617 182.862 642.94L154.357 652.173C153.361 652.496 152.338 651.774 152.073 650.56C152.049 650.45 152.04 650.341 152.029 650.232C152.026 650.193 152.016 650.157 152.014 650.118C152.011 650.048 152.018 649.98 152.019 649.911C152.021 649.829 152.019 649.748 152.027 649.666C152.032 649.628 152.043 649.591 152.049 649.553C152.086 649.304 152.152 649.058 152.262 648.826L161.865 628.656L145.37 617.009C144.835 616.754 144.4 616.209 144.241 615.48C143.976 614.266 144.569 613.02 145.566 612.697L174.07 603.464C175.067 603.142 176.09 603.864 176.355 605.078Z" fill="#EAEAEA" fill-opacity="0.25"/>
<path d="M148.078 644.54L205.466 592.372C205.905 591.972 205.996 591.214 205.667 590.679C205.339 590.143 204.717 590.033 204.277 590.433L146.89 642.6C146.45 643 146.359 643.758 146.688 644.294C147.016 644.829 147.638 644.939 148.078 644.54Z" fill="#EAEAEA" fill-opacity="0.25"/>
<path d="M150.587 648.633L207.975 596.465C208.415 596.066 208.505 595.308 208.177 594.772C207.848 594.237 207.226 594.127 206.786 594.526L149.399 646.694C148.959 647.094 148.869 647.852 149.197 648.388C149.525 648.923 150.148 649.033 150.587 648.633Z" fill="#EAEAEA" fill-opacity="0.25"/>
<path d="M153.097 652.728L210.484 600.56C210.924 600.16 211.014 599.402 210.686 598.866C210.358 598.331 209.735 598.221 209.296 598.621L151.908 650.788C151.468 651.188 151.378 651.946 151.706 652.482C152.034 653.017 152.657 653.127 153.097 652.728Z" fill="#EAEAEA" fill-opacity="0.25"/>
<path d="M10.502 347.617L23.0085 356.448L30.2598 341.217L10.502 347.617ZM37.0899 371.915L24.5834 363.084L17.332 378.315L37.0899 371.915ZM35.937 337.025C35.961 337.134 35.97 337.244 35.9804 337.353C35.9841 337.391 35.9932 337.428 35.9953 337.466C35.999 337.536 35.9921 337.605 35.9906 337.674C35.9888 337.755 35.9912 337.837 35.9824 337.918C35.9778 337.957 35.967 337.993 35.9612 338.031C35.9231 338.28 35.8578 338.527 35.7476 338.758L26.1443 358.929L42.6394 370.576C43.1752 370.831 43.6097 371.376 43.7688 372.105C44.0339 373.319 43.4409 374.565 42.4442 374.887L13.9394 384.12C12.9427 384.443 11.9199 383.721 11.6547 382.507C11.6309 382.397 11.6216 382.288 11.6114 382.179C11.6078 382.14 11.5985 382.104 11.5965 382.065C11.5928 381.995 11.5995 381.927 11.6013 381.858C11.6028 381.776 11.6006 381.695 11.6095 381.613C11.6138 381.575 11.6246 381.539 11.6307 381.5C11.6685 381.251 11.734 381.005 11.8441 380.773L21.4474 360.603L4.9524 348.956C4.41668 348.701 3.98214 348.156 3.82303 347.427C3.55777 346.213 4.15099 344.967 5.14762 344.644L33.6523 335.411C34.6491 335.089 35.6719 335.811 35.937 337.025Z" fill="#EAEAEA" fill-opacity="0.25"/>
<path d="M-13.6307 343.472L50.1216 383.196C50.61 383.5 51.2086 383.265 51.4585 382.67C51.7084 382.075 51.5151 381.346 51.0266 381.042L-12.7255 341.318C-13.2141 341.013 -13.8127 341.249 -14.0626 341.844C-14.3125 342.439 -14.1192 343.168 -13.6307 343.472Z" fill="#EAEAEA" fill-opacity="0.25"/>
<path d="M-15.5413 348.02L48.2107 387.744C48.6993 388.048 49.2979 387.812 49.5478 387.218C49.7978 386.623 49.6045 385.894 49.1159 385.589L-14.6361 345.865C-15.1247 345.561 -15.7233 345.797 -15.9733 346.391C-16.2232 346.986 -16.0299 347.715 -15.5413 348.02Z" fill="#EAEAEA" fill-opacity="0.25"/>
<path d="M-17.452 352.568L46.3003 392.292C46.7887 392.597 47.3873 392.361 47.6372 391.766C47.8871 391.171 47.6938 390.442 47.2053 390.138L-16.5468 350.414C-17.0354 350.11 -17.634 350.345 -17.8839 350.94C-18.1338 351.535 -17.9405 352.264 -17.452 352.568Z" fill="#EAEAEA" fill-opacity="0.25"/>
<path d="M235.626 -24.4462L249.79 -20.9211L252.685 -38.1702L235.626 -24.4462ZM267.182 -11.7149L253.017 -15.24L250.123 2.00939L267.182 -11.7149ZM256.971 -44.3447C257.023 -44.2502 257.06 -44.1499 257.098 -44.0501C257.112 -44.0156 257.13 -43.984 257.142 -43.9487C257.164 -43.8837 257.175 -43.8166 257.192 -43.7502C257.212 -43.672 257.235 -43.5959 257.248 -43.5148C257.254 -43.4767 257.253 -43.4382 257.257 -43.3998C257.287 -43.1491 257.289 -42.8901 257.245 -42.6281L253.412 -19.7842L272.093 -15.135C272.667 -15.1013 273.222 -14.7524 273.563 -14.1234C274.131 -13.0753 273.895 -11.6647 273.034 -10.9722L248.424 8.82758C247.563 9.52001 246.405 9.23172 245.836 8.18359C245.785 8.08908 245.748 7.98877 245.709 7.88898C245.696 7.85449 245.678 7.82316 245.666 7.78762C245.644 7.72285 245.633 7.65545 245.616 7.58911C245.596 7.51091 245.573 7.43482 245.56 7.35399C245.554 7.31555 245.555 7.27712 245.551 7.23868C245.521 6.98803 245.519 6.72923 245.563 6.467L249.396 -16.3769L230.715 -21.0261C230.141 -21.0598 229.586 -21.4084 229.245 -22.0377C228.677 -23.0858 228.913 -24.4965 229.774 -25.1889L254.384 -44.9887C255.245 -45.6811 256.403 -45.3926 256.971 -44.3447Z" fill="#EAEAEA" fill-opacity="0.25"/>
</g>
<mask id="mask2_240_2943" style="mask-type:luminance" maskUnits="userSpaceOnUse" x="-46" y="-102" width="467" height="1012">
<path d="M420.967 909L420.967 -102L-46 -102L-46 909L420.967 909Z" fill="white"/>
</mask>
<g mask="url(#mask2_240_2943)">
<path d="M273.355 289.091L279.566 325.414L306.703 308.521L300.492 272.198L273.355 289.091ZM307.329 308.549L327.767 335.821L321.586 299.674L301.148 272.401L307.329 308.549ZM279.842 326.074L300.381 353.48L327.518 336.587L306.979 309.181L279.842 326.074ZM300.584 271.311C300.588 271.309 300.592 271.307 300.596 271.305C300.611 271.298 300.627 271.291 300.643 271.287C300.644 271.287 300.645 271.286 300.646 271.286C300.648 271.285 300.65 271.286 300.652 271.285C300.661 271.283 300.67 271.28 300.679 271.279C300.686 271.271 300.691 271.261 300.698 271.253C300.823 271.116 301.015 271.126 301.128 271.277L322.09 299.248C322.097 299.257 322.101 299.267 322.107 299.276C322.112 299.283 322.116 299.29 322.12 299.298C322.126 299.309 322.131 299.32 322.136 299.331C322.141 299.343 322.145 299.354 322.149 299.366C322.152 299.375 322.154 299.384 322.156 299.392C322.158 299.403 322.162 299.414 322.164 299.425L328.504 336.499C328.538 336.699 328.433 336.895 328.268 336.937C328.258 336.94 328.248 336.94 328.239 336.941C328.235 336.945 328.231 336.95 328.228 336.954C328.223 336.959 328.22 336.965 328.216 336.97C328.214 336.972 328.212 336.973 328.209 336.976C328.201 336.984 328.192 336.992 328.183 337C328.174 337.007 328.166 337.014 328.158 337.019C328.155 337.021 328.152 337.024 328.15 337.026L300.462 354.262C300.458 354.265 300.453 354.266 300.449 354.268C300.33 354.341 300.182 354.314 300.088 354.188L279.127 326.217C279.123 326.213 279.121 326.207 279.118 326.203C279.114 326.197 279.11 326.191 279.106 326.185C279.103 326.179 279.099 326.173 279.096 326.167C279.092 326.16 279.088 326.152 279.085 326.144C279.083 326.14 279.081 326.137 279.079 326.133C279.077 326.13 279.077 326.126 279.076 326.122C279.073 326.115 279.07 326.107 279.068 326.099C279.066 326.093 279.064 326.087 279.062 326.081C279.06 326.071 279.057 326.061 279.055 326.05C279.054 326.047 279.053 326.043 279.052 326.04L272.712 288.966C272.685 288.805 272.749 288.647 272.861 288.57C272.868 288.565 272.874 288.559 272.882 288.554L300.57 271.318C300.574 271.315 300.579 271.314 300.584 271.311Z" fill="#0F1B1B" fill-opacity="0.07"/>
<path d="M372.999 658.047L399.466 639.67L377.916 613.425L351.449 631.802L372.999 658.047ZM377.745 612.691L392.762 580.616L366.423 598.903L351.407 630.979L377.745 612.691ZM399.897 639.147L414.987 606.913L393.437 580.668L378.346 612.902L399.897 639.147ZM350.728 631.968C350.725 631.964 350.723 631.96 350.72 631.956C350.709 631.94 350.699 631.924 350.691 631.906C350.69 631.905 350.69 631.905 350.689 631.904C350.688 631.901 350.688 631.899 350.687 631.897C350.682 631.887 350.678 631.877 350.674 631.867C350.665 631.862 350.656 631.859 350.648 631.853C350.502 631.752 350.451 631.525 350.534 631.348L365.935 598.45C365.94 598.44 365.947 598.431 365.952 598.422C365.956 598.414 365.96 598.407 365.965 598.4C365.972 598.39 365.979 598.38 365.987 598.372C365.994 598.363 366.001 598.354 366.009 598.345C366.015 598.34 366.022 598.335 366.028 598.33C366.036 598.323 366.043 598.315 366.051 598.309L393.064 579.553C393.21 579.452 393.396 579.514 393.479 579.691C393.484 579.702 393.487 579.714 393.491 579.725C393.496 579.727 393.5 579.731 393.505 579.734C393.51 579.736 393.516 579.738 393.52 579.742C393.523 579.744 393.525 579.746 393.527 579.748C393.537 579.755 393.546 579.763 393.554 579.771C393.562 579.779 393.57 579.786 393.577 579.794C393.58 579.797 393.583 579.799 393.585 579.801L415.573 606.579C415.576 606.583 415.578 606.588 415.581 606.592C415.675 606.707 415.699 606.887 415.63 607.034L400.229 639.932C400.226 639.937 400.223 639.942 400.22 639.947C400.217 639.953 400.213 639.959 400.21 639.965C400.206 639.971 400.203 639.977 400.199 639.983C400.194 639.99 400.189 639.997 400.184 640.003C400.182 640.006 400.18 640.01 400.178 640.013C400.175 640.016 400.173 640.018 400.17 640.02C400.165 640.026 400.16 640.032 400.155 640.037C400.151 640.041 400.146 640.045 400.142 640.048C400.135 640.055 400.128 640.061 400.121 640.067C400.118 640.068 400.116 640.071 400.113 640.073L373.1 658.829C372.982 658.911 372.84 658.885 372.745 658.779C372.739 658.773 372.732 658.767 372.726 658.76L350.738 631.983C350.734 631.978 350.731 631.973 350.728 631.968Z" fill="#0F1B1B" fill-opacity="0.07"/>
<path d="M107.58 -62.9051L113.792 -26.5818L140.929 -43.475L134.717 -79.7983L107.58 -62.9051ZM141.554 -43.447L161.993 -16.1748L155.811 -52.3223L135.373 -79.5945L141.554 -43.447ZM114.068 -25.9223L134.607 1.48453L161.744 -15.4087L141.205 -42.8154L114.068 -25.9223ZM134.809 -80.685C134.813 -80.6871 134.817 -80.6887 134.821 -80.6905C134.837 -80.6984 134.853 -80.7048 134.869 -80.709C134.87 -80.7092 134.871 -80.7098 134.872 -80.71C134.874 -80.7106 134.876 -80.7106 134.878 -80.7108C134.887 -80.7129 134.896 -80.7156 134.905 -80.7166C134.912 -80.7253 134.917 -80.7345 134.924 -80.7427C135.048 -80.8804 135.24 -80.8698 135.354 -80.7187L156.315 -52.7477C156.322 -52.739 156.327 -52.729 156.333 -52.7198C156.337 -52.7127 156.342 -52.7056 156.346 -52.698C156.352 -52.6872 156.357 -52.6758 156.361 -52.6645C156.366 -52.6532 156.371 -52.6419 156.375 -52.6298C156.377 -52.6211 156.379 -52.6124 156.381 -52.6037C156.384 -52.5926 156.388 -52.5821 156.39 -52.5705L162.73 -15.4968C162.764 -15.2968 162.658 -15.1006 162.494 -15.059C162.484 -15.0564 162.474 -15.0564 162.464 -15.0553C162.461 -15.0506 162.457 -15.0464 162.453 -15.0419C162.449 -15.0369 162.446 -15.0314 162.442 -15.0264C162.439 -15.024 162.437 -15.0227 162.435 -15.0203C162.426 -15.0116 162.417 -15.004 162.408 -14.9961C162.4 -14.9892 162.392 -14.9824 162.383 -14.9766C162.38 -14.9748 162.378 -14.9721 162.375 -14.9703L134.687 2.26595C134.683 2.26831 134.679 2.26963 134.675 2.272C134.556 2.34467 134.408 2.31755 134.314 2.19223L113.352 -25.7788C113.349 -25.7832 113.347 -25.7885 113.343 -25.7933C113.339 -25.799 113.336 -25.8051 113.332 -25.8109C113.329 -25.8167 113.325 -25.8225 113.322 -25.8285C113.318 -25.8364 113.314 -25.8441 113.31 -25.8522C113.308 -25.8559 113.306 -25.8591 113.305 -25.8628C113.303 -25.8664 113.302 -25.8704 113.301 -25.8741C113.298 -25.8815 113.296 -25.8891 113.293 -25.897C113.291 -25.903 113.289 -25.9088 113.288 -25.9149C113.285 -25.9252 113.282 -25.9354 113.28 -25.9457C113.28 -25.9494 113.278 -25.9525 113.278 -25.956L106.938 -63.0296C106.91 -63.191 106.975 -63.3485 107.086 -63.4256C107.093 -63.4311 107.1 -63.4375 107.107 -63.4422L134.795 -80.6782C134.8 -80.6813 134.805 -80.6824 134.809 -80.685Z" fill="#0F1B1B" fill-opacity="0.07"/>
<path d="M30.9845 461.448L22.9397 497.233H53.4164L61.4612 461.448H30.9845ZM53.9632 497.605L61.9691 533.218L69.975 497.605L61.9691 461.993L53.9632 497.605ZM22.9391 497.974L30.9843 533.762H61.461L53.4158 497.974H22.9391ZM61.8748 460.709C61.8789 460.71 61.883 460.71 61.8873 460.711C61.9042 460.713 61.9206 460.716 61.9366 460.721C61.9377 460.721 61.9386 460.721 61.9397 460.722C61.9416 460.722 61.9433 460.723 61.9453 460.724C61.9541 460.727 61.9632 460.73 61.9717 460.734C61.9805 460.73 61.9889 460.725 61.9985 460.722C62.1604 460.667 62.3275 460.784 62.3718 460.981L70.5829 497.506C70.5855 497.517 70.5859 497.529 70.5876 497.54C70.5889 497.549 70.5904 497.558 70.5913 497.567C70.5924 497.58 70.5924 497.593 70.5924 497.605C70.5924 497.618 70.5924 497.631 70.5913 497.644C70.5904 497.653 70.5889 497.662 70.5876 497.671C70.5859 497.682 70.5855 497.693 70.5829 497.705L62.3718 534.23C62.3275 534.427 62.1604 534.543 61.9985 534.489C61.9885 534.486 61.9799 534.48 61.9706 534.476C61.9656 534.478 61.9606 534.48 61.9557 534.482C61.9503 534.484 61.9453 534.487 61.9397 534.489C61.9369 534.49 61.934 534.49 61.9314 534.491C61.9206 534.494 61.9096 534.496 61.8986 534.498C61.8886 534.499 61.8789 534.501 61.8692 534.501C61.8659 534.501 61.8629 534.502 61.8595 534.502H30.764C30.7595 534.502 30.7551 534.501 30.7506 534.501C30.6176 534.5 30.4959 534.394 30.4592 534.23L22.2481 497.705C22.2468 497.699 22.2468 497.693 22.2457 497.687C22.2444 497.68 22.2434 497.672 22.2425 497.665C22.2414 497.658 22.2403 497.651 22.2397 497.644C22.239 497.634 22.2386 497.626 22.2384 497.616C22.2382 497.612 22.2373 497.608 22.2373 497.604C22.2373 497.6 22.2382 497.596 22.2384 497.592C22.2386 497.584 22.239 497.575 22.2397 497.567C22.2403 497.56 22.2412 497.554 22.2418 497.548C22.2434 497.537 22.2447 497.527 22.2468 497.517C22.2475 497.513 22.2475 497.509 22.2481 497.506L30.4592 460.981C30.4948 460.822 30.6107 460.717 30.7391 460.71C30.7476 460.71 30.7556 460.707 30.764 460.707H61.8595C61.8646 460.707 61.8696 460.709 61.8748 460.709Z" fill="#0F1B1B" fill-opacity="0.07"/>
</g>
<mask id="mask3_240_2943" style="mask-type:luminance" maskUnits="userSpaceOnUse" x="-46" y="-102" width="467" height="1012">
<path d="M420.967 909L420.967 -102L-46 -102L-46 909L420.967 909Z" fill="white"/>
</mask>
<g mask="url(#mask3_240_2943)">
<path d="M374.715 321.602V303.121C374.715 302.453 374.271 301.911 373.722 301.911H373.095C372.546 301.911 372.102 302.453 372.102 303.121V321.602C372.102 322.27 372.546 322.812 373.095 322.812H373.722C374.271 322.812 374.715 322.27 374.715 321.602Z" fill="#EAEAEA" fill-opacity="0.25"/>
<path d="M373.409 298.647C374.13 298.647 374.716 297.934 374.716 297.055C374.716 296.176 374.13 295.464 373.409 295.464C372.687 295.464 372.102 296.176 372.102 297.055C372.102 297.934 372.687 298.647 373.409 298.647Z" fill="#EAEAEA" fill-opacity="0.25"/>
<path d="M11.0041 238.904L11.0041 220.423C11.0041 219.755 10.5592 219.214 10.0105 219.214H9.38374C8.83484 219.214 8.39014 219.755 8.39014 220.423L8.39014 238.904C8.39014 239.573 8.83484 240.115 9.38374 240.115H10.0105C10.5592 240.115 11.0041 239.573 11.0041 238.904Z" fill="#EAEAEA" fill-opacity="0.25"/>
<path d="M6.06706 250.931L6.06706 232.45C6.06706 231.782 5.62214 231.24 5.07346 231.24H4.44673C3.89782 231.24 3.45313 231.782 3.45313 232.45L3.45313 250.931C3.45312 251.599 3.89782 252.141 4.44673 252.141H5.07346C5.62214 252.141 6.06706 251.599 6.06706 250.931Z" fill="#EAEAEA" fill-opacity="0.25"/>
<path d="M1.12907 262.072L1.12907 243.591C1.12907 242.923 0.684155 242.382 0.135469 242.382H-0.491261C-1.04016 242.382 -1.48486 242.923 -1.48486 243.591L-1.48486 262.072C-1.48486 262.741 -1.04016 263.282 -0.491261 263.282H0.135469C0.684155 263.282 1.12907 262.741 1.12907 262.072Z" fill="#EAEAEA" fill-opacity="0.25"/>
<path d="M4.75971 226.443C5.48157 226.443 6.06679 225.73 6.06679 224.851C6.06679 223.972 5.48157 223.259 4.75971 223.259C4.03786 223.259 3.45264 223.972 3.45264 224.851C3.45264 225.73 4.03786 226.443 4.75971 226.443Z" fill="#EAEAEA" fill-opacity="0.25"/>
<path d="M-0.177788 239.117C0.544065 239.117 1.12929 238.404 1.12929 237.525C1.12929 236.646 0.544065 235.934 -0.177788 235.934C-0.899641 235.934 -1.48486 236.646 -1.48486 237.525C-1.48486 238.404 -0.899641 239.117 -0.177788 239.117Z" fill="#EAEAEA" fill-opacity="0.25"/>
<path d="M9.69721 247.484C10.4191 247.484 11.0043 246.771 11.0043 245.892C11.0043 245.013 10.4191 244.3 9.69721 244.3C8.97536 244.3 8.39014 245.013 8.39014 245.892C8.39014 246.771 8.97536 247.484 9.69721 247.484Z" fill="#EAEAEA" fill-opacity="0.25"/>
<path d="M4.75971 259.981C5.48157 259.981 6.06679 259.268 6.06679 258.389C6.06679 257.51 5.48157 256.798 4.75971 256.798C4.03786 256.798 3.45264 257.51 3.45264 258.389C3.45264 259.268 4.03786 259.981 4.75971 259.981Z" fill="#EAEAEA" fill-opacity="0.25"/>
</g>
<mask id="mask4_240_2943" style="mask-type:luminance" maskUnits="userSpaceOnUse" x="-46" y="-102" width="467" height="1012">
<path d="M420.967 909L420.967 -102L-46 -102L-46 909L420.967 909Z" fill="white"/>
</mask>
<g mask="url(#mask4_240_2943)">
<path d="M116.536 423.762L120.014 415.407L113.154 411.171L116.536 423.762ZM126.341 405.836L122.862 414.19L129.722 418.426L126.341 405.836ZM111.156 407.623C111.203 407.604 111.251 407.595 111.298 407.585C111.315 407.582 111.331 407.575 111.347 407.572C111.377 407.568 111.407 407.57 111.438 407.569C111.473 407.568 111.509 407.564 111.545 407.567C111.562 407.569 111.578 407.575 111.594 407.578C111.704 407.595 111.814 407.63 111.918 407.694L121.003 413.304L125.591 402.285C125.686 401.931 125.911 401.634 126.224 401.509C126.746 401.302 127.307 401.648 127.477 402.283L132.356 420.448C132.526 421.083 132.242 421.766 131.72 421.974C131.673 421.993 131.626 422.002 131.578 422.012C131.562 422.015 131.546 422.022 131.529 422.025C131.499 422.029 131.469 422.027 131.439 422.028C131.403 422.029 131.368 422.033 131.332 422.03C131.315 422.028 131.299 422.022 131.282 422.02C131.172 422.003 131.063 421.968 130.958 421.903L121.873 416.293L117.285 427.312C117.19 427.666 116.965 427.963 116.652 428.088C116.131 428.296 115.57 427.949 115.399 427.314L110.521 409.149C110.35 408.514 110.635 407.831 111.156 407.623Z" fill="#D9D9D9" fill-opacity="0.25"/>
<path d="M186.202 455.827L194.845 476.418C195.094 477.013 195.693 477.249 196.182 476.945C196.67 476.641 196.864 475.912 196.614 475.317L187.971 454.726C187.721 454.131 187.123 453.895 186.634 454.199C186.146 454.503 185.952 455.232 186.202 455.827Z" fill="#D9D9D9" fill-opacity="0.25"/>
<path d="M182.467 458.152L191.109 478.743C191.359 479.338 191.958 479.574 192.446 479.27C192.935 478.966 193.128 478.237 192.879 477.641L184.236 457.051C183.986 456.456 183.387 456.22 182.899 456.524C182.41 456.828 182.217 457.557 182.467 458.152Z" fill="#D9D9D9" fill-opacity="0.25"/>
<path d="M178.731 460.478L187.374 481.069C187.624 481.664 188.222 481.899 188.711 481.595C189.199 481.291 189.393 480.562 189.143 479.967L180.5 459.376C180.251 458.781 179.652 458.546 179.164 458.85C178.675 459.154 178.481 459.883 178.731 460.478Z" fill="#D9D9D9" fill-opacity="0.25"/>
<path d="M174.996 462.803L183.639 483.394C183.889 483.989 184.487 484.224 184.976 483.92C185.465 483.616 185.658 482.887 185.408 482.292L176.766 461.701C176.516 461.106 175.917 460.871 175.429 461.175C174.94 461.479 174.747 462.208 174.996 462.803Z" fill="#D9D9D9" fill-opacity="0.25"/>
<path d="M171.261 465.128L179.904 485.719C180.153 486.314 180.752 486.549 181.241 486.245C181.729 485.941 181.923 485.212 181.673 484.617L173.03 464.027C172.781 463.431 172.182 463.196 171.693 463.5C171.205 463.804 171.011 464.533 171.261 465.128Z" fill="#D9D9D9" fill-opacity="0.25"/>
<path d="M167.526 467.453L176.168 488.044C176.418 488.639 177.017 488.875 177.505 488.571C177.994 488.267 178.187 487.538 177.938 486.943L169.295 466.352C169.045 465.757 168.447 465.521 167.958 465.825C167.469 466.129 167.276 466.858 167.526 467.453Z" fill="#D9D9D9" fill-opacity="0.25"/>
<path d="M163.791 469.779L172.434 490.37C172.683 490.965 173.282 491.2 173.77 490.896C174.259 490.592 174.452 489.863 174.203 489.268L165.56 468.677C165.31 468.082 164.712 467.846 164.223 468.15C163.735 468.455 163.541 469.184 163.791 469.779Z" fill="#D9D9D9" fill-opacity="0.25"/>
<path d="M160.055 472.104L168.698 492.695C168.947 493.29 169.546 493.526 170.035 493.222C170.523 492.918 170.717 492.189 170.467 491.594L161.824 471.003C161.574 470.408 160.976 470.172 160.487 470.476C159.999 470.78 159.805 471.509 160.055 472.104Z" fill="#D9D9D9" fill-opacity="0.25"/>
<path d="M156.32 474.429L164.963 495.02C165.212 495.615 165.811 495.851 166.3 495.547C166.788 495.243 166.982 494.514 166.732 493.919L158.089 473.328C157.84 472.733 157.241 472.497 156.752 472.801C156.264 473.105 156.07 473.834 156.32 474.429Z" fill="#D9D9D9" fill-opacity="0.25"/>
<path d="M152.585 476.755L161.227 497.346C161.477 497.941 162.076 498.176 162.564 497.872C163.053 497.568 163.246 496.839 162.997 496.244L154.354 475.653C154.104 475.058 153.506 474.822 153.017 475.127C152.528 475.431 152.335 476.16 152.585 476.755Z" fill="#D9D9D9" fill-opacity="0.25"/>
<path d="M148.849 479.08L157.492 499.671C157.742 500.266 158.34 500.502 158.829 500.197C159.318 499.893 159.511 499.164 159.261 498.569L150.619 477.979C150.369 477.384 149.77 477.148 149.282 477.452C148.793 477.756 148.6 478.485 148.849 479.08Z" fill="#D9D9D9" fill-opacity="0.25"/>
<path d="M251.431 493.274L242.999 484.558C242.581 484.126 241.954 484.188 241.599 484.698C241.244 485.207 241.295 485.971 241.713 486.403L250.145 495.119C250.563 495.552 251.19 495.489 251.545 494.98C251.9 494.47 251.849 493.707 251.431 493.274Z" fill="#D9D9D9" fill-opacity="0.25"/>
<path d="M254.725 502.675L246.294 493.959C245.875 493.527 245.248 493.589 244.893 494.099C244.538 494.608 244.59 495.372 245.008 495.804L253.439 504.52C253.858 504.953 254.485 504.89 254.84 504.381C255.195 503.871 255.144 503.107 254.725 502.675Z" fill="#D9D9D9" fill-opacity="0.25"/>
<path d="M257.598 511.641L249.167 502.925C248.748 502.493 248.121 502.555 247.766 503.065C247.411 503.574 247.463 504.338 247.881 504.77L256.312 513.486C256.731 513.918 257.358 513.856 257.713 513.347C258.068 512.837 258.017 512.073 257.598 511.641Z" fill="#D9D9D9" fill-opacity="0.25"/>
<path d="M242.61 491.739C242.965 491.229 242.914 490.466 242.496 490.033C242.078 489.601 241.451 489.663 241.096 490.173C240.74 490.682 240.792 491.446 241.21 491.878C241.628 492.31 242.255 492.248 242.61 491.739Z" fill="#D9D9D9" fill-opacity="0.25"/>
<path d="M246.213 501.458C246.569 500.949 246.517 500.185 246.099 499.753C245.681 499.32 245.054 499.383 244.699 499.892C244.343 500.402 244.395 501.165 244.813 501.598C245.231 502.03 245.858 501.968 246.213 501.458Z" fill="#D9D9D9" fill-opacity="0.25"/>
<path d="M255.052 498.605C255.408 498.095 255.356 497.332 254.938 496.899C254.519 496.467 253.892 496.529 253.537 497.039C253.182 497.548 253.234 498.312 253.652 498.744C254.07 499.177 254.697 499.114 255.052 498.605Z" fill="#D9D9D9" fill-opacity="0.25"/>
<path d="M258.571 508.238C258.926 507.728 258.875 506.965 258.456 506.532C258.038 506.1 257.411 506.162 257.056 506.672C256.701 507.181 256.752 507.945 257.17 508.377C257.589 508.81 258.216 508.747 258.571 508.238Z" fill="#D9D9D9" fill-opacity="0.25"/>
<path d="M209.27 337.075L194.146 338.581C193.599 338.635 193.192 339.219 193.236 339.885L193.287 340.646C193.332 341.312 193.812 341.808 194.359 341.754L209.483 340.247C210.03 340.193 210.437 339.609 210.393 338.943L210.342 338.182C210.297 337.516 209.817 337.02 209.27 337.075Z" fill="#D9D9D9" fill-opacity="0.25"/>
<path d="M219.515 342.088L204.39 343.594C203.843 343.648 203.436 344.232 203.481 344.898L203.532 345.659C203.577 346.325 204.056 346.821 204.603 346.767L219.728 345.26C220.275 345.206 220.682 344.622 220.637 343.956L220.586 343.195C220.541 342.529 220.062 342.033 219.515 342.088Z" fill="#D9D9D9" fill-opacity="0.25"/>
<path d="M229.035 347.172L213.911 348.679C213.364 348.733 212.957 349.317 213.001 349.983L213.052 350.744C213.097 351.41 213.577 351.906 214.124 351.851L229.248 350.345C229.795 350.291 230.202 349.707 230.158 349.041L230.107 348.28C230.062 347.614 229.582 347.118 229.035 347.172Z" fill="#D9D9D9" fill-opacity="0.25"/>
<path d="M199.58 345.67C199.522 344.793 198.891 344.141 198.171 344.213C197.452 344.285 196.916 345.053 196.975 345.929C197.034 346.805 197.665 347.457 198.384 347.386C199.104 347.314 199.639 346.546 199.58 345.67Z" fill="#D9D9D9" fill-opacity="0.25"/>
<path d="M210.356 350.63C210.297 349.753 209.666 349.101 208.947 349.173C208.227 349.245 207.692 350.013 207.751 350.889C207.809 351.765 208.44 352.417 209.16 352.346C209.879 352.274 210.415 351.506 210.356 350.63Z" fill="#D9D9D9" fill-opacity="0.25"/>
<path d="M216.398 337.962C216.339 337.085 215.708 336.433 214.989 336.505C214.269 336.577 213.734 337.345 213.793 338.221C213.851 339.097 214.482 339.749 215.202 339.678C215.921 339.606 216.457 338.838 216.398 337.962Z" fill="#D9D9D9" fill-opacity="0.25"/>
<path d="M227.028 342.936C226.969 342.06 226.339 341.408 225.619 341.48C224.9 341.551 224.364 342.319 224.423 343.196C224.482 344.072 225.113 344.724 225.832 344.652C226.551 344.581 227.087 343.812 227.028 342.936Z" fill="#D9D9D9" fill-opacity="0.25"/>
<path d="M272.459 419.263C270.099 416.987 266.67 417.473 264.801 420.348C262.932 423.223 263.33 427.398 265.691 429.674C268.052 431.951 271.481 431.465 273.35 428.59C275.219 425.715 274.82 421.539 272.459 419.263Z" fill="#D9D9D9" fill-opacity="0.25"/>
<path d="M174.221 354.984L174.957 356.197C176.549 358.819 176.094 362.516 173.941 364.454L160.323 376.716C158.17 378.654 155.134 378.1 153.542 375.478L143.474 358.893C141.882 356.271 142.337 352.574 144.49 350.635L145.486 349.739C146.931 348.438 147.236 345.958 146.168 344.198L145.432 342.985C143.84 340.363 144.295 336.666 146.448 334.728L160.067 322.467C162.22 320.528 165.255 321.082 166.847 323.704L176.915 340.289C178.507 342.911 178.052 346.608 175.899 348.547L174.903 349.443C173.458 350.744 173.153 353.225 174.221 354.984Z" stroke="#0F1B1B" stroke-opacity="0.07" stroke-width="2.6124" stroke-miterlimit="10"/>
<path d="M163.742 362.036L156.389 368.657C155.321 369.618 155.096 371.452 155.885 372.752L161.321 381.707C162.111 383.008 163.617 383.283 164.685 382.321L172.038 375.701C173.106 374.739 173.331 372.905 172.542 371.605L167.106 362.65C166.316 361.35 164.81 361.075 163.742 362.036Z" fill="#D9D9D9" fill-opacity="0.25"/>
<path d="M43.1824 601.542L28.0577 603.048C27.5107 603.103 27.1036 603.687 27.1484 604.353L27.1994 605.114C27.2442 605.78 27.7239 606.276 28.2706 606.221L43.3954 604.715C43.9423 604.66 44.3494 604.076 44.3047 603.41L44.2536 602.649C44.2089 601.983 43.7294 601.488 43.1824 601.542Z" fill="#D9D9D9" fill-opacity="0.25"/>
<path d="M53.4266 606.555L38.3018 608.062C37.7549 608.116 37.3478 608.7 37.3925 609.366L37.4435 610.127C37.4883 610.793 37.968 611.289 38.5148 611.234L53.6395 609.728C54.1865 609.674 54.5936 609.09 54.5488 608.424L54.4978 607.663C54.453 606.997 53.9735 606.501 53.4266 606.555Z" fill="#D9D9D9" fill-opacity="0.25"/>
<path d="M62.9476 611.64L47.8228 613.146C47.2759 613.201 46.8688 613.785 46.9135 614.451L46.9645 615.212C47.0093 615.878 47.489 616.374 48.0358 616.319L63.1605 614.813C63.7075 614.759 64.1146 614.175 64.0698 613.508L64.0188 612.748C63.974 612.081 63.4945 611.586 62.9476 611.64Z" fill="#D9D9D9" fill-opacity="0.25"/>
<path d="M33.492 610.137C33.4332 609.261 32.8024 608.609 32.0829 608.681C31.3634 608.752 30.8279 609.521 30.8867 610.397C30.9455 611.273 31.5766 611.925 32.2959 611.854C33.0153 611.782 33.5508 611.014 33.492 610.137Z" fill="#D9D9D9" fill-opacity="0.25"/>
<path d="M44.2674 615.097C44.2086 614.221 43.5778 613.569 42.8583 613.641C42.1388 613.712 41.6033 614.481 41.6621 615.357C41.7209 616.233 42.3518 616.885 43.0712 616.813C43.7907 616.742 44.3262 615.974 44.2674 615.097Z" fill="#D9D9D9" fill-opacity="0.25"/>
<path d="M50.3094 602.43C50.2506 601.553 49.6198 600.901 48.9003 600.973C48.1808 601.045 47.6453 601.813 47.7041 602.689C47.7629 603.565 48.3938 604.217 49.1132 604.146C49.8327 604.074 50.3682 603.306 50.3094 602.43Z" fill="#D9D9D9" fill-opacity="0.25"/>
<path d="M60.9403 607.404C60.8815 606.528 60.2506 605.876 59.5312 605.947C58.8117 606.019 58.2762 606.787 58.335 607.663C58.3938 608.54 59.0246 609.192 59.7441 609.12C60.4636 609.048 60.9991 608.28 60.9403 607.404Z" fill="#D9D9D9" fill-opacity="0.25"/>
<path d="M19.1137 579.333L19.8501 580.546C21.4418 583.168 20.9868 586.865 18.8337 588.803L5.21517 601.064C3.06215 603.003 0.0264367 602.449 -1.56536 599.827L-11.6335 583.242C-13.2253 580.62 -12.7702 576.923 -10.6172 574.984L-9.62119 574.088C-8.17662 572.787 -7.87136 570.306 -8.93933 568.547L-9.67567 567.334C-11.2675 564.712 -10.8124 561.015 -8.65936 559.077L4.95921 546.815C7.11223 544.877 10.1479 545.431 11.7397 548.053L21.8079 564.638C23.3996 567.26 22.9446 570.957 20.7916 572.895L19.7956 573.792C18.351 575.093 18.0457 577.573 19.1137 579.333Z" stroke="#0F1B1B" stroke-opacity="0.07" stroke-width="1.3062" stroke-miterlimit="10"/>
<path d="M310.11 412.17L310.847 413.383C312.438 416.005 311.983 419.702 309.83 421.64L296.212 433.901C294.059 435.84 291.023 435.286 289.431 432.664L279.363 416.079C277.771 413.457 278.226 409.76 280.379 407.821L281.375 406.925C282.82 405.624 283.125 403.143 282.057 401.384L281.321 400.171C279.729 397.549 280.184 393.852 282.337 391.914L295.956 379.652C298.109 377.714 301.145 378.268 302.736 380.89L312.804 397.475C314.396 400.097 313.941 403.794 311.788 405.733L310.792 406.629C309.348 407.93 309.042 410.41 310.11 412.17Z" stroke="#0F1B1B" stroke-opacity="0.07" stroke-width="1.3062" stroke-miterlimit="10"/>
<path d="M254.785 110.491L258.264 102.137L251.404 97.9005L254.785 110.491ZM264.59 92.5656L261.112 100.92L267.972 105.156L264.59 92.5656ZM249.406 94.353C249.453 94.3344 249.5 94.3251 249.548 94.3151C249.564 94.3117 249.58 94.3049 249.596 94.3022C249.627 94.2978 249.657 94.3001 249.687 94.2991C249.723 94.2978 249.758 94.2938 249.794 94.297C249.811 94.2988 249.827 94.3049 249.844 94.3075C249.954 94.3246 250.063 94.3596 250.167 94.4239L259.252 100.034L263.84 89.0153C263.936 88.6612 264.16 88.3639 264.473 88.2391C264.995 88.0314 265.556 88.3779 265.727 89.0129L270.605 107.178C270.776 107.813 270.491 108.496 269.97 108.704C269.923 108.723 269.875 108.732 269.828 108.742C269.811 108.745 269.795 108.752 269.779 108.755C269.748 108.759 269.718 108.757 269.688 108.758C269.652 108.759 269.617 108.763 269.581 108.76C269.564 108.758 269.548 108.752 269.531 108.75C269.422 108.732 269.312 108.697 269.208 108.633L260.123 103.023L255.535 114.041C255.44 114.396 255.215 114.693 254.902 114.818C254.38 115.026 253.819 114.679 253.649 114.044L248.77 95.8793C248.6 95.244 248.884 94.5608 249.406 94.353Z" fill="#D9D9D9" fill-opacity="0.25"/>
<path d="M324.451 142.557L333.094 163.148C333.344 163.743 333.942 163.978 334.431 163.674C334.92 163.37 335.113 162.641 334.863 162.046L326.221 141.455C325.971 140.86 325.372 140.625 324.884 140.929C324.395 141.233 324.202 141.962 324.451 142.557Z" fill="#D9D9D9" fill-opacity="0.25"/>
<path d="M320.717 144.882L329.359 165.473C329.609 166.068 330.208 166.304 330.696 166C331.185 165.696 331.378 164.966 331.129 164.371L322.486 143.781C322.236 143.186 321.637 142.95 321.149 143.254C320.66 143.558 320.467 144.287 320.717 144.882Z" fill="#D9D9D9" fill-opacity="0.25"/>
<path d="M316.981 147.207L325.624 167.798C325.874 168.393 326.472 168.629 326.961 168.325C327.449 168.02 327.643 167.291 327.393 166.696L318.75 146.106C318.501 145.511 317.902 145.275 317.414 145.579C316.925 145.883 316.731 146.612 316.981 147.207Z" fill="#D9D9D9" fill-opacity="0.25"/>
<path d="M313.246 149.533L321.889 170.124C322.138 170.719 322.737 170.954 323.225 170.65C323.714 170.346 323.908 169.617 323.658 169.022L315.015 148.431C314.765 147.836 314.167 147.6 313.678 147.904C313.19 148.209 312.996 148.938 313.246 149.533Z" fill="#D9D9D9" fill-opacity="0.25"/>
<path d="M309.51 151.857L318.153 172.448C318.403 173.043 319.002 173.279 319.49 172.975C319.979 172.671 320.172 171.942 319.923 171.347L311.28 150.756C311.03 150.161 310.431 149.925 309.943 150.229C309.454 150.533 309.261 151.262 309.51 151.857Z" fill="#D9D9D9" fill-opacity="0.25"/>
<path d="M305.775 154.183L314.418 174.774C314.668 175.369 315.266 175.605 315.755 175.3C316.243 174.996 316.437 174.267 316.187 173.672L307.544 153.081C307.295 152.486 306.696 152.251 306.207 152.555C305.719 152.859 305.525 153.588 305.775 154.183Z" fill="#D9D9D9" fill-opacity="0.25"/>
<path d="M302.04 156.508L310.683 177.099C310.932 177.694 311.531 177.93 312.019 177.626C312.508 177.322 312.702 176.593 312.452 175.998L303.809 155.407C303.559 154.812 302.961 154.576 302.472 154.88C301.984 155.184 301.79 155.913 302.04 156.508Z" fill="#D9D9D9" fill-opacity="0.25"/>
<path d="M298.304 158.834L306.947 179.425C307.197 180.02 307.795 180.255 308.284 179.951C308.773 179.647 308.966 178.918 308.716 178.323L300.074 157.732C299.824 157.137 299.225 156.901 298.737 157.205C298.248 157.51 298.055 158.239 298.304 158.834Z" fill="#D9D9D9" fill-opacity="0.25"/>
<path d="M294.57 161.159L303.212 181.75C303.462 182.345 304.061 182.581 304.549 182.276C305.038 181.972 305.231 181.243 304.982 180.648L296.339 160.058C296.089 159.463 295.49 159.227 295.002 159.531C294.513 159.835 294.32 160.564 294.57 161.159Z" fill="#D9D9D9" fill-opacity="0.25"/>
<path d="M290.834 163.484L299.477 184.075C299.727 184.67 300.325 184.906 300.814 184.602C301.302 184.298 301.496 183.569 301.246 182.974L292.603 162.383C292.354 161.788 291.755 161.552 291.267 161.856C290.778 162.16 290.584 162.889 290.834 163.484Z" fill="#D9D9D9" fill-opacity="0.25"/>
<path d="M287.099 165.809L295.742 186.4C295.991 186.995 296.59 187.231 297.079 186.927C297.567 186.623 297.761 185.894 297.511 185.299L288.868 164.708C288.618 164.113 288.02 163.877 287.531 164.181C287.043 164.485 286.849 165.214 287.099 165.809Z" fill="#D9D9D9" fill-opacity="0.25"/>
<path d="M347.52 23.8042L332.395 25.3104C331.848 25.3649 331.441 25.9489 331.486 26.615L331.537 27.3758C331.582 28.0419 332.061 28.5377 332.608 28.4832L347.733 26.977C348.28 26.9225 348.687 26.3383 348.642 25.6724L348.591 24.9115C348.546 24.2454 348.067 23.7497 347.52 23.8042Z" fill="#D9D9D9" fill-opacity="0.25"/>
<path d="M357.764 28.817L342.64 30.3232C342.093 30.3777 341.686 30.9617 341.73 31.6278L341.781 32.3887C341.826 33.0548 342.306 33.5505 342.853 33.496L357.977 31.9898C358.524 31.9353 358.931 31.3513 358.887 30.6852L358.836 29.9244C358.791 29.2583 358.311 28.7625 357.764 28.817Z" fill="#D9D9D9" fill-opacity="0.25"/>
<path d="M367.285 33.902L352.161 35.4082C351.614 35.4627 351.207 36.0466 351.251 36.7127L351.302 37.4736C351.347 38.1397 351.827 38.6355 352.374 38.581L367.498 37.0748C368.045 37.0203 368.452 36.4363 368.408 35.7702L368.357 35.0093C368.312 34.3432 367.832 33.8475 367.285 33.902Z" fill="#D9D9D9" fill-opacity="0.25"/>
<path d="M337.83 32.3989C337.771 31.5227 337.14 30.8706 336.421 30.9422C335.701 31.0138 335.166 31.7823 335.225 32.6582C335.283 33.5344 335.914 34.1866 336.634 34.115C337.353 34.0434 337.889 33.2751 337.83 32.3989Z" fill="#D9D9D9" fill-opacity="0.25"/>
<path d="M348.605 37.3592C348.547 36.483 347.916 35.8309 347.196 35.9025C346.477 35.9741 345.941 36.7424 346 37.6186C346.059 38.4948 346.69 39.1469 347.409 39.0753C348.129 39.0037 348.664 38.2354 348.605 37.3592Z" fill="#D9D9D9" fill-opacity="0.25"/>
<path d="M354.647 24.6914C354.588 23.8152 353.958 23.1631 353.238 23.2347C352.519 23.3063 351.983 24.0748 352.042 24.9507C352.101 25.8269 352.732 26.4791 353.451 26.4075C354.171 26.3359 354.706 25.5676 354.647 24.6914Z" fill="#D9D9D9" fill-opacity="0.25"/>
<path d="M365.278 29.6659C365.219 28.7897 364.588 28.1375 363.869 28.2092C363.149 28.2808 362.614 29.0493 362.672 29.9252C362.731 30.8014 363.362 31.4536 364.081 31.382C364.801 31.3103 365.336 30.5421 365.278 29.6659Z" fill="#D9D9D9" fill-opacity="0.25"/>
<path d="M379.8 506.969L379.963 508.076C380.316 510.47 379.044 514.1 377.123 516.184L364.972 529.365C363.051 531.449 361.207 531.198 360.855 528.804L358.623 513.662C358.271 511.269 359.542 507.639 361.463 505.555L362.352 504.591C363.641 503.193 364.494 500.757 364.257 499.151L364.094 498.044C363.741 495.65 365.013 492.02 366.934 489.936L379.085 476.755C381.007 474.671 382.85 474.922 383.203 477.316L385.434 492.457C385.787 494.851 384.515 498.481 382.594 500.565L381.705 501.529C380.416 502.927 379.563 505.363 379.8 506.969Z" stroke="#0F1B1B" stroke-opacity="0.07" stroke-width="1.3062" stroke-miterlimit="10"/>
<path d="M301.992 48.7659L294.639 55.3861C293.571 56.3476 293.346 58.1814 294.135 59.482L299.572 68.4367C300.361 69.7373 301.867 70.0122 302.935 69.0507L310.288 62.4305C311.356 61.469 311.581 59.6349 310.792 58.3346L305.356 49.3799C304.566 48.0793 303.06 47.8044 301.992 48.7659Z" fill="#D9D9D9" fill-opacity="0.25"/>
<path d="M1.2813 99.0659L4.75999 90.7114L-2.1001 86.475L1.2813 99.0659ZM11.0863 81.1401L7.60762 89.4945L14.4677 93.7307L11.0863 81.1401ZM-4.09833 82.9275C-4.0512 82.9088 -4.00364 82.8996 -3.9563 82.8896C-3.93987 82.8862 -3.92408 82.8791 -3.90744 82.8767C-3.87696 82.8722 -3.8469 82.8746 -3.81664 82.8735C-3.78097 82.8722 -3.74551 82.8683 -3.70984 82.8714C-3.69276 82.8733 -3.67655 82.8793 -3.6599 82.882C-3.55008 82.8991 -3.44069 82.9338 -3.33648 82.9983L5.7484 88.6086L10.3366 77.5897C10.4317 77.2356 10.6565 76.9384 10.9696 76.8136C11.4912 76.6059 12.0522 76.9523 12.2228 77.5874L17.1013 95.7522C17.2719 96.3872 16.9874 97.0705 16.4657 97.2782C16.4188 97.2971 16.3713 97.3064 16.3239 97.3161C16.3073 97.3198 16.2915 97.3266 16.2748 97.3293C16.2446 97.3337 16.2145 97.3314 16.1842 97.3324C16.1486 97.3337 16.1131 97.3377 16.0772 97.3343C16.0604 97.3327 16.0442 97.3266 16.0275 97.324C15.9177 97.3069 15.8083 97.2719 15.7041 97.2076L6.61899 91.5974L2.03104 102.616C1.93592 102.97 1.71108 103.268 1.39783 103.392C0.87638 103.6 0.315371 103.254 0.144798 102.618L-4.73371 84.4538C-4.90428 83.8185 -4.61978 83.1352 -4.09833 82.9275Z" fill="#D9D9D9" fill-opacity="0.25"/>
<path d="M70.9475 131.131L79.5902 151.722C79.8399 152.317 80.4386 152.553 80.9272 152.249C81.4157 151.945 81.6092 151.216 81.3595 150.621L72.7167 130.03C72.467 129.435 71.8684 129.199 71.3798 129.503C70.8913 129.807 70.6978 130.536 70.9475 131.131Z" fill="#D9D9D9" fill-opacity="0.25"/>
<path d="M67.2121 133.457L75.8549 154.048C76.1046 154.643 76.7032 154.878 77.1918 154.574C77.6804 154.27 77.8739 153.541 77.6242 152.946L68.9814 132.355C68.7317 131.76 68.1331 131.525 67.6445 131.829C67.1559 132.133 66.9624 132.862 67.2121 133.457Z" fill="#D9D9D9" fill-opacity="0.25"/>
<path d="M63.4768 135.782L72.1195 156.373C72.3692 156.968 72.9679 157.204 73.4564 156.9C73.945 156.595 74.1385 155.866 73.8888 155.271L65.246 134.681C64.9963 134.086 64.3977 133.85 63.9091 134.154C63.4205 134.458 63.2271 135.187 63.4768 135.782Z" fill="#D9D9D9" fill-opacity="0.25"/>
<path d="M59.7414 138.107L68.3842 158.698C68.6339 159.293 69.2325 159.529 69.7211 159.225C70.2097 158.921 70.4032 158.192 70.1535 157.597L61.5107 137.006C61.261 136.411 60.6624 136.175 60.1738 136.479C59.6852 136.783 59.4917 137.512 59.7414 138.107Z" fill="#D9D9D9" fill-opacity="0.25"/>
<path d="M56.0065 140.432L64.6493 161.023C64.899 161.618 65.4976 161.854 65.9862 161.55C66.4748 161.246 66.6683 160.517 66.4186 159.922L57.7758 139.331C57.5261 138.736 56.9275 138.5 56.4389 138.804C55.9503 139.108 55.7568 139.837 56.0065 140.432Z" fill="#D9D9D9" fill-opacity="0.25"/>
<path d="M52.2712 142.757L60.914 163.348C61.1637 163.943 61.7623 164.179 62.2509 163.875C62.7395 163.571 62.933 162.842 62.6833 162.247L54.0405 141.656C53.7908 141.061 53.1922 140.825 52.7036 141.129C52.215 141.433 52.0215 142.162 52.2712 142.757Z" fill="#D9D9D9" fill-opacity="0.25"/>
<path d="M48.5358 145.083L57.1786 165.674C57.4283 166.269 58.0269 166.505 58.5155 166.2C59.0041 165.896 59.1976 165.167 58.9479 164.572L50.3051 143.981C50.0554 143.386 49.4568 143.151 48.9682 143.455C48.4796 143.759 48.2861 144.488 48.5358 145.083Z" fill="#D9D9D9" fill-opacity="0.25"/>
<path d="M44.8005 147.408L53.4433 167.999C53.693 168.594 54.2916 168.83 54.7802 168.525C55.2688 168.221 55.4623 167.492 55.2126 166.897L46.5698 146.306C46.3201 145.711 45.7215 145.476 45.2329 145.78C44.7443 146.084 44.5508 146.813 44.8005 147.408Z" fill="#D9D9D9" fill-opacity="0.25"/>
<path d="M41.0651 149.734L49.7079 170.324C49.9576 170.92 50.5562 171.155 51.0448 170.851C51.5334 170.547 51.7269 169.818 51.4772 169.223L42.8344 148.632C42.5847 148.037 41.9861 147.801 41.4975 148.105C41.0089 148.409 40.8154 149.139 41.0651 149.734Z" fill="#D9D9D9" fill-opacity="0.25"/>
<path d="M37.3298 152.058L45.9726 172.649C46.2223 173.244 46.8209 173.48 47.3095 173.176C47.7981 172.872 47.9915 172.143 47.7419 171.548L39.0991 150.957C38.8494 150.362 38.2507 150.126 37.7622 150.43C37.2736 150.734 37.0801 151.463 37.3298 152.058Z" fill="#D9D9D9" fill-opacity="0.25"/>
<path d="M33.5949 154.384L42.2377 174.975C42.4874 175.57 43.086 175.806 43.5746 175.502C44.0632 175.198 44.2567 174.469 44.007 173.874L35.3642 153.283C35.1145 152.688 34.5159 152.452 34.0273 152.756C33.5387 153.06 33.3452 153.789 33.5949 154.384Z" fill="#D9D9D9" fill-opacity="0.25"/>
<path d="M136.176 168.578L127.745 159.862C127.327 159.43 126.7 159.493 126.344 160.002C125.989 160.511 126.041 161.275 126.459 161.708L134.891 170.423C135.309 170.856 135.936 170.793 136.291 170.284C136.646 169.775 136.595 169.011 136.176 168.578Z" fill="#D9D9D9" fill-opacity="0.25"/>
<path d="M139.47 177.979L131.039 169.263C130.621 168.831 129.994 168.894 129.638 169.403C129.283 169.912 129.335 170.676 129.753 171.108L138.185 179.824C138.603 180.257 139.23 180.194 139.585 179.685C139.94 179.175 139.889 178.412 139.47 177.979Z" fill="#D9D9D9" fill-opacity="0.25"/>
<path d="M142.344 186.945L133.912 178.229C133.494 177.797 132.867 177.859 132.512 178.369C132.157 178.878 132.208 179.642 132.626 180.074L141.058 188.79C141.476 189.223 142.103 189.16 142.459 188.651C142.814 188.141 142.762 187.378 142.344 186.945Z" fill="#D9D9D9" fill-opacity="0.25"/>
<path d="M127.356 167.043C127.711 166.533 127.66 165.77 127.241 165.337C126.823 164.905 126.196 164.967 125.841 165.477C125.486 165.986 125.537 166.75 125.956 167.182C126.374 167.615 127.001 167.552 127.356 167.043Z" fill="#D9D9D9" fill-opacity="0.25"/>
<path d="M130.959 176.763C131.314 176.254 131.262 175.49 130.844 175.057C130.426 174.625 129.799 174.688 129.444 175.197C129.089 175.706 129.14 176.47 129.558 176.902C129.976 177.335 130.603 177.272 130.959 176.763Z" fill="#D9D9D9" fill-opacity="0.25"/>
<path d="M139.798 173.909C140.153 173.4 140.102 172.636 139.683 172.203C139.265 171.771 138.638 171.834 138.283 172.343C137.928 172.852 137.979 173.616 138.397 174.048C138.816 174.481 139.443 174.418 139.798 173.909Z" fill="#D9D9D9" fill-opacity="0.25"/>
<path d="M143.316 183.542C143.672 183.032 143.62 182.269 143.202 181.836C142.784 181.404 142.157 181.466 141.802 181.976C141.446 182.485 141.498 183.249 141.916 183.681C142.334 184.114 142.961 184.051 143.316 183.542Z" fill="#D9D9D9" fill-opacity="0.25"/>
<path d="M94.0159 12.3785L78.8912 13.8847C78.3442 13.9392 77.9371 14.5232 77.9819 15.1893L78.0329 15.9502C78.0777 16.616 78.5574 17.1121 79.1041 17.0576L94.2289 15.5513C94.7758 15.4968 95.1829 14.9126 95.1382 14.2468L95.0871 13.4859C95.0424 12.8198 94.5629 12.324 94.0159 12.3785Z" fill="#D9D9D9" fill-opacity="0.25"/>
<path d="M104.261 17.3916L89.1358 18.8978C88.5888 18.9523 88.1818 19.5363 88.2265 20.2024L88.2775 20.9633C88.3223 21.6294 88.802 22.1251 89.3487 22.0706L104.474 20.5644C105.02 20.5099 105.428 19.9257 105.383 19.2598L105.332 18.4989C105.287 17.8328 104.808 17.3371 104.261 17.3916Z" fill="#D9D9D9" fill-opacity="0.25"/>
<path d="M113.781 22.4765L98.6563 23.9828C98.1093 24.0373 97.7023 24.6212 97.747 25.2873L97.798 26.0482C97.8428 26.7143 98.3225 27.2101 98.8692 27.1556L113.994 25.6493C114.541 25.5948 114.948 25.0109 114.903 24.3448L114.852 23.5839C114.808 22.9178 114.328 22.422 113.781 22.4765Z" fill="#D9D9D9" fill-opacity="0.25"/>
<path d="M84.326 20.9736C84.2672 20.0974 83.6364 19.4453 82.9169 19.5169C82.1974 19.5885 81.6619 20.3568 81.7207 21.233C81.7795 22.1092 82.4106 22.7613 83.1298 22.6897C83.8493 22.6181 84.3848 21.8498 84.326 20.9736Z" fill="#D9D9D9" fill-opacity="0.25"/>
<path d="M95.1009 25.934C95.0421 25.0578 94.4113 24.4056 93.6918 24.4772C92.9723 24.5488 92.4368 25.3171 92.4956 26.1933C92.5544 27.0695 93.1855 27.7216 93.9047 27.65C94.6242 27.5784 95.1597 26.8102 95.1009 25.934Z" fill="#D9D9D9" fill-opacity="0.25"/>
<path d="M101.143 13.2659C101.085 12.3897 100.454 11.7375 99.7343 11.8091C99.0148 11.8807 98.4793 12.649 98.5381 13.5252C98.5969 14.4014 99.2277 15.0535 99.9472 14.9819C100.667 14.9103 101.202 14.1421 101.143 13.2659Z" fill="#D9D9D9" fill-opacity="0.25"/>
<path d="M111.774 18.2402C111.715 17.364 111.084 16.7119 110.365 16.7835C109.645 16.8551 109.11 17.6236 109.168 18.4996C109.227 19.3758 109.858 20.0279 110.578 19.9563C111.297 19.8847 111.833 19.1164 111.774 18.2402Z" fill="#D9D9D9" fill-opacity="0.25"/>
<path d="M157.204 94.5679C154.844 92.2919 151.415 92.7771 149.546 95.6521C147.677 98.5272 148.075 102.703 150.436 104.979C152.797 107.255 156.226 106.77 158.095 103.895C159.964 101.02 159.565 96.844 157.204 94.5679Z" fill="#D9D9D9" fill-opacity="0.25"/>
<path d="M58.9667 30.288L59.7031 31.501C61.2949 34.123 60.8398 37.82 58.6868 39.7582L45.0682 52.0198C42.9152 53.9583 39.8795 53.4041 38.2877 50.7821L28.2196 34.197C26.6278 31.5749 27.0828 27.8779 29.2359 25.9397L30.2318 25.0429C31.6764 23.7423 31.9817 21.2617 30.9137 19.5024L30.1774 18.2895C28.5856 15.6675 29.0406 11.9705 31.1937 10.032L44.8122 -2.22932C46.9653 -4.16786 50.001 -3.61365 51.5928 -0.991633L61.6609 15.5935C63.2527 18.2155 62.7976 21.9125 60.6446 23.8508L59.6486 24.7475C58.204 26.0481 57.8988 28.5288 58.9667 30.288Z" stroke="#0F1B1B" stroke-opacity="0.07" stroke-width="1.3062" stroke-miterlimit="10"/>
<path d="M48.488 37.3407L41.135 43.9609C40.0671 44.9224 39.8414 46.7562 40.6309 48.0568L46.0669 57.0115C46.8565 58.3121 48.3624 58.587 49.4302 57.6255L56.7832 51.0053C57.8512 50.0438 58.0769 48.2098 57.2873 46.9094L51.8513 37.9547C51.0618 36.6541 49.556 36.3792 48.488 37.3407Z" fill="#D9D9D9" fill-opacity="0.25"/>
<path d="M382.307 477.341L374.954 483.961C373.886 484.923 373.66 486.757 374.45 488.057L379.886 497.012C380.675 498.312 382.181 498.587 383.249 497.626L390.602 491.006C391.67 490.044 391.896 488.21 391.106 486.91L385.67 477.955C384.881 476.654 383.375 476.38 382.307 477.341Z" fill="#D9D9D9" fill-opacity="0.25"/>
</g>
</svg>
