<svg xmlns="http://www.w3.org/2000/svg" width="375" height="699" fill="none"><path fill="#DCDCDC" d="M369 53.712h1l.027 643.57h-1zm-72 32.13h1V699h-1zm-72 45.987h1V699h-1zM81 205.408h1V699h-1zM9 245.263h1V699H9zm144-66.425h1V699h-1z"/><path stroke="#DCDCDC" stroke-dasharray="10 10" d="M473 697.783h-728m733-123.657h-620M478 445.04h-620m621.012-114.457h-514M478 387.812H-36m515-114.457H-35m442.007-57.228H51.995m424.018-57.228H121"/><circle cx="315.073" cy="341.073" r="25" fill="url(#a)" transform="rotate(179.832 315.073 341.073)"/><defs><radialGradient id="a" cx="0" cy="0" r="1" gradientTransform="rotate(-135.7 243.785 111.95) scale(60.8851 47.9497)" gradientUnits="userSpaceOnUse"><stop offset=".147" stop-color="#EAEAEA"/><stop offset=".31" stop-color="#FFE6ED"/><stop offset=".386" stop-color="#F7C2DC"/><stop offset=".477" stop-color="#F2B0D0"/><stop offset=".644" stop-color="#E98ED1"/><stop offset=".79" stop-color="#6D73DD"/><stop offset=".915" stop-color="#3073C1"/><stop offset="1" stop-color="#638B9F"/></radialGradient></defs></svg>