<svg xmlns="http://www.w3.org/2000/svg" width="768" height="467" fill="none"><g clip-path="url(#a)"><mask id="b" width="1012" height="467" x="-161" y="0" maskUnits="userSpaceOnUse" style="mask-type:luminance"><path fill="#fff" d="M-160.5.016h1011v466.967h-1011V.016Z"/></mask><g fill="#0F1B1B" fill-opacity=".07" mask="url(#b)"><path d="m221.945 91.47-12.999-.873a1.34 1.34 0 0 0-.861.232c-.233.16-.391.392-.418.66l-.968 9.723-11.842-.795a1.338 1.338 0 0 0-.861.232c-.233.159-.392.392-.418.66l-.97 9.742-11.865-.797a1.344 1.344 0 0 0-.861.232.919.919 0 0 0-.418.66l-.968 9.723-11.842-.795a1.338 1.338 0 0 0-.861.232.919.919 0 0 0-.418.66l-1.063 10.673c-.053.53.427.994 1.072 1.038.645.043 1.211-.351 1.263-.881l.969-9.727 11.846.796a1.34 1.34 0 0 0 .859-.23.923.923 0 0 0 .416-.659l.968-9.726 11.846.795c.331.022.64-.072.87-.24.239-.159.402-.394.429-.666l.969-9.727 11.846.796a1.34 1.34 0 0 0 .859-.23c.232-.16.389-.392.416-.659l.968-9.727 11.846.796c.645.043 1.21-.351 1.263-.88.053-.53-.427-.995-1.072-1.038Zm589.954 310.014-12.998-.873a1.337 1.337 0 0 0-.861.232c-.233.159-.392.392-.418.66l-.969 9.723-11.841-.795a1.337 1.337 0 0 0-.861.232c-.233.159-.392.392-.419.66l-.97 9.742-11.864-.797a1.343 1.343 0 0 0-.861.232c-.233.159-.392.392-.418.66l-.969 9.723-11.841-.795a1.335 1.335 0 0 0-.861.232c-.233.159-.392.392-.418.66l-1.063 10.673c-.053.53.427.994 1.072 1.038.645.043 1.21-.351 1.263-.881l.969-9.727 11.845.796c.325.022.63-.068.859-.23.232-.16.39-.392.416-.659l.969-9.726 11.845.795c.331.022.64-.072.871-.24.239-.159.402-.394.429-.666l.969-9.727 11.845.796c.326.022.63-.068.859-.23.232-.16.39-.392.416-.659l.969-9.727 11.845.796c.645.043 1.211-.351 1.264-.881.052-.529-.428-.994-1.073-1.037ZM578.152 194.787l-12.998-.873a1.34 1.34 0 0 0-.861.232c-.233.159-.392.392-.418.66l-.969 9.723-11.841-.795a1.337 1.337 0 0 0-.861.232c-.233.159-.392.392-.419.66l-.97 9.742-11.864-.796a1.336 1.336 0 0 0-.861.231c-.233.16-.392.392-.419.66l-.968 9.724-11.842-.796a1.34 1.34 0 0 0-.86.232c-.233.16-.392.392-.419.66l-1.062 10.673c-.053.53.427.994 1.072 1.038.645.043 1.21-.351 1.263-.881l.969-9.726 11.845.795c.325.022.63-.068.859-.23.232-.159.39-.392.416-.659l.969-9.726 11.845.795c.331.022.64-.072.871-.239.239-.16.402-.395.429-.667l.969-9.727 11.845.796c.325.022.63-.068.859-.23.232-.16.39-.392.416-.659l.969-9.726 11.845.795c.645.043 1.211-.351 1.263-.881.053-.529-.427-.994-1.072-1.037Zm-89.955 152.824-8.44-8.164a1.272 1.272 0 0 0-.808-.337 1.348 1.348 0 0 0-.864.224l-9.058 6.314-7.688-7.438a1.27 1.27 0 0 0-.808-.336 1.343 1.343 0 0 0-.865.224l-9.075 6.325-7.704-7.452a1.266 1.266 0 0 0-.808-.336 1.342 1.342 0 0 0-.864.224l-9.058 6.313-7.688-7.438a1.27 1.27 0 0 0-.809-.336 1.348 1.348 0 0 0-.864.224l-9.943 6.93c-.493.344-.553.951-.135 1.356.419.405 1.158.455 1.652.111l9.061-6.315 7.691 7.44c.211.204.504.317.805.336.302.022.613-.051.862-.224l9.06-6.316 7.692 7.44c.215.208.514.321.821.336.307.026.625-.045.878-.221l9.061-6.316 7.691 7.44c.211.205.504.318.805.337.302.021.613-.051.862-.225l9.061-6.315 7.691 7.44c.418.405 1.158.455 1.651.111.494-.344.554-.951.135-1.356Z"/></g><mask id="c" width="1012" height="467" x="-161" y="0" maskUnits="userSpaceOnUse" style="mask-type:luminance"><path fill="#fff" d="M-160.5.016h1011v466.967h-1011V.016Z"/></mask><g fill="#EAEAEA" fill-opacity=".25" mask="url(#c)"><path d="m308.69 24.461 61.667 50.638c.473.387.473 1.016 0 1.405-.472.388-1.238.388-1.711 0l-61.668-50.638c-.472-.388-.472-1.017 0-1.405.473-.388 1.239-.388 1.712 0Zm3.612-2.966 61.668 50.637c.472.388.472 1.017 0 1.405-.473.388-1.239.388-1.711 0L310.591 22.9c-.473-.388-.473-1.017 0-1.405.472-.388 1.238-.388 1.711 0Zm3.613-2.967 61.667 50.638c.473.388.473 1.017 0 1.405-.472.388-1.238.388-1.711 0l-61.667-50.638c-.473-.387-.473-1.017 0-1.405.472-.388 1.238-.388 1.711 0Z"/><path d="m331.715 64.915 15.703-6.538 7.962 12.894-23.665-6.356Zm33.692-18.428-15.702 6.538-7.962-12.894 23.664 6.356Zm-3.359 28.54c.035-.09.052-.178.071-.267.007-.031.02-.061.024-.092.009-.058.004-.114.006-.17.003-.068.01-.134.004-.202-.003-.032-.014-.062-.02-.094a1.607 1.607 0 0 0-.218-.607L351.37 56.519l20.71-8.623c.666-.179 1.225-.602 1.459-1.19.39-.98-.261-2.035-1.454-2.356l-34.142-9.169c-1.193-.32-2.478.215-2.868 1.195-.035.088-.053.178-.071.267-.007.03-.02.06-.025.091-.008.058-.004.114-.006.17-.002.068-.009.134-.003.202.003.032.014.062.019.094.032.206.098.411.219.607l10.545 17.076-20.71 8.623c-.666.179-1.225.602-1.459 1.19-.391.98.26 2.035 1.454 2.356l34.141 9.169c1.194.32 2.478-.214 2.869-1.195ZM132.831 270.063 124 257.557l15.23-7.251-6.399 19.757Zm-24.299-26.588 8.831 12.507-15.231 7.251 6.4-19.758Zm34.89 1.153c-.109-.024-.219-.033-.328-.043-.038-.004-.075-.013-.113-.015-.07-.004-.138.003-.208.005-.081.002-.163-.001-.244.008-.039.005-.075.015-.113.021a2.605 2.605 0 0 0-.727.214l-20.171 9.603-11.647-16.495c-.254-.536-.8-.97-1.529-1.129-1.213-.265-2.459.328-2.782 1.324l-9.233 28.505c-.323.997.4 2.019 1.613 2.285.11.023.22.033.329.043.038.004.075.013.113.015.07.004.138-.003.207-.005.082-.001.163.001.245-.008.039-.004.075-.015.113-.021.249-.038.495-.104.727-.214l20.17-9.603 11.648 16.495c.254.536.8.97 1.528 1.129 1.214.266 2.46-.328 2.783-1.324l9.233-28.505c.323-.997-.4-2.02-1.614-2.285Z"/><path d="m103.961 272.905 52.167-57.387c.4-.44 1.158-.53 1.694-.202.535.328.645.951.246 1.39L105.9 274.094c-.4.44-1.158.53-1.694.202-.535-.328-.645-.951-.245-1.391Zm-4.094-2.509 52.168-57.387c.4-.44 1.158-.531 1.693-.202.536.328.646.95.246 1.39l-52.168 57.388c-.4.439-1.158.53-1.693.202-.536-.329-.646-.951-.246-1.391Zm-4.094-2.509 52.167-57.388c.4-.44 1.158-.53 1.694-.202.535.329.645.951.246 1.391l-52.168 57.387c-.4.44-1.158.53-1.694.202-.535-.328-.645-.951-.245-1.39Zm305.111 142.595-8.831-12.507 15.231-7.251-6.4 19.758Zm-24.299-26.588 8.831 12.506-15.23 7.252 6.399-19.758Zm34.891 1.153c-.11-.024-.219-.033-.329-.044-.038-.004-.075-.013-.113-.015-.07-.003-.138.003-.207.005-.082.002-.163-.001-.245.008-.039.005-.075.016-.113.021a2.605 2.605 0 0 0-.727.214l-20.17 9.603-11.648-16.495c-.254-.536-.8-.97-1.528-1.129-1.214-.265-2.46.328-2.783 1.324l-9.233 28.505c-.323.997.4 2.02 1.614 2.285.109.024.219.033.328.043.038.004.075.013.113.015.07.004.138-.003.208-.005.081-.001.163.001.244-.008.039-.004.075-.015.113-.021.249-.038.495-.103.727-.214l20.171-9.603 11.647 16.495c.254.536.8.97 1.529 1.13 1.213.265 2.459-.328 2.782-1.325l9.233-28.505c.323-.997-.399-2.019-1.613-2.284Z"/><path d="m405.028 434.614-39.724-63.752c-.304-.489-.068-1.087.526-1.337.595-.25 1.324-.057 1.629.432l39.724 63.752c.304.488.068 1.087-.526 1.337-.595.25-1.324.057-1.629-.432Zm-4.548 1.911-39.723-63.752c-.305-.489-.069-1.087.526-1.337s1.324-.057 1.628.432l39.724 63.752c.304.488.069 1.087-.526 1.337s-1.324.056-1.629-.432Zm-4.548 1.911-39.724-63.753c-.304-.488-.068-1.087.526-1.337.595-.25 1.324-.056 1.629.432l39.724 63.752c.304.489.068 1.088-.527 1.337-.595.25-1.324.057-1.628-.431Zm377.015-253.079-3.525-14.164 17.249-2.894-13.724 17.058Zm-12.732-31.555 3.526 14.164-17.25 2.895 13.724-17.059Zm32.63 10.21c-.094-.051-.195-.088-.294-.127-.035-.013-.067-.032-.102-.044-.065-.021-.132-.033-.198-.049-.078-.02-.155-.044-.236-.056-.038-.006-.076-.006-.115-.01a2.736 2.736 0 0 0-.771.013l-22.844 3.833-4.65-18.681c-.033-.575-.382-1.129-1.011-1.47-1.048-.569-2.459-.332-3.151.528l-19.8 24.611c-.693.86-.404 2.019.644 2.587.094.051.195.089.295.127.034.013.065.032.101.044.065.022.132.033.198.049.079.02.155.044.235.057.039.006.077.005.116.009.25.029.509.032.771-.012l22.844-3.834 4.65 18.681c.033.575.382 1.129 1.011 1.471 1.048.568 2.459.331 3.151-.529l19.8-24.61c.693-.861.404-2.019-.644-2.588Z"/><path d="m771.658 222.158-11.287-45.96c-.132-.538.292-1.062.947-1.17.655-.109 1.293.239 1.425.777l11.287 45.96c.132.538-.291 1.062-.946 1.171-.656.108-1.294-.24-1.426-.778Zm-5.008.83-11.287-45.961c-.132-.538.292-1.062.947-1.17.655-.109 1.293.239 1.425.777l11.287 45.961c.133.538-.291 1.062-.946 1.17-.655.108-1.294-.24-1.426-.777Zm-5.008.829-11.287-45.961c-.132-.537.292-1.061.947-1.17.655-.108 1.293.24 1.425.778l11.287 45.96c.132.538-.291 1.062-.947 1.17-.655.109-1.293-.239-1.425-.777Z"/></g><mask id="d" width="1012" height="467" x="-161" y="0" maskUnits="userSpaceOnUse" style="mask-type:luminance"><path fill="#fff" d="M-160.5.016h1011v466.967h-1011V.016Z"/></mask><g fill="#0F1B1B" fill-opacity=".07" mask="url(#d)"><path d="m459.409 147.629-36.323-6.212 16.893-27.137 36.323 6.212-16.893 27.137Zm-19.458-33.974-27.272-20.439 36.147 6.182 27.273 20.438-36.148-6.181Zm-17.525 27.486-27.406-20.539 16.893-27.137 27.407 20.539-16.894 27.137Zm54.763-20.741.006-.012a.234.234 0 0 0 .018-.048l.001-.003.001-.006.006-.027.026-.019c.138-.124.127-.316-.024-.43l-27.971-20.962c-.009-.006-.019-.01-.028-.017l-.022-.013a.44.44 0 0 0-.033-.015c-.012-.005-.023-.01-.035-.013a.31.31 0 0 0-.026-.007l-.033-.009-37.074-6.34c-.2-.034-.396.072-.438.236l-.004.03-.013.011-.015.011-.007.007a.719.719 0 0 0-.043.052l-.007.008-17.236 27.688-.006.012c-.073.119-.045.267.08.361l27.971 20.962.014.009.018.011.018.01.023.012.011.005a.049.049 0 0 0 .011.004l.023.008a.353.353 0 0 0 .049.013l.01.002 37.074 6.34a.402.402 0 0 0 .396-.148c.005-.007.012-.014.016-.021l17.236-27.688.007-.014ZM90.454 47.984l18.376-26.467 26.245 21.55-18.377 26.467-26.244-21.55Zm45.355-4.745 32.076-15.017-18.288 26.338-32.076 15.017 18.288-26.338Zm-26.456-22.152 32.234-15.09 26.245 21.55-32.234 15.09-26.245-21.55Zm7.179 49.169.012.008c.016.01.032.02.05.029l.003.001.007.003.029.013c.005.008.008.017.014.026.102.146.328.197.505.114l32.898-15.402c.011-.005.019-.011.028-.016l.023-.013a.358.358 0 0 0 .054-.045l.016-.018.02-.023 18.756-27.014c.101-.146.04-.331-.138-.415l-.033-.012a.828.828 0 0 0-.009-.013c-.003-.006-.005-.011-.009-.016-.001-.003-.004-.005-.006-.007-.007-.01-.015-.018-.023-.027a.262.262 0 0 0-.023-.023l-.007-.007L141.921 5.41c-.004-.004-.008-.006-.013-.009a.43.43 0 0 0-.442-.049l-32.898 15.402c-.005.002-.009.006-.015.008l-.018.01-.017.011a.903.903 0 0 0-.021.015l-.01.007-.007.007-.017.016-.011.012-.018.022-.007.007-18.756 27.014c-.081.117-.056.26.05.355.007.006.012.013.02.019l26.777 21.988.014.01Zm694.873 243.147-36.323-6.211 16.893-27.137 36.324 6.211-16.894 27.137Zm-19.458-33.974-27.272-20.438 36.148 6.181 27.272 20.438-36.148-6.181Zm-17.524 27.487-27.407-20.539 16.893-27.137 27.407 20.539-16.893 27.137Zm54.762-20.742.006-.012a.207.207 0 0 0 .018-.047l.001-.003.001-.007c.002-.008.005-.017.006-.027.009-.006.018-.011.026-.019.138-.124.127-.316-.024-.429l-27.971-20.962c-.009-.007-.019-.011-.028-.017a.498.498 0 0 0-.116-.049l-.033-.008-37.074-6.34c-.2-.034-.396.071-.438.236-.002.009-.002.019-.003.029l-.014.011-.015.012-.006.007-.025.026a1.718 1.718 0 0 0-.019.025c-.002.003-.005.005-.006.008l-17.237 27.688c-.002.004-.003.009-.006.013-.072.119-.045.266.08.36l27.971 20.962c.004.004.01.006.014.009l.018.011.018.011.023.011.011.006.011.003.023.009.018.005.031.007a.126.126 0 0 1 .01.003l37.074 6.339a.4.4 0 0 0 .396-.148c.005-.007.012-.013.016-.021l17.236-27.688c.004-.004.005-.009.007-.014ZM287.053 389.999l-35.786 8.045v-30.477l35.786-8.045v30.477Zm-36.158-22.979-35.612-8.006 35.612-8.005 35.613 8.005-35.613 8.006Zm-.368 31.024-35.789-8.045v-30.477l35.789 8.046v30.476Zm37.264-38.935-.001-.013a.266.266 0 0 0-.01-.049l-.001-.003-.003-.006a.2.2 0 0 0-.01-.026c.004-.009.01-.017.013-.027.054-.162-.062-.329-.259-.373l-36.525-8.211c-.012-.003-.023-.003-.035-.005l-.026-.004-.039-.001-.038.001-.027.004c-.011.002-.023.002-.034.005l-36.525 8.211c-.198.044-.314.211-.26.373l.013.028-.005.015-.008.016-.001.008-.007.033-.004.029-.001.01v31.095l.002.014c.001.133.107.255.271.291l36.525 8.211c.005.002.011.002.017.003l.022.003.022.003.027.001.013.001.012-.001.025-.001a.11.11 0 0 1 .018-.002l.032-.005.011-.002 36.524-8.211c.159-.035.264-.151.271-.28.001-.008.003-.016.003-.025v-31.095l-.002-.015Z"/></g><mask id="e" width="1012" height="467" x="-161" y="0" maskUnits="userSpaceOnUse" style="mask-type:luminance"><path fill="#fff" d="M-160.5.016h1011v466.967h-1011V.016Z"/></mask><g fill="#EAEAEA" fill-opacity=".25" mask="url(#e)"><path d="M450.066 36.393h18.481c.668 0 1.21.444 1.21.993v.627c0 .549-.542.994-1.21.994h-18.481c-.668 0-1.21-.445-1.21-.994v-.627c0-.549.542-.993 1.21-.993ZM438.04 41.33h18.481c.668 0 1.21.445 1.21.994v.627c0 .548-.542.993-1.21.993H438.04c-.668 0-1.21-.445-1.21-.994v-.626c0-.549.542-.994 1.21-.994Zm-11.142 4.938h18.481c.668 0 1.21.445 1.21.993v.627c0 .549-.542.994-1.21.994h-18.481c-.668 0-1.21-.445-1.21-.994v-.627c0-.548.542-.993 1.21-.993Zm35.63-3.631c0-.721.713-1.307 1.592-1.307.879 0 1.591.586 1.591 1.307 0 .722-.712 1.307-1.591 1.307s-1.592-.585-1.592-1.307Zm-12.674 4.938c0-.722.712-1.307 1.591-1.307s1.592.585 1.592 1.307-.713 1.307-1.592 1.307c-.879 0-1.591-.585-1.591-1.307Zm-8.367-9.875c0-.722.713-1.307 1.592-1.307.879 0 1.591.585 1.591 1.307s-.712 1.307-1.591 1.307-1.592-.585-1.592-1.307Zm-12.498 4.937c0-.721.713-1.307 1.592-1.307.879 0 1.592.586 1.592 1.307 0 .722-.713 1.307-1.592 1.307-.879 0-1.592-.585-1.592-1.307Zm80.607 367.342h18.481c.668 0 1.21.445 1.21.994v.626c0 .549-.542.994-1.21.994h-18.481c-.668 0-1.21-.445-1.21-.994v-.626c0-.549.542-.994 1.21-.994Zm-12.027 4.937h18.481c.669 0 1.21.445 1.21.994v.627c0 .549-.541.993-1.21.993h-18.481c-.668 0-1.21-.444-1.21-.993v-.627c0-.549.542-.994 1.21-.994Zm-11.141 4.938h18.481c.668 0 1.21.445 1.21.994v.626c0 .549-.542.994-1.21.994h-18.481c-.668 0-1.21-.445-1.21-.994v-.626c0-.549.542-.994 1.21-.994Zm35.63-3.63c0-.722.712-1.307 1.591-1.307.88 0 1.592.585 1.592 1.307 0 .721-.712 1.307-1.592 1.307-.879 0-1.591-.586-1.591-1.307Zm-12.675 4.937c0-.722.713-1.307 1.592-1.307.879 0 1.592.585 1.592 1.307s-.713 1.307-1.592 1.307c-.879 0-1.592-.585-1.592-1.307Zm-8.366-9.875c0-.722.712-1.307 1.591-1.307s1.592.585 1.592 1.307-.713 1.307-1.592 1.307c-.879 0-1.591-.585-1.591-1.307Zm-12.498 4.938c0-.722.713-1.307 1.592-1.307.879 0 1.591.585 1.591 1.307 0 .721-.712 1.307-1.591 1.307s-1.592-.586-1.592-1.307ZM13.678 252.003h18.48c.669 0 1.21.445 1.21.993v.627c0 .549-.541.994-1.21.994h-18.48c-.668 0-1.21-.445-1.21-.994v-.627c0-.548.542-.993 1.21-.993ZM1.652 256.94h18.481c.668 0 1.21.445 1.21.994v.627c0 .549-.542.993-1.21.993H1.652c-.668 0-1.21-.444-1.21-.993v-.627c0-.549.542-.994 1.21-.994Zm-11.142 4.938H8.991c.669 0 1.21.445 1.21.994v.626c0 .549-.541.994-1.21.994h-18.48c-.669 0-1.21-.445-1.21-.994v-.626c0-.549.541-.994 1.21-.994Zm35.63-3.63c0-.722.713-1.308 1.592-1.308.879 0 1.591.586 1.591 1.308 0 .721-.712 1.307-1.591 1.307-.88 0-1.592-.586-1.592-1.307Zm-12.675 4.937c0-.722.713-1.307 1.592-1.307.879 0 1.592.585 1.592 1.307s-.713 1.307-1.592 1.307c-.879 0-1.592-.585-1.592-1.307ZM5.1 253.31c0-.722.712-1.307 1.59-1.307.88 0 1.592.585 1.592 1.307s-.712 1.307-1.591 1.307c-.88 0-1.592-.585-1.592-1.307Z"/></g><mask id="f" width="1012" height="467" x="-161" y="0" maskUnits="userSpaceOnUse" style="mask-type:luminance"><path fill="#fff" d="M-160.5.016h1011v466.967h-1011V.016Z"/></mask><g mask="url(#f)"><path fill="#8E8790" fill-opacity=".12" d="m80.176 116.155-1.506 15.124c-.055.547-.639.955-1.305.91l-.76-.051c-.667-.045-1.163-.525-1.108-1.071l1.506-15.125c.055-.547.638-.954 1.305-.91l.76.052c.666.044 1.162.524 1.108 1.071Zm-5.013-10.245-1.507 15.125c-.054.547-.638.954-1.304.909l-.761-.051c-.666-.044-1.162-.524-1.107-1.071l1.506-15.125c.054-.546.638-.954 1.304-.909l.761.051c.666.045 1.162.524 1.108 1.071Zm-5.085-9.52-1.507 15.124c-.054.547-.638.954-1.304.91l-.761-.051c-.666-.045-1.162-.525-1.107-1.072l1.506-15.124c.054-.547.638-.954 1.304-.91l.761.051c.666.045 1.162.525 1.108 1.072Zm1.502 29.455c.877.059 1.53.689 1.458 1.409-.072.719-.84 1.255-1.716 1.196-.877-.059-1.529-.69-1.457-1.409.071-.72.84-1.255 1.716-1.196Zm-4.96-10.775c.877.058 1.529.689 1.457 1.409-.072.719-.84 1.255-1.716 1.196-.876-.059-1.528-.69-1.457-1.409.072-.72.84-1.255 1.716-1.196Zm12.668-6.043c.877.059 1.529.69 1.457 1.41-.072.719-.84 1.255-1.716 1.196-.876-.059-1.528-.69-1.457-1.409.072-.72.84-1.255 1.716-1.197Zm-4.974-10.63c.876.059 1.529.69 1.457 1.409-.072.719-.84 1.255-1.716 1.196-.876-.059-1.529-.69-1.457-1.41.072-.718.84-1.254 1.716-1.195Z"/><path fill="#D9D9D9" fill-opacity=".25" d="M-2.014 52.966c2.276 2.36 1.791 5.79-1.084 7.658-2.875 1.87-7.05 1.471-9.326-.89-2.277-2.36-1.791-5.79 1.084-7.658 2.874-1.87 7.05-1.47 9.326.89Z"/><path stroke="#0F1B1B" stroke-miterlimit="10" stroke-opacity=".07" stroke-width="1.306" d="m62.266 151.204-1.213-.736c-2.622-1.592-6.319-1.137-8.257 1.016l-12.262 13.619c-1.938 2.153-1.384 5.188 1.238 6.78l16.585 10.068c2.622 1.592 6.32 1.137 8.258-1.016l.896-.996c1.3-1.444 3.782-1.75 5.54-.682l1.214.737c2.622 1.591 6.319 1.136 8.257-1.017l12.261-13.618c1.94-2.153 1.385-5.189-1.237-6.781L76.96 148.51c-2.622-1.592-6.32-1.137-8.258 1.016l-.896.996c-1.3 1.445-3.782 1.75-5.54.682Z"/><path fill="#D9D9D9" fill-opacity=".25" d="m55.214 161.683-6.62 7.353c-.962 1.068-2.796 1.293-4.096.504l-8.955-5.436c-1.3-.79-1.576-2.296-.614-3.364l6.62-7.353c.962-1.068 2.796-1.293 4.096-.504l8.955 5.436c1.3.79 1.575 2.296.614 3.364Z"/><path fill="#0F1B1B" fill-opacity=".07" d="m383.728 223.07-53.124 30.674-22.01-50.191 53.124-30.674 22.01 50.191Zm-76.141-20.236-64.431 4.157 52.867-30.526 64.43-4.157-52.866 30.526Zm21.799 51.272-64.748 4.178-22.011-50.191 64.748-4.178 22.011 50.191Zm33.249-82.268-.011-.02a.574.574 0 0 0-.053-.076l-.003-.005-.008-.008c-.012-.013-.023-.026-.036-.038.001-.017.003-.033.002-.05-.028-.293-.34-.512-.697-.489l-66.081 4.264c-.021.001-.04.006-.06.008l-.047.007-.064.017c-.021.007-.042.013-.062.021a.536.536 0 0 0-.042.019c-.018.008-.036.015-.053.024l-54.221 31.309c-.293.169-.363.501-.158.741.013.015.028.026.042.04l.002.027c0 .01-.002.02-.001.03 0 .005.002.009.003.014.002.02.007.039.013.058a.288.288 0 0 0 .015.05l.005.016 22.457 51.21.013.021c.097.219.36.367.656.348l66.082-4.263.031-.005.038-.005.037-.006.046-.011.022-.005.019-.007c.013-.005.027-.009.04-.015a.37.37 0 0 0 .029-.013.437.437 0 0 0 .049-.023l.016-.007 54.222-31.309c.236-.136.324-.378.243-.592-.005-.015-.007-.029-.013-.043l-22.458-51.209c-.003-.009-.01-.016-.014-.025Z"/><path fill="#D9D9D9" fill-opacity=".25" d="m324.738 304.448 8.355-3.479 4.236 6.86-12.591-3.381Zm17.926-9.805-8.354 3.478-4.237-6.86 12.591 3.382Zm-1.787 15.184a.903.903 0 0 0 .038-.142c.003-.016.01-.032.013-.049.004-.03.002-.06.003-.09.001-.036.005-.071.002-.107-.002-.017-.008-.033-.011-.05a.868.868 0 0 0-.116-.324l-5.61-9.085 11.018-4.588c.355-.095.652-.32.777-.633.207-.521-.139-1.082-.774-1.253l-18.165-4.878c-.635-.171-1.319.114-1.526.635-.019.047-.028.095-.038.142-.004.017-.01.033-.013.049-.005.03-.002.06-.003.091-.002.035-.005.071-.002.107.002.017.008.033.01.049.017.11.052.22.117.324l5.61 9.085-11.019 4.588c-.354.095-.651.32-.776.633-.208.522.139 1.083.774 1.253l18.164 4.879c.635.17 1.319-.114 1.527-.636Zm-48.204-75.046-20.591-8.642c-.595-.25-.831-.849-.527-1.337.304-.489 1.033-.682 1.628-.433l20.591 8.643c.595.25.831.848.527 1.337-.304.489-1.033.682-1.628.432Zm-2.325 3.736-20.591-8.643c-.595-.25-.831-.849-.527-1.337.305-.489 1.034-.682 1.629-.432l20.59 8.642c.595.25.831.849.527 1.337-.304.489-1.033.682-1.628.433Zm-2.326 3.735-20.591-8.643c-.595-.25-.83-.848-.526-1.337.304-.488 1.033-.682 1.628-.432l20.591 8.643c.595.249.831.848.526 1.337-.304.488-1.033.682-1.628.432Zm-2.325 3.735-20.591-8.643c-.595-.249-.83-.848-.526-1.337.304-.488 1.033-.682 1.628-.432l20.591 8.643c.595.249.83.848.526 1.337-.304.488-1.033.682-1.628.432Zm-2.325 3.735-20.591-8.642c-.595-.25-.831-.849-.527-1.337.305-.489 1.034-.682 1.629-.433l20.59 8.643c.595.25.831.849.527 1.337-.304.489-1.033.682-1.628.432Zm-2.325 3.736-20.591-8.643c-.595-.25-.831-.848-.527-1.337.304-.489 1.033-.682 1.628-.432l20.591 8.642c.595.25.831.849.527 1.337-.304.489-1.033.682-1.628.433Zm-2.325 3.735-20.591-8.643c-.595-.25-.831-.848-.527-1.337.304-.488 1.033-.682 1.628-.432l20.591 8.643c.595.249.831.848.527 1.336-.304.489-1.033.683-1.628.433Zm-2.326 3.735-20.591-8.643c-.595-.249-.831-.848-.527-1.336.304-.489 1.033-.682 1.628-.433l20.591 8.643c.595.25.831.848.527 1.337-.304.488-1.033.682-1.628.432Zm-2.325 3.736-20.591-8.643c-.595-.25-.831-.849-.527-1.337.304-.489 1.033-.682 1.628-.433l20.591 8.643c.595.25.831.849.527 1.337-.304.489-1.033.682-1.628.433Zm-2.326 3.735-20.59-8.643c-.595-.25-.831-.848-.527-1.337.304-.488 1.033-.682 1.628-.432l20.591 8.643c.595.249.831.848.527 1.336-.304.489-1.034.683-1.629.433Zm-2.325 3.735-20.591-8.643c-.595-.249-.83-.848-.526-1.337.304-.488 1.033-.682 1.628-.432l20.591 8.643c.595.249.831.848.526 1.337-.304.488-1.033.682-1.628.432Zm-14.194-102.582 8.716 8.432c.432.418.37 1.045-.14 1.4-.509.355-1.273.304-1.705-.114l-8.716-8.432c-.433-.418-.37-1.045.139-1.4.51-.355 1.273-.304 1.706.114Zm-9.401-3.294 8.716 8.432c.432.418.37 1.045-.14 1.4-.509.355-1.273.304-1.705-.114l-8.716-8.432c-.433-.418-.37-1.045.139-1.4.51-.355 1.274-.304 1.706.114Zm-8.966-2.873 8.716 8.431c.432.419.37 1.046-.14 1.401-.509.355-1.273.304-1.705-.115l-8.716-8.431c-.432-.419-.37-1.046.139-1.401.51-.355 1.274-.303 1.706.115Zm19.902 14.988c.51-.355 1.273-.304 1.706.115.432.418.37 1.045-.14 1.4-.509.355-1.273.304-1.705-.115-.432-.418-.37-1.045.139-1.4Zm-9.719-3.603c.509-.355 1.273-.304 1.705.115.433.418.37 1.045-.139 1.4-.51.355-1.273.304-1.706-.114-.432-.419-.37-1.046.14-1.401Zm2.853-8.839c.51-.355 1.273-.304 1.706.115.432.418.37 1.045-.14 1.4-.509.355-1.273.304-1.705-.114-.433-.419-.37-1.046.139-1.401Zm-9.633-3.518c.51-.356 1.273-.304 1.706.114.432.418.37 1.045-.14 1.4-.509.356-1.273.304-1.705-.114-.432-.418-.37-1.045.139-1.4Zm171.163 49.3-1.506 15.125c-.054.547-.638.954-1.304.909l-.761-.051c-.666-.045-1.162-.524-1.108-1.071l1.507-15.125c.054-.547.638-.954 1.304-.909l.761.051c.666.045 1.162.524 1.107 1.071Zm-5.012-10.245-1.507 15.125c-.054.547-.638.954-1.304.909l-.761-.051c-.666-.044-1.162-.524-1.107-1.071l1.506-15.124c.054-.547.639-.955 1.304-.91l.761.051c.666.045 1.162.524 1.108 1.071Zm-5.085-9.52-1.507 15.124c-.054.547-.638.954-1.304.91l-.761-.051c-.666-.045-1.162-.525-1.107-1.072l1.506-15.124c.054-.547.638-.954 1.304-.91l.761.051c.666.045 1.162.525 1.108 1.072Zm1.502 29.455c.877.059 1.529.69 1.457 1.409-.072.72-.84 1.255-1.716 1.196-.876-.059-1.528-.69-1.457-1.409.072-.719.84-1.255 1.716-1.196Zm-4.96-10.775c.877.059 1.529.689 1.457 1.409-.072.719-.84 1.255-1.716 1.196-.876-.059-1.528-.69-1.457-1.409.072-.72.84-1.255 1.716-1.196Zm12.668-6.042c.877.058 1.529.689 1.457 1.409-.072.719-.84 1.255-1.716 1.196-.876-.059-1.528-.69-1.457-1.409.072-.72.84-1.255 1.716-1.196Zm-4.974-10.631c.876.059 1.528.69 1.456 1.409-.071.72-.839 1.255-1.716 1.196-.876-.058-1.528-.69-1.456-1.409.071-.719.84-1.255 1.716-1.196Zm-76.328-45.431c2.276 2.361 1.791 5.789-1.084 7.658-2.875 1.87-7.05 1.471-9.327-.89-2.276-2.36-1.79-5.789 1.085-7.658 2.874-1.869 7.05-1.471 9.326.89Z"/><path stroke="#0F1B1B" stroke-miterlimit="10" stroke-opacity=".07" stroke-width="2.612" d="m393.516 246.762-1.213-.736c-2.622-1.592-6.319-1.137-8.257 1.016l-12.262 13.619c-1.938 2.153-1.384 5.189 1.238 6.78l16.585 10.069c2.622 1.591 6.319 1.136 8.258-1.017l.896-.996c1.301-1.444 3.782-1.75 5.541-.682l1.213.737c2.622 1.592 6.319 1.136 8.257-1.017l12.262-13.618c1.938-2.153 1.384-5.189-1.238-6.781l-16.585-10.068c-2.622-1.592-6.319-1.137-8.258 1.017l-.896.995c-1.301 1.445-3.782 1.75-5.541.682Z"/><path fill="#D9D9D9" fill-opacity=".25" d="m386.464 257.241-6.621 7.353c-.961 1.068-2.795 1.293-4.095.504l-8.955-5.436c-1.301-.79-1.576-2.296-.614-3.363l6.62-7.353c.962-1.068 2.796-1.294 4.096-.505l8.955 5.436c1.3.79 1.575 2.296.614 3.364Z"/><path fill="#DADADA" fill-opacity=".25" d="m28.205 400.869-20.59-8.642c-.596-.25-.831-.849-.527-1.337.304-.489 1.033-.682 1.628-.433l20.59 8.643c.596.25.832.848.528 1.337-.305.489-1.034.682-1.629.432Zm-2.325 3.736-20.591-8.643c-.595-.25-.83-.848-.527-1.337.304-.488 1.033-.682 1.628-.432l20.591 8.643c.595.249.831.848.527 1.336-.304.489-1.033.683-1.628.433Zm-2.325 3.735-20.591-8.643c-.595-.249-.831-.848-.527-1.337.304-.488 1.033-.682 1.628-.432l20.591 8.643c.595.249.83.848.527 1.337-.304.488-1.033.682-1.628.432Zm-2.325 3.735L.637 403.433c-.595-.25-.83-.849-.526-1.337.304-.489 1.033-.682 1.628-.433l20.59 8.643c.596.25.832.848.528 1.337-.305.489-1.034.682-1.629.432Zm-2.326 3.735-20.59-8.642c-.596-.25-.831-.849-.527-1.337.304-.489 1.033-.682 1.628-.433l20.59 8.643c.596.25.831.848.527 1.337-.304.489-1.033.682-1.628.432Zm-2.325 3.736-20.591-8.643c-.595-.25-.83-.848-.527-1.337.305-.488 1.034-.682 1.629-.432l20.59 8.643c.595.249.831.848.527 1.337-.304.488-1.033.682-1.628.432Zm-2.325 3.735-20.591-8.643c-.595-.249-.83-.848-.527-1.337.304-.488 1.033-.682 1.628-.432l20.591 8.643c.595.249.831.848.527 1.337-.304.488-1.033.682-1.628.432Zm-2.325 3.735-20.591-8.642c-.595-.25-.831-.849-.527-1.337.304-.489 1.033-.682 1.628-.433l20.591 8.643c.595.25.83.849.527 1.337-.304.489-1.033.682-1.628.432Zm-2.326 3.736-20.591-8.643c-.595-.25-.83-.848-.527-1.337.305-.489 1.034-.682 1.629-.432l20.59 8.642c.595.25.831.849.527 1.337-.304.489-1.033.682-1.628.433Zm-2.325 3.735-20.591-8.643c-.595-.25-.83-.848-.527-1.337.304-.488 1.033-.682 1.628-.432l20.591 8.643c.595.249.83.848.527 1.337-.304.488-1.033.682-1.628.432Zm-2.325 3.735-20.591-8.643c-.595-.249-.831-.848-.527-1.336.304-.489 1.033-.683 1.628-.433l20.591 8.643c.595.25.83.848.527 1.337-.304.488-1.033.682-1.628.432Z"/><path fill="#D9D9D9" fill-opacity=".25" d="m146.958 377.801-1.506 15.125c-.055.547-.639.954-1.305.909l-.761-.051c-.666-.045-1.162-.524-1.107-1.071l1.506-15.125c.055-.547.639-.954 1.305-.909l.761.051c.666.045 1.162.524 1.107 1.071Zm-5.013-10.244-1.506 15.124c-.055.547-.639.954-1.305.91l-.761-.051c-.666-.045-1.162-.525-1.107-1.072l1.506-15.124c.055-.547.639-.954 1.305-.91l.76.051c.667.045 1.162.525 1.108 1.072Zm-5.085-9.521-1.506 15.125c-.055.547-.639.954-1.305.909l-.761-.051c-.666-.045-1.162-.525-1.107-1.071l1.506-15.125c.055-.547.639-.954 1.305-.909l.761.051c.666.044 1.161.524 1.107 1.071Zm1.503 29.455c.876.059 1.528.69 1.456 1.409-.071.72-.84 1.255-1.716 1.196-.876-.058-1.528-.689-1.457-1.409.072-.719.84-1.255 1.717-1.196Zm-4.96-10.775c.876.059 1.528.69 1.456 1.409-.071.719-.84 1.255-1.716 1.196-.876-.059-1.528-.689-1.456-1.409.071-.719.839-1.255 1.716-1.196Zm12.668-6.042c.876.059 1.528.689 1.456 1.409-.071.719-.84 1.255-1.716 1.196-.876-.059-1.528-.69-1.457-1.409.072-.72.84-1.255 1.717-1.196Zm-4.975-10.631c.876.059 1.528.69 1.457 1.409-.072.72-.84 1.255-1.716 1.196-.877-.058-1.529-.689-1.457-1.409.072-.719.84-1.255 1.716-1.196Zm-76.327-45.431c2.276 2.361 1.79 5.79-1.085 7.659-2.875 1.869-7.05 1.47-9.326-.89-2.277-2.361-1.791-5.79 1.084-7.659 2.875-1.869 7.05-1.47 9.327.89Z"/><path stroke="#0F1B1B" stroke-miterlimit="10" stroke-opacity=".07" stroke-width="1.306" d="m169.168 401.87-1.213-.737c-2.622-1.592-6.319-1.137-8.258 1.017l-12.261 13.618c-1.939 2.153-1.385 5.189 1.237 6.781l16.586 10.068c2.622 1.592 6.319 1.136 8.257-1.017l.897-.996c1.3-1.444 3.781-1.749 5.54-.681l1.213.736c2.622 1.592 6.319 1.137 8.258-1.016l12.261-13.619c1.938-2.153 1.384-5.189-1.238-6.78l-16.585-10.069c-2.622-1.591-6.319-1.136-8.257 1.017l-.897.996c-1.301 1.444-3.781 1.75-5.54.682ZM336.33 110.873l-1.213-.736c-2.622-1.592-6.319-1.137-8.257 1.016l-12.262 13.618c-1.938 2.153-1.384 5.189 1.238 6.781l16.585 10.068c2.622 1.592 6.319 1.137 8.257-1.016l.897-.996c1.301-1.445 3.781-1.75 5.541-.682l1.213.736c2.622 1.592 6.319 1.137 8.257-1.016l12.261-13.619c1.939-2.153 1.385-5.188-1.237-6.78l-16.585-10.068c-2.622-1.592-6.319-1.137-8.258 1.016l-.896.996c-1.301 1.445-3.782 1.75-5.541.682Z"/><path fill="#D9D9D9" fill-opacity=".25" d="m121.996 423.329-6.62 7.353c-.962 1.068-2.796 1.293-4.096.504l-8.955-5.436c-1.301-.79-1.575-2.296-.614-3.363l6.62-7.353c.962-1.068 2.796-1.294 4.096-.504l8.955 5.436c1.3.789 1.575 2.295.614 3.363Zm516.013-257.131 8.354-3.479 4.237 6.861-12.591-3.382Zm17.926-9.805-8.355 3.479-4.236-6.86 12.591 3.381Zm-1.788 15.185c.019-.047.028-.095.038-.142.004-.017.01-.032.013-.049.004-.031.002-.061.003-.091.001-.036.005-.071.002-.107-.002-.017-.008-.033-.01-.05a.848.848 0 0 0-.117-.323l-5.61-9.085 11.019-4.588c.354-.095.651-.32.776-.633.208-.522-.139-1.083-.774-1.253l-18.164-4.879c-.636-.17-1.319.114-1.526.636a.728.728 0 0 0-.038.142c-.004.016-.011.032-.014.049-.004.03-.002.06-.003.09-.001.036-.005.071-.002.107.002.017.008.033.011.05.017.11.052.219.116.323l5.61 9.085-11.018 4.588c-.355.096-.652.32-.777.634-.207.521.139 1.082.774 1.253l18.165 4.878c.635.171 1.318-.114 1.526-.635Zm-48.204-75.046-20.591-8.643c-.595-.25-.83-.848-.526-1.337.304-.489 1.033-.682 1.628-.432l20.591 8.642c.595.25.83.849.526 1.337-.304.489-1.033.682-1.628.433Zm-2.325 3.735-20.591-8.643c-.595-.25-.831-.848-.526-1.337.304-.488 1.033-.682 1.628-.432l20.591 8.643c.595.25.83.848.526 1.337-.304.488-1.033.682-1.628.432Zm-2.325 3.735-20.591-8.643c-.595-.25-.831-.848-.527-1.337.305-.488 1.034-.682 1.629-.432l20.59 8.643c.595.25.831.848.527 1.337-.304.488-1.033.682-1.628.432Zm-2.325 3.736-20.591-8.643c-.595-.25-.831-.849-.527-1.337.304-.489 1.033-.682 1.628-.432l20.591 8.642c.595.25.831.849.527 1.337-.304.489-1.033.682-1.628.433Zm-2.326 3.735-20.591-8.643c-.595-.25-.83-.848-.526-1.337.304-.488 1.033-.682 1.628-.432l20.591 8.643c.595.249.831.848.527 1.336-.305.489-1.034.683-1.629.433Zm-2.325 3.735-20.591-8.643c-.595-.249-.83-.848-.526-1.337.304-.488 1.033-.682 1.628-.432l20.591 8.643c.595.249.831.848.527 1.337-.305.488-1.034.682-1.629.432Zm-2.325 3.735-20.591-8.642c-.595-.25-.831-.849-.526-1.337.304-.489 1.033-.682 1.628-.433l20.591 8.643c.595.25.83.848.526 1.337-.304.489-1.033.682-1.628.432Zm-2.326 3.736-20.591-8.643c-.595-.25-.83-.848-.526-1.337.304-.489 1.033-.682 1.628-.432l20.591 8.642c.595.25.831.849.527 1.337-.305.489-1.034.682-1.629.433Zm-2.325 3.735-20.591-8.643c-.595-.249-.831-.848-.526-1.337.304-.488 1.033-.682 1.628-.432l20.591 8.643c.595.249.831.848.526 1.337-.304.488-1.033.682-1.628.432Zm-2.325 3.735-20.591-8.643c-.595-.249-.831-.848-.527-1.336.305-.489 1.034-.683 1.629-.433l20.591 8.643c.595.25.83.848.526 1.337-.304.488-1.033.682-1.628.432Zm-2.325 3.735-20.591-8.642c-.595-.25-.831-.849-.527-1.337.304-.489 1.033-.682 1.628-.433l20.591 8.643c.595.25.831.849.527 1.337-.304.489-1.033.682-1.628.432ZM568.496 31.303l8.716 8.431c.433.419.37 1.046-.139 1.4-.51.356-1.273.305-1.706-.114l-8.716-8.431c-.432-.419-.37-1.045.14-1.4.509-.356 1.273-.305 1.705.114Zm-9.401-3.294 8.716 8.431c.433.419.37 1.046-.139 1.4-.51.356-1.273.304-1.706-.114l-8.715-8.431c-.433-.419-.371-1.046.139-1.4.509-.356 1.273-.305 1.705.114Zm-8.965-2.874 8.715 8.432c.433.418.37 1.045-.139 1.4-.51.355-1.273.304-1.706-.114l-8.715-8.432c-.433-.418-.37-1.045.139-1.4s1.273-.304 1.706.114Zm19.902 14.988c.509-.355 1.273-.303 1.705.115.433.418.37 1.045-.139 1.4s-1.273.304-1.706-.114c-.432-.418-.369-1.046.14-1.4Zm-9.72-3.603c.509-.354 1.273-.303 1.705.115.433.419.37 1.046-.139 1.4-.51.356-1.273.305-1.706-.114-.432-.418-.37-1.045.14-1.4Zm2.854-8.839c.509-.355 1.273-.303 1.705.115.433.418.37 1.045-.139 1.4-.51.355-1.273.304-1.706-.114-.432-.418-.37-1.046.14-1.4Zm-9.633-3.518c.509-.355 1.273-.304 1.705.114.433.419.37 1.046-.139 1.4-.51.356-1.273.305-1.706-.114-.432-.418-.37-1.045.14-1.4Zm171.163 49.3-1.506 15.125c-.055.547-.639.954-1.305.91l-.761-.052c-.666-.044-1.162-.524-1.107-1.07l1.506-15.126c.055-.546.639-.954 1.305-.909l.76.051c.667.045 1.162.524 1.108 1.071Zm-5.013-10.244-1.506 15.125c-.055.547-.639.954-1.305.909l-.761-.051c-.666-.045-1.161-.525-1.107-1.071l1.506-15.125c.055-.547.639-.954 1.305-.91l.761.052c.666.044 1.162.524 1.107 1.07Zm-5.085-9.521-1.506 15.125c-.055.547-.639.954-1.305.91l-.761-.052c-.666-.045-1.161-.524-1.107-1.071l1.506-15.125c.055-.547.639-.954 1.305-.91l.761.052c.666.045 1.162.524 1.107 1.071Zm1.503 29.455c.877.06 1.529.69 1.457 1.41-.072.719-.84 1.254-1.716 1.196-.876-.06-1.528-.69-1.457-1.41.072-.719.84-1.255 1.716-1.196Zm-4.96-10.775c.876.059 1.528.69 1.457 1.41-.072.719-.84 1.254-1.716 1.196-.877-.06-1.529-.69-1.457-1.41.071-.72.84-1.255 1.716-1.196Zm12.667-6.042c.877.059 1.529.69 1.457 1.41-.072.719-.84 1.254-1.716 1.195-.876-.059-1.528-.69-1.457-1.409.072-.72.84-1.255 1.716-1.196Zm-4.974-10.63c.876.058 1.529.69 1.457 1.409-.072.719-.84 1.255-1.716 1.196-.876-.06-1.528-.69-1.457-1.41.072-.719.84-1.254 1.716-1.196Zm-76.327-45.431c2.276 2.36 1.791 5.79-1.084 7.658-2.875 1.87-7.051 1.47-9.327-.89s-1.791-5.79 1.084-7.659c2.875-1.869 7.051-1.47 9.327.89Z"/><path stroke="#0F1B1B" stroke-miterlimit="10" stroke-opacity=".07" stroke-width="1.306" d="m239.372 35.207-1.247-.676c-2.696-1.463-6.367-.829-8.199 1.416l-11.585 14.198c-1.831 2.245-1.13 5.25 1.566 6.713l17.055 9.25c2.696 1.462 6.367.828 8.198-1.416l.847-1.039c1.229-1.506 3.692-1.931 5.501-.95l1.248.676c2.696 1.463 6.366.829 8.198-1.416l11.585-14.198c1.832-2.245 1.13-5.25-1.566-6.713l-17.055-9.25c-2.696-1.462-6.366-.828-8.198 1.416l-.847 1.039c-1.229 1.506-3.692 1.931-5.501.95Z"/><path fill="#D9D9D9" fill-opacity=".25" d="m699.734 118.991-6.62 7.353c-.962 1.068-2.795 1.294-4.096.504l-8.955-5.436c-1.3-.789-1.575-2.295-.614-3.363l6.621-7.353c.961-1.068 2.795-1.294 4.095-.504l8.955 5.436c1.301.789 1.576 2.295.614 3.363Zm-50.3 300.711 8.355-3.479 4.236 6.861-12.591-3.382Zm17.926-9.805-8.355 3.479-4.236-6.86 12.591 3.381Zm-1.788 15.185c.019-.047.028-.095.038-.142.004-.017.011-.033.013-.049.005-.031.002-.061.003-.091.002-.036.006-.071.003-.107-.002-.017-.008-.033-.011-.05a.857.857 0 0 0-.116-.323l-5.611-9.085 11.019-4.588c.354-.095.652-.32.776-.633.208-.522-.138-1.083-.773-1.253l-18.165-4.879c-.635-.17-1.318.114-1.526.636-.019.047-.028.094-.038.141-.004.017-.011.033-.013.05-.005.03-.002.06-.003.09-.002.036-.006.071-.002.107.001.017.007.033.01.05.017.11.052.219.116.323l5.611 9.085-11.019 4.588c-.354.095-.652.32-.776.634-.208.521.138 1.082.774 1.253l18.164 4.878c.636.171 1.319-.114 1.526-.635Zm-48.203-75.046-20.591-8.643c-.595-.25-.831-.848-.527-1.337.305-.488 1.034-.682 1.629-.432l20.591 8.643c.595.249.83.848.526 1.337-.304.488-1.033.682-1.628.432Zm-2.326 3.735-20.591-8.643c-.595-.249-.83-.848-.526-1.337.304-.488 1.033-.682 1.628-.432l20.591 8.643c.595.25.831.848.526 1.337-.304.488-1.033.682-1.628.432Zm-2.325 3.735-20.591-8.642c-.595-.25-.831-.849-.526-1.337.304-.489 1.033-.682 1.628-.433l20.591 8.643c.595.25.83.849.526 1.337-.304.489-1.033.682-1.628.432Zm-2.325 3.736-20.591-8.643c-.595-.25-.831-.848-.527-1.337.305-.489 1.034-.682 1.629-.432l20.591 8.642c.595.25.83.849.526 1.337-.304.489-1.033.682-1.628.433Zm-2.325 3.735-20.591-8.643c-.595-.249-.831-.848-.527-1.337.304-.488 1.033-.682 1.628-.432l20.591 8.643c.595.249.831.848.527 1.337-.304.488-1.033.682-1.628.432Zm-2.325 3.735-20.591-8.643c-.595-.249-.831-.848-.527-1.337.304-.488 1.033-.682 1.628-.432l20.591 8.643c.595.249.831.848.527 1.337-.304.488-1.033.682-1.628.432Zm-2.326 3.736-20.59-8.643c-.596-.25-.831-.849-.527-1.337.304-.489 1.033-.682 1.628-.433l20.591 8.643c.595.25.831.849.527 1.337-.304.489-1.034.682-1.629.433Zm-2.325 3.735-20.591-8.643c-.595-.25-.83-.848-.526-1.337.304-.489 1.033-.682 1.628-.432l20.591 8.642c.595.25.83.849.526 1.337-.304.489-1.033.682-1.628.433Zm-2.325 3.735-20.591-8.643c-.595-.249-.831-.848-.527-1.337.304-.488 1.033-.682 1.628-.432l20.591 8.643c.595.249.831.848.527 1.337-.304.488-1.033.682-1.628.432Zm-2.326 3.735-20.591-8.642c-.595-.25-.83-.849-.526-1.337.304-.489 1.033-.682 1.628-.433l20.591 8.643c.595.25.831.848.527 1.337-.305.489-1.034.682-1.629.432Zm-2.325 3.736-20.591-8.643c-.595-.25-.831-.849-.526-1.337.304-.489 1.033-.682 1.628-.432l20.591 8.642c.595.25.83.849.526 1.337-.304.489-1.033.682-1.628.433Zm-14.194-102.582 8.716 8.431c.432.419.369 1.046-.14 1.401s-1.273.304-1.706-.115l-8.715-8.431c-.433-.419-.37-1.045.139-1.401.509-.355 1.273-.303 1.706.115Zm-9.401-3.294 8.716 8.431c.432.419.369 1.046-.14 1.401s-1.273.304-1.705-.115l-8.716-8.431c-.433-.419-.37-1.046.139-1.401.51-.355 1.273-.304 1.706.115Zm-8.966-2.874 8.716 8.432c.432.418.37 1.045-.14 1.4-.509.355-1.273.304-1.705-.114l-8.716-8.432c-.433-.418-.37-1.045.139-1.4.51-.355 1.274-.304 1.706.114Zm19.902 14.988c.51-.355 1.273-.303 1.706.115.432.418.37 1.045-.14 1.4-.509.356-1.273.304-1.705-.114-.433-.418-.37-1.046.139-1.401Zm-9.72-3.602c.509-.355 1.273-.304 1.706.114.432.419.369 1.046-.14 1.401s-1.273.304-1.705-.115c-.433-.418-.37-1.045.139-1.4Zm2.854-8.839c.509-.356 1.273-.304 1.706.114.432.419.369 1.045-.14 1.4-.509.356-1.273.304-1.705-.114-.433-.418-.37-1.045.139-1.4Zm-9.633-3.519c.51-.355 1.273-.304 1.706.115.432.418.37 1.045-.14 1.4-.509.355-1.273.304-1.705-.114-.433-.419-.37-1.046.139-1.401Zm171.164 49.3-1.507 15.125c-.054.547-.638.954-1.304.909l-.761-.051c-.666-.044-1.162-.524-1.107-1.071l1.506-15.125c.054-.547.639-.954 1.304-.909l.761.051c.666.045 1.162.524 1.108 1.071Zm-5.014-10.244-1.506 15.125c-.054.547-.638.954-1.304.909l-.761-.051c-.666-.045-1.162-.525-1.108-1.071l1.507-15.125c.054-.547.638-.954 1.304-.909l.761.051c.666.044 1.162.524 1.107 1.071Zm-5.085-9.521-1.506 15.125c-.054.547-.638.954-1.304.909l-.761-.051c-.666-.045-1.162-.524-1.108-1.071l1.507-15.125c.054-.547.638-.954 1.304-.909l.761.051c.666.045 1.162.524 1.107 1.071Zm1.504 29.455c.876.059 1.528.69 1.456 1.41-.071.719-.84 1.254-1.716 1.196-.876-.059-1.528-.69-1.456-1.409.071-.72.839-1.255 1.716-1.197Zm-4.961-10.775c.876.059 1.529.69 1.457 1.409-.072.72-.84 1.255-1.716 1.197-.876-.059-1.529-.69-1.457-1.41.072-.719.84-1.255 1.716-1.196Zm12.668-6.042c.876.059 1.528.689 1.457 1.409-.072.719-.84 1.255-1.716 1.196-.876-.059-1.529-.69-1.457-1.409.072-.719.84-1.255 1.716-1.196Zm-4.974-10.63c.876.058 1.528.689 1.457 1.409-.072.719-.84 1.255-1.716 1.196-.877-.059-1.529-.69-1.457-1.409.072-.72.84-1.255 1.716-1.196Z"/><path fill="#0F1B1B" fill-opacity=".07" d="M660.684 310.824c.308-2.961-.721-6.022-3.186-8.52-1.267-1.285-2.804-2.297-4.494-3.025-4.779-2.059-8.355-5.619-9.648-9.922-.482-1.606-1.382-3.155-2.714-4.536-2.386-2.475-5.726-3.963-9.25-4.392-2.539-.309-4.342-2.215-4.132-4.315.295-2.949-.737-5.993-3.19-8.48-4.896-4.963-13.814-5.864-20.025-2.018-6.537 4.046-7.704 11.693-2.651 16.933 2.386 2.475 5.726 3.963 9.25 4.392 2.549.31 4.356 2.167 4.136 4.275-.308 2.961.722 6.021 3.186 8.519 1.267 1.285 2.804 2.298 4.494 3.026 4.779 2.059 8.355 5.619 9.648 9.922.482 1.606 1.382 3.154 2.714 4.536 2.386 2.475 5.726 3.963 9.25 4.392 2.54.309 4.342 2.214 4.132 4.315-.294 2.948.737 5.993 3.191 8.48 4.896 4.963 13.813 5.863 20.024 2.018 6.537-4.046 7.704-11.693 2.651-16.933-2.386-2.475-5.726-3.963-9.25-4.392-2.548-.311-4.355-2.167-4.136-4.275Z"/><path fill="#D9D9D9" fill-opacity=".25" d="M653.932 263.779c2.276 2.36 1.791 5.789-1.084 7.658-2.875 1.869-7.051 1.471-9.327-.89s-1.791-5.79 1.084-7.659c2.875-1.868 7.051-1.47 9.327.891Z"/><path stroke="#0F1B1B" stroke-miterlimit="10" stroke-opacity=".07" stroke-width="1.306" d="m718.212 362.017-1.213-.737c-2.622-1.591-6.319-1.136-8.257 1.017l-12.262 13.618c-1.938 2.153-1.384 5.189 1.238 6.781l16.585 10.068c2.622 1.592 6.319 1.137 8.257-1.016l.897-.996c1.301-1.445 3.781-1.75 5.541-.682l1.212.736c2.623 1.592 6.32 1.137 8.258-1.016l12.261-13.619c1.939-2.153 1.385-5.188-1.237-6.78l-16.586-10.068c-2.622-1.592-6.319-1.137-8.257 1.016l-.897.996c-1.3 1.445-3.781 1.75-5.54.682Z"/><path fill="#D9D9D9" fill-opacity=".25" d="m711.159 372.495-6.62 7.353c-.961 1.068-2.795 1.294-4.096.504l-8.954-5.436c-1.301-.789-1.576-2.295-.614-3.363l6.62-7.353c.961-1.068 2.795-1.294 4.096-.504l8.954 5.436c1.301.789 1.576 2.295.614 3.363Zm-440-333.819-6.62 7.353c-.962 1.068-2.796 1.294-4.096.505l-8.955-5.437c-1.3-.789-1.575-2.295-.614-3.363l6.62-7.353c.962-1.068 2.796-1.293 4.096-.504l8.955 5.436c1.301.79 1.575 2.295.614 3.363Z"/></g></g><defs><clipPath id="a"><path fill="#fff" d="M-160 0H851v466.967H-160z"/></clipPath></defs></svg>