<svg xmlns="http://www.w3.org/2000/svg" width="741" height="407" fill="none"><path fill="#B0B0B0" d="M726 0h1v407h-1zM618 44h1v362h-1zM510 77h1v330h-1zm-108 27h1v303h-1zm-108 82h1v221h-1z"/><path stroke="#4B4B4B" stroke-dasharray="10 10" d="M728 406.5H0m728-72H108m620-74H108m621.012-72h-514m511.995-69H371.995"/><circle cx="108.5" cy="343.5" r="26.5" fill="url(#a)" transform="rotate(-90 108.5 343.5)"/><circle cx="512" cy="122" r="12" fill="#212121" transform="rotate(-90 512 122)"/><circle cx="403" cy="386" r="12" fill="#212121" transform="rotate(-90 403 386)"/><circle cx="729" cy="56" r="12" fill="#212121" transform="rotate(-90 729 56)"/><circle cx="618" cy="249" r="50" fill="url(#b)" transform="rotate(90 618 249)"/><path fill="#212121" d="M592.952 258v-16.488h3.672V258h-3.672Zm-2.64-8.544v-3.12h8.952v3.12h-8.952Zm11.29 8.544v-11.664h3.672V258h-3.672Zm3.672-6.408-1.536-1.2c.304-1.36.816-2.416 1.536-3.168.72-.752 1.72-1.128 3-1.128.56 0 1.048.088 1.464.264.432.16.808.416 1.128.768l-2.184 2.76a1.6 1.6 0 0 0-.6-.408 2.182 2.182 0 0 0-.816-.144c-.608 0-1.096.192-1.464.576-.352.368-.528.928-.528 1.68Zm10.796 6.456-4.8-11.712h3.96l3.048 9.288h-1.464l3.12-9.288h3.96l-4.992 11.712h-2.832Zm-3 4.872 3.504-7.56 2.328 2.688-2.064 4.872h-3.768Zm18.231-4.92v-11.664h3.672V258h-3.672Zm1.848-13.272c-.576 0-1.056-.192-1.44-.576-.368-.4-.552-.88-.552-1.44 0-.576.184-1.056.552-1.44.384-.384.864-.576 1.44-.576s1.048.192 1.416.576c.368.384.552.864.552 1.44 0 .56-.184 1.04-.552 1.44-.368.384-.84.576-1.416.576ZM639.935 258v-16.488h3.672V258h-3.672Zm-2.64-8.544v-3.12h8.952v3.12h-8.952Z"/><defs><radialGradient id="a" cx="0" cy="0" r="1" gradientTransform="matrix(-46.18952 -45.07447 35.49807 -36.37623 135 366.037)" gradientUnits="userSpaceOnUse"><stop offset=".147" stop-color="#EAEAEA"/><stop offset=".31" stop-color="#FFE6ED"/><stop offset=".386" stop-color="#F7C2DC"/><stop offset=".477" stop-color="#F2B0D0"/><stop offset=".644" stop-color="#E98ED1"/><stop offset=".79" stop-color="#6D73DD"/><stop offset=".915" stop-color="#3073C1"/><stop offset="1" stop-color="#638B9F"/></radialGradient><radialGradient id="b" cx="0" cy="0" r="1" gradientTransform="matrix(-87.1499 -85.04603 66.97754 -68.63443 668 291.523)" gradientUnits="userSpaceOnUse"><stop offset=".147" stop-color="#EAEAEA"/><stop offset=".31" stop-color="#FFE6ED"/><stop offset=".386" stop-color="#F7C2DC"/><stop offset=".477" stop-color="#F2B0D0"/><stop offset=".644" stop-color="#E98ED1"/><stop offset=".79" stop-color="#6D73DD"/><stop offset=".915" stop-color="#3073C1"/><stop offset="1" stop-color="#638B9F"/></radialGradient></defs></svg>