<svg xmlns="http://www.w3.org/2000/svg" width="375" height="330" fill="none"><g clip-path="url(#a)"><g clip-path="url(#b)"><mask id="c" width="467" height="1012" x="0" y="-394" maskUnits="userSpaceOnUse" style="mask-type:luminance"><path fill="#fff" d="M466.984 617.5v-1011H.017v1011h466.967Z"/></mask><g fill="#0F1B1B" fill-opacity=".07" mask="url(#c)"><path d="m375.53 235.055.873 12.999c.022.326-.069.631-.232.861a.919.919 0 0 1-.66.418l-9.723.968.795 11.842c.022.326-.069.631-.232.861a.919.919 0 0 1-.66.418l-9.742.97.797 11.865c.022.326-.069.631-.232.86-.159.233-.392.392-.66.419l-9.723.968.795 11.842c.022.326-.069.631-.232.861a.919.919 0 0 1-.66.418l-10.673 1.063c-.53.053-.994-.428-1.037-1.072-.044-.645.35-1.211.88-1.264l9.727-.968-.796-11.846c-.022-.325.068-.63.23-.859.16-.232.392-.389.659-.416l9.727-.968-.796-11.846a1.33 1.33 0 0 1 .24-.87c.16-.239.394-.403.666-.43l9.727-.968-.796-11.846a1.35 1.35 0 0 1 .23-.859c.16-.232.392-.389.659-.416l9.727-.968-.795-11.846c-.044-.645.35-1.21.88-1.263.53-.053.994.427 1.037 1.072ZM119.389-31.198l8.165 8.44c.205.212.318.506.336.809.022.302-.05.614-.224.863l-6.313 9.059 7.437 7.688c.205.212.319.506.337.808.022.302-.05.615-.224.864l-6.326 9.076 7.452 7.704c.205.211.318.505.337.808.022.302-.05.614-.224.864l-6.314 9.058 7.438 7.688c.205.212.318.506.336.808a1.34 1.34 0 0 1-.224.864l-6.93 9.943c-.344.494-.951.554-1.356.135-.405-.418-.454-1.158-.11-1.651l6.315-9.06-7.44-7.692a1.27 1.27 0 0 1-.337-.805 1.34 1.34 0 0 1 .225-.862l6.315-9.06-7.44-7.692a1.27 1.27 0 0 1-.336-.822 1.34 1.34 0 0 1 .222-.877l6.315-9.061-7.44-7.691a1.268 1.268 0 0 1-.336-.806 1.345 1.345 0 0 1 .224-.861l6.315-9.06-7.44-7.692c-.405-.419-.455-1.158-.111-1.651.344-.494.951-.554 1.356-.136Z"/></g><mask id="d" width="467" height="1012" x="0" y="-394" maskUnits="userSpaceOnUse" style="mask-type:luminance"><path fill="#fff" d="M466.984 617.5v-1011H.017v1011h466.967Z"/></mask><g fill="#EAEAEA" fill-opacity=".25" mask="url(#d)"><path d="M196.937 324.169 209.443 333l7.251-15.23-19.757 6.399Zm26.587 24.299-12.506-8.831-7.251 15.231 19.757-6.4Zm-1.152-34.89c.024.109.033.219.043.328.004.038.013.075.015.113.004.07-.003.138-.005.208-.002.081.001.163-.008.244-.005.039-.015.075-.021.113a2.605 2.605 0 0 1-.214.727l-9.603 20.171 16.495 11.647c.536.255.97.8 1.129 1.529.265 1.214-.328 2.459-1.324 2.782l-28.505 9.233c-.997.323-2.019-.399-2.285-1.613-.024-.11-.033-.219-.043-.329-.004-.038-.013-.075-.015-.113-.004-.07.003-.138.005-.207.001-.082-.001-.163.008-.245.004-.038.015-.075.021-.113.038-.249.104-.495.214-.727l9.603-20.17-16.495-11.647c-.536-.255-.97-.801-1.129-1.529-.266-1.214.328-2.46 1.324-2.783l28.505-9.233c.997-.322 2.019.4 2.285 1.614Z"/><path d="m194.095 353.04 57.387-52.168c.44-.4.53-1.158.202-1.694-.328-.535-.951-.645-1.39-.246L192.906 351.1c-.44.4-.53 1.158-.202 1.694.328.535.951.645 1.391.246ZM196.604 357.133l57.387-52.168c.44-.399.531-1.157.202-1.693-.328-.536-.95-.646-1.39-.246l-57.388 52.168c-.439.4-.53 1.158-.202 1.693.329.536.951.646 1.391.246ZM199.113 361.228l57.388-52.168c.439-.4.53-1.158.202-1.694-.329-.535-.951-.645-1.391-.246l-57.387 52.168c-.44.4-.53 1.158-.202 1.694.328.535.951.645 1.39.246ZM56.519 56.117l12.506 8.83 7.251-15.23-19.757 6.4Zm26.587 24.298L70.6 71.585l-7.251 15.23 19.758-6.4Zm-1.152-34.89c.024.11.033.219.043.328.004.038.013.075.015.113.004.07-.003.139-.005.208-.002.081 0 .163-.008.244-.005.04-.015.075-.021.113a2.598 2.598 0 0 1-.214.727l-9.603 20.17 16.495 11.648c.536.255.97.8 1.13 1.529.264 1.214-.329 2.46-1.325 2.782L59.956 92.62c-.997.323-2.02-.4-2.285-1.613-.023-.11-.033-.22-.043-.328-.004-.039-.013-.075-.015-.114-.004-.07.003-.138.005-.207.001-.082 0-.163.008-.245.004-.038.015-.074.021-.113a2.59 2.59 0 0 1 .214-.727l9.603-20.17-16.495-11.647c-.536-.255-.97-.8-1.13-1.53-.265-1.213.329-2.459 1.325-2.782l28.505-9.233c.997-.322 2.02.4 2.285 1.614Z"/><path d="m32.386 51.972 63.752 39.724c.489.304 1.087.069 1.337-.526s.057-1.324-.432-1.628L33.291 49.818c-.488-.305-1.087-.069-1.337.526s-.057 1.324.432 1.628ZM30.475 56.52l63.752 39.724c.489.304 1.087.068 1.337-.526.25-.595.057-1.324-.431-1.629L31.38 54.365c-.49-.304-1.088-.068-1.338.526-.25.595-.056 1.325.432 1.629ZM28.565 61.068l63.752 39.724c.488.305 1.087.069 1.337-.526s.056-1.324-.432-1.628L29.47 58.914c-.489-.305-1.087-.069-1.337.526s-.057 1.324.432 1.628Z"/></g><mask id="e" width="467" height="1012" x="0" y="-394" maskUnits="userSpaceOnUse" style="mask-type:luminance"><path fill="#fff" d="M466.984 617.5v-1011H.017v1011h466.967Z"/></mask><g fill="#0F1B1B" fill-opacity=".07" mask="url(#e)"><path d="m319.371-2.41 6.212 36.324 27.137-16.893-6.212-36.323L319.371-2.41Zm33.974 19.459 20.439 27.272-6.182-36.147L347.164-19.1l6.181 36.148Zm-27.486 17.525 20.539 27.406 27.137-16.893-20.539-27.407-27.137 16.894Zm20.742-54.763.011-.006a.256.256 0 0 1 .048-.018l.003-.001.006-.001.027-.006.019-.026c.124-.137.316-.127.43.024l20.962 27.971.017.028.013.022a.22.22 0 0 1 .015.033l.014.035.006.026.009.033L374.521 45c.034.2-.072.396-.236.438-.01.003-.02.003-.03.004l-.011.013-.011.015-.007.006c-.008.01-.018.017-.027.025l-.025.02-.008.006-27.688 17.236-.012.006c-.119.072-.267.045-.361-.08l-20.962-27.97-.009-.015-.011-.018-.01-.018-.012-.023-.005-.01-.004-.012-.008-.023a.113.113 0 0 1-.005-.018l-.008-.03-.002-.011-6.34-37.074a.402.402 0 0 1 .148-.396c.008-.005.014-.012.021-.016l27.688-17.236.015-.007ZM77.001 169.948l-8.045 35.785h30.477l8.045-35.785H77.001Zm22.979 36.157 8.006 35.613 8.006-35.613-8.006-35.612-8.006 35.612Zm-31.024.369L77 242.262h30.477l-8.046-35.788H68.956Zm38.935-37.265a.266.266 0 0 1 .065.013l.006.002.026.01.027-.012c.162-.055.329.062.373.259l8.211 36.525a.186.186 0 0 1 .005.034.251.251 0 0 1 .004.027l.001.038-.001.039a.234.234 0 0 1-.004.026.21.21 0 0 1-.005.035l-8.211 36.525c-.044.197-.211.313-.373.259-.01-.003-.019-.009-.028-.013l-.015.006-.016.007-.008.002a.19.19 0 0 1-.033.006c-.01.002-.019.004-.029.004l-.01.001H76.781l-.014-.001c-.133-.001-.254-.108-.291-.271l-8.211-36.525-.003-.018-.003-.022a.302.302 0 0 1-.004-.049l-.001-.012.001-.012.001-.025.002-.019.005-.032.002-.01 8.21-36.525c.036-.159.152-.264.28-.271.01-.001.017-.003.026-.003h31.095l.015.002Z"/></g><mask id="f" width="467" height="1012" x="0" y="-394" maskUnits="userSpaceOnUse" style="mask-type:luminance"><path fill="#fff" d="M466.984 617.5v-1011H.017v1011h466.967Z"/></mask><mask id="g" width="467" height="1012" x="0" y="-394" maskUnits="userSpaceOnUse" style="mask-type:luminance"><path fill="#fff" d="M466.984 617.5v-1011H.017v1011h466.967Z"/></mask><g mask="url(#g)"><path fill="#D9D9D9" fill-opacity=".25" d="m162.552 132.261 3.479-8.354-6.86-4.236 3.381 12.59Zm9.805-17.925-3.478 8.354 6.86 4.236-3.382-12.59Zm-15.184 1.787c.047-.019.094-.028.142-.038.016-.003.032-.01.049-.013.03-.004.06-.002.09-.003.036-.001.071-.005.107-.002.017.002.033.008.05.011.11.017.219.052.324.116l9.085 5.61 4.588-11.019c.095-.354.32-.651.633-.776.521-.208 1.082.139 1.253.774l4.878 18.165c.171.635-.114 1.318-.635 1.526-.047.019-.095.028-.142.038-.017.003-.033.01-.049.013-.03.004-.06.002-.091.003-.035.001-.071.005-.107.002-.017-.002-.033-.008-.049-.01a.881.881 0 0 1-.324-.117l-9.085-5.61-4.588 11.019c-.095.354-.32.651-.633.776-.522.208-1.083-.139-1.253-.774l-4.879-18.165c-.17-.635.114-1.318.636-1.526ZM232.218 164.327l8.643 20.591c.25.595.849.831 1.337.527.489-.305.682-1.034.433-1.629l-8.643-20.59c-.25-.595-.849-.831-1.337-.527-.489.304-.682 1.033-.433 1.628ZM228.483 166.652l8.643 20.591c.25.595.848.831 1.337.527.488-.305.682-1.034.432-1.629l-8.643-20.59c-.249-.595-.848-.831-1.337-.527-.488.304-.682 1.033-.432 1.628ZM224.748 168.978l8.643 20.591c.249.595.848.83 1.336.526.489-.304.683-1.033.433-1.628l-8.643-20.591c-.25-.595-.848-.831-1.337-.526-.488.304-.682 1.033-.432 1.628ZM221.013 171.303l8.643 20.591c.249.595.848.83 1.337.526.488-.304.682-1.033.432-1.628l-8.643-20.591c-.25-.595-.848-.831-1.337-.527-.488.305-.682 1.034-.432 1.629ZM217.278 173.628l8.642 20.591c.25.595.849.83 1.337.526.489-.304.682-1.033.433-1.628l-8.643-20.591c-.25-.595-.848-.831-1.337-.526-.489.304-.682 1.033-.432 1.628ZM213.542 175.953l8.643 20.591c.25.595.848.831 1.337.527.488-.305.682-1.034.432-1.629l-8.643-20.59c-.249-.595-.848-.831-1.336-.527-.489.304-.683 1.033-.433 1.628ZM209.807 178.278l8.643 20.591c.249.595.848.831 1.337.527.488-.304.682-1.033.432-1.628l-8.643-20.591c-.25-.595-.848-.831-1.337-.527-.488.304-.682 1.033-.432 1.628ZM206.071 180.604l8.643 20.591c.25.595.849.83 1.337.526.489-.304.682-1.033.433-1.628l-8.643-20.59c-.25-.595-.849-.831-1.337-.527-.489.304-.682 1.033-.433 1.628ZM202.336 182.929l8.643 20.591c.25.595.848.831 1.337.527.488-.304.682-1.033.432-1.628l-8.643-20.591c-.249-.595-.848-.831-1.336-.527-.489.304-.683 1.033-.433 1.628ZM198.601 185.255l8.643 20.59c.249.595.848.831 1.336.527.489-.304.683-1.033.433-1.628l-8.643-20.591c-.25-.595-.848-.831-1.337-.527-.488.304-.682 1.034-.432 1.629ZM194.866 187.58l8.643 20.591c.249.595.848.83 1.337.526.488-.304.682-1.033.432-1.628l-8.643-20.591c-.249-.595-.848-.831-1.337-.526-.488.304-.682 1.033-.432 1.628ZM297.447 201.774l-8.431-8.716c-.418-.432-1.045-.37-1.401.14-.355.509-.303 1.273.115 1.705l8.432 8.716c.418.433 1.045.37 1.4-.139.355-.51.304-1.274-.115-1.706ZM300.741 211.175l-8.431-8.716c-.418-.432-1.045-.37-1.401.14-.355.509-.303 1.273.115 1.705l8.432 8.716c.418.432 1.045.37 1.4-.139.355-.51.304-1.274-.115-1.706ZM303.615 220.141l-8.432-8.716c-.418-.432-1.045-.37-1.4.14-.355.509-.304 1.273.114 1.705l8.432 8.716c.418.432 1.045.37 1.401-.139.354-.51.303-1.274-.115-1.706ZM288.627 200.238c.355-.509.304-1.273-.115-1.705-.418-.433-1.045-.37-1.4.139-.355.51-.304 1.273.115 1.706.418.432 1.045.37 1.4-.14ZM292.23 209.958c.355-.509.303-1.273-.115-1.705-.418-.433-1.045-.37-1.4.139-.355.51-.304 1.273.114 1.706.418.432 1.046.37 1.401-.14ZM301.069 207.105c.355-.51.304-1.273-.115-1.706-.418-.432-1.045-.37-1.4.14-.355.509-.304 1.273.114 1.705.419.432 1.046.37 1.401-.139ZM304.587 216.738c.356-.51.304-1.273-.114-1.706-.418-.432-1.045-.37-1.4.14-.356.509-.304 1.273.114 1.705.418.432 1.045.37 1.4-.139ZM255.287 45.574l-15.125 1.507c-.547.054-.954.638-.909 1.304l.051.761c.045.666.524 1.162 1.071 1.108l15.125-1.507c.547-.054.954-.639.909-1.304l-.051-.761c-.045-.666-.524-1.162-1.071-1.108ZM265.532 50.587l-15.125 1.507c-.547.054-.954.638-.909 1.304l.051.761c.044.666.524 1.162 1.071 1.107l15.124-1.506c.547-.054.955-.639.91-1.304l-.051-.761c-.045-.666-.524-1.162-1.071-1.108ZM275.052 55.672l-15.125 1.507c-.547.054-.954.638-.909 1.304l.051.761c.045.666.525 1.162 1.071 1.107l15.125-1.506c.547-.054.954-.638.909-1.304l-.051-.761c-.044-.666-.524-1.162-1.071-1.108ZM245.597 54.17c-.059-.877-.69-1.529-1.409-1.457-.72.072-1.255.84-1.196 1.716.059.876.69 1.528 1.409 1.456.719-.071 1.255-.84 1.196-1.716ZM256.372 59.13c-.059-.877-.69-1.529-1.409-1.457-.72.072-1.255.84-1.196 1.716.058.876.689 1.528 1.409 1.456.719-.071 1.255-.84 1.196-1.716ZM262.414 46.462c-.058-.877-.689-1.529-1.409-1.457-.719.072-1.255.84-1.196 1.716.059.876.69 1.528 1.409 1.457.72-.072 1.255-.84 1.196-1.716ZM273.045 51.436c-.059-.876-.69-1.528-1.409-1.456-.72.071-1.255.84-1.197 1.716.059.876.69 1.528 1.41 1.456.719-.071 1.255-.84 1.196-1.716ZM318.476 127.763c-2.361-2.276-5.79-1.791-7.659 1.084-1.869 2.875-1.47 7.051.891 9.327 2.36 2.277 5.789 1.791 7.658-1.084 1.869-2.875 1.471-7.051-.89-9.327Z"/><path stroke="#0F1B1B" stroke-miterlimit="10" stroke-opacity=".07" stroke-width="2.612" d="m220.237 63.484.737 1.213c1.591 2.622 1.136 6.319-1.017 8.257l-13.618 12.262c-2.153 1.938-5.189 1.384-6.781-1.238L189.49 67.393c-1.592-2.622-1.137-6.32 1.016-8.258l.996-.896c1.445-1.301 1.75-3.781.682-5.54l-.736-1.214c-1.592-2.622-1.137-6.319 1.016-8.257l13.619-12.262c2.153-1.938 5.188-1.384 6.78 1.238l10.068 16.585c1.592 2.622 1.137 6.32-1.016 8.258l-.996.896c-1.444 1.3-1.75 3.782-.682 5.54Z"/><path fill="#D9D9D9" fill-opacity=".25" d="m209.759 70.536-7.353 6.62c-1.068.962-1.294 2.796-.504 4.096l5.436 8.955c.789 1.3 2.295 1.576 3.363.614l7.353-6.62c1.068-.961 1.294-2.796.504-4.096l-5.436-8.955c-.789-1.3-2.295-1.575-3.363-.614ZM89.198 310.042l-15.124 1.506c-.547.055-.954.639-.91 1.305l.052.761c.044.666.524 1.162 1.07 1.107l15.126-1.506c.546-.055.953-.639.909-1.305l-.051-.761c-.045-.666-.524-1.162-1.072-1.107ZM99.443 315.055l-15.125 1.506c-.546.055-.954.639-.909 1.305l.051.761c.045.666.525 1.162 1.071 1.107l15.125-1.506c.547-.055.954-.639.909-1.305l-.051-.76c-.044-.667-.524-1.162-1.07-1.108ZM108.964 320.14l-15.125 1.506c-.546.055-.954.639-.909 1.305l.051.761c.045.666.525 1.162 1.071 1.107l15.125-1.506c.547-.055.954-.639.909-1.305l-.051-.761c-.044-.666-.524-1.161-1.071-1.107ZM79.509 318.637c-.06-.876-.69-1.528-1.41-1.456-.719.071-1.255.84-1.196 1.716.06.876.69 1.528 1.41 1.456.719-.071 1.254-.839 1.196-1.716ZM90.284 323.597c-.059-.876-.69-1.528-1.41-1.456-.719.071-1.254.84-1.195 1.716.058.876.69 1.528 1.409 1.456.72-.071 1.255-.84 1.196-1.716ZM96.326 310.929c-.059-.876-.69-1.528-1.41-1.456-.719.071-1.254.84-1.195 1.716.058.876.69 1.528 1.409 1.457.72-.072 1.255-.84 1.196-1.717ZM106.956 315.904c-.058-.876-.689-1.528-1.409-1.457-.719.072-1.255.84-1.196 1.716.059.876.69 1.529 1.409 1.457.72-.072 1.255-.84 1.196-1.716Z"/><path stroke="#0F1B1B" stroke-miterlimit="10" stroke-opacity=".07" stroke-width="1.306" d="m65.13 287.832.737 1.213c1.591 2.622 1.136 6.319-1.017 8.258l-13.618 12.261c-2.153 1.939-5.189 1.385-6.78-1.237l-10.069-16.586c-1.592-2.622-1.137-6.319 1.016-8.257l.996-.897c1.445-1.3 1.75-3.781.682-5.54l-.736-1.213c-1.592-2.622-1.137-6.319 1.016-8.258l13.619-12.261c2.153-1.938 5.188-1.384 6.78 1.238l10.069 16.585c1.591 2.622 1.136 6.319-1.017 8.257l-.996.897c-1.444 1.301-1.75 3.781-.682 5.54ZM356.127 120.67l.736 1.213c1.592 2.622 1.137 6.319-1.016 8.257l-13.619 12.261c-2.153 1.939-5.188 1.385-6.78-1.237l-10.068-16.585c-1.592-2.622-1.137-6.319 1.016-8.258l.996-.896c1.445-1.301 1.75-3.782.682-5.541l-.736-1.213c-1.592-2.622-1.137-6.319 1.016-8.257l13.618-12.262c2.153-1.938 5.189-1.384 6.781 1.238l10.068 16.585c1.592 2.622 1.137 6.319-1.016 8.257l-.996.897c-1.445 1.301-1.75 3.781-.682 5.541Z"/></g></g></g><defs><clipPath id="a"><path fill="#fff" d="M0 0h375v330H0z"/></clipPath><clipPath id="b"><path fill="#fff" d="M467 617V11H0v606z"/></clipPath></defs></svg>