<svg xmlns="http://www.w3.org/2000/svg" width="768" height="428" fill="none"><path fill="#404040" d="M-2836-3614c0-1.1.9-2 2-2h9856c1.1 0 2 .9 2 2v8280c0 1.1-.9 2-2 2h-9856c-1.1 0-2-.9-2-2v-8280Z"/><g clip-path="url(#a)"><path fill="#fff" d="M0-3076h768V996H0z"/><g clip-path="url(#b)"><mask id="c" width="1192" height="671" x="0" y="326" maskUnits="userSpaceOnUse" style="mask-type:luminance"><path fill="#fff" d="M0 326h1192v670.5H0V326Z"/></mask><mask id="d" width="1192" height="671" x="0" y="326" maskUnits="userSpaceOnUse" style="mask-type:luminance"><path fill="#fff" d="M0 326h1192v670.5H0V326Z"/></mask><g fill="#EAEAEA" fill-opacity=".25" mask="url(#d)"><path d="m553.189 361.099 72.708 72.709a1.426 1.426 0 1 1-2.017 2.017l-72.708-72.709a1.426 1.426 0 1 1 2.017-2.017ZM557.448 356.84l72.709 72.708a1.427 1.427 0 0 1-2.018 2.018l-72.708-72.709a1.426 1.426 0 1 1 2.017-2.017ZM561.708 352.581l72.708 72.708a1.427 1.427 0 0 1-2.017 2.018l-72.709-72.709a1.426 1.426 0 1 1 2.018-2.017Z"/><path d="m580.337 419.186 18.513-9.388 9.388 18.514-27.901-9.126Zm39.724-26.461-18.514 9.388-9.388-18.514 27.902 9.126Zm-3.961 40.979c.041-.127.062-.255.084-.383.008-.044.023-.087.029-.132.01-.082.004-.163.006-.244.004-.097.012-.192.005-.289-.004-.046-.017-.09-.023-.135a2.646 2.646 0 0 0-.258-.872L603.51 407.13l24.418-12.382a2.667 2.667 0 0 0 1.72-1.708 2.68 2.68 0 0 0-1.714-3.382l-40.254-13.166a2.682 2.682 0 0 0-3.382 1.715c-.042.127-.062.255-.084.383-.008.045-.023.087-.029.132-.01.082-.004.163-.007.245-.003.096-.011.192-.004.288.004.046.017.09.023.135.038.296.115.592.258.873l12.432 24.518-24.417 12.382a2.673 2.673 0 0 0-.006 5.09l40.254 13.166a2.682 2.682 0 0 0 3.382-1.715Z"/></g><mask id="e" width="1192" height="671" x="0" y="326" maskUnits="userSpaceOnUse" style="mask-type:luminance"><path fill="#fff" d="M0 326h1192v670.5H0V326Z"/></mask><g mask="url(#e)"><path fill="#0F1B1B" fill-opacity=".07" d="m295.883 394.876 21.666-38.003 30.944 30.944-21.667 38.002-30.943-30.943Zm53.475-6.814 37.818-21.562-21.562 37.819-37.818 21.561 21.562-37.818Zm-31.192-31.807 38.005-21.668 30.943 30.944-38.005 21.668-30.943-30.944Zm8.464 70.6.014.011c.019.016.038.03.059.042l.003.002.008.004c.012.006.023.013.035.018.006.013.01.026.017.038a.437.437 0 0 0 .595.163l38.788-22.114c.012-.007.022-.016.033-.024l.026-.019a.242.242 0 0 0 .033-.031l.031-.032a.444.444 0 0 0 .019-.027c.008-.011.017-.021.024-.033l22.114-38.788a.437.437 0 0 0-.163-.595c-.013-.007-.026-.011-.039-.017a.128.128 0 0 0-.011-.02.229.229 0 0 0-.01-.023l-.007-.009c-.008-.014-.018-.027-.027-.039a.478.478 0 0 0-.036-.044l-31.572-31.572-.015-.012a.434.434 0 0 0-.521-.07l-38.788 22.114-.017.013c-.008.004-.015.01-.022.015a.552.552 0 0 0-.045.036c-.003.004-.008.006-.011.009a.106.106 0 0 1-.009.011.211.211 0 0 0-.019.023c-.005.006-.01.011-.014.018-.007.01-.015.02-.021.031a.07.07 0 0 0-.008.01l-22.114 38.788a.434.434 0 0 0 .059.509l.022.028 31.572 31.572.017.014Z"/></g><mask id="f" width="1192" height="671" x="0" y="326" maskUnits="userSpaceOnUse" style="mask-type:luminance"><path fill="#fff" d="M0 326h1192v670.5H0V326Z"/></mask><g fill="#EAEAEA" fill-opacity=".25" mask="url(#f)"><path d="M719.876 378.232h21.79c.787 0 1.426.639 1.426 1.427v.9c0 .787-.639 1.426-1.426 1.426h-21.79a1.427 1.427 0 0 1-1.427-1.426v-.9c0-.788.639-1.427 1.427-1.427ZM705.697 385.322h21.79c.788 0 1.426.638 1.426 1.426v.9c0 .788-.638 1.427-1.426 1.427h-21.79a1.426 1.426 0 0 1-1.426-1.427v-.9c0-.788.638-1.426 1.426-1.426ZM692.56 392.411h21.79c.788 0 1.427.639 1.427 1.427v.9c0 .788-.639 1.426-1.427 1.426h-21.79a1.426 1.426 0 0 1-1.426-1.426v-.9c0-.788.639-1.427 1.426-1.427ZM734.569 387.198a1.876 1.876 0 1 1 3.753 0 1.876 1.876 0 0 1-3.753 0ZM719.625 394.287a1.877 1.877 0 1 1 3.754.002 1.877 1.877 0 0 1-3.754-.002ZM709.761 380.109a1.877 1.877 0 1 1 3.754 0 1.877 1.877 0 0 1-3.754 0ZM695.026 387.198a1.877 1.877 0 1 1 3.754.002 1.877 1.877 0 0 1-3.754-.002Z"/></g><mask id="g" width="1192" height="671" x="0" y="326" maskUnits="userSpaceOnUse" style="mask-type:luminance"><path fill="#fff" d="M0 326h1192v670.5H0V326Z"/></mask><g fill="#D9D9D9" fill-opacity=".25" mask="url(#g)"><path d="m88.515 427.492 10.277 12.106a1.427 1.427 0 0 1-2.176 1.847L86.34 429.338a1.427 1.427 0 1 1 2.175-1.846ZM77.944 423.366l10.277 12.107a1.427 1.427 0 0 1-2.176 1.846L75.77 425.213a1.427 1.427 0 0 1 2.175-1.847ZM93.314 427.022a1.426 1.426 0 1 1 1.846 2.175 1.426 1.426 0 0 1-1.846-2.175ZM81.957 421.97a1.427 1.427 0 1 1 1.847 2.176 1.427 1.427 0 0 1-1.847-2.176ZM186.86 402.028a7.828 7.828 0 1 1-12.274 9.718 7.827 7.827 0 0 1 1.278-10.996 7.827 7.827 0 0 1 10.996 1.278Z"/></g></g><g clip-path="url(#h)"><path fill="#E5FFAF" d="M-1 0h768v427H-1z"/><circle cx="31" cy="276" r="30" fill="url(#i)"/><circle cx="369" cy="52" r="31" fill="url(#j)"/></g></g><path fill="#fff" fill-opacity=".1" d="M-2834-3615h9856v-2h-9856v2Zm9857 1v8280h2v-8280h-2Zm-1 8281h-9856v2h9856v-2Zm-9857-1v-8280h-2v8280h2Zm1 1c-.55 0-1-.45-1-1h-2c0 1.66 1.34 3 3 3v-2Zm9857-1c0 .55-.45 1-1 1v2c1.66 0 3-1.34 3-3h-2Zm-1-8281c.55 0 1 .45 1 1h2c0-1.66-1.34-3-3-3v2Zm-9856-2c-1.66 0-3 1.34-3 3h2c0-.55.45-1 1-1v-2Z"/><defs><clipPath id="a"><path fill="#fff" d="M0-3076h768V996H0z"/></clipPath><clipPath id="b"><path fill="#fff" d="M0 326h1192v670.5H0z"/></clipPath><clipPath id="h"><path fill="#fff" d="M0-180h767v654H0z"/></clipPath><radialGradient id="i" cx="0" cy="0" r="1" gradientTransform="rotate(59.144 -220.66 145.79) scale(50.6398)" gradientUnits="userSpaceOnUse"><stop stop-color="#FBB5D7" stop-opacity=".37"/><stop offset=".605" stop-color="#F8A4CD"/><stop offset=".796" stop-color="#E571C7"/><stop offset="1" stop-color="#515BF6"/></radialGradient><radialGradient id="j" cx="0" cy="0" r="1" gradientTransform="rotate(59.144 145.954 330.97) scale(52.3278)" gradientUnits="userSpaceOnUse"><stop stop-color="#FBB5D7" stop-opacity=".37"/><stop offset=".605" stop-color="#F8A4CD"/><stop offset=".796" stop-color="#E571C7"/><stop offset="1" stop-color="#515BF6"/></radialGradient></defs></svg>