<svg width="171" height="171" viewBox="0 0 171 171" fill="none" xmlns="http://www.w3.org/2000/svg">
<path  d="M156.973 87.9849L158.39 88.1L158.117 91.4729C158.057 92.2025 158.197 92.7797 158.536 93.2045C158.875 93.6293 159.361 93.8674 159.995 93.9189C160.593 93.9674 161.105 93.8104 161.532 93.4477C161.958 93.097 162.2 92.5569 162.26 91.8273L162.535 88.4364L164.006 88.5558L163.726 92.0005C163.662 92.7899 163.451 93.465 163.092 94.0259C162.746 94.5877 162.297 95.0027 161.745 95.2709C161.193 95.5512 160.576 95.6636 159.894 95.6083C159.188 95.551 158.585 95.3395 158.085 94.9738C157.584 94.6201 157.208 94.1381 156.957 93.5278C156.717 92.9184 156.629 92.219 156.694 91.4296L156.973 87.9849ZM151.647 86.4148L164.098 87.4256L163.961 89.112L151.51 88.1013L151.647 86.4148ZM151.064 93.5912L157.011 89.523L157.437 91.1649L150.891 95.7262L151.064 93.5912Z" fill="#212121"/>
<path d="M149.655 100.285C149.814 99.6072 150.11 99.0295 150.542 98.5517C150.984 98.0883 151.515 97.7691 152.135 97.5942C152.756 97.4192 153.428 97.4167 154.152 97.5867L158.989 98.7214L158.619 100.299L153.852 99.1803C153.397 99.0734 152.982 99.0562 152.607 99.1285C152.242 99.2154 151.936 99.3901 151.689 99.6527C151.443 99.9154 151.272 100.251 151.176 100.66C151.03 101.279 151.109 101.809 151.413 102.25C151.728 102.694 152.23 102.997 152.919 103.158L157.686 104.277L157.316 105.854L152.479 104.719C151.755 104.549 151.154 104.248 150.676 103.815C150.198 103.383 149.864 102.861 149.675 102.249C149.495 101.652 149.488 100.997 149.655 100.285Z" fill="#212121"/>
<path d="M146.628 109.959C146.872 109.358 147.215 108.863 147.658 108.473C148.108 108.098 148.614 107.857 149.176 107.748C149.738 107.639 150.309 107.683 150.89 107.88L153.275 108.847C153.84 109.115 154.28 109.481 154.597 109.946C154.92 110.427 155.107 110.956 155.158 111.533C155.215 112.126 155.124 112.717 154.885 113.307C154.592 114.03 154.145 114.606 153.544 115.035C152.938 115.476 152.256 115.737 151.498 115.818C150.74 115.899 149.971 115.782 149.193 115.466C148.414 115.15 147.781 114.7 147.294 114.113C146.806 113.527 146.499 112.865 146.371 112.127C146.249 111.404 146.335 110.682 146.628 109.959ZM148.148 110.283C147.945 110.784 147.883 111.271 147.964 111.743C148.044 112.216 148.239 112.645 148.549 113.03C148.87 113.419 149.298 113.722 149.832 113.938C150.354 114.15 150.867 114.228 151.368 114.173C151.87 114.117 152.309 113.945 152.684 113.657C153.071 113.374 153.364 112.988 153.562 112.498C153.765 111.998 153.826 111.511 153.746 111.038C153.677 110.57 153.48 110.147 153.154 109.769C152.828 109.391 152.398 109.093 151.864 108.877C151.342 108.665 150.834 108.576 150.341 108.609C149.855 108.658 149.419 108.824 149.032 109.108C148.641 109.402 148.346 109.794 148.148 110.283ZM148.486 105.856L160.396 110.685L159.787 112.186L153.866 109.786L152.062 108.724L150.012 108.223L147.877 107.357L148.486 105.856Z" fill="#212121"/>
<path d="M142.669 118.374L151.974 119.601L151.053 121.147L143.845 120.058L144.139 119.564L148.455 125.508L147.534 127.054L142.172 119.209L142.669 118.374ZM140.907 114.474L144.055 119.283L142.172 119.209L139.985 116.021L140.907 114.474Z" fill="#212121"/>
<path d="M133.265 130.786C133.846 130.179 134.512 129.77 135.263 129.559C136.014 129.347 136.769 129.331 137.528 129.509C138.296 129.696 138.983 130.08 139.59 130.661C140.188 131.234 140.589 131.891 140.792 132.633C141.003 133.384 141.02 134.139 140.841 134.899C140.662 135.658 140.283 136.341 139.702 136.948C139.129 137.546 138.467 137.951 137.717 138.162C136.966 138.391 136.211 138.416 135.452 138.237C134.693 138.058 134.014 137.683 133.416 137.11C132.809 136.529 132.396 135.859 132.176 135.1C131.964 134.349 131.952 133.59 132.139 132.822C132.317 132.063 132.693 131.384 133.265 130.786ZM134.397 131.869C134.023 132.259 133.782 132.693 133.674 133.171C133.566 133.648 133.584 134.123 133.73 134.595C133.885 135.076 134.166 135.511 134.574 135.901C134.972 136.283 135.415 136.532 135.901 136.649C136.379 136.774 136.85 136.768 137.314 136.63C137.778 136.51 138.197 136.255 138.57 135.865C138.944 135.475 139.185 135.041 139.293 134.563C139.41 134.094 139.396 133.623 139.25 133.151C139.104 132.679 138.831 132.252 138.432 131.87C138.025 131.48 137.578 131.218 137.091 131.085C136.613 130.959 136.138 130.961 135.666 131.09C135.193 131.219 134.77 131.479 134.397 131.869Z" fill="#212121"/>
<path d="M124.256 138.957L127.291 142.913C127.686 143.427 128.173 143.726 128.752 143.811C129.331 143.896 129.878 143.741 130.392 143.347C130.735 143.084 130.981 142.774 131.131 142.417C131.281 142.06 131.329 141.69 131.277 141.307C131.225 140.923 131.067 140.56 130.804 140.217L131.563 140.112C131.957 140.626 132.194 141.171 132.272 141.746C132.35 142.321 132.272 142.88 132.038 143.423C131.812 143.975 131.441 144.448 130.927 144.842C130.413 145.237 129.862 145.455 129.274 145.498C128.677 145.547 128.104 145.45 127.554 145.207C127.011 144.973 126.561 144.622 126.203 144.156L122.971 139.943L124.256 138.957ZM129.055 135.275L134.259 142.059L132.974 143.045L127.769 136.262L129.055 135.275Z" fill="#212121"/>
<path d="M117.247 149.594L117.82 150.896L114.723 152.26C114.054 152.555 113.612 152.953 113.4 153.453C113.188 153.953 113.21 154.494 113.466 155.076C113.708 155.625 114.09 156.001 114.612 156.204C115.123 156.411 115.714 156.368 116.384 156.072L119.497 154.701L120.092 156.051L116.929 157.445C116.205 157.764 115.51 157.9 114.846 157.851C114.187 157.814 113.609 157.617 113.11 157.259C112.601 156.907 112.208 156.417 111.932 155.792C111.647 155.144 111.546 154.513 111.63 153.899C111.702 153.29 111.947 152.73 112.364 152.218C112.786 151.717 113.359 151.307 114.084 150.988L117.247 149.594ZM116.092 144.163L121.13 155.594L119.581 156.276L114.544 144.845L116.092 144.163ZM109.504 147.066L115.912 150.36L114.671 151.516L107.543 147.93L109.504 147.066Z" fill="#212121"/>
<path d="M102.717 149.054C103.473 148.861 104.207 148.872 104.918 149.087C105.632 149.314 106.252 149.707 106.779 150.267C107.293 150.829 107.654 151.517 107.862 152.331C108.069 153.145 108.081 153.922 107.898 154.662C107.704 155.405 107.353 156.046 106.846 156.583C106.328 157.124 105.685 157.492 104.917 157.688C104.289 157.848 103.697 157.856 103.14 157.713C102.575 157.585 102.082 157.326 101.661 156.938C101.243 156.562 100.94 156.076 100.751 155.48L100.116 152.986C99.9995 152.384 100.033 151.812 100.217 151.269C100.389 150.73 100.691 150.263 101.123 149.868C101.547 149.488 102.078 149.216 102.717 149.054ZM102.834 150.603C102.054 150.801 101.493 151.223 101.15 151.868C100.809 152.524 100.744 153.265 100.954 154.091C101.1 154.661 101.336 155.127 101.664 155.489C101.983 155.866 102.369 156.12 102.824 156.252C103.281 156.396 103.772 156.401 104.295 156.267C104.818 156.134 105.253 155.893 105.597 155.546C105.93 155.201 106.159 154.783 106.281 154.294C106.396 153.819 106.383 153.308 106.244 152.762C106.102 152.204 105.866 151.737 105.535 151.363C105.196 151.004 104.792 150.754 104.322 150.614C103.853 150.473 103.357 150.47 102.834 150.603ZM100.006 149.93L100.575 152.163L100.794 154.262L101.601 156.192L102.117 158.215L100.529 158.62L98.4186 150.334L100.006 149.93Z" fill="#212121"/>
<path d="M95.3086 150.786L96.4254 159.263L94.8193 159.474L93.7024 150.998L95.3086 150.786ZM95.8457 161.064C96.1431 161.025 96.3996 161.088 96.615 161.253C96.832 161.43 96.9601 161.667 96.9993 161.965C97.0369 162.25 96.9731 162.501 96.8078 162.716C96.6441 162.944 96.4135 163.077 96.1161 163.116C95.8187 163.155 95.5614 163.086 95.3444 162.909C95.129 162.744 95.0025 162.518 94.9649 162.233C94.9257 161.935 94.9879 161.673 95.1516 161.446C95.3169 161.23 95.5483 161.103 95.8457 161.064Z" fill="#212121"/>
<path d="M90.8049 151.3L91.5978 164.128L89.9809 164.228L89.188 151.4L90.8049 151.3Z" fill="#212121"/>
<path d="M83.4649 151.291C83.9445 151.31 84.3979 151.388 84.8249 151.524C85.2395 151.672 85.6223 151.867 85.9732 152.109C86.3237 152.363 86.6246 152.656 86.8759 152.99L85.7924 153.993C85.4954 153.598 85.1468 153.296 84.7465 153.088C84.3457 152.893 83.8936 152.785 83.3899 152.766C82.8863 152.746 82.4934 152.815 82.2111 152.972C81.9283 153.142 81.781 153.382 81.7689 153.694C81.7569 154.006 81.8615 154.25 82.0829 154.426C82.2918 154.615 82.568 154.769 82.9116 154.891C83.2547 155.024 83.622 155.152 84.0136 155.276C84.3926 155.41 84.7526 155.574 85.0934 155.768C85.4342 155.961 85.7125 156.218 85.9283 156.538C86.1321 156.859 86.224 157.276 86.2041 157.792C86.1842 158.308 86.0412 158.746 85.775 159.108C85.5084 159.482 85.1493 159.763 84.6977 159.949C84.2342 160.136 83.6847 160.217 83.0491 160.192C82.3776 160.166 81.7887 160.023 81.2824 159.764C80.7636 159.515 80.3453 159.151 80.0276 158.67L81.1111 157.667C81.3389 157.988 81.6294 158.24 81.9827 158.422C82.3239 158.603 82.7164 158.702 83.1601 158.719C83.6277 158.737 83.9907 158.667 84.249 158.509C84.4948 158.362 84.6233 158.145 84.6344 157.857C84.6455 157.57 84.5462 157.344 84.3363 157.179C84.1265 157.015 83.8498 156.872 83.5062 156.751C83.1507 156.629 82.7834 156.501 82.4043 156.366C82.0247 156.244 81.6648 156.08 81.3245 155.874C80.9841 155.669 80.7123 155.4 80.5089 155.068C80.2936 154.736 80.1961 154.306 80.2165 153.778C80.2475 152.975 80.5599 152.35 81.1535 151.905C81.7351 151.459 82.5056 151.254 83.4649 151.291Z" fill="#212121"/>
<path d="M69.8958 155.302L69.5239 156.675L66.2577 155.79C65.5512 155.598 64.9582 155.63 64.4787 155.886C63.9992 156.141 63.6762 156.576 63.5099 157.19C63.3529 157.769 63.4138 158.301 63.6924 158.787C63.9595 159.27 64.4463 159.607 65.1528 159.798L68.4363 160.688L68.0503 162.113L64.7146 161.209C63.9502 161.002 63.325 160.671 62.8391 160.216C62.35 159.772 62.024 159.255 61.8609 158.664C61.6863 158.069 61.6884 157.442 61.8674 156.782C62.0525 156.099 62.3705 155.545 62.8214 155.12C63.2606 154.692 63.8032 154.41 64.4492 154.274C65.0921 154.15 65.7957 154.191 66.5602 154.398L69.8958 155.302ZM72.4122 150.352L69.1448 162.409L67.5117 161.967L70.7791 149.91L72.4122 150.352ZM65.4629 148.469L68.3767 155.059L66.6846 155.178L63.3954 147.909L65.4629 148.469Z" fill="#212121"/>
<path d="M59.055 145.795C59.6909 146.078 60.203 146.476 60.5914 146.991C60.9639 147.511 61.178 148.093 61.2337 148.735C61.2894 149.377 61.1659 150.038 60.8634 150.717L58.8431 155.256L57.3631 154.597L59.3541 150.124C59.5444 149.697 59.6391 149.292 59.6381 148.911C59.6212 148.536 59.5069 148.202 59.295 147.911C59.0832 147.62 58.7854 147.389 58.4017 147.218C57.8207 146.959 57.2852 146.938 56.7953 147.153C56.3005 147.379 55.9091 147.816 55.6212 148.463L53.6302 152.936L52.1502 152.277L54.1705 147.738C54.473 147.059 54.8815 146.524 55.3959 146.136C55.9103 145.748 56.4855 145.518 57.1216 145.446C57.7418 145.381 58.3863 145.497 59.055 145.795Z" fill="#212121"/>
<path d="M50.2081 141.07C50.7536 141.42 51.1772 141.848 51.4791 142.355C51.7644 142.866 51.9088 143.408 51.9123 143.98C51.9158 144.553 51.7674 145.106 51.4673 145.641L50.0776 147.808C49.7104 148.313 49.2691 148.679 48.7538 148.905C48.2219 149.134 47.6676 149.22 47.0907 149.164C46.4973 149.111 45.9329 148.913 45.3975 148.569C44.741 148.148 44.257 147.603 43.9456 146.932C43.624 146.256 43.4932 145.537 43.553 144.777C43.6128 144.017 43.8694 143.284 44.323 142.577C44.7765 141.87 45.3362 141.331 46.002 140.959C46.6678 140.588 47.3753 140.407 48.1245 140.417C48.857 140.431 49.5516 140.649 50.2081 141.07ZM49.6093 142.503C49.1548 142.212 48.6878 142.062 48.2083 142.054C47.7288 142.046 47.2715 142.158 46.8362 142.393C46.3945 142.637 46.0181 143.001 45.7071 143.486C45.4026 143.961 45.2315 144.45 45.1938 144.953C45.1561 145.456 45.2442 145.919 45.458 146.341C45.6654 146.774 45.9913 147.133 46.4357 147.418C46.8902 147.709 47.3572 147.859 47.8367 147.867C48.3097 147.885 48.762 147.769 49.1937 147.519C49.6253 147.268 49.9966 146.9 50.3076 146.415C50.6121 145.941 50.7933 145.458 50.8512 144.968C50.8926 144.481 50.8095 144.022 50.6022 143.589C50.3847 143.15 50.0538 142.788 49.6093 142.503ZM53.8987 143.651L46.9598 154.469L45.5962 153.594L49.0462 148.215L50.4214 146.638L51.2912 144.715L52.5351 142.776L53.8987 143.651Z" fill="#212121"/>
<path d="M42.6867 135.644L39.7894 144.571L38.4361 143.384L40.8163 136.493L41.2494 136.873L34.6199 140.037L33.2666 138.85L41.9559 135.003L42.6867 135.644ZM46.8415 134.619L41.5407 136.841L41.9559 135.003L45.4883 133.432L46.8415 134.619Z" fill="#212121"/>
<path d="M32.1877 124.112C32.6768 124.795 32.9561 125.525 33.0255 126.302C33.0949 127.079 32.9717 127.824 32.656 128.537C32.3305 129.257 31.8264 129.862 31.1435 130.351C30.4704 130.833 29.7502 131.106 28.9831 131.168C28.2062 131.237 27.4611 131.114 26.7478 130.799C26.0346 130.483 25.4334 129.984 24.9442 129.301C24.4621 128.628 24.1863 127.903 24.1169 127.126C24.0307 126.346 24.1455 125.599 24.4612 124.886C24.7769 124.173 25.2714 123.575 25.9445 123.093C26.6274 122.604 27.3621 122.321 28.1488 122.245C28.9257 122.175 29.6743 122.303 30.3945 122.629C31.1078 122.945 31.7055 123.439 32.1877 124.112ZM30.9146 125.024C30.6001 124.585 30.2182 124.268 29.7687 124.074C29.3193 123.879 28.8491 123.81 28.3581 123.866C27.8574 123.93 27.3778 124.126 26.9193 124.454C26.4705 124.775 26.1439 125.164 25.9395 125.621C25.7281 126.067 25.6471 126.531 25.6965 127.013C25.7293 127.491 25.9029 127.95 26.2173 128.389C26.5318 128.828 26.9137 129.145 27.3632 129.339C27.8028 129.541 28.2682 129.614 28.7591 129.557C29.2501 129.501 29.7199 129.312 30.1687 128.99C30.6272 128.662 30.967 128.271 31.1882 127.817C31.3997 127.37 31.4855 126.903 31.4458 126.415C31.4061 125.927 31.229 125.463 30.9146 125.024Z" fill="#212121"/>
<path d="M25.8387 113.818L21.3952 116.08C20.8177 116.374 20.4343 116.798 20.2451 117.352C20.0559 117.906 20.1082 118.472 20.4022 119.049C20.5981 119.434 20.8579 119.733 21.1814 119.945C21.5049 120.158 21.8599 120.273 22.2465 120.292C22.633 120.31 23.0188 120.222 23.4038 120.026L23.369 120.791C22.7915 121.085 22.2129 121.218 21.633 121.19C21.0532 121.162 20.518 120.983 20.0272 120.654C19.5258 120.33 19.1281 119.879 18.8342 119.302C18.5403 118.724 18.4261 118.143 18.4917 117.557C18.5518 116.961 18.7518 116.415 19.0917 115.919C19.4209 115.428 19.8476 115.05 20.3716 114.783L25.1039 112.374L25.8387 113.818ZM28.5821 119.208L20.9624 123.086L20.2275 121.643L27.8473 117.764L28.5821 119.208Z" fill="#212121"/>
<path d="M16.7116 105.123L15.3272 105.448L14.5543 102.154C14.3871 101.441 14.0772 100.934 13.6246 100.634C13.172 100.333 12.6361 100.256 12.0169 100.401C11.4328 100.538 10.9931 100.844 10.6981 101.32C10.4002 101.785 10.3349 102.373 10.5021 103.086L11.2791 106.398L9.84214 106.735L9.05278 103.37C8.87189 102.599 8.86617 101.892 9.03562 101.248C9.19339 100.607 9.49366 100.075 9.93645 99.6502C10.3765 99.2142 10.9295 98.918 11.5954 98.7618C12.2847 98.6001 12.9233 98.6167 13.5114 98.8115C14.0967 98.9947 14.6025 99.3382 15.0289 99.8421C15.4436 100.349 15.7414 100.988 15.9223 101.759L16.7116 105.123ZM22.2629 104.986L10.1011 107.839L9.71469 106.192L21.8765 103.339L22.2629 104.986ZM20.6185 97.9761L16.2045 103.671L15.2953 102.239L20.1292 95.8908L20.6185 97.9761Z" fill="#212121"/>
<path d="M19.8798 90.8012C19.9279 91.5798 19.78 92.2983 19.4359 92.9567C19.0799 93.6159 18.578 94.1519 17.9303 94.5647C17.2817 94.9655 16.5383 95.1918 15.6999 95.2436C14.8615 95.2954 14.0958 95.1624 13.4029 94.8445C12.7092 94.5147 12.1455 94.0506 11.7118 93.4522C11.2773 92.8418 11.0356 92.1414 10.9868 91.3509C10.9468 90.7042 11.049 90.1207 11.2934 89.6007C11.525 89.0694 11.8708 88.6332 12.3306 88.2922C12.7785 87.9519 13.3127 87.7446 13.9333 87.6701L16.5024 87.5113C17.1155 87.5095 17.6712 87.6495 18.1695 87.9313C18.6671 88.2011 19.0695 88.585 19.3768 89.083C19.6714 89.5698 19.8391 90.1425 19.8798 90.8012ZM18.3361 90.6261C18.2865 89.8237 17.977 89.1936 17.4077 88.7358C16.8264 88.2788 16.1105 88.0766 15.2601 88.1291C14.6733 88.1654 14.1713 88.3107 13.7542 88.5649C13.3243 88.8079 13.0022 89.1404 12.7879 89.5624C12.5615 89.9852 12.465 90.466 12.4983 91.005C12.5316 91.544 12.687 92.0153 12.9644 92.419C13.2411 92.8106 13.6084 93.1125 14.0664 93.3247C14.5116 93.5256 15.0157 93.6087 15.5787 93.5739C16.1536 93.5383 16.6556 93.3931 17.0846 93.1381C17.501 92.8719 17.822 92.5215 18.0476 92.0867C18.2732 91.652 18.3694 91.1651 18.3361 90.6261ZM19.5247 87.9738L17.2251 88.1159L15.1222 87.9393L13.075 88.3724L10.991 88.5012L10.8899 86.8664L19.4236 86.3389L19.5247 87.9738Z" fill="#212121"/>
<path d="M19.5375 82.9085L11.0018 82.4139L11.0955 80.7966L19.6312 81.2912L19.5375 82.9085ZM9.34149 81.5064C9.32414 81.8059 9.21407 82.0459 9.01128 82.2265C8.79652 82.4063 8.53939 82.4876 8.23989 82.4703C7.95237 82.4536 7.71833 82.3439 7.53776 82.1411C7.3452 81.9376 7.2576 81.6861 7.27496 81.3866C7.29231 81.0871 7.40837 80.8474 7.62313 80.6676C7.82592 80.487 8.07107 80.405 8.35859 80.4217C8.65809 80.439 8.90411 80.5495 9.09666 80.7529C9.27723 80.9557 9.35884 81.2069 9.34149 81.5064Z" fill="#212121"/>
<path d="M19.8397 78.622L7.08533 77.0411L7.2846 75.4334L20.039 77.0143L19.8397 78.622Z" fill="#212121"/>
<path d="M21.1725 71.4778C21.0664 71.9459 20.9071 72.3774 20.6947 72.7722C20.4731 73.1526 20.2114 73.4932 19.9095 73.7939C19.5958 74.092 19.2519 74.334 18.8775 74.5198L18.09 73.271C18.5335 73.0515 18.8939 72.7641 19.1713 72.4086C19.4371 72.0504 19.6256 71.6256 19.737 71.1341C19.8483 70.6425 19.8526 70.2436 19.7497 69.9373C19.6352 69.6283 19.4258 69.4394 19.1215 69.3705C18.8172 69.3015 18.5579 69.3597 18.3437 69.5449C18.1204 69.7158 17.9177 69.959 17.7354 70.2745C17.5415 70.5874 17.3481 70.925 17.1553 71.2874C16.9534 71.6353 16.7262 71.9591 16.4738 72.2588C16.2213 72.5584 15.9177 72.7849 15.5631 72.9383C15.2111 73.08 14.7834 73.0939 14.2802 72.9799C13.7769 72.8658 13.3718 72.6448 13.0646 72.3169C12.7458 71.9862 12.536 71.5819 12.4352 71.1038C12.337 70.614 12.3581 70.0589 12.4987 69.4386C12.6472 68.7832 12.8955 68.2304 13.2436 67.7802C13.5826 67.3157 14.0175 66.9713 14.5481 66.747L15.3356 67.9959C14.9783 68.161 14.678 68.4005 14.4346 68.7145C14.1938 69.0168 14.0244 69.3844 13.9263 69.8175C13.8228 70.2739 13.8252 70.6436 13.9334 70.9265C14.0325 71.195 14.2225 71.3611 14.5034 71.4247C14.7842 71.4884 15.0246 71.4321 15.2245 71.2559C15.4244 71.0797 15.6154 70.8339 15.7976 70.5183C15.9825 70.1911 16.1759 69.8535 16.3778 69.5055C16.568 69.1549 16.7952 68.831 17.0593 68.5341C17.3235 68.2371 17.6374 68.0191 18.0011 67.88C18.3675 67.7293 18.8082 67.7122 19.3231 67.8289C20.1072 68.0066 20.6639 68.428 20.993 69.0932C21.3248 69.7466 21.3846 70.5415 21.1725 71.4778Z" fill="#212121"/>
<path d="M19.721 57.3837L18.4419 56.7623L19.9208 53.7185C20.2407 53.0601 20.3198 52.4715 20.1583 51.9528C19.9967 51.434 19.6299 51.0357 19.0579 50.7578C18.5182 50.4956 17.9838 50.456 17.4545 50.6391C16.9305 50.8115 16.5086 51.2269 16.1887 51.8853L14.702 54.9452L13.3744 54.3002L14.8847 51.1917C15.2308 50.4793 15.6727 49.9268 16.2102 49.5343C16.737 49.1365 17.3061 48.9127 17.9173 48.8628C18.5338 48.8021 19.1497 48.9212 19.7649 49.2201C20.4017 49.5295 20.8868 49.9453 21.2201 50.4675C21.5587 50.9789 21.7344 51.5645 21.7473 52.2245C21.7494 52.8793 21.5774 53.5628 21.2313 54.2752L19.721 57.3837ZM24.1148 60.7793L12.8788 55.3202L13.6182 53.7983L24.8543 59.2574L24.1148 60.7793ZM27.2613 54.3032L20.2439 55.9368L20.4421 54.252L28.1974 52.3766L27.2613 54.3032Z" fill="#212121"/>
<path d="M31.0154 48.5564C30.6205 49.1295 30.1346 49.5598 29.5577 49.8472C28.9777 50.1179 28.367 50.2217 27.7255 50.1587C27.0841 50.0956 26.457 49.853 25.8444 49.4309L21.7534 46.6122L22.6725 45.2782L26.7042 48.056C27.0896 48.3215 27.4698 48.4888 27.8449 48.5578C28.2169 48.6101 28.5655 48.5588 28.8908 48.404C29.216 48.2492 29.4978 47.9989 29.7361 47.653C30.0969 47.1293 30.2164 46.6069 30.0946 46.0858C29.9628 45.5578 29.6055 45.093 29.0225 44.6913L24.9908 41.9135L25.9099 40.5795L30.0009 43.3982C30.6135 43.8203 31.0636 44.3198 31.351 44.8967C31.6384 45.4736 31.7589 46.0813 31.7125 46.7197C31.6631 47.3414 31.4307 47.9536 31.0154 48.5564Z" fill="#212121"/>
<path d="M37.1393 40.8482C36.6963 41.3211 36.198 41.66 35.6444 41.8649C35.0902 42.0529 34.5313 42.0966 33.9677 41.9962C33.4041 41.8958 32.8866 41.6495 32.4154 41.2574L30.5367 39.4978C30.1059 39.045 29.8264 38.5447 29.6981 37.9971C29.5693 37.4325 29.5849 36.8716 29.7449 36.3146C29.9044 35.7405 30.2016 35.2214 30.6364 34.7572C31.1696 34.188 31.794 33.811 32.5096 33.6262C33.2334 33.4328 33.9635 33.4343 34.7001 33.631C35.4366 33.8276 36.1115 34.2131 36.7245 34.7873C37.3376 35.3615 37.7663 36.0097 38.0107 36.7318C38.255 37.454 38.3043 38.1825 38.1586 38.9174C38.0123 39.6353 37.6725 40.2789 37.1393 40.8482ZM35.8381 39.9993C36.2072 39.6052 36.4393 39.1731 36.5343 38.7031C36.6293 38.233 36.6011 37.7628 36.4499 37.2923C36.2899 36.8136 35.9997 36.3774 35.5793 35.9836C35.1677 35.5981 34.7178 35.3411 34.2297 35.2127C33.7416 35.0844 33.2705 35.0871 32.8164 35.2208C32.3536 35.3463 31.9417 35.6017 31.5807 35.9871C31.2116 36.3812 30.9795 36.8133 30.8845 37.2833C30.7808 37.7452 30.813 38.2111 30.9812 38.681C31.1494 39.1509 31.4437 39.5828 31.8641 39.9765C32.2757 40.3621 32.7174 40.6278 33.1891 40.7737C33.6602 40.9026 34.1272 40.9043 34.5901 40.7788C35.0611 40.6445 35.4771 40.3847 35.8381 39.9993ZM33.9317 44.0095L24.5517 35.2237L25.6591 34.0414L30.3229 38.4096L31.6245 40.048L33.3576 41.2521L35.0391 42.8271L33.9317 44.0095Z" fill="#212121"/>
<path d="M44.0001 34.2584L35.7602 29.7647L37.1762 28.6535L43.5099 32.2634L43.0568 32.619L41.1694 25.5198L42.5855 24.4086L44.7647 33.6583L44.0001 34.2584ZM44.2412 38.5309L43.0344 32.9112L44.7647 33.6583L45.6572 37.4197L44.2412 38.5309Z" fill="#212121"/>
<path d="M57.2497 26.0304C56.4888 26.3862 55.7201 26.5271 54.9436 26.4531C54.1671 26.379 53.4572 26.1215 52.8138 25.6805C52.1654 25.2286 51.6632 24.6222 51.3074 23.8613C50.9567 23.1113 50.8209 22.3534 50.9 21.5878C50.9741 20.8114 51.2316 20.1014 51.6726 19.4581C52.1136 18.8147 52.7145 18.3151 53.4755 17.9593C54.2255 17.6085 54.9888 17.4702 55.7652 17.5443C56.5475 17.6024 57.2603 17.8519 57.9037 18.2929C58.5471 18.7339 59.0441 19.3294 59.3949 20.0795C59.7507 20.8404 59.8941 21.6145 59.8251 22.4019C59.7511 23.1783 59.4881 23.8908 59.0362 24.5393C58.5953 25.1826 57.9997 25.6797 57.2497 26.0304ZM56.5863 24.6119C57.0755 24.3831 57.4569 24.0657 57.7306 23.6595C58.0044 23.2533 58.1584 22.8037 58.1928 22.3107C58.2222 21.8068 58.1174 21.2995 57.8785 20.7886C57.6446 20.2885 57.3221 19.8962 56.9108 19.6116C56.5104 19.322 56.0692 19.1574 55.5871 19.1179C55.1107 19.0625 54.628 19.1491 54.1388 19.3778C53.6497 19.6066 53.2682 19.924 52.9945 20.3302C52.7157 20.7255 52.5591 21.1697 52.5247 21.6627C52.4903 22.1557 52.59 22.6522 52.8238 23.1522C53.0627 23.6631 53.3849 24.0688 53.7904 24.3694C54.1908 24.659 54.6346 24.8291 55.1218 24.8794C55.609 24.9298 56.0972 24.8406 56.5863 24.6119Z" fill="#212121"/>
<path d="M68.1997 21.7705L66.7865 16.989C66.6028 16.3676 66.2559 15.9133 65.7456 15.6262C65.2352 15.339 64.6694 15.2873 64.0479 15.471C63.6337 15.5934 63.2926 15.7943 63.0248 16.0737C62.757 16.353 62.5787 16.681 62.4898 17.0577C62.4009 17.4343 62.4176 17.8298 62.5401 18.244L61.7943 18.0703C61.6106 17.4489 61.5854 16.8557 61.7188 16.2907C61.8521 15.7258 62.1254 15.2321 62.5386 14.8096C62.9484 14.3757 63.464 14.0669 64.0855 13.8832C64.7069 13.6995 65.2994 13.6933 65.8631 13.8646C66.4383 14.0325 66.9388 14.3288 67.3646 14.7535C67.787 15.1667 68.0816 15.6553 68.2482 16.2191L69.7533 21.3114L68.1997 21.7705ZM62.3997 23.4847L59.9764 15.2853L61.5299 14.8262L63.9533 23.0256L62.3997 23.4847Z" fill="#212121"/>
<path d="M79.0214 14.2735L78.9611 12.8528L82.342 12.7092C83.0734 12.6781 83.629 12.4684 84.0088 12.0799C84.3887 11.6914 84.5651 11.1795 84.5381 10.5441C84.5126 9.9446 84.2937 9.45545 83.8812 9.07661C83.4808 8.69726 82.9149 8.52312 82.1835 8.55419L78.7846 8.69856L78.722 7.22389L82.1749 7.07723C82.9661 7.04362 83.6621 7.17019 84.2629 7.45696C84.8631 7.73173 85.3302 8.12626 85.6643 8.64055C86.0105 9.15432 86.198 9.7529 86.2271 10.4363C86.2571 11.1436 86.1215 11.768 85.8202 12.3092C85.5309 12.85 85.0988 13.2827 84.5241 13.6074C83.9489 13.9201 83.2656 14.0933 82.4743 14.1269L79.0214 14.2735ZM78.1191 19.7528L77.589 7.27202L79.2795 7.20021L79.8096 19.681L78.1191 19.7528ZM85.3126 19.4472L80.5432 14.0468L82.12 13.4213L87.4527 19.3563L85.3126 19.4472Z" fill="#212121"/>
<path d="M92.3925 20.0227C91.6184 19.9268 90.9394 19.6492 90.3555 19.1899C89.773 18.7186 89.3385 18.1267 89.052 17.414C88.7774 16.7029 88.6918 15.9305 88.7951 15.0968C88.8984 14.2632 89.17 13.5351 89.61 12.9125C90.0618 12.2913 90.6217 11.8227 91.2897 11.5064C91.9696 11.1917 92.7025 11.083 93.4885 11.1804C94.1315 11.2601 94.6862 11.4679 95.1524 11.8038C95.632 12.1293 95.9971 12.5494 96.2477 13.0641C96.4998 13.5669 96.6053 14.1302 96.5643 14.7539L96.2477 17.3083C96.1367 17.9113 95.8968 18.4317 95.5281 18.8697C95.1714 19.3091 94.72 19.6341 94.174 19.8445C93.6413 20.0445 93.0475 20.1039 92.3925 20.0227ZM92.8486 18.5376C93.6465 18.6365 94.3228 18.4482 94.8775 17.9728C95.4337 17.4856 95.7642 16.8191 95.869 15.9736C95.9413 15.3901 95.8909 14.8699 95.7178 14.4132C95.558 13.946 95.2904 13.5682 94.9151 13.2798C94.5412 12.9796 94.0863 12.7962 93.5504 12.7298C93.0145 12.6634 92.5226 12.7294 92.0748 12.9278C91.6389 13.1277 91.2746 13.4332 90.9818 13.8443C90.7024 14.245 90.528 14.7252 90.4586 15.2849C90.3877 15.8565 90.4381 16.3767 90.6098 16.8453C90.7948 17.3036 91.0803 17.6836 91.4661 17.9853C91.8519 18.2871 92.3127 18.4712 92.8486 18.5376ZM95.237 20.1939L95.5204 17.9074L96.081 15.8729L96.0319 13.781L96.2887 11.7089L97.9143 11.9103L96.8626 20.3954L95.237 20.1939Z" fill="#212121"/>
<path d="M100.044 21.0918L102.092 12.7907L103.665 13.1787L101.617 21.4798L100.044 21.0918ZM103.288 11.3244C102.997 11.2526 102.781 11.1004 102.64 10.8681C102.503 10.624 102.47 10.3563 102.542 10.0651C102.611 9.78546 102.761 9.57544 102.994 9.43501C103.229 9.28293 103.492 9.24282 103.784 9.31467C104.075 9.38652 104.289 9.54446 104.427 9.78851C104.567 10.0209 104.603 10.2769 104.534 10.5565C104.462 10.8478 104.309 11.0695 104.073 11.2216C103.841 11.362 103.579 11.3963 103.288 11.3244Z" fill="#212121"/>
<path d="M104.261 22.1856L108.183 9.94633L109.725 10.4406L105.804 22.6798L104.261 22.1856Z" fill="#212121"/>
<path d="M110.903 24.7547C110.463 24.5644 110.068 24.3285 109.719 24.0471C109.386 23.7594 109.099 23.4396 108.859 23.0875C108.623 22.7245 108.449 22.3419 108.335 21.9398L109.707 21.3952C109.841 21.8714 110.058 22.2785 110.356 22.6165C110.659 22.9435 111.042 23.2069 111.505 23.4067C111.968 23.6065 112.359 23.684 112.679 23.6392C113.004 23.5833 113.228 23.4122 113.352 23.1258C113.475 22.8393 113.466 22.5738 113.323 22.3292C113.196 22.0783 112.994 21.8343 112.718 21.5972C112.446 21.3491 112.149 21.0969 111.829 20.8408C111.524 20.5784 111.247 20.2956 110.999 19.9924C110.751 19.6892 110.584 19.3492 110.498 18.9724C110.424 18.6003 110.489 18.1774 110.693 17.7037C110.898 17.23 111.19 16.8723 111.568 16.6307C111.952 16.378 112.388 16.2461 112.876 16.2348C113.376 16.2283 113.918 16.3511 114.502 16.6032C115.118 16.8696 115.616 17.2152 115.995 17.6401C116.389 18.0587 116.648 18.5495 116.771 19.1123L115.398 19.6569C115.302 19.2754 115.122 18.9361 114.858 18.6392C114.605 18.347 114.274 18.1129 113.867 17.9369C113.437 17.7513 113.073 17.6857 112.775 17.7401C112.493 17.7882 112.295 17.9444 112.181 18.2088C112.067 18.4732 112.078 18.7198 112.214 18.9487C112.351 19.1775 112.557 19.4105 112.834 19.6476C113.122 19.8895 113.418 20.1416 113.723 20.404C114.033 20.6554 114.309 20.9382 114.553 21.2524C114.796 21.5666 114.953 21.9153 115.023 22.2983C115.103 22.6862 115.039 23.1225 114.83 23.6072C114.511 24.3453 113.995 24.8151 113.28 25.0164C112.577 25.2225 111.785 25.1352 110.903 24.7547Z" fill="#212121"/>
<path d="M125.116 25.9454L125.961 24.8016L128.683 26.8122C129.272 27.2471 129.836 27.4326 130.375 27.3687C130.915 27.3047 131.374 27.017 131.752 26.5054C132.108 26.0228 132.245 25.5046 132.161 24.9507C132.088 24.4041 131.757 23.9133 131.168 23.4784L128.431 21.4571L129.308 20.2699L132.088 22.3232C132.725 22.7938 133.188 23.3292 133.475 23.9295C133.77 24.5202 133.886 25.1206 133.823 25.7306C133.77 26.3478 133.54 26.9315 133.134 27.4817C132.713 28.0512 132.216 28.452 131.642 28.6842C131.077 28.9236 130.469 28.9892 129.818 28.8812C129.174 28.7635 128.533 28.4693 127.896 27.9988L125.116 25.9454ZM120.974 29.6442L128.396 19.5961L129.757 20.6014L122.335 30.6495L120.974 29.6442ZM126.766 33.922L126.443 26.7242L128.063 27.2271L128.489 35.1947L126.766 33.922Z" fill="#212121"/>
<path d="M131.671 38.5873C131.179 38.0951 130.844 37.5394 130.666 36.9199C130.505 36.3005 130.513 35.6811 130.691 35.0617C130.87 34.4422 131.222 33.8695 131.748 33.3434L135.261 29.8305L136.406 30.976L132.944 34.438C132.613 34.7689 132.38 35.1126 132.244 35.469C132.125 35.8253 132.113 36.1775 132.206 36.5254C132.299 36.8733 132.494 37.1957 132.791 37.4927C133.241 37.9424 133.733 38.1545 134.268 38.1291C134.811 38.0951 135.333 37.8279 135.833 37.3272L139.295 33.8652L140.441 35.0107L136.928 38.5237C136.402 39.0497 135.829 39.4019 135.21 39.5801C134.59 39.7583 133.971 39.7667 133.351 39.6055C132.749 39.4443 132.189 39.1049 131.671 38.5873Z" fill="#212121"/>
<path d="M138.415 46.3459C138.032 45.8233 137.791 45.271 137.691 44.6891C137.609 44.1097 137.669 43.5524 137.872 43.0169C138.074 42.4815 138.412 42.0184 138.884 41.6276L140.96 40.1058C141.485 39.7659 142.028 39.5835 142.59 39.5584C143.169 39.536 143.717 39.6548 144.235 39.9149C144.77 40.1776 145.225 40.5654 145.601 41.0783C146.062 41.7074 146.317 42.3906 146.367 43.128C146.424 43.8751 146.287 44.5925 145.958 45.2801C145.629 45.9677 145.126 46.5598 144.448 47.0564C143.771 47.5531 143.055 47.8548 142.3 47.9618C141.545 48.0687 140.82 47.9827 140.124 47.7039C139.446 47.4277 138.876 46.975 138.415 46.3459ZM139.489 45.2236C139.808 45.6591 140.19 45.9669 140.635 46.147C141.079 46.3271 141.547 46.3862 142.037 46.3244C142.537 46.2555 143.019 46.0507 143.484 45.7102C143.939 45.3768 144.274 44.982 144.49 44.526C144.707 44.0699 144.791 43.6064 144.743 43.1354C144.705 42.6574 144.53 42.2055 144.218 41.7796C143.899 41.3441 143.517 41.0363 143.072 40.8562C142.638 40.669 142.174 40.6147 141.681 40.6933C141.188 40.772 140.709 40.9815 140.245 41.322C139.79 41.6555 139.447 42.0406 139.217 42.4773C139.003 42.9165 138.915 43.3752 138.953 43.8533C138.998 44.341 139.177 44.7978 139.489 45.2236ZM135.9 42.6101L146.265 35.012L147.223 36.3186L142.069 40.0964L140.219 41.0733L138.716 42.5546L136.857 43.9167L135.9 42.6101Z" fill="#212121"/>
<path d="M143.464 54.0406L149.385 46.7587L150.219 48.3537L145.515 53.9226L145.248 53.4122L152.572 52.8516L153.406 54.4466L143.914 54.9019L143.464 54.0406ZM139.219 53.4982L144.964 53.3368L143.914 54.9019L140.053 55.0932L139.219 53.4982Z" fill="#212121"/>
<path d="M149.112 68.5198C148.902 67.7066 148.904 66.9251 149.119 66.1753C149.334 65.4256 149.717 64.7748 150.269 64.2231C150.832 63.6683 151.52 63.2857 152.333 63.0752C153.135 62.8678 153.904 62.8731 154.643 63.0911C155.392 63.3061 156.043 63.6892 156.595 64.2406C157.147 64.7919 157.528 65.4742 157.738 66.2874C157.946 67.089 157.942 67.8647 157.727 68.6145C157.527 69.3729 157.151 70.0279 156.599 70.5797C156.048 71.1314 155.371 71.511 154.57 71.7185C153.757 71.9289 152.969 71.9282 152.208 71.7162C151.458 71.5012 150.806 71.1122 150.251 70.5492C149.699 69.9979 149.32 69.3214 149.112 68.5198ZM150.628 68.1275C150.764 68.6502 151.006 69.0834 151.355 69.4268C151.704 69.7703 152.118 70.0041 152.597 70.1282C153.086 70.2493 153.604 70.2392 154.15 70.0979C154.685 69.9596 155.13 69.7143 155.485 69.3621C155.843 69.0215 156.085 68.6179 156.212 68.1511C156.354 67.693 156.357 67.2025 156.222 66.6798C156.087 66.157 155.845 65.7239 155.495 65.3804C155.158 65.0339 154.75 64.7987 154.272 64.6745C153.793 64.5504 153.287 64.5575 152.752 64.6958C152.206 64.8372 151.749 65.0796 151.379 65.4232C151.021 65.7638 150.772 66.1689 150.634 66.6387C150.495 67.1084 150.493 67.6047 150.628 68.1275Z" fill="#212121"/>
<path d="M151.338 80.523L156.299 80.0241C156.944 79.9592 157.455 79.7028 157.832 79.2548C158.209 78.8068 158.365 78.2604 158.3 77.6157C158.257 77.1859 158.123 76.8134 157.898 76.4983C157.674 76.1832 157.385 75.947 157.031 75.7895C156.677 75.6321 156.286 75.575 155.856 75.6183L156.165 74.9178C156.81 74.8529 157.398 74.9386 157.928 75.1747C158.458 75.4108 158.892 75.7712 159.231 76.2557C159.581 76.7391 159.788 77.3032 159.853 77.9479C159.918 78.5927 159.814 79.176 159.541 79.698C159.269 80.2319 158.885 80.6685 158.388 81.0079C157.903 81.3461 157.369 81.5446 156.784 81.6035L151.5 82.1349L151.338 80.523ZM150.733 74.5054L159.24 73.6497L159.402 75.2616L150.895 76.1173L150.733 74.5054Z" fill="#212121"/>
</svg>
