<svg width="16" height="16" viewBox="0 0 16 16" fill="none" xmlns="http://www.w3.org/2000/svg">
<path d="M1.77628 0.458945C1.41179 0.0944552 0.82084 0.0944548 0.45635 0.458944C0.0918608 0.823434 0.0918612 1.41439 0.456351 1.77888L6.67786 8.00039L0.456351 14.2219C0.0918612 14.5864 0.0918613 15.1773 0.45635 15.5418C0.82084 15.9063 1.41179 15.9063 1.77628 15.5418L7.99779 9.32032L14.222 15.5445C14.5864 15.909 15.1774 15.909 15.5419 15.5445C15.9064 15.18 15.9064 14.589 15.5419 14.2245L9.31772 8.00039L15.5419 1.77622C15.9064 1.41173 15.9064 0.820779 15.5419 0.45629C15.1774 0.0918002 14.5864 0.0917997 14.222 0.456289L7.99779 6.68045L1.77628 0.458945Z" fill="#212121"/>
</svg>
