<svg width="16" height="16" viewBox="0 0 16 16" fill="none" xmlns="http://www.w3.org/2000/svg">
<path d="M7.63533 1C3.97667 1 1 3.99067 1 7.66667C1 11.3427 3.99067 14.3333 7.66667 14.3333C11.3427 14.3333 14.3333 11.3427 14.3333 7.66667C14.3333 3.99067 11.3287 1 7.63533 1ZM7.66667 13C4.726 13 2.33333 10.6073 2.33333 7.66667C2.33333 4.726 4.71133 2.33333 7.63533 2.33333C10.594 2.33333 13 4.726 13 7.66667C13 10.6073 10.6073 13 7.66667 13Z" fill="#FF6969"/>
<path d="M7.33337 4.66669H8.66671V9.33335H7.33337V4.66669ZM7.33337 10H8.66671V11.3334H7.33337V10Z" fill="#FF6969"/>
</svg>
