<svg width="32" height="32" viewBox="0 0 32 32" fill="none" xmlns="http://www.w3.org/2000/svg">
<path fill-rule="evenodd" clip-rule="evenodd" d="M10 4H22.0053C25.316 4 28 6.684 28 9.99467V22.0067C28 25.316 25.316 28 22.0053 28H9.99467C6.684 28 4 25.316 4 22.0053V10C4 6.68667 6.68667 4 10 4V4Z" stroke="white" stroke-width="1.5" stroke-linecap="round" stroke-linejoin="round"/>
<path d="M10.8266 14.8V22" stroke="white" stroke-width="1.5" stroke-linecap="round" stroke-linejoin="round"/>
<path d="M15.6252 22V17.8C15.6252 16.1427 16.9679 14.8 18.6252 14.8V14.8C20.2826 14.8 21.6252 16.1427 21.6252 17.8V22" stroke="white" stroke-width="1.5" stroke-linecap="round" stroke-linejoin="round"/>
<path d="M10.824 10.4507C10.6587 10.4507 10.524 10.5853 10.5254 10.7507C10.5254 10.916 10.66 11.0507 10.8254 11.0507C10.9907 11.0507 11.1254 10.916 11.1254 10.7507C11.1254 10.584 10.9907 10.4507 10.824 10.4507" stroke="white" stroke-width="1.5" stroke-linecap="round" stroke-linejoin="round"/>
</svg>
