<svg id="eNLuSR6sjth1" xmlns="http://www.w3.org/2000/svg" xmlns:xlink="http://www.w3.org/1999/xlink" viewBox="0 0 210 55" shape-rendering="geometricPrecision" text-rendering="geometricPrecision">
<style><![CDATA[
#eNLuSR6sjth5_to {animation: eNLuSR6sjth5_to__to 1000ms linear infinite normal forwards}@keyframes eNLuSR6sjth5_to__to { 0% {offset-distance: 0%;animation-timing-function: cubic-bezier(0.42,0,0.58,1)} 50% {offset-distance: 49.977221%;animation-timing-function: cubic-bezier(0.42,0,0.58,1)} 100% {offset-distance: 100%}} #eNLuSR6sjth8_to {animation: eNLuSR6sjth8_to__to 1000ms linear infinite normal forwards}@keyframes eNLuSR6sjth8_to__to { 0% {transform: translate(183.752px,33.6001px);animation-timing-function: cubic-bezier(0.47,0,0.745,0.715)} 50% {transform: translate(187.753004px,33.6001px);animation-timing-function: cubic-bezier(0.47,0,0.745,0.715)} 100% {transform: translate(183.753004px,33.6001px)}}
]]></style>
<path d="M3.608,44v-30.536h4.136v30.536h-4.136Zm2.816,0v-3.784h16.368v3.784h-16.368Zm29.183.44c-1.9067,0-3.6373-.4693-5.192-1.408-1.5547-.968-2.7867-2.2733-3.696-3.916-.88-1.6427-1.32-3.4907-1.32-5.544s.44-3.9013,1.32-5.544c.9093-1.6427,2.1267-2.948,3.652-3.916c1.5547-.968,3.3-1.452,5.236-1.452c1.584,0,2.992.3373,4.224,1.012c1.2613.6453,2.2733,1.5547,3.036,2.728.7627,1.144,1.188,2.4787,1.276,4.004v6.292c-.088,1.496-.5133,2.8307-1.276,4.004-.7333,1.1733-1.7307,2.0973-2.992,2.772-1.232.6453-2.6547.968-4.268.968Zm.66-3.74c1.9653,0,3.5493-.66,4.752-1.98c1.2027-1.3493,1.804-3.0653,1.804-5.148c0-1.4373-.2787-2.684-.836-3.74-.528-1.0853-1.2907-1.9213-2.288-2.508-.9973-.616-2.156-.924-3.476-.924s-2.4933.308-3.52.924c-.9973.616-1.7893,1.4667-2.376,2.552-.5573,1.056-.836,2.2733-.836,3.652c0,1.408.2787,2.6547.836,3.74.5867,1.056,1.3933,1.892,2.42,2.508s2.2.924,3.52.924ZM42.559,44v-5.632l.748-5.104-.748-5.06v-5.104h4.004v20.9h-4.004Zm8.5374-2.156l12.408-16.588h4.664L55.7604,41.844h-4.664Zm0,2.156v-2.156l3.52-1.452h13.288v3.608h-16.808Zm.748-17.292v-3.608h16.324v2.156l-3.652,1.452h-12.672ZM79.7521,44.176L70.6881,23.1h4.4l6.732,16.5h-1.408l7.084-16.5h4.4l-9.768,21.076h-2.376Zm-5.984,8.58l6.16-12.628l2.2,4.048-3.96,8.58h-4.4ZM108.998,44v-3.608h9.24c1.76,0,3.139-.5133,4.136-1.54.997-1.056,1.496-2.3173,1.496-3.784c0-.9973-.22-1.892-.66-2.684-.44-.8213-1.085-1.4667-1.936-1.936-.821-.4693-1.789-.704-2.904-.704h-9.372v-3.608h8.756c1.467,0,2.625-.3813,3.476-1.144.88-.792,1.32-1.9213,1.32-3.388s-.455-2.5813-1.364-3.344c-.909-.792-2.112-1.188-3.608-1.188h-8.58v-3.608h8.668c1.995,0,3.652.3667,4.972,1.1c1.349.704,2.361,1.6427,3.036,2.816.704,1.1733,1.056,2.464,1.056,3.872c0,1.6427-.455,3.08-1.364,4.312-.88,1.232-2.185,2.2-3.916,2.904l.352-1.32c1.965.704,3.491,1.7747,4.576,3.212c1.115,1.408,1.672,3.08,1.672,5.016c0,1.6133-.396,3.0653-1.188,4.356s-1.936,2.332-3.432,3.124c-1.467.7627-3.271,1.144-5.412,1.144h-9.02Zm-2.772,0v-30.536h4.136v30.536h-4.136Zm27.194,0v-20.9h3.96v20.9h-3.96Zm1.98-25.08c-.733,0-1.335-.2347-1.804-.704-.469-.4987-.704-1.1147-.704-1.848c0-.704.235-1.2907.704-1.76.469-.4987,1.071-.748,1.804-.748s1.335.2493,1.804.748c.469.4693.704,1.056.704,1.76c0,.7333-.235,1.3493-.704,1.848-.469.4693-1.071.704-1.804.704Zm6.584,22.924l12.408-16.588h4.664L146.648,41.844h-4.664Zm0,2.156v-2.156l3.52-1.452h13.288v3.608h-16.808Zm.748-17.292v-3.608h16.324v2.156l-3.652,1.452h-12.672Zm29.99,17.732c-2.053,0-3.901-.484-5.544-1.452s-2.948-2.2733-3.916-3.916c-.968-1.672-1.452-3.5347-1.452-5.588c0-2.024.484-3.8427,1.452-5.456.968-1.6427,2.273-2.948,3.916-3.916s3.491-1.452,5.544-1.452c2.024,0,3.857.484,5.5,1.452c1.672.9387,2.992,2.2293,3.96,3.872s1.452,3.476,1.452,5.5c0,2.0533-.484,3.916-1.452,5.588-.968,1.6427-2.288,2.948-3.96,3.916-1.643.968-3.476,1.452-5.5,1.452Zm0-3.828c1.32,0,2.493-.308,3.52-.924s1.833-1.452,2.42-2.508c.587-1.0853.88-2.3173.88-3.696c0-1.3493-.308-2.552-.924-3.608-.587-1.056-1.393-1.8773-2.42-2.464-.997-.616-2.156-.924-3.476-.924s-2.493.308-3.52.924c-1.027.5867-1.833,1.408-2.42,2.464s-.88,2.2587-.88,3.608c0,1.3787.293,2.6107.88,3.696.587,1.056,1.393,1.892,2.42,2.508s2.2.924,3.52.924ZM203.32,44v-12.188c0-1.584-.499-2.8893-1.496-3.916s-2.288-1.54-3.872-1.54c-1.056,0-1.995.2347-2.816.704s-1.467,1.1147-1.936,1.936-.704,1.76-.704,2.816l-1.628-.924c0-1.584.352-2.992,1.056-4.224s1.687-2.2,2.948-2.904c1.261-.7333,2.684-1.1,4.268-1.1s2.977.396,4.18,1.188c1.232.792,2.2,1.8333,2.904,3.124.704,1.2613,1.056,2.6107,1.056,4.048v12.98h-3.96Zm-14.784,0v-20.9h3.96v20.9h-3.96Z" fill="#fff"/><path d="M35.6169,44.5225c6.0752,0,11-4.9249,11-11c0-6.0752-4.9248-11-11-11s-11,4.9248-11,11c0,6.0751,4.9249,11,11,11Z" clip-rule="evenodd" fill="#72dfdd" fill-rule="evenodd"/><path style="mix-blend-mode:overlay" d="M35.6169,44.5225c6.0752,0,11-4.9249,11-11c0-6.0752-4.9248-11-11-11s-11,4.9248-11,11c0,6.0751,4.9249,11,11,11Z" clip-rule="evenodd" fill="none" fill-opacity="0.1" fill-rule="evenodd"/><g id="eNLuSR6sjth5_to" style="offset-path:path('M32.781435,32.034862C32.781435,32.034862,35.580431,32.034862,36.78,32.034862C36.78,32.034862,32.77779,32.034862,32.77779,32.034862');offset-rotate:0deg"><path d="M34.0981,35.5886c-4.8461,1.5383-7.2866-5.3641-2.5205-7.1282.8384-.3105,2.1465-.2558,2.9801.1245c2.889,1.3168,2.5793,6.0385-.4596,7.0037Z" transform="translate(-32.781435,-32.034862)" fill="#515bf6"/></g><path d="M172.752,44.6001c6.075,0,11-4.9249,11-11s-4.925-11-11-11-11,4.9249-11,11s4.925,11,11,11Z" clip-rule="evenodd" fill="#72dfdd" fill-rule="evenodd"/><path style="mix-blend-mode:overlay" d="M172.752,44.6001c6.075,0,11-4.9249,11-11s-4.925-11-11-11-11,4.9249-11,11s4.925,11,11,11Z" clip-rule="evenodd" fill="none" fill-opacity="0.1" fill-rule="evenodd"/><g id="eNLuSR6sjth8_to" transform="translate(183.752,33.6001)"><path d="M172.233,35.6662c-4.846,1.5383-7.286-5.364-2.52-7.1281.838-.3106,2.146-.2558,2.98.1245c2.889,1.3167,2.579,6.0385-.46,7.0036Z" transform="translate(-183.751996,-33.600099)" fill="#515bf6"/></g><path d="M123.603,13.6814c-.406.9896-.826.9444-1.103.8184c0,0,1.25.8977,2,1.5.804.6455,1.5,2,1.5,2-1-3.5.135-4.1997,1.759-5.0661c1.171-.6252,1.488-1.2006.902-1.64-.78-.5847-2.259-.4232-3.455.3775-.828.5535-1.193,1.0115-1.603,2.0102Z" fill="#fff"/><path d="M203.5,23.9998c.277.126.697.6712,1.103-.3184.41-.9987.775-1.4567,1.603-2.0102c1.196-.8007,2.675-.9622,3.455-.3775.586.4394.269,1.0148-.902,1.64-1.602.855-2.735,2.8306-1.798,5.941.026.0797.039.1251.039.1251-.013-.0419-.026-.0836-.039-.1251-.156-.4953-.769-2.319-1.461-2.8749-.75-.6023-2-2-2-2Z" fill="#fff"/></svg>
