<svg width="741" height="407" viewBox="0 0 741 407" fill="none" xmlns="http://www.w3.org/2000/svg">
<rect x="726" width="1" height="407" fill="#B0B0B0"/>
<rect x="618" y="44" width="1" height="362" fill="#B0B0B0"/>
<rect x="510" y="77" width="1" height="330" fill="#B0B0B0"/>
<rect x="402" y="104" width="1" height="303" fill="#B0B0B0"/>
<rect x="294" y="186" width="1" height="221" fill="#B0B0B0"/>
<line x1="728" y1="406.5" x2="0.000244141" y2="406.5" stroke="#4B4B4B" stroke-dasharray="10 10"/>
<line x1="728" y1="334.5" x2="108" y2="334.5" stroke="#4B4B4B" stroke-dasharray="10 10"/>
<line x1="728" y1="260.5" x2="108" y2="260.5" stroke="#4B4B4B" stroke-dasharray="10 10"/>
<line x1="729.012" y1="188.5" x2="215.012" y2="188.5" stroke="#4B4B4B" stroke-dasharray="10 10"/>
<line x1="727.007" y1="119.5" x2="371.995" y2="119.5" stroke="#4B4B4B" stroke-dasharray="10 10"/>
<circle cx="108.5" cy="343.5" r="26.5" transform="rotate(-90 108.5 343.5)" fill="url(#paint0_radial_123_5390)"/>
<circle cx="512" cy="122" r="12" transform="rotate(-90 512 122)" fill="#212121"/>
<circle cx="403" cy="386" r="12" transform="rotate(-90 403 386)" fill="#212121"/>
<circle cx="729" cy="56" r="12" transform="rotate(-90 729 56)" fill="#212121"/>
<circle cx="618" cy="249" r="50" transform="rotate(90 618 249)" fill="url(#paint1_radial_123_5390)"/>
<path d="M592.952 258V241.512H596.624V258H592.952ZM590.312 249.456V246.336H599.264V249.456H590.312ZM601.602 258V246.336H605.274V258H601.602ZM605.274 251.592L603.738 250.392C604.042 249.032 604.554 247.976 605.274 247.224C605.994 246.472 606.994 246.096 608.274 246.096C608.834 246.096 609.322 246.184 609.738 246.36C610.17 246.52 610.546 246.776 610.866 247.128L608.682 249.888C608.522 249.712 608.322 249.576 608.082 249.48C607.842 249.384 607.57 249.336 607.266 249.336C606.658 249.336 606.17 249.528 605.802 249.912C605.45 250.28 605.274 250.84 605.274 251.592ZM616.07 258.048L611.27 246.336H615.23L618.278 255.624H616.814L619.934 246.336H623.894L618.902 258.048H616.07ZM613.07 262.92L616.574 255.36L618.902 258.048L616.838 262.92H613.07ZM631.301 258V246.336H634.973V258H631.301ZM633.149 244.728C632.573 244.728 632.093 244.536 631.709 244.152C631.341 243.752 631.157 243.272 631.157 242.712C631.157 242.136 631.341 241.656 631.709 241.272C632.093 240.888 632.573 240.696 633.149 240.696C633.725 240.696 634.197 240.888 634.565 241.272C634.933 241.656 635.117 242.136 635.117 242.712C635.117 243.272 634.933 243.752 634.565 244.152C634.197 244.536 633.725 244.728 633.149 244.728ZM639.935 258V241.512H643.607V258H639.935ZM637.295 249.456V246.336H646.247V249.456H637.295Z" fill="#212121"/>
<path d="M322.973 207.985L324.39 208.1L324.117 211.473C324.057 212.203 324.197 212.78 324.536 213.205C324.875 213.629 325.361 213.867 325.995 213.919C326.593 213.967 327.105 213.81 327.532 213.448C327.958 213.097 328.2 212.557 328.26 211.827L328.535 208.436L330.006 208.556L329.726 212.001C329.662 212.79 329.451 213.465 329.092 214.026C328.746 214.588 328.297 215.003 327.745 215.271C327.193 215.551 326.576 215.664 325.894 215.608C325.188 215.551 324.585 215.339 324.085 214.974C323.584 214.62 323.208 214.138 322.957 213.528C322.717 212.918 322.629 212.219 322.694 211.43L322.973 207.985ZM317.647 206.415L330.098 207.426L329.961 209.112L317.51 208.101L317.647 206.415ZM317.064 213.591L323.011 209.523L323.437 211.165L316.891 215.726L317.064 213.591Z" fill="#212121"/>
<path d="M315.655 220.285C315.814 219.607 316.11 219.03 316.542 218.552C316.984 218.088 317.515 217.769 318.135 217.594C318.756 217.419 319.428 217.417 320.152 217.587L324.989 218.721L324.619 220.299L319.852 219.18C319.397 219.073 318.982 219.056 318.607 219.129C318.242 219.215 317.936 219.39 317.689 219.653C317.443 219.915 317.272 220.251 317.176 220.66C317.03 221.279 317.109 221.809 317.413 222.25C317.728 222.694 318.23 222.997 318.919 223.158L323.686 224.277L323.316 225.854L318.479 224.719C317.755 224.549 317.154 224.248 316.676 223.815C316.198 223.383 315.864 222.861 315.675 222.249C315.495 221.652 315.488 220.997 315.655 220.285Z" fill="#212121"/>
<path d="M312.628 229.959C312.872 229.358 313.215 228.863 313.658 228.473C314.108 228.098 314.614 227.857 315.176 227.748C315.738 227.639 316.309 227.683 316.89 227.88L319.275 228.847C319.84 229.115 320.28 229.481 320.597 229.946C320.92 230.427 321.107 230.956 321.158 231.533C321.215 232.126 321.124 232.717 320.885 233.307C320.592 234.03 320.145 234.606 319.544 235.035C318.938 235.476 318.256 235.737 317.498 235.818C316.74 235.899 315.971 235.782 315.193 235.466C314.414 235.15 313.781 234.7 313.294 234.113C312.806 233.527 312.499 232.865 312.371 232.127C312.249 231.404 312.335 230.682 312.628 229.959ZM314.148 230.283C313.945 230.784 313.883 231.271 313.964 231.743C314.044 232.216 314.239 232.645 314.549 233.03C314.87 233.419 315.298 233.722 315.832 233.938C316.354 234.15 316.867 234.228 317.368 234.173C317.87 234.117 318.309 233.945 318.684 233.657C319.071 233.374 319.364 232.988 319.562 232.498C319.765 231.998 319.826 231.511 319.746 231.038C319.677 230.57 319.48 230.147 319.154 229.769C318.828 229.391 318.398 229.093 317.864 228.877C317.342 228.665 316.834 228.576 316.341 228.609C315.855 228.658 315.419 228.824 315.032 229.108C314.641 229.402 314.346 229.794 314.148 230.283ZM314.486 225.856L326.396 230.685L325.787 232.186L319.866 229.786L318.062 228.724L316.012 228.223L313.877 227.357L314.486 225.856Z" fill="#212121"/>
<path d="M308.669 238.374L317.974 239.601L317.053 241.147L309.845 240.058L310.139 239.564L314.455 245.508L313.534 247.054L308.172 239.209L308.669 238.374ZM306.907 234.474L310.055 239.283L308.172 239.209L305.985 236.021L306.907 234.474Z" fill="#212121"/>
<path d="M299.265 250.786C299.846 250.179 300.512 249.77 301.263 249.559C302.014 249.347 302.769 249.331 303.528 249.509C304.296 249.696 304.983 250.08 305.59 250.661C306.188 251.234 306.589 251.891 306.792 252.633C307.003 253.384 307.02 254.139 306.841 254.899C306.662 255.658 306.283 256.341 305.702 256.948C305.129 257.546 304.467 257.951 303.717 258.162C302.966 258.391 302.211 258.416 301.452 258.237C300.693 258.058 300.014 257.683 299.416 257.11C298.809 256.529 298.396 255.859 298.176 255.1C297.964 254.349 297.952 253.59 298.139 252.822C298.317 252.063 298.693 251.384 299.265 250.786ZM300.397 251.869C300.023 252.259 299.782 252.693 299.674 253.171C299.566 253.648 299.584 254.123 299.73 254.595C299.885 255.076 300.166 255.511 300.574 255.901C300.972 256.283 301.415 256.532 301.901 256.649C302.379 256.774 302.85 256.768 303.314 256.63C303.778 256.51 304.197 256.255 304.57 255.865C304.944 255.475 305.185 255.041 305.293 254.563C305.41 254.094 305.396 253.623 305.25 253.151C305.104 252.679 304.831 252.252 304.432 251.87C304.025 251.48 303.578 251.218 303.091 251.085C302.613 250.959 302.138 250.961 301.666 251.09C301.193 251.219 300.77 251.479 300.397 251.869Z" fill="#212121"/>
<path d="M290.256 258.957L293.291 262.913C293.686 263.427 294.173 263.726 294.752 263.811C295.331 263.896 295.878 263.741 296.392 263.347C296.735 263.084 296.981 262.774 297.131 262.417C297.281 262.06 297.329 261.69 297.277 261.307C297.225 260.923 297.067 260.56 296.804 260.217L297.563 260.112C297.957 260.626 298.194 261.171 298.272 261.746C298.35 262.321 298.272 262.88 298.038 263.423C297.812 263.975 297.441 264.448 296.927 264.842C296.413 265.237 295.862 265.455 295.274 265.498C294.677 265.547 294.104 265.45 293.554 265.207C293.011 264.973 292.561 264.622 292.203 264.156L288.971 259.943L290.256 258.957ZM295.055 255.275L300.259 262.059L298.974 263.045L293.769 256.262L295.055 255.275Z" fill="#212121"/>
<path d="M283.247 269.594L283.82 270.896L280.723 272.26C280.054 272.555 279.612 272.953 279.4 273.453C279.188 273.953 279.21 274.494 279.466 275.076C279.708 275.625 280.09 276.001 280.612 276.204C281.123 276.411 281.714 276.368 282.384 276.072L285.497 274.701L286.092 276.051L282.929 277.445C282.205 277.764 281.51 277.9 280.846 277.851C280.187 277.814 279.609 277.617 279.11 277.259C278.601 276.907 278.208 276.417 277.932 275.792C277.647 275.144 277.546 274.513 277.63 273.899C277.702 273.29 277.947 272.73 278.364 272.218C278.786 271.717 279.359 271.307 280.084 270.988L283.247 269.594ZM282.092 264.163L287.13 275.594L285.581 276.276L280.544 264.845L282.092 264.163ZM275.504 267.066L281.912 270.36L280.671 271.516L273.543 267.93L275.504 267.066Z" fill="#212121"/>
<path d="M268.717 269.054C269.473 268.861 270.207 268.872 270.918 269.087C271.632 269.314 272.252 269.707 272.779 270.267C273.293 270.829 273.654 271.517 273.862 272.331C274.069 273.145 274.081 273.922 273.898 274.662C273.704 275.405 273.353 276.046 272.846 276.583C272.328 277.124 271.685 277.492 270.917 277.688C270.289 277.848 269.697 277.856 269.14 277.713C268.575 277.585 268.082 277.326 267.661 276.938C267.243 276.562 266.94 276.076 266.751 275.48L266.116 272.986C265.999 272.384 266.033 271.812 266.217 271.269C266.389 270.73 266.691 270.263 267.123 269.868C267.547 269.488 268.078 269.216 268.717 269.054ZM268.834 270.603C268.054 270.801 267.493 271.223 267.15 271.868C266.809 272.524 266.744 273.265 266.954 274.091C267.1 274.661 267.336 275.127 267.664 275.489C267.983 275.866 268.369 276.12 268.824 276.252C269.281 276.396 269.772 276.401 270.295 276.267C270.818 276.134 271.253 275.893 271.597 275.546C271.93 275.201 272.159 274.783 272.281 274.294C272.396 273.819 272.383 273.308 272.244 272.762C272.102 272.204 271.866 271.737 271.535 271.363C271.196 271.004 270.792 270.754 270.322 270.614C269.853 270.473 269.357 270.47 268.834 270.603ZM266.006 269.93L266.575 272.163L266.794 274.262L267.601 276.192L268.117 278.215L266.529 278.62L264.419 270.334L266.006 269.93Z" fill="#212121"/>
<path d="M261.309 270.786L262.425 279.263L260.819 279.474L259.702 270.998L261.309 270.786ZM261.846 281.064C262.143 281.025 262.4 281.088 262.615 281.253C262.832 281.43 262.96 281.667 262.999 281.965C263.037 282.25 262.973 282.501 262.808 282.716C262.644 282.944 262.414 283.077 262.116 283.116C261.819 283.155 261.561 283.086 261.344 282.909C261.129 282.744 261.002 282.518 260.965 282.233C260.926 281.935 260.988 281.673 261.152 281.446C261.317 281.23 261.548 281.103 261.846 281.064Z" fill="#212121"/>
<path d="M256.805 271.3L257.598 284.128L255.981 284.228L255.188 271.4L256.805 271.3Z" fill="#212121"/>
<path d="M249.465 271.291C249.945 271.31 250.398 271.388 250.825 271.524C251.24 271.672 251.622 271.867 251.973 272.109C252.324 272.363 252.625 272.656 252.876 272.99L251.792 273.993C251.495 273.598 251.147 273.296 250.746 273.088C250.346 272.893 249.894 272.785 249.39 272.766C248.886 272.746 248.493 272.815 248.211 272.972C247.928 273.142 247.781 273.382 247.769 273.694C247.757 274.006 247.862 274.25 248.083 274.426C248.292 274.615 248.568 274.769 248.912 274.891C249.255 275.024 249.622 275.152 250.014 275.276C250.393 275.41 250.753 275.574 251.093 275.768C251.434 275.961 251.712 276.218 251.928 276.538C252.132 276.859 252.224 277.276 252.204 277.792C252.184 278.308 252.041 278.746 251.775 279.108C251.508 279.482 251.149 279.763 250.698 279.949C250.234 280.136 249.685 280.217 249.049 280.192C248.378 280.166 247.789 280.023 247.282 279.764C246.764 279.515 246.345 279.151 246.028 278.67L247.111 277.667C247.339 277.988 247.629 278.24 247.983 278.422C248.324 278.603 248.716 278.702 249.16 278.719C249.628 278.737 249.991 278.667 250.249 278.509C250.495 278.362 250.623 278.145 250.634 277.857C250.646 277.57 250.546 277.344 250.336 277.179C250.127 277.015 249.85 276.872 249.506 276.751C249.151 276.629 248.783 276.501 248.404 276.366C248.025 276.244 247.665 276.08 247.324 275.874C246.984 275.669 246.712 275.4 246.509 275.068C246.294 274.736 246.196 274.306 246.217 273.778C246.248 272.975 246.56 272.35 247.153 271.905C247.735 271.459 248.506 271.254 249.465 271.291Z" fill="#212121"/>
<path d="M235.896 275.302L235.524 276.675L232.258 275.79C231.551 275.598 230.958 275.63 230.479 275.886C229.999 276.141 229.676 276.576 229.51 277.19C229.353 277.769 229.414 278.301 229.692 278.787C229.959 279.27 230.446 279.607 231.153 279.798L234.436 280.688L234.05 282.113L230.715 281.209C229.95 281.002 229.325 280.671 228.839 280.216C228.35 279.772 228.024 279.255 227.861 278.664C227.686 278.069 227.688 277.442 227.867 276.782C228.053 276.099 228.371 275.545 228.821 275.12C229.261 274.692 229.803 274.41 230.449 274.274C231.092 274.15 231.796 274.191 232.56 274.398L235.896 275.302ZM238.412 270.352L235.145 282.409L233.512 281.967L236.779 269.91L238.412 270.352ZM231.463 268.469L234.377 275.059L232.685 275.178L229.395 267.909L231.463 268.469Z" fill="#212121"/>
<path d="M225.055 265.795C225.691 266.078 226.203 266.476 226.591 266.991C226.964 267.511 227.178 268.093 227.234 268.735C227.289 269.377 227.166 270.038 226.863 270.717L224.843 275.256L223.363 274.597L225.354 270.124C225.544 269.697 225.639 269.292 225.638 268.911C225.621 268.536 225.507 268.202 225.295 267.911C225.083 267.62 224.785 267.389 224.402 267.218C223.821 266.959 223.285 266.938 222.795 267.153C222.3 267.379 221.909 267.816 221.621 268.463L219.63 272.936L218.15 272.277L220.17 267.738C220.473 267.059 220.882 266.524 221.396 266.136C221.91 265.748 222.486 265.518 223.122 265.446C223.742 265.381 224.386 265.497 225.055 265.795Z" fill="#212121"/>
<path d="M216.208 261.07C216.754 261.42 217.177 261.848 217.479 262.355C217.764 262.866 217.909 263.408 217.912 263.98C217.916 264.553 217.767 265.106 217.467 265.641L216.078 267.808C215.71 268.313 215.269 268.679 214.754 268.905C214.222 269.134 213.668 269.22 213.091 269.164C212.497 269.111 211.933 268.913 211.398 268.569C210.741 268.148 210.257 267.603 209.946 266.932C209.624 266.256 209.493 265.537 209.553 264.777C209.613 264.017 209.869 263.284 210.323 262.577C210.776 261.87 211.336 261.331 212.002 260.959C212.668 260.588 213.375 260.407 214.124 260.417C214.857 260.431 215.552 260.649 216.208 261.07ZM215.609 262.503C215.155 262.212 214.688 262.062 214.208 262.054C213.729 262.046 213.271 262.158 212.836 262.393C212.394 262.637 212.018 263.001 211.707 263.486C211.403 263.961 211.232 264.45 211.194 264.953C211.156 265.456 211.244 265.919 211.458 266.341C211.665 266.774 211.991 267.133 212.436 267.418C212.89 267.709 213.357 267.859 213.837 267.867C214.31 267.885 214.762 267.769 215.194 267.519C215.625 267.268 215.997 266.9 216.308 266.415C216.612 265.941 216.793 265.458 216.851 264.968C216.893 264.481 216.81 264.022 216.602 263.589C216.385 263.15 216.054 262.788 215.609 262.503ZM219.899 263.651L212.96 274.469L211.596 273.594L215.046 268.215L216.421 266.638L217.291 264.715L218.535 262.776L219.899 263.651Z" fill="#212121"/>
<path d="M208.687 255.644L205.789 264.571L204.436 263.384L206.816 256.493L207.249 256.873L200.62 260.037L199.267 258.85L207.956 255.003L208.687 255.644ZM212.842 254.619L207.541 256.841L207.956 255.003L211.488 253.432L212.842 254.619Z" fill="#212121"/>
<path d="M198.188 244.112C198.677 244.795 198.956 245.525 199.025 246.302C199.095 247.079 198.972 247.824 198.656 248.537C198.331 249.257 197.826 249.862 197.143 250.351C196.47 250.833 195.75 251.106 194.983 251.168C194.206 251.237 193.461 251.114 192.748 250.799C192.035 250.483 191.433 249.984 190.944 249.301C190.462 248.628 190.186 247.903 190.117 247.126C190.031 246.346 190.146 245.599 190.461 244.886C190.777 244.173 191.271 243.575 191.944 243.093C192.627 242.604 193.362 242.321 194.149 242.245C194.926 242.175 195.674 242.303 196.395 242.629C197.108 242.945 197.705 243.439 198.188 244.112ZM196.915 245.024C196.6 244.585 196.218 244.268 195.769 244.074C195.319 243.879 194.849 243.81 194.358 243.866C193.857 243.93 193.378 244.126 192.919 244.454C192.471 244.775 192.144 245.164 191.939 245.621C191.728 246.067 191.647 246.531 191.697 247.013C191.729 247.491 191.903 247.95 192.217 248.389C192.532 248.828 192.914 249.145 193.363 249.339C193.803 249.541 194.268 249.614 194.759 249.557C195.25 249.501 195.72 249.312 196.169 248.99C196.627 248.662 196.967 248.271 197.188 247.817C197.4 247.37 197.486 246.903 197.446 246.415C197.406 245.927 197.229 245.463 196.915 245.024Z" fill="#212121"/>
<path d="M191.839 233.818L187.395 236.08C186.818 236.374 186.434 236.798 186.245 237.352C186.056 237.906 186.108 238.472 186.402 239.049C186.598 239.434 186.858 239.733 187.181 239.945C187.505 240.158 187.86 240.273 188.246 240.292C188.633 240.31 189.019 240.222 189.404 240.026L189.369 240.791C188.792 241.085 188.213 241.218 187.633 241.19C187.053 241.162 186.518 240.983 186.027 240.654C185.526 240.33 185.128 239.879 184.834 239.302C184.54 238.724 184.426 238.143 184.492 237.557C184.552 236.961 184.752 236.415 185.092 235.919C185.421 235.428 185.848 235.05 186.372 234.783L191.104 232.374L191.839 233.818ZM194.582 239.208L186.962 243.086L186.228 241.643L193.847 237.764L194.582 239.208Z" fill="#212121"/>
<path d="M182.712 225.123L181.327 225.448L180.554 222.154C180.387 221.441 180.077 220.934 179.625 220.634C179.172 220.333 178.636 220.256 178.017 220.401C177.433 220.538 176.993 220.844 176.698 221.32C176.4 221.785 176.335 222.373 176.502 223.086L177.279 226.398L175.842 226.735L175.053 223.37C174.872 222.599 174.866 221.892 175.036 221.248C175.193 220.607 175.494 220.075 175.936 219.65C176.376 219.214 176.929 218.918 177.595 218.762C178.285 218.6 178.923 218.617 179.511 218.811C180.097 218.995 180.603 219.338 181.029 219.842C181.444 220.349 181.741 220.988 181.922 221.759L182.712 225.123ZM188.263 224.986L176.101 227.839L175.715 226.192L187.876 223.339L188.263 224.986ZM186.618 217.976L182.204 223.671L181.295 222.239L186.129 215.891L186.618 217.976Z" fill="#212121"/>
<path d="M185.88 210.801C185.928 211.58 185.78 212.298 185.436 212.957C185.08 213.616 184.578 214.152 183.93 214.565C183.282 214.965 182.538 215.192 181.7 215.244C180.861 215.295 180.096 215.162 179.403 214.845C178.709 214.515 178.146 214.051 177.712 213.452C177.277 212.842 177.036 212.141 176.987 211.351C176.947 210.704 177.049 210.121 177.293 209.601C177.525 209.069 177.871 208.633 178.331 208.292C178.778 207.952 179.313 207.745 179.933 207.67L182.502 207.511C183.115 207.51 183.671 207.649 184.169 207.931C184.667 208.201 185.07 208.585 185.377 209.083C185.671 209.57 185.839 210.142 185.88 210.801ZM184.336 210.626C184.286 209.824 183.977 209.194 183.408 208.736C182.826 208.279 182.111 208.077 181.26 208.129C180.673 208.165 180.171 208.311 179.754 208.565C179.324 208.808 179.002 209.14 178.788 209.562C178.562 209.985 178.465 210.466 178.498 211.005C178.532 211.544 178.687 212.015 178.964 212.419C179.241 212.811 179.608 213.113 180.066 213.325C180.512 213.526 181.016 213.609 181.579 213.574C182.154 213.538 182.656 213.393 183.085 213.138C183.501 212.872 183.822 212.521 184.048 212.087C184.273 211.652 184.369 211.165 184.336 210.626ZM185.525 207.974L183.225 208.116L181.122 207.939L179.075 208.372L176.991 208.501L176.89 206.866L185.424 206.339L185.525 207.974Z" fill="#212121"/>
<path d="M185.537 202.908L177.002 202.414L177.095 200.797L185.631 201.291L185.537 202.908ZM175.341 201.506C175.324 201.806 175.214 202.046 175.011 202.226C174.797 202.406 174.539 202.488 174.24 202.47C173.952 202.454 173.718 202.344 173.538 202.141C173.345 201.938 173.258 201.686 173.275 201.387C173.292 201.087 173.408 200.847 173.623 200.668C173.826 200.487 174.071 200.405 174.359 200.422C174.658 200.439 174.904 200.549 175.097 200.753C175.277 200.956 175.359 201.207 175.341 201.506Z" fill="#212121"/>
<path d="M185.84 198.622L173.085 197.041L173.285 195.433L186.039 197.014L185.84 198.622Z" fill="#212121"/>
<path d="M187.173 191.478C187.066 191.946 186.907 192.377 186.695 192.772C186.473 193.153 186.211 193.493 185.909 193.794C185.596 194.092 185.252 194.334 184.878 194.52L184.09 193.271C184.533 193.052 184.894 192.764 185.171 192.409C185.437 192.05 185.626 191.626 185.737 191.134C185.848 190.643 185.853 190.244 185.75 189.937C185.635 189.628 185.426 189.439 185.121 189.37C184.817 189.302 184.558 189.36 184.344 189.545C184.12 189.716 183.918 189.959 183.735 190.275C183.541 190.587 183.348 190.925 183.155 191.287C182.953 191.635 182.726 191.959 182.474 192.259C182.221 192.558 181.918 192.785 181.563 192.938C181.211 193.08 180.783 193.094 180.28 192.98C179.777 192.866 179.372 192.645 179.065 192.317C178.746 191.986 178.536 191.582 178.435 191.104C178.337 190.614 178.358 190.059 178.499 189.439C178.647 188.783 178.895 188.23 179.244 187.78C179.583 187.316 180.017 186.971 180.548 186.747L181.336 187.996C180.978 188.161 180.678 188.401 180.435 188.715C180.194 189.017 180.024 189.384 179.926 189.817C179.823 190.274 179.825 190.644 179.933 190.926C180.032 191.195 180.222 191.361 180.503 191.425C180.784 191.488 181.025 191.432 181.224 191.256C181.424 191.08 181.615 190.834 181.798 190.518C181.983 190.191 182.176 189.853 182.378 189.505C182.568 189.155 182.795 188.831 183.059 188.534C183.323 188.237 183.637 188.019 184.001 187.88C184.368 187.729 184.808 187.712 185.323 187.829C186.107 188.007 186.664 188.428 186.993 189.093C187.325 189.747 187.385 190.542 187.173 191.478Z" fill="#212121"/>
<path d="M185.721 177.384L184.442 176.762L185.921 173.719C186.241 173.06 186.32 172.472 186.158 171.953C185.997 171.434 185.63 171.036 185.058 170.758C184.518 170.496 183.984 170.456 183.455 170.639C182.931 170.811 182.509 171.227 182.189 171.885L180.702 174.945L179.374 174.3L180.885 171.192C181.231 170.479 181.673 169.927 182.21 169.534C182.737 169.137 183.306 168.913 183.917 168.863C184.534 168.802 185.15 168.921 185.765 169.22C186.402 169.53 186.887 169.945 187.22 170.467C187.559 170.979 187.734 171.565 187.747 172.225C187.749 172.879 187.577 173.563 187.231 174.275L185.721 177.384ZM190.115 180.779L178.879 175.32L179.618 173.798L190.854 179.257L190.115 180.779ZM193.261 174.303L186.244 175.937L186.442 174.252L194.197 172.377L193.261 174.303Z" fill="#212121"/>
<path d="M197.015 168.556C196.621 169.129 196.135 169.56 195.558 169.847C194.978 170.118 194.367 170.222 193.726 170.159C193.084 170.096 192.457 169.853 191.844 169.431L187.753 166.612L188.673 165.278L192.704 168.056C193.09 168.322 193.47 168.489 193.845 168.558C194.217 168.61 194.566 168.559 194.891 168.404C195.216 168.249 195.498 167.999 195.736 167.653C196.097 167.129 196.216 166.607 196.095 166.086C195.963 165.558 195.605 165.093 195.022 164.691L190.991 161.914L191.91 160.579L196.001 163.398C196.614 163.82 197.064 164.32 197.351 164.897C197.638 165.474 197.759 166.081 197.713 166.72C197.663 167.341 197.431 167.954 197.015 168.556Z" fill="#212121"/>
<path d="M203.139 160.848C202.696 161.321 202.198 161.66 201.644 161.865C201.09 162.053 200.531 162.097 199.968 161.996C199.404 161.896 198.887 161.65 198.415 161.257L196.537 159.498C196.106 159.045 195.826 158.545 195.698 157.997C195.569 157.432 195.585 156.872 195.745 156.315C195.904 155.741 196.202 155.221 196.636 154.757C197.17 154.188 197.794 153.811 198.51 153.626C199.233 153.433 199.964 153.434 200.7 153.631C201.437 153.828 202.111 154.213 202.725 154.787C203.338 155.362 203.766 156.01 204.011 156.732C204.255 157.454 204.304 158.182 204.159 158.917C204.012 159.635 203.673 160.279 203.139 160.848ZM201.838 159.999C202.207 159.605 202.439 159.173 202.534 158.703C202.629 158.233 202.601 157.763 202.45 157.292C202.29 156.814 202 156.377 201.579 155.984C201.168 155.598 200.718 155.341 200.23 155.213C199.742 155.084 199.27 155.087 198.816 155.221C198.354 155.346 197.942 155.602 197.581 155.987C197.212 156.381 196.98 156.813 196.885 157.283C196.781 157.745 196.813 158.211 196.981 158.681C197.149 159.151 197.444 159.583 197.864 159.977C198.276 160.362 198.717 160.628 199.189 160.774C199.66 160.903 200.127 160.904 200.59 160.779C201.061 160.645 201.477 160.385 201.838 159.999ZM199.932 164.009L190.552 155.224L191.659 154.041L196.323 158.41L197.624 160.048L199.358 161.252L201.039 162.827L199.932 164.009Z" fill="#212121"/>
<path d="M210 154.258L201.76 149.765L203.176 148.653L209.51 152.263L209.057 152.619L207.169 145.52L208.585 144.409L210.765 153.658L210 154.258ZM210.241 158.531L209.034 152.911L210.765 153.658L211.657 157.42L210.241 158.531Z" fill="#212121"/>
<path d="M223.25 146.03C222.489 146.386 221.72 146.527 220.944 146.453C220.167 146.379 219.457 146.121 218.814 145.68C218.165 145.229 217.663 144.622 217.307 143.861C216.957 143.111 216.821 142.353 216.9 141.588C216.974 140.811 217.232 140.101 217.673 139.458C218.114 138.815 218.715 138.315 219.475 137.959C220.226 137.609 220.989 137.47 221.765 137.544C222.548 137.602 223.26 137.852 223.904 138.293C224.547 138.734 225.044 139.329 225.395 140.079C225.751 140.84 225.894 141.615 225.825 142.402C225.751 143.178 225.488 143.891 225.036 144.539C224.595 145.183 224 145.68 223.25 146.03ZM222.586 144.612C223.076 144.383 223.457 144.066 223.731 143.659C224.004 143.253 224.158 142.804 224.193 142.311C224.222 141.807 224.117 141.299 223.878 140.789C223.645 140.289 223.322 139.896 222.911 139.612C222.51 139.322 222.069 139.157 221.587 139.118C221.111 139.062 220.628 139.149 220.139 139.378C219.65 139.607 219.268 139.924 218.995 140.33C218.716 140.726 218.559 141.17 218.525 141.663C218.49 142.156 218.59 142.652 218.824 143.152C219.063 143.663 219.385 144.069 219.79 144.369C220.191 144.659 220.635 144.829 221.122 144.879C221.609 144.93 222.097 144.841 222.586 144.612Z" fill="#212121"/>
<path d="M234.2 141.771L232.787 136.989C232.603 136.368 232.256 135.913 231.746 135.626C231.235 135.339 230.669 135.287 230.048 135.471C229.634 135.593 229.293 135.794 229.025 136.074C228.757 136.353 228.579 136.681 228.49 137.058C228.401 137.434 228.418 137.83 228.54 138.244L227.794 138.07C227.611 137.449 227.585 136.856 227.719 136.291C227.852 135.726 228.125 135.232 228.539 134.81C228.948 134.376 229.464 134.067 230.085 133.883C230.707 133.7 231.299 133.693 231.863 133.865C232.438 134.032 232.939 134.329 233.365 134.753C233.787 135.167 234.082 135.655 234.248 136.219L235.753 141.311L234.2 141.771ZM228.4 143.485L225.976 135.285L227.53 134.826L229.953 143.026L228.4 143.485Z" fill="#212121"/>
<path d="M245.021 134.274L244.961 132.853L248.342 132.709C249.073 132.678 249.629 132.468 250.009 132.08C250.389 131.691 250.565 131.179 250.538 130.544C250.513 129.945 250.294 129.455 249.881 129.077C249.481 128.697 248.915 128.523 248.184 128.554L244.785 128.699L244.722 127.224L248.175 127.077C248.966 127.044 249.662 127.17 250.263 127.457C250.863 127.732 251.33 128.126 251.664 128.641C252.01 129.154 252.198 129.753 252.227 130.436C252.257 131.144 252.121 131.768 251.82 132.309C251.531 132.85 251.099 133.283 250.524 133.607C249.949 133.92 249.266 134.093 248.474 134.127L245.021 134.274ZM244.119 139.753L243.589 127.272L245.279 127.2L245.81 139.681L244.119 139.753ZM251.313 139.447L246.543 134.047L248.12 133.421L253.453 139.356L251.313 139.447Z" fill="#212121"/>
<path d="M258.393 140.023C257.618 139.927 256.939 139.649 256.355 139.19C255.773 138.719 255.339 138.127 255.052 137.414C254.777 136.703 254.692 135.93 254.795 135.097C254.898 134.263 255.17 133.535 255.61 132.912C256.062 132.291 256.622 131.823 257.29 131.506C257.97 131.192 258.702 131.083 259.488 131.18C260.132 131.26 260.686 131.468 261.152 131.804C261.632 132.129 261.997 132.549 262.248 133.064C262.5 133.567 262.605 134.13 262.564 134.754L262.248 137.308C262.137 137.911 261.897 138.432 261.528 138.87C261.171 139.309 260.72 139.634 260.174 139.845C259.641 140.045 259.047 140.104 258.393 140.023ZM258.849 138.538C259.647 138.636 260.323 138.448 260.878 137.973C261.434 137.486 261.764 136.819 261.869 135.974C261.941 135.39 261.891 134.87 261.718 134.413C261.558 133.946 261.29 133.568 260.915 133.28C260.541 132.98 260.086 132.796 259.55 132.73C259.014 132.663 258.523 132.729 258.075 132.928C257.639 133.128 257.275 133.433 256.982 133.844C256.702 134.245 256.528 134.725 256.459 135.285C256.388 135.857 256.438 136.377 256.61 136.845C256.795 137.304 257.08 137.684 257.466 137.985C257.852 138.287 258.313 138.471 258.849 138.538ZM261.237 140.194L261.52 137.907L262.081 135.873L262.032 133.781L262.289 131.709L263.914 131.91L262.863 140.395L261.237 140.194Z" fill="#212121"/>
<path d="M266.044 141.092L268.092 132.791L269.665 133.179L267.617 141.48L266.044 141.092ZM269.288 131.324C268.997 131.253 268.781 131.1 268.64 130.868C268.503 130.624 268.47 130.356 268.542 130.065C268.611 129.785 268.761 129.575 268.994 129.435C269.229 129.283 269.492 129.243 269.784 129.315C270.075 129.387 270.289 129.544 270.427 129.789C270.567 130.021 270.603 130.277 270.534 130.557C270.462 130.848 270.309 131.069 270.073 131.222C269.841 131.362 269.579 131.396 269.288 131.324Z" fill="#212121"/>
<path d="M270.261 142.186L274.183 129.946L275.725 130.441L271.804 142.68L270.261 142.186Z" fill="#212121"/>
<path d="M276.903 144.755C276.463 144.564 276.068 144.329 275.719 144.047C275.386 143.759 275.099 143.44 274.859 143.088C274.623 142.724 274.449 142.342 274.335 141.94L275.707 141.395C275.841 141.871 276.058 142.279 276.356 142.617C276.659 142.944 277.042 143.207 277.505 143.407C277.968 143.607 278.359 143.684 278.679 143.639C279.004 143.583 279.228 143.412 279.352 143.126C279.475 142.839 279.466 142.574 279.323 142.329C279.196 142.078 278.994 141.834 278.718 141.597C278.446 141.349 278.149 141.097 277.829 140.841C277.524 140.578 277.247 140.296 276.999 139.992C276.751 139.689 276.584 139.349 276.498 138.972C276.424 138.6 276.489 138.177 276.693 137.704C276.898 137.23 277.19 136.872 277.568 136.631C277.952 136.378 278.388 136.246 278.876 136.235C279.376 136.228 279.918 136.351 280.502 136.603C281.118 136.87 281.616 137.215 281.995 137.64C282.389 138.059 282.648 138.549 282.771 139.112L281.398 139.657C281.302 139.275 281.122 138.936 280.858 138.639C280.605 138.347 280.274 138.113 279.867 137.937C279.437 137.751 279.073 137.686 278.775 137.74C278.493 137.788 278.295 137.944 278.181 138.209C278.067 138.473 278.078 138.72 278.214 138.949C278.351 139.178 278.557 139.41 278.834 139.648C279.122 139.889 279.418 140.142 279.723 140.404C280.033 140.655 280.309 140.938 280.553 141.252C280.796 141.567 280.953 141.915 281.023 142.298C281.103 142.686 281.039 143.122 280.83 143.607C280.511 144.345 279.995 144.815 279.28 145.016C278.577 145.222 277.785 145.135 276.903 144.755Z" fill="#212121"/>
<path d="M291.116 145.945L291.961 144.802L294.683 146.812C295.272 147.247 295.836 147.433 296.375 147.369C296.915 147.305 297.374 147.017 297.752 146.505C298.108 146.023 298.245 145.505 298.161 144.951C298.088 144.404 297.757 143.913 297.168 143.478L294.431 141.457L295.308 140.27L298.088 142.323C298.725 142.794 299.188 143.329 299.475 143.93C299.77 144.52 299.886 145.121 299.823 145.731C299.77 146.348 299.54 146.932 299.134 147.482C298.713 148.051 298.216 148.452 297.642 148.684C297.077 148.924 296.469 148.989 295.818 148.881C295.174 148.763 294.533 148.469 293.896 147.999L291.116 145.945ZM286.974 149.644L294.396 139.596L295.757 140.601L288.335 150.649L286.974 149.644ZM292.766 153.922L292.443 146.724L294.063 147.227L294.489 155.195L292.766 153.922Z" fill="#212121"/>
<path d="M297.671 158.587C297.179 158.095 296.844 157.539 296.666 156.92C296.505 156.301 296.513 155.681 296.691 155.062C296.87 154.442 297.222 153.869 297.748 153.343L301.261 149.83L302.406 150.976L298.944 154.438C298.613 154.769 298.38 155.113 298.244 155.469C298.125 155.825 298.113 156.177 298.206 156.525C298.299 156.873 298.494 157.196 298.791 157.493C299.241 157.942 299.733 158.155 300.268 158.129C300.811 158.095 301.333 157.828 301.833 157.327L305.295 153.865L306.441 155.011L302.928 158.524C302.402 159.05 301.829 159.402 301.21 159.58C300.59 159.758 299.971 159.767 299.351 159.606C298.749 159.444 298.189 159.105 297.671 158.587Z" fill="#212121"/>
<path d="M304.415 166.346C304.032 165.823 303.791 165.271 303.691 164.689C303.609 164.11 303.669 163.552 303.872 163.017C304.074 162.482 304.412 162.018 304.884 161.628L306.96 160.106C307.485 159.766 308.028 159.583 308.59 159.558C309.169 159.536 309.717 159.655 310.235 159.915C310.77 160.178 311.225 160.565 311.601 161.078C312.062 161.707 312.317 162.391 312.367 163.128C312.424 163.875 312.287 164.592 311.958 165.28C311.629 165.968 311.126 166.56 310.448 167.056C309.771 167.553 309.055 167.855 308.3 167.962C307.545 168.069 306.82 167.983 306.124 167.704C305.446 167.428 304.876 166.975 304.415 166.346ZM305.489 165.224C305.808 165.659 306.19 165.967 306.635 166.147C307.079 166.327 307.547 166.386 308.037 166.324C308.537 166.255 309.019 166.051 309.484 165.71C309.939 165.377 310.274 164.982 310.49 164.526C310.707 164.07 310.791 163.606 310.743 163.135C310.705 162.657 310.53 162.205 310.218 161.78C309.899 161.344 309.517 161.036 309.072 160.856C308.638 160.669 308.174 160.615 307.681 160.693C307.188 160.772 306.709 160.982 306.245 161.322C305.79 161.655 305.447 162.041 305.217 162.477C305.003 162.917 304.915 163.375 304.953 163.853C304.998 164.341 305.177 164.798 305.489 165.224ZM301.9 162.61L312.265 155.012L313.223 156.319L308.069 160.096L306.219 161.073L304.716 162.555L302.857 163.917L301.9 162.61Z" fill="#212121"/>
<path d="M309.464 174.041L315.385 166.759L316.219 168.354L311.515 173.923L311.248 173.412L318.572 172.852L319.406 174.447L309.914 174.902L309.464 174.041ZM305.219 173.498L310.964 173.337L309.914 174.902L306.053 175.093L305.219 173.498Z" fill="#212121"/>
<path d="M315.112 188.52C314.902 187.707 314.904 186.925 315.119 186.175C315.334 185.426 315.717 184.775 316.269 184.223C316.832 183.668 317.52 183.286 318.333 183.075C319.135 182.868 319.904 182.873 320.643 183.091C321.392 183.306 322.043 183.689 322.595 184.241C323.147 184.792 323.528 185.474 323.738 186.287C323.946 187.089 323.942 187.865 323.727 188.614C323.527 189.373 323.151 190.028 322.599 190.58C322.048 191.131 321.371 191.511 320.57 191.718C319.757 191.929 318.969 191.928 318.208 191.716C317.458 191.501 316.806 191.112 316.251 190.549C315.699 189.998 315.32 189.321 315.112 188.52ZM316.628 188.127C316.764 188.65 317.006 189.083 317.355 189.427C317.704 189.77 318.118 190.004 318.597 190.128C319.086 190.249 319.604 190.239 320.15 190.098C320.685 189.96 321.13 189.714 321.485 189.362C321.843 189.022 322.085 188.618 322.212 188.151C322.354 187.693 322.357 187.203 322.222 186.68C322.087 186.157 321.845 185.724 321.495 185.38C321.158 185.034 320.75 184.799 320.272 184.675C319.793 184.55 319.287 184.558 318.752 184.696C318.206 184.837 317.749 185.08 317.379 185.423C317.021 185.764 316.772 186.169 316.634 186.639C316.495 187.108 316.493 187.605 316.628 188.127Z" fill="#212121"/>
<path d="M317.338 200.523L322.299 200.024C322.944 199.959 323.455 199.703 323.832 199.255C324.209 198.807 324.365 198.26 324.3 197.616C324.257 197.186 324.123 196.813 323.898 196.498C323.674 196.183 323.385 195.947 323.031 195.79C322.677 195.632 322.286 195.575 321.856 195.618L322.165 194.918C322.81 194.853 323.398 194.939 323.928 195.175C324.458 195.411 324.892 195.771 325.231 196.256C325.581 196.739 325.788 197.303 325.853 197.948C325.918 198.593 325.814 199.176 325.541 199.698C325.269 200.232 324.885 200.669 324.388 201.008C323.903 201.346 323.369 201.545 322.784 201.603L317.5 202.135L317.338 200.523ZM316.733 194.505L325.24 193.65L325.402 195.262L316.895 196.117L316.733 194.505Z" fill="#212121"/>
<circle cx="336.5" cy="213.5" r="72.5" transform="rotate(-180 336.5 213.5)" fill="url(#paint2_radial_123_5390)"/>
<defs>
<radialGradient id="paint0_radial_123_5390" cx="0" cy="0" r="1" gradientUnits="userSpaceOnUse" gradientTransform="translate(135 366.037) rotate(-135.7) scale(64.5382 50.8266)">
<stop offset="0.146825" stop-color="#EAEAEA"/>
<stop offset="0.309839" stop-color="#FFE6ED"/>
<stop offset="0.386422" stop-color="#F7C2DC"/>
<stop offset="0.477083" stop-color="#F2B0D0"/>
<stop offset="0.64375" stop-color="#E98ED1"/>
<stop offset="0.789583" stop-color="#6D73DD"/>
<stop offset="0.914583" stop-color="#3073C1"/>
<stop offset="1" stop-color="#638B9F"/>
</radialGradient>
<radialGradient id="paint1_radial_123_5390" cx="0" cy="0" r="1" gradientUnits="userSpaceOnUse" gradientTransform="translate(668 291.523) rotate(-135.7) scale(121.77 95.8993)">
<stop offset="0.146825" stop-color="#EAEAEA"/>
<stop offset="0.309839" stop-color="#FFE6ED"/>
<stop offset="0.386422" stop-color="#F7C2DC"/>
<stop offset="0.477083" stop-color="#F2B0D0"/>
<stop offset="0.64375" stop-color="#E98ED1"/>
<stop offset="0.789583" stop-color="#6D73DD"/>
<stop offset="0.914583" stop-color="#3073C1"/>
<stop offset="1" stop-color="#638B9F"/>
</radialGradient>
<radialGradient id="paint2_radial_123_5390" cx="0" cy="0" r="1" gradientUnits="userSpaceOnUse" gradientTransform="translate(409 275.159) rotate(-135.7) scale(176.567 139.054)">
<stop offset="0.146825" stop-color="#EAEAEA"/>
<stop offset="0.309839" stop-color="#E6FFFC"/>
<stop offset="0.386422" stop-color="#C2F7F7"/>
<stop offset="0.477083" stop-color="#B0EEF2"/>
<stop offset="0.64375" stop-color="#8EE9D8"/>
<stop offset="0.789583" stop-color="#6DDDDD"/>
<stop offset="0.914583" stop-color="#3073C1"/>
<stop offset="1" stop-color="#638B9F"/>
</radialGradient>
</defs>
</svg>
