<svg width="0" height="0" fill="none" style="visibility: hidden; position: absolute;" aria-hidden="true">
    <symbol id="arrow" width="28" height="27" viewBox="0 0 28 27" fill="none" xmlns="http://www.w3.org/2000/svg">
        <path d="M26.4405 1.56008L27.3203 25.5601L3.32033 26.4399L3.12748 22.2038L19.9275 21.5879L0.995473 3.99492L3.88549 0.884936L22.8175 18.4779L22.2016 1.67793L26.4405 1.56008Z" fill="#333F52"/>
    </symbol>
    <symbol id="facebook"  viewBox="0 0 32 32" fill="none" xmlns="http://www.w3.org/2000/svg">
        <path  fill-rule="evenodd" clip-rule="evenodd" d="M10 4H22.0053C25.316 4 28 6.684 28 9.99467V22.0067C28 25.316 25.316 28 22.0053 28H9.99467C6.684 28 4 25.316 4 22.0053V10C4 6.68667 6.68667 4 10 4V4Z" stroke="currentColor" stroke-width="1.5" stroke-linecap="round" stroke-linejoin="round"/>
        <path  fill-rule="evenodd" clip-rule="evenodd" d="M10 4H22.0053C25.316 4 28 6.684 28 9.99467V22.0067C28 25.316 25.316 28 22.0053 28H9.99467C6.684 28 4 25.316 4 22.0053V10C4 6.68667 6.68667 4 10 4V4Z" stroke="currentColor" stroke-width="1.5" stroke-linecap="round" stroke-linejoin="round"/>
        <path d="M14.8 17.2001H22" stroke="currentColor" stroke-width="1.5" stroke-linecap="round" stroke-linejoin="round"/>
        <path d="M22 11.2H20.74C18.7853 11.2 17.2 12.7853 17.2 14.74V16V28" stroke="currentColor"  stroke-width="1.5" stroke-linecap="round" stroke-linejoin="round"/>
    </symbol>
    <symbol id="linkedin"  viewBox="0 0 32 32" fill="none" xmlns="http://www.w3.org/2000/svg">
        <path fill-rule="evenodd" clip-rule="evenodd" d="M10 4H22.0053C25.316 4 28 6.684 28 9.99467V22.0067C28 25.316 25.316 28 22.0053 28H9.99467C6.684 28 4 25.316 4 22.0053V10C4 6.68667 6.68667 4 10 4V4Z" stroke="currentColor" stroke-width="1.5" stroke-linecap="round" stroke-linejoin="round"/>
        <path d="M10.8266 14.8V22" stroke-width="1.5" stroke-linecap="round" stroke="currentColor" stroke-linejoin="round"/>
        <path d="M15.6252 22V17.8C15.6252 16.1427 16.9679 14.8 18.6252 14.8V14.8C20.2826 14.8 21.6252 16.1427 21.6252 17.8V22" stroke="currentColor" stroke-width="1.5" stroke-linecap="round" stroke-linejoin="round"/>
        <path d="M10.824 10.4507C10.6587 10.4507 10.524 10.5853 10.5254 10.7507C10.5254 10.916 10.66 11.0507 10.8254 11.0507C10.9907 11.0507 11.1254 10.916 11.1254 10.7507C11.1254 10.584 10.9907 10.4507 10.824 10.4507" stroke="currentColor" stroke-width="1.5" stroke-linecap="round" stroke-linejoin="round"/>
    </symbol>
     <symbol id="twitter"  viewBox="0 0 32 32" fill="none" xmlns="http://www.w3.org/2000/svg">
        <path  fill-rule="evenodd" clip-rule="evenodd" d="M10 4H22.0053C25.316 4 28 6.684 28 9.99467V22.0067C28 25.316 25.316 28 22.0053 28H9.99467C6.684 28 4 25.316 4 22.0053V10C4 6.68667 6.68667 4 10 4V4Z" stroke="currentColor" stroke-width="1.5" stroke-linecap="round" stroke-linejoin="round"/>
        <path d="M23.4833 14.0667C23.4833 13.6524 23.1475 13.3167 22.7333 13.3167C22.319 13.3167 21.9833 13.6524 21.9833 14.0667H23.4833ZM8.93884 20.0242C8.69449 19.6897 8.22527 19.6167 7.89081 19.8611C7.55635 20.1054 7.4833 20.5746 7.72766 20.9091L8.93884 20.0242ZM8.21628 19.7258C7.80714 19.7904 7.52783 20.1745 7.59243 20.5836C7.65703 20.9928 8.04108 21.2721 8.45022 21.2075L8.21628 19.7258ZM10.7333 19.6667L10.9716 20.3778C11.2172 20.2955 11.4029 20.0923 11.4629 19.8403C11.5228 19.5884 11.4486 19.3233 11.2665 19.1392L10.7333 19.6667ZM9.93325 10.0667L10.5939 9.71156C10.4713 9.48349 10.2397 9.33478 9.9813 9.31819C9.7229 9.3016 9.47421 9.41948 9.32346 9.63001L9.93325 10.0667ZM14.7333 14.0667L14.556 14.7954C14.7754 14.8488 15.0071 14.8005 15.1869 14.6639C15.3667 14.5273 15.4754 14.317 15.4828 14.0913L14.7333 14.0667ZM21.9333 11.6667L21.3073 12.0797C21.4461 12.2901 21.6812 12.4167 21.9333 12.4167V11.6667ZM24.3333 11.6667L24.9573 12.0827C25.1107 11.8525 25.125 11.5566 24.9945 11.3128C24.864 11.0689 24.6098 10.9167 24.3333 10.9167V11.6667ZM22.1092 13.6506C21.8795 13.9953 21.9726 14.4609 22.3172 14.6907C22.6619 14.9205 23.1275 14.8273 23.3573 14.4827L22.1092 13.6506ZM21.9833 14.0667C21.9833 16.7286 21.2233 18.9376 19.8709 20.4704C18.5287 21.9916 16.5426 22.9166 13.9333 22.9166V24.4166C16.924 24.4166 19.3378 23.3417 20.9956 21.4629C22.6432 19.5957 23.4833 17.0047 23.4833 14.0667H21.9833ZM13.9333 22.9166C12.4779 22.9166 11.5108 22.5412 10.7855 22.0279C10.0373 21.4984 9.50113 20.7938 8.93884 20.0242L7.72766 20.9091C8.28271 21.6688 8.94656 22.5642 9.91901 23.2524C10.9144 23.9568 12.1886 24.4166 13.9333 24.4166V22.9166ZM8.45022 21.2075C8.47663 21.2033 8.49704 21.1986 8.50386 21.197C8.51331 21.1948 8.52093 21.1928 8.52544 21.1916C8.53448 21.1893 8.54177 21.1872 8.54544 21.1861C8.55327 21.1838 8.56024 21.1817 8.56447 21.1804C8.57365 21.1775 8.58411 21.1742 8.5943 21.1709C8.61531 21.1641 8.64386 21.1548 8.67793 21.1436C8.74647 21.1211 8.84224 21.0893 8.95552 21.0517C9.18232 20.9763 9.48201 20.8762 9.78052 20.7765C10.0791 20.6767 10.3769 20.577 10.6 20.5023C10.7115 20.4649 10.8044 20.4338 10.8694 20.412C10.902 20.4011 10.9275 20.3926 10.9449 20.3867C10.9536 20.3838 10.9603 20.3816 10.9648 20.3801C10.967 20.3793 10.9687 20.3787 10.9699 20.3783C10.9705 20.3782 10.9709 20.378 10.9712 20.3779C10.9713 20.3779 10.9714 20.3778 10.9715 20.3778C10.9715 20.3778 10.9716 20.3778 10.9716 20.3778C10.9716 20.3778 10.9716 20.3778 10.7333 19.6667C10.4949 18.9555 10.4949 18.9555 10.4949 18.9555C10.4948 18.9556 10.4948 18.9556 10.4948 18.9556C10.4947 18.9556 10.4946 18.9556 10.4945 18.9557C10.4942 18.9558 10.4937 18.9559 10.4932 18.9561C10.492 18.9565 10.4903 18.9571 10.4881 18.9578C10.4836 18.9593 10.4769 18.9616 10.4682 18.9645C10.4509 18.9703 10.4254 18.9788 10.3929 18.9897C10.3279 19.0115 10.2351 19.0426 10.1236 19.0799C9.9007 19.1546 9.60322 19.2541 9.30499 19.3538C9.00666 19.4536 8.70793 19.5533 8.48236 19.6283C8.36945 19.6658 8.27554 19.6969 8.20937 19.7187C8.17608 19.7296 8.15102 19.7378 8.13446 19.7431C8.12587 19.7459 8.12155 19.7472 8.12026 19.7476C8.11925 19.748 8.12207 19.7471 8.12685 19.7457C8.12899 19.7451 8.13504 19.7433 8.1431 19.7412C8.14713 19.7401 8.15434 19.7383 8.16345 19.7361C8.16993 19.7346 8.19007 19.73 8.21628 19.7258L8.45022 21.2075ZM11.2665 19.1392C8.85664 16.7029 8.67678 13.1096 10.543 10.5033L9.32346 9.63001C7.04039 12.8184 7.26586 17.2277 10.2 20.1941L11.2665 19.1392ZM9.27264 10.4217C10.3298 12.3886 12.3199 14.2514 14.556 14.7954L14.9105 13.3379C13.1893 12.9192 11.5047 11.4061 10.5939 9.71156L9.27264 10.4217ZM15.4828 14.0913C15.5154 13.1002 15.8649 12.2861 16.4143 11.7247C16.9596 11.1675 17.7429 10.8167 18.7333 10.8167V9.31665C17.3676 9.31665 16.1889 9.81048 15.3422 10.6756C14.4996 11.5366 14.0271 12.7225 13.9837 14.042L15.4828 14.0913ZM18.7333 10.8167C19.4383 10.8167 19.9488 10.9505 20.3371 11.1578C20.7238 11.3642 21.0356 11.6681 21.3073 12.0797L22.5592 11.2536C22.1789 10.6772 21.6927 10.1811 21.0434 9.83451C20.3958 9.48879 19.6322 9.31665 18.7333 9.31665V10.8167ZM21.9333 12.4167H24.3333V10.9167H21.9333V12.4167ZM23.7092 11.2506L22.1092 13.6506L23.3573 14.4827L24.9573 12.0827L23.7092 11.2506Z" fill="currentColor"/>
    </symbol>
    <symbol id='circleRubyOnRails' width="171" height="171" viewBox="0 0 171 171" fill="none" xmlns="http://www.w3.org/2000/svg">
<path d="M156.973 87.9849L158.39 88.1L158.117 91.4729C158.057 92.2025 158.197 92.7797 158.536 93.2045C158.875 93.6293 159.361 93.8674 159.995 93.9189C160.593 93.9674 161.105 93.8104 161.532 93.4477C161.958 93.097 162.2 92.5569 162.26 91.8273L162.535 88.4364L164.006 88.5558L163.726 92.0005C163.662 92.7899 163.451 93.465 163.092 94.0259C162.746 94.5877 162.297 95.0027 161.745 95.2709C161.193 95.5512 160.576 95.6636 159.894 95.6083C159.188 95.551 158.585 95.3395 158.085 94.9738C157.584 94.6201 157.208 94.1381 156.957 93.5278C156.717 92.9184 156.629 92.219 156.694 91.4296L156.973 87.9849ZM151.647 86.4148L164.098 87.4256L163.961 89.112L151.51 88.1013L151.647 86.4148ZM151.064 93.5912L157.011 89.523L157.437 91.1649L150.891 95.7262L151.064 93.5912Z" fill="#212121"/>
<path d="M149.655 100.285C149.814 99.6072 150.11 99.0295 150.542 98.5517C150.984 98.0883 151.515 97.7691 152.135 97.5942C152.756 97.4192 153.428 97.4167 154.152 97.5867L158.989 98.7214L158.619 100.299L153.852 99.1803C153.397 99.0734 152.982 99.0562 152.607 99.1285C152.242 99.2154 151.936 99.3901 151.689 99.6527C151.443 99.9154 151.272 100.251 151.176 100.66C151.03 101.279 151.109 101.809 151.413 102.25C151.728 102.694 152.23 102.997 152.919 103.158L157.686 104.277L157.316 105.854L152.479 104.719C151.755 104.549 151.154 104.248 150.676 103.815C150.198 103.383 149.864 102.861 149.675 102.249C149.495 101.652 149.488 100.997 149.655 100.285Z" fill="#212121"/>
<path d="M146.628 109.959C146.872 109.358 147.215 108.863 147.658 108.473C148.108 108.098 148.614 107.857 149.176 107.748C149.738 107.639 150.309 107.683 150.89 107.88L153.275 108.847C153.84 109.115 154.28 109.481 154.597 109.946C154.92 110.427 155.107 110.956 155.158 111.533C155.215 112.126 155.124 112.717 154.885 113.307C154.592 114.03 154.145 114.606 153.544 115.035C152.938 115.476 152.256 115.737 151.498 115.818C150.74 115.899 149.971 115.782 149.193 115.466C148.414 115.15 147.781 114.7 147.294 114.113C146.806 113.527 146.499 112.865 146.371 112.127C146.249 111.404 146.335 110.682 146.628 109.959ZM148.148 110.283C147.945 110.784 147.883 111.271 147.964 111.743C148.044 112.216 148.239 112.645 148.549 113.03C148.87 113.419 149.298 113.722 149.832 113.938C150.354 114.15 150.867 114.228 151.368 114.173C151.87 114.117 152.309 113.945 152.684 113.657C153.071 113.374 153.364 112.988 153.562 112.498C153.765 111.998 153.826 111.511 153.746 111.038C153.677 110.57 153.48 110.147 153.154 109.769C152.828 109.391 152.398 109.093 151.864 108.877C151.342 108.665 150.834 108.576 150.341 108.609C149.855 108.658 149.419 108.824 149.032 109.108C148.641 109.402 148.346 109.794 148.148 110.283ZM148.486 105.856L160.396 110.685L159.787 112.186L153.866 109.786L152.062 108.724L150.012 108.223L147.877 107.357L148.486 105.856Z" fill="#212121"/>
<path d="M142.669 118.374L151.974 119.601L151.053 121.147L143.845 120.058L144.139 119.564L148.455 125.508L147.534 127.054L142.172 119.209L142.669 118.374ZM140.907 114.474L144.055 119.283L142.172 119.209L139.985 116.021L140.907 114.474Z" fill="#212121"/>
<path d="M133.265 130.786C133.846 130.179 134.512 129.77 135.263 129.559C136.014 129.347 136.769 129.331 137.528 129.509C138.296 129.696 138.983 130.08 139.59 130.661C140.188 131.234 140.589 131.891 140.792 132.633C141.003 133.384 141.02 134.139 140.841 134.899C140.662 135.658 140.283 136.341 139.702 136.948C139.129 137.546 138.467 137.951 137.717 138.162C136.966 138.391 136.211 138.416 135.452 138.237C134.693 138.058 134.014 137.683 133.416 137.11C132.809 136.529 132.396 135.859 132.176 135.1C131.964 134.349 131.952 133.59 132.139 132.822C132.317 132.063 132.693 131.384 133.265 130.786ZM134.397 131.869C134.023 132.259 133.782 132.693 133.674 133.171C133.566 133.648 133.584 134.123 133.73 134.595C133.885 135.076 134.166 135.511 134.574 135.901C134.972 136.283 135.415 136.532 135.901 136.649C136.379 136.774 136.85 136.768 137.314 136.63C137.778 136.51 138.197 136.255 138.57 135.865C138.944 135.475 139.185 135.041 139.293 134.563C139.41 134.094 139.396 133.623 139.25 133.151C139.104 132.679 138.831 132.252 138.432 131.87C138.025 131.48 137.578 131.218 137.091 131.085C136.613 130.959 136.138 130.961 135.666 131.09C135.193 131.219 134.77 131.479 134.397 131.869Z" fill="#212121"/>
<path d="M124.256 138.957L127.291 142.913C127.686 143.427 128.173 143.726 128.752 143.811C129.331 143.896 129.878 143.741 130.392 143.347C130.735 143.084 130.981 142.774 131.131 142.417C131.281 142.06 131.329 141.69 131.277 141.307C131.225 140.923 131.067 140.56 130.804 140.217L131.563 140.112C131.957 140.626 132.194 141.171 132.272 141.746C132.35 142.321 132.272 142.88 132.038 143.423C131.812 143.975 131.441 144.448 130.927 144.842C130.413 145.237 129.862 145.455 129.274 145.498C128.677 145.547 128.104 145.45 127.554 145.207C127.011 144.973 126.561 144.622 126.203 144.156L122.971 139.943L124.256 138.957ZM129.055 135.275L134.259 142.059L132.974 143.045L127.769 136.262L129.055 135.275Z" fill="#212121"/>
<path d="M117.247 149.594L117.82 150.896L114.723 152.26C114.054 152.555 113.612 152.953 113.4 153.453C113.188 153.953 113.21 154.494 113.466 155.076C113.708 155.625 114.09 156.001 114.612 156.204C115.123 156.411 115.714 156.368 116.384 156.072L119.497 154.701L120.092 156.051L116.929 157.445C116.205 157.764 115.51 157.9 114.846 157.851C114.187 157.814 113.609 157.617 113.11 157.259C112.601 156.907 112.208 156.417 111.932 155.792C111.647 155.144 111.546 154.513 111.63 153.899C111.702 153.29 111.947 152.73 112.364 152.218C112.786 151.717 113.359 151.307 114.084 150.988L117.247 149.594ZM116.092 144.163L121.13 155.594L119.581 156.276L114.544 144.845L116.092 144.163ZM109.504 147.066L115.912 150.36L114.671 151.516L107.543 147.93L109.504 147.066Z" fill="#212121"/>
<path d="M102.717 149.054C103.473 148.861 104.207 148.872 104.918 149.087C105.632 149.314 106.252 149.707 106.779 150.267C107.293 150.829 107.654 151.517 107.862 152.331C108.069 153.145 108.081 153.922 107.898 154.662C107.704 155.405 107.353 156.046 106.846 156.583C106.328 157.124 105.685 157.492 104.917 157.688C104.289 157.848 103.697 157.856 103.14 157.713C102.575 157.585 102.082 157.326 101.661 156.938C101.243 156.562 100.94 156.076 100.751 155.48L100.116 152.986C99.9995 152.384 100.033 151.812 100.217 151.269C100.389 150.73 100.691 150.263 101.123 149.868C101.547 149.488 102.078 149.216 102.717 149.054ZM102.834 150.603C102.054 150.801 101.493 151.223 101.15 151.868C100.809 152.524 100.744 153.265 100.954 154.091C101.1 154.661 101.336 155.127 101.664 155.489C101.983 155.866 102.369 156.12 102.824 156.252C103.281 156.396 103.772 156.401 104.295 156.267C104.818 156.134 105.253 155.893 105.597 155.546C105.93 155.201 106.159 154.783 106.281 154.294C106.396 153.819 106.383 153.308 106.244 152.762C106.102 152.204 105.866 151.737 105.535 151.363C105.196 151.004 104.792 150.754 104.322 150.614C103.853 150.473 103.357 150.47 102.834 150.603ZM100.006 149.93L100.575 152.163L100.794 154.262L101.601 156.192L102.117 158.215L100.529 158.62L98.4186 150.334L100.006 149.93Z" fill="#212121"/>
<path d="M95.3086 150.786L96.4254 159.263L94.8193 159.474L93.7024 150.998L95.3086 150.786ZM95.8457 161.064C96.1431 161.025 96.3996 161.088 96.615 161.253C96.832 161.43 96.9601 161.667 96.9993 161.965C97.0369 162.25 96.9731 162.501 96.8078 162.716C96.6441 162.944 96.4135 163.077 96.1161 163.116C95.8187 163.155 95.5614 163.086 95.3444 162.909C95.129 162.744 95.0025 162.518 94.9649 162.233C94.9257 161.935 94.9879 161.673 95.1516 161.446C95.3169 161.23 95.5483 161.103 95.8457 161.064Z" fill="#212121"/>
<path d="M90.8049 151.3L91.5978 164.128L89.9809 164.228L89.188 151.4L90.8049 151.3Z" fill="#212121"/>
<path d="M83.4649 151.291C83.9445 151.31 84.3979 151.388 84.8249 151.524C85.2395 151.672 85.6223 151.867 85.9732 152.109C86.3237 152.363 86.6246 152.656 86.8759 152.99L85.7924 153.993C85.4954 153.598 85.1468 153.296 84.7465 153.088C84.3457 152.893 83.8936 152.785 83.3899 152.766C82.8863 152.746 82.4934 152.815 82.2111 152.972C81.9283 153.142 81.781 153.382 81.7689 153.694C81.7569 154.006 81.8615 154.25 82.0829 154.426C82.2918 154.615 82.568 154.769 82.9116 154.891C83.2547 155.024 83.622 155.152 84.0136 155.276C84.3926 155.41 84.7526 155.574 85.0934 155.768C85.4342 155.961 85.7125 156.218 85.9283 156.538C86.1321 156.859 86.224 157.276 86.2041 157.792C86.1842 158.308 86.0412 158.746 85.775 159.108C85.5084 159.482 85.1493 159.763 84.6977 159.949C84.2342 160.136 83.6847 160.217 83.0491 160.192C82.3776 160.166 81.7887 160.023 81.2824 159.764C80.7636 159.515 80.3453 159.151 80.0276 158.67L81.1111 157.667C81.3389 157.988 81.6294 158.24 81.9827 158.422C82.3239 158.603 82.7164 158.702 83.1601 158.719C83.6277 158.737 83.9907 158.667 84.249 158.509C84.4948 158.362 84.6233 158.145 84.6344 157.857C84.6455 157.57 84.5462 157.344 84.3363 157.179C84.1265 157.015 83.8498 156.872 83.5062 156.751C83.1507 156.629 82.7834 156.501 82.4043 156.366C82.0247 156.244 81.6648 156.08 81.3245 155.874C80.9841 155.669 80.7123 155.4 80.5089 155.068C80.2936 154.736 80.1961 154.306 80.2165 153.778C80.2475 152.975 80.5599 152.35 81.1535 151.905C81.7351 151.459 82.5056 151.254 83.4649 151.291Z" fill="#212121"/>
<path d="M69.8958 155.302L69.5239 156.675L66.2577 155.79C65.5512 155.598 64.9582 155.63 64.4787 155.886C63.9992 156.141 63.6762 156.576 63.5099 157.19C63.3529 157.769 63.4138 158.301 63.6924 158.787C63.9595 159.27 64.4463 159.607 65.1528 159.798L68.4363 160.688L68.0503 162.113L64.7146 161.209C63.9502 161.002 63.325 160.671 62.8391 160.216C62.35 159.772 62.024 159.255 61.8609 158.664C61.6863 158.069 61.6884 157.442 61.8674 156.782C62.0525 156.099 62.3705 155.545 62.8214 155.12C63.2606 154.692 63.8032 154.41 64.4492 154.274C65.0921 154.15 65.7957 154.191 66.5602 154.398L69.8958 155.302ZM72.4122 150.352L69.1448 162.409L67.5117 161.967L70.7791 149.91L72.4122 150.352ZM65.4629 148.469L68.3767 155.059L66.6846 155.178L63.3954 147.909L65.4629 148.469Z" fill="#212121"/>
<path d="M59.055 145.795C59.6909 146.078 60.203 146.476 60.5914 146.991C60.9639 147.511 61.178 148.093 61.2337 148.735C61.2894 149.377 61.1659 150.038 60.8634 150.717L58.8431 155.256L57.3631 154.597L59.3541 150.124C59.5444 149.697 59.6391 149.292 59.6381 148.911C59.6212 148.536 59.5069 148.202 59.295 147.911C59.0832 147.62 58.7854 147.389 58.4017 147.218C57.8207 146.959 57.2852 146.938 56.7953 147.153C56.3005 147.379 55.9091 147.816 55.6212 148.463L53.6302 152.936L52.1502 152.277L54.1705 147.738C54.473 147.059 54.8815 146.524 55.3959 146.136C55.9103 145.748 56.4855 145.518 57.1216 145.446C57.7418 145.381 58.3863 145.497 59.055 145.795Z" fill="#212121"/>
<path d="M50.2081 141.07C50.7536 141.42 51.1772 141.848 51.4791 142.355C51.7644 142.866 51.9088 143.408 51.9123 143.98C51.9158 144.553 51.7674 145.106 51.4673 145.641L50.0776 147.808C49.7104 148.313 49.2691 148.679 48.7538 148.905C48.2219 149.134 47.6676 149.22 47.0907 149.164C46.4973 149.111 45.9329 148.913 45.3975 148.569C44.741 148.148 44.257 147.603 43.9456 146.932C43.624 146.256 43.4932 145.537 43.553 144.777C43.6128 144.017 43.8694 143.284 44.323 142.577C44.7765 141.87 45.3362 141.331 46.002 140.959C46.6678 140.588 47.3753 140.407 48.1245 140.417C48.857 140.431 49.5516 140.649 50.2081 141.07ZM49.6093 142.503C49.1548 142.212 48.6878 142.062 48.2083 142.054C47.7288 142.046 47.2715 142.158 46.8362 142.393C46.3945 142.637 46.0181 143.001 45.7071 143.486C45.4026 143.961 45.2315 144.45 45.1938 144.953C45.1561 145.456 45.2442 145.919 45.458 146.341C45.6654 146.774 45.9913 147.133 46.4357 147.418C46.8902 147.709 47.3572 147.859 47.8367 147.867C48.3097 147.885 48.762 147.769 49.1937 147.519C49.6253 147.268 49.9966 146.9 50.3076 146.415C50.6121 145.941 50.7933 145.458 50.8512 144.968C50.8926 144.481 50.8095 144.022 50.6022 143.589C50.3847 143.15 50.0538 142.788 49.6093 142.503ZM53.8987 143.651L46.9598 154.469L45.5962 153.594L49.0462 148.215L50.4214 146.638L51.2912 144.715L52.5351 142.776L53.8987 143.651Z" fill="#212121"/>
<path d="M42.6867 135.644L39.7894 144.571L38.4361 143.384L40.8163 136.493L41.2494 136.873L34.6199 140.037L33.2666 138.85L41.9559 135.003L42.6867 135.644ZM46.8415 134.619L41.5407 136.841L41.9559 135.003L45.4883 133.432L46.8415 134.619Z" fill="#212121"/>
<path d="M32.1877 124.112C32.6768 124.795 32.9561 125.525 33.0255 126.302C33.0949 127.079 32.9717 127.824 32.656 128.537C32.3305 129.257 31.8264 129.862 31.1435 130.351C30.4704 130.833 29.7502 131.106 28.9831 131.168C28.2062 131.237 27.4611 131.114 26.7478 130.799C26.0346 130.483 25.4334 129.984 24.9442 129.301C24.4621 128.628 24.1863 127.903 24.1169 127.126C24.0307 126.346 24.1455 125.599 24.4612 124.886C24.7769 124.173 25.2714 123.575 25.9445 123.093C26.6274 122.604 27.3621 122.321 28.1488 122.245C28.9257 122.175 29.6743 122.303 30.3945 122.629C31.1078 122.945 31.7055 123.439 32.1877 124.112ZM30.9146 125.024C30.6001 124.585 30.2182 124.268 29.7687 124.074C29.3193 123.879 28.8491 123.81 28.3581 123.866C27.8574 123.93 27.3778 124.126 26.9193 124.454C26.4705 124.775 26.1439 125.164 25.9395 125.621C25.7281 126.067 25.6471 126.531 25.6965 127.013C25.7293 127.491 25.9029 127.95 26.2173 128.389C26.5318 128.828 26.9137 129.145 27.3632 129.339C27.8028 129.541 28.2682 129.614 28.7591 129.557C29.2501 129.501 29.7199 129.312 30.1687 128.99C30.6272 128.662 30.967 128.271 31.1882 127.817C31.3997 127.37 31.4855 126.903 31.4458 126.415C31.4061 125.927 31.229 125.463 30.9146 125.024Z" fill="#212121"/>
<path d="M25.8387 113.818L21.3952 116.08C20.8177 116.374 20.4343 116.798 20.2451 117.352C20.0559 117.906 20.1082 118.472 20.4022 119.049C20.5981 119.434 20.8579 119.733 21.1814 119.945C21.5049 120.158 21.8599 120.273 22.2465 120.292C22.633 120.31 23.0188 120.222 23.4038 120.026L23.369 120.791C22.7915 121.085 22.2129 121.218 21.633 121.19C21.0532 121.162 20.518 120.983 20.0272 120.654C19.5258 120.33 19.1281 119.879 18.8342 119.302C18.5403 118.724 18.4261 118.143 18.4917 117.557C18.5518 116.961 18.7518 116.415 19.0917 115.919C19.4209 115.428 19.8476 115.05 20.3716 114.783L25.1039 112.374L25.8387 113.818ZM28.5821 119.208L20.9624 123.086L20.2275 121.643L27.8473 117.764L28.5821 119.208Z" fill="#212121"/>
<path d="M16.7116 105.123L15.3272 105.448L14.5543 102.154C14.3871 101.441 14.0772 100.934 13.6246 100.634C13.172 100.333 12.6361 100.256 12.0169 100.401C11.4328 100.538 10.9931 100.844 10.6981 101.32C10.4002 101.785 10.3349 102.373 10.5021 103.086L11.2791 106.398L9.84214 106.735L9.05278 103.37C8.87189 102.599 8.86617 101.892 9.03562 101.248C9.19339 100.607 9.49366 100.075 9.93645 99.6502C10.3765 99.2142 10.9295 98.918 11.5954 98.7618C12.2847 98.6001 12.9233 98.6167 13.5114 98.8115C14.0967 98.9947 14.6025 99.3382 15.0289 99.8421C15.4436 100.349 15.7414 100.988 15.9223 101.759L16.7116 105.123ZM22.2629 104.986L10.1011 107.839L9.71469 106.192L21.8765 103.339L22.2629 104.986ZM20.6185 97.9761L16.2045 103.671L15.2953 102.239L20.1292 95.8908L20.6185 97.9761Z" fill="#212121"/>
<path d="M19.8798 90.8012C19.9279 91.5798 19.78 92.2983 19.4359 92.9567C19.0799 93.6159 18.578 94.1519 17.9303 94.5647C17.2817 94.9655 16.5383 95.1918 15.6999 95.2436C14.8615 95.2954 14.0958 95.1624 13.4029 94.8445C12.7092 94.5147 12.1455 94.0506 11.7118 93.4522C11.2773 92.8418 11.0356 92.1414 10.9868 91.3509C10.9468 90.7042 11.049 90.1207 11.2934 89.6007C11.525 89.0694 11.8708 88.6332 12.3306 88.2922C12.7785 87.9519 13.3127 87.7446 13.9333 87.6701L16.5024 87.5113C17.1155 87.5095 17.6712 87.6495 18.1695 87.9313C18.6671 88.2011 19.0695 88.585 19.3768 89.083C19.6714 89.5698 19.8391 90.1425 19.8798 90.8012ZM18.3361 90.6261C18.2865 89.8237 17.977 89.1936 17.4077 88.7358C16.8264 88.2788 16.1105 88.0766 15.2601 88.1291C14.6733 88.1654 14.1713 88.3107 13.7542 88.5649C13.3243 88.8079 13.0022 89.1404 12.7879 89.5624C12.5615 89.9852 12.465 90.466 12.4983 91.005C12.5316 91.544 12.687 92.0153 12.9644 92.419C13.2411 92.8106 13.6084 93.1125 14.0664 93.3247C14.5116 93.5256 15.0157 93.6087 15.5787 93.5739C16.1536 93.5383 16.6556 93.3931 17.0846 93.1381C17.501 92.8719 17.822 92.5215 18.0476 92.0867C18.2732 91.652 18.3694 91.1651 18.3361 90.6261ZM19.5247 87.9738L17.2251 88.1159L15.1222 87.9393L13.075 88.3724L10.991 88.5012L10.8899 86.8664L19.4236 86.3389L19.5247 87.9738Z" fill="#212121"/>
<path d="M19.5375 82.9085L11.0018 82.4139L11.0955 80.7966L19.6312 81.2912L19.5375 82.9085ZM9.34149 81.5064C9.32414 81.8059 9.21407 82.0459 9.01128 82.2265C8.79652 82.4063 8.53939 82.4876 8.23989 82.4703C7.95237 82.4536 7.71833 82.3439 7.53776 82.1411C7.3452 81.9376 7.2576 81.6861 7.27496 81.3866C7.29231 81.0871 7.40837 80.8474 7.62313 80.6676C7.82592 80.487 8.07107 80.405 8.35859 80.4217C8.65809 80.439 8.90411 80.5495 9.09666 80.7529C9.27723 80.9557 9.35884 81.2069 9.34149 81.5064Z" fill="#212121"/>
<path d="M19.8397 78.622L7.08533 77.0411L7.2846 75.4334L20.039 77.0143L19.8397 78.622Z" fill="#212121"/>
<path d="M21.1725 71.4778C21.0664 71.9459 20.9071 72.3774 20.6947 72.7722C20.4731 73.1526 20.2114 73.4932 19.9095 73.7939C19.5958 74.092 19.2519 74.334 18.8775 74.5198L18.09 73.271C18.5335 73.0515 18.8939 72.7641 19.1713 72.4086C19.4371 72.0504 19.6256 71.6256 19.737 71.1341C19.8483 70.6425 19.8526 70.2436 19.7497 69.9373C19.6352 69.6283 19.4258 69.4394 19.1215 69.3705C18.8172 69.3015 18.5579 69.3597 18.3437 69.5449C18.1204 69.7158 17.9177 69.959 17.7354 70.2745C17.5415 70.5874 17.3481 70.925 17.1553 71.2874C16.9534 71.6353 16.7262 71.9591 16.4738 72.2588C16.2213 72.5584 15.9177 72.7849 15.5631 72.9383C15.2111 73.08 14.7834 73.0939 14.2802 72.9799C13.7769 72.8658 13.3718 72.6448 13.0646 72.3169C12.7458 71.9862 12.536 71.5819 12.4352 71.1038C12.337 70.614 12.3581 70.0589 12.4987 69.4386C12.6472 68.7832 12.8955 68.2304 13.2436 67.7802C13.5826 67.3157 14.0175 66.9713 14.5481 66.747L15.3356 67.9959C14.9783 68.161 14.678 68.4005 14.4346 68.7145C14.1938 69.0168 14.0244 69.3844 13.9263 69.8175C13.8228 70.2739 13.8252 70.6436 13.9334 70.9265C14.0325 71.195 14.2225 71.3611 14.5034 71.4247C14.7842 71.4884 15.0246 71.4321 15.2245 71.2559C15.4244 71.0797 15.6154 70.8339 15.7976 70.5183C15.9825 70.1911 16.1759 69.8535 16.3778 69.5055C16.568 69.1549 16.7952 68.831 17.0593 68.5341C17.3235 68.2371 17.6374 68.0191 18.0011 67.88C18.3675 67.7293 18.8082 67.7122 19.3231 67.8289C20.1072 68.0066 20.6639 68.428 20.993 69.0932C21.3248 69.7466 21.3846 70.5415 21.1725 71.4778Z" fill="#212121"/>
<path d="M19.721 57.3837L18.4419 56.7623L19.9208 53.7185C20.2407 53.0601 20.3198 52.4715 20.1583 51.9528C19.9967 51.434 19.6299 51.0357 19.0579 50.7578C18.5182 50.4956 17.9838 50.456 17.4545 50.6391C16.9305 50.8115 16.5086 51.2269 16.1887 51.8853L14.702 54.9452L13.3744 54.3002L14.8847 51.1917C15.2308 50.4793 15.6727 49.9268 16.2102 49.5343C16.737 49.1365 17.3061 48.9127 17.9173 48.8628C18.5338 48.8021 19.1497 48.9212 19.7649 49.2201C20.4017 49.5295 20.8868 49.9453 21.2201 50.4675C21.5587 50.9789 21.7344 51.5645 21.7473 52.2245C21.7494 52.8793 21.5774 53.5628 21.2313 54.2752L19.721 57.3837ZM24.1148 60.7793L12.8788 55.3202L13.6182 53.7983L24.8543 59.2574L24.1148 60.7793ZM27.2613 54.3032L20.2439 55.9368L20.4421 54.252L28.1974 52.3766L27.2613 54.3032Z" fill="#212121"/>
<path d="M31.0154 48.5564C30.6205 49.1295 30.1346 49.5598 29.5577 49.8472C28.9777 50.1179 28.367 50.2217 27.7255 50.1587C27.0841 50.0956 26.457 49.853 25.8444 49.4309L21.7534 46.6122L22.6725 45.2782L26.7042 48.056C27.0896 48.3215 27.4698 48.4888 27.8449 48.5578C28.2169 48.6101 28.5655 48.5588 28.8908 48.404C29.216 48.2492 29.4978 47.9989 29.7361 47.653C30.0969 47.1293 30.2164 46.6069 30.0946 46.0858C29.9628 45.5578 29.6055 45.093 29.0225 44.6913L24.9908 41.9135L25.9099 40.5795L30.0009 43.3982C30.6135 43.8203 31.0636 44.3198 31.351 44.8967C31.6384 45.4736 31.7589 46.0813 31.7125 46.7197C31.6631 47.3414 31.4307 47.9536 31.0154 48.5564Z" fill="#212121"/>
<path d="M37.1393 40.8482C36.6963 41.3211 36.198 41.66 35.6444 41.8649C35.0902 42.0529 34.5313 42.0966 33.9677 41.9962C33.4041 41.8958 32.8866 41.6495 32.4154 41.2574L30.5367 39.4978C30.1059 39.045 29.8264 38.5447 29.6981 37.9971C29.5693 37.4325 29.5849 36.8716 29.7449 36.3146C29.9044 35.7405 30.2016 35.2214 30.6364 34.7572C31.1696 34.188 31.794 33.811 32.5096 33.6262C33.2334 33.4328 33.9635 33.4343 34.7001 33.631C35.4366 33.8276 36.1115 34.2131 36.7245 34.7873C37.3376 35.3615 37.7663 36.0097 38.0107 36.7318C38.255 37.454 38.3043 38.1825 38.1586 38.9174C38.0123 39.6353 37.6725 40.2789 37.1393 40.8482ZM35.8381 39.9993C36.2072 39.6052 36.4393 39.1731 36.5343 38.7031C36.6293 38.233 36.6011 37.7628 36.4499 37.2923C36.2899 36.8136 35.9997 36.3774 35.5793 35.9836C35.1677 35.5981 34.7178 35.3411 34.2297 35.2127C33.7416 35.0844 33.2705 35.0871 32.8164 35.2208C32.3536 35.3463 31.9417 35.6017 31.5807 35.9871C31.2116 36.3812 30.9795 36.8133 30.8845 37.2833C30.7808 37.7452 30.813 38.2111 30.9812 38.681C31.1494 39.1509 31.4437 39.5828 31.8641 39.9765C32.2757 40.3621 32.7174 40.6278 33.1891 40.7737C33.6602 40.9026 34.1272 40.9043 34.5901 40.7788C35.0611 40.6445 35.4771 40.3847 35.8381 39.9993ZM33.9317 44.0095L24.5517 35.2237L25.6591 34.0414L30.3229 38.4096L31.6245 40.048L33.3576 41.2521L35.0391 42.8271L33.9317 44.0095Z" fill="#212121"/>
<path d="M44.0001 34.2584L35.7602 29.7647L37.1762 28.6535L43.5099 32.2634L43.0568 32.619L41.1694 25.5198L42.5855 24.4086L44.7647 33.6583L44.0001 34.2584ZM44.2412 38.5309L43.0344 32.9112L44.7647 33.6583L45.6572 37.4197L44.2412 38.5309Z" fill="#212121"/>
<path d="M57.2497 26.0304C56.4888 26.3862 55.7201 26.5271 54.9436 26.4531C54.1671 26.379 53.4572 26.1215 52.8138 25.6805C52.1654 25.2286 51.6632 24.6222 51.3074 23.8613C50.9567 23.1113 50.8209 22.3534 50.9 21.5878C50.9741 20.8114 51.2316 20.1014 51.6726 19.4581C52.1136 18.8147 52.7145 18.3151 53.4755 17.9593C54.2255 17.6085 54.9888 17.4702 55.7652 17.5443C56.5475 17.6024 57.2603 17.8519 57.9037 18.2929C58.5471 18.7339 59.0441 19.3294 59.3949 20.0795C59.7507 20.8404 59.8941 21.6145 59.8251 22.4019C59.7511 23.1783 59.4881 23.8908 59.0362 24.5393C58.5953 25.1826 57.9997 25.6797 57.2497 26.0304ZM56.5863 24.6119C57.0755 24.3831 57.4569 24.0657 57.7306 23.6595C58.0044 23.2533 58.1584 22.8037 58.1928 22.3107C58.2222 21.8068 58.1174 21.2995 57.8785 20.7886C57.6446 20.2885 57.3221 19.8962 56.9108 19.6116C56.5104 19.322 56.0692 19.1574 55.5871 19.1179C55.1107 19.0625 54.628 19.1491 54.1388 19.3778C53.6497 19.6066 53.2682 19.924 52.9945 20.3302C52.7157 20.7255 52.5591 21.1697 52.5247 21.6627C52.4903 22.1557 52.59 22.6522 52.8238 23.1522C53.0627 23.6631 53.3849 24.0688 53.7904 24.3694C54.1908 24.659 54.6346 24.8291 55.1218 24.8794C55.609 24.9298 56.0972 24.8406 56.5863 24.6119Z" fill="#212121"/>
<path d="M68.1997 21.7705L66.7865 16.989C66.6028 16.3676 66.2559 15.9133 65.7456 15.6262C65.2352 15.339 64.6694 15.2873 64.0479 15.471C63.6337 15.5934 63.2926 15.7943 63.0248 16.0737C62.757 16.353 62.5787 16.681 62.4898 17.0577C62.4009 17.4343 62.4176 17.8298 62.5401 18.244L61.7943 18.0703C61.6106 17.4489 61.5854 16.8557 61.7188 16.2907C61.8521 15.7258 62.1254 15.2321 62.5386 14.8096C62.9484 14.3757 63.464 14.0669 64.0855 13.8832C64.7069 13.6995 65.2994 13.6933 65.8631 13.8646C66.4383 14.0325 66.9388 14.3288 67.3646 14.7535C67.787 15.1667 68.0816 15.6553 68.2482 16.2191L69.7533 21.3114L68.1997 21.7705ZM62.3997 23.4847L59.9764 15.2853L61.5299 14.8262L63.9533 23.0256L62.3997 23.4847Z" fill="#212121"/>
<path d="M79.0214 14.2735L78.9611 12.8528L82.342 12.7092C83.0734 12.6781 83.629 12.4684 84.0088 12.0799C84.3887 11.6914 84.5651 11.1795 84.5381 10.5441C84.5126 9.9446 84.2937 9.45545 83.8812 9.07661C83.4808 8.69726 82.9149 8.52312 82.1835 8.55419L78.7846 8.69856L78.722 7.22389L82.1749 7.07723C82.9661 7.04362 83.6621 7.17019 84.2629 7.45696C84.8631 7.73173 85.3302 8.12626 85.6643 8.64055C86.0105 9.15432 86.198 9.7529 86.2271 10.4363C86.2571 11.1436 86.1215 11.768 85.8202 12.3092C85.5309 12.85 85.0988 13.2827 84.5241 13.6074C83.9489 13.9201 83.2656 14.0933 82.4743 14.1269L79.0214 14.2735ZM78.1191 19.7528L77.589 7.27202L79.2795 7.20021L79.8096 19.681L78.1191 19.7528ZM85.3126 19.4472L80.5432 14.0468L82.12 13.4213L87.4527 19.3563L85.3126 19.4472Z" fill="#212121"/>
<path d="M92.3925 20.0227C91.6184 19.9268 90.9394 19.6492 90.3555 19.1899C89.773 18.7186 89.3385 18.1267 89.052 17.414C88.7774 16.7029 88.6918 15.9305 88.7951 15.0968C88.8984 14.2632 89.17 13.5351 89.61 12.9125C90.0618 12.2913 90.6217 11.8227 91.2897 11.5064C91.9696 11.1917 92.7025 11.083 93.4885 11.1804C94.1315 11.2601 94.6862 11.4679 95.1524 11.8038C95.632 12.1293 95.9971 12.5494 96.2477 13.0641C96.4998 13.5669 96.6053 14.1302 96.5643 14.7539L96.2477 17.3083C96.1367 17.9113 95.8968 18.4317 95.5281 18.8697C95.1714 19.3091 94.72 19.6341 94.174 19.8445C93.6413 20.0445 93.0475 20.1039 92.3925 20.0227ZM92.8486 18.5376C93.6465 18.6365 94.3228 18.4482 94.8775 17.9728C95.4337 17.4856 95.7642 16.8191 95.869 15.9736C95.9413 15.3901 95.8909 14.8699 95.7178 14.4132C95.558 13.946 95.2904 13.5682 94.9151 13.2798C94.5412 12.9796 94.0863 12.7962 93.5504 12.7298C93.0145 12.6634 92.5226 12.7294 92.0748 12.9278C91.6389 13.1277 91.2746 13.4332 90.9818 13.8443C90.7024 14.245 90.528 14.7252 90.4586 15.2849C90.3877 15.8565 90.4381 16.3767 90.6098 16.8453C90.7948 17.3036 91.0803 17.6836 91.4661 17.9853C91.8519 18.2871 92.3127 18.4712 92.8486 18.5376ZM95.237 20.1939L95.5204 17.9074L96.081 15.8729L96.0319 13.781L96.2887 11.7089L97.9143 11.9103L96.8626 20.3954L95.237 20.1939Z" fill="#212121"/>
<path d="M100.044 21.0918L102.092 12.7907L103.665 13.1787L101.617 21.4798L100.044 21.0918ZM103.288 11.3244C102.997 11.2526 102.781 11.1004 102.64 10.8681C102.503 10.624 102.47 10.3563 102.542 10.0651C102.611 9.78546 102.761 9.57544 102.994 9.43501C103.229 9.28293 103.492 9.24282 103.784 9.31467C104.075 9.38652 104.289 9.54446 104.427 9.78851C104.567 10.0209 104.603 10.2769 104.534 10.5565C104.462 10.8478 104.309 11.0695 104.073 11.2216C103.841 11.362 103.579 11.3963 103.288 11.3244Z" fill="#212121"/>
<path d="M104.261 22.1856L108.183 9.94633L109.725 10.4406L105.804 22.6798L104.261 22.1856Z" fill="#212121"/>
<path d="M110.903 24.7547C110.463 24.5644 110.068 24.3285 109.719 24.0471C109.386 23.7594 109.099 23.4396 108.859 23.0875C108.623 22.7245 108.449 22.3419 108.335 21.9398L109.707 21.3952C109.841 21.8714 110.058 22.2785 110.356 22.6165C110.659 22.9435 111.042 23.2069 111.505 23.4067C111.968 23.6065 112.359 23.684 112.679 23.6392C113.004 23.5833 113.228 23.4122 113.352 23.1258C113.475 22.8393 113.466 22.5738 113.323 22.3292C113.196 22.0783 112.994 21.8343 112.718 21.5972C112.446 21.3491 112.149 21.0969 111.829 20.8408C111.524 20.5784 111.247 20.2956 110.999 19.9924C110.751 19.6892 110.584 19.3492 110.498 18.9724C110.424 18.6003 110.489 18.1774 110.693 17.7037C110.898 17.23 111.19 16.8723 111.568 16.6307C111.952 16.378 112.388 16.2461 112.876 16.2348C113.376 16.2283 113.918 16.3511 114.502 16.6032C115.118 16.8696 115.616 17.2152 115.995 17.6401C116.389 18.0587 116.648 18.5495 116.771 19.1123L115.398 19.6569C115.302 19.2754 115.122 18.9361 114.858 18.6392C114.605 18.347 114.274 18.1129 113.867 17.9369C113.437 17.7513 113.073 17.6857 112.775 17.7401C112.493 17.7882 112.295 17.9444 112.181 18.2088C112.067 18.4732 112.078 18.7198 112.214 18.9487C112.351 19.1775 112.557 19.4105 112.834 19.6476C113.122 19.8895 113.418 20.1416 113.723 20.404C114.033 20.6554 114.309 20.9382 114.553 21.2524C114.796 21.5666 114.953 21.9153 115.023 22.2983C115.103 22.6862 115.039 23.1225 114.83 23.6072C114.511 24.3453 113.995 24.8151 113.28 25.0164C112.577 25.2225 111.785 25.1352 110.903 24.7547Z" fill="#212121"/>
<path d="M125.116 25.9454L125.961 24.8016L128.683 26.8122C129.272 27.2471 129.836 27.4326 130.375 27.3687C130.915 27.3047 131.374 27.017 131.752 26.5054C132.108 26.0228 132.245 25.5046 132.161 24.9507C132.088 24.4041 131.757 23.9133 131.168 23.4784L128.431 21.4571L129.308 20.2699L132.088 22.3232C132.725 22.7938 133.188 23.3292 133.475 23.9295C133.77 24.5202 133.886 25.1206 133.823 25.7306C133.77 26.3478 133.54 26.9315 133.134 27.4817C132.713 28.0512 132.216 28.452 131.642 28.6842C131.077 28.9236 130.469 28.9892 129.818 28.8812C129.174 28.7635 128.533 28.4693 127.896 27.9988L125.116 25.9454ZM120.974 29.6442L128.396 19.5961L129.757 20.6014L122.335 30.6495L120.974 29.6442ZM126.766 33.922L126.443 26.7242L128.063 27.2271L128.489 35.1947L126.766 33.922Z" fill="#212121"/>
<path d="M131.671 38.5873C131.179 38.0951 130.844 37.5394 130.666 36.9199C130.505 36.3005 130.513 35.6811 130.691 35.0617C130.87 34.4422 131.222 33.8695 131.748 33.3434L135.261 29.8305L136.406 30.976L132.944 34.438C132.613 34.7689 132.38 35.1126 132.244 35.469C132.125 35.8253 132.113 36.1775 132.206 36.5254C132.299 36.8733 132.494 37.1957 132.791 37.4927C133.241 37.9424 133.733 38.1545 134.268 38.1291C134.811 38.0951 135.333 37.8279 135.833 37.3272L139.295 33.8652L140.441 35.0107L136.928 38.5237C136.402 39.0497 135.829 39.4019 135.21 39.5801C134.59 39.7583 133.971 39.7667 133.351 39.6055C132.749 39.4443 132.189 39.1049 131.671 38.5873Z" fill="#212121"/>
<path d="M138.415 46.3459C138.032 45.8233 137.791 45.271 137.691 44.6891C137.609 44.1097 137.669 43.5524 137.872 43.0169C138.074 42.4815 138.412 42.0184 138.884 41.6276L140.96 40.1058C141.485 39.7659 142.028 39.5835 142.59 39.5584C143.169 39.536 143.717 39.6548 144.235 39.9149C144.77 40.1776 145.225 40.5654 145.601 41.0783C146.062 41.7074 146.317 42.3906 146.367 43.128C146.424 43.8751 146.287 44.5925 145.958 45.2801C145.629 45.9677 145.126 46.5598 144.448 47.0564C143.771 47.5531 143.055 47.8548 142.3 47.9618C141.545 48.0687 140.82 47.9827 140.124 47.7039C139.446 47.4277 138.876 46.975 138.415 46.3459ZM139.489 45.2236C139.808 45.6591 140.19 45.9669 140.635 46.147C141.079 46.3271 141.547 46.3862 142.037 46.3244C142.537 46.2555 143.019 46.0507 143.484 45.7102C143.939 45.3768 144.274 44.982 144.49 44.526C144.707 44.0699 144.791 43.6064 144.743 43.1354C144.705 42.6574 144.53 42.2055 144.218 41.7796C143.899 41.3441 143.517 41.0363 143.072 40.8562C142.638 40.669 142.174 40.6147 141.681 40.6933C141.188 40.772 140.709 40.9815 140.245 41.322C139.79 41.6555 139.447 42.0406 139.217 42.4773C139.003 42.9165 138.915 43.3752 138.953 43.8533C138.998 44.341 139.177 44.7978 139.489 45.2236ZM135.9 42.6101L146.265 35.012L147.223 36.3186L142.069 40.0964L140.219 41.0733L138.716 42.5546L136.857 43.9167L135.9 42.6101Z" fill="#212121"/>
<path d="M143.464 54.0406L149.385 46.7587L150.219 48.3537L145.515 53.9226L145.248 53.4122L152.572 52.8516L153.406 54.4466L143.914 54.9019L143.464 54.0406ZM139.219 53.4982L144.964 53.3368L143.914 54.9019L140.053 55.0932L139.219 53.4982Z" fill="#212121"/>
<path d="M149.112 68.5198C148.902 67.7066 148.904 66.9251 149.119 66.1753C149.334 65.4256 149.717 64.7748 150.269 64.2231C150.832 63.6683 151.52 63.2857 152.333 63.0752C153.135 62.8678 153.904 62.8731 154.643 63.0911C155.392 63.3061 156.043 63.6892 156.595 64.2406C157.147 64.7919 157.528 65.4742 157.738 66.2874C157.946 67.089 157.942 67.8647 157.727 68.6145C157.527 69.3729 157.151 70.0279 156.599 70.5797C156.048 71.1314 155.371 71.511 154.57 71.7185C153.757 71.9289 152.969 71.9282 152.208 71.7162C151.458 71.5012 150.806 71.1122 150.251 70.5492C149.699 69.9979 149.32 69.3214 149.112 68.5198ZM150.628 68.1275C150.764 68.6502 151.006 69.0834 151.355 69.4268C151.704 69.7703 152.118 70.0041 152.597 70.1282C153.086 70.2493 153.604 70.2392 154.15 70.0979C154.685 69.9596 155.13 69.7143 155.485 69.3621C155.843 69.0215 156.085 68.6179 156.212 68.1511C156.354 67.693 156.357 67.2025 156.222 66.6798C156.087 66.157 155.845 65.7239 155.495 65.3804C155.158 65.0339 154.75 64.7987 154.272 64.6745C153.793 64.5504 153.287 64.5575 152.752 64.6958C152.206 64.8372 151.749 65.0796 151.379 65.4232C151.021 65.7638 150.772 66.1689 150.634 66.6387C150.495 67.1084 150.493 67.6047 150.628 68.1275Z" fill="#212121"/>
<path d="M151.338 80.523L156.299 80.0241C156.944 79.9592 157.455 79.7028 157.832 79.2548C158.209 78.8068 158.365 78.2604 158.3 77.6157C158.257 77.1859 158.123 76.8134 157.898 76.4983C157.674 76.1832 157.385 75.947 157.031 75.7895C156.677 75.6321 156.286 75.575 155.856 75.6183L156.165 74.9178C156.81 74.8529 157.398 74.9386 157.928 75.1747C158.458 75.4108 158.892 75.7712 159.231 76.2557C159.581 76.7391 159.788 77.3032 159.853 77.9479C159.918 78.5927 159.814 79.176 159.541 79.698C159.269 80.2319 158.885 80.6685 158.388 81.0079C157.903 81.3461 157.369 81.5446 156.784 81.6035L151.5 82.1349L151.338 80.523ZM150.733 74.5054L159.24 73.6497L159.402 75.2616L150.895 76.1173L150.733 74.5054Z" fill="#212121"/>
</symbol>

    <symbol id="planets" width="741" height="407" viewBox="0 0 741 407" fill="none" xmlns="http://www.w3.org/2000/svg">
        <rect x="726" width="1" height="407" fill="#B0B0B0"/>
        <rect x="618" y="44" width="1" height="362" fill="#B0B0B0"/>
        <rect x="510" y="77" width="1" height="330" fill="#B0B0B0"/>
        <rect x="402" y="104" width="1" height="303" fill="#B0B0B0"/>
        <rect x="294" y="186" width="1" height="221" fill="#B0B0B0"/>
        <line x1="728" y1="406.5" x2="0.000244141" y2="406.5" stroke="#4B4B4B" stroke-dasharray="10 10"/>
        <line x1="728" y1="334.5" x2="108" y2="334.5" stroke="#4B4B4B" stroke-dasharray="10 10"/>
        <line x1="728" y1="260.5" x2="108" y2="260.5" stroke="#4B4B4B" stroke-dasharray="10 10"/>
        <line x1="729.012" y1="188.5" x2="215.012" y2="188.5" stroke="#4B4B4B" stroke-dasharray="10 10"/>
        <line x1="727.007" y1="119.5" x2="371.995" y2="119.5" stroke="#4B4B4B" stroke-dasharray="10 10"/>
        <circle cx="108.5" cy="343.5" r="26.5" transform="rotate(-90 108.5 343.5)" fill="url(#paint0_radial_123_5390__planets)"/>
        <circle cx="512" cy="122" r="12" transform="rotate(-90 512 122)" fill="#212121"/>
        <circle cx="403" cy="386" r="12" transform="rotate(-90 403 386)" fill="#212121"/>
        <circle cx="729" cy="56" r="12" transform="rotate(-90 729 56)" fill="#212121"/>
        <circle cx="618" cy="249" r="50" transform="rotate(90 618 249)" fill="url(#paint1_radial_123_5390__planets)"/>
        <path d="M592.952 258V241.512H596.624V258H592.952ZM590.312 249.456V246.336H599.264V249.456H590.312ZM601.602 258V246.336H605.274V258H601.602ZM605.274 251.592L603.738 250.392C604.042 249.032 604.554 247.976 605.274 247.224C605.994 246.472 606.994 246.096 608.274 246.096C608.834 246.096 609.322 246.184 609.738 246.36C610.17 246.52 610.546 246.776 610.866 247.128L608.682 249.888C608.522 249.712 608.322 249.576 608.082 249.48C607.842 249.384 607.57 249.336 607.266 249.336C606.658 249.336 606.17 249.528 605.802 249.912C605.45 250.28 605.274 250.84 605.274 251.592ZM616.07 258.048L611.27 246.336H615.23L618.278 255.624H616.814L619.934 246.336H623.894L618.902 258.048H616.07ZM613.07 262.92L616.574 255.36L618.902 258.048L616.838 262.92H613.07ZM631.301 258V246.336H634.973V258H631.301ZM633.149 244.728C632.573 244.728 632.093 244.536 631.709 244.152C631.341 243.752 631.157 243.272 631.157 242.712C631.157 242.136 631.341 241.656 631.709 241.272C632.093 240.888 632.573 240.696 633.149 240.696C633.725 240.696 634.197 240.888 634.565 241.272C634.933 241.656 635.117 242.136 635.117 242.712C635.117 243.272 634.933 243.752 634.565 244.152C634.197 244.536 633.725 244.728 633.149 244.728ZM639.935 258V241.512H643.607V258H639.935ZM637.295 249.456V246.336H646.247V249.456H637.295Z" fill="#212121"/>
        <path d="M322.973 207.985L324.39 208.1L324.117 211.473C324.057 212.203 324.197 212.78 324.536 213.205C324.875 213.629 325.361 213.867 325.995 213.919C326.593 213.967 327.105 213.81 327.532 213.448C327.958 213.097 328.2 212.557 328.26 211.827L328.535 208.436L330.006 208.556L329.726 212.001C329.662 212.79 329.451 213.465 329.092 214.026C328.746 214.588 328.297 215.003 327.745 215.271C327.193 215.551 326.576 215.664 325.894 215.608C325.188 215.551 324.585 215.339 324.085 214.974C323.584 214.62 323.208 214.138 322.957 213.528C322.717 212.918 322.629 212.219 322.694 211.43L322.973 207.985ZM317.647 206.415L330.098 207.426L329.961 209.112L317.51 208.101L317.647 206.415ZM317.064 213.591L323.011 209.523L323.437 211.165L316.891 215.726L317.064 213.591Z" fill="#212121"/>
        <path d="M315.655 220.285C315.814 219.607 316.11 219.03 316.542 218.552C316.984 218.088 317.515 217.769 318.135 217.594C318.756 217.419 319.428 217.417 320.152 217.587L324.989 218.721L324.619 220.299L319.852 219.18C319.397 219.073 318.982 219.056 318.607 219.129C318.242 219.215 317.936 219.39 317.689 219.653C317.443 219.915 317.272 220.251 317.176 220.66C317.03 221.279 317.109 221.809 317.413 222.25C317.728 222.694 318.23 222.997 318.919 223.158L323.686 224.277L323.316 225.854L318.479 224.719C317.755 224.549 317.154 224.248 316.676 223.815C316.198 223.383 315.864 222.861 315.675 222.249C315.495 221.652 315.488 220.997 315.655 220.285Z" fill="#212121"/>
        <path d="M312.628 229.959C312.872 229.358 313.215 228.863 313.658 228.473C314.108 228.098 314.614 227.857 315.176 227.748C315.738 227.639 316.309 227.683 316.89 227.88L319.275 228.847C319.84 229.115 320.28 229.481 320.597 229.946C320.92 230.427 321.107 230.956 321.158 231.533C321.215 232.126 321.124 232.717 320.885 233.307C320.592 234.03 320.145 234.606 319.544 235.035C318.938 235.476 318.256 235.737 317.498 235.818C316.74 235.899 315.971 235.782 315.193 235.466C314.414 235.15 313.781 234.7 313.294 234.113C312.806 233.527 312.499 232.865 312.371 232.127C312.249 231.404 312.335 230.682 312.628 229.959ZM314.148 230.283C313.945 230.784 313.883 231.271 313.964 231.743C314.044 232.216 314.239 232.645 314.549 233.03C314.87 233.419 315.298 233.722 315.832 233.938C316.354 234.15 316.867 234.228 317.368 234.173C317.87 234.117 318.309 233.945 318.684 233.657C319.071 233.374 319.364 232.988 319.562 232.498C319.765 231.998 319.826 231.511 319.746 231.038C319.677 230.57 319.48 230.147 319.154 229.769C318.828 229.391 318.398 229.093 317.864 228.877C317.342 228.665 316.834 228.576 316.341 228.609C315.855 228.658 315.419 228.824 315.032 229.108C314.641 229.402 314.346 229.794 314.148 230.283ZM314.486 225.856L326.396 230.685L325.787 232.186L319.866 229.786L318.062 228.724L316.012 228.223L313.877 227.357L314.486 225.856Z" fill="#212121"/>
        <path d="M308.669 238.374L317.974 239.601L317.053 241.147L309.845 240.058L310.139 239.564L314.455 245.508L313.534 247.054L308.172 239.209L308.669 238.374ZM306.907 234.474L310.055 239.283L308.172 239.209L305.985 236.021L306.907 234.474Z" fill="#212121"/>
        <path d="M299.265 250.786C299.846 250.179 300.512 249.77 301.263 249.559C302.014 249.347 302.769 249.331 303.528 249.509C304.296 249.696 304.983 250.08 305.59 250.661C306.188 251.234 306.589 251.891 306.792 252.633C307.003 253.384 307.02 254.139 306.841 254.899C306.662 255.658 306.283 256.341 305.702 256.948C305.129 257.546 304.467 257.951 303.717 258.162C302.966 258.391 302.211 258.416 301.452 258.237C300.693 258.058 300.014 257.683 299.416 257.11C298.809 256.529 298.396 255.859 298.176 255.1C297.964 254.349 297.952 253.59 298.139 252.822C298.317 252.063 298.693 251.384 299.265 250.786ZM300.397 251.869C300.023 252.259 299.782 252.693 299.674 253.171C299.566 253.648 299.584 254.123 299.73 254.595C299.885 255.076 300.166 255.511 300.574 255.901C300.972 256.283 301.415 256.532 301.901 256.649C302.379 256.774 302.85 256.768 303.314 256.63C303.778 256.51 304.197 256.255 304.57 255.865C304.944 255.475 305.185 255.041 305.293 254.563C305.41 254.094 305.396 253.623 305.25 253.151C305.104 252.679 304.831 252.252 304.432 251.87C304.025 251.48 303.578 251.218 303.091 251.085C302.613 250.959 302.138 250.961 301.666 251.09C301.193 251.219 300.77 251.479 300.397 251.869Z" fill="#212121"/>
        <path d="M290.256 258.957L293.291 262.913C293.686 263.427 294.173 263.726 294.752 263.811C295.331 263.896 295.878 263.741 296.392 263.347C296.735 263.084 296.981 262.774 297.131 262.417C297.281 262.06 297.329 261.69 297.277 261.307C297.225 260.923 297.067 260.56 296.804 260.217L297.563 260.112C297.957 260.626 298.194 261.171 298.272 261.746C298.35 262.321 298.272 262.88 298.038 263.423C297.812 263.975 297.441 264.448 296.927 264.842C296.413 265.237 295.862 265.455 295.274 265.498C294.677 265.547 294.104 265.45 293.554 265.207C293.011 264.973 292.561 264.622 292.203 264.156L288.971 259.943L290.256 258.957ZM295.055 255.275L300.259 262.059L298.974 263.045L293.769 256.262L295.055 255.275Z" fill="#212121"/>
        <path d="M283.247 269.594L283.82 270.896L280.723 272.26C280.054 272.555 279.612 272.953 279.4 273.453C279.188 273.953 279.21 274.494 279.466 275.076C279.708 275.625 280.09 276.001 280.612 276.204C281.123 276.411 281.714 276.368 282.384 276.072L285.497 274.701L286.092 276.051L282.929 277.445C282.205 277.764 281.51 277.9 280.846 277.851C280.187 277.814 279.609 277.617 279.11 277.259C278.601 276.907 278.208 276.417 277.932 275.792C277.647 275.144 277.546 274.513 277.63 273.899C277.702 273.29 277.947 272.73 278.364 272.218C278.786 271.717 279.359 271.307 280.084 270.988L283.247 269.594ZM282.092 264.163L287.13 275.594L285.581 276.276L280.544 264.845L282.092 264.163ZM275.504 267.066L281.912 270.36L280.671 271.516L273.543 267.93L275.504 267.066Z" fill="#212121"/>
        <path d="M268.717 269.054C269.473 268.861 270.207 268.872 270.918 269.087C271.632 269.314 272.252 269.707 272.779 270.267C273.293 270.829 273.654 271.517 273.862 272.331C274.069 273.145 274.081 273.922 273.898 274.662C273.704 275.405 273.353 276.046 272.846 276.583C272.328 277.124 271.685 277.492 270.917 277.688C270.289 277.848 269.697 277.856 269.14 277.713C268.575 277.585 268.082 277.326 267.661 276.938C267.243 276.562 266.94 276.076 266.751 275.48L266.116 272.986C265.999 272.384 266.033 271.812 266.217 271.269C266.389 270.73 266.691 270.263 267.123 269.868C267.547 269.488 268.078 269.216 268.717 269.054ZM268.834 270.603C268.054 270.801 267.493 271.223 267.15 271.868C266.809 272.524 266.744 273.265 266.954 274.091C267.1 274.661 267.336 275.127 267.664 275.489C267.983 275.866 268.369 276.12 268.824 276.252C269.281 276.396 269.772 276.401 270.295 276.267C270.818 276.134 271.253 275.893 271.597 275.546C271.93 275.201 272.159 274.783 272.281 274.294C272.396 273.819 272.383 273.308 272.244 272.762C272.102 272.204 271.866 271.737 271.535 271.363C271.196 271.004 270.792 270.754 270.322 270.614C269.853 270.473 269.357 270.47 268.834 270.603ZM266.006 269.93L266.575 272.163L266.794 274.262L267.601 276.192L268.117 278.215L266.529 278.62L264.419 270.334L266.006 269.93Z" fill="#212121"/>
        <path d="M261.309 270.786L262.425 279.263L260.819 279.474L259.702 270.998L261.309 270.786ZM261.846 281.064C262.143 281.025 262.4 281.088 262.615 281.253C262.832 281.43 262.96 281.667 262.999 281.965C263.037 282.25 262.973 282.501 262.808 282.716C262.644 282.944 262.414 283.077 262.116 283.116C261.819 283.155 261.561 283.086 261.344 282.909C261.129 282.744 261.002 282.518 260.965 282.233C260.926 281.935 260.988 281.673 261.152 281.446C261.317 281.23 261.548 281.103 261.846 281.064Z" fill="#212121"/>
        <path d="M256.805 271.3L257.598 284.128L255.981 284.228L255.188 271.4L256.805 271.3Z" fill="#212121"/>
        <path d="M249.465 271.291C249.945 271.31 250.398 271.388 250.825 271.524C251.24 271.672 251.622 271.867 251.973 272.109C252.324 272.363 252.625 272.656 252.876 272.99L251.792 273.993C251.495 273.598 251.147 273.296 250.746 273.088C250.346 272.893 249.894 272.785 249.39 272.766C248.886 272.746 248.493 272.815 248.211 272.972C247.928 273.142 247.781 273.382 247.769 273.694C247.757 274.006 247.862 274.25 248.083 274.426C248.292 274.615 248.568 274.769 248.912 274.891C249.255 275.024 249.622 275.152 250.014 275.276C250.393 275.41 250.753 275.574 251.093 275.768C251.434 275.961 251.712 276.218 251.928 276.538C252.132 276.859 252.224 277.276 252.204 277.792C252.184 278.308 252.041 278.746 251.775 279.108C251.508 279.482 251.149 279.763 250.698 279.949C250.234 280.136 249.685 280.217 249.049 280.192C248.378 280.166 247.789 280.023 247.282 279.764C246.764 279.515 246.345 279.151 246.028 278.67L247.111 277.667C247.339 277.988 247.629 278.24 247.983 278.422C248.324 278.603 248.716 278.702 249.16 278.719C249.628 278.737 249.991 278.667 250.249 278.509C250.495 278.362 250.623 278.145 250.634 277.857C250.646 277.57 250.546 277.344 250.336 277.179C250.127 277.015 249.85 276.872 249.506 276.751C249.151 276.629 248.783 276.501 248.404 276.366C248.025 276.244 247.665 276.08 247.324 275.874C246.984 275.669 246.712 275.4 246.509 275.068C246.294 274.736 246.196 274.306 246.217 273.778C246.248 272.975 246.56 272.35 247.153 271.905C247.735 271.459 248.506 271.254 249.465 271.291Z" fill="#212121"/>
        <path d="M235.896 275.302L235.524 276.675L232.258 275.79C231.551 275.598 230.958 275.63 230.479 275.886C229.999 276.141 229.676 276.576 229.51 277.19C229.353 277.769 229.414 278.301 229.692 278.787C229.959 279.27 230.446 279.607 231.153 279.798L234.436 280.688L234.05 282.113L230.715 281.209C229.95 281.002 229.325 280.671 228.839 280.216C228.35 279.772 228.024 279.255 227.861 278.664C227.686 278.069 227.688 277.442 227.867 276.782C228.053 276.099 228.371 275.545 228.821 275.12C229.261 274.692 229.803 274.41 230.449 274.274C231.092 274.15 231.796 274.191 232.56 274.398L235.896 275.302ZM238.412 270.352L235.145 282.409L233.512 281.967L236.779 269.91L238.412 270.352ZM231.463 268.469L234.377 275.059L232.685 275.178L229.395 267.909L231.463 268.469Z" fill="#212121"/>
        <path d="M225.055 265.795C225.691 266.078 226.203 266.476 226.591 266.991C226.964 267.511 227.178 268.093 227.234 268.735C227.289 269.377 227.166 270.038 226.863 270.717L224.843 275.256L223.363 274.597L225.354 270.124C225.544 269.697 225.639 269.292 225.638 268.911C225.621 268.536 225.507 268.202 225.295 267.911C225.083 267.62 224.785 267.389 224.402 267.218C223.821 266.959 223.285 266.938 222.795 267.153C222.3 267.379 221.909 267.816 221.621 268.463L219.63 272.936L218.15 272.277L220.17 267.738C220.473 267.059 220.882 266.524 221.396 266.136C221.91 265.748 222.486 265.518 223.122 265.446C223.742 265.381 224.386 265.497 225.055 265.795Z" fill="#212121"/>
        <path d="M216.208 261.07C216.754 261.42 217.177 261.848 217.479 262.355C217.764 262.866 217.909 263.408 217.912 263.98C217.916 264.553 217.767 265.106 217.467 265.641L216.078 267.808C215.71 268.313 215.269 268.679 214.754 268.905C214.222 269.134 213.668 269.22 213.091 269.164C212.497 269.111 211.933 268.913 211.398 268.569C210.741 268.148 210.257 267.603 209.946 266.932C209.624 266.256 209.493 265.537 209.553 264.777C209.613 264.017 209.869 263.284 210.323 262.577C210.776 261.87 211.336 261.331 212.002 260.959C212.668 260.588 213.375 260.407 214.124 260.417C214.857 260.431 215.552 260.649 216.208 261.07ZM215.609 262.503C215.155 262.212 214.688 262.062 214.208 262.054C213.729 262.046 213.271 262.158 212.836 262.393C212.394 262.637 212.018 263.001 211.707 263.486C211.403 263.961 211.232 264.45 211.194 264.953C211.156 265.456 211.244 265.919 211.458 266.341C211.665 266.774 211.991 267.133 212.436 267.418C212.89 267.709 213.357 267.859 213.837 267.867C214.31 267.885 214.762 267.769 215.194 267.519C215.625 267.268 215.997 266.9 216.308 266.415C216.612 265.941 216.793 265.458 216.851 264.968C216.893 264.481 216.81 264.022 216.602 263.589C216.385 263.15 216.054 262.788 215.609 262.503ZM219.899 263.651L212.96 274.469L211.596 273.594L215.046 268.215L216.421 266.638L217.291 264.715L218.535 262.776L219.899 263.651Z" fill="#212121"/>
        <path d="M208.687 255.644L205.789 264.571L204.436 263.384L206.816 256.493L207.249 256.873L200.62 260.037L199.267 258.85L207.956 255.003L208.687 255.644ZM212.842 254.619L207.541 256.841L207.956 255.003L211.488 253.432L212.842 254.619Z" fill="#212121"/>
        <path d="M198.188 244.112C198.677 244.795 198.956 245.525 199.025 246.302C199.095 247.079 198.972 247.824 198.656 248.537C198.331 249.257 197.826 249.862 197.143 250.351C196.47 250.833 195.75 251.106 194.983 251.168C194.206 251.237 193.461 251.114 192.748 250.799C192.035 250.483 191.433 249.984 190.944 249.301C190.462 248.628 190.186 247.903 190.117 247.126C190.031 246.346 190.146 245.599 190.461 244.886C190.777 244.173 191.271 243.575 191.944 243.093C192.627 242.604 193.362 242.321 194.149 242.245C194.926 242.175 195.674 242.303 196.395 242.629C197.108 242.945 197.705 243.439 198.188 244.112ZM196.915 245.024C196.6 244.585 196.218 244.268 195.769 244.074C195.319 243.879 194.849 243.81 194.358 243.866C193.857 243.93 193.378 244.126 192.919 244.454C192.471 244.775 192.144 245.164 191.939 245.621C191.728 246.067 191.647 246.531 191.697 247.013C191.729 247.491 191.903 247.95 192.217 248.389C192.532 248.828 192.914 249.145 193.363 249.339C193.803 249.541 194.268 249.614 194.759 249.557C195.25 249.501 195.72 249.312 196.169 248.99C196.627 248.662 196.967 248.271 197.188 247.817C197.4 247.37 197.486 246.903 197.446 246.415C197.406 245.927 197.229 245.463 196.915 245.024Z" fill="#212121"/>
        <path d="M191.839 233.818L187.395 236.08C186.818 236.374 186.434 236.798 186.245 237.352C186.056 237.906 186.108 238.472 186.402 239.049C186.598 239.434 186.858 239.733 187.181 239.945C187.505 240.158 187.86 240.273 188.246 240.292C188.633 240.31 189.019 240.222 189.404 240.026L189.369 240.791C188.792 241.085 188.213 241.218 187.633 241.19C187.053 241.162 186.518 240.983 186.027 240.654C185.526 240.33 185.128 239.879 184.834 239.302C184.54 238.724 184.426 238.143 184.492 237.557C184.552 236.961 184.752 236.415 185.092 235.919C185.421 235.428 185.848 235.05 186.372 234.783L191.104 232.374L191.839 233.818ZM194.582 239.208L186.962 243.086L186.228 241.643L193.847 237.764L194.582 239.208Z" fill="#212121"/>
        <path d="M182.712 225.123L181.327 225.448L180.554 222.154C180.387 221.441 180.077 220.934 179.625 220.634C179.172 220.333 178.636 220.256 178.017 220.401C177.433 220.538 176.993 220.844 176.698 221.32C176.4 221.785 176.335 222.373 176.502 223.086L177.279 226.398L175.842 226.735L175.053 223.37C174.872 222.599 174.866 221.892 175.036 221.248C175.193 220.607 175.494 220.075 175.936 219.65C176.376 219.214 176.929 218.918 177.595 218.762C178.285 218.6 178.923 218.617 179.511 218.811C180.097 218.995 180.603 219.338 181.029 219.842C181.444 220.349 181.741 220.988 181.922 221.759L182.712 225.123ZM188.263 224.986L176.101 227.839L175.715 226.192L187.876 223.339L188.263 224.986ZM186.618 217.976L182.204 223.671L181.295 222.239L186.129 215.891L186.618 217.976Z" fill="#212121"/>
        <path d="M185.88 210.801C185.928 211.58 185.78 212.298 185.436 212.957C185.08 213.616 184.578 214.152 183.93 214.565C183.282 214.965 182.538 215.192 181.7 215.244C180.861 215.295 180.096 215.162 179.403 214.845C178.709 214.515 178.146 214.051 177.712 213.452C177.277 212.842 177.036 212.141 176.987 211.351C176.947 210.704 177.049 210.121 177.293 209.601C177.525 209.069 177.871 208.633 178.331 208.292C178.778 207.952 179.313 207.745 179.933 207.67L182.502 207.511C183.115 207.51 183.671 207.649 184.169 207.931C184.667 208.201 185.07 208.585 185.377 209.083C185.671 209.57 185.839 210.142 185.88 210.801ZM184.336 210.626C184.286 209.824 183.977 209.194 183.408 208.736C182.826 208.279 182.111 208.077 181.26 208.129C180.673 208.165 180.171 208.311 179.754 208.565C179.324 208.808 179.002 209.14 178.788 209.562C178.562 209.985 178.465 210.466 178.498 211.005C178.532 211.544 178.687 212.015 178.964 212.419C179.241 212.811 179.608 213.113 180.066 213.325C180.512 213.526 181.016 213.609 181.579 213.574C182.154 213.538 182.656 213.393 183.085 213.138C183.501 212.872 183.822 212.521 184.048 212.087C184.273 211.652 184.369 211.165 184.336 210.626ZM185.525 207.974L183.225 208.116L181.122 207.939L179.075 208.372L176.991 208.501L176.89 206.866L185.424 206.339L185.525 207.974Z" fill="#212121"/>
        <path d="M185.537 202.908L177.002 202.414L177.095 200.797L185.631 201.291L185.537 202.908ZM175.341 201.506C175.324 201.806 175.214 202.046 175.011 202.226C174.797 202.406 174.539 202.488 174.24 202.47C173.952 202.454 173.718 202.344 173.538 202.141C173.345 201.938 173.258 201.686 173.275 201.387C173.292 201.087 173.408 200.847 173.623 200.668C173.826 200.487 174.071 200.405 174.359 200.422C174.658 200.439 174.904 200.549 175.097 200.753C175.277 200.956 175.359 201.207 175.341 201.506Z" fill="#212121"/>
        <path d="M185.84 198.622L173.085 197.041L173.285 195.433L186.039 197.014L185.84 198.622Z" fill="#212121"/>
        <path d="M187.173 191.478C187.066 191.946 186.907 192.377 186.695 192.772C186.473 193.153 186.211 193.493 185.909 193.794C185.596 194.092 185.252 194.334 184.878 194.52L184.09 193.271C184.533 193.052 184.894 192.764 185.171 192.409C185.437 192.05 185.626 191.626 185.737 191.134C185.848 190.643 185.853 190.244 185.75 189.937C185.635 189.628 185.426 189.439 185.121 189.37C184.817 189.302 184.558 189.36 184.344 189.545C184.12 189.716 183.918 189.959 183.735 190.275C183.541 190.587 183.348 190.925 183.155 191.287C182.953 191.635 182.726 191.959 182.474 192.259C182.221 192.558 181.918 192.785 181.563 192.938C181.211 193.08 180.783 193.094 180.28 192.98C179.777 192.866 179.372 192.645 179.065 192.317C178.746 191.986 178.536 191.582 178.435 191.104C178.337 190.614 178.358 190.059 178.499 189.439C178.647 188.783 178.895 188.23 179.244 187.78C179.583 187.316 180.017 186.971 180.548 186.747L181.336 187.996C180.978 188.161 180.678 188.401 180.435 188.715C180.194 189.017 180.024 189.384 179.926 189.817C179.823 190.274 179.825 190.644 179.933 190.926C180.032 191.195 180.222 191.361 180.503 191.425C180.784 191.488 181.025 191.432 181.224 191.256C181.424 191.08 181.615 190.834 181.798 190.518C181.983 190.191 182.176 189.853 182.378 189.505C182.568 189.155 182.795 188.831 183.059 188.534C183.323 188.237 183.637 188.019 184.001 187.88C184.368 187.729 184.808 187.712 185.323 187.829C186.107 188.007 186.664 188.428 186.993 189.093C187.325 189.747 187.385 190.542 187.173 191.478Z" fill="#212121"/>
        <path d="M185.721 177.384L184.442 176.762L185.921 173.719C186.241 173.06 186.32 172.472 186.158 171.953C185.997 171.434 185.63 171.036 185.058 170.758C184.518 170.496 183.984 170.456 183.455 170.639C182.931 170.811 182.509 171.227 182.189 171.885L180.702 174.945L179.374 174.3L180.885 171.192C181.231 170.479 181.673 169.927 182.21 169.534C182.737 169.137 183.306 168.913 183.917 168.863C184.534 168.802 185.15 168.921 185.765 169.22C186.402 169.53 186.887 169.945 187.22 170.467C187.559 170.979 187.734 171.565 187.747 172.225C187.749 172.879 187.577 173.563 187.231 174.275L185.721 177.384ZM190.115 180.779L178.879 175.32L179.618 173.798L190.854 179.257L190.115 180.779ZM193.261 174.303L186.244 175.937L186.442 174.252L194.197 172.377L193.261 174.303Z" fill="#212121"/>
        <path d="M197.015 168.556C196.621 169.129 196.135 169.56 195.558 169.847C194.978 170.118 194.367 170.222 193.726 170.159C193.084 170.096 192.457 169.853 191.844 169.431L187.753 166.612L188.673 165.278L192.704 168.056C193.09 168.322 193.47 168.489 193.845 168.558C194.217 168.61 194.566 168.559 194.891 168.404C195.216 168.249 195.498 167.999 195.736 167.653C196.097 167.129 196.216 166.607 196.095 166.086C195.963 165.558 195.605 165.093 195.022 164.691L190.991 161.914L191.91 160.579L196.001 163.398C196.614 163.82 197.064 164.32 197.351 164.897C197.638 165.474 197.759 166.081 197.713 166.72C197.663 167.341 197.431 167.954 197.015 168.556Z" fill="#212121"/>
        <path d="M203.139 160.848C202.696 161.321 202.198 161.66 201.644 161.865C201.09 162.053 200.531 162.097 199.968 161.996C199.404 161.896 198.887 161.65 198.415 161.257L196.537 159.498C196.106 159.045 195.826 158.545 195.698 157.997C195.569 157.432 195.585 156.872 195.745 156.315C195.904 155.741 196.202 155.221 196.636 154.757C197.17 154.188 197.794 153.811 198.51 153.626C199.233 153.433 199.964 153.434 200.7 153.631C201.437 153.828 202.111 154.213 202.725 154.787C203.338 155.362 203.766 156.01 204.011 156.732C204.255 157.454 204.304 158.182 204.159 158.917C204.012 159.635 203.673 160.279 203.139 160.848ZM201.838 159.999C202.207 159.605 202.439 159.173 202.534 158.703C202.629 158.233 202.601 157.763 202.45 157.292C202.29 156.814 202 156.377 201.579 155.984C201.168 155.598 200.718 155.341 200.23 155.213C199.742 155.084 199.27 155.087 198.816 155.221C198.354 155.346 197.942 155.602 197.581 155.987C197.212 156.381 196.98 156.813 196.885 157.283C196.781 157.745 196.813 158.211 196.981 158.681C197.149 159.151 197.444 159.583 197.864 159.977C198.276 160.362 198.717 160.628 199.189 160.774C199.66 160.903 200.127 160.904 200.59 160.779C201.061 160.645 201.477 160.385 201.838 159.999ZM199.932 164.009L190.552 155.224L191.659 154.041L196.323 158.41L197.624 160.048L199.358 161.252L201.039 162.827L199.932 164.009Z" fill="#212121"/>
        <path d="M210 154.258L201.76 149.765L203.176 148.653L209.51 152.263L209.057 152.619L207.169 145.52L208.585 144.409L210.765 153.658L210 154.258ZM210.241 158.531L209.034 152.911L210.765 153.658L211.657 157.42L210.241 158.531Z" fill="#212121"/>
        <path d="M223.25 146.03C222.489 146.386 221.72 146.527 220.944 146.453C220.167 146.379 219.457 146.121 218.814 145.68C218.165 145.229 217.663 144.622 217.307 143.861C216.957 143.111 216.821 142.353 216.9 141.588C216.974 140.811 217.232 140.101 217.673 139.458C218.114 138.815 218.715 138.315 219.475 137.959C220.226 137.609 220.989 137.47 221.765 137.544C222.548 137.602 223.26 137.852 223.904 138.293C224.547 138.734 225.044 139.329 225.395 140.079C225.751 140.84 225.894 141.615 225.825 142.402C225.751 143.178 225.488 143.891 225.036 144.539C224.595 145.183 224 145.68 223.25 146.03ZM222.586 144.612C223.076 144.383 223.457 144.066 223.731 143.659C224.004 143.253 224.158 142.804 224.193 142.311C224.222 141.807 224.117 141.299 223.878 140.789C223.645 140.289 223.322 139.896 222.911 139.612C222.51 139.322 222.069 139.157 221.587 139.118C221.111 139.062 220.628 139.149 220.139 139.378C219.65 139.607 219.268 139.924 218.995 140.33C218.716 140.726 218.559 141.17 218.525 141.663C218.49 142.156 218.59 142.652 218.824 143.152C219.063 143.663 219.385 144.069 219.79 144.369C220.191 144.659 220.635 144.829 221.122 144.879C221.609 144.93 222.097 144.841 222.586 144.612Z" fill="#212121"/>
        <path d="M234.2 141.771L232.787 136.989C232.603 136.368 232.256 135.913 231.746 135.626C231.235 135.339 230.669 135.287 230.048 135.471C229.634 135.593 229.293 135.794 229.025 136.074C228.757 136.353 228.579 136.681 228.49 137.058C228.401 137.434 228.418 137.83 228.54 138.244L227.794 138.07C227.611 137.449 227.585 136.856 227.719 136.291C227.852 135.726 228.125 135.232 228.539 134.81C228.948 134.376 229.464 134.067 230.085 133.883C230.707 133.7 231.299 133.693 231.863 133.865C232.438 134.032 232.939 134.329 233.365 134.753C233.787 135.167 234.082 135.655 234.248 136.219L235.753 141.311L234.2 141.771ZM228.4 143.485L225.976 135.285L227.53 134.826L229.953 143.026L228.4 143.485Z" fill="#212121"/>
        <path d="M245.021 134.274L244.961 132.853L248.342 132.709C249.073 132.678 249.629 132.468 250.009 132.08C250.389 131.691 250.565 131.179 250.538 130.544C250.513 129.945 250.294 129.455 249.881 129.077C249.481 128.697 248.915 128.523 248.184 128.554L244.785 128.699L244.722 127.224L248.175 127.077C248.966 127.044 249.662 127.17 250.263 127.457C250.863 127.732 251.33 128.126 251.664 128.641C252.01 129.154 252.198 129.753 252.227 130.436C252.257 131.144 252.121 131.768 251.82 132.309C251.531 132.85 251.099 133.283 250.524 133.607C249.949 133.92 249.266 134.093 248.474 134.127L245.021 134.274ZM244.119 139.753L243.589 127.272L245.279 127.2L245.81 139.681L244.119 139.753ZM251.313 139.447L246.543 134.047L248.12 133.421L253.453 139.356L251.313 139.447Z" fill="#212121"/>
        <path d="M258.393 140.023C257.618 139.927 256.939 139.649 256.355 139.19C255.773 138.719 255.339 138.127 255.052 137.414C254.777 136.703 254.692 135.93 254.795 135.097C254.898 134.263 255.17 133.535 255.61 132.912C256.062 132.291 256.622 131.823 257.29 131.506C257.97 131.192 258.702 131.083 259.488 131.18C260.132 131.26 260.686 131.468 261.152 131.804C261.632 132.129 261.997 132.549 262.248 133.064C262.5 133.567 262.605 134.13 262.564 134.754L262.248 137.308C262.137 137.911 261.897 138.432 261.528 138.87C261.171 139.309 260.72 139.634 260.174 139.845C259.641 140.045 259.047 140.104 258.393 140.023ZM258.849 138.538C259.647 138.636 260.323 138.448 260.878 137.973C261.434 137.486 261.764 136.819 261.869 135.974C261.941 135.39 261.891 134.87 261.718 134.413C261.558 133.946 261.29 133.568 260.915 133.28C260.541 132.98 260.086 132.796 259.55 132.73C259.014 132.663 258.523 132.729 258.075 132.928C257.639 133.128 257.275 133.433 256.982 133.844C256.702 134.245 256.528 134.725 256.459 135.285C256.388 135.857 256.438 136.377 256.61 136.845C256.795 137.304 257.08 137.684 257.466 137.985C257.852 138.287 258.313 138.471 258.849 138.538ZM261.237 140.194L261.52 137.907L262.081 135.873L262.032 133.781L262.289 131.709L263.914 131.91L262.863 140.395L261.237 140.194Z" fill="#212121"/>
        <path d="M266.044 141.092L268.092 132.791L269.665 133.179L267.617 141.48L266.044 141.092ZM269.288 131.324C268.997 131.253 268.781 131.1 268.64 130.868C268.503 130.624 268.47 130.356 268.542 130.065C268.611 129.785 268.761 129.575 268.994 129.435C269.229 129.283 269.492 129.243 269.784 129.315C270.075 129.387 270.289 129.544 270.427 129.789C270.567 130.021 270.603 130.277 270.534 130.557C270.462 130.848 270.309 131.069 270.073 131.222C269.841 131.362 269.579 131.396 269.288 131.324Z" fill="#212121"/>
        <path d="M270.261 142.186L274.183 129.946L275.725 130.441L271.804 142.68L270.261 142.186Z" fill="#212121"/>
        <path d="M276.903 144.755C276.463 144.564 276.068 144.329 275.719 144.047C275.386 143.759 275.099 143.44 274.859 143.088C274.623 142.724 274.449 142.342 274.335 141.94L275.707 141.395C275.841 141.871 276.058 142.279 276.356 142.617C276.659 142.944 277.042 143.207 277.505 143.407C277.968 143.607 278.359 143.684 278.679 143.639C279.004 143.583 279.228 143.412 279.352 143.126C279.475 142.839 279.466 142.574 279.323 142.329C279.196 142.078 278.994 141.834 278.718 141.597C278.446 141.349 278.149 141.097 277.829 140.841C277.524 140.578 277.247 140.296 276.999 139.992C276.751 139.689 276.584 139.349 276.498 138.972C276.424 138.6 276.489 138.177 276.693 137.704C276.898 137.23 277.19 136.872 277.568 136.631C277.952 136.378 278.388 136.246 278.876 136.235C279.376 136.228 279.918 136.351 280.502 136.603C281.118 136.87 281.616 137.215 281.995 137.64C282.389 138.059 282.648 138.549 282.771 139.112L281.398 139.657C281.302 139.275 281.122 138.936 280.858 138.639C280.605 138.347 280.274 138.113 279.867 137.937C279.437 137.751 279.073 137.686 278.775 137.74C278.493 137.788 278.295 137.944 278.181 138.209C278.067 138.473 278.078 138.72 278.214 138.949C278.351 139.178 278.557 139.41 278.834 139.648C279.122 139.889 279.418 140.142 279.723 140.404C280.033 140.655 280.309 140.938 280.553 141.252C280.796 141.567 280.953 141.915 281.023 142.298C281.103 142.686 281.039 143.122 280.83 143.607C280.511 144.345 279.995 144.815 279.28 145.016C278.577 145.222 277.785 145.135 276.903 144.755Z" fill="#212121"/>
        <path d="M291.116 145.945L291.961 144.802L294.683 146.812C295.272 147.247 295.836 147.433 296.375 147.369C296.915 147.305 297.374 147.017 297.752 146.505C298.108 146.023 298.245 145.505 298.161 144.951C298.088 144.404 297.757 143.913 297.168 143.478L294.431 141.457L295.308 140.27L298.088 142.323C298.725 142.794 299.188 143.329 299.475 143.93C299.77 144.52 299.886 145.121 299.823 145.731C299.77 146.348 299.54 146.932 299.134 147.482C298.713 148.051 298.216 148.452 297.642 148.684C297.077 148.924 296.469 148.989 295.818 148.881C295.174 148.763 294.533 148.469 293.896 147.999L291.116 145.945ZM286.974 149.644L294.396 139.596L295.757 140.601L288.335 150.649L286.974 149.644ZM292.766 153.922L292.443 146.724L294.063 147.227L294.489 155.195L292.766 153.922Z" fill="#212121"/>
        <path d="M297.671 158.587C297.179 158.095 296.844 157.539 296.666 156.92C296.505 156.301 296.513 155.681 296.691 155.062C296.87 154.442 297.222 153.869 297.748 153.343L301.261 149.83L302.406 150.976L298.944 154.438C298.613 154.769 298.38 155.113 298.244 155.469C298.125 155.825 298.113 156.177 298.206 156.525C298.299 156.873 298.494 157.196 298.791 157.493C299.241 157.942 299.733 158.155 300.268 158.129C300.811 158.095 301.333 157.828 301.833 157.327L305.295 153.865L306.441 155.011L302.928 158.524C302.402 159.05 301.829 159.402 301.21 159.58C300.59 159.758 299.971 159.767 299.351 159.606C298.749 159.444 298.189 159.105 297.671 158.587Z" fill="#212121"/>
        <path d="M304.415 166.346C304.032 165.823 303.791 165.271 303.691 164.689C303.609 164.11 303.669 163.552 303.872 163.017C304.074 162.482 304.412 162.018 304.884 161.628L306.96 160.106C307.485 159.766 308.028 159.583 308.59 159.558C309.169 159.536 309.717 159.655 310.235 159.915C310.77 160.178 311.225 160.565 311.601 161.078C312.062 161.707 312.317 162.391 312.367 163.128C312.424 163.875 312.287 164.592 311.958 165.28C311.629 165.968 311.126 166.56 310.448 167.056C309.771 167.553 309.055 167.855 308.3 167.962C307.545 168.069 306.82 167.983 306.124 167.704C305.446 167.428 304.876 166.975 304.415 166.346ZM305.489 165.224C305.808 165.659 306.19 165.967 306.635 166.147C307.079 166.327 307.547 166.386 308.037 166.324C308.537 166.255 309.019 166.051 309.484 165.71C309.939 165.377 310.274 164.982 310.49 164.526C310.707 164.07 310.791 163.606 310.743 163.135C310.705 162.657 310.53 162.205 310.218 161.78C309.899 161.344 309.517 161.036 309.072 160.856C308.638 160.669 308.174 160.615 307.681 160.693C307.188 160.772 306.709 160.982 306.245 161.322C305.79 161.655 305.447 162.041 305.217 162.477C305.003 162.917 304.915 163.375 304.953 163.853C304.998 164.341 305.177 164.798 305.489 165.224ZM301.9 162.61L312.265 155.012L313.223 156.319L308.069 160.096L306.219 161.073L304.716 162.555L302.857 163.917L301.9 162.61Z" fill="#212121"/>
        <path d="M309.464 174.041L315.385 166.759L316.219 168.354L311.515 173.923L311.248 173.412L318.572 172.852L319.406 174.447L309.914 174.902L309.464 174.041ZM305.219 173.498L310.964 173.337L309.914 174.902L306.053 175.093L305.219 173.498Z" fill="#212121"/>
        <path d="M315.112 188.52C314.902 187.707 314.904 186.925 315.119 186.175C315.334 185.426 315.717 184.775 316.269 184.223C316.832 183.668 317.52 183.286 318.333 183.075C319.135 182.868 319.904 182.873 320.643 183.091C321.392 183.306 322.043 183.689 322.595 184.241C323.147 184.792 323.528 185.474 323.738 186.287C323.946 187.089 323.942 187.865 323.727 188.614C323.527 189.373 323.151 190.028 322.599 190.58C322.048 191.131 321.371 191.511 320.57 191.718C319.757 191.929 318.969 191.928 318.208 191.716C317.458 191.501 316.806 191.112 316.251 190.549C315.699 189.998 315.32 189.321 315.112 188.52ZM316.628 188.127C316.764 188.65 317.006 189.083 317.355 189.427C317.704 189.77 318.118 190.004 318.597 190.128C319.086 190.249 319.604 190.239 320.15 190.098C320.685 189.96 321.13 189.714 321.485 189.362C321.843 189.022 322.085 188.618 322.212 188.151C322.354 187.693 322.357 187.203 322.222 186.68C322.087 186.157 321.845 185.724 321.495 185.38C321.158 185.034 320.75 184.799 320.272 184.675C319.793 184.55 319.287 184.558 318.752 184.696C318.206 184.837 317.749 185.08 317.379 185.423C317.021 185.764 316.772 186.169 316.634 186.639C316.495 187.108 316.493 187.605 316.628 188.127Z" fill="#212121"/>
        <path d="M317.338 200.523L322.299 200.024C322.944 199.959 323.455 199.703 323.832 199.255C324.209 198.807 324.365 198.26 324.3 197.616C324.257 197.186 324.123 196.813 323.898 196.498C323.674 196.183 323.385 195.947 323.031 195.79C322.677 195.632 322.286 195.575 321.856 195.618L322.165 194.918C322.81 194.853 323.398 194.939 323.928 195.175C324.458 195.411 324.892 195.771 325.231 196.256C325.581 196.739 325.788 197.303 325.853 197.948C325.918 198.593 325.814 199.176 325.541 199.698C325.269 200.232 324.885 200.669 324.388 201.008C323.903 201.346 323.369 201.545 322.784 201.603L317.5 202.135L317.338 200.523ZM316.733 194.505L325.24 193.65L325.402 195.262L316.895 196.117L316.733 194.505Z" fill="#212121"/>
        <circle cx="336.5" cy="213.5" r="72.5" transform="rotate(-180 336.5 213.5)" fill="url(#paint2_radial_123_5390__planets)"/>
        <defs>
            <radialGradient id="paint0_radial_123_5390__planets" cx="0" cy="0" r="1" gradientUnits="userSpaceOnUse" gradientTransform="translate(135 366.037) rotate(-135.7) scale(64.5382 50.8266)">
                <stop offset="0.146825" stop-color="#EAEAEA"/>
                <stop offset="0.309839" stop-color="#FFE6ED"/>
                <stop offset="0.386422" stop-color="#F7C2DC"/>
                <stop offset="0.477083" stop-color="#F2B0D0"/>
                <stop offset="0.64375" stop-color="#E98ED1"/>
                <stop offset="0.789583" stop-color="#6D73DD"/>
                <stop offset="0.914583" stop-color="#3073C1"/>
                <stop offset="1" stop-color="#638B9F"/>
            </radialGradient>
            <radialGradient id="paint1_radial_123_5390__planets" cx="0" cy="0" r="1" gradientUnits="userSpaceOnUse" gradientTransform="translate(668 291.523) rotate(-135.7) scale(121.77 95.8993)">
                <stop offset="0.146825" stop-color="#EAEAEA"/>
                <stop offset="0.309839" stop-color="#FFE6ED"/>
                <stop offset="0.386422" stop-color="#F7C2DC"/>
                <stop offset="0.477083" stop-color="#F2B0D0"/>
                <stop offset="0.64375" stop-color="#E98ED1"/>
                <stop offset="0.789583" stop-color="#6D73DD"/>
                <stop offset="0.914583" stop-color="#3073C1"/>
                <stop offset="1" stop-color="#638B9F"/>
            </radialGradient>
            <radialGradient id="paint2_radial_123_5390__planets" cx="0" cy="0" r="1" gradientUnits="userSpaceOnUse" gradientTransform="translate(409 275.159) rotate(-135.7) scale(176.567 139.054)">
                <stop offset="0.146825" stop-color="#EAEAEA"/>
                <stop offset="0.309839" stop-color="#E6FFFC"/>
                <stop offset="0.386422" stop-color="#C2F7F7"/>
                <stop offset="0.477083" stop-color="#B0EEF2"/>
                <stop offset="0.64375" stop-color="#8EE9D8"/>
                <stop offset="0.789583" stop-color="#6DDDDD"/>
                <stop offset="0.914583" stop-color="#3073C1"/>
                <stop offset="1" stop-color="#638B9F"/>
            </radialGradient>
        </defs>
    </symbol>
</svg>