<svg width="32" height="32" viewBox="0 0 32 32" fill="none" xmlns="http://www.w3.org/2000/svg">
<path fill-rule="evenodd" clip-rule="evenodd" d="M10 4H22.0053C25.316 4 28 6.684 28 9.99467V22.0067C28 25.316 25.316 28 22.0053 28H9.99467C6.684 28 4 25.316 4 22.0053V10C4 6.68667 6.68667 4 10 4V4Z" stroke="white" stroke-width="1.5" stroke-linecap="round" stroke-linejoin="round"/>
<path d="M23.4833 14.0667C23.4833 13.6524 23.1475 13.3167 22.7333 13.3167C22.319 13.3167 21.9833 13.6524 21.9833 14.0667H23.4833ZM8.93884 20.0242C8.69449 19.6897 8.22527 19.6167 7.89081 19.8611C7.55635 20.1054 7.4833 20.5746 7.72766 20.9091L8.93884 20.0242ZM8.21628 19.7258C7.80714 19.7904 7.52783 20.1745 7.59243 20.5836C7.65703 20.9928 8.04108 21.2721 8.45022 21.2075L8.21628 19.7258ZM10.7333 19.6667L10.9716 20.3778C11.2172 20.2955 11.4029 20.0923 11.4629 19.8403C11.5228 19.5884 11.4486 19.3233 11.2665 19.1392L10.7333 19.6667ZM9.93325 10.0667L10.5939 9.71156C10.4713 9.48349 10.2397 9.33478 9.9813 9.31819C9.7229 9.3016 9.47421 9.41948 9.32346 9.63001L9.93325 10.0667ZM14.7333 14.0667L14.556 14.7954C14.7754 14.8488 15.0071 14.8005 15.1869 14.6639C15.3667 14.5273 15.4754 14.317 15.4828 14.0913L14.7333 14.0667ZM21.9333 11.6667L21.3073 12.0797C21.4461 12.2901 21.6812 12.4167 21.9333 12.4167V11.6667ZM24.3333 11.6667L24.9573 12.0827C25.1107 11.8525 25.125 11.5566 24.9945 11.3128C24.864 11.0689 24.6098 10.9167 24.3333 10.9167V11.6667ZM22.1092 13.6506C21.8795 13.9953 21.9726 14.4609 22.3172 14.6907C22.6619 14.9205 23.1275 14.8273 23.3573 14.4827L22.1092 13.6506ZM21.9833 14.0667C21.9833 16.7286 21.2233 18.9376 19.8709 20.4704C18.5287 21.9916 16.5426 22.9166 13.9333 22.9166V24.4166C16.924 24.4166 19.3378 23.3417 20.9956 21.4629C22.6432 19.5957 23.4833 17.0047 23.4833 14.0667H21.9833ZM13.9333 22.9166C12.4779 22.9166 11.5108 22.5412 10.7855 22.0279C10.0373 21.4984 9.50113 20.7938 8.93884 20.0242L7.72766 20.9091C8.28271 21.6688 8.94656 22.5642 9.91901 23.2524C10.9144 23.9568 12.1886 24.4166 13.9333 24.4166V22.9166ZM8.45022 21.2075C8.47663 21.2033 8.49704 21.1986 8.50386 21.197C8.51331 21.1948 8.52093 21.1928 8.52544 21.1916C8.53448 21.1893 8.54177 21.1872 8.54544 21.1861C8.55327 21.1838 8.56024 21.1817 8.56447 21.1804C8.57365 21.1775 8.58411 21.1742 8.5943 21.1709C8.61531 21.1641 8.64386 21.1548 8.67793 21.1436C8.74647 21.1211 8.84224 21.0893 8.95552 21.0517C9.18232 20.9763 9.48201 20.8762 9.78052 20.7765C10.0791 20.6767 10.3769 20.577 10.6 20.5023C10.7115 20.4649 10.8044 20.4338 10.8694 20.412C10.902 20.4011 10.9275 20.3926 10.9449 20.3867C10.9536 20.3838 10.9603 20.3816 10.9648 20.3801C10.967 20.3793 10.9687 20.3787 10.9699 20.3783C10.9705 20.3782 10.9709 20.378 10.9712 20.3779C10.9713 20.3779 10.9714 20.3778 10.9715 20.3778C10.9715 20.3778 10.9716 20.3778 10.9716 20.3778C10.9716 20.3778 10.9716 20.3778 10.7333 19.6667C10.4949 18.9555 10.4949 18.9555 10.4949 18.9555C10.4948 18.9556 10.4948 18.9556 10.4948 18.9556C10.4947 18.9556 10.4946 18.9556 10.4945 18.9557C10.4942 18.9558 10.4937 18.9559 10.4932 18.9561C10.492 18.9565 10.4903 18.9571 10.4881 18.9578C10.4836 18.9593 10.4769 18.9616 10.4682 18.9645C10.4509 18.9703 10.4254 18.9788 10.3929 18.9897C10.3279 19.0115 10.2351 19.0426 10.1236 19.0799C9.9007 19.1546 9.60322 19.2541 9.30499 19.3538C9.00666 19.4536 8.70793 19.5533 8.48236 19.6283C8.36945 19.6658 8.27554 19.6969 8.20937 19.7187C8.17608 19.7296 8.15102 19.7378 8.13446 19.7431C8.12587 19.7459 8.12155 19.7472 8.12026 19.7476C8.11925 19.748 8.12207 19.7471 8.12685 19.7457C8.12899 19.7451 8.13504 19.7433 8.1431 19.7412C8.14713 19.7401 8.15434 19.7383 8.16345 19.7361C8.16993 19.7346 8.19007 19.73 8.21628 19.7258L8.45022 21.2075ZM11.2665 19.1392C8.85664 16.7029 8.67678 13.1096 10.543 10.5033L9.32346 9.63001C7.04039 12.8184 7.26586 17.2277 10.2 20.1941L11.2665 19.1392ZM9.27264 10.4217C10.3298 12.3886 12.3199 14.2514 14.556 14.7954L14.9105 13.3379C13.1893 12.9192 11.5047 11.4061 10.5939 9.71156L9.27264 10.4217ZM15.4828 14.0913C15.5154 13.1002 15.8649 12.2861 16.4143 11.7247C16.9596 11.1675 17.7429 10.8167 18.7333 10.8167V9.31665C17.3676 9.31665 16.1889 9.81048 15.3422 10.6756C14.4996 11.5366 14.0271 12.7225 13.9837 14.042L15.4828 14.0913ZM18.7333 10.8167C19.4383 10.8167 19.9488 10.9505 20.3371 11.1578C20.7238 11.3642 21.0356 11.6681 21.3073 12.0797L22.5592 11.2536C22.1789 10.6772 21.6927 10.1811 21.0434 9.83451C20.3958 9.48879 19.6322 9.31665 18.7333 9.31665V10.8167ZM21.9333 12.4167H24.3333V10.9167H21.9333V12.4167ZM23.7092 11.2506L22.1092 13.6506L23.3573 14.4827L24.9573 12.0827L23.7092 11.2506Z" fill="white"/>
</svg>
